<svg xmlns="http://www.w3.org/2000/svg" xmlns:xlink="http://www.w3.org/1999/xlink" width="105" height="105" viewBox="0 0 105 105">
  <defs>
    <clipPath id="clip-path">
      <rect id="Rectángulo_42899" data-name="Rectángulo 42899" width="79.812" height="67.856" fill="none"/>
    </clipPath>
  </defs>
  <g id="Grupo_170098" data-name="Grupo 170098" transform="translate(-5769 8847)">
    <path id="Trazado_164418" data-name="Trazado 164418" d="M52.5,0A52.5,52.5,0,1,1,0,52.5,52.5,52.5,0,0,1,52.5,0Z" transform="translate(5769 -8847)" fill="#e1e8ff"/>
    <g id="Grupo_170097" data-name="Grupo 170097" transform="translate(5782 -8828)">
      <g id="Grupo_170096" data-name="Grupo 170096" transform="translate(0 0)" clip-path="url(#clip-path)">
        <path id="Trazado_164701" data-name="Trazado 164701" d="M11.413,57.762a17.084,17.084,0,0,0,7.491.332,16.692,16.692,0,0,1,8.144.757,13.138,13.138,0,0,0,8.288-.089,13.669,13.669,0,0,1,8.717-.1A14.978,14.978,0,0,0,53.7,58.6a14.568,14.568,0,0,1,7.47-.437,14.978,14.978,0,0,0,6.815-.325,15.92,15.92,0,0,1,10.966.438.892.892,0,0,0,.854-.927c0-.527-.385-.732-.823-.877-.494-.163-.98-.354-1.477-.507a14.36,14.36,0,0,0-6.517-.525c.044-.119.047-.183.081-.218A28.892,28.892,0,0,0,78.1,42.04,2.6,2.6,0,0,0,75.412,38.5c-2.381-.013-4.762-.036-7.142.016-.751.016-.893-.23-.886-.925.034-3.745.023-7.49.012-11.235a2.681,2.681,0,0,0-2.909-2.939q-4.443-.012-8.884,0a2.684,2.684,0,0,0-2.923,2.925c-.01,1.016-.035,2.034.011,3.048.025.546-.144.674-.677.67-4.152-.023-8.3-.029-12.456,0-.65,0-.753-.217-.734-.79.042-1.247.021-2.5.007-3.745-.007-.564-.256-.955-.886-.95s-.855.383-.851.965c.006.958,0,1.917,0,2.875,0,1.628,0,1.591-1.624,1.644-.753.025-1.009-.128-1.006-.961.035-9.261.022-18.522.022-27.782,0-.559.042-1.154-.7-1.3-.78-.152-.981.407-1.167.988a15.406,15.406,0,0,1-7.479,9.11c-3.825,2.1-7.833,2.811-12.021,1.063-1.188-.5-1.636-.209-1.637,1.116q0,6.358,0,12.716c0,.251.051.644-.079.727-.306.2-.492-.181-.7-.352a.81.81,0,0,0-1.234.022c-.419.44-.289.867.081,1.307.306.362,1.018.444.983.941a4.5,4.5,0,0,1-.654,1.4c-.3.626-.61,1.249-.885,1.885a10.8,10.8,0,0,0,1.02,10.827,2.3,2.3,0,0,0,3.926.3,8.589,8.589,0,0,0,2.2-6.232A19.628,19.628,0,0,0,14.366,28.9c-.345-.83-.725-1.589.436-2.078a.832.832,0,0,0,.3-.311.791.791,0,0,0-.094-1.1.8.8,0,0,0-1.1-.116c-.205.134-.3.446-.619.4V13.9c.311.339.495.556.7.757q7.326,7.331,14.656,14.659c.267.266.53.537.8.8.175.17.334.3.039.535a3.033,3.033,0,0,0-1,2.655c.014,4.5-.008,9,.021,13.5,0,.669-.15.864-.845.861-6.068-.03-12.136-.021-18.2-.014a2.638,2.638,0,0,0-2.9,2.85,13.227,13.227,0,0,0,.463,4.759A16.23,16.23,0,0,0,.84,56.469c-.426.168-.826.355-.818.884a.891.891,0,0,0,.856.924,29.145,29.145,0,0,1,3.83-1.108,15.931,15.931,0,0,1,6.7.593m2.907-20.576a6.473,6.473,0,0,1-1.625,3.669c-.528.6-.817.578-1.269-.111a8.992,8.992,0,0,1-1.131-8.353,30.669,30.669,0,0,1,1.954-4.118c1.144,2.994,2.4,5.765,2.071,8.912m40.1-5.114c0-1.856,0-3.712,0-5.567,0-1.084.256-1.342,1.323-1.342q4.263-.007,8.525,0a1.42,1.42,0,0,1,1.379,2.065c-.144.341-.438.218-.673.22-1.363.012-2.726,0-4.089.007-2.1,0-3.035,1-3.138,3.068-.143,2.889.862,4.123,3.934,3.929,1.126-.071,2.261.006,3.391-.02.457-.01.605.145.592.6-.03.955-.026,1.913,0,2.87.012.437-.105.612-.58.61q-5.046-.027-10.092,0c-.57,0-.582-.277-.579-.7.012-1.914.006-3.828.006-5.742m11.268.041c.009.435-.212.54-.593.534-.781-.013-1.563,0-2.345,0-.753,0-1.505-.007-2.258,0a.848.848,0,0,1-.933-.717,4.254,4.254,0,0,1,.043-2.143.854.854,0,0,1,.933-.619c1.505-.018,3.01,0,4.515-.012.432,0,.642.169.635.616-.012.781-.015,1.563,0,2.344m-13.629-.331c.512,0,.633.17.628.649-.023,1.885-.013,3.772-.006,5.658,0,.332-.014.587-.409.734a4.748,4.748,0,0,0-2.6,2.657A8.767,8.767,0,0,1,45.553,45.8c-.175.085-.363.145-.624.249,0-1.812.026-3.548-.007-5.283a4.669,4.669,0,0,0-2.607-4.478,5.314,5.314,0,0,0-5.61.361,4.643,4.643,0,0,0-2,4.04c-.026,2.089-.031,4.178.006,6.267.011.587-.173.729-.727.707-1.043-.043-2.089-.036-3.133,0-.5.016-.638-.15-.636-.642.017-4.671.006-9.343.014-14.014,0-.925.281-1.2,1.2-1.2,6.877-.007,13.754,0,20.632-.015M36.445,40.731A3.231,3.231,0,0,1,39.8,37.4a3.2,3.2,0,0,1,3.369,3.227c.06,1.852,0,3.707.031,5.559.01.5-.274.56-.62.639a43.553,43.553,0,0,1-5.675.741c-.42.039-.477-.146-.472-.494.013-1.1,0-2.2.006-3.3,0-1.013-.016-2.028,0-3.041M16.013,14.218c-.14-.139-.331-.245-.355-.471,7.442.708,12.923-2.5,17.086-8.713,0,8.273,0,16.307-.008,24.341,0,.225.17.578-.21.651a.852.852,0,0,1-.823-.122c-.1-.1-.211-.2-.314-.3Q23.7,21.913,16.013,14.218M9.223,49.394c.26-.019.523-.006.784-.007,8.65-.015,17.3.011,25.95-.064a27.669,27.669,0,0,0,8.907-1.346A10.229,10.229,0,0,0,51.078,42.5a3.6,3.6,0,0,1,3.761-2.283c6.734.078,13.469.03,20.2.031,1.434,0,1.66.288,1.3,1.655a31.041,31.041,0,0,1-3.649,8.51,1.408,1.408,0,0,1-1.4.734q-20.2-.027-40.408-.017c-.672,0-1.31,0-1.457.864.085.688.516.9,1.158.885,1.044-.02,2.089,0,3.134,0H70.9c-1.692,1.588-2.867,3.405-5.269,3.638a23.363,23.363,0,0,1-5.548-.235,14.33,14.33,0,0,0-6.7.609,14.075,14.075,0,0,1-9.127.056,14.436,14.436,0,0,0-9.232.1,11.823,11.823,0,0,1-7.518.125,19.29,19.29,0,0,0-9.694-.678c-2.557.506-4.993-.316-7.478-.7A2.114,2.114,0,0,1,8.4,53.761c-.127-.644-.021-.914.746-.909,4.585.037,9.172.012,13.757.025.674,0,1.223-.093,1.344-.886-.154-.775-.707-.87-1.377-.868q-6.837.018-13.673,0c-.36,0-.928.269-.911-.519.015-.663.183-1.15.936-1.206" transform="translate(-0.004 0)"/>
        <path id="Trazado_164702" data-name="Trazado 164702" d="M11.282,77.6a17.443,17.443,0,0,0,8,.407,16.218,16.218,0,0,1,7.978.746,12.8,12.8,0,0,0,8.192-.088,14.555,14.555,0,0,1,9.315.045,13.138,13.138,0,0,0,8.368-.025,16.42,16.42,0,0,1,8.154-.592,16,16,0,0,0,7.07-.391,16.551,16.551,0,0,1,10.742.407,11.9,11.9,0,0,1,.107-2.363h0c-1.293-.306-2.516-.855-3.837-1.07a13.08,13.08,0,0,0-5.435.27,21.864,21.864,0,0,1-9.724.574,12.03,12.03,0,0,0-6.177.531,15.43,15.43,0,0,1-9.9.082,13.4,13.4,0,0,0-8.549.1,13.309,13.309,0,0,1-8.458.085,17.442,17.442,0,0,0-8.75-.63,15.739,15.739,0,0,1-7.31-.555,14.164,14.164,0,0,0-9.532.485,3.3,3.3,0,0,1-.587.131,11.949,11.949,0,0,1,.108,2.361A15.862,15.862,0,0,1,11.282,77.6" transform="translate(-0.169 -13.296)" fill="#78a4fe"/>
        <path id="Trazado_164703" data-name="Trazado 164703" d="M11.814,72.651a15.731,15.731,0,0,0,7.229.329,16.6,16.6,0,0,1,8.239.715,12.718,12.718,0,0,0,8.191-.083,14.7,14.7,0,0,1,9.4.065,12.992,12.992,0,0,0,8.283-.044,16.572,16.572,0,0,1,8.24-.585,16.694,16.694,0,0,0,7.322-.475,16.121,16.121,0,0,1,10.4.491q.006-1.172.013-2.345c-.384.229-.733.031-1.08-.1a13.516,13.516,0,0,0-8.461-.394,28.737,28.737,0,0,1-4.705.84,14.666,14.666,0,0,1-3.895-.264,13.693,13.693,0,0,0-6.791.423,15.446,15.446,0,0,1-9.91.159,14.751,14.751,0,0,0-9.238.207,12.235,12.235,0,0,1-7.036.16,23.872,23.872,0,0,0-6.657-1.181,12.2,12.2,0,0,0-2.16.23,16.528,16.528,0,0,1-7.836-.4,14.31,14.31,0,0,0-9.468.308.858.858,0,0,1-.834.008q.006,1.171.013,2.342a16.273,16.273,0,0,1,10.737-.411" transform="translate(-0.19 -12.443)" fill="#79a4fe"/>
        <path id="Trazado_164704" data-name="Trazado 164704" d="M1.9,70.652a14.315,14.315,0,0,1,9.468-.308,16.528,16.528,0,0,0,7.836.4,12.278,12.278,0,0,1,2.16-.23,23.9,23.9,0,0,1,6.657,1.181,12.221,12.221,0,0,0,7.036-.16,14.751,14.751,0,0,1,9.238-.207,15.446,15.446,0,0,0,9.91-.159,13.7,13.7,0,0,1,6.791-.423,14.665,14.665,0,0,0,3.895.264,28.649,28.649,0,0,0,4.705-.84,13.522,13.522,0,0,1,8.461.394c.347.129.7.327,1.08.1a15.92,15.92,0,0,0-10.966-.438,14.978,14.978,0,0,1-6.815.325,14.568,14.568,0,0,0-7.47.437,14.973,14.973,0,0,1-9.643.065,13.675,13.675,0,0,0-8.717.1,13.144,13.144,0,0,1-8.288.089,16.7,16.7,0,0,0-8.144-.757,17.084,17.084,0,0,1-7.491-.331,15.918,15.918,0,0,0-6.7-.593,29.021,29.021,0,0,0-3.83,1.108.858.858,0,0,0,.834-.008" transform="translate(-0.19 -12.384)" fill="#79a4fe"/>
        <path id="Trazado_164705" data-name="Trazado 164705" d="M1.581,74.934a13.146,13.146,0,0,1,7.594-.759c.908.194,1.82.368,2.72.595a14.632,14.632,0,0,0,6.552.288,16.1,16.1,0,0,1,7.321.345,20.953,20.953,0,0,0,5.115.957,13.77,13.77,0,0,0,4.448-.7,14.489,14.489,0,0,1,8.985-.038,13.932,13.932,0,0,0,8.642.066,16.191,16.191,0,0,1,8.407-.612,16.606,16.606,0,0,0,7.066-.435c1.075-.249,2.155-.458,3.247-.619a13.45,13.45,0,0,1,6.886,1.04.807.807,0,0,1,.477.353h0a.876.876,0,0,0,.759-.9c.012-.573-.452-.738-.868-.93a.986.986,0,0,1-.919-.032,15.307,15.307,0,0,0-9.416-.208,22.98,22.98,0,0,1-4.2.684,18.349,18.349,0,0,1-4.239-.34,15.238,15.238,0,0,0-7.123.713,13.7,13.7,0,0,1-8.465.038,16.133,16.133,0,0,0-4.707-.745,15.228,15.228,0,0,0-4.873.78,12.1,12.1,0,0,1-7.109.209,22.416,22.416,0,0,0-6.748-1.151,20.036,20.036,0,0,0-2.936.33,16.14,16.14,0,0,1-6.8-.481,26.541,26.541,0,0,0-4.026-.7,13.972,13.972,0,0,0-5.223.759c-.4.126-.8.375-1.251.135-.416.195-.884.357-.871.932a.876.876,0,0,0,.76.9h0a1.356,1.356,0,0,1,.8-.485" transform="translate(-0.004 -12.967)"/>
        <path id="Trazado_164706" data-name="Trazado 164706" d="M11.064,75.074a15.742,15.742,0,0,0,7.311.555,17.44,17.44,0,0,1,8.75.63,13.315,13.315,0,0,0,8.458-.085,13.393,13.393,0,0,1,8.549-.1,15.431,15.431,0,0,0,9.9-.083,12.03,12.03,0,0,1,6.177-.531,21.867,21.867,0,0,0,9.725-.574,13.09,13.09,0,0,1,5.435-.27c1.322.215,2.545.763,3.838,1.07a.8.8,0,0,0-.477-.353A13.457,13.457,0,0,0,71.843,74.3c-1.092.162-2.172.371-3.247.62a16.606,16.606,0,0,1-7.066.435,16.191,16.191,0,0,0-8.407.612,13.932,13.932,0,0,1-8.642-.066,14.481,14.481,0,0,0-8.984.038,13.8,13.8,0,0,1-4.449.7,20.947,20.947,0,0,1-5.114-.957,16.105,16.105,0,0,0-7.322-.345,14.629,14.629,0,0,1-6.551-.288c-.9-.227-1.813-.4-2.72-.595a13.148,13.148,0,0,0-7.6.759,1.356,1.356,0,0,0-.8.485,3.276,3.276,0,0,0,.586-.131,14.164,14.164,0,0,1,9.532-.486" transform="translate(-0.169 -13.238)"/>
        <path id="Trazado_164707" data-name="Trazado 164707" d="M2.331,73.408a13.974,13.974,0,0,1,5.223-.758,26.366,26.366,0,0,1,4.027.7,16.135,16.135,0,0,0,6.8.48,20.038,20.038,0,0,1,2.936-.33,22.416,22.416,0,0,1,6.748,1.151,12.1,12.1,0,0,0,7.109-.209,15.25,15.25,0,0,1,4.873-.78,16.161,16.161,0,0,1,4.707.745,13.692,13.692,0,0,0,8.465-.038,15.249,15.249,0,0,1,7.123-.713,18.349,18.349,0,0,0,4.239.341,22.969,22.969,0,0,0,4.2-.685,15.307,15.307,0,0,1,9.416.209.983.983,0,0,0,.919.031,16.127,16.127,0,0,0-10.4-.49,16.694,16.694,0,0,1-7.322.475,16.564,16.564,0,0,0-8.24.585,12.992,12.992,0,0,1-8.283.044,14.7,14.7,0,0,0-9.4-.065,12.723,12.723,0,0,1-8.191.083,16.6,16.6,0,0,0-8.239-.715,15.731,15.731,0,0,1-7.229-.329,16.268,16.268,0,0,0-10.735.411c.445.24.848-.01,1.25-.136" transform="translate(-0.193 -12.924)"/>
        <path id="Trazado_164708" data-name="Trazado 164708" d="M79.163,78.824c-.079-.035-.154-.08-.232-.119h0a.916.916,0,0,1-.839-.017,15.452,15.452,0,0,0-9.507-.2,20.014,20.014,0,0,1-8.8.318,14.672,14.672,0,0,0-6.361.614,16.624,16.624,0,0,1-5.046.819,16.751,16.751,0,0,1-3.256-.535,22.985,22.985,0,0,0-5.044-.9,17.772,17.772,0,0,0-5.392.88,12.307,12.307,0,0,1-7.373-.02,19.01,19.01,0,0,0-9.537-.624,14.806,14.806,0,0,1-6.632-.575,15.466,15.466,0,0,0-9.337.2,1.015,1.015,0,0,1-.922.042c-.546.258-1.113.54-.791,1.287.312.724.886.585,1.471.346a13.871,13.871,0,0,1,9.116-.458,17.028,17.028,0,0,0,7.741.581,16.109,16.109,0,0,1,7.985.514,14.04,14.04,0,0,0,9.049.045,13.389,13.389,0,0,1,8.63-.055,15.125,15.125,0,0,0,9.73-.108,12.892,12.892,0,0,1,6.612-.508,19.891,19.891,0,0,0,8.7-.465,14.2,14.2,0,0,1,5.685-.453,16.59,16.59,0,0,1,3.6.974c.542.212,1.049.213,1.317-.408.247-.573-.039-.939-.559-1.171" transform="translate(0 -13.89)"/>
        <path id="Trazado_164709" data-name="Trazado 164709" d="M2,78.606a15.472,15.472,0,0,1,9.337-.2,14.8,14.8,0,0,0,6.631.576,19.012,19.012,0,0,1,9.538.623,12.314,12.314,0,0,0,7.373.021,17.8,17.8,0,0,1,5.391-.881,22.985,22.985,0,0,1,5.045.9,16.866,16.866,0,0,0,3.256.535,16.644,16.644,0,0,0,5.045-.819,14.66,14.66,0,0,1,6.361-.615,19.993,19.993,0,0,0,8.8-.318,15.452,15.452,0,0,1,9.507.2.918.918,0,0,0,.839.018,16.551,16.551,0,0,0-10.742-.407,16.013,16.013,0,0,1-7.069.391,16.419,16.419,0,0,0-8.154.591,13.135,13.135,0,0,1-8.368.026,14.555,14.555,0,0,0-9.315-.045,12.793,12.793,0,0,1-8.192.087,16.236,16.236,0,0,0-7.978-.746,17.432,17.432,0,0,1-8-.407,15.857,15.857,0,0,0-10.227.509A1.018,1.018,0,0,0,2,78.606" transform="translate(-0.192 -13.835)"/>
        <path id="Trazado_164710" data-name="Trazado 164710" d="M10.994,59.854q6.836.022,13.672,0c.67,0,1.224.094,1.378.868l1.694,0a.886.886,0,0,1,.849-.84c.544-.023.826.34.946.841h1.692c.147-.859.785-.864,1.457-.863q20.2.006,40.408.017a1.408,1.408,0,0,0,1.4-.734,31.061,31.061,0,0,0,3.649-8.51c.362-1.367.136-1.655-1.3-1.655-6.734,0-13.469.046-20.2-.032a3.6,3.6,0,0,0-3.761,2.284,10.233,10.233,0,0,1-6.213,5.482,27.672,27.672,0,0,1-8.907,1.346c-8.65.075-17.3.049-25.951.063-.26,0-.523-.012-.783.007-.753.055-.921.542-.936,1.205-.017.789.551.519.911.52" transform="translate(-1.799 -8.734)" fill="#b7b7ce"/>
        <path id="Trazado_164711" data-name="Trazado 164711" d="M29.706,63.42a.85.85,0,0,1-.171-.09c-.113.465-.336.822-.891.816a.85.85,0,0,1-.878-.814.954.954,0,0,1-.159.086,2.03,2.03,0,0,1-1.549-.134c-.121.794-.67.888-1.344.886-4.585-.013-9.172.012-13.757-.025-.767-.006-.873.265-.746.909a2.114,2.114,0,0,0,1.935,2.024c2.485.385,4.919,1.209,7.478.7a19.281,19.281,0,0,1,9.694.678,11.829,11.829,0,0,0,7.518-.125,14.436,14.436,0,0,1,9.232-.1,14.086,14.086,0,0,0,9.127-.056,14.33,14.33,0,0,1,6.7-.609,23.364,23.364,0,0,0,5.548.235c2.4-.232,3.577-2.051,5.269-3.639H35.532c-1.045,0-2.09-.016-3.134,0-.642.012-1.073-.2-1.158-.885a2.019,2.019,0,0,1-1.535.137" transform="translate(-1.814 -11.293)" fill="#fe596d"/>
        <path id="Trazado_164712" data-name="Trazado 164712" d="M33.756,63.283c0,.016-.011.03-.015.046a.841.841,0,0,0,.172.091,2.017,2.017,0,0,0,1.534-.137H33.756" transform="translate(-6.021 -11.293)" fill="#fe596d"/>
        <path id="Trazado_164713" data-name="Trazado 164713" d="M31.059,63.418a1.059,1.059,0,0,0,.159-.086c0-.017-.011-.031-.013-.049l-1.694,0a2.028,2.028,0,0,0,1.548.134" transform="translate(-5.266 -11.293)" fill="#fe596d"/>
        <path id="Trazado_164714" data-name="Trazado 164714" d="M36.789,39.9c-.008,4.671,0,9.343-.014,14.014,0,.492.135.658.635.642,1.043-.034,2.09-.04,3.133,0,.555.022.737-.12.727-.706-.037-2.088-.032-4.178-.007-6.267a4.645,4.645,0,0,1,2-4.04,5.314,5.314,0,0,1,5.61-.361,4.67,4.67,0,0,1,2.608,4.478c.032,1.735.007,3.471.007,5.283.26-.1.448-.163.623-.248a8.77,8.77,0,0,0,4.117-4.317,4.745,4.745,0,0,1,2.6-2.657c.394-.147.41-.4.408-.734-.007-1.886-.016-3.772.007-5.658.006-.479-.116-.65-.628-.649-6.876.016-13.754.008-20.631.015-.915,0-1.195.279-1.2,1.2" transform="translate(-6.562 -6.904)" fill="#e5e5fe"/>
        <path id="Trazado_164715" data-name="Trazado 164715" d="M66.807,43.976q5.045-.036,10.092,0c.475,0,.592-.173.58-.61-.025-.956-.028-1.914,0-2.871.014-.455-.136-.61-.592-.6-1.13.025-2.265-.052-3.391.02-3.072.194-4.077-1.04-3.934-3.929.1-2.072,1.034-3.064,3.138-3.068,1.363,0,2.726,0,4.089-.007.235,0,.529.121.673-.22a1.421,1.421,0,0,0-1.379-2.065q-4.263,0-8.525,0c-1.066,0-1.319.259-1.323,1.342-.006,1.856,0,3.712,0,5.568,0,1.913.007,3.828-.006,5.741,0,.421.009.7.579.7" transform="translate(-11.818 -5.465)" fill="#f1f1fe"/>
        <path id="Trazado_164716" data-name="Trazado 164716" d="M44.816,55.691a43.664,43.664,0,0,0,5.674-.741c.346-.079.63-.14.621-.639-.035-1.853.028-3.708-.031-5.56a3.2,3.2,0,0,0-3.369-3.226,3.23,3.23,0,0,0-3.358,3.331c-.021,1.013,0,2.027,0,3.041,0,1.1.007,2.2-.007,3.3,0,.348.053.533.473.495" transform="translate(-7.913 -8.124)" fill="#cbcbef"/>
        <path id="Trazado_164717" data-name="Trazado 164717" d="M12.4,38.533a9,9,0,0,0,1.132,8.354c.453.688.74.714,1.268.111a6.479,6.479,0,0,0,1.626-3.67c.325-3.147-.928-5.918-2.071-8.912A30.773,30.773,0,0,0,12.4,38.533M13.64,44.55a.817.817,0,0,1-.859-.884.854.854,0,0,1,1.708.017c.01.559-.322.822-.849.867" transform="translate(-2.113 -6.142)" fill="#9d9db7"/>
        <path id="Trazado_164718" data-name="Trazado 164718" d="M77.955,35.485c-1.505.009-3.01-.006-4.515.012a.853.853,0,0,0-.932.619,4.245,4.245,0,0,0-.044,2.143.849.849,0,0,0,.934.717c.753-.01,1.505,0,2.258,0,.781,0,1.563-.008,2.344,0,.382.006.6-.1.593-.534-.017-.781-.013-1.563,0-2.344.007-.447-.2-.619-.635-.616" transform="translate(-12.91 -6.332)" fill="#404243"/>
        <path id="Trazado_164719" data-name="Trazado 164719" d="M33.339,63.2c-.009-.007-.021-.008-.03-.016-.823-.73-.823-.73-1.646-.006a.313.313,0,0,1-.043.024c.785.762.859.762,1.72,0" transform="translate(-5.642 -11.178)" fill="#060405"/>
        <path id="Trazado_164720" data-name="Trazado 164720" d="M31.654,63.113c.823-.724.822-.724,1.646.006.008.008.021.009.03.016l.038-.034c-.12-.5-.4-.864-.946-.841a.885.885,0,0,0-.849.84h0l.038.036c.013-.01.031-.013.044-.024" transform="translate(-5.634 -11.11)" fill="#060405"/>
        <path id="Trazado_164721" data-name="Trazado 164721" d="M31.614,63.326l-.025.013a.849.849,0,0,0,.878.814c.554.006.776-.352.89-.816-.007-.006-.016-.007-.024-.013-.86.763-.934.764-1.72,0" transform="translate(-5.637 -11.3)" fill="#060405"/>
        <path id="Trazado_164722" data-name="Trazado 164722" d="M31.611,63.318l-.038-.036c0,.018.01.032.013.049l.025-.013" transform="translate(-5.634 -11.293)" fill="#060405"/>
        <path id="Trazado_164723" data-name="Trazado 164723" d="M33.736,63.33c0-.016.011-.03.015-.046l-.039.033c.007.006.016.008.024.013" transform="translate(-6.016 -11.293)" fill="#060405"/>
        <path id="Trazado_164724" data-name="Trazado 164724" d="M13.808,44.671a.8.8,0,0,0-.823.825.817.817,0,0,0,.859.884c.527-.045.859-.307.849-.867a.8.8,0,0,0-.886-.842" transform="translate(-2.317 -7.972)" fill="#050506"/>
      </g>
    </g>
  </g>
</svg>
