<svg xmlns="http://www.w3.org/2000/svg" xmlns:xlink="http://www.w3.org/1999/xlink" width="105" height="105" viewBox="0 0 105 105">
  <defs>
    <clipPath id="clip-path">
      <rect id="Rectángulo_42904" data-name="Rectángulo 42904" width="70.194" height="70.193" transform="translate(0 0)" fill="none"/>
    </clipPath>
  </defs>
  <g id="Grupo_170117" data-name="Grupo 170117" transform="translate(-5141 8847)">
    <path id="Trazado_164415" data-name="Trazado 164415" d="M52.5,0A52.5,52.5,0,1,1,0,52.5,52.5,52.5,0,0,1,52.5,0Z" transform="translate(5141 -8847)" fill="#e1e8ff"/>
    <g id="Grupo_170112" data-name="Grupo 170112" transform="translate(5158 -8830)">
      <g id="Grupo_170111" data-name="Grupo 170111" clip-path="url(#clip-path)">
        <path id="Trazado_164833" data-name="Trazado 164833" d="M34.8,70.151a1.407,1.407,0,0,1-.9-1.589c.062-.6-.085-.848-.763-.941a10.274,10.274,0,0,1-4.975-2.107c-.4-.316-.643-.291-.936.092a2.7,2.7,0,0,1-.545.516,1.167,1.167,0,0,1-1.5-.074,1.111,1.111,0,0,1-.1-1.546,7.724,7.724,0,0,1,.706-.743c.345-.343.133-.568-.2-.6-.658-.055-1.323-.021-1.985-.015-.247,0-.248.219-.31.386a1.075,1.075,0,0,1-1.222.747,5,5,0,0,1-3.36-1.822,4.7,4.7,0,0,1-3.527,1.819A4.618,4.618,0,0,1,11.7,62.454a5.026,5.026,0,0,1-3.2,1.8c-1.142.122-1.734-.6-1.345-1.663.087-.237.075-.306-.14-.4C4.788,61.283,3,59.695,1.025,58.388a2.027,2.027,0,0,1-1-1.97,1.916,1.916,0,0,1,1.3-1.694A2.6,2.6,0,0,1,2.4,54.593c1.389.089,2.78.165,4.167.276.328.026.448-.023.438-.375q-.033-1.231,0-2.465c.01-.33-.111-.44-.421-.454-.638-.03-1.278-.056-1.912-.134A1.143,1.143,0,0,1,3.53,50.115a1.188,1.188,0,0,1,1.387-1.009c.547.033,1.1.046,1.638.118.386.051.452-.094.449-.438-.014-1.735-.028-3.471.007-5.2.009-.455-.2-.616-.543-.8a3.479,3.479,0,0,1,.869-6.419,5.738,5.738,0,0,1,1.291-.11c2.375-.01,4.749-.017,7.123.005.467,0,.627-.11.62-.6q-.041-3.048,0-6.1a.762.762,0,0,0-.49-.779,3.474,3.474,0,0,1,1.082-6.5,7,7,0,0,1,1.159-.075q12.192-.006,24.383.011c.621,0,.788-.149.779-.776-.037-2.716-.018-5.433-.015-8.149,0-1.9.852-2.784,2.744-2.748.618.012.977-.085,1.192-.753a3.729,3.729,0,0,1,1.58-1.923.916.916,0,0,0,.43-.638,4.5,4.5,0,0,1,2.394-3.158,1.354,1.354,0,0,0,.6-.61,6.354,6.354,0,0,1,10.729-.935c.169.215.267.412.643.237a4.62,4.62,0,0,1,6.485,3.576c0,.034.056.063.086.094V7.8a4.451,4.451,0,0,1-3.429,3.9,2.09,2.09,0,0,0-1,.678,4.739,4.739,0,0,1-5.366,1.531.941.941,0,0,0-.99.2,4.807,4.807,0,0,1-4,1.2,1.2,1.2,0,0,0-.97.224,1.417,1.417,0,0,1-.459.3c-1.054.284-1.218,1.021-1.152,1.99.075,1.114.012,2.237.019,3.356.005.759.058.816.824.817,2.695.007,5.39-.011,8.084.008a3.725,3.725,0,0,1,3.831,2.9A3.589,3.589,0,0,1,64.1,28.689a1.618,1.618,0,0,0-.756,1.543c.035,1.712.028,3.426,0,5.138a1.479,1.479,0,0,0,.688,1.371,3.624,3.624,0,0,1-.113,6.1,1.117,1.117,0,0,0-.569,1.01c.008,1.462.018,2.924,0,4.385-.009.566.216.792.771.754.319-.022.637-.036.956-.068a1.441,1.441,0,0,1,1.677,1.151c.11.8-.36,1.371-1.277,1.564a8.393,8.393,0,0,1-1.3.073c-.676.037-.8.16-.82.817-.013.5.013,1-.007,1.507-.018.445.157.59.6.586,1.211-.01,2.412-.168,3.621-.208a3.048,3.048,0,0,1,1.83.432,1.907,1.907,0,0,1,.742,1.462v.822a2.327,2.327,0,0,1-1.124,1.549,45.933,45.933,0,0,1-5.458,3.526c-.3.14-.349.347-.314.665a1.265,1.265,0,0,1-1.421,1.553,4.486,4.486,0,0,1-2.9-1.234.612.612,0,0,0-.976-.018,4.191,4.191,0,0,1-5.993.033.655.655,0,0,0-1.037,0,4.555,4.555,0,0,1-2.841,1.218,1.26,1.26,0,0,1-1.322-.66.771.771,0,0,0-.788-.43c-.228.007-.457-.008-.685,0-.244.012-.576-.1-.7.145-.14.273.194.421.353.594a1.551,1.551,0,0,1,.52,1.286,1.312,1.312,0,0,1-2.047.9,2.971,2.971,0,0,1-.571-.49.56.56,0,0,0-.842-.059A11.242,11.242,0,0,1,37.07,67.8c-.407.067-.622.233-.593.666a1.979,1.979,0,0,1-.071.61c-.142.568-.4,1.014-1.059,1.072Z"/>
        <path id="Trazado_164834" data-name="Trazado 164834" d="M54.668,70.151c-.537-.275-.953-.628-.86-1.316s.556-.921,1.172-1.041a2.873,2.873,0,0,0,1.854-1.29c.952-1.388,2.29-1.373,3.264.008a3.1,3.1,0,0,0,.233.337c1.128,1.215,2.157,1.232,3.282-.029.181-.2.309-.453.484-.662a1.693,1.693,0,0,1,2.723,0,3.734,3.734,0,0,0,2.491,1.738c.468.079.651.507.841.89v.548a1.024,1.024,0,0,1-.822.822h-.959a4.531,4.531,0,0,1-2.6-1.333c-.184-.19-.346-.247-.57-.025a4.413,4.413,0,0,1-2.862,1.358H61.52a4.637,4.637,0,0,1-3.1-1.709,4.079,4.079,0,0,1-3.066,1.709Z"/>
        <path id="Trazado_164835" data-name="Trazado 164835" d="M.815,70.151c-.472-.336-.928-.692-.79-1.367.134-.653.612-.882,1.225-1a2.769,2.769,0,0,0,1.786-1.263,1.8,1.8,0,0,1,3.258-.024c.066.093.118.2.192.282,1.13,1.309,2.235,1.314,3.365.021.149-.17.255-.377.4-.555a1.708,1.708,0,0,1,2.846-.015,3.63,3.63,0,0,0,2.385,1.655,1.028,1.028,0,0,1,.835.962c.09.678-.33,1.018-.836,1.308h-.822a3.932,3.932,0,0,1-2.6-1.338c-.225-.257-.427-.285-.678-.016a4.247,4.247,0,0,1-2.886,1.354H7.8a4.344,4.344,0,0,1-2.866-1.365c-.229-.235-.38-.159-.561.029A4.316,4.316,0,0,1,1.5,70.151Z"/>
        <path id="Trazado_164836" data-name="Trazado 164836" d="M55.353,70.151A5.517,5.517,0,0,0,58.3,68.394c.121-.156.226-.1.316.018a5.711,5.711,0,0,0,2.9,1.739Z" fill="#fdfdfd"/>
        <path id="Trazado_164837" data-name="Trazado 164837" d="M8.489,70.151a5.382,5.382,0,0,0,3.031-1.734c.089-.111.2-.185.318-.025a5.891,5.891,0,0,0,2.817,1.759Z" fill="#fdfdfd"/>
        <path id="Trazado_164838" data-name="Trazado 164838" d="M1.5,70.151a5.449,5.449,0,0,0,3.009-1.738c.1-.125.214-.148.328,0A5.46,5.46,0,0,0,7.8,70.151Z" fill="#fdfdfd"/>
        <path id="Trazado_164839" data-name="Trazado 164839" d="M62.342,70.151a5.409,5.409,0,0,0,2.958-1.74.184.184,0,0,1,.329,0,6.343,6.343,0,0,0,2.742,1.742Z" fill="#fdfdfd"/>
        <path id="Trazado_164840" data-name="Trazado 164840" d="M69.33,70.151a3.45,3.45,0,0,0,.822-.822q.232,1.054-.822.822" fill="#f5f5f5"/>
        <path id="Trazado_164841" data-name="Trazado 164841" d="M58.5,36.161c-.25.011-.5.032-.75.032q-19.142,0-38.282.016c-.616,0-.8-.141-.781-.772.045-1.871.03-3.744.006-5.615-.006-.453.131-.567.574-.566q19.415.016,38.829.011a4,4,0,0,1,.407.04,1.2,1.2,0,0,1,.216.838q.009,2.59,0,5.181a1.128,1.128,0,0,1-.219.835" fill="#f4f4f4"/>
        <path id="Trazado_164842" data-name="Trazado 164842" d="M60.562,40.833c-.3.013-.591.037-.887.037q-8.659,0-17.32,0c-.8,0-1.6.037-2.392.059-.9.025-1.2.288-1.38,1.184a7.6,7.6,0,0,1-2.682.1c-.156-.006-.3-.1-.465-.05h-.729a14.766,14.766,0,0,1-2.433.1,1.074,1.074,0,0,1-.717-.147c-.184-.929-.494-1.165-1.517-1.185-7.12-.136-14.241-.023-21.361-.059-1.136-.006-1.687-.382-1.665-1.147s.565-1.13,1.638-1.13q25.678.012,51.357.028c.182,0,.364.016.546.025a1.635,1.635,0,0,1,.007,2.185" fill="#e81e63"/>
        <path id="Trazado_164843" data-name="Trazado 164843" d="M25.753,56.076a9.32,9.32,0,1,1,9.286,9.4,9.26,9.26,0,0,1-9.286-9.4" fill="#e54c3c"/>
        <path id="Trazado_164844" data-name="Trazado 164844" d="M31.558,42.115a17.067,17.067,0,0,1,3.148.046,1.285,1.285,0,0,0-.8,1.493c.052.616-.114.826-.783.923A10.12,10.12,0,0,0,28.278,46.6c-.508.4-.83.4-1.194-.115a1.65,1.65,0,0,0-.4-.363,1.1,1.1,0,0,0-1.5.095,1.115,1.115,0,0,0-.12,1.492l.074.114c.226.348.82.518.746.949-.067.385-.468.706-.695,1.072a.542.542,0,0,1-.548.29c-4.97-.162-9.938-.375-14.9-.673-.339-.02-.414-.155-.411-.462.011-1.757.026-3.514-.006-5.27-.011-.611.383-.438.68-.438q9.069-.009,18.139-.006c.685,0,1.371,0,2.053-.023.836-.03,1.164-.318,1.363-1.148" fill="#f4f4f4"/>
        <path id="Trazado_164845" data-name="Trazado 164845" d="M52.65,13.6c-.185-2.484-.51-2.812-3.132-3.156a1.753,1.753,0,0,1,1-.878,1.432,1.432,0,0,0,.959-1.426,2.211,2.211,0,0,1,1.594-2.153A1.658,1.658,0,0,0,54.1,4.97a3.838,3.838,0,0,1,3.728-2.617A3.9,3.9,0,0,1,61.66,4.932c.486,1.117,1.284,1.264,2.2.428a2.281,2.281,0,0,1,2.827-.354,2.331,2.331,0,0,1,1.074,2.529,2.247,2.247,0,0,1-2.285,1.78,1.407,1.407,0,0,0-1.381.9,2.269,2.269,0,0,1-3.729.8c-.931-.741-1.561-.609-2.138.446a2.237,2.237,0,0,1-2.915,1.2,1.532,1.532,0,0,0-2.134.537.959.959,0,0,1-.53.4" fill="#607d8a"/>
        <path id="Trazado_164846" data-name="Trazado 164846" d="M39.714,26.851H18.074c-.2,0-.411.011-.616,0a1.029,1.029,0,0,1-1.034-.91,1.079,1.079,0,0,1,.732-1.3,2.5,2.5,0,0,1,.946-.1l26.844.017q8.183,0,16.365.007a2.952,2.952,0,0,1,.882.07,1.1,1.1,0,0,1,.879,1.2,1.07,1.07,0,0,1-1.1,1c-.73.023-1.46.024-2.19.024q-10.033,0-20.065,0" fill="#e71e62"/>
        <path id="Trazado_164847" data-name="Trazado 164847" d="M35.436,42.162a16.8,16.8,0,0,1,3.147-.045c.211.883.553,1.146,1.569,1.148q7.5.017,15,.023c1.117,0,2.235.017,3.353.025a1,1,0,0,1,.217.766q.012,2.321,0,4.64c0,.429-.046.841-.624.856-4.123.283-8.252.4-12.381.544-.21.007-.467.129-.634-.1-.307-.423-.606-.853-.882-1.3-.025-.041.136-.207.223-.3a8.918,8.918,0,0,0,.648-.7,1.1,1.1,0,0,0-.1-1.491c-.46-.42-1.1-.568-1.47-.088-.8,1.029-1.417.631-2.249.054a9.665,9.665,0,0,0-4.559-1.655c-.5-.051-.443-.35-.439-.671.008-.7,0-1.394-.81-1.7" fill="#f4f4f4"/>
        <path id="Trazado_164848" data-name="Trazado 164848" d="M67.032,57c-2.091,1.4-3.846,3-6.224,3.513a.9.9,0,0,1-1.021-.252,1.708,1.708,0,0,0-2.77.1,1.033,1.033,0,0,1-.97.457c-.477-.032-.957-.017-1.436,0a2.126,2.126,0,0,1-2.032-.725,1.585,1.585,0,0,0-2.541.241,1.2,1.2,0,0,1-1.1.493c-.819-.041-1.642-.028-2.462-.005-.479.014-.7-.067-.453-.6a3.555,3.555,0,0,0,.373-1.163c.061-.729.458-.924,1.109-.948,2.185-.081,4.371-.17,6.554-.294,3.271-.188,6.546-.336,9.811-.63.987-.089,1.979-.115,3.161-.181" fill="#6a1b99"/>
        <path id="Trazado_164849" data-name="Trazado 164849" d="M3.305,57c1.56.1,3.121.205,4.681.314.908.064,1.815.163,2.724.21,2.96.154,5.924.254,8.881.456,1.161.079,2.326.044,3.483.185.3.037.487.121.568.451a18.312,18.312,0,0,0,.531,1.762c.132.369-.006.44-.332.438-1-.007-2.01-.016-3.015,0-.309.007-.434-.177-.6-.369a1.764,1.764,0,0,0-3.04-.008.887.887,0,0,1-.8.373c-.57-.022-1.143-.033-1.712,0a1.862,1.862,0,0,1-1.779-.673,1.6,1.6,0,0,0-2.475.048,1,1,0,0,1-1.146.3,8.788,8.788,0,0,1-2.76-1.161C5.42,58.6,4.341,57.856,3.256,57.116c.016-.039.033-.077.049-.116" fill="#6a1b99"/>
        <path id="Trazado_164850" data-name="Trazado 164850" d="M58.5,36.161l0-6.854c.636-.014,1.271-.021,1.908-.044.291-.01.4.1.4.4q-.013,3.075,0,6.15c0,.3-.113.4-.4.388-.637-.022-1.274-.025-1.91-.036" fill="#ced7db"/>
        <path id="Trazado_164851" data-name="Trazado 164851" d="M58.093,49.575a.662.662,0,0,0,.42-.738C58.491,47,58.5,45.155,58.5,43.313c.636-.008,1.271-.008,1.906-.029.289-.01.4.086.4.387q-.017,2.692,0,5.385c0,.294-.113.4-.4.4-.771.026-1.541.074-2.311.114" fill="#ced7db"/>
        <path id="Trazado_164852" data-name="Trazado 164852" d="M21.887,52.356c.545.029,1.091.077,1.636.079.327,0,.394.128.309.408a8.74,8.74,0,0,0-.419,2.541c0,.292-.142.4-.426.382q-1.429-.079-2.862-.14c-.275-.011-.261-.192-.261-.377,0-.842.016-1.685-.007-2.527-.009-.366.165-.4.459-.392.523.018,1.047,0,1.571,0v.021" fill="#e81e62"/>
        <path id="Trazado_164853" data-name="Trazado 164853" d="M50.257,54.028c0,.5.184,1.127-.05,1.464-.253.363-.928.107-1.416.161-.542.061-1.089.072-1.633.113-.266.02-.439-.036-.433-.355a8.26,8.26,0,0,0-.413-2.538c-.091-.3-.048-.433.324-.436,1.047-.008,2.094-.04,3.139-.11.455-.03.539.146.508.54s-.007.774-.007,1.161h-.019" fill="#e5e6e7"/>
        <path id="Trazado_164854" data-name="Trazado 164854" d="M12.865,53.6v.547c0,1.165,0,1.179-1.144,1.032a12.2,12.2,0,0,0-1.841-.1c-.4.01-.574-.111-.557-.546.032-.773.021-1.549,0-2.324-.007-.328.1-.446.434-.423q1.364.1,2.729.151c.306.012.386.154.378.428-.012.41,0,.821,0,1.231" fill="#e71e62"/>
        <path id="Trazado_164855" data-name="Trazado 164855" d="M57.281,53.613c0-1.624,0-1.626,1.591-1.709.614-.032,1.435-.309,1.787-.019.419.346.122,1.2.133,1.825.022,1.33.006,1.324-1.348,1.384-.569.024-1.137.07-1.7.125-.347.034-.5-.068-.466-.443s.007-.775.007-1.163" fill="#e4e5e6"/>
        <path id="Trazado_164856" data-name="Trazado 164856" d="M47.95,22.168c-.659.008-1.318,0-1.975.029-.31.013-.378-.107-.375-.393q.018-1.943,0-3.886c0-.286.065-.4.375-.392.657.027,1.316.021,1.975.028a11.208,11.208,0,0,1,0,4.614" fill="#f4f4f4"/>
        <path id="Trazado_164857" data-name="Trazado 164857" d="M47.95,22.168V17.554c.748,0,1.7-.267,2.184.093.458.343.112,1.359.137,2.078.024.682-.011,1.366.012,2.049.011.328-.093.438-.422.423-.636-.029-1.274-.021-1.911-.029" fill="#ced7db"/>
        <path id="Trazado_164858" data-name="Trazado 164858" d="M17.49,53.8c0,.542.21,1.256-.056,1.579-.3.359-1.014-.054-1.547,0-.557.058-.75-.127-.7-.7a18.386,18.386,0,0,0,.008-2.113c-.011-.349.079-.519.455-.435a2.26,2.26,0,0,0,.34.027c.494.033,1.155-.116,1.439.145.338.31.041.986.063,1.5" fill="#e5e6e7"/>
        <path id="Trazado_164859" data-name="Trazado 164859" d="M52.657,53.845c0-.519-.195-1.182.053-1.516.265-.358.983-.061,1.482-.177.684-.159.8.146.76.736-.043.679-.024,1.363,0,2.043.01.323-.1.464-.422.433-.112-.01-.227.008-.341.009-.5,0-1.134.337-1.446.04-.369-.352-.047-1.034-.082-1.568" fill="#e81e63"/>
        <path id="Trazado_164860" data-name="Trazado 164860" d="M47.947,12.894c.615-.007,1.229,0,1.843-.027.336-.012.472.079.491.452.1,1.892.11,1.892-1.79,1.881-.181,0-.363-.015-.545-.023a2.868,2.868,0,0,1,0-2.283" fill="#ac1456"/>
        <path id="Trazado_164861" data-name="Trazado 164861" d="M47.947,12.894q0,1.141,0,2.283c-.2.008-.408.021-.613.022-1.945.007-1.954-.015-1.735-1.987.037-.328.189-.356.44-.35.636.015,1.273.022,1.909.032" fill="#e81e63"/>
        <path id="Trazado_164862" data-name="Trazado 164862" d="M60.562,40.833a3,3,0,0,0-.007-2.185c.478-.007.955-.03,1.432-.017a1.112,1.112,0,1,1,.005,2.224c-.476.013-.953-.013-1.43-.022" fill="#ac1456"/>
        <path id="Trazado_164863" data-name="Trazado 164863" d="M57.271,32.736a1.147,1.147,0,0,1-1.125,1.142,1.169,1.169,0,0,1-1.193-1.15,1.194,1.194,0,0,1,1.133-1.15,1.166,1.166,0,0,1,1.185,1.158" fill="#020202"/>
        <path id="Trazado_164864" data-name="Trazado 164864" d="M51.445,33.882a1.169,1.169,0,0,1-1.161-1.112,1.184,1.184,0,0,1,1.153-1.2A1.2,1.2,0,0,1,52.6,32.762a1.175,1.175,0,0,1-1.156,1.12" fill="#020202"/>
        <path id="Trazado_164865" data-name="Trazado 164865" d="M47.929,32.709a1.172,1.172,0,0,1-1.107,1.166,1.133,1.133,0,0,1-1.206-1.121,1.148,1.148,0,0,1,1.095-1.17,1.179,1.179,0,0,1,1.218,1.125" fill="#020202"/>
        <path id="Trazado_164866" data-name="Trazado 164866" d="M42.122,33.878A1.131,1.131,0,0,1,40.944,32.8a1.143,1.143,0,0,1,1.111-1.218,1.149,1.149,0,1,1,.067,2.3" fill="#010101"/>
        <path id="Trazado_164867" data-name="Trazado 164867" d="M24.527,32.753a1.137,1.137,0,0,1-1.138,1.126,1.17,1.17,0,0,1-1.176-1.168,1.2,1.2,0,0,1,1.15-1.138,1.162,1.162,0,0,1,1.164,1.18" fill="#020202"/>
        <path id="Trazado_164868" data-name="Trazado 164868" d="M29.2,32.75a1.121,1.121,0,0,1-1.128,1.126,1.166,1.166,0,0,1-1.179-1.162,1.191,1.191,0,0,1,1.146-1.137A1.15,1.15,0,0,1,29.2,32.75" fill="#010101"/>
        <path id="Trazado_164869" data-name="Trazado 164869" d="M32.711,33.875a1.146,1.146,0,0,1-1.135-1.128,1.162,1.162,0,0,1,1.174-1.164,1.14,1.14,0,0,1,1.122,1.2,1.126,1.126,0,0,1-1.161,1.09" fill="#010101"/>
        <path id="Trazado_164870" data-name="Trazado 164870" d="M38.56,32.728a1.138,1.138,0,0,1-1.111,1.147,1.126,1.126,0,0,1-1.18-1.139,1.138,1.138,0,0,1,1.1-1.153,1.153,1.153,0,0,1,1.188,1.145" fill="#010101"/>
        <path id="Trazado_164871" data-name="Trazado 164871" d="M28.072,56.128a7,7,0,1,1,7.009,7.012,7.064,7.064,0,0,1-7.009-7.012"/>
        <path id="Trazado_164872" data-name="Trazado 164872" d="M17.543,46.678a1.159,1.159,0,0,1,2.312.17,1.159,1.159,0,1,1-2.312-.17" fill="#030303"/>
        <path id="Trazado_164873" data-name="Trazado 164873" d="M14.017,47.93a1.188,1.188,0,0,1-1.144-1.21,1.158,1.158,0,0,1,1.16-1.109,1.184,1.184,0,0,1,1.156,1.195,1.219,1.219,0,0,1-1.172,1.124" fill="#030303"/>
        <path id="Trazado_164874" data-name="Trazado 164874" d="M51.429,45.612A1.178,1.178,0,0,1,52.6,46.785a1.222,1.222,0,0,1-1.153,1.147,1.2,1.2,0,0,1-1.166-1.192,1.16,1.16,0,0,1,1.144-1.128" fill="#030303"/>
        <path id="Trazado_164875" data-name="Trazado 164875" d="M56.144,47.928a1.215,1.215,0,0,1-1.19-1.1,1.181,1.181,0,0,1,1.137-1.211,1.164,1.164,0,0,1,1.181,1.09,1.188,1.188,0,0,1-1.128,1.226" fill="#020202"/>
        <path id="Trazado_164876" data-name="Trazado 164876" d="M39.732,56.119a4.66,4.66,0,1,1-9.319-.03,4.66,4.66,0,0,1,9.319.03" fill="#bf3a2b"/>
        <path id="Trazado_164877" data-name="Trazado 164877" d="M36.2,56.155a1.115,1.115,0,0,1-1.136,1.113,1.159,1.159,0,0,1-1.146-1.188,1.179,1.179,0,0,1,1.151-1.124,1.146,1.146,0,0,1,1.131,1.2" fill="#010000"/>
      </g>
    </g>
  </g>
</svg>
