<svg xmlns="http://www.w3.org/2000/svg" xmlns:xlink="http://www.w3.org/1999/xlink" width="261" height="225" viewBox="0 0 261 225">
  <defs>
    <clipPath id="clip-path">
      <rect id="Rectángulo_42802" data-name="Rectángulo 42802" width="228.973" height="176.67" fill="none"/>
    </clipPath>
  </defs>
  <g id="Grupo_169992" data-name="Grupo 169992" transform="translate(-775 -452)">
    <g id="Grupo_169864" data-name="Grupo 169864" transform="translate(791 484.944)">
      <g id="Grupo_169863" data-name="Grupo 169863" clip-path="url(#clip-path)">
        <path id="Trazado_163414" data-name="Trazado 163414" d="M36.491,157.129l-1.569,13.18a6.072,6.072,0,0,0,6.029,6.789H53.227l3.791-29.093Z" transform="translate(-23.49 -99.68)" fill="#4663ab"/>
        <path id="Trazado_163415" data-name="Trazado 163415" d="M82.034,489.782a1.334,1.334,0,0,1-1.335,1.341H63.2a2.023,2.023,0,0,1-1.974-2.488l.525-5,1.695-16.107,12.028,3.646s-.827,10.989-.924,11.463l7.064,6.168a1.329,1.329,0,0,1,.422.981" transform="translate(-41.197 -314.875)" fill="#a66353"/>
        <path id="Trazado_163416" data-name="Trazado 163416" d="M196.719,494.041H177.2a2.746,2.746,0,0,1-2.676-2.168l-.793-6.322-1.529-12.21,12.478-1.484s.708,12.039.742,12.124a1.01,1.01,0,0,0,.1.069h.006c.3.188,1.221.753,2.43,1.5,1.238.759,2.767,1.706,4.268,2.653.194.125.382.251.576.371.165.1.325.205.485.308,2.488,1.586,4.627,3.035,4.742,3.372.006.011.006.023.011.034a1.363,1.363,0,0,1-1.318,1.752" transform="translate(-115.977 -317.793)" fill="#a66353"/>
        <path id="Trazado_163417" data-name="Trazado 163417" d="M144.986,259.536l3.994,75.41H132.148s-6.086-41.271-6.561-45.931a117.282,117.282,0,0,0-4.945-20.636,34.831,34.831,0,0,1-2.187-8.844Z" transform="translate(-79.778 -174.796)" fill="#2f3f4f"/>
        <path id="Trazado_163418" data-name="Trazado 163418" d="M85.608,249.921c-.091.382-1.518,15.217-1.518,15.217L73.723,325.333H56.132l4.085-54.638.257-3.395,1.649-22.041s11.314,4.473,12.17,4.662,11.411-.382,11.314,0" transform="translate(-37.805 -165.18)" fill="#2f3f4f"/>
        <path id="Trazado_163419" data-name="Trazado 163419" d="M137.538,280.6h-.011a.286.286,0,0,1-.274-.3l.876-22.463a.3.3,0,0,1,.3-.274.285.285,0,0,1,.274.3l-.876,22.463a.285.285,0,0,1-.285.274" transform="translate(-92.439 -173.473)" fill="#0f0a1c"/>
        <path id="Trazado_163420" data-name="Trazado 163420" d="M138.141,274.514a.285.285,0,0,1-.007-.571c.027,0,2.721-.089,3.421-1.617.624-1.361,1.017-12.016,1.115-16.007a.294.294,0,0,1,.292-.278.286.286,0,0,1,.279.293c-.015.591-.368,14.485-1.167,16.23-.849,1.853-3.8,1.948-3.926,1.951Z" transform="translate(-92.846 -172.442)" fill="#0f0a1c"/>
        <path id="Trazado_163421" data-name="Trazado 163421" d="M81.585,261.988c-2.459,5.911-6.624,13.774-12.94,19.382l.257-3.395c5.021-5.152,8.456-11.765,10.578-16.866Z" transform="translate(-46.232 -175.855)" fill="#f57c64"/>
        <path id="Trazado_163422" data-name="Trazado 163422" d="M213.363,60.336l14.992-1.687s11-.712,17.277-.712.612,12.97.612,12.97l-27.073,4.147s-6.667-9.038-6.722-9.39.913-5.328.913-5.328" transform="translate(-143.082 -39.02)" fill="#a66353"/>
        <path id="Trazado_163423" data-name="Trazado 163423" d="M130.226,9.5a7.082,7.082,0,0,1-7.2,5.564,6.933,6.933,0,0,1-1.219-.156,7.1,7.1,0,0,1-2.523-1.1c-.1-.065-.184-.127-.27-.2a3.146,3.146,0,0,1-.248-.2,7.894,7.894,0,0,1-2.36-6.927,7.076,7.076,0,0,1,13.353-1.426l0,.007a7.037,7.037,0,0,1,.627,2.606.188.188,0,0,1,0,.052,7.192,7.192,0,0,1-.16,1.772" transform="translate(-78.31 -0.619)" fill="#a66353"/>
        <path id="Trazado_163424" data-name="Trazado 163424" d="M122.492,24.235a11.278,11.278,0,0,0,4.673,5.312c3.3,1.763,7.109,1.427,7.646-2.3.028-.223.057-.456.074-.7.011-.086.017-.171.023-.263.011-.183.017-.371.023-.565.006-.148.006-.3.006-.451a45.124,45.124,0,0,0-.479-6.174,52.635,52.635,0,0,1-5.261,1.735c-.787.057-6.7,3.4-6.7,3.4" transform="translate(-82.498 -12.864)" fill="#a66353"/>
        <path id="Trazado_163425" data-name="Trazado 163425" d="M126.949,47.191l-4.563,2.869-5.194-2.88,2.254-9.511.029-.143.063-.24.069-.285,1.158.376,2.556.81,2.779.89.137,1.312.131,1.255.1.93.1.9.08.782Z" transform="translate(-78.928 -24.92)" fill="#a66353"/>
        <path id="Trazado_163426" data-name="Trazado 163426" d="M129.563,4.8c-.086-.16-.166-.308-.251-.451a1.838,1.838,0,0,1-.108-.177c-.017-.029-.04-.057-.057-.086-.029-.046-.057-.091-.091-.137a1.936,1.936,0,0,0-.16-.205,3.769,3.769,0,0,0-.274-.337,6.926,6.926,0,0,0-3.868-2.322,7.076,7.076,0,0,0-8.416,5.409,7.272,7.272,0,0,0-.143,2.008,1.38,1.38,0,0,0,.028.263,1.434,1.434,0,0,0,.029.263c.011.063.023.131.04.2a6.876,6.876,0,0,0,.166.77c.023.091.051.183.086.279.029.08.063.166.1.251a4.973,4.973,0,0,0,.257.531,18.523,18.523,0,0,0,1.78,2.647,11.3,11.3,0,0,0,1.535-.16,5.142,5.142,0,0,0,3.138-1.934,7.208,7.208,0,0,0,1.033-2.048c.069-.194.154-.519.24-.879.051-.228.108-.468.16-.707a2.063,2.063,0,0,1,1.655-1.541h.006a10.333,10.333,0,0,0,2.339-.776,3.957,3.957,0,0,0,.907-.588l.006-.006c-.046-.091-.086-.188-.131-.268" transform="translate(-78.245 -0.62)" fill="#2f3f4f"/>
        <path id="Trazado_163427" data-name="Trazado 163427" d="M158.469,23.508s2.06,2.392,2.1,2.614-1.945,1.124-1.945,1.124Z" transform="translate(-106.728 -15.832)" fill="#a66353"/>
        <path id="Trazado_163428" data-name="Trazado 163428" d="M135.333,25.685a2.312,2.312,0,1,1-1.715-2.946,2.415,2.415,0,0,1,1.715,2.946" transform="translate(-88.072 -15.282)" fill="#a66353"/>
        <path id="Trazado_163429" data-name="Trazado 163429" d="M139.6,53.5a3.311,3.311,0,0,1-.331-.114,6.8,6.8,0,0,1-2.836-2.653l2.99,1.09.1.9Z" transform="translate(-91.885 -34.17)" fill="#2f3f4f"/>
        <path id="Trazado_163430" data-name="Trazado 163430" d="M154.244,38.008a2.862,2.862,0,0,0,2.025,1.278c.011-.086.017-.171.023-.262.012-.183.017-.371.023-.565.006-.149.006-.3.006-.451Z" transform="translate(-103.882 -25.598)" fill="#fff"/>
        <path id="Trazado_163431" data-name="Trazado 163431" d="M109.983,2.353a2.354,2.354,0,1,1,2.353,2.353,2.353,2.353,0,0,1-2.353-2.353" transform="translate(-74.073)" fill="#2f3f4f"/>
        <path id="Trazado_163432" data-name="Trazado 163432" d="M108.3,130H59.33L60.7,115.721l.519-5.4,1.312-13.682,2.933-30.543s.239-.028.667-.086c.542-.063,1.4-.171,2.465-.3,1.712-.205,3.965-.473,6.356-.742,2.756-.3,5.792-.342,8.291-.559,2.6-.228,6.481-.673,10.464-.816,6.852-.24,13.739-.354,13.739-.354Z" transform="translate(-39.958 -42.592)" fill="#ffe7cf"/>
        <rect id="Rectángulo_42793" data-name="Rectángulo 42793" width="21.674" height="12.938" transform="translate(35.464 34.514)" fill="#fff"/>
        <path id="Trazado_163433" data-name="Trazado 163433" d="M125.932,64.323c-2.037,1.86-6.059,4.918-10.316,4.684a14.3,14.3,0,0,1-8.439-3.309c.6-.068,1.215-.131,1.831-.2,2.191-.234,4.416-.456,6.368-.628,2.088-.183,5.061-.331,8.216-.456.77-.034,1.558-.063,2.339-.091" transform="translate(-72.183 -43.321)" fill="#a66353"/>
        <path id="Trazado_163434" data-name="Trazado 163434" d="M125.932,64.323c-2.037,1.86-6.059,4.918-10.316,4.684a14.3,14.3,0,0,1-8.439-3.309c.6-.068,1.215-.131,1.831-.2,1.489.8,4.445,2.208,6.8,2.208,2.414,0,6.042-2.157,7.788-3.292.77-.034,1.558-.063,2.339-.091" transform="translate(-72.183 -43.321)" fill="#fff"/>
        <path id="Trazado_163435" data-name="Trazado 163435" d="M164.617,61.49l31.524-1.373L193.288,81.77l-22.252,11.7Z" transform="translate(-110.869 -40.489)" fill="#ffe7cf"/>
        <path id="Trazado_163436" data-name="Trazado 163436" d="M306.239,56.152l3.445,7.464-1.726,3.35s-15.54,3.333-19.332,3.426-5.581-5-5.371-6.5,3.87-6.974,5-6.945,17.987-.795,17.987-.795" transform="translate(-190.759 -37.818)" fill="#a66353"/>
        <path id="Trazado_163437" data-name="Trazado 163437" d="M340.241,44.931s1.6-2.9,3.316-3.851,8.1-3.233,9.331-3.186a1.256,1.256,0,0,1,1.165,1.807c-.309.594-3.986,2.37-4.366,3.63s.826,4.643-1.612,5.689-3.1,1.617-3.888,1.212-3.947-5.3-3.947-5.3" transform="translate(-229.15 -25.521)" fill="#a66353"/>
        <path id="Trazado_163438" data-name="Trazado 163438" d="M357.974,52.067s9.878-1.248,11.34-1.248,1.747,1.855,1,2.6-5.135,1.712-5.135,1.712.828,4.315-2.1,6.169-8.35,2.1-8.35,2.1l-1.817-4.338Z" transform="translate(-237.683 -34.226)" fill="#a66353"/>
        <path id="Trazado_163439" data-name="Trazado 163439" d="M368.27,71.105a.285.285,0,0,1-.276-.216c-.05-.2-1.189-4.848.642-6.352,1.394-1.145,5.772-1.158,5.958-1.158a.285.285,0,1,1,0,.571c-1.208,0-4.569.185-5.6,1.028-1.291,1.06-.763,4.526-.451,5.773a.285.285,0,0,1-.207.346.3.3,0,0,1-.07.008" transform="translate(-247.576 -42.685)" fill="#2f3f4f"/>
        <path id="Trazado_163440" data-name="Trazado 163440" d="M368.34,72.258a.285.285,0,0,1-.037-.568l6.062-.808a.285.285,0,0,1,.075.566l-6.062.808a.25.25,0,0,1-.038,0" transform="translate(-247.883 -47.737)" fill="#2f3f4f"/>
        <path id="Trazado_163441" data-name="Trazado 163441" d="M368.85,79.812a.285.285,0,0,1-.029-.569l4.85-.5a.285.285,0,1,1,.058.568l-4.85.5h-.029" transform="translate(-248.226 -53.032)" fill="#2f3f4f"/>
        <path id="Trazado_163442" data-name="Trazado 163442" d="M349.7,60.417a.285.285,0,0,1-.121-.544,21.4,21.4,0,0,0,2.089-1.468,26.322,26.322,0,0,0,3.744-3.8.285.285,0,0,1,.446.356,26.352,26.352,0,0,1-3.849,3.9,19.328,19.328,0,0,1-2.19,1.528.281.281,0,0,1-.12.027" transform="translate(-235.329 -36.704)" fill="#2f3f4f"/>
        <path id="Trazado_163443" data-name="Trazado 163443" d="M7.865,129.639q-2.009,2.67-3.879,5.444c-1.923,2.844-4.416,6.006-3.924,9.646.813,6.009,7.168,7.4,11.436,5.148,4.394-2.32,12.152-14.342,12.152-14.342Z" transform="translate(0 -87.311)" fill="#a66353"/>
        <path id="Trazado_163444" data-name="Trazado 163444" d="M32.51,71.977a15.9,15.9,0,0,0-8.986,4.087C19.1,79.963,10.4,90.376,10.4,90.376L31.131,103.5s7.56-17.612,7.7-18.72-6.324-12.8-6.324-12.8" transform="translate(-7.004 -48.476)" fill="#ffe7cf"/>
        <path id="Trazado_163445" data-name="Trazado 163445" d="M68.428,86.947c.011,12.946-8.679,28.175-12.233,33.869-.822,1.312-1.37,2.117-1.472,2.271a1.141,1.141,0,0,1-1.883-1.29c.046-.068,1.723-2.545,3.874-6.385,3.914-7,9.4-18.532,9.431-28.346v-.114a29.544,29.544,0,0,0-1.289-8.45V78.5A34.079,34.079,0,0,0,61.627,71.1c.542-.063,1.4-.171,2.465-.3a33.853,33.853,0,0,1,4.336,16.141" transform="translate(-35.454 -47.687)" fill="#2f3f4f"/>
        <path id="Trazado_163446" data-name="Trazado 163446" d="M33.533,117.7l6.774,5.235,4.815.786s-18.344,16.175-21.7,17.933c-4.291,2.245-5.409-4.035-5.967-5.445s-.072-7.975.923-8.507,15.16-10,15.16-10" transform="translate(-11.594 -79.269)" fill="#a66353"/>
        <path id="Trazado_163447" data-name="Trazado 163447" d="M77.971,105.382a6.3,6.3,0,0,1-1.569,3.994c-1.854,2.043-7.811,5.6-7.811,5.6s-4.65-1.94-4.793-2.082-4.468-5.415-4.468-5.415a62.831,62.831,0,0,1,9.574-6.567,7.367,7.367,0,0,1,5.814-.571,5.653,5.653,0,0,1,.679.314,4.907,4.907,0,0,1,1.381,1.113,2.934,2.934,0,0,1,.205.263,4.292,4.292,0,0,1,.314.473,5.391,5.391,0,0,1,.662,2.225,5,5,0,0,1,.011.656" transform="translate(-39.958 -67.332)" fill="#a66353"/>
        <path id="Trazado_163448" data-name="Trazado 163448" d="M199.873,522.287H180.354a2.736,2.736,0,0,1-2.545-1.74,2.648,2.648,0,0,1-.131-.428l-.793-6.322h14.224c1.238.759,2.767,1.706,4.268,2.653a.005.005,0,0,1,.006.006c.194.12.376.245.571.365.165.1.325.205.485.308,2.488,1.586,4.627,3.035,4.742,3.372.006.011.006.023.011.034s0,.006.006.011a1.367,1.367,0,0,1-1.324,1.74" transform="translate(-119.131 -346.039)" fill="#2f3f4f"/>
        <path id="Trazado_163449" data-name="Trazado 163449" d="M212.572,513.355c.017.057-.011.085-.069.091-.251.04-10.087-2.282-10.087-2.282.217-.16.434-.314.656-.462.274-.194.548-.376.827-.559a5.784,5.784,0,0,1,1.969-.942h.006c.3.188,1.221.753,2.431,1.5,1.238.759,2.767,1.706,4.268,2.653" transform="translate(-136.326 -342.944)" fill="#2f3f4f"/>
        <path id="Trazado_163450" data-name="Trazado 163450" d="M201.78,536.21H182.261a2.736,2.736,0,0,1-2.545-1.74H203.1a1.367,1.367,0,0,1-1.324,1.74" transform="translate(-121.038 -359.962)" fill="#ffe7cf"/>
        <path id="Trazado_163451" data-name="Trazado 163451" d="M215.446,521.315a.28.28,0,0,1-.127-.03l-4.089-2.033a.285.285,0,1,1,.254-.511l4.089,2.033a.285.285,0,0,1-.127.54" transform="translate(-142.155 -349.349)" fill="#ffe7cf"/>
        <path id="Trazado_163452" data-name="Trazado 163452" d="M82.035,517.8a1.334,1.334,0,0,1-1.335,1.341H63.2a2.027,2.027,0,0,1-2.008-1.74,1.958,1.958,0,0,1,.034-.747l.525-5h5.763a5.969,5.969,0,0,1,3.658-2.5,3.716,3.716,0,0,1,3.378,1.5l7.064,6.168a1.27,1.27,0,0,1,.359.582,1.332,1.332,0,0,1,.063.4" transform="translate(-41.198 -342.889)" fill="#2f3f4f"/>
        <path id="Trazado_163453" data-name="Trazado 163453" d="M82.078,534.87a1.334,1.334,0,0,1-1.335,1.341h-17.5a2.027,2.027,0,0,1-2.008-1.74h20.78a1.331,1.331,0,0,1,.063.4" transform="translate(-41.241 -359.963)" fill="#ffe7cf"/>
        <path id="Trazado_163454" data-name="Trazado 163454" d="M84.7,522a.286.286,0,0,1-.174-.059l-3.245-2.5a.285.285,0,0,1,.347-.452l3.245,2.5A.285.285,0,0,1,84.7,522" transform="translate(-54.67 -349.497)" fill="#ffe7cf"/>
        <path id="Trazado_163455" data-name="Trazado 163455" d="M13.526,145.914a.285.285,0,0,1-.161-.521l4.962-3.365a.285.285,0,0,1,.32.472l-4.962,3.365a.286.286,0,0,1-.16.049" transform="translate(-8.917 -95.622)" fill="#2f3f4f"/>
        <path id="Trazado_163456" data-name="Trazado 163456" d="M96.558,101.4a45.293,45.293,0,0,0-5.363,3.218.267.267,0,0,1-.16.051.279.279,0,0,1-.234-.125.284.284,0,0,1,.068-.394,49.6,49.6,0,0,1,5.01-3.064,5.652,5.652,0,0,1,.679.314" transform="translate(-61.119 -68.084)" fill="#2f3f4f"/>
        <path id="Trazado_163457" data-name="Trazado 163457" d="M101.72,106.737c-2.425,1.381-5.643,3.469-5.688,3.5a.256.256,0,0,1-.154.046.3.3,0,0,1-.24-.126.291.291,0,0,1,.086-.4c.177-.108,3.275-2.128,5.683-3.492a4.171,4.171,0,0,1,.314.473" transform="translate(-64.381 -71.568)" fill="#2f3f4f"/>
        <path id="Trazado_163458" data-name="Trazado 163458" d="M105.924,115.185c-2.271,1.352-4.61,2.864-4.65,2.887a.256.256,0,0,1-.154.046.289.289,0,0,1-.24-.131.286.286,0,0,1,.086-.394c.16-.1,2.63-1.695,4.947-3.064a5,5,0,0,1,.011.656" transform="translate(-67.911 -77.135)" fill="#2f3f4f"/>
        <path id="Trazado_163459" data-name="Trazado 163459" d="M207.2,118.806h-.011a.285.285,0,0,1-.275-.3l.5-14.008a.279.279,0,0,1,.3-.275.285.285,0,0,1,.275.3l-.5,14.008a.285.285,0,0,1-.285.275" transform="translate(-139.353 -70.196)" fill="#0f0a1c"/>
        <path id="Trazado_163460" data-name="Trazado 163460" d="M473,414.963a15.438,15.438,0,0,1-2.107-.98,16.97,16.97,0,0,1-8.22-9.331c-1.439-4.523-.373-9.392.567-13.688l.2-.926c1.557-7.207,3.637-14.135,5.465-19.962,1.22-3.889,2.282-7.11,3.341-10.139l1.616.565c-1.053,3.011-2.109,6.216-3.324,10.086-1.817,5.79-3.882,12.671-5.425,19.811l-.2.931c-.938,4.285-1.908,8.716-.608,12.8a15.257,15.257,0,0,0,7.411,8.348,13.893,13.893,0,0,0,1.876.876Z" transform="translate(-311.133 -242.416)" fill="#2f3f4f"/>
        <path id="Trazado_163461" data-name="Trazado 163461" d="M522.432,335.671h-1.141v-3.8a1.267,1.267,0,0,0-1.266-1.266h-2.96a1.267,1.267,0,0,0-1.266,1.266v2.907h-1.141v-2.907a2.41,2.41,0,0,1,2.407-2.407h2.96a2.41,2.41,0,0,1,2.407,2.407Z" transform="translate(-346.619 -221.893)" fill="#2f3f4f"/>
        <path id="Trazado_163462" data-name="Trazado 163462" d="M522.056,377.279v22.743a5.848,5.848,0,0,1-5.848,5.848H487.6a1.771,1.771,0,0,1-1.771-1.771V352.173a9.3,9.3,0,0,1,4.3-7.851c.182-.12.376-.234.57-.337a9.246,9.246,0,0,1,4.439-1.13H503.7a9.318,9.318,0,0,1,9.2,7.846l3.309,20.729a5.844,5.844,0,0,1,5.848,5.848" transform="translate(-327.2 -230.911)" fill="#2f3f4f"/>
        <path id="Trazado_163463" data-name="Trazado 163463" d="M499.571,346.317V408.2H499V346.654c.183-.12.376-.234.57-.337" transform="translate(-336.074 -233.242)" fill="#2f3f4f"/>
        <path id="Trazado_163464" data-name="Trazado 163464" d="M542.358,436.219v22.743a5.848,5.848,0,0,1-5.848,5.848h-20.54V436.168a5.8,5.8,0,0,1,5.8-5.8h14.743a5.844,5.844,0,0,1,5.848,5.848" transform="translate(-347.502 -289.852)" fill="#ffcfa6"/>
        <path id="Trazado_163465" data-name="Trazado 163465" d="M527.808,370.969h-9.842a2,2,0,0,1-2-2v-3.614a2,2,0,0,1,2-2h9.842a2,2,0,0,1,2,2v3.614a2,2,0,0,1-2,2" transform="translate(-347.502 -244.721)" fill="#fff"/>
        <rect id="Rectángulo_42794" data-name="Rectángulo 42794" width="13.836" height="0.57" transform="translate(168.467 120.97)" fill="#2f3f4f"/>
        <rect id="Rectángulo_42795" data-name="Rectángulo 42795" width="26.389" height="0.57" transform="translate(168.467 149.403)" fill="#2f3f4f"/>
        <path id="Trazado_163466" data-name="Trazado 163466" d="M485.37,399.014h-20.66a2.745,2.745,0,0,1-2.647-2.065.786.786,0,0,1-.029-.108l-.862-4.137-.348-1.672-12.353-59.414,18.184-1.483s5.363,50.4,6.174,57.89c.063.605.1.93.1.93s.377.222,1,.565c1.118.633,3.035,1.706,5.049,2.859.57.325,1.141.656,1.712.987.633.371,1.261.742,1.855,1.09.616.371,1.192.719,1.712,1.038a23.32,23.32,0,0,1,2.162,1.455.838.838,0,0,1,.257.28c.006.006.006.017.011.034a1.365,1.365,0,0,1-1.318,1.752" transform="translate(-302.042 -222.344)" fill="#f9b3a2"/>
        <path id="Trazado_163467" data-name="Trazado 163467" d="M513.4,536.832h-20.66a2.745,2.745,0,0,1-2.647-2.065h24.357a.837.837,0,0,1,.257.279c.006.006.006.017.011.034a1.365,1.365,0,0,1-1.318,1.752" transform="translate(-330.077 -360.162)" fill="#a66353"/>
        <path id="Trazado_163468" data-name="Trazado 163468" d="M547.474,525.264c-.91-.542-2.071-1.23-2.471-1.471l-1.042,4.616h3.513Z" transform="translate(-366.354 -352.771)" fill="#a66353"/>
        <path id="Trazado_163469" data-name="Trazado 163469" d="M543.622,521.757V526H541.91V520.77c.57.325,1.141.656,1.712.987" transform="translate(-364.973 -350.735)" fill="#a66353"/>
        <path id="Trazado_163470" data-name="Trazado 163470" d="M499.41,508.932s-3.452.85-5.7,1.415c-.559.137-1.136.285-1.712.428-1.809.451-3.669.919-5.346,1.341l-.348-1.672c6.288-1.592,12-3.007,12-3.007Z" transform="translate(-327.523 -341.756)" fill="#a66353"/>
        <rect id="Rectángulo_42796" data-name="Rectángulo 42796" width="1.712" height="7.787" transform="translate(164.477 167.851)" fill="#a66353"/>
        <path id="Trazado_163471" data-name="Trazado 163471" d="M286.891,399.014h20.66a2.746,2.746,0,0,0,2.647-2.065.786.786,0,0,0,.029-.108l.862-4.137.348-1.672,16.347-59.414L309.6,330.135s-9.357,50.4-10.168,57.89c-.063.605-.1.93-.1.93s-.377.222-1,.565c-1.118.633-3.035,1.706-5.049,2.859-.57.325-1.141.656-1.712.987-.633.371-1.261.742-1.854,1.09-.616.371-1.192.719-1.712,1.038a23.37,23.37,0,0,0-2.162,1.455.838.838,0,0,0-.257.28c-.006.006-.006.017-.011.034a1.365,1.365,0,0,0,1.318,1.752" transform="translate(-192.289 -222.344)" fill="#f9b3a2"/>
        <path id="Trazado_163472" data-name="Trazado 163472" d="M286.891,536.832h20.66a2.745,2.745,0,0,0,2.647-2.065H285.841a.838.838,0,0,0-.257.279c-.006.006-.006.017-.011.034a1.365,1.365,0,0,0,1.318,1.752" transform="translate(-192.289 -360.162)" fill="#a66353"/>
        <path id="Trazado_163473" data-name="Trazado 163473" d="M295.871,528.409h3.138l-.461-4.616c-.431.259-1.746,1.039-2.677,1.594Z" transform="translate(-199.267 -352.771)" fill="#a66353"/>
        <path id="Trazado_163474" data-name="Trazado 163474" d="M304.069,521.757V526h1.712V520.77c-.571.325-1.141.656-1.712.987" transform="translate(-204.789 -350.735)" fill="#a66353"/>
        <path id="Trazado_163475" data-name="Trazado 163475" d="M324.777,508.932s3.452.85,5.7,1.415c.559.137,1.136.285,1.712.428,1.809.451,3.669.919,5.346,1.341l.348-1.672c-6.288-1.592-12-3.007-12-3.007Z" transform="translate(-218.735 -341.756)" fill="#a66353"/>
        <rect id="Rectángulo_42797" data-name="Rectángulo 42797" width="1.712" height="7.787" transform="translate(111.74 167.851)" fill="#a66353"/>
        <path id="Trazado_163476" data-name="Trazado 163476" d="M491.068,87.158a47.582,47.582,0,0,1,5.42,5.547,109.654,109.654,0,0,1,8.166,10.99l7.076,10.891c.387.6-1.512,6.362-4.531,9.328-2.274,2.235-5.149,2.6-8.286,1.885-4.177-.956-13.076-7.227-13.076-7.227Z" transform="translate(-327.209 -58.7)" fill="#3a5394"/>
        <path id="Trazado_163477" data-name="Trazado 163477" d="M413.7,76.469s7.9,2.048,8.474,6.827c2.2,18.429,7.168,84.175,7.168,84.175h-48.5l11.269-38.6Z" transform="translate(-256.495 -51.501)" fill="#3a5394"/>
        <path id="Trazado_163478" data-name="Trazado 163478" d="M510.751,137.538a.285.285,0,0,1-.284-.259l-2.751-30.107a.285.285,0,0,1,.568-.052l2.751,30.107a.286.286,0,0,1-.258.31h-.026" transform="translate(-341.943 -71.969)" fill="#2f3f4f"/>
        <path id="Trazado_163479" data-name="Trazado 163479" d="M372.612,262.555l-.907,11.508L361.617,319.11H339.462L342.2,300l.08-.571,2.043-14.236.08-.57.456-3.167.08-.57,2.853-19.9Z" transform="translate(-228.625 -175.772)" fill="#ffcfa6"/>
        <path id="Trazado_163480" data-name="Trazado 163480" d="M357.938,323.354l-1.866,13.859a4.421,4.421,0,0,1-4.371,3.823H347.85l.08-.57H351.7a3.844,3.844,0,0,0,3.806-3.326l1.466-10.91.08-.57.32-2.379a.7.7,0,0,0-.16-.548.71.71,0,0,0-.525-.24h-6.179l.08-.57h6.1a1.269,1.269,0,0,1,.953.434,1.249,1.249,0,0,1,.3,1" transform="translate(-234.275 -216.812)" fill="#2f3f4f"/>
        <path id="Trazado_163481" data-name="Trazado 163481" d="M361.683,333.368v.57h-7.332l.08-.57Z" transform="translate(-238.653 -224.521)" fill="#2f3f4f"/>
        <path id="Trazado_163482" data-name="Trazado 163482" d="M448.232,318.854H426.984l-11.628-57.867,28.243,9.8.976,10.093.052.57.308,3.167.052.571,1.375,14.236.051.57Z" transform="translate(-279.74 -175.773)" fill="#ffcfa6"/>
        <path id="Trazado_163483" data-name="Trazado 163483" d="M426.988,22.8a2.406,2.406,0,0,1-.217.2.932.932,0,0,1-.108.1,1.171,1.171,0,0,1-.125.108,6.609,6.609,0,0,1-2.231,1.192,6.34,6.34,0,0,1-1.107.234,6.524,6.524,0,0,1-7.029-4.57,6.762,6.762,0,0,1-.28-1.615V18.4a6.51,6.51,0,0,1,.382-2.442l-.006-.006a6.9,6.9,0,0,1,.348-.788s.017-.034.051-.091a6.512,6.512,0,0,1,11.971,1.192,7.269,7.269,0,0,1-1.649,6.533" transform="translate(-280.097 -7.841)" fill="#f9b3a2"/>
        <path id="Trazado_163484" data-name="Trazado 163484" d="M415.84,29.994a33.616,33.616,0,0,0,.284,7.509c.771,3.376,4.293,3.405,7.194,1.536a10.364,10.364,0,0,0,3.89-5.221s-5.682-2.631-6.408-2.623a48.434,48.434,0,0,1-4.961-1.2" transform="translate(-280.004 -20.201)" fill="#f9b3a2"/>
        <path id="Trazado_163485" data-name="Trazado 163485" d="M437.108,53.421l-4.827.976-4.159-1.118.217-3.526.125-1.986v-.006l.131-2.168,2.573-.776,3.96-3.686Z" transform="translate(-288.337 -27.702)" fill="#f9b3a2"/>
        <path id="Trazado_163486" data-name="Trazado 163486" d="M432.346,57.75a9.4,9.4,0,0,1-2.585,2.824,5.808,5.808,0,0,1-.976.371l.125-1.985v-.006s1.438-.393,2.151-.645a10.867,10.867,0,0,0,1.284-.559" transform="translate(-288.785 -38.894)" fill="#2f3f4f"/>
        <path id="Trazado_163487" data-name="Trazado 163487" d="M421.608,47.923l3.621-.076s-.128.941-1.633,1.168a1.792,1.792,0,0,1-1.988-1.092" transform="translate(-283.95 -32.225)" fill="#fff"/>
        <path id="Trazado_163488" data-name="Trazado 163488" d="M429.073,22.63a2.458,2.458,0,0,1-.217.2.93.93,0,0,1-.108.1c-.094-.31-.288-2.018-1.013-2.62-.676-.56-2.269-.272-2.33-.591-.274-1.512.191-3.594-.665-4.425s-4.125-1.067-5.2-.878a1.861,1.861,0,0,0-1.261.662,6.512,6.512,0,0,1,11.97,1.192,6.835,6.835,0,0,1-1.172,6.363" transform="translate(-281.706 -7.841)" fill="#a66353"/>
        <path id="Trazado_163489" data-name="Trazado 163489" d="M446.169,31.611a1.848,1.848,0,1,1-3.581,0,1.848,1.848,0,1,1,3.581,0" transform="translate(-298.08 -19.737)" fill="#f9b3a2"/>
        <path id="Trazado_163490" data-name="Trazado 163490" d="M411.434,140.5s-14.738-1-26.246-3-17.59-3.52-17.59-3.52,6.681-62.124,7.463-63.116c.32-.411,2.448-.913,4.855-1.369.182-.029.371-.069.559-.1,3.366-.6,7.052-1.1,7.052-1.1a7.417,7.417,0,0,0,3.982,1.432c2.282.068,4.245-2.185,4.245-2.185s3.908,1.073,7.195,2.179l.548.188c.827.285,1.6.57,2.225.839,3.207,1.352,5.711,69.758,5.711,69.758" transform="translate(-247.574 -45.486)" fill="#ffeae6"/>
        <path id="Trazado_163491" data-name="Trazado 163491" d="M404.018,78.95l-2.495,4.32h4.989Z" transform="translate(-270.424 -53.173)" fill="#fff"/>
        <path id="Trazado_163492" data-name="Trazado 163492" d="M437.815,158.025l-2.494,4.32h4.988Z" transform="translate(-293.186 -106.429)" fill="#fff"/>
        <path id="Trazado_163493" data-name="Trazado 163493" d="M433.028,176.519H420.076a1.526,1.526,0,0,1-1.525-1.525v-6.776a1.525,1.525,0,0,1,1.525-1.525h12.951a1.525,1.525,0,0,1,1.525,1.525v6.776a1.526,1.526,0,0,1-1.525,1.525" transform="translate(-281.891 -112.266)" fill="#2f3f4f"/>
        <path id="Trazado_163494" data-name="Trazado 163494" d="M411.733,105.9l-.559.1L405.326,73.32c.183-.029.371-.069.559-.1Z" transform="translate(-272.985 -49.311)" fill="#2f3f4f"/>
        <path id="Trazado_163495" data-name="Trazado 163495" d="M466.274,74.4l-4.907,31.541-.559-.086,4.918-31.644Z" transform="translate(-310.352 -49.982)" fill="#2f3f4f"/>
        <path id="Trazado_163496" data-name="Trazado 163496" d="M358.338,75.237s-.489,10.846-1.8,25.7c-2.473,28.01-8.464,65.7-8.464,65.7H339.46S349.881,80.112,350.547,78.5s7.791-3.259,7.791-3.259" transform="translate(-228.624 -50.672)" fill="#3a5394"/>
        <path id="Trazado_163497" data-name="Trazado 163497" d="M345.156,81.761s-6.275,2.127-10.269,12.587-6.05,17-5.337,21.468,4.992,8.13,11.518,6.026c4.665-1.5,4.327-17.894,4.327-17.894Z" transform="translate(-221.856 -55.066)" fill="#3a5394"/>
        <path id="Trazado_163498" data-name="Trazado 163498" d="M371.426,108.688l-.031,0a.285.285,0,0,1-.252-.314,42.617,42.617,0,0,0-.373-10.193,23.046,23.046,0,0,0-3.222-8.726.285.285,0,0,1,.467-.328,23.223,23.223,0,0,1,3.318,8.962,43.226,43.226,0,0,1,.377,10.347.286.286,0,0,1-.283.254" transform="translate(-247.506 -59.943)" fill="#2f3f4f"/>
        <path id="Trazado_163499" data-name="Trazado 163499" d="M349.106,128.793c.9-.731,1.886-1.379,2.781-2.077l13.841-10.785,1.768-1.378,7.471,8.731q-4.766,4.423-9.631,8.738c-2.194,1.945-4.4,3.886-6.681,5.725-2.308,1.857-4.6,3.253-7.762,2.683-4.1-.739-5.694-4.966-4.2-8.64a7.676,7.676,0,0,1,2.412-3" transform="translate(-233.124 -77.151)" fill="#f9b3a2"/>
        <path id="Trazado_163500" data-name="Trazado 163500" d="M427.927,99.524c-.405.742-5.386,1.449-5.666,1.489.2,0,.765.9.856,1.021a8.41,8.41,0,0,1,.485.776c.091.171.182.342.257.519a9.106,9.106,0,0,1,.628,1.746c.051.211.1.422.137.639.034.188.069.382.091.576a5.246,5.246,0,0,1-.44,3.224,10.6,10.6,0,0,1-2.921,3.207,7.659,7.659,0,0,1-4.182,1.8c-3.2.1-5.592-3.178-5.786-3.92s0-7.446,0-7.446,5.335-4.319,7.395-4.89a30.049,30.049,0,0,1,8.541-.5c.953.3,1.027.993.6,1.752" transform="translate(-277.008 -65.759)" fill="#f9b3a2"/>
        <path id="Trazado_163501" data-name="Trazado 163501" d="M442.906,114l-2.95,1.01a.238.238,0,0,1-.091.017.28.28,0,0,1-.268-.194.289.289,0,0,1,.177-.365l2.876-.987c.091.171.183.342.257.519" transform="translate(-296.055 -76.428)" fill="#2f3f4f"/>
        <path id="Trazado_163502" data-name="Trazado 163502" d="M446.037,122.951l-2.693,1.021a.323.323,0,0,1-.1.017.276.276,0,0,1-.263-.183.287.287,0,0,1,.166-.371l2.8-1.061c.034.188.069.382.091.576" transform="translate(-298.33 -82.419)" fill="#2f3f4f"/>
        <path id="Trazado_163503" data-name="Trazado 163503" d="M523.2,109.878c.548-1.115,1.224-2.191,1.786-3.273l8.69-16.726,1.11-2.136,11.2,5.183q-2.675,6.453-5.5,12.844c-1.272,2.881-2.555,5.763-3.963,8.581-1.423,2.847-3.035,5.235-6.38,6.094-4.336,1.114-7.784-2.3-7.965-6.559a8.248,8.248,0,0,1,1.014-4.007" transform="translate(-351.685 -59.094)" fill="#f9b3a2"/>
        <path id="Trazado_163504" data-name="Trazado 163504" d="M560.787,70.621s.491-4.3,1.918-6.245c.685-.937,4.422-2.472,7.322-1.95a8.983,8.983,0,0,1,5.658,4.044c.285.853-.1,1.281-1.379,1.281s-2.758-1.422-3.994-1.281-.238,1.709-1.141,5.608-1.664,5.753-3.566,5.373-4.818-6.83-4.818-6.83" transform="translate(-377.687 -41.973)" fill="#f9b3a2"/>
        <path id="Trazado_163505" data-name="Trazado 163505" d="M607.48,61.414a42.189,42.189,0,0,0-11.292,7.229c-4.582,4.12-10.841,14.686-10.841,14.686a61.129,61.129,0,0,0-10.076-7.32c-4.947-2.665-13.266-6.185-13.266-6.185.816-2.288,1.672-4.644,2.67-6.915a43.284,43.284,0,0,1,2.02-4.1,24.215,24.215,0,0,1,3.652-4.872c.188-.205.382-.4.582-.6a32.19,32.19,0,0,1,3.024-2.613c.006,0,.011-.006.017-.011a54.234,54.234,0,0,1,10.8-6.122c.417-.188,4.006-1.678,4.006-1.678a64.356,64.356,0,0,1,9.129,7.822c5.421,5.889,9.58,10.675,9.58,10.675" transform="translate(-378.508 -28.904)" fill="#f57c64"/>
        <path id="Trazado_163506" data-name="Trazado 163506" d="M610.55,90.082a10.133,10.133,0,0,0-6.78-.092,10.781,10.781,0,0,1-3.64.843,9.6,9.6,0,0,1-3.8-1,5.1,5.1,0,0,0-4.636.083,5.415,5.415,0,0,0-2.875,3.231c-.563,1.673-.464,3.451-.76,5.171-.228,1.325-.8,2.339-2.326,2.336a8.9,8.9,0,0,1-2.8-.629c-3.07-1.06-6.878-2.448-9.645.017-.275.245.13.647.4.4,3.325-2.961,7.6.142,11.193.693a3.127,3.127,0,0,0,2.957-.673c.885-1.023.865-2.672.982-3.943.173-1.874.369-3.947,1.865-5.283A5.7,5.7,0,0,1,594,89.813c1.2-.048,2.218.652,3.3,1.06a8.174,8.174,0,0,0,5.187.189,18.05,18.05,0,0,1,3.881-1.051,10.048,10.048,0,0,1,4.028.622c.348.12.5-.43.152-.55" transform="translate(-386.039 -60.156)" fill="#fff"/>
        <path id="Trazado_163507" data-name="Trazado 163507" d="M648.709,58.418a.285.285,0,0,1-.211-.093c-.02-.023-2.063-2.268-3.3-3.483-1.936-1.9-3.281-3.041-3.294-3.052a.285.285,0,1,1,.368-.436c.013.011,1.374,1.161,3.326,3.082,1.248,1.227,3.3,3.483,3.322,3.506a.285.285,0,0,1-.211.477" transform="translate(-432.251 -34.541)" fill="#fff"/>
        <path id="Trazado_163508" data-name="Trazado 163508" d="M643.135,61.474a.285.285,0,0,1-.211-.093c-.02-.023-2.063-2.268-3.3-3.483-1.936-1.9-3.281-3.041-3.294-3.052a.285.285,0,1,1,.368-.436c.013.011,1.374,1.161,3.327,3.082,1.247,1.227,3.3,3.483,3.322,3.506a.285.285,0,0,1-.211.477" transform="translate(-428.496 -36.599)" fill="#fff"/>
        <path id="Trazado_163509" data-name="Trazado 163509" d="M637.561,64.532a.285.285,0,0,1-.211-.093c-.02-.023-2.063-2.268-3.3-3.483-1.936-1.9-3.281-3.041-3.294-3.052a.285.285,0,1,1,.368-.436c.014.011,1.374,1.161,3.327,3.082,1.247,1.226,3.3,3.484,3.322,3.506a.285.285,0,0,1-.211.477" transform="translate(-424.742 -38.658)" fill="#fff"/>
        <path id="Trazado_163510" data-name="Trazado 163510" d="M631.986,67.586a.284.284,0,0,1-.211-.093c-.02-.023-2.063-2.268-3.3-3.483-1.936-1.9-3.281-3.041-3.294-3.052a.285.285,0,1,1,.368-.436c.013.011,1.374,1.161,3.326,3.082,1.248,1.227,3.3,3.484,3.322,3.506a.285.285,0,0,1-.211.477" transform="translate(-420.988 -40.715)" fill="#fff"/>
        <path id="Trazado_163511" data-name="Trazado 163511" d="M593.536,70.793c-1.284,0-2.961-1.483-4.2-1.341.953-.936,1.012-2.176,3.024-2.613a7.565,7.565,0,0,1,2.55,2.676c.285.85-.091,1.278-1.375,1.278" transform="translate(-396.914 -45.016)" fill="#f9b3a2"/>
        <path id="Trazado_163512" data-name="Trazado 163512" d="M446.945,7.6a1.961,1.961,0,1,0-1.961,1.961A1.961,1.961,0,0,0,446.945,7.6" transform="translate(-298.373 -3.795)" fill="#a66353"/>
        <path id="Trazado_163513" data-name="Trazado 163513" d="M488.485,341.036h-4.41a4.42,4.42,0,0,1-4.371-3.823l-1.866-13.859a1.248,1.248,0,0,1,.3-1,1.269,1.269,0,0,1,.953-.434h7.56l.051.57h-7.611a.71.71,0,0,0-.525.24.7.7,0,0,0-.16.548l.319,2.379.08.57,1.466,10.91a3.844,3.844,0,0,0,3.806,3.326h4.359Z" transform="translate(-321.813 -216.812)" fill="#2f3f4f"/>
        <path id="Trazado_163514" data-name="Trazado 163514" d="M488.391,333.939H479.8v-.57h8.536Z" transform="translate(-323.145 -224.521)" fill="#2f3f4f"/>
        <path id="Trazado_163515" data-name="Trazado 163515" d="M479.755,223.682,477.261,228h4.988Z" transform="translate(-321.432 -150.648)" fill="#fff"/>
        <path id="Trazado_163516" data-name="Trazado 163516" d="M430.176,260.986l-2.494,4.32h4.988Z" transform="translate(-288.041 -175.773)" fill="#fff"/>
        <path id="Trazado_163517" data-name="Trazado 163517" d="M395.438,210.45l-2.494,4.32h4.988Z" transform="translate(-264.645 -141.737)" fill="#fff"/>
        <path id="Trazado_163518" data-name="Trazado 163518" d="M475.168,118.5l-2.494,4.32h4.988Z" transform="translate(-318.343 -79.808)" fill="#fff"/>
        <path id="Trazado_163519" data-name="Trazado 163519" d="M440.269,177.127a2.532,2.532,0,1,0-2.532,2.532,2.532,2.532,0,0,0,2.532-2.532" transform="translate(-293.108 -117.589)" fill="#fff"/>
        <path id="Trazado_163520" data-name="Trazado 163520" d="M428.223,162.034H426.3a.785.785,0,0,0-.785.785v1.212h3.495v-1.212a.785.785,0,0,0-.785-.785" transform="translate(-286.58 -109.129)" fill="#2f3f4f"/>
        <path id="Trazado_163521" data-name="Trazado 163521" d="M458.648,171.571h-.88a.618.618,0,0,1,0-1.236h.88a.618.618,0,0,1,0,1.236" transform="translate(-307.888 -114.72)" fill="#f57c64"/>
        <path id="Trazado_163522" data-name="Trazado 163522" d="M246.383,246.415H235.769v-21.62h10.614a1.288,1.288,0,0,1,1.288,1.288v19.044a1.288,1.288,0,0,1-1.288,1.288" transform="translate(-158.789 -151.398)" fill="#ffcfa6"/>
        <path id="Trazado_163523" data-name="Trazado 163523" d="M248.372,492.02a1.377,1.377,0,0,1-.108.251,1.6,1.6,0,0,1-.154.228c-.034.034-.063.069-.1.1a1.445,1.445,0,0,1-1.027.428h-20.5c-.086,0-.171-.006-.251-.011a1.649,1.649,0,0,1-.245-.034,1.473,1.473,0,0,1-.24-.051c-.08-.023-.154-.046-.228-.074a1.578,1.578,0,0,1-.228-.091,1.971,1.971,0,0,1-.194-.1,2.76,2.76,0,0,1-.719-.565,1.46,1.46,0,0,1-.12-.137,2.821,2.821,0,0,1-.331-.514,1.264,1.264,0,0,1-.091-.2.212.212,0,0,1-.023-.052,2.412,2.412,0,0,1-.137-.451l-.833-6.636-1.609-12.826,13.106-1.557s.742,12.644.776,12.735c0,.006.04.023.1.069h.006c.291.183,1.107.685,2.208,1.369.114.063.228.137.348.211.046.029.1.057.143.086l1.529.942c.16.1.32.2.485.3.753.468,1.541.959,2.322,1.455a.005.005,0,0,1,.006.006c.205.126.394.257.6.382.177.109.342.217.508.326,2.613,1.666,4.861,3.183,4.981,3.537.006.011.006.028.011.04s0,.006.006.011a1.367,1.367,0,0,1-.006.816" transform="translate(-149.004 -316.363)" fill="#f9b3a2"/>
        <path id="Trazado_163524" data-name="Trazado 163524" d="M251.691,518.431a1.381,1.381,0,0,1-.108.251,1.441,1.441,0,0,1-.154.228c-.034.034-.063.069-.1.1a1.444,1.444,0,0,1-1.027.428h-20.5c-.086,0-.171-.005-.251-.011a1.646,1.646,0,0,1-.245-.034,1.486,1.486,0,0,1-.24-.051c-.08-.023-.154-.046-.228-.074a1.585,1.585,0,0,1-.228-.091,2,2,0,0,1-.194-.1,2.76,2.76,0,0,1-.719-.565,1.474,1.474,0,0,1-.12-.137,2.823,2.823,0,0,1-.331-.514,1.272,1.272,0,0,1-.091-.2.208.208,0,0,1-.023-.052,2.41,2.41,0,0,1-.137-.451l-.833-6.636h9.443c.285-.205.571-.4.868-.588a6.157,6.157,0,0,1,2.065-.993h.006c.291.182,1.107.685,2.208,1.369.114.063.228.137.348.211.046.029.1.057.143.086l1.529.942c.16.1.32.2.485.3.753.468,1.541.959,2.322,1.455a.005.005,0,0,1,.006.006c.205.126.394.257.6.382.177.109.343.217.508.326,2.613,1.666,4.861,3.183,4.981,3.537.006.011.006.028.011.04s0,.006.006.011a1.325,1.325,0,0,1-.006.816" transform="translate(-152.323 -342.773)" fill="#2f3f4f"/>
        <path id="Trazado_163525" data-name="Trazado 163525" d="M124.248,471.292l-1.6,12.826-.833,6.636c-.023.086-.046.166-.069.246s-.045.137-.074.205-.057.137-.086.2-.057.108-.086.16a2.81,2.81,0,0,1-.274.405,1.457,1.457,0,0,1-.12.137,2.761,2.761,0,0,1-.719.565,2,2,0,0,1-.194.1,1.579,1.579,0,0,1-.228.091c-.074.028-.148.051-.228.074a1.478,1.478,0,0,1-.24.051,1.693,1.693,0,0,1-.245.034c-.08.006-.166.011-.251.011H103.3a1.444,1.444,0,0,1-1.027-.428c-.034-.034-.063-.068-.1-.1a1.641,1.641,0,0,1-.154-.228,1.429,1.429,0,0,1-.108-.251,1.373,1.373,0,0,1-.006-.816c.006-.006.006-.006.006-.011s.006-.029.017-.04c.057-.177,2.082-2.3,4.125-4.4.137-.143.274-.285.417-.422.388-.405.776-.8,1.141-1.175.143-.148.285-.285.417-.422,1.2-1.215,2.128-2.134,2.231-2.2h.006a.851.851,0,0,0,.1-.068c.034-.091.782-12.735.782-12.735Z" transform="translate(-68.592 -316.363)" fill="#f9b3a2"/>
        <path id="Trazado_163526" data-name="Trazado 163526" d="M122.64,510.529l-.833,6.636c-.023.085-.046.165-.069.245s-.046.137-.074.205-.057.137-.086.2-.057.109-.086.16a2.838,2.838,0,0,1-.274.405,1.572,1.572,0,0,1-.12.137,2.761,2.761,0,0,1-.719.565,2.017,2.017,0,0,1-.194.1,1.6,1.6,0,0,1-.228.091c-.074.029-.149.051-.228.074a1.472,1.472,0,0,1-.24.051,1.7,1.7,0,0,1-.246.034c-.08.006-.165.011-.251.011h-15.7a1.443,1.443,0,0,1-1.027-.428c-.034-.034-.063-.068-.1-.1a1.61,1.61,0,0,1-.154-.228,1.379,1.379,0,0,1-.108-.251,1.328,1.328,0,0,1-.006-.816c.006-.006.006-.006.006-.012s.006-.029.017-.04c.057-.177,2.083-2.305,4.125-4.4.137-.143.274-.285.416-.422.388-.405.776-.8,1.141-1.175.143-.148.285-.285.417-.422,1.2-1.215,2.128-2.134,2.231-2.2h.006a6.155,6.155,0,0,1,2.065.993c.3.188.582.382.873.588Z" transform="translate(-68.587 -342.773)" fill="#2f3f4f"/>
        <path id="Trazado_163527" data-name="Trazado 163527" d="M91.325,110.568l4.119-2.521,4.968,1.261,4.943,9.349-7.14,3.495Z" transform="translate(-61.507 -72.769)" fill="#f9b3a2"/>
        <path id="Trazado_163528" data-name="Trazado 163528" d="M226.656,38.811a30.721,30.721,0,0,1-2.941-3.437c-1.379-1.9-1.95-5.42-1.331-5.658s4.85-1.427,6.276.38a22.9,22.9,0,0,1,3.328,5.9c.19.951-5.332,2.819-5.332,2.819" transform="translate(-149.607 -19.607)" fill="#2f3f4f"/>
        <path id="Trazado_163529" data-name="Trazado 163529" d="M185.456,20.089a5.226,5.226,0,0,0-4.63,2.35c-1.489,2.02-1.082,4.327-1.509,5.183s-1.771,1.457-2.591,3.375a5.045,5.045,0,0,0-.285,1.726c-.025.507.1,1.338-.182,1.777a2.788,2.788,0,0,1-.369.414,3.638,3.638,0,0,0-1.138,2.836h19.162a5.765,5.765,0,0,0-.357-2.511,5.6,5.6,0,0,1-.464-3.315,11.263,11.263,0,0,0-1.22-4.777Z" transform="translate(-117.666 -13.519)" fill="#a66353"/>
        <path id="Trazado_163530" data-name="Trazado 163530" d="M276.738,88.245l6.28,1.126a5.117,5.117,0,0,1,4.135,5.864c-.472,2.953-1.777,6.27-5.169,7.21a25.281,25.281,0,0,1-11.139.778Z" transform="translate(-182.413 -59.432)" fill="#f9b3a2"/>
        <path id="Trazado_163531" data-name="Trazado 163531" d="M204.266,29.181a5.72,5.72,0,0,1-6.162,4.008,5.625,5.625,0,0,1-.971-.205,5.736,5.736,0,0,1-1.959-1.048c-.072-.058-.139-.115-.2-.176a2.534,2.534,0,0,1-.186-.177,6.375,6.375,0,0,1-1.446-5.73,5.715,5.715,0,0,1,10.843-.274l0,.006a5.69,5.69,0,0,1,.334,2.14.154.154,0,0,1,0,.042,5.8,5.8,0,0,1-.245,1.416" transform="translate(-130.074 -14.681)" fill="#f9b3a2"/>
        <path id="Trazado_163532" data-name="Trazado 163532" d="M207.3,37.89a29.472,29.472,0,0,1-.249,6.585c-.676,2.96-3.765,2.986-6.308,1.347a9.089,9.089,0,0,1-3.412-4.578,49.548,49.548,0,0,1,5.62-2.3,42.412,42.412,0,0,0,4.35-1.053" transform="translate(-132.903 -25.519)" fill="#f9b3a2"/>
        <path id="Trazado_163533" data-name="Trazado 163533" d="M193.128,58.434l4.233.855,3.648-.981-.19-3.092-.11-1.741V53.47l-.115-1.9-2.257-.68-3.472-3.232Z" transform="translate(-130.071 -32.096)" fill="#f9b3a2"/>
        <path id="Trazado_163534" data-name="Trazado 163534" d="M207.119,62.229a8.241,8.241,0,0,0,2.267,2.477,5.138,5.138,0,0,0,.855.325l-.11-1.741v-.005s-1.261-.345-1.886-.565a9.559,9.559,0,0,1-1.126-.49" transform="translate(-139.493 -41.911)" fill="#2f3f4f"/>
        <path id="Trazado_163535" data-name="Trazado 163535" d="M218.376,53.6l-3.628-.076s.313.7,1.633.9a2.075,2.075,0,0,0,1.995-.825" transform="translate(-144.631 -36.051)" fill="#fff"/>
        <path id="Trazado_163536" data-name="Trazado 163536" d="M202.016,23.683a4.891,4.891,0,0,1-2.129,2.041c-.769.326-2.772.528-3.492.957a3.414,3.414,0,0,0-1.28,1.943,4.8,4.8,0,0,0-.23,1.273c-.008.453-.708.907-.708.907l-.841,1.841a11.636,11.636,0,0,1-1.874-5.708,5.3,5.3,0,0,1,4.774-5.254,7.219,7.219,0,0,1,3.94.562,6.954,6.954,0,0,1,1.839,1.44" transform="translate(-128.949 -14.564)" fill="#a66353"/>
        <path id="Trazado_163537" data-name="Trazado 163537" d="M196.26,40.369a1.944,1.944,0,1,0,1.943-2.022,1.984,1.984,0,0,0-1.943,2.022" transform="translate(-132.18 -25.826)" fill="#f9b3a2"/>
        <path id="Trazado_163538" data-name="Trazado 163538" d="M186.255,80.469l-3.3,25.313-28.98,14.151s-3.319-38.71-1.12-39.465a26.884,26.884,0,0,1,6.015-1.18c.767-.078,1.57-.132,2.391-.174,2.684-.15,5.632-.138,8.723-.066,3.373.072,7.375.413,10.562.755.869.084,1.678.174,2.391.264,2,.228,3.313.4,3.313.4" transform="translate(-102.443 -53.204)" fill="#2f3f4f"/>
        <path id="Trazado_163539" data-name="Trazado 163539" d="M120.416,83.5a93.264,93.264,0,0,0-9.212,4.269c-5.617,2.921-7.264,3.745-7.264,3.745l9.307,15.863,13.311-3.73s-1.573-11.758-1.8-12.881-4.344-7.264-4.344-7.264" transform="translate(-70.003 -56.239)" fill="#2f3f4f"/>
        <path id="Trazado_163540" data-name="Trazado 163540" d="M144.5,110.026a.286.286,0,0,1-.28-.23L140.61,91.471a.285.285,0,1,1,.56-.11l3.613,18.325a.286.286,0,0,1-.225.335.293.293,0,0,1-.056.005" transform="translate(-94.696 -61.376)" fill="#0f0a1c"/>
        <path id="Trazado_163541" data-name="Trazado 163541" d="M245.013,83.5l10.51,1.548-3.1,20.071H239.346Z" transform="translate(-161.198 -56.24)" fill="#2f3f4f"/>
        <path id="Trazado_163542" data-name="Trazado 163542" d="M245.958,114.358a.292.292,0,0,1-.066-.008.285.285,0,0,1-.212-.343l4.042-17.023a.285.285,0,1,1,.555.132l-4.042,17.023a.285.285,0,0,1-.277.219" transform="translate(-165.459 -65.17)" fill="#0f0a1c"/>
        <path id="Trazado_163543" data-name="Trazado 163543" d="M252.907,56.789,235.982,40.84l7.489-8.715S260.58,45.667,262.593,48.4a11.2,11.2,0,0,1,1.373,11.309,8.673,8.673,0,0,1-5.106,4.827Z" transform="translate(-158.932 -21.636)" fill="#f9b3a2"/>
        <path id="Trazado_163544" data-name="Trazado 163544" d="M216.12,29.165c-.2,0-.5-1.082-.541-1.2a6.192,6.192,0,0,1-.3-1.663,6.039,6.039,0,0,0-.423-2.342,6.389,6.389,0,0,0-1.077-1.653,10.167,10.167,0,0,0-2.692-2.065c-.39-.217-.8-.405-1.183-.633-.9-.537-2.935-1.761-3.275-2.48s-.15-2.288,2.037-2.336S219.527,16.7,224.21,20.45s9.178,7.915,9.178,7.915l-17.267.8" transform="translate(-139.071 -9.961)" fill="#f9b3a2"/>
        <path id="Trazado_163545" data-name="Trazado 163545" d="M222.576,32.973a.285.285,0,0,1-.167-.054l-1.993-1.442a.285.285,0,1,1,.334-.463l1.993,1.442a.285.285,0,0,1-.167.517" transform="translate(-148.369 -20.851)" fill="#2f3f4f"/>
        <path id="Trazado_163546" data-name="Trazado 163546" d="M209.974,21.387a.284.284,0,0,1-.286-.279,1.9,1.9,0,0,1,1.571-1.741c1.883-.556,6.438,1.111,6.632,1.183a.285.285,0,0,1-.2.535c-.046-.017-4.571-1.674-6.272-1.171-1.145.338-1.162,1.152-1.162,1.187a.287.287,0,0,1-.283.286Z" transform="translate(-141.224 -12.968)" fill="#2f3f4f"/>
        <path id="Trazado_163547" data-name="Trazado 163547" d="M156.008,143.908l4.705-19.31h25.775l.674,23.2-31.155-.674Z" transform="translate(-105.07 -83.916)" fill="#44a38c"/>
        <path id="Trazado_163548" data-name="Trazado 163548" d="M214.49,262.321H196.367l-7.789-56.169,2.229-38.686.036-.6.126-2.145.036-.6.468-8.148,17.177-7.789s.461,6.806,1.061,15.775c.012.2.03.4.042.6.048.707.1,1.42.144,2.145.012.2.024.4.042.6.581,8.705,1.8,18.789,2.278,26.566,1.049,17.225,2.275,68.45,2.275,68.45" transform="translate(-127.006 -99.803)" fill="#44a38c"/>
        <path id="Trazado_163549" data-name="Trazado 163549" d="M133.145,181.194s-4.344,17.749-5.692,31.08-5.392,70.7-5.392,70.7h17.3s8.313-46.133,10.859-60.063a235.573,235.573,0,0,0,3.445-32.8,84.666,84.666,0,0,0-1.084-10.146Z" transform="translate(-82.207 -121.202)" fill="#44a38c"/>
        <path id="Trazado_163550" data-name="Trazado 163550" d="M209.234,205.505l-19.13.162-2.564.024-.006-.6,2.606-.024,19.053-.162c.012.2.024.4.042.6" transform="translate(-126.302 -138.003)" fill="#2f3f4f"/>
        <path id="Trazado_163551" data-name="Trazado 163551" d="M205.884,197.1l-18.783.162-4.26.036-.006-.6,4.3-.036,18.7-.162c.012.2.03.4.042.6" transform="translate(-123.138 -132.343)" fill="#2f3f4f"/>
        <path id="Trazado_163552" data-name="Trazado 163552" d="M102.375,139.59l-7.3,8.878s-1.438-1.09-3.538-2.7c-.816-.628-1.74-1.341-2.716-2.1-5.209-4.051-11.976-9.437-13.22-11.052a11.208,11.208,0,0,1-1.62-11.274,11.494,11.494,0,0,1,5.084-5.569l6.036,8.25,11.834,10.67,2.545,2.294Z" transform="translate(-49.248 -77.97)" fill="#f9b3a2"/>
        <path id="Trazado_163553" data-name="Trazado 163553" d="M150.6,189.455a4.769,4.769,0,0,1-.372,2.019,3.82,3.82,0,0,1-.258.551,4.285,4.285,0,0,1-.365.617,4.232,4.232,0,0,1-1.2,1.15,3.845,3.845,0,0,1-.575.324,7.479,7.479,0,0,1-1.654.6c-2.618.635-5.278-1.426-7.076-.941s-2.959.569-4.02-.24-2.57-5.865-2.57-5.865l7.675-4.985s4.871,1.054,6.626,2.217a10.586,10.586,0,0,1,3.26,2.732,3.45,3.45,0,0,1,.419,1.025,3.235,3.235,0,0,1,.114.8" transform="translate(-89.239 -123.037)" fill="#f9b3a2"/>
        <path id="Trazado_163554" data-name="Trazado 163554" d="M173.035,196.787c-.294-.2-.635-.431-1.013-.683a17.658,17.658,0,0,0-5.943-1.935.306.306,0,0,1-.258-.335.3.3,0,0,1,.342-.258,17.932,17.932,0,0,1,6.189,2.031c.2.132.389.258.569.384a3.236,3.236,0,0,1,.114.8" transform="translate(-111.678 -130.369)" fill="#2f3f4f"/>
        <path id="Trazado_163555" data-name="Trazado 163555" d="M170.457,203.867a3.824,3.824,0,0,1-.258.551,11.151,11.151,0,0,0-2.606-1.4,23.659,23.659,0,0,0-4.805-1.336.3.3,0,0,1-.24-.347.29.29,0,0,1,.348-.24,24.243,24.243,0,0,1,4.925,1.366,11.767,11.767,0,0,1,2.636,1.408" transform="translate(-109.472 -135.43)" fill="#2f3f4f"/>
        <path id="Trazado_163556" data-name="Trazado 163556" d="M167.7,212.032a3.824,3.824,0,0,1-.575.324,10.938,10.938,0,0,0-5.68-1.989.3.3,0,1,1,.036-.6,11.478,11.478,0,0,1,6.219,2.265" transform="translate(-108.543 -141.277)" fill="#2f3f4f"/>
        <path id="Trazado_163557" data-name="Trazado 163557" d="M196.455,259.8l-.035,0a.285.285,0,0,1-.248-.318q.982-7.917,1.927-15.841l.294-2.447c.85-7.047,1.728-14.334,1.991-21.518q.06-1.656.113-3.314c.043-1.323.087-2.647.138-3.969l.26-6.8a.292.292,0,0,1,.3-.274.285.285,0,0,1,.274.3l-.26,6.8q-.075,1.983-.137,3.966-.055,1.658-.113,3.316c-.264,7.207-1.144,14.506-1.995,21.565l-.294,2.447q-.946,7.923-1.928,15.843a.285.285,0,0,1-.283.25" transform="translate(-132.119 -138.278)" fill="#2f3f4f"/>
        <path id="Trazado_163558" data-name="Trazado 163558" d="M208.368,228.347l-.2-.534a5.378,5.378,0,0,0,3.207-4.016c.441-3.089.4-17.257.4-17.4l.571,0c0,.584.045,14.352-.4,17.481a5.858,5.858,0,0,1-3.572,4.47" transform="translate(-140.2 -139.006)" fill="#2f3f4f"/>
        <path id="Trazado_163559" data-name="Trazado 163559" d="M175.674,96.318l-2.391.06-.449-16.847c.767-.078,1.57-.132,2.391-.174Z" transform="translate(-116.403 -53.446)" fill="#44a38c"/>
        <path id="Trazado_163560" data-name="Trazado 163560" d="M240.873,81.731l-.354,19-2.4-.048.359-19.214c.869.084,1.678.174,2.391.263" transform="translate(-160.374 -54.868)" fill="#44a38c"/>
        <path id="Trazado_163561" data-name="Trazado 163561" d="M176.532,127.522a1.048,1.048,0,1,0-1.048,1.048,1.048,1.048,0,0,0,1.048-1.048" transform="translate(-117.481 -85.179)" fill="#fff"/>
        <path id="Trazado_163562" data-name="Trazado 163562" d="M241.22,127.522a1.049,1.049,0,1,0-1.048,1.048,1.048,1.048,0,0,0,1.048-1.048" transform="translate(-161.048 -85.179)" fill="#fff"/>
        <path id="Trazado_163563" data-name="Trazado 163563" d="M267.05,513.439l-2.065,2.511a.283.283,0,0,1-.222.1.259.259,0,0,1-.177-.063.277.277,0,0,1-.04-.4l2.014-2.448c.114.063.228.137.348.211.046.028.1.057.143.086" transform="translate(-178.125 -345.598)" fill="#fff"/>
        <path id="Trazado_163564" data-name="Trazado 163564" d="M273.206,517.236l-2.071,2.516a.281.281,0,0,1-.405.04.281.281,0,0,1-.034-.4l2.026-2.459c.16.1.319.2.485.3" transform="translate(-182.266 -348.152)" fill="#fff"/>
        <path id="Trazado_163565" data-name="Trazado 163565" d="M124.111,518.358a.279.279,0,0,1-.251.148.252.252,0,0,1-.137-.04L119.5,516.1c.143-.148.285-.285.417-.422L124,517.97a.288.288,0,0,1,.108.388" transform="translate(-80.483 -347.305)" fill="#fff"/>
        <path id="Trazado_163566" data-name="Trazado 163566" d="M119.2,523.176a.282.282,0,0,1-.245.143.327.327,0,0,1-.143-.034l-4.085-2.294c.137-.143.274-.285.416-.422l3.948,2.22a.282.282,0,0,1,.108.388" transform="translate(-77.271 -350.6)" fill="#fff"/>
        <path id="Trazado_163567" data-name="Trazado 163567" d="M203.556,128.131a.569.569,0,0,1-.368-.134c-.132-.112-13.277-11.261-19.595-22.735-8.3-15.074-10.3-27.231-10.318-27.352a.571.571,0,0,1,1.127-.179c.019.12,1.994,12.094,10.19,26.981,6.215,11.287,19.2,22.3,19.331,22.413a.571.571,0,0,1-.368,1.007" transform="translate(-116.696 -52.027)" fill="#ffcfa6"/>
        <path id="Trazado_163568" data-name="Trazado 163568" d="M131.869,176.01l-7.942,8.781c-.816-.628-1.74-1.341-2.716-2.1l8.113-8.975Z" transform="translate(-81.635 -116.997)" fill="#a66353"/>
        <path id="Trazado_163569" data-name="Trazado 163569" d="M136.862,183.39a2.461,2.461,0,1,0-2.461,2.461,2.461,2.461,0,0,0,2.461-2.461" transform="translate(-88.861 -121.855)" fill="#fff"/>
        <path id="Trazado_163570" data-name="Trazado 163570" d="M135.248,325.153h-9.842l0-30.823a1.321,1.321,0,0,1,1.319-1.319h7.2a1.321,1.321,0,0,1,1.32,1.319Zm-8.986-.857h8.131l0-29.968a.464.464,0,0,0-.464-.464h-7.2a.464.464,0,0,0-.464.464Z" transform="translate(-84.46 -197.34)" fill="#2f3f4f"/>
        <path id="Trazado_163571" data-name="Trazado 163571" d="M86.952,394.6l0,37.966,23.964,0a2,2,0,0,0,2-2l0-43.672a2,2,0,0,0-2-2H96.652a9.7,9.7,0,0,0-9.7,9.7" transform="translate(-58.559 -259.228)" fill="#a66353"/>
        <path id="Trazado_163572" data-name="Trazado 163572" d="M129.252,394.7a2,2,0,1,0-2,2,2,2,0,0,0,2-2" transform="translate(-84.36 -264.484)" fill="#fff"/>
        <path id="Trazado_163573" data-name="Trazado 163573" d="M72.532,475.275v9.666a2,2,0,0,0,2,2l22.252,0,0-21.3-14.607,0a9.575,9.575,0,0,0-4.519,1.124c-.137.074-.279.149-.411.234a.006.006,0,0,0-.006.006,9.623,9.623,0,0,0-4.708,8.279" transform="translate(-48.849 -313.601)" fill="#a66353"/>
        <path id="Trazado_163574" data-name="Trazado 163574" d="M154.663,532.555a1.664,1.664,0,1,0,1.664-1.664,1.664,1.664,0,0,0-1.664,1.664" transform="translate(-104.165 -357.552)" fill="#2f3f4f"/>
        <path id="Trazado_163575" data-name="Trazado 163575" d="M73.986,532.547a1.664,1.664,0,1,0,1.664-1.664,1.664,1.664,0,0,0-1.664,1.664" transform="translate(-49.829 -357.546)" fill="#2f3f4f"/>
        <rect id="Rectángulo_42798" data-name="Rectángulo 42798" width="0.571" height="47.665" transform="translate(47.648 125.673)" fill="#2f3f4f"/>
        <path id="Trazado_163576" data-name="Trazado 163576" d="M87.238,469.645l19.257,0a.285.285,0,0,0,0-.571l-19.257,0a.285.285,0,1,0,0,.57" transform="translate(-58.562 -315.919)" fill="#2f3f4f"/>
        <path id="Trazado_163577" data-name="Trazado 163577" d="M128.522,292.942H134.8a1.141,1.141,0,0,0,1.141-1.141v-.311a1.141,1.141,0,0,0-1.141-1.141h-6.276a1.141,1.141,0,0,0-1.141,1.141v.311a1.141,1.141,0,0,0,1.141,1.141" transform="translate(-85.79 -195.548)" fill="#2f3f4f"/>
        <path id="Trazado_163578" data-name="Trazado 163578" d="M429.892,171.354l-6.019.725a1.355,1.355,0,0,1-1.508-1.184l-1.694-14.067a1.355,1.355,0,0,1,1.184-1.507l6.019-.725a1.355,1.355,0,0,1,1.507,1.183l1.694,14.067a1.355,1.355,0,0,1-1.183,1.507" transform="translate(-283.313 -104.113)" fill="#2f3f4f"/>
        <path id="Trazado_163579" data-name="Trazado 163579" d="M451.684,245.351s-1.632.833-3.914,1.974c-1.021.5-2.168,1.073-3.361,1.655-.388.188-.776.377-1.164.571-2.59,1.255-5.255,2.51-7.155,3.315a21.647,21.647,0,0,1-10.841,1.808l2-18.641,10.493-6.276.953-.571,10.076-6.025.411-.246.086-.051.451-.274h.006c.074-.046.148-.091.228-.137l.011.137.04.571.456,6.025.046.571.456,6.025.046.571.456,6.025.04.57Z" transform="translate(-286.403 -149.821)" fill="#2f3f4f"/>
        <path id="Trazado_163580" data-name="Trazado 163580" d="M601.843,233.734a4.8,4.8,0,0,1-.068.57c-.034.3-.086.6-.148.9a10.412,10.412,0,0,1-2.585,5.135,6.666,6.666,0,0,1-.633.57,5.779,5.779,0,0,1-2.579,1.175c-.005,0-.981-.553-2.1-1.175-.331-.188-.679-.382-1.016-.57-1.158-.651-2.2-1.238-2.2-1.238l-3.754-3.047-2.151-1.746-.708-.57-7.423-6.025-.7-.57-3.355-2.722-2.448-1.985s.051-.508.177-1.318c.023-.177.057-.365.091-.57a28.542,28.542,0,0,1,1.672-6.025c.08-.194.165-.382.251-.57.017-.023.028-.052.045-.08a.008.008,0,0,0,0-.011c1.227-2.585,3.081-4.633,5.837-4.171.023.006.04.006.057.011.206.04.405.091.6.143a20,20,0,0,1,7.537,4.108c.24.188.474.376.7.57.793.65,1.557,1.312,2.282,1.94,1.523,1.318,3,2.687,4.456,4.085.2.188.394.376.593.57,1.124,1.084,2.237,2.174,3.361,3.258a21.616,21.616,0,0,1,2.625,2.767,5.5,5.5,0,0,1,.382.57,7.171,7.171,0,0,1,.6,1.221,10.906,10.906,0,0,1,.6,4.8" transform="translate(-383.876 -141.177)" fill="#2f3f4f"/>
        <path id="Trazado_163581" data-name="Trazado 163581" d="M508.2,262.9c0,.074-13.694,0-13.694,0s-.011-.354-.023-1c-.006-.171-.011-.359-.017-.571-.029-1.329-.08-3.435-.137-6.025,0-.188-.006-.376-.011-.571-.04-1.82-.08-3.863-.12-6.025,0-.188-.006-.382-.011-.571-.028-1.94-.063-3.971-.091-6.025-.006-.188-.006-.382-.006-.571-.011-.553-.017-1.1-.028-1.655-.017-1.466-.034-2.933-.046-4.376,0-.188-.006-.382-.006-.57-.017-2.083-.029-4.114-.029-6.025v-.571c0-2.225.017-4.273.052-6.025.006-.194.006-.382.011-.571.074-3.235.217-5.358.462-5.563.183-.154.388-.308.6-.462.114-.08.234-.16.359-.246l.086-.051.451-.274h.006c.074-.045.149-.091.228-.137a50.959,50.959,0,0,1,9.152-3.606s.074,1.4.205,3.743c.011.183.017.377.029.571.091,1.655.205,3.709.331,6.025.011.188.023.377.029.571.1,1.872.217,3.9.331,6.025.011.188.023.377.034.571.1,1.957.217,3.983.325,6.025.011.188.023.382.034.57.108,2.008.217,4.04.325,6.031.011.188.023.382.034.571.108,2.071.222,4.1.325,6.025.011.194.023.382.034.571.114,2.174.228,4.211.325,6.025.011.194.023.382.028.571.149,2.6.263,4.7.331,6.025.011.211.023.4.034.571.034.639.051.993.051,1" transform="translate(-332.691 -142.383)" fill="#2f3f4f"/>
        <path id="Trazado_163582" data-name="Trazado 163582" d="M537.986,223.444h-40.7l.411-.245.086-.052.451-.274h39.056c.239.188.473.376.7.57" transform="translate(-334.916 -150.104)" fill="#fff"/>
        <path id="Trazado_163583" data-name="Trazado 163583" d="M522.567,243.645H463.5l.953-.57h57.519c.2.188.393.376.593.57" transform="translate(-312.166 -163.709)" fill="#fff"/>
        <path id="Trazado_163584" data-name="Trazado 163584" d="M512.387,263.846H438.932v-.571H512a5.519,5.519,0,0,1,.382.571" transform="translate(-295.618 -177.314)" fill="#fff"/>
        <path id="Trazado_163585" data-name="Trazado 163585" d="M513.585,283.477a4.838,4.838,0,0,1-.069.57H438.932v-.57Z" transform="translate(-295.618 -190.92)" fill="#fff"/>
        <path id="Trazado_163586" data-name="Trazado 163586" d="M438.932,303.7h14.692c-.388.188-.776.376-1.164.57H438.932Z" transform="translate(-295.618 -204.537)" fill="#fff"/>
        <path id="Trazado_163587" data-name="Trazado 163587" d="M548.081,303.7a6.61,6.61,0,0,1-.633.57H494.316c-.006-.188-.006-.382-.006-.57Z" transform="translate(-332.915 -204.537)" fill="#fff"/>
        <path id="Trazado_163588" data-name="Trazado 163588" d="M537.645,324.467H494.618c0-.188-.006-.382-.011-.57H537.56c.028.188.057.382.086.57" transform="translate(-333.115 -218.143)" fill="#fff"/>
        <path id="Trazado_163589" data-name="Trazado 163589" d="M538.858,344.668H495.021c0-.188-.006-.376-.011-.571h43.768c.023.188.052.382.08.571" transform="translate(-333.386 -231.747)" fill="#fff"/>
        <path id="Trazado_163590" data-name="Trazado 163590" d="M540.105,364.869H495.481c-.006-.171-.011-.359-.017-.57h44.561c.023.188.052.382.08.57" transform="translate(-333.692 -245.353)" fill="#fff"/>
        <path id="Trazado_163591" data-name="Trazado 163591" d="M603.741,385.088H588.6c-.017-.183-.034-.376-.045-.57h15.108c.023.194.052.388.08.57" transform="translate(-396.387 -258.971)" fill="#fff"/>
        <path id="Trazado_163592" data-name="Trazado 163592" d="M395.716,472.093s.417,12.381.382,12.467a.018.018,0,0,0-.011.006c-.3.212-7.612,4.858-10.952,7.094a.786.786,0,0,1-.121.206c-.471.571-1.2,1.847-.841,2.6a1.375,1.375,0,0,0,.628.151H404.32A2.762,2.762,0,0,0,407,492.451l.291-4.627.907-14.247Z" transform="translate(-258.672 -317.952)" fill="#f9b3a2"/>
        <path id="Trazado_163593" data-name="Trazado 163593" d="M405.9,513.54l-.291,4.627a2.514,2.514,0,0,1-.166.508,2.952,2.952,0,0,1-.24.439,2.726,2.726,0,0,1-2.271,1.221H383.41a1.4,1.4,0,0,1-1.124-.576,1.228,1.228,0,0,1-.223-1.084.633.633,0,0,1,.205-.274c.16-.126.325-.24.491-.354.576-.405,1.158-.793,1.746-1.175.8-.531,1.609-1.055,2.414-1.58.12-.08.245-.16.365-.234.764-.5,1.523-.993,2.288-1.483.822-.525,1.643-1.056,2.465-1.581.616-.4,1.233-.793,1.849-1.187.274-.177.548-.342.822-.531l.08.091a9.1,9.1,0,0,0,6.9,3.172Z" transform="translate(-257.282 -343.668)" fill="#ffcfa6"/>
        <path id="Trazado_163594" data-name="Trazado 163594" d="M405.44,536a2.951,2.951,0,0,1-.24.439,2.726,2.726,0,0,1-2.271,1.221H383.41a1.4,1.4,0,0,1-1.124-.576,1.228,1.228,0,0,1-.223-1.084Z" transform="translate(-257.282 -360.992)" fill="#fff"/>
        <path id="Trazado_163595" data-name="Trazado 163595" d="M387.285,524.92V530.2H383.41a1.4,1.4,0,0,1-1.124-.576,1.227,1.227,0,0,1-.223-1.084.638.638,0,0,1,.205-.274c.16-.125.326-.24.491-.354.576-.405,1.158-.793,1.746-1.175.8-.531,1.609-1.056,2.414-1.58.12-.08.245-.16.365-.234" transform="translate(-257.282 -353.53)" fill="#fff"/>
        <path id="Trazado_163596" data-name="Trazado 163596" d="M450.259,359.283c-7.524,1.015-15.1,1.574-22.621,2.643a50,50,0,0,0-6.569,1.057,9.574,9.574,0,0,0-4.373,2.392c-2.944,3.075-3.208,8.3-3.748,12.288-.021.15-.041.3-.062.449-.666,4.755-1.617,28.909-1.617,28.909h15.024l2.473-27.958,14.93-.951s13.788-16.356,13.788-16.927-7.227-1.9-7.227-1.9" transform="translate(-276.988 -241.975)" fill="#a66353"/>
        <path id="Trazado_163597" data-name="Trazado 163597" d="M538.263,361.708s.852,8.922,0,11.75c-1.4,4.66-6.562,6.7-6.562,6.7l-34.8-3.78L508.4,358.41Z" transform="translate(-334.656 -241.387)" fill="#a66353"/>
        <path id="Trazado_163598" data-name="Trazado 163598" d="M551.206,419.518v31.4a2.568,2.568,0,0,1-2.568,2.568H492.911a2.564,2.564,0,0,1-2.568-2.568v-31.4a2.564,2.564,0,0,1,2.568-2.568h55.727a2.568,2.568,0,0,1,2.568,2.568" transform="translate(-330.243 -280.813)" fill="#3a5394"/>
        <rect id="Rectángulo_42799" data-name="Rectángulo 42799" width="0.57" height="36.539" transform="translate(207.743 136.137)" fill="#0f0a1c"/>
        <rect id="Rectángulo_42800" data-name="Rectángulo 42800" width="10.08" height="4.279" transform="matrix(0.936, -0.352, 0.352, 0.936, 195.472, 142.32)" fill="#fff"/>
        <rect id="Rectángulo_42801" data-name="Rectángulo 42801" width="7.16" height="1.977" transform="matrix(0.936, -0.352, 0.352, 0.936, 197.244, 142.885)" fill="#f57c64"/>
        <path id="Trazado_163599" data-name="Trazado 163599" d="M623.591,448.515a1.712,1.712,0,1,0-1.712,1.712,1.712,1.712,0,0,0,1.712-1.712" transform="translate(-417.679 -300.919)" fill="#ffcfa6"/>
        <path id="Trazado_163600" data-name="Trazado 163600" d="M595.048,470.248a1.712,1.712,0,1,0-1.712,1.712,1.712,1.712,0,0,0,1.712-1.712" transform="translate(-398.456 -315.556)" fill="#8db6e0"/>
        <path id="Trazado_163601" data-name="Trazado 163601" d="M516.4,215.793a6.675,6.675,0,0,1,5.917-7.181c1.938-.217,4.269-.423,6.928-.559a54.694,54.694,0,0,1,13.5.76l8.642,51.569s-19.688,1.476-26.437.125c-1.891-.379-4.2-1.143-5.1-3.027-.257-.538-1.361-16.381-1.962-23.682q-.7-8.541-1.405-17.081-.038-.462-.076-.924" transform="translate(-347.775 -140.061)" fill="#ffe7cf"/>
        <path id="Trazado_163602" data-name="Trazado 163602" d="M558.546,186.037a2.154,2.154,0,1,0-2.148,1.988,2.073,2.073,0,0,0,2.148-1.988" transform="translate(-373.284 -123.956)" fill="#2f3f4f"/>
        <path id="Trazado_163603" data-name="Trazado 163603" d="M560.389,180.42a1.256,1.256,0,1,0-1.256,1.256,1.256,1.256,0,0,0,1.256-1.256" transform="translate(-375.727 -120.666)" fill="#2f3f4f"/>
        <path id="Trazado_163604" data-name="Trazado 163604" d="M558.094,174.952a1.256,1.256,0,1,0-1.256,1.256,1.256,1.256,0,0,0,1.256-1.256" transform="translate(-374.181 -116.983)" fill="#2f3f4f"/>
        <path id="Trazado_163605" data-name="Trazado 163605" d="M532.859,167.19a2.42,2.42,0,0,1-.217.2.94.94,0,0,1-.108.1,1.178,1.178,0,0,1-.125.108,6.613,6.613,0,0,1-2.231,1.192,6.371,6.371,0,0,1-1.107.234,6.525,6.525,0,0,1-7.03-4.57,6.776,6.776,0,0,1-.279-1.615v-.046a6.509,6.509,0,0,1,.382-2.442l-.006-.006a6.9,6.9,0,0,1,.348-.788s.017-.034.051-.091a6.512,6.512,0,0,1,11.97,1.192,7.269,7.269,0,0,1-1.649,6.533" transform="translate(-351.4 -105.087)" fill="#f9b3a2"/>
        <path id="Trazado_163606" data-name="Trazado 163606" d="M521.712,174.385a33.624,33.624,0,0,0,.284,7.509c.771,3.376,4.293,3.4,7.194,1.536a10.361,10.361,0,0,0,3.89-5.221s-5.682-2.631-6.408-2.624a48.364,48.364,0,0,1-4.961-1.2" transform="translate(-351.308 -117.447)" fill="#f9b3a2"/>
        <path id="Trazado_163607" data-name="Trazado 163607" d="M546.35,195.974l-4.3,2.4-4.3.2-.867-3.423-.063-.263h-.005l-.417-1.666v-.006l-.536-2.105,2.214-1.523,4.322-2.246Z" transform="translate(-360.897 -126.175)" fill="#f9b3a2"/>
        <path id="Trazado_163608" data-name="Trazado 163608" d="M538.416,161.573a3.056,3.056,0,0,0-.074-.388c-.017-.08-.034-.16-.057-.24-.023-.1-.051-.194-.08-.291a6.521,6.521,0,0,0-8.13-4.342,6.429,6.429,0,0,0-2.779,1.7c-.017.017-.034.035-.05.053a5.826,5.826,0,0,1,1.107.405.6.6,0,0,1,.269.269,14.093,14.093,0,0,1,2.228.22,7.049,7.049,0,0,1,1.067.285l.034.011a2.184,2.184,0,0,1,.747.422.981.981,0,0,1,.177.228c.046.069-.034-.08,0,0,.439.987.251,2.91.485,4.2.063.32,1.655.028,2.334.588a5.368,5.368,0,0,1,1.175,2.161,6.4,6.4,0,0,0,1.547-5.283" transform="translate(-355.096 -105.085)" fill="#2f3f4f"/>
        <path id="Trazado_163609" data-name="Trazado 163609" d="M538.234,161.185l-5.466-1.278-4.935-1.158-.645-.148s-.04-.188-.1-.479c.034-.034.068-.074.1-.108a6.43,6.43,0,0,1,2.779-1.7,6.521,6.521,0,0,1,8.131,4.342c.028.1.057.194.08.291.023.08.04.16.057.24" transform="translate(-354.989 -105.085)" fill="#f57c64"/>
        <path id="Trazado_163610" data-name="Trazado 163610" d="M552.055,176a2.1,2.1,0,0,1-1.791,2.306,1.891,1.891,0,0,1-1.783-2.1c0-1.274.795-2.512,1.783-2.512A2.1,2.1,0,0,1,552.055,176" transform="translate(-369.399 -116.983)" fill="#f9b3a2"/>
        <path id="Trazado_163611" data-name="Trazado 163611" d="M526.843,191.551a2.24,2.24,0,0,1-1.518-.552.285.285,0,0,1,.4-.406,1.67,1.67,0,0,0,1.117.388,2.146,2.146,0,0,0,1.243-.406.285.285,0,1,1,.359.443,2.725,2.725,0,0,1-1.6.533" transform="translate(-353.747 -128.308)" fill="#2f3f4f"/>
        <path id="Trazado_163612" data-name="Trazado 163612" d="M543.926,167.044a.286.286,0,0,1-.274.211.341.341,0,0,1-.074-.011l-5.917-1.581-5.42-1.449-5.124-1.369-.992-.262a5.429,5.429,0,0,1,.416-.479l3.555.947,1.067.285.034.011,6.333,1.689,6.2,1.655a.289.289,0,0,1,.2.354" transform="translate(-354.341 -109.175)" fill="#f57c64"/>
        <path id="Trazado_163613" data-name="Trazado 163613" d="M530.856,210.506s.356,1.241,3.733,1.115,6.49-2.717,6.49-2.717,3.939,1.276,3.939,1.363-7.784,8.236-8.009,8.321-7.584-.676-8.148-.887-1.7-3.124-.986-4.476a9.906,9.906,0,0,1,2.98-2.719" transform="translate(-355.366 -140.696)" fill="#ffe7cf"/>
        <path id="Trazado_163614" data-name="Trazado 163614" d="M522.2,181.522a2.951,2.951,0,0,0,2.841,2.549c2.591.074,3.518-.746,4.065-2.078s.754-6.562.754-6.562l.978.9s.4,6.383-1.268,8.5-4.722,1.6-5.775.987c-1.507-.885-1.595-4.3-1.595-4.3" transform="translate(-351.698 -118.152)" fill="#2f3f4f"/>
        <path id="Trazado_163615" data-name="Trazado 163615" d="M498.743,472.093s4.41,12.381,4.376,12.467a.018.018,0,0,0-.011.006c-.3.212-7.612,4.858-10.952,7.094a.784.784,0,0,1-.12.206c-.471.571-1.205,1.847-.841,2.6a1.378,1.378,0,0,0,.628.151h20.66a2.726,2.726,0,0,0,2.271-1.221,2.756,2.756,0,0,0,.405-.947l-.85-4.627-3.087-14.247Z" transform="translate(-330.75 -317.952)" fill="#f9b3a2"/>
        <path id="Trazado_163616" data-name="Trazado 163616" d="M513.963,518.684a1.709,1.709,0,0,1-1.706,1.66h-21.83a1.4,1.4,0,0,1-1.124-.576,1.228,1.228,0,0,1-.222-1.084.687.687,0,0,1,.205-.279c.16-.12.325-.234.491-.348.993-.7,2-1.346,3.024-2,.291-.206.788-.531,1.084-.725.137-.091.28-.188.416-.268.765-.5,1.523-.993,2.289-1.484.821-.525,1.643-1.055,2.464-1.58.616-.4,1.233-.793,1.849-1.187.274-.177.548-.342.822-.531l.08.091a9.3,9.3,0,0,0,6.99,3.173h4.12l1.015,4.718a1.718,1.718,0,0,1,.034.417" transform="translate(-329.357 -343.674)" fill="#ffcfa6"/>
        <path id="Trazado_163617" data-name="Trazado 163617" d="M513.963,536.008a1.709,1.709,0,0,1-1.706,1.66h-21.83a1.4,1.4,0,0,1-1.124-.576,1.227,1.227,0,0,1-.222-1.084Z" transform="translate(-329.357 -360.998)" fill="#fff"/>
        <path id="Trazado_163618" data-name="Trazado 163618" d="M494.306,524.92V530.2h-3.874a1.4,1.4,0,0,1-1.124-.576,1.228,1.228,0,0,1-.223-1.084.638.638,0,0,1,.205-.274c.16-.125.326-.24.491-.354.576-.405,1.158-.793,1.746-1.175.8-.531,1.609-1.056,2.414-1.58.12-.08.245-.16.365-.234" transform="translate(-329.36 -353.53)" fill="#fff"/>
        <path id="Trazado_163619" data-name="Trazado 163619" d="M491.654,400.786l8.416,34.188h16.059l-6.5-34.188Z" transform="translate(-331.126 -269.927)" fill="#a66353"/>
        <path id="Trazado_163620" data-name="Trazado 163620" d="M596.025,271.265H580.62s-.154-1.8-.411-4.741c-.017-.183-.034-.376-.046-.57-.148-1.712-.325-3.76-.525-6.031-.017-.188-.029-.377-.046-.571-.166-1.883-.337-3.914-.519-6.025-.017-.188-.034-.382-.052-.571-.165-1.957-.342-3.982-.519-6.025-.011-.188-.028-.382-.045-.57-.171-2.014-.342-4.034-.514-6.025-.017-.188-.034-.382-.046-.57-.183-2.071-.354-4.1-.519-6.031-.017-.188-.029-.382-.046-.571-.188-2.168-.359-4.2-.508-6.025-.017-.194-.034-.382-.052-.571-.08-.976-.16-1.888-.228-2.721-.109-1.318-.2-2.436-.268-3.3-.017-.205-.034-.394-.046-.571q-.017-.231-.034-.428a30.19,30.19,0,0,1,.057-5.6c.023-.194.046-.388.069-.571a.46.46,0,0,0,.011-.08.008.008,0,0,0,0-.011,13.629,13.629,0,0,1,1.312-4.61,28.231,28.231,0,0,1,4.525.439c.023.006.04.006.057.011.206.04.405.091.6.143a6.4,6.4,0,0,1,4.513,4.108c.069.188.131.376.182.571.314,1.073.445,2.2.656,3.269.063.314.211,1.284.434,2.756.028.183.057.371.086.571.24,1.58.542,3.64.89,6.025.029.188.057.377.08.571.274,1.854.565,3.885.879,6.025.023.188.051.377.08.571.086.576.165,1.158.257,1.746.2,1.4.405,2.836.611,4.285.029.188.057.376.086.57.285,1.991.576,4.017.862,6.025.029.188.057.382.086.57.291,2.043.582,4.068.862,6.025.022.188.051.382.08.571.3,2.111.588,4.142.862,6.025.023.188.051.382.08.571.325,2.276.616,4.325.861,6.031.023.194.051.388.08.57.417,2.944.673,4.741.673,4.741" transform="translate(-387.997 -140.406)" fill="#2f3f4f"/>
        <path id="Trazado_163621" data-name="Trazado 163621" d="M587.852,223.444H576.583c.023-.194.046-.388.068-.57h11.018c.069.188.131.376.183.57" transform="translate(-388.325 -150.104)" fill="#fff"/>
        <path id="Trazado_163622" data-name="Trazado 163622" d="M588.98,243.645H576.559c-.017-.205-.034-.394-.046-.57h12.381c.028.183.057.371.085.57" transform="translate(-388.278 -163.709)" fill="#fff"/>
        <path id="Trazado_163623" data-name="Trazado 163623" d="M591.068,263.846H578.224l-.051-.571h12.815c.029.188.057.377.08.571" transform="translate(-389.396 -177.314)" fill="#fff"/>
        <path id="Trazado_163624" data-name="Trazado 163624" d="M593.179,284.047H579.931c-.017-.188-.028-.382-.046-.57H593.1c.023.188.052.376.08.57" transform="translate(-390.549 -190.92)" fill="#fff"/>
        <path id="Trazado_163625" data-name="Trazado 163625" d="M438.932,303.7h14.692c-.388.188-.776.376-1.164.57H438.932Z" transform="translate(-295.618 -204.537)" fill="#fff"/>
        <path id="Trazado_163626" data-name="Trazado 163626" d="M595.3,304.266H581.661c-.017-.188-.034-.382-.046-.57h13.6c.028.188.057.376.086.57" transform="translate(-391.714 -204.537)" fill="#fff"/>
        <path id="Trazado_163627" data-name="Trazado 163627" d="M597.4,324.467H583.374c-.011-.188-.029-.382-.046-.57h13.985c.028.188.057.382.086.57" transform="translate(-392.868 -218.143)" fill="#fff"/>
        <path id="Trazado_163628" data-name="Trazado 163628" d="M599.5,344.668h-14.4c-.017-.188-.034-.382-.052-.571h14.367c.023.188.052.382.08.571" transform="translate(-394.033 -231.747)" fill="#fff"/>
        <path id="Trazado_163629" data-name="Trazado 163629" d="M601.623,364.869H586.851c-.017-.188-.028-.376-.046-.57h14.738c.023.188.052.382.08.57" transform="translate(-395.21 -245.353)" fill="#fff"/>
        <path id="Trazado_163630" data-name="Trazado 163630" d="M603.741,385.088H588.6c-.017-.183-.034-.376-.045-.57h15.108c.023.194.052.388.08.57" transform="translate(-396.387 -258.971)" fill="#fff"/>
        <path id="Trazado_163631" data-name="Trazado 163631" d="M400.068,242.025c-.141-1.3-.122-2.625-.227-3.914l-1.615-19.749q-.1-1.261-.206-2.522l11.73-1.079q1.226,7.24,2.288,14.507c.478,3.276.948,6.559,1.269,9.855.325,3.33.807,6.355-1.69,8.99a5.848,5.848,0,0,1-7.672.648,9.252,9.252,0,0,1-3.357-4.357,10.016,10.016,0,0,1-.521-2.378" transform="translate(-268.063 -144.64)" fill="#f9b3a2"/>
        <path id="Trazado_163632" data-name="Trazado 163632" d="M413.721,176.225a18,18,0,0,1-2.522,4.7s-.713,2.168-1.615,4.976-2.95,4.422-3.618,4.467-7.982-5.027-7.982-5.027-.337-7.326,1.854-9.876,6.368-6.191,8.987-5.98a2.473,2.473,0,0,1,.941.314,5.686,5.686,0,0,1,.508.32,8.861,8.861,0,0,1,1.535,1.455c.12.148.24.3.359.451a10.1,10.1,0,0,1,1.118,1.82,4.474,4.474,0,0,1,.234.548,2.909,2.909,0,0,1,.2,1.832" transform="translate(-268.028 -114.142)" fill="#f9b3a2"/>
        <path id="Trazado_163633" data-name="Trazado 163633" d="M422.844,170.785l-5.74,4.964a.292.292,0,0,1-.405-.028.281.281,0,0,1,.029-.4l5.609-4.856a5.691,5.691,0,0,1,.508.32" transform="translate(-280.597 -114.807)" fill="#2f3f4f"/>
        <path id="Trazado_163634" data-name="Trazado 163634" d="M429.129,176.351l-5.506,4.764a.3.3,0,0,1-.188.068.288.288,0,0,1-.188-.5l5.523-4.781c.12.149.24.3.359.451" transform="translate(-284.987 -118.468)" fill="#2f3f4f"/>
        <path id="Trazado_163635" data-name="Trazado 163635" d="M434.876,183.4l-4.73,4.1a.283.283,0,0,1-.188.069.294.294,0,0,1-.217-.1.289.289,0,0,1,.034-.405l4.867-4.211a4.55,4.55,0,0,1,.234.548" transform="translate(-289.382 -123.152)" fill="#2f3f4f"/>
        <path id="Trazado_163636" data-name="Trazado 163636" d="M602.815,280.674c-.765,1.058-1.668,2.03-2.454,3.058l-12.033,15.742-1.537,2.011-9.431-7.059q3.941-6.2,8.021-12.3c1.84-2.752,3.691-5.5,5.66-8.166,1.99-2.689,3.659-5.258,7.278-5.541a5.848,5.848,0,0,1,6.129,4.659,9.245,9.245,0,0,1-.427,5.483,9.991,9.991,0,0,1-1.207,2.114" transform="translate(-388.848 -180.765)" fill="#f9b3a2"/>
        <path id="Trazado_163637" data-name="Trazado 163637" d="M562.733,355.164s-.9,2.411-4.944,2.126-8.273-1.1-11.079-1.051-4.042.718-4.565.338-.9-1.236.238-2.663S553.3,348.1,553.3,348.1s3.916-.008,4.106,0,5.325,7.059,5.325,7.059" transform="translate(-364.791 -234.444)" fill="#f9b3a2"/>
        <path id="Trazado_163638" data-name="Trazado 163638" d="M544.656,363.611a.285.285,0,0,1-.134-.538,16.979,16.979,0,0,1,3.778-1.357,14.366,14.366,0,0,1,3.11-.384.286.286,0,0,1,.282.289.268.268,0,0,1-.289.282,14.2,14.2,0,0,0-2.976.37,16.734,16.734,0,0,0-3.639,1.305.283.283,0,0,1-.133.033" transform="translate(-366.63 -243.355)" fill="#2f3f4f"/>
        <path id="Trazado_163639" data-name="Trazado 163639" d="M492.505,384.829a.285.285,0,0,1-.276-.215l-.865-3.446a9.646,9.646,0,0,1,8.809-11.979l6.24-.354a.282.282,0,0,1,.3.269.285.285,0,0,1-.269.3l-6.241.354a9.075,9.075,0,0,0-8.288,11.27l.865,3.446a.285.285,0,0,1-.207.346.3.3,0,0,1-.07.008" transform="translate(-330.734 -248.407)" fill="#2f3f4f"/>
        <path id="Trazado_163640" data-name="Trazado 163640" d="M546.9,406.473a.285.285,0,0,1-.278-.221l-.958-4.154a.285.285,0,0,1,.556-.128l.958,4.154a.285.285,0,0,1-.214.342.291.291,0,0,1-.064.007" transform="translate(-367.5 -270.575)" fill="#2f3f4f"/>
        <path id="Trazado_163641" data-name="Trazado 163641" d="M493.595,267.627a.286.286,0,0,1-.285-.281l-.205-12.624a.286.286,0,0,1,.281-.29.273.273,0,0,1,.29.281l.205,12.624a.286.286,0,0,1-.281.29Z" transform="translate(-332.102 -171.359)" fill="#0f0a1c"/>
        <path id="Trazado_163642" data-name="Trazado 163642" d="M603.637,276.2a.285.285,0,0,1-.176-.061l-5.787-4.549a.286.286,0,0,1,.353-.449l5.787,4.549a.286.286,0,0,1-.177.51" transform="translate(-402.456 -182.572)" fill="#0f0a1c"/>
        <path id="Trazado_163643" data-name="Trazado 163643" d="M647.026,530.858a2,2,0,1,1-2-2,2,2,0,0,1,2,2" transform="translate(-433.078 -356.185)" fill="#0f0a1c"/>
      </g>
    </g>
    <rect id="Rectángulo_42860" data-name="Rectángulo 42860" width="261" height="225" transform="translate(775 452)" fill="none"/>
  </g>
</svg>
