<svg xmlns="http://www.w3.org/2000/svg" xmlns:xlink="http://www.w3.org/1999/xlink" width="105" height="105" viewBox="0 0 105 105">
  <defs>
    <clipPath id="clip-path">
      <rect id="Rectángulo_42900" data-name="Rectángulo 42900" width="59" height="58.999" fill="none"/>
    </clipPath>
  </defs>
  <g id="Grupo_170101" data-name="Grupo 170101" transform="translate(-326 -2853)">
    <path id="Trazado_164411" data-name="Trazado 164411" d="M52.5,0A52.5,52.5,0,1,1,0,52.5,52.5,52.5,0,0,1,52.5,0Z" transform="translate(326 2853)" fill="#e1e8ff"/>
    <g id="Grupo_170100" data-name="Grupo 170100" transform="translate(349 2876)">
      <g id="Grupo_170099" data-name="Grupo 170099" transform="translate(0 0)" clip-path="url(#clip-path)">
        <path id="Trazado_164725" data-name="Trazado 164725" d="M47.34,38.573c.237-.931.523-1.163,1.488-1.164,2.9,0,5.8.011,8.7-.01A1.414,1.414,0,0,1,59,38.254v.691c-.759,2.372-1.835,4.62-2.732,6.937-.532,1.373-1.127,2.721-1.708,4.233a5.533,5.533,0,0,0,1.89-.954c.195-.154.37-.333.58-.469a1.2,1.2,0,0,1,1.97.625v.692c-.153.671-.738.975-1.186,1.4a7.836,7.836,0,0,1-8.887.292.917.917,0,0,0-1.063,0,7.83,7.83,0,0,1-7.65.435,4.771,4.771,0,0,1-.795-.464.791.791,0,0,0-.961,0,7.8,7.8,0,0,1-7.488.551,4.376,4.376,0,0,1-.955-.528.848.848,0,0,0-1.057,0,7.716,7.716,0,0,1-8.391-.006.921.921,0,0,0-1.061.01,7.712,7.712,0,0,1-8.342.016,1.006,1.006,0,0,0-1.159.047,7.89,7.89,0,0,1-7.97.184,1.727,1.727,0,0,1-.875-.716C.905,51,.636,50.786.4,50.54a1.138,1.138,0,0,1-.081-1.65,1.1,1.1,0,0,1,1.6-.048,5.985,5.985,0,0,0,2.656,1.449c.082-.236-.079-.408-.151-.587Q2.333,44.543.235,39.386c-.065-.159-.128-.32-.177-.485A1.108,1.108,0,0,1,1,37.431a5.523,5.523,0,0,1,.69-.023q13.02,0,26.04.012c.513,0,.622-.128.621-.629q-.024-17.513-.012-35.027c0-.134,0-.269,0-.4A1.188,1.188,0,0,1,29.223.049,1.144,1.144,0,0,1,30.6.717q1.811,2.935,3.612,5.876Q42.078,19.4,49.945,32.21a6.948,6.948,0,0,1,.4.694,1.138,1.138,0,0,1-.984,1.658c-.115.009-.23,0-.346,0H33.752c-.952,0-1.273-.249-1.507-1.151a1.084,1.084,0,0,1,.8-1.209,2.938,2.938,0,0,1,1.025-.109H46.048c.134,0,.269-.008.4,0,.435.03.441-.136.243-.46q-1.352-2.21-2.709-4.417-4.828-7.846-9.643-15.7-1.6-2.6-3.2-5.2a5.7,5.7,0,0,1-.361-.647,3.581,3.581,0,0,1,.03.646q0,13.1,0,26.2a1.379,1.379,0,0,1-.143.892c-.007,1.208,0,2.416-.028,3.623-.01.389.191.372.46.372q4-.007,8,0c.964,0,1.271.252,1.481,1.165.16.562-.183.861-.6,1.1a2.67,2.67,0,0,1-1.4.239H8.036c-1.441,0-2.881,0-4.322,0-.574,0-.6.028-.387.54,1.266,3.072,2.494,6.16,3.755,9.234.144.35.31.426.652.277a6.479,6.479,0,0,0,1.672-1c.889-.765,1.459-.8,2.34-.026a5.455,5.455,0,0,0,7.128.012c.886-.78,1.416-.741,2.348-.007a5.323,5.323,0,0,0,7.07.02,1.548,1.548,0,0,1,2.4,0,5.32,5.32,0,0,0,7.069-.008,1.535,1.535,0,0,1,2.355-.013,5.321,5.321,0,0,0,7.069.034c1-.791,1.493-.784,2.48.061a6.312,6.312,0,0,0,1.53.907c.379.172.573.1.737-.306.956-2.369,1.927-4.732,2.876-7.1.286-.713.588-1.42.884-2.129.168-.4.047-.5-.353-.5-2.017.012-4.034,0-6.05.007a3.168,3.168,0,0,1-1.3-.215.975.975,0,0,1-.649-1.127" transform="translate(0 0)"/>
        <path id="Trazado_164726" data-name="Trazado 164726" d="M4.716,105.125a2.991,2.991,0,0,0-1.064-.323,7.958,7.958,0,0,1-3.062-1.73,1.291,1.291,0,0,1-.558-1.292,1.227,1.227,0,0,1,1.11-.932c.513-.171.838.184,1.163.457a5.472,5.472,0,0,0,2.843,1.282,5.261,5.261,0,0,0,3.769-.893c.319-.214.594-.486.917-.695a1.294,1.294,0,0,1,1.512,0c.292.186.546.422.823.629a5.369,5.369,0,0,0,6.249.036c.279-.2.535-.437.821-.632a1.318,1.318,0,0,1,1.61,0c.239.162.453.355.682.529a5.342,5.342,0,0,0,6.433.031c1.518-1.138,1.546-1.138,3.068,0a5.339,5.339,0,0,0,6.387-.009c1.5-1.133,1.547-1.132,3.069.011a5.342,5.342,0,0,0,6.386-.015c1.476-1.123,1.568-1.123,3.023-.017a5.332,5.332,0,0,0,6.478-.021,2.815,2.815,0,0,1,1.434-.8,1.216,1.216,0,0,1,1.191.927v.692c-.164.7-.738,1.044-1.252,1.425a6.785,6.785,0,0,1-3.7,1.341H52.085a6.841,6.841,0,0,1-3.312-1.17.583.583,0,0,0-.7-.026,6.661,6.661,0,0,1-3.591,1.2H42.633a6.845,6.845,0,0,1-3.312-1.17.583.583,0,0,0-.7-.026,6.659,6.659,0,0,1-3.59,1.2H33.183a6.845,6.845,0,0,1-3.312-1.17.583.583,0,0,0-.7-.026,6.661,6.661,0,0,1-3.591,1.2H23.732a6.841,6.841,0,0,1-3.312-1.17.584.584,0,0,0-.7-.026,6.658,6.658,0,0,1-3.59,1.2H14.282a6.8,6.8,0,0,1-3.309-1.171.572.572,0,0,0-.7-.005,6.9,6.9,0,0,1-3.484,1.176Z" transform="translate(0 -46.125)"/>
        <path id="Trazado_164727" data-name="Trazado 164727" d="M49.756,71.154c.26.9.568,1.137,1.528,1.139,2.189.005,4.379,0,6.568,0h.7c-.632,1.552-1.238,3.038-1.84,4.525-.749,1.845-1.514,3.684-2.227,5.543-.188.49-.408.529-.837.353a6.121,6.121,0,0,1-1.72-1.021c-.9-.782-1.278-.786-2.2-.038a5.432,5.432,0,0,1-6.467.59,5.778,5.778,0,0,1-.789-.573c-.937-.756-1.291-.775-2.2,0A5.52,5.52,0,0,1,37.209,83a5.361,5.361,0,0,1-3.888-1.081l-.047-.034c-1.3-1.048-1.425-1.048-2.741.009a5.5,5.5,0,0,1-6.676.016c-.12-.1-.239-.194-.358-.29-.852-.685-1.264-.723-2.066,0a5.564,5.564,0,0,1-7.4,0c-.816-.735-1.251-.692-2.1.05a5.752,5.752,0,0,1-1.986,1.127c-.218.073-.381.1-.493-.182C8.078,79.2,6.7,75.8,5.275,72.295h36.08c1.084,0,1.391-.216,1.639-1.14h2.151c.173.08.22.258.311.4a.979.979,0,0,0,1.762-.043c.077-.13.114-.288.271-.358h2.268" transform="translate(-2.415 -32.581)" fill="#fec56c"/>
        <path id="Trazado_164728" data-name="Trazado 164728" d="M56.553,37.94c-.007-.134-.018-.268-.018-.4q0-13.6,0-27.2V9.907l.1-.026,16.526,26.9H72.49q-6.426,0-12.85,0c-.951,0-1.273.252-1.508,1.153H56.553" transform="translate(-25.886 -4.524)" fill="#c8f2fe"/>
        <path id="Trazado_164729" data-name="Trazado 164729" d="M58.79,94.5q.011,1.746.022,3.492a2.265,2.265,0,0,0-1.1.587,5.453,5.453,0,0,1-7.255,0c-.925-.755-1.275-.754-2.2.007a5.457,5.457,0,0,1-7.212.022c-.964-.788-1.294-.791-2.248-.016a5.453,5.453,0,0,1-7.212.008c-.962-.782-1.288-.782-2.249,0a5.454,5.454,0,0,1-7.212-.007c-.954-.775-1.284-.773-2.248.015a5.453,5.453,0,0,1-7.167.015c-.99-.809-1.311-.81-2.293-.008a5.444,5.444,0,0,1-7.165,0,2.349,2.349,0,0,0-1.145-.623q.01-1.744.021-3.488a7.889,7.889,0,0,0,7.323,1.083,6.158,6.158,0,0,0,1.735-.879.568.568,0,0,1,.763-.006,7.354,7.354,0,0,0,7.693.514,2.59,2.59,0,0,1,2.744,0,7.353,7.353,0,0,0,7.691-.522.613.613,0,0,1,.769,0,7.642,7.642,0,0,0,8.655.019.651.651,0,0,1,.816,0,7.372,7.372,0,0,0,7.7.5,2.547,2.547,0,0,1,2.688-.006A7.549,7.549,0,0,0,58.79,94.5" transform="translate(-0.964 -43.271)" fill="#c8f2fe"/>
        <path id="Trazado_164730" data-name="Trazado 164730" d="M23.974,38.815c2.081,0,4.058,0,6.034,0a2.755,2.755,0,0,1,.682.069,1.092,1.092,0,0,1,.842,1.1,1.08,1.08,0,0,1-.815,1.061,2.534,2.534,0,0,1-.681.072q-3.888.007-7.775,0c-1.271,0-1.778-.843-1.156-1.942q6.8-12.022,13.613-24.038a2.624,2.624,0,0,1,.256-.381,1.121,1.121,0,0,1,1.442-.3,1.145,1.145,0,0,1,.513,1.388,3.508,3.508,0,0,1-.286.562L24.337,38.148c-.111.2-.215.4-.362.667" transform="translate(-9.542 -6.553)"/>
        <path id="Trazado_164731" data-name="Trazado 164731" d="M81.164,70.183c-.222.775-.578,1.113-1.171,1.113s-.939-.331-1.172-1.113a1.169,1.169,0,0,1,1.889-.9,1.454,1.454,0,0,1,.454.9" transform="translate(-36.091 -31.61)" fill="#010101"/>
        <path id="Trazado_164732" data-name="Trazado 164732" d="M46.222,61.817a1.146,1.146,0,1,1,1.135-1.142,1.188,1.188,0,0,1-1.135,1.142" transform="translate(-20.634 -27.256)" fill="#010101"/>
      </g>
    </g>
  </g>
</svg>
