<svg xmlns="http://www.w3.org/2000/svg" xmlns:xlink="http://www.w3.org/1999/xlink" width="105" height="105" viewBox="0 0 105 105">
  <defs>
    <clipPath id="clip-path">
      <rect id="Rectángulo_42897" data-name="Rectángulo 42897" width="69.974" height="69.303" fill="none"/>
    </clipPath>
  </defs>
  <g id="Grupo_170092" data-name="Grupo 170092" transform="translate(-956 -2853)">
    <path id="Trazado_164414" data-name="Trazado 164414" d="M52.5,0A52.5,52.5,0,1,1,0,52.5,52.5,52.5,0,0,1,52.5,0Z" transform="translate(956 2853)" fill="#e1e8ff"/>
    <g id="Grupo_170091" data-name="Grupo 170091" transform="translate(974 2871)">
      <g id="Grupo_170090" data-name="Grupo 170090" transform="translate(0 0)" clip-path="url(#clip-path)">
        <path id="Trazado_164425" data-name="Trazado 164425" d="M86.181,56.29l.048.075c0-.027,0-.052,0-.078l-.05-.02Z" transform="translate(-29.996 -19.584)" fill="#343449"/>
        <path id="Trazado_164426" data-name="Trazado 164426" d="M65.539,62.024c.548-1.16,1.07-2.33,1.5-3.539a60.346,60.346,0,0,0,2.9-13.09c.257-2.118.445-4.243.49-6.379.009-.437-.029-.826-.52-1a3.4,3.4,0,0,0-4.2,1.952.63.63,0,0,1-.715.507q-3.056-.034-6.113,0c-.477.006-.608-.13-.6-.606q.03-4.621,0-9.242c0-.475.126-.613.6-.6,1.479.031,2.959.011,4.439.01.5,0,.874-.2.884-.744s-.349-.76-.858-.767a2.864,2.864,0,0,0-.436,0,.733.733,0,0,1-.874-.537,19.907,19.907,0,0,1-1.506-4.84c-.437-2.831-.256-5.556,1.522-7.982.419-.572.076-1.155-.676-1.176-1.042-.03-2.086-.025-3.129,0-.407.009-.541-.109-.535-.529.025-1.5.01-3.008.011-4.511,0-1.477.014-2.954-.01-4.43-.008-.479.1-.692.637-.683,1.767.03,3.534.023,5.3,0,.487-.006.661.093.466.606a17.491,17.491,0,0,0-.606,2.152,1.846,1.846,0,0,1-1.874,1.5,5.813,5.813,0,0,0-1.947.072.76.76,0,0,0-.673.8c.032.494.362.657.788.671.509.018,1.018.006,1.528.005a3.358,3.358,0,0,0,3.658-2.838,27.564,27.564,0,0,1,.918-2.981c.445-1.207.229-1.52-1.085-1.52q-4.365,0-8.731,0c-1.83,0-2.5.677-2.5,2.5,0,2.814-.008,5.628.007,8.441,0,.482-.031.793-.63.9a3.029,3.029,0,0,0-1.9,1.258,14.587,14.587,0,0,0-2.232,4.538.8.8,0,0,0,.433,1.09A1.219,1.219,0,0,0,50,20.886a5.518,5.518,0,0,0,.614-1.532,11.5,11.5,0,0,1,1.811-3.206,1.691,1.691,0,0,1,1.258-.64c2.081-.023,4.163-.01,6.326-.01a11.509,11.509,0,0,0-1.14,4.8,17.6,17.6,0,0,0,1.5,7.592c.211.513.1.6-.4.585-1.306-.027-2.614-.032-3.919,0-.569.014-1.213.034-1.256.864h0c.162.728.722.758,1.3.707.548-.049.76.113.75.711-.04,2.337-.027,4.674-.033,7.011.006.7.008,1.393.02,2.089.006.389-.161.559-.562.565-1.029.015-2.058.059-3.086.092l-1.269.208h0A8.653,8.653,0,0,0,48.514,43a6.461,6.461,0,0,1-.975,1.226c-.231.336-.45.679-.693,1.006-.585.787-.61.808-1.392.158a16.586,16.586,0,0,1-5.911-10.43,48.545,48.545,0,0,1-.456-12.022A9,9,0,0,1,39.356,21a9.27,9.27,0,0,1,.441-2.461,3.789,3.789,0,0,1,1.881-.121l1.345,0,1.47-.17a3.416,3.416,0,0,0,1-.88c.488-1.82-.31-2.871-2.183-2.88-.435,0-.87-.011-1.3-.017-3.464,0-6.929.018-10.394,0a12.392,12.392,0,0,1-2.161.145,4.152,4.152,0,0,0-3.005,1.954,20.624,20.624,0,0,0-1.368,2.642c-.645,1.363-.917,2.858-1.541,4.224q-3.742,8.189-7.5,16.371a3.19,3.19,0,0,0-.272.743.645.645,0,0,0,.437.75.663.663,0,0,0,.844-.217,3.489,3.489,0,0,0,.338-.638q2.539-5.507,5.075-11.013c.1-.209.115-.479.388-.588a31.229,31.229,0,0,0,.092,5.822,25.454,25.454,0,0,0,1.233,6.111c.166.447.449.707.94.542a.706.706,0,0,0,.466-1.035,16.449,16.449,0,0,1-.634-2.309,1.126,1.126,0,0,1,.152-.891,10.915,10.915,0,0,1,2.6-2.919,5.815,5.815,0,0,1,2.983-1.232c.377-.035.514.063.514.462q-.016,8.3,0,16.6c0,.4-.141.49-.507.484q-1.748-.026-3.494,0c-.359.006-.522-.066-.507-.472.031-.824.023-1.651,0-2.475-.008-.344.066-.514.451-.575a2.018,2.018,0,0,0,1.578-1.259,2.221,2.221,0,0,0-2.23-3.095q-7.681-.011-15.362.008A1.383,1.383,0,0,1,9.939,42.1a22.489,22.489,0,0,0-3.4-3.168c-1.846-1.409-3.265-1.3-4.849.378-.559.592-.514,1.046.181,1.466,5.31,3.21,8.268,8.04,9.552,13.982a45.549,45.549,0,0,0,2.251,8.1c.244.581.565.88,1.206.733a1.01,1.01,0,0,0,.261-1.132,42.821,42.821,0,0,1-2.3-8.295A23.034,23.034,0,0,0,6.259,42.186a15.6,15.6,0,0,0-2.5-1.983c-.141-.09-.332-.188-.309-.37.029-.226.264-.271.449-.294a1.766,1.766,0,0,1,1.37.317A23.6,23.6,0,0,1,14.2,53.309a26.167,26.167,0,0,0,4.341,9.365,15.836,15.836,0,0,0,1.02,1.228c.593.643.772.645,1.438.089.391-.874-.565-1.123-.812-1.739.246-.213.546-.113.812-.113q10.013-.01,20.026-.006c.218,0,.436,0,.655,0a.669.669,0,0,0,.727-.659.723.723,0,0,0-.68-.8,3.36,3.36,0,0,0-.654-.016q-10.7,0-21.409.011a1.086,1.086,0,0,1-1.095-.606,31.28,31.28,0,0,1-3.045-7.524c-.124-.448.01-.645.484-.6.192.018.388,0,.582,0q22.21,0,44.42,0c.572,0,1.162.055,1.248-.746h0a.915.915,0,0,0-1.059-.741c-.19.014-.382,0-.573,0-1.2,0-1.2,0-1.132-1.191a20.826,20.826,0,0,0-.137-2.309,3.917,3.917,0,0,0-7.741.79c-.018.507-.024,1.014-.036,1.522h0c.006.048.016.1.018.143.035,1.045.035,1.045-1.032,1.045H44.734l1.053-1.308c1.252-1.664,2.475-3.352,3.764-4.987a5.384,5.384,0,0,1,4.4-2.171c3.614,0,7.229.012,10.844-.017.594,0,.692.223.641.727a45.381,45.381,0,0,1-1.032,6.441,10.015,10.015,0,0,1-.586,2.051h0a31.146,31.146,0,0,1-2.183,5.98c-.441.968-.976,1.893-1.432,2.855a1,1,0,0,1-1.063.645c-2.811-.029-5.622-.014-8.432-.014-.194,0-.389-.009-.582.007-.474.04-.8.3-.8.774s.341.7.834.7c2.206-.007,4.41,0,6.615,0h2.066a4.85,4.85,0,0,1-.835,1.352.875.875,0,0,0,.005,1.241h0a.808.808,0,0,0,1.18-.3,43.922,43.922,0,0,0,7.089-16.8,42.91,42.91,0,0,0,.752-6.691,1.43,1.43,0,0,1,.789-1.291.97.97,0,0,1,.975-.055c.264.171.1.529.068.814q-.19,1.947-.358,3.9a62.944,62.944,0,0,1-1.35,8.356,38.823,38.823,0,0,1-3.03,8.833.965.965,0,0,0,.154,1.2c.632.183.99-.094,1.256-.66M55.651,14.039c-.46,0-.592-.186-.556-.6.025-.286.015-.574.02-.862-.007-2.686-.007-5.372-.025-8.058,0-.5.2-.681.692-.693.561-.014.469.353.467.681q-.009,4.029-.022,8.058h0c.01.287,0,.576.037.86.054.477-.147.619-.613.617M40.658,15.975c1.016-.016,2.033,0,3.049.03a.418.418,0,0,1,.434.481c-.042.3-.29.353-.55.353H42.065c-.436,0-.872.012-1.308,0-.191-.007-.507.1-.481-.25.018-.239.029-.6.383-.61M15.992,50.448c-.4-.032-.963.325-1.191-.319a27.084,27.084,0,0,0-1.366-3.112c.884,0,1.653.014,2.421-.006.4-.01.415.216.412.512-.008.775.012,1.551-.012,2.325-.007.219.186.636-.265.6m2.38.025c-.536,0-.58-.261-.57-.678.019-.775.024-1.551,0-2.325-.014-.456.228-.51.591-.5.344.006.634.014.607.488-.023.411-.005.823,0,1.235,0,.363-.022.728.006,1.09.037.473-.085.7-.628.694m3.12.012c-.937-.061-.941-.015-.941-.984,0-.679.015-1.358-.006-2.035-.011-.353.126-.442.464-.46,1.426-.073,1.426-.085,1.426,1.32v.436a4.728,4.728,0,0,0,.007.8c.139.8-.223.971-.951.924m3.043-.023c-.408.019-.647-.074-.609-.552.032-.408.007-.821.007-1.232,0-.314.008-.629,0-.943-.014-.43-.047-.794.6-.784.619.008.725.284.7.8-.027.724-.034,1.452,0,2.176.028.579-.334.514-.706.532M13.3,45.511a1.611,1.611,0,0,1-1.521-1.155c-.1-.41.233-.279.4-.28,1.358-.012,2.716-.007,4.074-.007h3.128c2.255,0,4.51,0,6.765,0a2.888,2.888,0,0,1,.787.089.645.645,0,0,1,.485.786.629.629,0,0,1-.658.558c-.194.007-.388.007-.582.007H13.3m39.884,1.971a2.237,2.237,0,0,1,1.968-1.992,2.316,2.316,0,0,1,2.7,1.655A12.155,12.155,0,0,1,58,50.1c.01.36-.257.35-.5.35q-.98,0-1.96,0c-.629,0-1.259-.022-1.887.008-.456.022-.6-.164-.572-.6a20.163,20.163,0,0,1,.112-2.385M24.554,35.159a29.184,29.184,0,0,1-.173-5.838,25.35,25.35,0,0,1,3.247-11.841,3.123,3.123,0,0,1,2.885-1.522c2.571-.021,5.141-.009,7.712,0,.267,0,.646-.1.5.426a31.807,31.807,0,0,0-1.137,6.408,2.011,2.011,0,0,1-.12.418h0c-.027,1.062-.122,2.144-.064,3.181.085,1.516-.038,3.039.168,4.557.138,1.014.211,2.048.341,3.206-4.77-3.68-9.24-4.022-13.358,1.009m9.592,15.3c-.121,0-.241,0-.362,0-1.157,0-1.157,0-1.085-1.191q0-5.514-.007-11.029c-.007-1.527,0-3.054-.027-4.581-.008-.484.147-.63.593-.414a1.2,1.2,0,0,0,.141.036c1.985.634,2.031.695,2.029,2.774q0,6.544-.011,13.089c.022,1.615.139,1.275-1.271,1.316m7.264-.07a34.677,34.677,0,0,1-4.215.084c-.353.009-.3-.233-.3-.443q0-1.455,0-2.911V35.357a5.184,5.184,0,0,1,1.668,2.174,17.907,17.907,0,0,0,6.776,9.634c-.992,1.487-2.011,2.933-3.929,3.219" transform="translate(-0.453 -0.801)"/>
        <path id="Trazado_164427" data-name="Trazado 164427" d="M45.835,20.9c-.093.014-.184.036-.277.052a.316.316,0,0,0,.277-.052" transform="translate(-15.857 -7.275)" fill="#343449"/>
        <path id="Trazado_164428" data-name="Trazado 164428" d="M64.179,100.121c-.035-.034-.084-.053-.115-.089-.289-.334-.522-.273-.828.027a5.956,5.956,0,0,1-3.7,1.972,5.476,5.476,0,0,1-4.528-1.724c-.542-.545-.934-.562-1.484-.007a5.425,5.425,0,0,1-5.453,1.564,6.432,6.432,0,0,1-2.736-1.729.667.667,0,0,0-1.091.01,5.814,5.814,0,0,1-4.034,1.9,5.289,5.289,0,0,1-3.609-1.279c-1.265-1.08-1.276-1.066-2.583.019a5.208,5.208,0,0,1-6.862-.007c-.28-.232-.58-.445-.834-.7a.552.552,0,0,0-.919-.01,12.322,12.322,0,0,1-.945.8,5.225,5.225,0,0,1-6.695-.023c-1.368-1.13-1.368-1.13-2.753.009a5.218,5.218,0,0,1-6.7.007c-1.391-1.143-1.393-1.145-2.753-.022A4.9,4.9,0,0,1,2.3,102.045c-.435-.007-.872.008-1.307.013a1.872,1.872,0,0,1,.1.929c.021,1.2-.138,1.048,1.043,1.048q33.2,0,66.4,0c.194,0,.389-.012.582,0,.348.027.458-.129.467-.469a4.013,4.013,0,0,1,.1-1.511,6.556,6.556,0,0,1-5.493-1.938" transform="translate(-0.344 -34.739)" fill="#74a8f6"/>
        <path id="Trazado_164429" data-name="Trazado 164429" d="M61.6,98.259a4.076,4.076,0,0,1-3.225,1.326,3.027,3.027,0,0,1-1.857-.683h0c-.546-.442-1.1-.874-1.635-1.328-.855-.728-1.042-.734-1.918-.005-.484.4-.96.818-1.458,1.2a3.7,3.7,0,0,1-4.8-.1c-.52-.434-1.032-.881-1.548-1.32a.91.91,0,0,0-1.355-.02c-.561.5-1.149.967-1.743,1.426a3.7,3.7,0,0,1-4.86-.12c-.519-.438-1.033-.881-1.552-1.318a.876.876,0,0,0-1.293,0c-.581.513-1.188,1-1.8,1.47a3.7,3.7,0,0,1-4.747-.086q-.758-.624-1.49-1.277a1.012,1.012,0,0,0-1.53-.04A10.064,10.064,0,0,1,22.9,98.856a3.6,3.6,0,0,1-4.639-.2c-.33-.282-.663-.562-.995-.842-1.176-.994-1.176-.994-2.341-.126-.422.361-.835.735-1.27,1.081a3.706,3.706,0,0,1-4.745-.044c-.544-.445-1.089-.887-1.616-1.351a.9.9,0,0,0-1.4-.014c-.188.187-.424.326-.613.512A5.11,5.11,0,0,1,.864,99.6a.687.687,0,0,0-.849.6.7.7,0,0,0,.628.889h0c.17-.288.467-.256.715-.229a5.5,5.5,0,0,0,4.464-1.726c.625-.576.863-.559,1.5-.027.261.217.528.427.793.64a5.059,5.059,0,0,0,6.439-.026c1.642-1.317,1.279-1.384,2.977-.015a5.071,5.071,0,0,0,6.5.005c1.651-1.329,1.3-1.347,2.977.006a5.049,5.049,0,0,0,6.5-.013c.264-.214.53-.424.791-.642.566-.471.811-.466,1.4.019.262.217.541.413.791.643A5.228,5.228,0,0,0,43,99.714c1.569-1.379,1.283-1.341,2.908-.031a5.065,5.065,0,0,0,6.555.008c1.632-1.314,1.348-1.373,2.905.016a5.387,5.387,0,0,0,6.7-.1c1.3-1.224,1.035-1.308,2.528-.081a5.19,5.19,0,0,0,3.809,1.337c.315-.024.69-.115.932.23a.711.711,0,0,0,.618-.9.689.689,0,0,0-.711-.594,1.864,1.864,0,0,0-.362,0,4.668,4.668,0,0,1-3.76-1.328,6.033,6.033,0,0,0-1.621-1.187c-.89-.029-1.348.671-1.891,1.177" transform="translate(0 -33.771)"/>
        <path id="Trazado_164430" data-name="Trazado 164430" d="M68.74,101.725a5.191,5.191,0,0,1-3.809-1.337c-1.493-1.228-1.225-1.143-2.528.081a5.388,5.388,0,0,1-6.7.1c-1.557-1.39-1.273-1.331-2.906-.017a5.064,5.064,0,0,1-6.555-.008c-1.625-1.31-1.34-1.348-2.908.031a5.228,5.228,0,0,1-6.51.012c-.249-.23-.529-.426-.79-.643-.585-.485-.83-.49-1.4-.019-.261.217-.528.428-.792.642a5.048,5.048,0,0,1-6.5.013c-1.677-1.353-1.327-1.335-2.978-.006a5.07,5.07,0,0,1-6.5-.005c-1.7-1.369-1.335-1.3-2.976.015a5.058,5.058,0,0,1-6.439.026c-.265-.212-.532-.422-.793-.64-.639-.531-.876-.549-1.5.027A5.5,5.5,0,0,1,1.7,101.725c-.247-.027-.546-.059-.715.229.435,0,.872-.019,1.308-.013a4.9,4.9,0,0,0,3.268-1.207c1.36-1.124,1.363-1.122,2.752.021a5.219,5.219,0,0,0,6.7-.006c1.385-1.139,1.385-1.139,2.754-.009a5.224,5.224,0,0,0,6.695.022,12.318,12.318,0,0,0,.945-.8.552.552,0,0,1,.919.01c.255.257.555.469.834.7a5.207,5.207,0,0,0,6.862.007c1.306-1.084,1.319-1.1,2.584-.019a5.281,5.281,0,0,0,3.608,1.279,5.814,5.814,0,0,0,4.034-1.9.667.667,0,0,1,1.091-.01,6.422,6.422,0,0,0,2.736,1.729,5.423,5.423,0,0,0,5.453-1.564c.55-.555.941-.539,1.483.007a5.478,5.478,0,0,0,4.528,1.724,5.96,5.96,0,0,0,3.7-1.972c.307-.3.539-.361.828-.027.031.035.081.055.115.088a6.556,6.556,0,0,0,5.494,1.938c-.243-.345-.617-.254-.932-.23" transform="translate(-0.344 -34.635)" fill="#343449"/>
        <path id="Trazado_164431" data-name="Trazado 164431" d="M64.947,26.372a13.971,13.971,0,0,1,1.241,1.811.24.24,0,0,1-.01.325,1.433,1.433,0,0,1-1.9-.141c-.275-.564-.531-1.138-.791-1.709l-.147,0c-.409,0-.819.01-1.229-.005h0a17.9,17.9,0,0,0,.767,1.719c.17.424.438.82-.289,1.054-1,.321-1.134.309-1.418-.389-.291-.715-.5-1.464-.846-2.154a11.351,11.351,0,0,0-.441,2.176c-.016.083-.025.166-.04.249.852,1.891,1.5,3.863,2.224,5.8.99,2.64,1.94,5.3,2.906,7.944l1.15-.43c-.043-.113-.085-.226-.129-.338-.494-1.252-.5-1.256.586-2a7.639,7.639,0,0,0,1.166-1.139c.394.355.357.952.749,1.282.413-.186.544-.686.966-.863h0c-.224-.407-.468-.823.343-.769l.578-1.269c-.289-.005-.58.008-.868-.02a1.464,1.464,0,0,1-1.492-1,15.528,15.528,0,0,0-.864-1.908c-.149-.31-.093-.456.267-.43a2.7,2.7,0,0,0,1.85-.466c.334-.241.419.1.531.276.44.681.857,1.376,1.284,2.065l.01-.005a5.73,5.73,0,0,1,.3-1.878c-.622-1.194-1.5-2.236-2.052-3.474h0a3.3,3.3,0,0,1-.668-.928c-.962-1.437-1.747-2.987-2.814-4.356-.048.592-.5.76-.922.962M63,33.928c-.326-.858-.629-1.724-.958-2.581-.119-.311-.134-.5.281-.531a3.755,3.755,0,0,0,1.214-.4c.287-.044.334.182.413.344.263.544.524,1.089.763,1.645a1.579,1.579,0,0,1-1.394,1.868c-.233-.016-.263-.2-.318-.341m2.3,5.613c-.274.054-.327-.167-.389-.338-.393-1.088-.767-2.183-1.166-3.268-.116-.316.019-.454.284-.537a2.152,2.152,0,0,0,.951-.5c.6-.63.818-.267,1.046.313s.516,1.142.78,1.711A2.327,2.327,0,0,1,65.3,39.541m2.238-9.205c.316.6.7,1.155,1.068,1.721.241.371.092.562-.261.716A1.894,1.894,0,0,1,65.9,31.9c-.265-.56-.5-1.132-.759-1.7a3.737,3.737,0,0,0,1.1-.3c.688-.487.984-.139,1.294.445" transform="translate(-20.831 -8.844)" fill="#fec89d"/>
        <path id="Trazado_164432" data-name="Trazado 164432" d="M59.827,29.69a11.368,11.368,0,0,1,.441-2.177c-.051-.1-.1-.2-.154-.3a9.265,9.265,0,0,0-.441,2.461c.041.087.075.177.115.265.014-.083.024-.166.04-.248" transform="translate(-20.77 -9.471)" fill="#fec89d"/>
        <path id="Trazado_164433" data-name="Trazado 164433" d="M67.552,26.29c.029.025.048.056.076.082.422-.2.875-.37.922-.962a3.423,3.423,0,0,1-1,.88" transform="translate(-23.512 -8.844)" fill="#fec89d"/>
        <path id="Trazado_164434" data-name="Trazado 164434" d="M63.294,27.218c.409.014.819,0,1.229.005l.147,0-.091-.2-1.345,0c.014.066.04.128.059.193Z" transform="translate(-22.009 -9.405)" fill="#fec89d"/>
        <line id="Línea_631" data-name="Línea 631" transform="translate(39.344 17.74)" fill="#fec89d"/>
        <path id="Trazado_164435" data-name="Trazado 164435" d="M93.821,81.325c.6-1.378,1.2-2.756,1.678-4.185a60.147,60.147,0,0,0,2.45-11.287c.241-1.825.392-3.661.518-5.5.039-.567-.226-.745-.744-.484a1.277,1.277,0,0,0-.674,1.2,46.821,46.821,0,0,1-1.542,9.9,43.547,43.547,0,0,1-6.24,13.387c-.5.72-.806.806-1.507.46a4.049,4.049,0,0,1-.828.991,3.469,3.469,0,0,0,4.09-.08c.551-.4,1.009-.9,1.539-1.325a1.167,1.167,0,0,1,1.191-.292c-.213-.107-.507-.147-.211-.505a6.566,6.566,0,0,0,.547-.923c-.693-.332-.483-.861-.267-1.355" transform="translate(-30.257 -20.798)" fill="#983c4e"/>
        <path id="Trazado_164436" data-name="Trazado 164436" d="M94.375,81.338a38.853,38.853,0,0,0,3.03-8.833,62.838,62.838,0,0,0,1.35-8.356q.168-1.949.359-3.9c.028-.285.2-.643-.068-.814a.969.969,0,0,0-.974.055,1.428,1.428,0,0,0-.789,1.291,43.145,43.145,0,0,1-.752,6.691,43.943,43.943,0,0,1-7.089,16.8.809.809,0,0,1-1.181.3l-.059.091c.7.347,1.007.261,1.507-.46a43.574,43.574,0,0,0,6.24-13.386,46.911,46.911,0,0,0,1.542-9.9,1.274,1.274,0,0,1,.673-1.2c.518-.26.784-.082.745.484-.126,1.837-.276,3.672-.518,5.5a60.14,60.14,0,0,1-2.45,11.286c-.477,1.429-1.074,2.807-1.678,4.185-.216.494-.426,1.023.267,1.355a.964.964,0,0,1-.155-1.2" transform="translate(-30.699 -20.651)" fill="#983c4e"/>
        <path id="Trazado_164437" data-name="Trazado 164437" d="M92.478,97.37c-.53.423-.989.925-1.539,1.325a3.47,3.47,0,0,1-4.09.08c-.051.04-.1.085-.153.123h0a3.023,3.023,0,0,0,1.857.682,4.074,4.074,0,0,0,3.225-1.325c.542-.507,1-1.205,1.891-1.177a1.168,1.168,0,0,0-1.191.292" transform="translate(-30.176 -33.767)" fill="#983c4e"/>
        <path id="Trazado_164438" data-name="Trazado 164438" d="M46.172,12.026a7.516,7.516,0,0,1,.018-.848h0A13.566,13.566,0,0,1,48.46,2.792a2.487,2.487,0,0,1,2.294-1.241c1.767.05,3.538.026,5.307.006.523-.007.61.1.407.612a13.582,13.582,0,0,0-.995,5.088,19.46,19.46,0,0,0,.445,4.775c.131.562.447.824,1.038.628.6-.279.452-.782.36-1.254a16.906,16.906,0,0,1,0-6.923c.106-.487.306-.627.775-.6.579.038,1.162.012,1.744.008,1.371-.008,2.234-.753,2.241-1.932A1.956,1.956,0,0,0,59.86.005q-4.581-.012-9.16,0A3.916,3.916,0,0,0,47.319,1.79a15.723,15.723,0,0,0-2.6,10.423c.023.352.127.672.546.749.652.027.964-.262.906-.936M58.693,1.559c.48-.014.961-.007,1.441,0a.4.4,0,0,1,.076.794c-.35.066-.712.073-1.069.106,0-.009,0-.018,0-.027a2.646,2.646,0,0,1-.432,0c-.207-.035-.569.143-.564-.228a.58.58,0,0,1,.55-.642" transform="translate(-15.547 0)"/>
        <path id="Trazado_164439" data-name="Trazado 164439" d="M18.759,84.285c.494.39.965.809,1.443,1.22a3.521,3.521,0,0,0,4.391.278c-.555-.365-1.114-.726-1.664-1.1a1.135,1.135,0,0,1-.533-.615c-.527.659-1.03.586-1.739-.2a23.411,23.411,0,0,1-3.863-6.382,37.415,37.415,0,0,1-1.7-5.178,22.618,22.618,0,0,0-5.022-9.083,24.786,24.786,0,0,0-3.484-3.174,1.4,1.4,0,0,0-1.361-.269c-.016.311.222.383.384.5a22.332,22.332,0,0,1,8.472,12.6c.717,2.591,1,5.292,1.949,7.828.2.545.457,1.074.615,1.633.135.477.205.973-.4,1.226h0q.254.561.507,1.123c.6-.949,1.169-1.078,2.013-.411" transform="translate(-1.818 -20.782)" fill="#983c4e"/>
        <path id="Trazado_164440" data-name="Trazado 164440" d="M16.425,82.235c-.158-.559-.411-1.088-.615-1.633-.951-2.536-1.232-5.237-1.949-7.828a22.332,22.332,0,0,0-8.473-12.6c-.162-.117-.4-.189-.384-.5a1.4,1.4,0,0,1,1.362.269,24.782,24.782,0,0,1,3.484,3.174A22.621,22.621,0,0,1,14.873,72.2a37.441,37.441,0,0,0,1.7,5.178,23.427,23.427,0,0,0,3.863,6.382c.709.786,1.212.859,1.739.2a.628.628,0,0,1-.028-.1h0c-.666.555-.846.554-1.438-.089a15.68,15.68,0,0,1-1.019-1.228,26.168,26.168,0,0,1-4.341-9.365A23.6,23.6,0,0,0,6.418,59.725a1.765,1.765,0,0,0-1.369-.317c-.185.023-.42.068-.449.294-.023.182.167.28.308.37a15.6,15.6,0,0,1,2.5,1.983,23.034,23.034,0,0,1,6.579,11.979,42.776,42.776,0,0,0,2.3,8.295,1.012,1.012,0,0,1-.261,1.132c.606-.252.537-.749.4-1.226" transform="translate(-1.6 -20.67)" fill="#983c4e"/>
        <path id="Trazado_164441" data-name="Trazado 164441" d="M25.239,97.719c.332.281.665.56,1,.842a3.6,3.6,0,0,0,4.639.2l-.128-.085a3.523,3.523,0,0,1-4.392-.278c-.477-.411-.949-.83-1.442-1.22-.844-.667-1.413-.538-2.013.411,1.165-.869,1.165-.869,2.34.125" transform="translate(-7.97 -33.68)" fill="#983c4e"/>
        <path id="Trazado_164442" data-name="Trazado 164442" d="M76.556,36.233l2.069,3.113h0l1.495-.016c.089-.694.392-.99,1.189-1.058,1.039-.088,2.082-.021,3.123-.035.194,0,.388.005.582,0,.65-.021.688-.067.462-.67a27.173,27.173,0,0,1-1.054-3.474,13.171,13.171,0,0,1-.288-2.738,4.837,4.837,0,0,1-2.071,1.857,11.717,11.717,0,0,1-2.73,1.3,1.852,1.852,0,0,1-2.2-.765c-.561-.9-1.071-1.823-1.6-2.739a.645.645,0,0,1-.805.016q-.15.811-.3,1.62h0a12.823,12.823,0,0,1,2.134,3.546l0,.045" transform="translate(-25.904 -10.792)" fill="#505072"/>
        <path id="Trazado_164443" data-name="Trazado 164443" d="M87.463,33.707a27.026,27.026,0,0,0,1.053,3.474c.227.6.189.65-.462.671-.194.006-.387,0-.581,0-1.042.014-2.086-.053-3.124.035-.8.068-1.1.364-1.189,1.058h.132c.042-.831.686-.85,1.255-.864,1.306-.034,2.613-.029,3.919,0,.505.01.615-.072.4-.585a17.6,17.6,0,0,1-1.5-7.592,2.373,2.373,0,0,1-.19,1.069,13.129,13.129,0,0,0,.288,2.739" transform="translate(-28.945 -10.407)" fill="#505072"/>
        <path id="Trazado_164444" data-name="Trazado 164444" d="M75.69,30.937l-.074-.13a1.219,1.219,0,0,1-.731.145.646.646,0,0,0,.805-.016" transform="translate(-26.065 -10.723)" fill="#505072"/>
        <path id="Trazado_164445" data-name="Trazado 164445" d="M76.556,37.107l0-.045a12.823,12.823,0,0,0-2.134-3.546c.549,1.238,1.43,2.28,2.052,3.475l.078.116" transform="translate(-25.905 -11.666)" fill="#505072"/>
        <path id="Trazado_164446" data-name="Trazado 164446" d="M53.627,17.42c.941-.031,1.883-.008,2.825,0a1.417,1.417,0,0,1,.966.228c-.057-.334-.263-.647-.144-1.007-.565.35-1.033.151-1.237-.606a15.07,15.07,0,0,1-.443-3.219c-.022-.462-.006-.926,0-1.389a12.745,12.745,0,0,1-4.424,2.952,14.234,14.234,0,0,1-4.481.77v.093a4.872,4.872,0,0,1-.008.925c-.08.716-.356.907-1.1.775a.448.448,0,0,1,.319.557.237.237,0,0,1-.059.107c2.58-.4,5.189-.1,7.783-.183" transform="translate(-15.866 -3.976)" fill="#505072"/>
        <path id="Trazado_164447" data-name="Trazado 164447" d="M45.03,20.979c-.185.04-.389,0-.553.13.235-.053.469-.091.7-.131a.505.505,0,0,0-.151,0" transform="translate(-15.481 -7.3)" fill="#505072"/>
        <path id="Trazado_164448" data-name="Trazado 164448" d="M46.639,20.826c3.464.023,6.929.007,10.394,0a1.417,1.417,0,0,0-.966-.228c-.941-.006-1.884-.029-2.825,0-2.593.085-5.2-.214-7.783.183a.316.316,0,0,1-.277.052c-.235.041-.47.078-.7.132a12.4,12.4,0,0,0,2.161-.145" transform="translate(-15.481 -7.162)" fill="#505072"/>
        <path id="Trazado_164449" data-name="Trazado 164449" d="M61.573,15.907a19.461,19.461,0,0,1-.445-4.775c-.065.065-.131.127-.2.191-.007.462-.022.926,0,1.389a14.947,14.947,0,0,0,.443,3.219c.2.756.671.956,1.236.606-.591.2-.907-.066-1.038-.628" transform="translate(-21.204 -3.875)" fill="#505072"/>
        <path id="Trazado_164450" data-name="Trazado 164450" d="M46.681,18.151a4.872,4.872,0,0,0,.008-.925v-.093l-.181.008a7.529,7.529,0,0,0-.018.848c.058.674-.254.963-.906.936.741.132,1.018-.058,1.1-.775" transform="translate(-15.866 -5.963)" fill="#505072"/>
        <path id="Trazado_164451" data-name="Trazado 164451" d="M89.711,8.938a3.964,3.964,0,0,1,1.511-.146c1.531-.008,1.913-.3,2.3-1.762q.195-.739.417-1.47c.111-.366,0-.559-.4-.561-1.625-.007-3.25,0-4.875,0-.5,0-.6.3-.6.711,0,1.067,0,2.134,0,3.2a1.365,1.365,0,0,1-.209.971,2.612,2.612,0,0,1,1.294.022c-.247-.578.147-.794.568-.966" transform="translate(-30.577 -1.739)" fill="#505072"/>
        <path id="Trazado_164452" data-name="Trazado 164452" d="M89.809,8.979a5.813,5.813,0,0,1,1.947-.072,1.846,1.846,0,0,0,1.874-1.5,17.458,17.458,0,0,1,.606-2.152c.195-.513.021-.612-.466-.606-1.767.02-3.535.027-5.3,0-.536-.009-.645.2-.637.683.024,1.476.01,2.953.01,4.429a1.363,1.363,0,0,0,.209-.971c.007-1.067,0-2.134,0-3.2,0-.414.1-.711.6-.711,1.625,0,3.25,0,4.875,0,.4,0,.51.195.4.561q-.222.731-.417,1.47c-.384,1.46-.767,1.753-2.3,1.762a3.961,3.961,0,0,0-1.511.146c-.421.172-.816.388-.568.966a.76.76,0,0,1,.673-.8" transform="translate(-30.571 -1.618)" fill="#505072"/>
        <path id="Trazado_164453" data-name="Trazado 164453" d="M31.093,91.82c.623-.447,1.186-.971,1.8-1.431a1.139,1.139,0,0,1,1.752.043c.449.37.9.741,1.331,1.13a3.541,3.541,0,0,0,4.72.171c.559-.427,1.08-.9,1.64-1.328.741-.561,1.091-.552,1.808.052.408.344.827.673,1.222,1.035a3.552,3.552,0,0,0,4.83.218c.559-.427,1.076-.908,1.641-1.327a1.134,1.134,0,0,1,1.75.055c.426.359.863.705,1.276,1.082a3.546,3.546,0,0,0,4.775.207c.5-.383.979-.8,1.467-1.2.866-.708,1.258-.692,2.1.025.527.449,1.05.906,1.611,1.312a2.631,2.631,0,0,1,.85-.968l-.022-.01c-.546-.541-.276-1.047.047-1.571.157-.256.568-.495.385-.79-.159-.259-.588-.111-.9-.113-2.305-.008-4.611,0-6.916-.007-.934,0-1.346-.273-1.353-.855s.5-1,1.355-1.01c2.717-.024,5.436-.031,8.153.006a1.547,1.547,0,0,0,1.6-.954A46.009,46.009,0,0,0,71.4,77.325l.01-.032-1.277,0c.008.028.016.05.023.08a.891.891,0,0,1-.929.84c-.363.036-.728.022-1.091.022H24.825c-1.426,0-1.445.04-1.015,1.435a34.187,34.187,0,0,0,2.335,5.718,1.835,1.835,0,0,0,1.865,1.149c6.793-.04,13.587-.022,20.38-.02a3.874,3.874,0,0,1,1.158.078.914.914,0,0,1,.756,1.009.87.87,0,0,1-.887.8c-.315.031-.63.022-.945.022H29.619c-.194,0-.389.005-.582,0-.458-.013-.687.085-.3.548a.957.957,0,0,1,.241.941c-.054.085-.108.153-.161.222a11.877,11.877,0,0,0,2.033,1.47.491.491,0,0,1,.247.207M61.7,79.757a2.767,2.767,0,0,1,.057,5.532,2.766,2.766,0,1,1-.057-5.532m-8.877,7.356a1.462,1.462,0,0,1,2.052.053.7.7,0,0,1-.428,1.037,3.233,3.233,0,0,1-.6.038c-.432-.029-.845.079-1.077-.374a.705.705,0,0,1,.048-.755M31.784,85.291A2.769,2.769,0,1,1,34.6,82.547a2.807,2.807,0,0,1-2.812,2.744m14.936,0a2.767,2.767,0,0,1,.063-5.532,2.767,2.767,0,1,1-.063,5.532" transform="translate(-8.202 -26.903)" fill="#c56b76"/>
        <path id="Trazado_164454" data-name="Trazado 164454" d="M28.8,89.922a.954.954,0,0,0-.241-.941c-.382-.464-.154-.561.3-.548.194.006.389,0,.582,0H48.293c.316,0,.631.009.945-.022a.871.871,0,0,0,.887-.8.915.915,0,0,0-.756-1.01,3.89,3.89,0,0,0-1.157-.078c-6.794,0-13.587-.02-20.381.02a1.835,1.835,0,0,1-1.865-1.149,34.242,34.242,0,0,1-2.335-5.718c-.43-1.394-.411-1.435,1.016-1.435H67.956c.364,0,.728.014,1.091-.022a.892.892,0,0,0,.93-.839c-.008-.03-.016-.052-.023-.08h-.121c-.087.8-.676.746-1.249.746q-22.209,0-44.419,0c-.194,0-.39.015-.583,0-.474-.043-.607.155-.484.6a31.339,31.339,0,0,0,3.045,7.525,1.088,1.088,0,0,0,1.1.606q10.7-.026,21.409-.012a3.36,3.36,0,0,1,.654.016.723.723,0,0,1,.68.8.67.67,0,0,1-.728.66c-.218,0-.437,0-.655,0q-10.013,0-20.025.005c-.266,0-.565-.1-.812.113.248.617,1.2.865.812,1.739l.061.051c.053-.07.106-.138.16-.223" transform="translate(-8.024 -26.904)" fill="#c56b76"/>
        <path id="Trazado_164455" data-name="Trazado 164455" d="M89.2,77.325A46.077,46.077,0,0,1,85.815,85.6a1.546,1.546,0,0,1-1.6.953c-2.717-.037-5.436-.03-8.154-.006-.849.008-1.363.419-1.354,1.01s.419.852,1.353.855c2.306.008,4.611,0,6.916.007.309,0,.738-.146.9.113.183.3-.228.535-.386.79-.323.524-.593,1.029-.047,1.571l.022.01c.035-.023.064-.05.1-.072a.875.875,0,0,1-.005-1.241,4.845,4.845,0,0,0,.835-1.353H82.329c-2.2,0-4.41-.006-6.615,0-.494,0-.828-.209-.834-.7s.324-.735.8-.774c.192-.016.387-.007.582-.007,2.811,0,5.622-.016,8.432.013a1,1,0,0,0,1.063-.645c.456-.962.992-1.887,1.432-2.855a31.124,31.124,0,0,0,2.183-5.979h-.16c0,.011-.007.022-.01.033" transform="translate(-26.003 -26.902)" fill="#c56b76"/>
        <path id="Trazado_164456" data-name="Trazado 164456" d="M67.222,97.338c-.84-.716-1.232-.733-2.1-.025-.488.4-.966.812-1.467,1.2a3.547,3.547,0,0,1-4.775-.207c-.413-.376-.85-.723-1.276-1.082a1.134,1.134,0,0,0-1.75-.055c-.565.419-1.082.9-1.641,1.327a3.553,3.553,0,0,1-4.83-.218c-.394-.362-.814-.691-1.222-1.035-.717-.6-1.067-.613-1.808-.052-.561.424-1.081.9-1.64,1.328a3.541,3.541,0,0,1-4.72-.172c-.434-.39-.882-.76-1.331-1.13a1.139,1.139,0,0,0-1.752-.042c-.612.46-1.175.984-1.8,1.431a.242.242,0,0,1,.012.168A10.064,10.064,0,0,0,37.006,97.3a1.012,1.012,0,0,1,1.53.04q.731.653,1.49,1.277a3.694,3.694,0,0,0,4.747.085c.613-.473,1.221-.956,1.8-1.469a.876.876,0,0,1,1.293,0c.52.436,1.034.879,1.552,1.318a3.7,3.7,0,0,0,4.86.12c.594-.459,1.183-.927,1.743-1.426a.91.91,0,0,1,1.355.02c.517.439,1.028.885,1.549,1.32a3.7,3.7,0,0,0,4.8.1c.5-.384.973-.8,1.458-1.2.877-.729,1.063-.722,1.918.005.535.454,1.089.886,1.636,1.328.027-.057.061-.11.09-.165-.561-.407-1.084-.863-1.611-1.312" transform="translate(-12.221 -33.684)" fill="#c56b76"/>
        <path id="Trazado_164457" data-name="Trazado 164457" d="M86.835,99.134l.025.02c.012.008.025.014.038.022a4.059,4.059,0,0,0,.827-.991l-.04-.019a2.63,2.63,0,0,0-.849.968" transform="translate(-30.224 -34.168)" fill="#c56b76"/>
        <path id="Trazado_164458" data-name="Trazado 164458" d="M88.179,98.147l.059-.091c-.037.021-.066.049-.1.072l.041.019" transform="translate(-30.677 -34.13)" fill="#c56b76"/>
        <path id="Trazado_164459" data-name="Trazado 164459" d="M86.787,99.651c-.03.055-.063.108-.091.164.056-.037.1-.082.153-.123-.012-.008-.025-.014-.038-.022l-.025-.02" transform="translate(-30.176 -34.685)" fill="#c56b76"/>
        <path id="Trazado_164460" data-name="Trazado 164460" d="M33.878,98.681a.5.5,0,0,0-.247-.207A11.909,11.909,0,0,1,31.6,97c-.011.014-.022.031-.033.045a1.136,1.136,0,0,0,.534.615c.55.374,1.108.735,1.663,1.1.011-.007.023-.012.035-.02.029-.02.053-.043.081-.063" transform="translate(-10.987 -33.764)" fill="#c56b76"/>
        <path id="Trazado_164461" data-name="Trazado 164461" d="M31.582,96.977l-.061-.05a.733.733,0,0,0,.029.1c.011-.014.022-.031.033-.045" transform="translate(-10.971 -33.737)" fill="#c56b76"/>
        <path id="Trazado_164462" data-name="Trazado 164462" d="M35.051,99.576c-.028.02-.053.044-.081.063-.011.008-.023.013-.035.02l.128.085a.247.247,0,0,0-.012-.169" transform="translate(-12.16 -34.659)" fill="#c56b76"/>
        <path id="Trazado_164463" data-name="Trazado 164463" d="M49.788,30.491h0a2.025,2.025,0,0,0,.121-.418,31.766,31.766,0,0,1,1.136-6.409c.146-.525-.233-.426-.5-.426-2.571-.005-5.142-.017-7.712,0a3.122,3.122,0,0,0-2.884,1.523A25.342,25.342,0,0,0,36.7,36.605a19.543,19.543,0,0,0,6.219-1.5,22.755,22.755,0,0,0,6.868-4.612" transform="translate(-12.775 -8.085)" fill="#76769a"/>
        <path id="Trazado_164464" data-name="Trazado 164464" d="M88.011,70.527c.014-.061.031-.121.044-.182a49.469,49.469,0,0,0,.969-6.028c.072-.656-.039-.8-.686-.8-3.663-.01-7.326-.05-10.987.016a5.079,5.079,0,0,0-3.884,2.152c-1.284,1.583-2.428,3.272-3.714,4.852l-.006.008a1.191,1.191,0,0,0,.474.029q2.5,0,5-.006a8.971,8.971,0,0,1,.22-2.632,4.133,4.133,0,0,1,4.324-2.921,4.213,4.213,0,0,1,3.713,3.853c.037.565.016,1.132.014,1.7q2.016,0,4.032.012a1.8,1.8,0,0,0,.483-.047" transform="translate(-24.276 -22.099)" fill="#c56b76"/>
        <path id="Trazado_164465" data-name="Trazado 164465" d="M86.408,69.665a4.214,4.214,0,0,0-3.713-3.853,4.133,4.133,0,0,0-4.324,2.921,8.928,8.928,0,0,0-.22,2.632h.181c.012-.507.018-1.014.036-1.522a3.917,3.917,0,0,1,7.741-.79,20.825,20.825,0,0,1,.137,2.309h.177c0-.566.022-1.133-.014-1.7" transform="translate(-27.201 -22.899)" fill="#c56b76"/>
        <path id="Trazado_164466" data-name="Trazado 164466" d="M69.68,70.414c1.286-1.58,2.43-3.269,3.714-4.852a5.08,5.08,0,0,1,3.884-2.152c3.661-.066,7.325-.027,10.987-.016.647,0,.758.149.686.8a49.6,49.6,0,0,1-.969,6.028c-.013.061-.03.121-.044.182a.81.81,0,0,0,.217-.09,45.475,45.475,0,0,0,1.033-6.441c.051-.5-.047-.731-.641-.726-3.614.029-7.229.016-10.844.017a5.382,5.382,0,0,0-4.4,2.17c-1.289,1.636-2.513,3.323-3.764,4.988a.394.394,0,0,0,.136.1l.007-.008" transform="translate(-24.203 -21.98)" fill="#c56b76"/>
        <path id="Trazado_164467" data-name="Trazado 164467" d="M49.855,42.105c-.206-1.518-.082-3.04-.168-4.557-.058-1.037.037-2.119.064-3.18a5.207,5.207,0,0,1-1.778,1.779,20.709,20.709,0,0,1-10.56,4.488.782.782,0,0,1-.748-.153,29.139,29.139,0,0,0,.173,5.839c4.118-5.031,8.588-4.689,13.359-1.009-.131-1.159-.2-2.192-.342-3.207" transform="translate(-12.737 -11.962)" fill="#505072"/>
        <path id="Trazado_164468" data-name="Trazado 164468" d="M37.45,40.634a20.708,20.708,0,0,0,10.56-4.487,5.207,5.207,0,0,0,1.778-1.78,22.755,22.755,0,0,1-6.868,4.612,19.543,19.543,0,0,1-6.219,1.5.784.784,0,0,0,.748.153" transform="translate(-12.775 -11.962)" fill="#505072"/>
        <path id="Trazado_164469" data-name="Trazado 164469" d="M77.286,29.8c1.252,2.058,1.654,2.194,3.858,1.179a14.267,14.267,0,0,0,2.714-1.668,1.586,1.586,0,0,0,.779-1.385.5.5,0,0,1,.1-.413v-.023A10.328,10.328,0,0,1,85.8,22.842c-1.765.016-3.7.016-5.635,0a2.3,2.3,0,0,0-2.007,1.22,13.4,13.4,0,0,0-1.547,3.272,1.562,1.562,0,0,1-.432.8A6.251,6.251,0,0,1,77.286,29.8" transform="translate(-26.513 -7.95)" fill="#76769a"/>
        <path id="Trazado_164470" data-name="Trazado 164470" d="M76.549,27.23A13.369,13.369,0,0,1,78.1,23.958a2.3,2.3,0,0,1,2.007-1.22c1.935.013,3.87.014,5.635,0a10.328,10.328,0,0,0-1.055,4.653v.023a.317.317,0,0,1,.192-.074,11.519,11.519,0,0,1,1.14-4.8c-2.163,0-4.245-.013-6.326.01a1.69,1.69,0,0,0-1.257.64A11.488,11.488,0,0,0,76.62,26.4a5.535,5.535,0,0,1-.613,1.532c.042.031.071.072.109.1a1.568,1.568,0,0,0,.433-.8" transform="translate(-26.455 -7.844)" fill="#76769a"/>
        <path id="Trazado_164471" data-name="Trazado 164471" d="M84.619,30.427a1.587,1.587,0,0,1-.779,1.385,14.306,14.306,0,0,1-2.715,1.668c-2.2,1.014-2.6.878-3.858-1.179a6.253,6.253,0,0,0-1.112-1.666s-.007.009-.012.012l-.023.013c.528.916,1.039,1.843,1.6,2.739a1.852,1.852,0,0,0,2.2.765,11.69,11.69,0,0,0,2.73-1.3,4.827,4.827,0,0,0,2.07-1.857q-.008-.5,0-.995a.5.5,0,0,0-.1.414" transform="translate(-26.495 -10.446)" fill="#76769a"/>
        <path id="Trazado_164472" data-name="Trazado 164472" d="M89.313,29.974c0,.332,0,.664,0,.995a2.369,2.369,0,0,0,.19-1.069.319.319,0,0,0-.193.074" transform="translate(-31.086 -10.407)" fill="#76769a"/>
        <path id="Trazado_164473" data-name="Trazado 164473" d="M76.1,30.924l.012-.012c-.039-.033-.067-.074-.11-.1l.074.13c.008,0,.016-.007.023-.012" transform="translate(-26.455 -10.723)" fill="#76769a"/>
        <path id="Trazado_164474" data-name="Trazado 164474" d="M73.277,42.235a.769.769,0,0,0-.11.052c.123.535-.2.9-.482,1.287a3.415,3.415,0,0,0,1.842-.349c.487-.232.78-.228,1.006.3a9.889,9.889,0,0,0,.523.943q.783,1.209,1.568,2.417c.149.229.123.377-.143.5a2.827,2.827,0,0,1-1.43.426,2.132,2.132,0,0,1-2.8-1.247q-.5-1.084-1-2.169c-.28.34-.5.749-.98.859a9.134,9.134,0,0,0,.816,1.923,1.584,1.584,0,0,1-.561,2.237,2.87,2.87,0,0,1-1.176.519.533.533,0,0,1-.748-.431c-.2-.7-.462-1.376-.7-2.061a1.705,1.705,0,0,1-1.133.455,23.2,23.2,0,0,1,1.275,3.432c.465,1.524.979,3.032,1.424,4.562a4.181,4.181,0,0,1,.2.888c.306-.351.594-.718.881-1.085.014-.018.03-.033.044-.051-.409-1.278-.81-2.559-1.235-3.831-.113-.339-.109-.529.3-.6a3.438,3.438,0,0,0,2.152-1.238c.359-.437.468-.175.621.15.512,1.093,1.035,2.181,1.554,3.271.047-.017.093-.036.14-.052a8.625,8.625,0,0,1,1.136-.189l-.229-.694a34.079,34.079,0,0,1-1.6-3.347,5.909,5.909,0,0,0,1.614.156,5.983,5.983,0,0,0,2.163-.763c.309-.209.424,0,.559.216.3.47.6.943.982,1.552l.02.008q.01-1,0-1.993a3.609,3.609,0,0,0-.643-1.6c-1.012-1.4-1.846-2.936-2.749-4.418a.536.536,0,0,1-.329-.194,17.225,17.225,0,0,1-1.817-3,6.722,6.722,0,0,1-.286,1.674.459.459,0,0,1-.088.044v.021c.6,1.034.6,1.034-.584,1.406" transform="translate(-23.589 -13.606)" fill="#e7a17c"/>
        <path id="Trazado_164475" data-name="Trazado 164475" d="M78.986,60.861c-.048.016-.093.035-.14.052l.059.125h0l1.269-.209-.052-.158a8.7,8.7,0,0,0-1.136.189" transform="translate(-27.443 -21.118)" fill="#e7a17c"/>
        <path id="Trazado_164476" data-name="Trazado 164476" d="M73.1,64.536c-.287.368-.575.734-.881,1.085a1.61,1.61,0,0,1,0,.244A6.482,6.482,0,0,0,73.2,64.64c-.016-.052-.033-.1-.05-.155-.014.018-.03.033-.044.051" transform="translate(-25.138 -22.445)" fill="#e7a17c"/>
        <path id="Trazado_164477" data-name="Trazado 164477" d="M86.182,53.21q.008,1,0,1.993l.05.02a10.313,10.313,0,0,0-.05-2.013" transform="translate(-29.996 -18.52)" fill="#e7a17c"/>
        <path id="Trazado_164478" data-name="Trazado 164478" d="M77.488,39.005c-.022-.055-.052-.1-.074-.16a5.727,5.727,0,0,0-.3,1.878.54.54,0,0,0,.088-.043,6.761,6.761,0,0,0,.286-1.674" transform="translate(-26.84 -13.52)" fill="#e7a17c"/>
        <path id="Trazado_164479" data-name="Trazado 164479" d="M74.116,47.2l-.03-.066h0c-.422.175-.553.677-.966.862,0,.022.012.041.017.063.481-.11.7-.519.98-.859" transform="translate(-25.45 -16.406)" fill="#e7a17c"/>
        <path id="Trazado_164480" data-name="Trazado 164480" d="M75.727,43.992l-.022.01-.578,1.27c.04.006.078,0,.117.007.282-.384.6-.752.482-1.287" transform="translate(-26.149 -15.312)" fill="#e7a17c"/>
        <path id="Trazado_164481" data-name="Trazado 164481" d="M68.887,51.877c-.007-.019-.014-.037-.02-.056h0l-1.149.43h0c.013.027.023.054.037.081a1.708,1.708,0,0,0,1.133-.455" transform="translate(-23.57 -18.037)" fill="#e7a17c"/>
        <path id="Trazado_164482" data-name="Trazado 164482" d="M79.5,42.064a.533.533,0,0,0,.33.194c-.025-.04-.048-.081-.073-.121l-2.07-3.113,0,.044a17.215,17.215,0,0,0,1.817,3" transform="translate(-27.04 -13.583)" fill="#e7a17c"/>
        <path id="Trazado_164483" data-name="Trazado 164483" d="M77.652,38.962l-.078-.116c.022.055.051.106.074.16l0-.044" transform="translate(-27.001 -13.521)" fill="#e7a17c"/>
        <path id="Trazado_164484" data-name="Trazado 164484" d="M69.029,56.037A23.2,23.2,0,0,0,67.755,52.6c-.012,0-.022,0-.034,0a2.716,2.716,0,0,0,.208.829q.668,2.025,1.359,4.044c.465,1.351.778,2.751,1.306,4.082l.063-.074a4.143,4.143,0,0,0-.2-.888c-.445-1.529-.959-3.038-1.424-4.562" transform="translate(-23.571 -18.31)" fill="#e7a17c"/>
        <path id="Trazado_164485" data-name="Trazado 164485" d="M72.127,66.3c.022.057.04.115.063.171a1.53,1.53,0,0,0,0-.244c-.021.025-.041.05-.063.074" transform="translate(-25.105 -23.051)" fill="#e7a17c"/>
        <path id="Trazado_164486" data-name="Trazado 164486" d="M67.753,52.562c-.013-.027-.023-.054-.037-.081,0,.028,0,.054,0,.081.012,0,.022,0,.034,0" transform="translate(-23.569 -18.267)" fill="#e7a17c"/>
        <path id="Trazado_164487" data-name="Trazado 164487" d="M52.07,68.323c0-2.958-.021-5.916.005-8.875a.985.985,0,0,0-.607-1.024c-.675-.328-1.344-.67-2.016-1.005q0,5.514.007,11.028h0a9.763,9.763,0,0,0,2.611-.125" transform="translate(-17.212 -19.985)" fill="#c56a75"/>
        <path id="Trazado_164488" data-name="Trazado 164488" d="M33,67.238a.645.645,0,0,0-.485-.786,2.886,2.886,0,0,0-.786-.089c-2.255-.007-4.511,0-6.766,0H21.834c-1.358,0-2.716-.005-4.074.007-.165,0-.5-.13-.4.28A1.612,1.612,0,0,0,18.884,67.8H31.759c.194,0,.389,0,.582-.007A.629.629,0,0,0,33,67.238" transform="translate(-6.036 -23.093)" fill="#c46a75"/>
        <path id="Trazado_164489" data-name="Trazado 164489" d="M81.282,73.513c.628-.03,1.258-.007,1.887-.008q.98,0,1.96,0c.248,0,.515.01.5-.35a12.123,12.123,0,0,0-.141-2.959,2.316,2.316,0,0,0-2.7-1.655,2.237,2.237,0,0,0-1.968,1.992,20.3,20.3,0,0,0-.112,2.385c-.023.432.117.617.572.6" transform="translate(-28.091 -23.853)" fill="#983c4e"/>
        <path id="Trazado_164490" data-name="Trazado 164490" d="M52.108,56.446c-.009,3.052.016,6.105-.014,9.158h.067q0-6.545.011-13.089c0-2.079-.044-2.14-2.029-2.774a1.19,1.19,0,0,1-.14-.036c-.447-.216-.6-.07-.594.414.024,1.527.021,3.054.027,4.581h0a4.653,4.653,0,0,1,2.509,1.14c.195.136.163.388.162.606" transform="translate(-17.197 -17.267)" fill="#983c4e"/>
        <path id="Trazado_164491" data-name="Trazado 164491" d="M52.075,59.449c-.026,2.958-.008,5.916-.005,8.875h.04c.03-3.053,0-6.105.013-9.158,0-.218.033-.471-.162-.606a4.653,4.653,0,0,0-2.509-1.14c.671.336,1.34.678,2.016,1.006a.984.984,0,0,1,.607,1.024" transform="translate(-17.212 -19.985)" fill="#983c4e"/>
        <path id="Trazado_164492" data-name="Trazado 164492" d="M83.018,54.919c-.161-.4-.639-.312-.944-.126a2.65,2.65,0,0,1-1.518.327c-.022.011-.044.021-.066.033q-.017,1.216-.033,2.432c.04.083.079.168.12.251.059.243.3.454.237.718l.018,0a14.265,14.265,0,0,1,2.445-.16c.818,0,.888-.085.906-.92.01-.505-.014-1.011.005-1.516V55.94a1.525,1.525,0,0,1-1.17-1.021" transform="translate(-28.004 -19.016)" fill="#983c4e"/>
        <path id="Trazado_164493" data-name="Trazado 164493" d="M84.336,56.655c-.02.506,0,1.011-.006,1.516-.017.836-.087.923-.9.921a14.266,14.266,0,0,0-2.445.16l-.018,0a.46.46,0,0,1-.079.173c1.029-.033,2.058-.077,3.086-.092.4-.006.568-.176.562-.564-.011-.7-.013-1.393-.02-2.089-.065-.008-.116-.03-.176-.042Z" transform="translate(-28.152 -19.714)" fill="#983c4e"/>
        <path id="Trazado_164494" data-name="Trazado 164494" d="M80.575,59.412c-.041-.083-.08-.168-.12-.251l0,.291q.114.347.23.694c.044,0,.087-.014.131-.015.061-.265-.179-.476-.237-.719" transform="translate(-28.002 -20.592)" fill="#983c4e"/>
        <path id="Trazado_164495" data-name="Trazado 164495" d="M80.8,60.664l.052.158a.46.46,0,0,0,.079-.173c-.044,0-.087.012-.131.015" transform="translate(-28.124 -21.11)" fill="#983c4e"/>
        <path id="Trazado_164496" data-name="Trazado 164496" d="M81.133,43.988c-.013,0-.025-.008-.038-.01a7.485,7.485,0,0,1,.988,1.437c.645.968,1.177,2.014,1.876,2.94a2.716,2.716,0,0,1,.447.894c-.011-1.19-.023-2.38,0-3.57.011-.617-.141-.96-.839-.939a1.059,1.059,0,0,1-1.137-.829V43.9a2.607,2.607,0,0,1-1.3.087" transform="translate(-28.226 -15.28)" fill="#983c4e"/>
        <path id="Trazado_164497" data-name="Trazado 164497" d="M83.306,54.414c-.285-.449-.553-.6-1.057-.315a4.92,4.92,0,0,1-1.733.514h-.033l.016.268h.065a7.031,7.031,0,0,1,2.059-.591.477.477,0,0,1,.494.242,2.974,2.974,0,0,0,1.08,1.085c0-.045,0-.089,0-.134l-.02-.031c-.516-.231-.649-.688-.872-1.04" transform="translate(-28.013 -18.779)" fill="#983c4e"/>
        <path id="Trazado_164498" data-name="Trazado 164498" d="M83.142,43.855v.01a1.059,1.059,0,0,0,1.137.828c.7-.021.85.323.839.939-.022,1.19-.01,2.38,0,3.57a13.887,13.887,0,0,1,.152,2.773c-.036-.01-.064-.025-.1-.038,0,.026,0,.052,0,.078l-.048-.075c0,.044,0,.089,0,.134l.176.126c.007-2.337-.007-4.674.033-7.011.01-.6-.2-.76-.749-.711-.574.052-1.134.022-1.3-.707h0a1.069,1.069,0,0,1-.143.083" transform="translate(-28.938 -15.235)" fill="#983c4e"/>
        <path id="Trazado_164499" data-name="Trazado 164499" d="M81.054,43.945a2.607,2.607,0,0,0,1.3-.087c0-.029.008-.054.012-.082l-1.495.016h0a1.7,1.7,0,0,1,.148.143c.013,0,.025.008.038.01" transform="translate(-28.147 -15.236)" fill="#983c4e"/>
        <path id="Trazado_164500" data-name="Trazado 164500" d="M83.143,43.855a1.069,1.069,0,0,0,.143-.083h-.131c0,.028-.009.053-.012.082" transform="translate(-28.939 -15.235)" fill="#983c4e"/>
        <path id="Trazado_164501" data-name="Trazado 164501" d="M80.511,54.424a4.919,4.919,0,0,0,1.733-.514c.5-.288.772-.134,1.057.314.223.352.357.809.872,1.04-.385-.609-.686-1.082-.982-1.552-.134-.214-.25-.426-.559-.216a5.978,5.978,0,0,1-2.163.763l.01.166h.033" transform="translate(-28.008 -18.59)" fill="#983c4e"/>
        <path id="Trazado_164502" data-name="Trazado 164502" d="M82.042,45.444a7.536,7.536,0,0,0-.987-1.438c-.026-.005-.05-.014-.076-.022.9,1.483,1.737,3.015,2.749,4.418a3.6,3.6,0,0,1,.643,1.6l-.006-.722a2.7,2.7,0,0,0-.447-.894c-.7-.926-1.231-1.971-1.876-2.94" transform="translate(-28.186 -15.309)" fill="#983c4e"/>
        <path id="Trazado_164503" data-name="Trazado 164503" d="M86.228,54.838c.033.012.061.027.1.038a13.931,13.931,0,0,0-.153-2.773c0,.241,0,.48.006.721a10.315,10.315,0,0,1,.05,2.013" transform="translate(-29.994 -18.135)" fill="#983c4e"/>
        <path id="Trazado_164504" data-name="Trazado 164504" d="M81.016,43.942a1.806,1.806,0,0,0-.148-.143l.073.121c.025.007.049.016.075.022" transform="translate(-28.147 -15.245)" fill="#983c4e"/>
        <path id="Trazado_164505" data-name="Trazado 164505" d="M83.16,54.712a.477.477,0,0,0-.494-.242,7.056,7.056,0,0,0-2.059.59,2.646,2.646,0,0,0,1.519-.327c.305-.185.783-.275.944.127a1.525,1.525,0,0,0,1.17,1.021c0-.028,0-.056,0-.083a2.974,2.974,0,0,1-1.08-1.085" transform="translate(-28.056 -18.957)" fill="#983c4e"/>
        <path id="Trazado_164506" data-name="Trazado 164506" d="M86.179,56.593c.06.012.111.035.176.042l-.176-.126c0,.028,0,.055,0,.083" transform="translate(-29.996 -19.669)" fill="#983c4e"/>
        <path id="Trazado_164507" data-name="Trazado 164507" d="M84.943,13.374q.012-4.029.023-8.058c0-.328.093-.7-.468-.681-.49.012-.695.192-.692.693.018,2.686.019,5.372.025,8.058Z" transform="translate(-29.17 -1.613)" fill="#c46a75"/>
        <path id="Trazado_164508" data-name="Trazado 164508" d="M69.912,74.608c-.189-.005-.428.015-.548-.161a2.415,2.415,0,0,0-.523.834,3.026,3.026,0,0,0,1.078.071c1.354.008,2.709.007,4.063,0,.864,0,.9-.016.925-.842a1.049,1.049,0,0,1-.481.1c-1.5.017-3.009.03-4.513-.01" transform="translate(-23.961 -25.912)" fill="#983c4e"/>
        <path id="Trazado_164509" data-name="Trazado 164509" d="M73.661,75.254c-1.354,0-2.709.006-4.063,0a3.026,3.026,0,0,1-1.078-.072,2.415,2.415,0,0,1,.523-.834.424.424,0,0,1-.07-.189l-1.053,1.308h5.836c1.067,0,1.067,0,1.032-1.045,0-.048-.012-.1-.018-.143a.693.693,0,0,1-.185.136c-.026.827-.061.839-.925.842" transform="translate(-23.641 -25.811)" fill="#983c4e"/>
        <path id="Trazado_164510" data-name="Trazado 164510" d="M69.71,74.306c-.02.032-.045.061-.067.092.121.176.36.156.548.161,1.5.04,3.009.027,4.513.01a1.049,1.049,0,0,0,.481-.1c0-.036,0-.064,0-.1,0-.01,0-.022,0-.033q-2.5,0-5.006.006a1.192,1.192,0,0,1-.474-.029" transform="translate(-24.24 -25.863)" fill="#983c4e"/>
        <path id="Trazado_164511" data-name="Trazado 164511" d="M69.673,74.254a.385.385,0,0,1-.137-.1.431.431,0,0,0,.07.189c.022-.031.047-.06.067-.092" transform="translate(-24.203 -25.811)" fill="#983c4e"/>
        <path id="Trazado_164512" data-name="Trazado 164512" d="M78.149,74.373c0,.039,0,.067,0,.1a.675.675,0,0,0,.185-.136h-.181v.033" transform="translate(-27.199 -25.875)" fill="#983c4e"/>
        <path id="Trazado_164513" data-name="Trazado 164513" d="M94.845,76.266q.27-.853.469-1.726a.894.894,0,0,1-.4.1c-1.221.035-2.442.03-3.663,0a.893.893,0,0,1-.4-.1c.043.814.08.827.961.84,1.241.019,1.507.145,1.727.9a1.293,1.293,0,0,1,1.312-.021" transform="translate(-31.62 -25.945)" fill="#983c4e"/>
        <path id="Trazado_164514" data-name="Trazado 164514" d="M97.451,74.4q-.2.872-.469,1.726a1.53,1.53,0,0,1,.14.068h0a10.021,10.021,0,0,0,.586-2.052.616.616,0,0,1-.258.258" transform="translate(-33.756 -25.807)" fill="#983c4e"/>
        <path id="Trazado_164515" data-name="Trazado 164515" d="M91.7,75.313c-.881-.014-.918-.026-.962-.84a.664.664,0,0,1-.181-.137c-.073,1.19-.073,1.19,1.132,1.191.191,0,.383.012.573,0a.914.914,0,0,1,1.059.741c.035-.022.07-.031.106-.051-.22-.758-.486-.884-1.727-.9" transform="translate(-31.509 -25.874)" fill="#983c4e"/>
        <path id="Trazado_164516" data-name="Trazado 164516" d="M96.28,77.1a1.293,1.293,0,0,0-1.312.021c.005.017.01.033.015.051l1.277,0c.007-.023.013-.046.02-.068" transform="translate(-33.055 -26.776)" fill="#983c4e"/>
        <path id="Trazado_164517" data-name="Trazado 164517" d="M96.951,77.256h.159a1.441,1.441,0,0,0-.14-.068c-.007.023-.013.046-.02.068" transform="translate(-33.745 -26.866)" fill="#983c4e"/>
        <path id="Trazado_164518" data-name="Trazado 164518" d="M94.913,77.219c-.035.02-.07.029-.106.051h.121l-.015-.051" transform="translate(-32.999 -26.877)" fill="#983c4e"/>
        <path id="Trazado_164519" data-name="Trazado 164519" d="M94.907,74.549a.9.9,0,0,0,.4-.1c.012-.056.027-.111.04-.167a1.771,1.771,0,0,1-.482.046q-2.016-.009-4.032-.012c0,.014,0,.029,0,.044,0,.035,0,.059.005.092a.9.9,0,0,0,.4.1c1.221.027,2.442.032,3.663,0" transform="translate(-31.617 -25.855)" fill="#983c4e"/>
        <path id="Trazado_164520" data-name="Trazado 164520" d="M90.743,74.381c0-.015,0-.029,0-.044h-.177a.642.642,0,0,0,.181.137c0-.032,0-.057-.005-.092" transform="translate(-31.523 -25.874)" fill="#983c4e"/>
        <path id="Trazado_164521" data-name="Trazado 164521" d="M97.7,74.4a.616.616,0,0,0,.258-.258.813.813,0,0,1-.217.091c-.012.055-.027.111-.04.167" transform="translate(-34.006 -25.807)" fill="#983c4e"/>
        <path id="Trazado_164522" data-name="Trazado 164522" d="M37.315,71.59c.02-.52-.085-.8-.7-.8-.651-.01-.619.354-.605.785.01.314,0,.628,0,.943,0,.411.025.824-.007,1.232-.037.479.2.571.609.552.372-.017.735.048.707-.532-.035-.724-.029-1.451,0-2.176" transform="translate(-12.529 -24.638)" fill="#963c4e"/>
        <path id="Trazado_164523" data-name="Trazado 164523" d="M66.239,28.4a1,1,0,0,0,1.239.717c.45-.068.6-.231.344-.676a10.337,10.337,0,0,1-.9-1.527c-.047.023-.095.046-.14.07a3.062,3.062,0,0,1-1.155.2,3.212,3.212,0,0,1,.608,1.22" transform="translate(-22.844 -9.367)" fill="#fefefd"/>
        <path id="Trazado_164524" data-name="Trazado 164524" d="M65.515,27.126a3.062,3.062,0,0,0,1.155-.2c.046-.025.093-.048.14-.07-.012-.034-.031-.065-.042-.1l-1.47.169a1.291,1.291,0,0,1,.218.2" transform="translate(-22.727 -9.314)" fill="#fefefd"/>
        <path id="Trazado_164525" data-name="Trazado 164525" d="M67.754,28.43c.258.445.106.608-.344.677a1,1,0,0,1-1.239-.718,3.2,3.2,0,0,0-.608-1.22l-.127,0c.261.571.516,1.145.791,1.709a1.433,1.433,0,0,0,1.9.141.24.24,0,0,0,.01-.326,13.919,13.919,0,0,0-1.241-1.81l-.034.017a10.337,10.337,0,0,0,.9,1.527" transform="translate(-22.776 -9.358)" fill="#fefefd"/>
        <path id="Trazado_164526" data-name="Trazado 164526" d="M67.628,26.842c-.028-.026-.048-.057-.076-.082.01.035.029.065.042.1l.034-.017" transform="translate(-23.512 -9.314)" fill="#fefefd"/>
        <path id="Trazado_164527" data-name="Trazado 164527" d="M65.515,27.216a1.291,1.291,0,0,0-.218-.2l.091.2.127,0" transform="translate(-22.727 -9.405)" fill="#fefefd"/>
        <path id="Trazado_164528" data-name="Trazado 164528" d="M27.8,72.533c0-.412-.02-.825,0-1.235.027-.473-.263-.482-.607-.488-.363-.007-.606.048-.591.5.025.775.02,1.551,0,2.326-.01.417.035.675.57.677s.666-.221.628-.694c-.028-.361-.006-.727-.006-1.09" transform="translate(-9.261 -24.646)" fill="#983c4e"/>
        <path id="Trazado_164529" data-name="Trazado 164529" d="M61.562,24.131c.435.016.872.005,1.308,0H64.4c.259,0,.508-.05.55-.352a.418.418,0,0,0-.434-.481c-1.016-.035-2.033-.047-3.049-.03-.354.006-.364.37-.383.609-.026.35.29.244.481.251" transform="translate(-21.259 -8.097)" fill="#c16974"/>
        <path id="Trazado_164530" data-name="Trazado 164530" d="M52.166,74.144c-.022.042-.044.048-.066.038v0a2.726,2.726,0,0,1-2.651.081c-.072,1.192-.072,1.192,1.085,1.192.121,0,.241,0,.362,0C52.3,75.419,52.188,75.759,52.166,74.144Z" transform="translate(-17.202 -25.807)" fill="#983c4e"/>
        <path id="Trazado_164531" data-name="Trazado 164531" d="M52.113,74.188v0a.075.075,0,0,1-.04-.038,9.763,9.763,0,0,1-2.611.124,2.728,2.728,0,0,0,2.651-.081" transform="translate(-17.216 -25.807)" fill="#983c4e"/>
        <path id="Trazado_164532" data-name="Trazado 164532" d="M53.529,74.182c.022.01.044,0,.066-.038h-.066v.038" transform="translate(-18.631 -25.807)" fill="#983c4e"/>
        <path id="Trazado_164533" data-name="Trazado 164533" d="M53.467,74.145a.077.077,0,0,0,.04.038v-.038h-.04" transform="translate(-18.61 -25.807)" fill="#983c4e"/>
        <path id="Trazado_164534" data-name="Trazado 164534" d="M84.943,18.04a.818.818,0,0,1-1.112.012c-.005.288,0,.576-.02.862-.036.417.1.6.555.6s.668-.14.613-.616C84.947,18.616,84.954,18.327,84.943,18.04Z" transform="translate(-29.169 -6.279)" fill="#953b4e"/>
        <path id="Trazado_164535" data-name="Trazado 164535" d="M84.957,18.04l-1.112.012a.818.818,0,0,0,1.112-.012" transform="translate(-29.183 -6.279)" fill="#953b4e"/>
        <path id="Trazado_164536" data-name="Trazado 164536" d="M56.47,2.746c-1.6-.008-3.2.025-4.8-.013a2.341,2.341,0,0,0-2.088,1.08,12.849,12.849,0,0,0-2.156,5.574,15.915,15.915,0,0,0-.151,2.664,3.857,3.857,0,0,1,1.289-.22,10.891,10.891,0,0,0,6.989-3.113c.192-.183.357-.425.63-.487A14.23,14.23,0,0,1,57,3.493c.228-.7.2-.744-.528-.748" transform="translate(-16.456 -0.951)" fill="#76769a"/>
        <path id="Trazado_164537" data-name="Trazado 164537" d="M47.174,11.926a15.847,15.847,0,0,1,.151-2.664A12.842,12.842,0,0,1,49.48,3.689a2.341,2.341,0,0,1,2.088-1.08c1.6.038,3.2.005,4.8.013.731,0,.757.046.528.748a14.23,14.23,0,0,0-.811,4.736.558.558,0,0,1,.194-.022A13.59,13.59,0,0,1,57.27,3c.2-.508.116-.619-.407-.613-1.769.021-3.539.045-5.307-.006a2.489,2.489,0,0,0-2.294,1.241A13.564,13.564,0,0,0,46.992,12h0a1.633,1.633,0,0,1,.181-.078" transform="translate(-16.351 -0.827)" fill="#76769a"/>
        <path id="Trazado_164538" data-name="Trazado 164538" d="M56.187,11.165c-.273.063-.437.3-.63.487a10.888,10.888,0,0,1-6.989,3.113,3.876,3.876,0,0,0-1.289.22v.07a14.268,14.268,0,0,0,4.481-.77,12.745,12.745,0,0,0,4.424-2.952l0-.13c0-.013,0-.026,0-.039" transform="translate(-16.456 -3.886)" fill="#76769a"/>
        <path id="Trazado_164539" data-name="Trazado 164539" d="M60.941,11.152c0,.013,0,.026,0,.039l0,.13c.065-.064.132-.126.2-.19a.558.558,0,0,0-.194.022" transform="translate(-21.21 -3.874)" fill="#76769a"/>
        <path id="Trazado_164540" data-name="Trazado 164540" d="M47,17.1h0l.182-.008c0-.023,0-.047,0-.07A1.766,1.766,0,0,0,47,17.1" transform="translate(-16.359 -5.926)" fill="#76769a"/>
        <path id="Trazado_164541" data-name="Trazado 164541" d="M65.9,3.256a2.574,2.574,0,0,0,.432,0c0,.009,0,.018,0,.027.357-.032.718-.04,1.069-.1a.4.4,0,0,0-.076-.795c-.48-.008-.961-.015-1.441,0a.58.58,0,0,0-.55.642c-.005.371.357.192.564.228" transform="translate(-22.741 -0.828)" fill="#bd6873"/>
        <path id="Trazado_164542" data-name="Trazado 164542" d="M34.764,81.068a2.769,2.769,0,1,0,2.765,2.793,2.8,2.8,0,0,0-2.765-2.793" transform="translate(-11.135 -28.217)"/>
        <path id="Trazado_164543" data-name="Trazado 164543" d="M57.713,81.072a2.767,2.767,0,0,0-.064,5.532,2.767,2.767,0,1,0,.064-5.532m.031,4.059a1.3,1.3,0,1,1,1.185-1.3,1.327,1.327,0,0,1-1.185,1.3" transform="translate(-19.132 -28.218)"/>
        <path id="Trazado_164544" data-name="Trazado 164544" d="M80.638,86.6a2.767,2.767,0,0,0-.057-5.532,2.766,2.766,0,1,0,.057,5.532m-.085-4.06a1.293,1.293,0,1,1,.026,2.586,1.3,1.3,0,0,1-.026-2.586" transform="translate(-27.084 -28.218)"/>
        <path id="Trazado_164545" data-name="Trazado 164545" d="M69.4,93.273a3.229,3.229,0,0,0,.6-.038.7.7,0,0,0,.428-1.038,1.463,1.463,0,0,0-2.052-.053.707.707,0,0,0-.048.756c.232.452.645.345,1.077.374" transform="translate(-23.749 -31.934)"/>
        <path id="Trazado_164546" data-name="Trazado 164546" d="M80.546,50.758c1.549-.263,1.581-.4.692-1.76-.216-.331-.417-.671-.628-1a5.176,5.176,0,0,1-.064,2.764" transform="translate(-28.035 -16.705)" fill="#993c4e"/>
        <path id="Trazado_164547" data-name="Trazado 164547" d="M81.213,48.772c.889,1.356.855,1.5-.693,1.76-.017.052-.03.1-.049.157a2.84,2.84,0,0,0,1.43-.426c.266-.126.292-.274.143-.5q-.786-1.207-1.568-2.417.06.212.107.425c.213.332.413.673.63,1" transform="translate(-28.009 -16.478)" fill="#993c4e"/>
        <path id="Trazado_164548" data-name="Trazado 164548" d="M80.583,47.907c-.035-.055-.071-.11-.108-.164q0,1.468,0,2.936l.048-.008a5.163,5.163,0,0,0,.064-2.764" transform="translate(-28.009 -16.618)" fill="#993c4e"/>
        <path id="Trazado_164549" data-name="Trazado 164549" d="M80.472,52.241v.149c.019-.052.031-.1.048-.157l-.048.008" transform="translate(-28.009 -18.18)" fill="#993c4e"/>
        <path id="Trazado_164550" data-name="Trazado 164550" d="M80.586,47.767c-.032-.141-.068-.284-.108-.425V47.6c.037.054.072.109.108.164" transform="translate(-28.011 -16.478)" fill="#993c4e"/>
        <path id="Trazado_164551" data-name="Trazado 164551" d="M79.683,54.936a4.864,4.864,0,0,1-1.255-.071c.433.844.79,1.672,1.17,2.481a5.493,5.493,0,0,1,.04-2.039c.047-.029.1-.047.145-.074V55.2a.271.271,0,0,1-.1-.264" transform="translate(-27.298 -19.096)" fill="#fefdfd"/>
        <path id="Trazado_164552" data-name="Trazado 164552" d="M78.277,54.729a4.865,4.865,0,0,0,1.255.071.42.42,0,0,1,.076-.17,5.909,5.909,0,0,1-1.614-.156,34.079,34.079,0,0,0,1.6,3.347,4.674,4.674,0,0,1-.149-.61c-.379-.809-.737-1.638-1.17-2.481" transform="translate(-27.147 -18.96)" fill="#fefdfd"/>
        <path id="Trazado_164553" data-name="Trazado 164553" d="M80.182,57.543c.05.107.1.213.152.319q.018-1.216.033-2.432c-.048.027-.1.044-.145.074a5.466,5.466,0,0,0-.04,2.039" transform="translate(-27.881 -19.293)" fill="#fefdfd"/>
        <path id="Trazado_164554" data-name="Trazado 164554" d="M80.376,58.99q-.077-.159-.153-.319a4.671,4.671,0,0,0,.149.61l0-.291" transform="translate(-27.923 -20.421)" fill="#fefdfd"/>
        <path id="Trazado_164555" data-name="Trazado 164555" d="M80.451,55.236l-.015-.268-.085,0a.271.271,0,0,0,.1.264" transform="translate(-27.965 -19.132)" fill="#fefdfd"/>
        <path id="Trazado_164556" data-name="Trazado 164556" d="M80.438,54.879l-.01-.166a.416.416,0,0,0-.076.17l.085,0" transform="translate(-27.968 -19.043)" fill="#fefdfd"/>
        <path id="Trazado_164557" data-name="Trazado 164557" d="M58.52,83.332a1.292,1.292,0,0,0,.014,2.585,1.3,1.3,0,0,0-.014-2.585" transform="translate(-19.923 -29.005)" fill="#983c4e"/>
        <path id="Trazado_164558" data-name="Trazado 164558" d="M81.42,85.916a1.293,1.293,0,1,0-.027-2.586,1.3,1.3,0,0,0,.027,2.586" transform="translate(-27.924 -29.004)" fill="#983c4e"/>
      </g>
    </g>
  </g>
</svg>
