<svg xmlns="http://www.w3.org/2000/svg" xmlns:xlink="http://www.w3.org/1999/xlink" width="105" height="105" viewBox="0 0 105 105">
  <defs>
    <clipPath id="clip-path">
      <rect id="Rectángulo_42909" data-name="Rectángulo 42909" width="74.842" height="56.405" fill="none"/>
    </clipPath>
  </defs>
  <g id="Grupo_170130" data-name="Grupo 170130" transform="translate(-5562 8847)">
    <path id="Trazado_164416" data-name="Trazado 164416" d="M52.5,0A52.5,52.5,0,1,1,0,52.5,52.5,52.5,0,0,1,52.5,0Z" transform="translate(5562 -8847)" fill="#e1e8ff"/>
    <g id="Grupo_170129" data-name="Grupo 170129" transform="translate(5577 -8823)">
      <g id="Grupo_170128" data-name="Grupo 170128" transform="translate(0 0)" clip-path="url(#clip-path)">
        <path id="Trazado_164980" data-name="Trazado 164980" d="M.118,19.12A3.416,3.416,0,0,1,3.65,16.035a3.379,3.379,0,0,1,3.359,3.271c.051,2.823.04,5.649.007,8.472A3.29,3.29,0,0,1,5.2,30.666a1.26,1.26,0,0,0-.456,1.351.35.35,0,0,0,.036.061,3.165,3.165,0,0,0,2.235-.192c1.853-3.459,4.9-5.6,8.233-7.394A36.348,36.348,0,0,1,27.44,20.5l.144-.02c1.522-.178,1.522-.178,1.523-1.75,0-.317-.014-.634.005-.95a3.466,3.466,0,0,1,3.592-3.45c1.406-.03,1.406-.03,1.406-1.46q0-4.529,0-9.057c0-2.554,1.263-3.816,3.8-3.817.366,0,.731,0,1.1,0a3.236,3.236,0,0,1,3.378,3.343c.023,3.409.029,6.817-.011,10.226-.008.672.193.785.808.779,3.165-.032,6.33-.017,9.5-.014,2.525,0,3.872,1.355,3.9,3.865.007.7-.317,1.625.142,2.022.4.341,1.3.094,1.978.108,6,.127,10.75,2.537,14,7.664a13.018,13.018,0,0,1,1.9,5.158c.822,5.73-.326,10.85-4.78,14.879a15.221,15.221,0,0,1-9.9,4.1c-3.891.13-7.79.051-11.685.055-5.624,0-11.249-.058-16.872.018A33.354,33.354,0,0,1,16.4,48.632a24.339,24.339,0,0,1-7.217-5A10.706,10.706,0,0,1,7.2,40.95a.9.9,0,0,0-1.062-.615c-.214.034-.443-.027-.655.014-.25.049-.675-.212-.718.224-.04.406-.227.877.385,1.179a3.154,3.154,0,0,1,1.871,2.912c.035,2.8.045,5.6,0,8.4A3.425,3.425,0,0,1,3.7,56.4,3.448,3.448,0,0,1,.122,53.359c-.109-1.8-.023-3.6-.045-5.4-.014-1.143,0-2.287,0-3.429a2.963,2.963,0,0,1,1.511-2.779,1.152,1.152,0,0,0,.091-1.972A3.722,3.722,0,0,1,0,36.972V35.511a3.823,3.823,0,0,1,1.666-2.758,1.209,1.209,0,0,0-.02-2.015,3.158,3.158,0,0,1-1.57-2.921q0-3.954,0-7.905a2.633,2.633,0,0,1,.041-.792" transform="translate(0 0)" fill="#231f20"/>
        <path id="Trazado_164981" data-name="Trazado 164981" d="M0,58.606a.318.318,0,0,0,.131-.014q0,4.546-.008,9.094l-.064.008L0,67.665Z" transform="translate(0 -14.327)" fill="#858383"/>
        <path id="Trazado_164982" data-name="Trazado 164982" d="M.122,34.261l-.065.011L0,34.239V25.326A.07.07,0,0,1,.118,25.3q0,4.48,0,8.96" transform="translate(0 -6.181)" fill="#848282"/>
        <path id="Trazado_164983" data-name="Trazado 164983" d="M61.718,17.232c-.681,0-1.363.015-2.044,0a1.173,1.173,0,1,1,0-2.34c1.41-.02,2.822-.021,4.232,0a1.143,1.143,0,0,1,1.228,1.166,1.16,1.16,0,0,1-1.228,1.169c-.729.023-1.46.005-2.189.005" transform="translate(-14.282 -3.637)" fill="#231f20"/>
        <path id="Trazado_164984" data-name="Trazado 164984" d="M59.527,29.364c.958-.3,1.182-.745.907-1.778a2.218,2.218,0,0,1,2.142.014c-.321,1.142.108,1.744,1.276,1.765,2.819.049,5.639-.091,8.457.084A13.14,13.14,0,0,1,84.8,42.533a14.871,14.871,0,0,1-.443,4.185,1.506,1.506,0,0,1-.786.07c-8.581,0-17.161,0-25.741.019a1.7,1.7,0,0,1-1.485-.713,31.953,31.953,0,0,1-2.816-4.336.99.99,0,0,1-.175-.827c.483-.2.555.267.727.5a4.333,4.333,0,0,0,3.956,1.889,4.228,4.228,0,0,0,3.786-4.258,4.208,4.208,0,1,0-8.362.731c.029.307.175.623-.051.917-.437.065-.508-.3-.627-.566A27.072,27.072,0,0,1,50.7,32.951c-.142-.941-.128-1.89-.256-2.829-.07-.511.134-.733.7-.727,2.527.028,5.056.014,7.584.01a2.611,2.611,0,0,0,.8-.041" transform="translate(-12.332 -6.679)" fill="#5bc4ee"/>
        <path id="Trazado_164985" data-name="Trazado 164985" d="M43.923,41.533c-.124.644.366,1.043.632,1.522a23.458,23.458,0,0,0,2.654,3.892,1.155,1.155,0,0,0,.992.44q13.275-.018,26.549-.011c-.165.281-.437.141-.654.141q-30.638,0-61.275.008a.932.932,0,0,1-.99-.633,8.011,8.011,0,0,1,1.71-8.945,26.813,26.813,0,0,1,9.777-5.923A30.54,30.54,0,0,1,34.658,30c5.087.066,10.175.016,15.263.016-.23.205-.511.116-.768.116q-3.75.01-7.5,0c-.366,0-.709-.008-.638.514.206,1.527.222,3.077.577,4.584a28.7,28.7,0,0,0,1.9,5.774c.063.134.045.379.311.208.216.038.226.154.12.315" transform="translate(-2.726 -7.336)" fill="#41accd"/>
        <path id="Trazado_164986" data-name="Trazado 164986" d="M35.617,60.964c.047,1.1.4,1.435,1.547,1.435q11.825,0,23.649,0c.291,0,.582.015.874.023a48.883,48.883,0,0,0,6.321,1.642.746.746,0,0,1,.577.261,10.389,10.389,0,0,1-3.088.411c-9.738,0-19.476.027-29.214-.013A25.719,25.719,0,0,1,26.345,62.4c2,0,4,0,6,0,.993,0,1.256-.2,1.574-1.169.527-.329,1.132-.158,1.694-.266" transform="translate(-6.442 -14.907)" fill="#41accd"/>
        <path id="Trazado_164987" data-name="Trazado 164987" d="M16.725,57.613l-1.573-1.264H74.735a4.269,4.269,0,0,1-.718,1.284,2.251,2.251,0,0,1-1.13.226q-27.444,0-54.887,0a2.816,2.816,0,0,1-1.274-.247" transform="translate(-3.705 -13.778)" fill="#96d2ed"/>
        <path id="Trazado_164988" data-name="Trazado 164988" d="M17.234,58.022l30.872.01,26.42.011a2.2,2.2,0,0,1-2.288,1.316c-12.412-.05-24.824-.029-37.236-.038-.74,0-1.363.112-1.613.923-.5.523-1.132.164-1.694.267-.316-1.013-.537-1.182-1.619-1.182-3.057,0-6.119-.086-9.172.036a4.94,4.94,0,0,1-3.671-1.342" transform="translate(-4.214 -14.187)" fill="#74bacd"/>
        <path id="Trazado_164989" data-name="Trazado 164989" d="M62.609,26.332l-2.141-.014a1.9,1.9,0,0,0-1.5-.6c-2.724.016-5.446,0-8.169,0-.393-.489-.173-1.028-.113-1.546.233-2.024.239-2.023,2.253-2.023q6.059,0,12.119,0a1.649,1.649,0,0,1,.789.064.913.913,0,0,1,.718.97c.027.681-.008,1.364.014,2.045.013.387-.144.513-.515.5-.706-.017-1.412,0-2.118-.005a1.563,1.563,0,0,0-1.34.6" transform="translate(-12.366 -5.413)" fill="#5b5e5e"/>
        <path id="Trazado_164990" data-name="Trazado 164990" d="M63.651,22.191c-4.61,0-9.219.014-13.829-.012-.613,0-.87.191-.94.786a17.315,17.315,0,0,0-.28,2.728c-2.116,0-4.234-.006-6.35.02-.5.006-.719-.13-.67-.655.036-.385.007-.777.007-1.167,0-1.416.416-1.837,1.812-1.838q6.022,0,12.045-.005,3.723,0,7.445,0c.257,0,.542-.088.761.141" transform="translate(-10.166 -5.388)" fill="#444747"/>
        <path id="Trazado_164991" data-name="Trazado 164991" d="M50.1,15.055c-1.8.111-1.8.111-1.8-1.635q0-4.492,0-8.984c0-1.067.271-1.353,1.337-1.328.546.013,1.115-.183,1.643.116-.923.262-.974.965-.967,1.767.026,2.984.014,5.968.007,8.952a1.523,1.523,0,0,1-.224,1.112" transform="translate(-11.81 -0.747)" fill="#bdc5cb"/>
        <path id="Trazado_164992" data-name="Trazado 164992" d="M50.68,15.109q0-5.288,0-10.576c0-1.207.028-1.234,1.187-1.256.474.166.566.551.566.989,0,3.45-.007,6.9.008,10.352,0,.406-.1.567-.521.526s-.824-.025-1.237-.035" transform="translate(-12.392 -0.801)" fill="#e5e8ec"/>
        <path id="Trazado_164993" data-name="Trazado 164993" d="M80.024,64.8a22.593,22.593,0,0,1-6.9-1.9H84.483a11.853,11.853,0,0,1-4.459,1.9" transform="translate(-17.881 -15.379)" fill="#5bc4ee"/>
        <path id="Trazado_164994" data-name="Trazado 164994" d="M4.894,68c-.87.4-1.633.019-1.645-.9q-.053-4.052,0-8.107c.009-.856.66-1.246,1.507-1-.179,2.887-.051,5.776-.075,8.665,0,.463.373.858.215,1.342" transform="translate(-0.788 -14.162)" fill="#bdc5cb"/>
        <path id="Trazado_164995" data-name="Trazado 164995" d="M5.14,34.309a1.009,1.009,0,0,1-1.249.258,1.093,1.093,0,0,1-.66-1.117c0-2.622-.012-5.244.006-7.866.006-.826.383-1.16,1.21-1.186a1.411,1.411,0,0,1,.218,1.042c.007,2.309.017,4.619,0,6.929a3.223,3.223,0,0,0,.479,1.941" transform="translate(-0.789 -5.966)" fill="#bdc5cb"/>
        <path id="Trazado_164996" data-name="Trazado 164996" d="M5.283,68.02a3.664,3.664,0,0,1-.468-2.089c.026-2.406.007-4.812.014-7.219,0-.267-.124-.616.313-.7a1.01,1.01,0,0,1,.708,1.064q.011,3.97,0,7.939a.973.973,0,0,1-.57,1" transform="translate(-1.177 -14.186)" fill="#e5e8ec"/>
        <path id="Trazado_164997" data-name="Trazado 164997" d="M5.533,34.309c-.629-.165-.7-.665-.7-1.193q0-4.359,0-8.718a.993.993,0,0,1,1.009,1.1c.021,2.676.01,5.353.01,8.028a1,1,0,0,1-.326.782" transform="translate(-1.182 -5.966)" fill="#e5e8ec"/>
        <path id="Trazado_164998" data-name="Trazado 164998" d="M3.292,47.11A1.71,1.71,0,0,1,5.144,45.67c.36-.02.726.028,1.083-.012.571-.063.815.144.7.721a.391.391,0,0,0-.054.133c-.093,1.255-.093,1.257-1.353,1.255a4.6,4.6,0,0,1-1.571-.145.945.945,0,0,1-.66-.511" transform="translate(-0.805 -11.161)" fill="#5a5d5d"/>
        <path id="Trazado_164999" data-name="Trazado 164999" d="M3.273,47.347c1,.641,2.112.4,3.191.43.259.006.3-.185.314-.4.021-.258-.088-.541.132-.764,0,.751.009,1.5.01,2.253,0,.242.027.525-.336.515a6.428,6.428,0,0,1-2.37-.178,1.544,1.544,0,0,1-.941-1.858" transform="translate(-0.786 -11.398)" fill="#464949"/>
        <path id="Trazado_165000" data-name="Trazado 165000" d="M54.442,43.264a.321.321,0,0,0-.12-.315c-.587-2.77.551-4.958,2.955-5.682a4.419,4.419,0,1,1-2.541,6.5l-.295-.5" transform="translate(-13.246 -9.067)" fill="#231f20"/>
        <path id="Trazado_165001" data-name="Trazado 165001" d="M77.629,41.525a4.415,4.415,0,1,1-4.374-4.436,4.4,4.4,0,0,1,4.374,4.436" transform="translate(-16.823 -9.069)" fill="#231f20"/>
        <path id="Trazado_165002" data-name="Trazado 165002" d="M48.238,41.468a4.41,4.41,0,1,1-4.43-4.373,4.385,4.385,0,0,1,4.43,4.373" transform="translate(-9.638 -9.07)" fill="#231f20"/>
        <path id="Trazado_165003" data-name="Trazado 165003" d="M29.152,37.095a4.41,4.41,0,1,1-4.429,4.372,4.376,4.376,0,0,1,4.429-4.372" transform="translate(-6.045 -9.07)" fill="#231f20"/>
        <path id="Trazado_165004" data-name="Trazado 165004" d="M59.881,44.2a1.972,1.972,0,0,1-2.3-.742,2.118,2.118,0,0,1,.029-2.4,1.987,1.987,0,0,1,2.318-.706,3.258,3.258,0,0,0-.171,3.233c.088.187.23.378.122.61" transform="translate(-13.993 -9.839)" fill="#d0d7df"/>
        <path id="Trazado_165005" data-name="Trazado 165005" d="M60.522,44.233a3.517,3.517,0,0,1-.45-3.291c.1-.258.176-.509.5-.553a1.946,1.946,0,0,1,1.41,2.018,1.914,1.914,0,0,1-1.459,1.826" transform="translate(-14.633 -9.876)" fill="#e5e8ec"/>
        <path id="Trazado_165006" data-name="Trazado 165006" d="M74.579,44.195a1.958,1.958,0,0,1-2.285-.721,2.123,2.123,0,0,1-.018-2.379,1.99,1.99,0,0,1,2.35-.742,3.191,3.191,0,0,0-.17,3.23c.089.187.23.378.123.611" transform="translate(-17.586 -9.839)" fill="#d0d7df"/>
        <path id="Trazado_165007" data-name="Trazado 165007" d="M75.216,44.232a3.462,3.462,0,0,1-.452-3.289c.105-.253.176-.508.5-.552a1.959,1.959,0,0,1,1.41,2.016,1.922,1.922,0,0,1-1.457,1.826" transform="translate(-18.222 -9.876)" fill="#e5e8ec"/>
        <path id="Trazado_165008" data-name="Trazado 165008" d="M45.183,44.194a1.966,1.966,0,0,1-2.286-.734,2.094,2.094,0,0,1,.046-2.437,1.977,1.977,0,0,1,2.384-.647,2.8,2.8,0,0,0-.382,2.935c.1.286.351.537.238.882" transform="translate(-10.399 -9.836)" fill="#d0d7df"/>
        <path id="Trazado_165009" data-name="Trazado 165009" d="M45.823,44.243a3.549,3.549,0,0,1-.446-3.319c.11-.293.226-.53.59-.5A1.953,1.953,0,0,1,47.28,42.5a1.915,1.915,0,0,1-1.457,1.743" transform="translate(-11.039 -9.884)" fill="#e4e7eb"/>
        <path id="Trazado_165010" data-name="Trazado 165010" d="M30.485,44.2a1.969,1.969,0,0,1-2.284-.737,2.089,2.089,0,0,1,.048-2.434,1.971,1.971,0,0,1,2.381-.649,2.791,2.791,0,0,0-.308,3.073c.106.234.3.459.164.748" transform="translate(-6.806 -9.835)" fill="#d0d7df"/>
        <path id="Trazado_165011" data-name="Trazado 165011" d="M31.122,44.245a3.412,3.412,0,0,1-.366-3.428c.121-.244.217-.42.511-.393A1.947,1.947,0,0,1,32.58,42.5a1.909,1.909,0,0,1-1.458,1.744" transform="translate(-7.443 -9.884)" fill="#e4e7eb"/>
      </g>
    </g>
  </g>
</svg>
