<svg xmlns="http://www.w3.org/2000/svg" xmlns:xlink="http://www.w3.org/1999/xlink" width="105" height="105" viewBox="0 0 105 105">
  <defs>
    <clipPath id="clip-path">
      <rect id="Rectángulo_42906" data-name="Rectángulo 42906" width="75.831" height="56.207" transform="translate(0 0)" fill="none"/>
    </clipPath>
  </defs>
  <g id="Grupo_170121" data-name="Grupo 170121" transform="translate(-4514 8847)">
    <path id="Trazado_164421" data-name="Trazado 164421" d="M52.5,0A52.5,52.5,0,1,1,0,52.5,52.5,52.5,0,0,1,52.5,0Z" transform="translate(4514 -8847)" fill="#e1e8ff"/>
    <g id="Grupo_170119" data-name="Grupo 170119" transform="translate(4529 -8823)">
      <g id="Grupo_170118" data-name="Grupo 170118" clip-path="url(#clip-path)">
        <path id="Trazado_164904" data-name="Trazado 164904" d="M22.849,5.239C22,4.724,21.782,4.3,21.993,3.427c.18-.744.747-.91,1.442-.979C30.793,1.718,38.145.932,45.506.237c2.951-.279,2.118-.758,4.284,1.615q4.627,5.07,9.233,10.158a1.148,1.148,0,0,0,1.111.424c4.5-.476,9-.922,13.5-1.374a6.178,6.178,0,0,1,.837-.044,1.169,1.169,0,0,1,1.115,1.641C71.972,22.1,66.465,29.805,56.451,33.333a1.561,1.561,0,0,0-.264.188c.851.3,1.64.58,2.427.861s1.575.565,2.36.854c.278.1.5-.071.724-.153,1.764-.636,3.526-1.279,5.28-1.946a2.152,2.152,0,0,1,1.62-.013c2.039.771,4.092,1.5,6.136,2.261.9.334,1.245.954.956,1.678-.272.681-.927.91-1.79.6-1.812-.653-3.627-1.3-5.425-1.991a1.7,1.7,0,0,0-1.366.025c-1.669.673-3.368,1.274-5.034,1.954a2.4,2.4,0,0,1-1.9,0c-1.677-.651-3.378-1.241-5.061-1.877a1.619,1.619,0,0,0-1.238-.013c-1.7.655-3.426,1.258-5.128,1.917a2.4,2.4,0,0,1-1.84.01c-1.7-.656-3.426-1.257-5.131-1.907a1.6,1.6,0,0,0-1.235,0c-1.752.67-3.521,1.3-5.274,1.961a2.065,2.065,0,0,1-1.549,0c-1.778-.672-3.571-1.3-5.348-1.979a1.428,1.428,0,0,0-1.088.012C25.6,36.406,23.9,37,22.223,37.66a2.654,2.654,0,0,1-2.057.018c-1.7-.656-3.428-1.251-5.136-1.892a1.443,1.443,0,0,0-1.088.014c-1.779.668-3.571,1.305-5.351,1.971a1.747,1.747,0,0,1-1.261.055Q4.117,36.649.907,35.463a1.24,1.24,0,0,1,.133-2.416A1.636,1.636,0,0,1,2,33.235q2.671,1,5.342,2a1.736,1.736,0,0,0,.576.156c.116,0,.42-.066.184-.322-2.285-2.486-3.223-5.722-4.782-8.611C2.233,24.449,1.279,22.372.279,20.321c-.479-.984-.324-1.484.686-1.931.368-.163.252-.391.254-.606.013-1.347,0-2.7.008-4.042,0-1.053.435-1.494,1.47-1.5q3.395-.009,6.789,0c1.082,0,1.5.435,1.5,1.541,0,.966.023,1.933-.007,2.9-.017.517.015.74.68.656,2.192-.28,4.4-.487,6.6-.652.576-.043.7-.312.808-.767q.8-3.525,1.625-7.044c.243-1.03.526-1.239,1.582-1.256A1.188,1.188,0,0,1,23.39,8.928a6.682,6.682,0,0,1-.29,1.553c-.193.911-.434,1.811-.619,2.723-.126.649-.317,1.282-.466,1.925-.195.842-.128.94.755.847,1.641-.172,3.283-.336,4.925-.506,2.777-.286,5.552-.589,8.332-.848,1.079-.1,1.131-.15.867-1.193-.138-.542-.282-1.081-.449-1.615-.583-2.259-1.2-4.508-1.819-6.758-.261-.951-.279-.948-1.257-.855-2.749.261-5.494.568-8.246.811a5.6,5.6,0,0,0-1.338.278.887.887,0,0,1-.936-.051"/>
        <path id="Trazado_164905" data-name="Trazado 164905" d="M53.969,47.062a1.233,1.233,0,0,1-.805,1.147c-1.64.6-3.289,1.186-4.929,1.79a1.555,1.555,0,0,1-1.11-.1c-1.815-.642-3.632-1.281-5.439-1.945a1.46,1.46,0,0,0-1.093.01c-1.777.672-3.567,1.31-5.343,1.985a2.062,2.062,0,0,1-1.548-.009c-1.754-.662-3.524-1.281-5.276-1.949a1.592,1.592,0,0,0-1.231.019c-1.7.653-3.424,1.26-5.128,1.911a2.321,2.321,0,0,1-1.767,0c-1.726-.666-3.47-1.283-5.2-1.945A1.509,1.509,0,0,0,13.945,48c-1.777.674-3.566,1.315-5.345,1.985A1.816,1.816,0,0,1,7.269,50c-2.068-.763-4.14-1.514-6.211-2.271-.071-.026-.142-.056-.211-.087a1.228,1.228,0,0,1-.76-1.6,1.2,1.2,0,0,1,1.623-.7q2.788,1,5.557,2.068a1.652,1.652,0,0,0,1.3-.014c1.723-.671,3.471-1.279,5.192-1.956a2.162,2.162,0,0,1,1.682,0c1.729.657,3.481,1.253,5.212,1.906a1.621,1.621,0,0,0,1.239-.008c1.731-.654,3.478-1.263,5.2-1.923a2.125,2.125,0,0,1,1.615-.01c1.753.665,3.524,1.282,5.278,1.945a1.513,1.513,0,0,0,1.165,0c1.751-.669,3.521-1.29,5.272-1.959a2.119,2.119,0,0,1,1.616,0c1.68.644,3.384,1.225,5.058,1.882a2.024,2.024,0,0,0,1.6-.019q1.8-.714,3.641-1.328a1.2,1.2,0,0,1,1.63,1.121"/>
        <path id="Trazado_164906" data-name="Trazado 164906" d="M75.82,42.624a1.242,1.242,0,0,1-1.744,1.194q-2.83-1.005-5.641-2.066a1.581,1.581,0,0,0-1.228,0c-1.723.673-3.471,1.283-5.19,1.966a2.237,2.237,0,0,1-1.755-.005c-1.655-.637-3.338-1.2-4.993-1.84a2.069,2.069,0,0,0-1.6.023c-1.678.649-3.379,1.238-5.061,1.878a2.052,2.052,0,0,1-1.544,0c-1.778-.671-3.572-1.3-5.351-1.969a1.43,1.43,0,0,0-1.094.005c-1.754.665-3.524,1.286-5.276,1.956a2.14,2.14,0,0,1-1.617.017c-1.849-.7-3.711-1.364-5.565-2.049-.9-.334-1.25-.949-.977-1.679.25-.672.943-.921,1.787-.62,1.694.606,3.387,1.216,5.073,1.845a1.331,1.331,0,0,0,1.02,0c1.777-.673,3.57-1.305,5.346-1.982a2.123,2.123,0,0,1,1.616.008c1.681.643,3.385,1.224,5.061,1.877a2.039,2.039,0,0,0,1.6-.016c1.676-.653,3.375-1.248,5.057-1.887a2.082,2.082,0,0,1,1.548-.01c1.757.656,3.527,1.275,5.285,1.93a1.542,1.542,0,0,0,1.16-.007c1.778-.672,3.57-1.306,5.349-1.977a1.888,1.888,0,0,1,1.4-.026c2.114.786,4.23,1.567,6.355,2.326a1.336,1.336,0,0,1,.982,1.109"/>
        <path id="Trazado_164907" data-name="Trazado 164907" d="M22.29,13.156q.414-1.844.829-3.688a1.365,1.365,0,0,0-.843-1.848q.286-1.191.572-2.381a31.252,31.252,0,0,1,4.937-.707c2.094-.209,4.186-.434,6.278-.655.282-.03.487.019.572.344q.987,3.784,1.991,7.564a5.463,5.463,0,0,1-2.651.51c-3.38.357-6.763.678-10.143,1.039a2,2,0,0,1-1.542-.178" fill="#00a5a5"/>
        <path id="Trazado_164908" data-name="Trazado 164908" d="M41.2,51.27c.274.083.567.158.851.261,1.739.631,3.481,1.258,5.212,1.912a1.624,1.624,0,0,0,1.24,0c1.657-.634,3.343-1.2,4.987-1.861a2.674,2.674,0,0,1,2.12.011c1.677.653,3.381,1.236,5.064,1.872a1.315,1.315,0,0,0,1.019-.005c1.775-.684,3.563-1.33,5.338-2.014a2.038,2.038,0,0,1,1.546-.022c2.088.786,4.189,1.536,6.281,2.311a1.21,1.21,0,0,1,.9,1.579A1.237,1.237,0,0,1,74,56q-2.824-1.023-5.637-2.079a1.417,1.417,0,0,0-1.087.011c-1.751.674-3.516,1.31-5.26,2a2.16,2.16,0,0,1-1.683,0c-1.656-.636-3.34-1.2-5-1.835a2.071,2.071,0,0,0-1.6-.014c-1.7.661-3.425,1.262-5.131,1.909a1.985,1.985,0,0,1-1.475,0c-1.78-.666-3.574-1.3-5.351-1.974a1.491,1.491,0,0,0-1.167.008c-1.037.41-2.086.789-3.137,1.165-.9.319-1.553.057-1.806-.695-.237-.7.108-1.278.986-1.6,1.306-.487,2.616-.965,3.927-1.443.188-.069.385-.115.613-.182"/>
        <path id="Trazado_164909" data-name="Trazado 164909" d="M31.822,55.281a7.243,7.243,0,0,1-2.022-.695,4.1,4.1,0,0,0-3.882-.018c-1.225.593-2.561.955-3.836,1.451a2.3,2.3,0,0,1-1.766.011c-1.7-.658-3.421-1.267-5.126-1.917a1.584,1.584,0,0,0-1.228-.019c-1.749.676-3.518,1.3-5.271,1.962a2.06,2.06,0,0,1-1.547,0C5.082,55.28,3.009,54.53.939,53.774a1.237,1.237,0,0,1,.108-2.414A1.619,1.619,0,0,1,2,51.542c1.757.653,3.519,1.294,5.265,1.976a1.639,1.639,0,0,0,1.3-.016c1.722-.672,3.468-1.286,5.189-1.963a2.079,2.079,0,0,1,1.609,0c1.658.631,3.34,1.2,4.994,1.836a2.14,2.14,0,0,0,1.673.014c1.675-.655,3.378-1.24,5.059-1.88a2.017,2.017,0,0,1,1.543,0c1.062.415,2.138.793,3.212,1.173a2.17,2.17,0,0,1,.9.552A1.117,1.117,0,0,1,33,54.494a1.235,1.235,0,0,1-1.175.787"/>
        <path id="Trazado_164910" data-name="Trazado 164910" d="M1.309,39.118c.194.063.461.14.721.236C3.763,40,5.5,40.622,7.223,41.3a1.734,1.734,0,0,0,1.368-.008c1.726-.662,3.475-1.265,5.206-1.914a1.979,1.979,0,0,1,1.473-.007c1.732.647,3.481,1.247,5.206,1.911a1.649,1.649,0,0,0,1.438,0,5.66,5.66,0,0,1,1.145-.4,1.122,1.122,0,0,1,1.408.729,1.027,1.027,0,0,1-.479,1.438c-1.389.606-2.726,1.384-4.386.543-1.414-.715-2.982-1.123-4.47-1.7a1.509,1.509,0,0,0-1.158,0c-1.778.67-3.566,1.31-5.343,1.982a1.756,1.756,0,0,1-1.259.078Q4.124,42.757.885,41.553a1.178,1.178,0,0,1-.849-1.427,1.266,1.266,0,0,1,1.273-1.008"/>
        <path id="Trazado_164911" data-name="Trazado 164911" d="M75.827,48.735a1.245,1.245,0,0,1-1.781,1.177c-1.86-.662-3.718-1.331-5.562-2.036a1.758,1.758,0,0,0-1.369.011c-1.7.651-3.426,1.245-5.134,1.882a2.082,2.082,0,0,1-1.548,0c-.993-.38-2-.721-3-1.086-.945-.345-1.332-.983-1.05-1.7s.917-.924,1.853-.591a.742.742,0,0,1,.145.045,5.453,5.453,0,0,0,5.706.009c.941-.478,2-.727,2.986-1.116a1.934,1.934,0,0,1,1.472-.012q3.129,1.17,6.276,2.3a1.332,1.332,0,0,1,1.005,1.128"/>
        <path id="Trazado_164912" data-name="Trazado 164912" d="M4.747,20.5q6.887-.7,13.773-1.409c4.793-.492,9.585-1,14.378-1.478,4.315-.434,8.632-.843,12.947-1.269,1.338-.132,2.673-.279,4.01-.424.988-.107,1.236-.347,1.42-1.354a2.882,2.882,0,0,1,2.433-.2,1.247,1.247,0,0,0,1.509.95q4.316-.424,8.634-.841c2.044-.2,4.077-.512,6.134-.555.28-.006.515-.239.805-.125.084.341-.149.579-.3.826a28.384,28.384,0,0,1-6.309,7.129,2.887,2.887,0,0,1-.567.378.258.258,0,0,1-.409-.177,1.607,1.607,0,0,1,.04-.6,3.576,3.576,0,0,0-3.067-4.012A3.461,3.461,0,0,0,58.7,24.053c.3.117.731.075.838.523a1.68,1.68,0,0,1-.853.61A41.771,41.771,0,0,1,46.29,28.778a80.409,80.409,0,0,1-11.614.78c-7.394-.006-14.787-.025-22.181.012a5.17,5.17,0,0,1-4.741-2.628,59.184,59.184,0,0,1-2.915-5.779.778.778,0,0,1-.092-.658" fill="#ef8600"/>
        <path id="Trazado_164913" data-name="Trazado 164913" d="M4.747,20.5c1.2,2.314,2.079,4.8,3.623,6.924a4.245,4.245,0,0,0,3.539,1.9c8.51.01,17.021.112,25.527-.033a55.115,55.115,0,0,0,17.575-2.821,22.48,22.48,0,0,0,4.5-2,.462.462,0,0,1,.39-.194,3.74,3.74,0,0,0,3.034-1.969c.088-.146.16-.324.38-.318A4.522,4.522,0,0,0,65.2,20.652,28.831,28.831,0,0,0,70.79,13.8a3.927,3.927,0,0,1,1.549-.1,37.232,37.232,0,0,1-4.776,8.73c-3.794,4.844-8.834,7.758-14.64,9.5a56.307,56.307,0,0,1-9.009,1.791,3.2,3.2,0,0,1-1.667-.451,2.344,2.344,0,0,0-2.186.018,8.341,8.341,0,0,1-4.853.926,4.729,4.729,0,0,0-.762,0,10.813,10.813,0,0,1-5.7-.965A1.829,1.829,0,0,0,27,33.236c-2.813,1.483-5.859.933-8.823.927a7.331,7.331,0,0,1-2.649-.895,2.223,2.223,0,0,0-1.969.023c-.5.241-1.071.353-1.548.63a1.634,1.634,0,0,1-2.058-.39A5.025,5.025,0,0,1,8.7,31.912Q5.957,26.426,3.231,20.934a1.4,1.4,0,0,1-.061-.266A8.285,8.285,0,0,1,4.747,20.5" fill="#bf6c00"/>
        <path id="Trazado_164914" data-name="Trazado 164914" d="M53.708,14.368l-2.433.2a1.326,1.326,0,0,0-1.625-1.108q-2.789.27-5.577.541-1.809.179-3.616.374c-.389.042-.582-.078-.675-.5-.19-.86-.457-1.7-.692-2.554.6-.089,1.2-.076,1.806-.185a7.139,7.139,0,0,0,4.971-3.318c.652-1.028,1.254-2.088,1.888-3.128.168-.275.289-.6.644-.717,1.918,2.083,3.851,4.152,5.748,6.253a22.122,22.122,0,0,1,2.189,2.512c-1.069.29-2.664-.281-2.628,1.626" fill="#008484"/>
        <path id="Trazado_164915" data-name="Trazado 164915" d="M48.4,3.978A50.745,50.745,0,0,1,45.378,8.79a6.947,6.947,0,0,1-4.437,2.527c-.608.1-1.234.369-1.851.009-.668-2.417-1.324-4.837-2.016-7.247-.143-.5.036-.622.472-.664q4.576-.451,9.152-.92a.694.694,0,0,1,.664.27c.339.41.691.809,1.037,1.213" fill="#00a5a5"/>
        <path id="Trazado_164916" data-name="Trazado 164916" d="M22.29,13.156c2.093-.016,4.156-.353,6.23-.576,1.025-.11,2.051-.21,3.076-.31q2.515-.246,5.03-.485c.241.8.48,1.6.723,2.4.112.37-.054.5-.4.536-1.259.132-2.516.285-3.775.419-2.316.248-4.633.5-6.951.728-1.53.154-3.063.283-4.7.433.269-1.093.52-2.118.772-3.143" fill="#008484"/>
        <path id="Trazado_164917" data-name="Trazado 164917" d="M6.1,14.708c.05-.006.1-.017.15-.019,2.484-.072,2.529-.014,2.31,2.505-.029.335-.165.434-.45.461-1.33.129-2.659.288-3.992.382-.819.057-.323-.592-.427-.92a1.68,1.68,0,0,1,.678-.3A2.274,2.274,0,0,0,5.8,15.386a1.664,1.664,0,0,1,.3-.678" fill="#95b1bf"/>
        <path id="Trazado_164918" data-name="Trazado 164918" d="M6.1,14.708a2.352,2.352,0,0,1-2.409,2.409c-.127-2.536-.127-2.536,2.409-2.409" fill="#baddef"/>
        <path id="Trazado_164919" data-name="Trazado 164919" d="M36.627,26.889a3.661,3.661,0,1,1,3.66-3.625,3.681,3.681,0,0,1-3.66,3.625"/>
        <path id="Trazado_164920" data-name="Trazado 164920" d="M52.494,22.041a3.66,3.66,0,1,1-3.587-3.694,3.688,3.688,0,0,1,3.587,3.694"/>
        <path id="Trazado_164921" data-name="Trazado 164921" d="M63.312,21.988a3.857,3.857,0,0,1-3.8,2.481,3.744,3.744,0,0,1-3.171-2.593,3.651,3.651,0,1,1,7.039-.261c-.029.122-.043.248-.064.373"/>
        <path id="Trazado_164922" data-name="Trazado 164922" d="M36.618,22.031a1.127,1.127,0,0,1,1.211,1.083,1.1,1.1,0,0,1-.7,1.208,1.122,1.122,0,0,1-1.541-.492,4.668,4.668,0,0,0,1.034-1.8" fill="#94b0be"/>
        <path id="Trazado_164923" data-name="Trazado 164923" d="M36.618,22.031a1.665,1.665,0,0,1-1.034,1.8c-.39-1-.036-1.62,1.034-1.8" fill="#b7d9eb"/>
        <path id="Trazado_164924" data-name="Trazado 164924" d="M48.826,20.81a1.13,1.13,0,0,1,1.212,1.084,1.091,1.091,0,0,1-.7,1.208,1.126,1.126,0,0,1-1.543-.492,4.682,4.682,0,0,0,1.035-1.8" fill="#94b0be"/>
        <path id="Trazado_164925" data-name="Trazado 164925" d="M48.826,20.81a1.665,1.665,0,0,1-1.035,1.8c-.39-1.009-.041-1.616,1.035-1.8" fill="#b7d9ea"/>
        <path id="Trazado_164926" data-name="Trazado 164926" d="M59.812,19.589A1.121,1.121,0,0,1,61.02,20.6a1.1,1.1,0,0,1-.695,1.285,1.129,1.129,0,0,1-1.548-.492,4.682,4.682,0,0,0,1.035-1.8" fill="#94b0be"/>
        <path id="Trazado_164927" data-name="Trazado 164927" d="M59.812,19.589a1.667,1.667,0,0,1-1.035,1.8c-.389-1.006-.035-1.621,1.035-1.8" fill="#b7d9ea"/>
      </g>
    </g>
  </g>
</svg>
