<svg xmlns="http://www.w3.org/2000/svg" xmlns:xlink="http://www.w3.org/1999/xlink" width="261" height="225" viewBox="0 0 261 225">
  <defs>
    <clipPath id="clip-path">
      <rect id="Rectángulo_42804" data-name="Rectángulo 42804" width="247.445" height="177.705" fill="none"/>
    </clipPath>
  </defs>
  <g id="Grupo_169994" data-name="Grupo 169994" transform="translate(-7604 11248)">
    <g id="Grupo_169866" data-name="Grupo 169866" transform="translate(7611 -11224)">
      <g id="Grupo_169865" data-name="Grupo 169865" clip-path="url(#clip-path)">
        <path id="Trazado_163644" data-name="Trazado 163644" d="M4.381,146.409S.266,151.553.009,155.8s4.893,7.451,9.13,9.644,7.458,5.015,7.587,2.958,2.333-16.265,2.7-17.489-15.045-4.5-15.045-4.5" transform="translate(0 -99.871)" fill="#f9b3a2"/>
        <path id="Trazado_163645" data-name="Trazado 163645" d="M27.621,493.575a1.207,1.207,0,0,1-1.209,1.209H10.636a1.827,1.827,0,0,1-1.78-2.243l1.127-5.226,2.973-13.805L23.8,476.8s-1.25,5.478-1.975,8.77c-.16.715-.293,1.322-.38,1.749l5.791,5.375a1.2,1.2,0,0,1,.386.885" transform="translate(-6.008 -322.998)" fill="#f9b3a2"/>
        <path id="Trazado_163646" data-name="Trazado 163646" d="M180.854,499.5H162.229a2.475,2.475,0,0,1-2.412-1.955l-1.353-6.332-2.278-10.683,11.249-1.337s1.055,5.519,1.708,8.826c.267,1.358.468,2.335.5,2.412a15.023,15.023,0,0,0,1.62.962c3.3,1.846,10.524,5.751,10.771,6.5.005.01.005.021.01.031a1.229,1.229,0,0,1-1.188,1.579" transform="translate(-106.539 -326.872)" fill="#f9b3a2"/>
        <path id="Trazado_163647" data-name="Trazado 163647" d="M43.874,283.186,29.086,337.322l-15.3-2.443L23.3,268.912l17.1-1.543Z" transform="translate(-9.402 -182.382)" fill="#2f3f4f"/>
        <path id="Trazado_163648" data-name="Trazado 163648" d="M114.408,272.223l10.373,63.524-15.688,3.6L91.861,272.223Z" transform="translate(-62.662 -185.693)" fill="#2f3f4f"/>
        <path id="Trazado_163649" data-name="Trazado 163649" d="M218.972,19.116l-2.2,11.353a.839.839,0,0,0,.824,1h5.361a.839.839,0,0,0,.824-.682l2.166-11.352a.839.839,0,0,0-.824-1H219.8a.839.839,0,0,0-.824.679" transform="translate(-147.855 -12.577)" fill="#2f3f4f"/>
        <path id="Trazado_163650" data-name="Trazado 163650" d="M197.6,66.565s-.087.273-.267.756v.005c-.175.473-.432,1.142-.767,1.955-.092.221-.19.458-.3.7-1.4,3.251-4.357,9.594-7.839,13.23-5.658,5.915-13.816,5.776-13.816,5.776L177.542,74s4.521-.427,7.741-5.956c.628-1.08,1.157-2.063,1.6-2.952.123-.242.242-.478.35-.7.339-.7.622-1.327.859-1.883a20.655,20.655,0,0,0,1.106-3.076Z" transform="translate(-119.111 -40.54)" fill="#f9b3a2"/>
        <path id="Trazado_163651" data-name="Trazado 163651" d="M94.966,33.852a6.384,6.384,0,0,1-5.276,6.283,6.249,6.249,0,0,1-1.1.1,6.4,6.4,0,0,1-2.433-.481c-.1-.038-.186-.077-.276-.122a2.8,2.8,0,0,1-.257-.128,7.116,7.116,0,0,1-3.408-5.648A6.378,6.378,0,0,1,93.7,30.033v.006a6.347,6.347,0,0,1,1.053,2.176.165.165,0,0,1,.013.045,6.472,6.472,0,0,1,.2,1.592" transform="translate(-56.08 -18.74)" fill="#f9b3a2"/>
        <path id="Trazado_163652" data-name="Trazado 163652" d="M95.927,50.776A10.137,10.137,0,0,1,90.793,47s4.573-4.084,5.252-4.284a47.144,47.144,0,0,0,4.305-2.541,40.16,40.16,0,0,1,1.661,5.612c.036.175.067.345.093.515.057.345.1.679.119.988.242,3.379-3.045,4.413-6.3,3.487" transform="translate(-61.933 -27.405)" fill="#f9b3a2"/>
        <path id="Trazado_163653" data-name="Trazado 163653" d="M96.45,70.8l-4.074,1.1-4.722-.957,1.888-8.611.026-.128.052-.216.056-.257,1.05.319,2.32.695,2.515.761.144,1.178.139,1.132.2,1.641Z" transform="translate(-59.792 -42.107)" fill="#f9b3a2"/>
        <path id="Trazado_163654" data-name="Trazado 163654" d="M75.45,143.154c0,.257-45.177.6-45.177.6l2.88-32.9,2.865-23.424a15.518,15.518,0,0,1,2.988-2.8,19.029,19.029,0,0,1,1.775-1.168.226.226,0,0,1,.041-.021,16.913,16.913,0,0,1,1.5-.792,21.422,21.422,0,0,1,10.164-2.006c11.059.427,16.712,5.334,16.712,5.334S75.45,142.9,75.45,143.154" transform="translate(-20.65 -54.993)" fill="#f57c64"/>
        <path id="Trazado_163655" data-name="Trazado 163655" d="M85.3,174.9a7.892,7.892,0,0,1-4.9-1.672,12.328,12.328,0,0,1-3.654-5.256l2.406-.908a9.731,9.731,0,0,0,2.853,4.155,5.316,5.316,0,0,0,5.548.582c2.629-1.375,2.354-5.051,1.8-9.019l-.012-.086a75.212,75.212,0,0,0-3.928-14.452c-1.1-3.134-2.168-5.923-3.279-8.527l2.366-1.009c1.133,2.657,2.225,5.5,3.341,8.687A77.347,77.347,0,0,1,91.9,162.338l.012.086c.482,3.487,1.289,9.324-3.161,11.651a7.45,7.45,0,0,1-3.449.82" transform="translate(-52.353 -94.614)" fill="#2f3f4f"/>
        <path id="Trazado_163656" data-name="Trazado 163656" d="M101.336,80.73a52.327,52.327,0,0,1,15.891,2.576,60.526,60.526,0,0,1,10.33,5.227s3.172,2.726,3.986,10.334c.566,5.291-1.329,7.326-1.329,7.326L114.7,107.307Z" transform="translate(-69.125 -55.068)" fill="#f57c64"/>
        <path id="Trazado_163657" data-name="Trazado 163657" d="M220.508,40.5a15.85,15.85,0,0,1,1-4.758,12.955,12.955,0,0,1,3.2-3.9c.814-.6,2.1.515.557,2.7s.429,4.929.429,4.929l-3.986,6.515Z" transform="translate(-150.416 -21.613)" fill="#f9b3a2"/>
        <path id="Trazado_163658" data-name="Trazado 163658" d="M234.2,37.532v.005a14.409,14.409,0,0,1-.283,2.7,36.25,36.25,0,0,1-2.428,6.332s-5.01.108-4.99-.02c0-.165-2.037-3.771-2.037-4.156s-.386-3.945,0-4.156a20.744,20.744,0,0,1,3.811.17l2.294-8.292a7.659,7.659,0,0,1,1.558,1.394,7.208,7.208,0,0,1,.581.771,5.973,5.973,0,0,1,.581,1.111,12.708,12.708,0,0,1,.756,2.531,9.157,9.157,0,0,1,.154,1.615" transform="translate(-152.996 -20.539)" fill="#f9b3a2"/>
        <path id="Trazado_163659" data-name="Trazado 163659" d="M248.3,36.954a9.439,9.439,0,0,1-.6,2.685.249.249,0,0,1-.231.144.266.266,0,0,1-.108-.021.259.259,0,0,1-.124-.345,9.579,9.579,0,0,0,.556-2.525,10.234,10.234,0,0,0-.031-2.4,7.162,7.162,0,0,1,.581.771,9.829,9.829,0,0,1-.041,1.687" transform="translate(-168.63 -23.53)" fill="#2f3f4f"/>
        <path id="Trazado_163660" data-name="Trazado 163660" d="M253.64,49.994V50a5.369,5.369,0,0,1-.365.993.257.257,0,0,1-.226.139.271.271,0,0,1-.123-.031.26.26,0,0,1-.1-.35,9.066,9.066,0,0,0,.663-2.371,9.159,9.159,0,0,1,.154,1.615" transform="translate(-172.438 -33.001)" fill="#2f3f4f"/>
        <path id="Trazado_163661" data-name="Trazado 163661" d="M27.738,103.708c-.514,1.065-6.172,13.682-6.342,14.114-.113.278-.874.087-2.639-.926-.952-.551-2.2-1.338-3.791-2.418a37.488,37.488,0,0,1-8.06-7.973s5.838-6.589,9.6-10.545a34.091,34.091,0,0,1,6.682-5.56,13.83,13.83,0,0,1,1.651-.9.23.23,0,0,1,.041-.021s.16.622.406,1.61c.874,3.549,2.85,11.789,2.449,12.617" transform="translate(-4.711 -61.038)" fill="#f57c64"/>
        <path id="Trazado_163662" data-name="Trazado 163662" d="M64.9,118.044a5.18,5.18,0,0,1,1.055-3.441,3.041,3.041,0,0,1,2.266-.963,3.179,3.179,0,0,1,2.454.9,3.874,3.874,0,0,1,.892,2.7l-1.026-.076a2.86,2.86,0,0,0-.617-1.924,2.145,2.145,0,0,0-1.681-.578,2.023,2.023,0,0,0-1.528.629,4.2,4.2,0,0,0-.788,2.684Z" transform="translate(-44.27 -77.517)" fill="#2f3f4f"/>
        <path id="Trazado_163663" data-name="Trazado 163663" d="M143.566,470.712c.213-.7,15.945-3.986,16.46-3.729s1.093,3.022.964,3.729-16.074,4.436-16.46,3.986a8.875,8.875,0,0,1-.964-3.986" transform="translate(-97.907 -318.535)" fill="#fff"/>
        <path id="Trazado_163664" data-name="Trazado 163664" d="M10.328,472.248c.494-.535,16.1,3.311,16.451,3.765s-.323,3.2-.745,3.779-16.41-2.961-16.563-3.534a8.876,8.876,0,0,1,.857-4.011" transform="translate(-6.442 -322.102)" fill="#fff"/>
        <path id="Trazado_163665" data-name="Trazado 163665" d="M185.743,518.4H167.118a2.475,2.475,0,0,1-2.412-1.955l-.051-.237-1.3-6.1,8.611-.268s1.435-3.194,2.068-2.927,2.119,3.374,2.119,3.374l1.867,1.039c.17.093.339.19.514.283l2.217,1.24c3.009,1.692,6.013,3.456,6.173,3.935.005.01.005.021.01.031a1.229,1.229,0,0,1-1.188,1.579" transform="translate(-111.429 -345.78)" fill="#2f3f4f"/>
        <path id="Trazado_163666" data-name="Trazado 163666" d="M27.626,517.726a1.207,1.207,0,0,1-1.209,1.209H10.642A1.824,1.824,0,0,1,8.816,517.1a1.868,1.868,0,0,1,.046-.411l1.127-5.226h9.752l2.268-2.552a17.187,17.187,0,0,1,.54,2.454c.051.5.077.808.093.988s.015.231.015.231l2.207,2.047,2.376,2.207a1.2,1.2,0,0,1,.386.885" transform="translate(-6.014 -347.149)" fill="#2f3f4f"/>
        <path id="Trazado_163667" data-name="Trazado 163667" d="M27.626,530a1.207,1.207,0,0,1-1.209,1.209H10.642a1.824,1.824,0,0,1-1.826-1.831H24.864V526.91l2.376,2.207a1.2,1.2,0,0,1,.386.885" transform="translate(-6.014 -359.424)" fill="#fff"/>
        <path id="Trazado_163668" data-name="Trazado 163668" d="M188.536,531.177H169.911a2.475,2.475,0,0,1-2.412-1.955l-.051-.237h16.094v-3.354c3.009,1.692,6.013,3.456,6.173,3.935.005.01.005.021.01.031a1.229,1.229,0,0,1-1.188,1.579" transform="translate(-114.222 -358.552)" fill="#fff"/>
        <path id="Trazado_163669" data-name="Trazado 163669" d="M93.535,29.821q-.154-.183-.308-.346c-.045-.045-.084-.09-.128-.135s-.115-.116-.173-.167a1.353,1.353,0,0,0-.18-.154,6.311,6.311,0,0,0-4.159-1.547,6.385,6.385,0,0,0-6.117,8.177,1.335,1.335,0,0,0,.077.224,1.515,1.515,0,0,0,.077.225,1.85,1.85,0,0,0,.071.173c.051.148.225.507.3.642a12.406,12.406,0,0,0,2.667,2.843,10.7,10.7,0,0,0,1.319-.436,4.6,4.6,0,0,0,2.394-2.3,6.532,6.532,0,0,0,.52-2c.019-.186.032-.488.038-.822,0-.21.007-.433.008-.652A1.854,1.854,0,0,1,91.1,31.864l0,0a9.388,9.388,0,0,0,1.913-1.13,3.687,3.687,0,0,0,.687-.693v-.006c-.058-.071-.109-.147-.167-.212" transform="translate(-56.081 -18.74)" fill="#a66353"/>
        <path id="Trazado_163670" data-name="Trazado 163670" d="M121.118,44.3s2.273,1.711,2.353,1.9-1.5,1.364-1.5,1.364Z" transform="translate(-82.619 -30.217)" fill="#f9b3a2"/>
        <path id="Trazado_163671" data-name="Trazado 163671" d="M75.7,29.339c-.058-.058-.118-.106-.176-.16l0-.007a1.376,1.376,0,0,0-.18-.154c-.057-.05-.119-.093-.178-.141-.387.225-.781.438-1.163.672a.506.506,0,0,1-.081.033.7.7,0,0,1-.743.051.784.784,0,0,1-.342-.365.89.89,0,0,1,.128-1.109,1.624,1.624,0,0,1,.37-.3,6.236,6.236,0,0,0-2.149-.391,6.385,6.385,0,0,0-6.117,8.176l-8.215,5.3a.321.321,0,0,0-.1.443.319.319,0,0,0,.443.1L65.3,36.271l.334-.218,10.2-6.579c-.045-.045-.084-.09-.128-.135" transform="translate(-38.686 -18.74)" fill="#2f3f4f"/>
        <path id="Trazado_163672" data-name="Trazado 163672" d="M55.908,86.989a23.412,23.412,0,0,0-1.091,2.4c-.231.586-.447,1.209-.638,1.867a37.548,37.548,0,0,0-1.415,7.762l-2.572.515s.7-6.6,2.4-10.565c.041-.092.082-.18.123-.267a13.832,13.832,0,0,1,1.651-.9.23.23,0,0,1,.041-.021c.463-.278.962-.54,1.5-.792" transform="translate(-34.238 -59.338)" fill="#2f3f4f"/>
        <path id="Trazado_163673" data-name="Trazado 163673" d="M48.572,159.176a3.325,3.325,0,0,1-.509.113,3.828,3.828,0,0,1-.736.057l-19.716-.252a4.281,4.281,0,0,1-4.079-5.385c1.106-4.115,2.736-10.061,4.233-15.483.046-.17.092-.339.139-.5,1.1-3.956,2.1-7.587,2.762-9.968a3.847,3.847,0,0,1,3.739-2.819l9.778.067a3.635,3.635,0,0,1,.674.062,3.533,3.533,0,0,1,.524.139,3.846,3.846,0,0,1,2.587,3.086c.9,6.1,2.813,19.242,3.662,26.269a4.275,4.275,0,0,1-3.06,4.619" transform="translate(-15.952 -85.222)" fill="#a66353"/>
        <path id="Trazado_163674" data-name="Trazado 163674" d="M56.609,166.366c0,.036-.01.071-.01.107a2.043,2.043,0,1,0,4.072,0c0-.037-.008-.071-.01-.107Z" transform="translate(-38.608 -113.484)" fill="#fff"/>
        <path id="Trazado_163675" data-name="Trazado 163675" d="M101.439,49.7a2.084,2.084,0,1,1-2.076-2.266,2.177,2.177,0,0,1,2.076,2.266" transform="translate(-66.362 -32.356)" fill="#f9b3a2"/>
        <path id="Trazado_163676" data-name="Trazado 163676" d="M85.514,309.367a.256.256,0,0,1-.159-.055l-9-7.1a.257.257,0,0,1,.319-.4l9,7.1a.257.257,0,0,1-.16.459" transform="translate(-52.018 -205.839)" fill="#0f0a1c"/>
        <path id="Trazado_163677" data-name="Trazado 163677" d="M223.672,73.922v.005c-.175.473-.432,1.142-.766,1.955-.092.221-.19.458-.3.7a42.4,42.4,0,0,0-9.382-4.887c.124-.242.242-.478.35-.7.339-.7.622-1.327.859-1.882a36.423,36.423,0,0,1,9.238,4.814" transform="translate(-145.448 -47.141)" fill="#a66353"/>
        <path id="Trazado_163678" data-name="Trazado 163678" d="M236.547,79.564c0,1.192-.658,2.158-1.47,2.158s-1.471-.966-1.471-2.158.658-2.158,1.471-2.158,1.47.966,1.47,2.158" transform="translate(-159.351 -52.801)" fill="#fff"/>
        <path id="Trazado_163679" data-name="Trazado 163679" d="M108.981,74.716a3.479,3.479,0,0,1-2.361-2.34l2.16.7Z" transform="translate(-72.729 -49.37)" fill="#2f3f4f"/>
        <path id="Trazado_163680" data-name="Trazado 163680" d="M143.044,128.207a.254.254,0,0,1-.083-.014c-.1-.033-2.414-.878-4.831-6.4a22.93,22.93,0,0,1-2.079-10.071.257.257,0,0,1,.513.039,22.87,22.87,0,0,0,2.037,9.826c2.328,5.318,4.505,6.114,4.527,6.121a.257.257,0,0,1-.083.5" transform="translate(-92.792 -76.046)" fill="#2f3f4f"/>
        <path id="Trazado_163681" data-name="Trazado 163681" d="M94.653,159.453a3.323,3.323,0,0,1-.509.113l-1.97-21.053L92.122,138,90.939,125.34a3.534,3.534,0,0,1,.524.139Z" transform="translate(-62.033 -85.499)" fill="#2f3f4f"/>
        <path id="Trazado_163682" data-name="Trazado 163682" d="M55.879,165.421a.255.255,0,0,1-.257.257H37.233a.266.266,0,0,1-.067-.01c.046-.17.093-.34.139-.5H55.622a.258.258,0,0,1,.257.257" transform="translate(-25.352 -112.664)" fill="#2f3f4f"/>
        <path id="Trazado_163683" data-name="Trazado 163683" d="M123.129,58.22c-.154.01-.293.016-.427.016a4.15,4.15,0,0,1-.89-.082.253.253,0,0,1-.19-.3.259.259,0,0,1,.309-.2,4.388,4.388,0,0,0,1.106.051c.036.175.067.345.093.514" transform="translate(-82.958 -39.323)" fill="#2f3f4f"/>
        <path id="Trazado_163684" data-name="Trazado 163684" d="M233.054,512.023H215.162c-1.255,0-2.972-.467-2.605-2.111l1.117-4.227,3.727-14.137,12.148-1.444-4.366,13.481s8.876,5.893,9.143,6.7c.005.011.005.022.011.033a1.327,1.327,0,0,1-1.283,1.705" transform="translate(-144.959 -334.317)" fill="#f9b3a2"/>
        <path id="Trazado_163685" data-name="Trazado 163685" d="M34.331,497.787l-14.659-3.294s-4.222,9.565-4.994,9.91c-.011.005-.022.005-.033.011a1.324,1.324,0,0,1-1.817-1.122l-1.644-17.814c-.117-1.25.189-3.005,1.861-2.789l4.31.722.533.089,13.887,2.322Z" transform="translate(-7.614 -329.247)" fill="#f9b3a2"/>
        <path id="Trazado_163686" data-name="Trazado 163686" d="M210.137,201.725a23.791,23.791,0,0,0-3.8,4.687c-1.666,2.743-4.808,8.757-4.808,8.757L205.573,219l5.16,1.461s3.819-6.691,4.236-7.217,3.437-2.573,3.437-2.816a18.872,18.872,0,0,0-1.481-4.675c-.66-.937-6.788-4.028-6.788-4.028" transform="translate(-137.47 -137.604)" fill="#f9b3a2"/>
        <path id="Trazado_163687" data-name="Trazado 163687" d="M226.323,188.153l-.713,12.26a.906.906,0,0,0,.889,1.079h24.12a.906.906,0,0,0,.89-.737l.673-12.26a.906.906,0,0,0-.89-1.076h-24.08a.906.906,0,0,0-.889.733" transform="translate(-153.885 -127.846)" fill="#2f3f4f"/>
        <path id="Trazado_163688" data-name="Trazado 163688" d="M253.921,191.821l-.594,10.326a.8.8,0,0,1-.789.617H231.169a.773.773,0,0,1-.789-.906l.633-10.326a.792.792,0,0,1,.789-.616h21.33a.773.773,0,0,1,.789.905" transform="translate(-157.14 -130.231)" fill="#fff"/>
        <path id="Trazado_163689" data-name="Trazado 163689" d="M249.3,196.241l-.283-.15-.06-.032-.067-.035-.25-.133c-.1-.056-.208-.108-.315-.154l-.082-.034.013-.095.047-.352a1.67,1.67,0,0,0,.154-.073,1.232,1.232,0,0,0,.4-.49c.019-.035.038-.068.052-.1.031-.06.052-.107.063-.131a1.111,1.111,0,0,0,.059-.139.889.889,0,0,0,.071-.205.879.879,0,0,0-.029-.323.724.724,0,0,0-.474-.518l-.055-.017-.055-.012a.457.457,0,0,0-.054-.007.877.877,0,0,0-.843.646l-.012.036c-.006.017-.019.055-.033.108-.009.034-.02.075-.031.122a1.414,1.414,0,0,0-.031.753l-.042.094-.177.393a5.413,5.413,0,0,0-.622-.148l-.075-.013a4.6,4.6,0,0,0-1.167-.05,17.708,17.708,0,0,0-1.97.383l.495-1.253a8.042,8.042,0,0,0,.387-.757.9.9,0,0,0-.014-.585.756.756,0,0,0-.465-.423.849.849,0,0,0-.631.053,1.435,1.435,0,0,0-.635.866.441.441,0,0,0-.009.25,24.077,24.077,0,0,0-1.153,2.466,1.018,1.018,0,0,0,.462,1.189.638.638,0,0,0,.19.063,15.788,15.788,0,0,0,3.038-.218c-.015.246-.019.52-.017.8,0,.036,0,.072,0,.109s0,.073,0,.109c0,.089,0,.178.007.264,0,.025,0,.05,0,.075,0,.061,0,.121.007.18s0,.11.007.163c0,.016,0,.032,0,.048.024.506.055.883.055.883l1.407.339,1.351.232s.194-.433.4-.8a13.5,13.5,0,0,0,.625-1.25l2.084.729.729-1.545Z" transform="translate(-164.644 -131.319)" fill="#f9b3a2"/>
        <path id="Trazado_163690" data-name="Trazado 163690" d="M255,219.595h-5.5c.011-.6.033-1.083.05-1.383a3.842,3.842,0,0,1,1.161-2.622l2.761.572s.761,1.483,1.111,2.338c.15.361.289.728.422,1.094" transform="translate(-170.188 -147.062)" fill="#a66353"/>
        <path id="Trazado_163691" data-name="Trazado 163691" d="M256.913,206.971a13.583,13.583,0,0,1-.625,1.25c-.524-.1-1.545-.289-2.027-.4-.394-.088-.793-.158-1.186-.252h0c0-.069-.006-.139-.009-.211l-.007-.18c0-.025,0-.05,0-.075,0-.087-.005-.175-.007-.264,0-.036,0-.073,0-.109s0-.072,0-.109c0-.277,0-.551.017-.8l1.034-.7.449.513a1.371,1.371,0,0,0,1.344.293l.594-.191Z" transform="translate(-172.612 -139.927)" fill="#ffe7cf"/>
        <path id="Trazado_163692" data-name="Trazado 163692" d="M262.237,194.444a.411.411,0,0,0-.15-.089c-.065-.02-.137-.016-.2-.039a1.932,1.932,0,0,1-.209-.127.363.363,0,0,0-.468.15c-.081-.039-.183-.077-.253-.02s-.06.144-.109.205a.912.912,0,0,1-.1.087.3.3,0,0,0-.085.2c0,.024.034.3.031.3.039-.013.059-.054.08-.089a.543.543,0,0,1,.516-.278.575.575,0,0,1,.339.188,1.2,1.2,0,0,1,.207.335,2.671,2.671,0,0,1,.136.381.091.091,0,0,0,.032.056.076.076,0,0,0,.051.006.424.424,0,0,0,.312-.338,4.009,4.009,0,0,0,.046-.486.551.551,0,0,0,.005-.213.414.414,0,0,0-.114-.172c-.019-.02-.039-.039-.06-.058" transform="translate(-177.804 -132.44)" fill="#2f3f4f"/>
        <path id="Trazado_163693" data-name="Trazado 163693" d="M273.4,199.653l-.278.392-.336-.032a1.732,1.732,0,0,0-.116.618c.009.174.059.34.08.512a1.054,1.054,0,0,1-.105.519,1.251,1.251,0,0,0-.153.5c.008.2.086.39.085.59a1.057,1.057,0,0,1-.064.331,1.785,1.785,0,0,0-.088.251c-.013.073-.016.149-.022.224h.609a1.635,1.635,0,0,1,.017-.241c.03-.164.091-.321.114-.488a5.377,5.377,0,0,0-.113-.747,1.588,1.588,0,0,1,.227-.693,2.02,2.02,0,0,0,.089-1.01,4,4,0,0,1,.052-.723" transform="translate(-185.819 -136.19)" fill="#a66353"/>
        <path id="Trazado_163694" data-name="Trazado 163694" d="M271.817,204.415c-.034-.1-.074-.22-.12-.351-.229-.67-.577-1.664-.777-2.129l-.005-.012c-.111-.277-.236-.551-.353-.819-.261-.6-.534-1.188-.812-1.776a3.64,3.64,0,0,0-.468-.863,2.284,2.284,0,0,0-1.726-.681l-.178-1.1a.947.947,0,0,0,.2-.832.848.848,0,0,0-1.609-.041h0a.843.843,0,0,0-.05.318h0a3.9,3.9,0,0,0,.043.877.439.439,0,0,0,.521.356v0h0l-.017.258-.01.161a3.942,3.942,0,0,0-1.787.7c-.18.147-.72.643-.72.643L262.71,201.8s.321-.1.579-.178a16.053,16.053,0,0,0,2.8-1.673l.566-1.61-.08-.222.4.108.628-.127-.042-.26a10.817,10.817,0,0,0,.3,1.294,6.209,6.209,0,0,0,.579,1.239c.12.244.251.483.379.724.215.406.432.819.678,1.212h0s.431.956.566,1.278c.073.175.231.551.359.861l.143.344.054.132h.829l.47-.186-.108-.323" transform="translate(-179.204 -133.185)" fill="#f9b3a2"/>
        <path id="Trazado_163695" data-name="Trazado 163695" d="M273.32,204.916c-.028-.432-.024-1.16.389-1.458a2.72,2.72,0,0,0-1.118-.233h-1.1s-1.355,1.189-1.4,1.968c-.029.523.26.743.3.978.018.113.071.495.121.86.054.393.106.768.106.768l1.775.365.96-.411s.039-.2.149-.721c.028-.134.062-.29.1-.47.016-.075.107-.306.107-.306a5.761,5.761,0,0,1-.389-1.339" transform="translate(-184.239 -138.627)" fill="#2f3f4f"/>
        <path id="Trazado_163696" data-name="Trazado 163696" d="M274.98,196.287a1.476,1.476,0,0,0,.03-.278.788.788,0,0,0-.709-.78,1.073,1.073,0,0,0-.585.084,1.029,1.029,0,0,0-.273.214.723.723,0,0,0,.316.3,2.837,2.837,0,0,1,.349.142.505.505,0,0,1,.19.288.718.718,0,0,1,.034.189.526.526,0,0,0,.044.209c.036.086-.019.184-.039.27a1.37,1.37,0,0,0-.039.364c.008.174.012.312.032.484a1.055,1.055,0,0,1-.1.519,1.248,1.248,0,0,0-.153.5c.008.2.086.389.086.59a1.063,1.063,0,0,1-.065.331,1.874,1.874,0,0,0-.088.252c-.013.073-.016.149-.022.223h.609a1.616,1.616,0,0,1,.017-.24c.03-.164.091-.321.115-.488a5.4,5.4,0,0,0-.113-.748,1.594,1.594,0,0,1,.227-.692,2.021,2.021,0,0,0,.09-1.01,4.024,4.024,0,0,1,.051-.723" transform="translate(-186.526 -133.167)" fill="#a66353"/>
        <path id="Trazado_163697" data-name="Trazado 163697" d="M274.275,219.332H269.4c.056-.478.089-.822.089-.956a5.15,5.15,0,0,1,.656-2.4s-.05-.378-.106-.767h2.994c-.111.517-.15.716-.15.716a3.939,3.939,0,0,1,.916,1.694c.145.439.305,1.033.478,1.716" transform="translate(-183.766 -146.799)" fill="#4663ab"/>
        <path id="Trazado_163698" data-name="Trazado 163698" d="M258.037,239.393s-.094.294-.289.817v.005c-.189.511-.467,1.233-.828,2.111-1.444,3.466-4.26,9.3-8.3,13.526-6.11,6.388-15.694-.394-15.694-.394l3.445-8.033s4.883-.461,8.36-6.432c.861-1.483,1.555-2.8,2.111-3.949.367-.755.672-1.433.928-2.033a22.26,22.26,0,0,0,1.194-3.322Z" transform="translate(-158.888 -158.043)" fill="#f9b3a2"/>
        <path id="Trazado_163699" data-name="Trazado 163699" d="M282.4,218.131a17.116,17.116,0,0,1,1.076-5.138,13.984,13.984,0,0,1,3.46-4.212c.88-.648,2.268.555.6,2.916s.463,5.323.463,5.323l-4.3,7.036Z" transform="translate(-192.636 -142.298)" fill="#f9b3a2"/>
        <path id="Trazado_163700" data-name="Trazado 163700" d="M298.167,210.469v.005a15.516,15.516,0,0,1-.305,2.911,39.153,39.153,0,0,1-2.622,6.838s-5.41.117-5.388-.022c0-.178-2.2-4.072-2.2-4.488s-.417-4.26,0-4.488,2.053,0,3.711-.506,2.075-1.05,2.766-6.2a1.022,1.022,0,0,1,1.775-.585l.025.029a7.824,7.824,0,0,1,.627.833,6.436,6.436,0,0,1,.628,1.2,13.741,13.741,0,0,1,.817,2.733,9.915,9.915,0,0,1,.167,1.744" transform="translate(-196.091 -138.873)" fill="#f9b3a2"/>
        <path id="Trazado_163701" data-name="Trazado 163701" d="M313.4,207.415a10.178,10.178,0,0,1-.65,2.9.268.268,0,0,1-.25.155.287.287,0,0,1-.117-.022.28.28,0,0,1-.133-.372,10.343,10.343,0,0,0,.6-2.727,11.047,11.047,0,0,0-.033-2.588,7.735,7.735,0,0,1,.628.833,10.632,10.632,0,0,1-.044,1.822" transform="translate(-212.976 -139.674)" fill="#2f3f4f"/>
        <path id="Trazado_163702" data-name="Trazado 163702" d="M319.163,221.5v.005a5.776,5.776,0,0,1-.394,1.072.277.277,0,0,1-.244.15.3.3,0,0,1-.133-.033.281.281,0,0,1-.111-.378,9.775,9.775,0,0,0,.717-2.561,9.91,9.91,0,0,1,.167,1.744" transform="translate(-217.087 -149.902)" fill="#2f3f4f"/>
        <path id="Trazado_163703" data-name="Trazado 163703" d="M78.056,410.777l21.895,37.4s7.756.613,10.288-4.536c2.742-5.578.266-12.5-1.308-17.868s-4.837-13.956-4.837-13.956l-12.753-5.67Z" transform="translate(-53.245 -277.048)" fill="#2f3f4f"/>
        <path id="Trazado_163704" data-name="Trazado 163704" d="M107.326,389.33s1.805,7.36,8.61,8.193,32.495-4.1,32.495-4.1,2.916-8.679,2.361-8.818-24.246-8.471-25.94-8.054-17.525,12.776-17.525,12.776" transform="translate(-73.211 -256.85)" fill="#2f3f4f"/>
        <path id="Trazado_163705" data-name="Trazado 163705" d="M169.272,360.981s23.294-2.777,30.654,1.111,4.3,14.581,1.805,22.5-9.443,26.662-9.443,26.662H177.708s4.444-24.857,4.86-26.524,1.389-5.138,1.389-5.138l-21.5-9.443Z" transform="translate(-110.82 -245.582)" fill="#2f3f4f"/>
        <path id="Trazado_163706" data-name="Trazado 163706" d="M181.326,316.327a75.373,75.373,0,0,1-1.389,17.627c-2.252,10.178-6.371,13.817-6.371,13.817Z" transform="translate(-118.396 -215.778)" fill="#ffe7cf"/>
        <path id="Trazado_163707" data-name="Trazado 163707" d="M153.43,219.965l-.2,1.855-.052.51-.089.886-.043.41-.451,4.313-3.949.657-4.986-1.783,3.4-9.06.056-.142.086-.225.1-.269,1.092.508,2.415,1.119Z" transform="translate(-97.997 -148.103)" fill="#f9b3a2"/>
        <path id="Trazado_163708" data-name="Trazado 163708" d="M156.566,190.1v.05a6.613,6.613,0,0,1-.255,1.611,6.525,6.525,0,0,1-6.934,4.652,6.3,6.3,0,0,1-1.108-.223,6.4,6.4,0,0,1-1.507-.651c-.012-.007-.018-.013-.031-.013a7.127,7.127,0,0,1-.7-.492c-.085-.065-.158-.129-.237-.2s-.146-.128-.212-.192a6.493,6.493,0,0,1,6.3-10.917,6.421,6.421,0,0,1,3.064,1.95,6.1,6.1,0,0,1,1.08,1.7,2.5,2.5,0,0,1,.129.3v.006a6.57,6.57,0,0,1,.413,2.419" transform="translate(-97.946 -125.147)" fill="#f9b3a2"/>
        <path id="Trazado_163709" data-name="Trazado 163709" d="M160.8,204.089a31.354,31.354,0,0,1-.443,6.177c-.687,3.212-4.026,3.287-6.8,1.553a9.829,9.829,0,0,1-3.759-4.9s5.354-2.571,6.043-2.574,4.962-.257,4.962-.257" transform="translate(-102.178 -139.216)" fill="#f9b3a2"/>
        <path id="Trazado_163710" data-name="Trazado 163710" d="M181.7,206.668s1.567,2.643,1.57,2.863-2.056.747-2.056.747Z" transform="translate(-123.609 -140.976)" fill="#f9b3a2"/>
        <path id="Trazado_163711" data-name="Trazado 163711" d="M156.024,187.374c-.814,4.091-3.495,7.7-5.049,8.113a5.836,5.836,0,0,1-.994.16,16.157,16.157,0,0,1-3.22-.119.108.108,0,0,1-.031-.007,7.191,7.191,0,0,1-.7-.492c-.085-.065-.158-.129-.237-.2s-.146-.128-.213-.193a6.493,6.493,0,0,1,6.3-10.917,6.425,6.425,0,0,1,3.065,1.95,6.09,6.09,0,0,1,1.08,1.7" transform="translate(-97.946 -125.147)" fill="#a66353"/>
        <path id="Trazado_163712" data-name="Trazado 163712" d="M174.934,203.839c-.033,1.206-.657,2.167-1.394,2.147s-1.308-1.014-1.275-2.219.657-2.167,1.393-2.147,1.308,1.013,1.275,2.219" transform="translate(-117.507 -137.532)" fill="#f9b3a2"/>
        <path id="Trazado_163713" data-name="Trazado 163713" d="M169.006,229.873l-.052.51-.089.886a2.786,2.786,0,0,1-.288-.178,8.309,8.309,0,0,1-1.791-2.168Z" transform="translate(-113.77 -156.156)" fill="#2f3f4f"/>
        <path id="Trazado_163714" data-name="Trazado 163714" d="M140.409,183.391a7.494,7.494,0,0,0-7.206.84c-2.137,1.572-1.707,2.686-2.343,3.878s-1.811,1.044-2.442,2.1.157,2.286-.747,3.236a7.129,7.129,0,0,0-1.385,1.721c-.005.139,11.329.843,12.168.7s2.861-2.578,2.861-2.578-2.983-1.6-3.115-1.774,2.208-8.121,2.208-8.121" transform="translate(-86.145 -124.711)" fill="#a66353"/>
        <path id="Trazado_163715" data-name="Trazado 163715" d="M110.128,240.167s-4.649,18.33-4.722,19.647-7.982,36.133-7.982,36.133H62.429c-.372,0-.844-4.627-.872-4.938-1.144-12.076,4.994-24.935,9.454-35.8a89.789,89.789,0,0,1,5.655-11.4,21.514,21.514,0,0,1,2.111-3.033,14.489,14.489,0,0,1,3.033-2.761,13.314,13.314,0,0,1,5.56-2.122c.122-.017.244-.039.372-.056a39.991,39.991,0,0,1,12.053.711c.606.117,1.189.244,1.756.378a29.593,29.593,0,0,1,3.855,1.155,32.721,32.721,0,0,1,4.722,2.083" transform="translate(-41.895 -160.735)" fill="#44a38c"/>
        <path id="Trazado_163716" data-name="Trazado 163716" d="M133.38,263.888l-1.092-.208a5.757,5.757,0,0,0-.763-3.995,3.888,3.888,0,0,0-2.907-1.412c-4.725-.416-6.044,2.86-6.1,3l-1.039-.392c.016-.042,1.641-4.207,7.235-3.715a4.944,4.944,0,0,1,3.7,1.854,6.8,6.8,0,0,1,.964,4.867" transform="translate(-82.868 -175.395)" fill="#362e4d"/>
        <path id="Trazado_163717" data-name="Trazado 163717" d="M132,341.212l-.4-1.617c.066-.017,6.708-1.7,10.637-4.649,7.111-5.342,10.627-14.065,10.662-14.152l1.549.613c-.148.375-3.714,9.24-11.21,14.872-4.2,3.156-10.949,4.862-11.235,4.933" transform="translate(-89.765 -218.825)" fill="#362e4d"/>
        <path id="Trazado_163718" data-name="Trazado 163718" d="M170.82,238.894a17.223,17.223,0,0,0-1.289,2.144c-1.439,2.739-4.96,12.57-5,12.67l-1.566-.561c.145-.411,3.6-10.043,5.094-12.881.372-.716.711-1.294,1.005-1.75.605.117,1.188.244,1.755.378" transform="translate(-111.165 -162.7)" fill="#2f3f4f"/>
        <path id="Trazado_163719" data-name="Trazado 163719" d="M111.444,243.129l-.017.033c-1.439,2.744-4.96,12.57-5,12.67l-1.566-.561c.106-.3,1.966-5.488,3.55-9.381a14.5,14.5,0,0,1,3.033-2.761" transform="translate(-71.53 -165.847)" fill="#2f3f4f"/>
        <path id="Trazado_163720" data-name="Trazado 163720" d="M195.758,249.892s6.222,4.2,9.555,4.964,7.5-.558,7.5-.558a17.04,17.04,0,0,1,3.538,8.23c.695,5-1.6,10.484-1.6,10.484s-4.236,3.194-15.414,2.222a33.391,33.391,0,0,1-12.394-3.784Z" transform="translate(-127.523 -170.46)" fill="#44a38c"/>
        <path id="Trazado_163721" data-name="Trazado 163721" d="M70.8,479.458l-23.33-1.736,3.194,14.789A167.451,167.451,0,0,0,69.7,496.654c8.226,1.2,13.092.353,15.551-.706,2.257-.972,1.528-6.353,1.25-7.186s-3.264-5.763-4.444-6.318S70.8,479.458,70.8,479.458" transform="translate(-32.384 -325.871)" fill="#2f3f4f"/>
        <path id="Trazado_163722" data-name="Trazado 163722" d="M214.665,212.862a11.737,11.737,0,0,1,3.2-4.478c.922-.688,1.777-1.453,2.672-2.175.53-.428,2.714-2,2.972-.5.206,1.2-1.206,2.477-1.972,3.226-.453.443-1.243.947-1.484,1.558s.07,3.2-.347,3.862a7.652,7.652,0,0,1-2.083,1.493c-.174.139-2.958-2.986-2.958-2.986" transform="translate(-146.431 -139.887)" fill="#f9b3a2"/>
        <path id="Trazado_163723" data-name="Trazado 163723" d="M229.345,234.859a.278.278,0,0,1-.248-.4,5.2,5.2,0,0,0,.5-2,.278.278,0,0,1,.556.006,5.694,5.694,0,0,1-.561,2.246.278.278,0,0,1-.249.154" transform="translate(-156.255 -158.378)" fill="#362e4d"/>
        <path id="Trazado_163724" data-name="Trazado 163724" d="M233.054,540.953H215.162c-1.255,0-2.972-.467-2.605-2.111l1.117-4.227a28.517,28.517,0,0,0,7.06-.078,10.52,10.52,0,0,0,4.449-2.022s.522.345,1.316.883c.145.1.3.2.461.311l1.661,1.139c.15.105.305.211.461.317,2.422,1.677,5.1,3.611,5.244,4.049.005.011.005.022.011.033a1.327,1.327,0,0,1-1.283,1.705" transform="translate(-144.959 -363.247)" fill="#2f3f4f"/>
        <path id="Trazado_163725" data-name="Trazado 163725" d="M253.656,535.605l-1.511,2.172a.268.268,0,0,1-.228.117.272.272,0,0,1-.155-.05.283.283,0,0,1-.072-.389l1.505-2.161c.144.1.3.2.461.311" transform="translate(-171.654 -365.143)" fill="#fff"/>
        <path id="Trazado_163726" data-name="Trazado 163726" d="M260.845,540.172l-1.266,1.822a.29.29,0,0,1-.233.122.286.286,0,0,1-.156-.05.283.283,0,0,1-.072-.389l1.266-1.822c.15.106.306.211.461.317" transform="translate(-176.721 -368.254)" fill="#fff"/>
        <path id="Trazado_163727" data-name="Trazado 163727" d="M19.671,494.493s-.222.505-.578,1.295c-.072.155-.15.327-.233.505-.244.55-.539,1.189-.85,1.86-.078.167-.155.339-.233.505-1.233,2.627-2.677,5.555-3.1,5.744-.011.006-.022.006-.033.011a1.324,1.324,0,0,1-1.816-1.122l-1.644-17.813c-.117-1.25.189-3.005,1.861-2.789l4.311.722.533.089a19.32,19.32,0,0,0-.461,5.26,11.719,11.719,0,0,0,2.244,5.732" transform="translate(-7.614 -329.247)" fill="#2f3f4f"/>
        <path id="Trazado_163728" data-name="Trazado 163728" d="M31.143,521.161c-.072.156-.15.328-.233.505l-1.961-1.289a.277.277,0,0,1-.078-.383.272.272,0,0,1,.383-.078Z" transform="translate(-19.663 -354.621)" fill="#fff"/>
        <path id="Trazado_163729" data-name="Trazado 163729" d="M27.806,528.659c-.078.167-.155.339-.233.505L25.645,527.9a.276.276,0,0,1,.305-.461Z" transform="translate(-17.409 -359.753)" fill="#fff"/>
        <path id="Trazado_163730" data-name="Trazado 163730" d="M90.342,276.137c-.167,1.183-3.183,11.854-5.516,20-.322,1.133-.633,2.222-.922,3.227a8.522,8.522,0,0,1-4.382,5.271c-.167.083-.339.167-.511.239a8.531,8.531,0,0,1-3.3.661H59.447a7.751,7.751,0,0,1-7.2-4.883c-.072-.178-.133-.355-.189-.533s-.111-.372-.155-.555a7.948,7.948,0,0,1-.2-1.766,7.757,7.757,0,0,1,.85-3.538l3.116-6.083,8.8-17.2a7.745,7.745,0,0,1,6.938-4.21c5.627.033,14.109-.267,16.364.35a2.012,2.012,0,0,1,.328.116,1.524,1.524,0,0,1,.183.1c2.144,1.328,2.327,6.91,2.055,8.8" transform="translate(-35.269 -181.94)" fill="#ffcfa6"/>
        <path id="Trazado_163731" data-name="Trazado 163731" d="M84.826,342.169c-.322,1.133-.633,2.222-.922,3.227a8.52,8.52,0,0,1-8.193,6.171H59.447a7.748,7.748,0,0,1-6.894-11.276l3.116-6.083h23.6a3.854,3.854,0,0,1,3.622,2.55Z" transform="translate(-35.269 -227.976)" fill="#ffe7cf"/>
        <path id="Trazado_163732" data-name="Trazado 163732" d="M136.261,294.735a17.318,17.318,0,0,0-.028,10.743c-.167.083-.339.167-.511.239a17.853,17.853,0,0,1-.866-4.755c-.006-.183-.011-.366-.011-.555a17.779,17.779,0,0,1,.889-5.844l8.754-26.6a2,2,0,0,1,.327.116,1.507,1.507,0,0,1,.183.1Z" transform="translate(-91.981 -182.786)" fill="#2f3f4f"/>
        <path id="Trazado_163733" data-name="Trazado 163733" d="M78.834,370.033v.555H52.488c-.061-.183-.111-.372-.155-.555Z" transform="translate(-35.698 -252.413)" fill="#2f3f4f"/>
        <path id="Trazado_163734" data-name="Trazado 163734" d="M127.481,442.329a.278.278,0,0,1-.037-.553l11.666-1.586a.278.278,0,1,1,.075.551l-11.666,1.586-.038,0" transform="translate(-86.77 -300.268)" fill="#0f0a1c"/>
        <path id="Trazado_163735" data-name="Trazado 163735" d="M228.057,422.817a.278.278,0,0,1-.138-.519l6.566-3.735a.278.278,0,0,1,.275.483l-6.566,3.735a.277.277,0,0,1-.137.036" transform="translate(-155.376 -285.492)" fill="#0f0a1c"/>
        <path id="Trazado_163736" data-name="Trazado 163736" d="M124.937,483.688l-.035,0-9.024-1.145a.278.278,0,0,1-.241-.311.282.282,0,0,1,.311-.24l9.024,1.144a.278.278,0,0,1-.035.553" transform="translate(-78.879 -328.781)" fill="#0f0a1c"/>
        <path id="Trazado_163737" data-name="Trazado 163737" d="M186.505,317.888a.272.272,0,0,1-.109-.023l-4.388-1.88a.278.278,0,0,1,.219-.51l4.388,1.88a.278.278,0,0,1-.109.533" transform="translate(-124.039 -215.181)" fill="#362e4d"/>
        <path id="Trazado_163738" data-name="Trazado 163738" d="M613.842,130.542s-3.613-3.424-4-4.354-1.517-5.845-1.517-5.845a3.9,3.9,0,0,1,4.071,0,4.686,4.686,0,0,1,1.033.968,5.5,5.5,0,0,1,.348.451,13.845,13.845,0,0,1,1.157,1.956c.082.164.166.333.242.5a17.619,17.619,0,0,1,.82,2.112c.061.186.11.371.157.539a3.888,3.888,0,0,1,.169,1.335c-.212,1.253-2.481,2.341-2.481,2.341" transform="translate(-414.961 -81.688)" fill="#f9b3a2"/>
        <path id="Trazado_163739" data-name="Trazado 163739" d="M626.108,140.97l-2.8,1.287a.278.278,0,1,1-.232-.5l2.871-1.322c.061.186.11.371.157.539" transform="translate(-424.915 -95.793)" fill="#2f3f4f"/>
        <path id="Trazado_163740" data-name="Trazado 163740" d="M622.6,132.715l-3,1.38a.278.278,0,0,1-.368-.136.275.275,0,0,1,.136-.368l2.987-1.375c.082.164.166.333.243.5" transform="translate(-422.387 -90.189)" fill="#2f3f4f"/>
        <path id="Trazado_163741" data-name="Trazado 163741" d="M618.677,125.094l-2.775,1.278a.279.279,0,0,1-.368-.136.275.275,0,0,1,.136-.369l2.659-1.224a5.359,5.359,0,0,1,.348.451" transform="translate(-419.859 -85.023)" fill="#2f3f4f"/>
        <path id="Trazado_163742" data-name="Trazado 163742" d="M371.413,73.5s-4.621,1.85-5.627,1.811-5.943-1.066-5.943-1.066a3.9,3.9,0,0,1,1.7-3.7,4.673,4.673,0,0,1,1.311-.533,5.371,5.371,0,0,1,.556-.128,13.833,13.833,0,0,1,2.261-.233c.183-.006.372-.011.555-.011a17.619,17.619,0,0,1,2.261.139c.194.022.383.056.555.083a3.9,3.9,0,0,1,1.283.405c1.05.717,1.089,3.233,1.089,3.233" transform="translate(-245.445 -47.503)" fill="#f9b3a2"/>
        <path id="Trazado_163743" data-name="Trazado 163743" d="M535.4,79.415l-2.078,2.934-2.511-.238a12.961,12.961,0,0,0-.869,4.625c.063,1.3.44,2.545.6,3.832a7.9,7.9,0,0,1-.786,3.884,9.333,9.333,0,0,0-1.141,3.7c.06,1.492.642,2.917.64,4.416a7.927,7.927,0,0,1-.482,2.478,13.649,13.649,0,0,0-.659,1.883c-.1.547-.117,1.116-.166,1.675H532.5a12.339,12.339,0,0,1,.129-1.8c.225-1.228.681-2.4.857-3.65.2-1.388-.811-4.444-.846-5.589a11.905,11.905,0,0,1,1.7-5.184c1.146-2.118.784-5.057.669-7.557a29.74,29.74,0,0,1,.387-5.412" transform="translate(-360.129 -54.172)" fill="#a66353"/>
        <path id="Trazado_163744" data-name="Trazado 163744" d="M640.826,272.031a15.767,15.767,0,0,0,2.336,5.6c1.62,2.037,5.08,5.045,6.284,4.814s.926-1.99.926-1.99-1.343-4.953-1.62-5.092-5.37-3.1-5.37-3.1Z" transform="translate(-437.13 -185.562)" fill="#f9b3a2"/>
        <path id="Trazado_163745" data-name="Trazado 163745" d="M503.032,256.785s-1.6,6.25-2.341,27,1.17,50.933,1.17,50.933H516.8l6.016-36.105Z" transform="translate(-341.423 -175.162)" fill="#4663ab"/>
        <path id="Trazado_163746" data-name="Trazado 163746" d="M517.58,472.308l-.056,18.375a2.682,2.682,0,0,1-.394.922,2.654,2.654,0,0,1-2.211,1.189h-19a1.327,1.327,0,0,1-1.283-1.705c.005-.011.005-.022.011-.033a24.3,24.3,0,0,1,4.277-3.066h.006l.333-.216c.156-.1.311-.2.472-.3,3.366-2.144,7.166-4.438,7.182-4.472.033-.083-1.483-12.137-1.483-12.137Z" transform="translate(-337.365 -321.193)" fill="#f9b3a2"/>
        <path id="Trazado_163747" data-name="Trazado 163747" d="M519.068,342.284s-3.614-29.951-4.355-41.046a60.618,60.618,0,0,1,1.483-18.871l16.2,20.367-5.831,54.619Z" transform="translate(-351.001 -192.613)" fill="#f9b3a2"/>
        <path id="Trazado_163748" data-name="Trazado 163748" d="M615.8,497.11H600.686a2.389,2.389,0,0,1-2.139-1.372,3.84,3.84,0,0,1-.394-1.228c-.528-3.627-2.661-17.886-2.661-17.886l12.148-1.444,1.439,12.4c.006.011,2.389,2.305,4.549,4.4,1.783,1.733,3.416,3.322,3.444,3.383.005.011.005.022.011.033a1.327,1.327,0,0,1-1.283,1.705" transform="translate(-406.206 -324.137)" fill="#f9b3a2"/>
        <path id="Trazado_163749" data-name="Trazado 163749" d="M531.178,54.654a6.35,6.35,0,0,0,6.841,4.449,6.243,6.243,0,0,0,1.078-.228,6.363,6.363,0,0,0,2.175-1.163c.08-.065.155-.127.227-.2a2.779,2.779,0,0,0,.207-.2,7.077,7.077,0,0,0,1.606-6.361,6.344,6.344,0,0,0-12.038-.3l0,.006a6.309,6.309,0,0,0-.371,2.375.162.162,0,0,0,0,.046,6.447,6.447,0,0,0,.272,1.572" transform="translate(-362.147 -31.691)" fill="#f9b3a2"/>
        <path id="Trazado_163750" data-name="Trazado 163750" d="M530.853,64.809a32.738,32.738,0,0,0,.277,7.31c.751,3.287,4.179,3.315,7,1.5a10.087,10.087,0,0,0,3.787-5.082s-5.531-2.561-6.238-2.554a47.081,47.081,0,0,1-4.829-1.168" transform="translate(-362.053 -44.209)" fill="#f9b3a2"/>
        <path id="Trazado_163751" data-name="Trazado 163751" d="M551.886,87.911l-4.7.95-4.049-1.089.211-3.433.122-1.933V82.4l.128-2.111,2.505-.755,3.855-3.588Z" transform="translate(-370.493 -51.806)" fill="#f9b3a2"/>
        <path id="Trazado_163752" data-name="Trazado 163752" d="M547.267,92.565a9.153,9.153,0,0,1-2.516,2.75,5.655,5.655,0,0,1-.95.361l.122-1.933v-.006s1.4-.383,2.094-.627a10.572,10.572,0,0,0,1.25-.545" transform="translate(-370.946 -63.142)" fill="#2f3f4f"/>
        <path id="Trazado_163753" data-name="Trazado 163753" d="M343.634,458.87l-.056,18.375a2.673,2.673,0,0,1-2.605,2.111h-19a1.327,1.327,0,0,1-1.283-1.705c.005-.011.005-.022.011-.033.111-.328,2.194-1.739,4.616-3.283.156-.1.311-.2.472-.3,3.366-2.144,7.166-4.438,7.182-4.472.033-.083-1.483-12.137-1.483-12.137Z" transform="translate(-218.711 -312.027)" fill="#f9b3a2"/>
        <path id="Trazado_163754" data-name="Trazado 163754" d="M438.126,483.008H423.011a2.452,2.452,0,0,1-2.533-2.6c.417-3.355,1.676-17.886,1.676-17.886l12.148-1.444-2.42,12.681c.011.017,2.289,2.228,4.333,4.244l.505.505c1.428,1.416,2.628,2.633,2.677,2.761.005.011.005.022.011.033a1.327,1.327,0,0,1-1.283,1.705" transform="translate(-286.811 -314.518)" fill="#f9b3a2"/>
        <path id="Trazado_163755" data-name="Trazado 163755" d="M339.026,514.852l-.233.144-.239.145-.089-.145-3.088-5.021c.155-.1.311-.2.472-.3Z" transform="translate(-228.773 -347.667)" fill="#2f3f4f"/>
        <path id="Trazado_163756" data-name="Trazado 163756" d="M402.318,95.831l-7.768,13.19-.985,1.674s-9.456-.965-16.11-2.248c-.2-.035-.4-.075-.588-.115-3.084-.612-5.445-1.3-5.775-1.973-.439-.9-.53-4.219-.493-7.8.051-5.034.415-10.526.415-10.526a9.927,9.927,0,0,1,1.037-.374c.51-.157,1.1-.331,1.526-.46.289-.087.505-.152.567-.165l.056-.013c.181-.044.367-.088.554-.132a29.231,29.231,0,0,1,16.534.994c.463.163.919.347,1.368.543a27.152,27.152,0,0,1,3.766,1.974,24.894,24.894,0,0,1,5.9,5.432" transform="translate(-252.794 -58.759)" fill="#f9b3a2"/>
        <path id="Trazado_163757" data-name="Trazado 163757" d="M433.153,32.417a2.768,2.768,0,0,1,2.191-1.772,2.894,2.894,0,0,1,2.48,1c.517.42,2,.162,3.094,1.128s1.611,1.837,1.257,3.158-.032,2.03-.193,3.319a4.061,4.061,0,0,1-2.317,2.915c-.969.371-4.279-1.755-4.525-2.11s-1.986-7.636-1.986-7.636" transform="translate(-295.469 -20.901)" fill="#2f3f4f"/>
        <path id="Trazado_163758" data-name="Trazado 163758" d="M426.242,34.989A4.91,4.91,0,0,0,423.82,33.8c-1.008.032-1.072,1.031-1.33,1.675s-1.128.257-1.385,1.482a8.161,8.161,0,0,0,.132,2.9s2.929-.064,3.348-.709a43.676,43.676,0,0,0,1.658-4.156" transform="translate(-287.19 -23.053)" fill="#2f3f4f"/>
        <path id="Trazado_163759" data-name="Trazado 163759" d="M419.745,72.5l-.521,3.877-.479,3.583-3.392.392-5.068-1.835,2.969-6.6.923-2.046Z" transform="translate(-279.87 -47.665)" fill="#f9b3a2"/>
        <path id="Trazado_163760" data-name="Trazado 163760" d="M426.118,72.505l-.521,3.877a7.373,7.373,0,0,1-3.506-.768,5.792,5.792,0,0,1-2.464-3.691l.923-2.046Z" transform="translate(-286.243 -47.665)" fill="#2f3f4f"/>
        <path id="Trazado_163761" data-name="Trazado 163761" d="M433.447,41.982v.046a7.013,7.013,0,0,1-.521,1.464,8.27,8.27,0,0,1-.438,1.026,6.986,6.986,0,0,1-.356.6c-.113.175-.232.346-.356.505a5.571,5.571,0,0,1-5.227,2.49,5.462,5.462,0,0,1-1.01-.253,5.546,5.546,0,0,1-3.562-5.97c.021-.227.051-.459.093-.686s.1-.443.16-.665c.021-.057.031-.088.031-.088.016-.057.036-.119.057-.175,1.01-2.9,3.516-4.98,6.212-4.758a3.627,3.627,0,0,1,.4.051c.134.026.268.052.4.088s.273.078.407.124a5.328,5.328,0,0,1,3.49,3.815,6.461,6.461,0,0,1,.216,2.382" transform="translate(-287.83 -24.22)" fill="#f9b3a2"/>
        <path id="Trazado_163762" data-name="Trazado 163762" d="M430.971,55.012s-.021.046-.052.129c-.077.175-.237.521-.464.964-.108.217-.242.459-.387.717v.005c-.711,1.237-1.634,2.887-2.969,3.6-2.27,1.218-3.81,1.309-4.869.943-1.1-.38-1.688-1.273-2.255-2.9-.665-1.913-.149-4.026.211-5.614v-.005c.005,0,.005,0,.005-.005.078-.335.155-.634.222-.887.108-.387.2-.665.247-.794.021-.057.031-.088.031-.088s.1.041.268.119c.082.036.175.082.289.134,1.464.665,5.135,2.191,5.583,2.552a18.061,18.061,0,0,0,3.753,1.041c.072.016.134.031.186.041.129.031.2.046.2.046" transform="translate(-286.26 -34.842)" fill="#f9b3a2"/>
        <path id="Trazado_163763" data-name="Trazado 163763" d="M427.332,68.912l3.7,1.592a2.529,2.529,0,0,1-3.7-1.592" transform="translate(-291.498 -47.007)" fill="#fff"/>
        <path id="Trazado_163764" data-name="Trazado 163764" d="M433.645,41.23l.059.954c-.057.521-.988,1.4-1.153,1.726-.078.175-.237.521-.464.964.031-.113.072-.232.108-.361.067-.227.134-.469.191-.711.005-.021.01-.046.015-.067.134-.6-.444,1.956-.676,1.575-.552-.9,1.474-3.275-.715-4.683a6.838,6.838,0,0,0-2.924-1.027c-1.51-.361-1.51-2.279-2.866-2.057-.748.124-1.975,2.3-2.737,3.32-.031.036.139-.933.108-.9-.17.227-.325.443-.459.634-.031.046-.057.088-.087.129.108-.387.2-.665.247-.794.021-.057.031-.088.031-.088.016-.057.036-.119.057-.175,1.01-2.9,3.223-5.265,5.919-5.044.134.01.561.312.7.337s.268.051.4.087.273.078.407.124a5.488,5.488,0,0,1,3.736,3.688,6.359,6.359,0,0,1,.106,2.365" transform="translate(-287.891 -23.611)" fill="#2f3f4f"/>
        <path id="Trazado_163765" data-name="Trazado 163765" d="M420.34,50.785a5.085,5.085,0,0,1-1.451,2.1,3.939,3.939,0,0,1-.548-2.557c.172-1.143.871-2.01,1.464-1.852s.833,1.193.535,2.31" transform="translate(-285.339 -33.054)" fill="#f9b3a2"/>
        <path id="Trazado_163766" data-name="Trazado 163766" d="M448.41,64.389a5.085,5.085,0,0,0-.56,2.49,3.907,3.907,0,0,0,2.33-1.384c.731-.9.81-1.948.291-2.277s-1.442.2-2.061,1.172" transform="translate(-305.493 -43.055)" fill="#f9b3a2"/>
        <path id="Trazado_163767" data-name="Trazado 163767" d="M395.038,116.216a27.018,27.018,0,0,1-1.689,5.094,100.162,100.162,0,0,1-4.6,9.209c-1.522,2.738-2.949,5.927-2.949,5.927l-9.954-1.711-10.365-2.5s-.228-2.772-.406-6.5q-.008-.175-.017-.35c-.017-.394-.033-.794-.05-1.205-.017-.433-.033-.878-.05-1.328q-.008-.275-.017-.55c-.022-.639-.039-1.294-.05-1.95-.006-.266-.011-.539-.011-.805s-.011-.533-.011-.8c-.017-2.038.011-4.06.122-5.871a25.478,25.478,0,0,1,.611-4.71c1.583-6.06,30.656,1.744,29.44,8.054" transform="translate(-248.885 -72.29)" fill="#f9b3a2"/>
        <path id="Trazado_163768" data-name="Trazado 163768" d="M326.175,82.2s-2.55,7.4-2.827,7.765-9.443,4.544-9.443,4.544-21.308,3.344-27.324,2.327-3.161-10.4-3.161-10.4,20.019-5.449,27.8-6.193a33.852,33.852,0,0,1,8.6.366c.189.028.378.061.556.094a36.493,36.493,0,0,1,5.8,1.494" transform="translate(-192.87 -54.654)" fill="#f9b3a2"/>
        <path id="Trazado_163769" data-name="Trazado 163769" d="M292.824,59.06l5.231-13.239-6.018-5.249-3.73.483s-8.344,16-9.232,19.587c-1.294,5.223,2.044,8.158,3.394,8.757,2.88,1.279,7.258-3.675,7.532-4.738a55.269,55.269,0,0,1,2.824-5.6" transform="translate(-190.167 -27.676)" fill="#f9b3a2"/>
        <path id="Trazado_163770" data-name="Trazado 163770" d="M326.23,46.9a7.985,7.985,0,0,0,1.085-.286c2.326-.8,4.432-3.58,6.676-4.577a4.67,4.67,0,0,0,1.6-.9,1.091,1.091,0,0,0,.023-1.587,1.337,1.337,0,0,0-.557-.2c-1.542-.26-3.057.486-4.577.869a39.97,39.97,0,0,1-4.716.606,8.074,8.074,0,0,0-4.369,1.66,1.611,1.611,0,0,0-.426.521,1.7,1.7,0,0,0-.1.777c.043,1.074-.074,2.291,1.272,2.365,1.483.081,2.645,1.031,4.093.753" transform="translate(-218.87 -26.804)" fill="#f9b3a2"/>
        <path id="Trazado_163771" data-name="Trazado 163771" d="M308.5,29.1s.139-6.644.876-8,5.3-1.354,7.037-.774,1.548,6.643,1.548,7.031-4.3,3.186-5.332,3.593S308.5,29.1,308.5,29.1" transform="translate(-210.436 -13.618)" fill="#f9b3a2"/>
        <path id="Trazado_163772" data-name="Trazado 163772" d="M328.576,7.38s.688-6.193,1.247-6.88a1.5,1.5,0,0,1,2.236,0c.774.645-.946,12.987-.946,12.987s-3.483.473-3.569,0,1.032-6.106,1.032-6.106" transform="translate(-223.426 0)" fill="#f9b3a2"/>
        <path id="Trazado_163773" data-name="Trazado 163773" d="M336.307,11.695s4.128-7.311,5.031-7.483,1.849.344,1.419,2.236-4.6,10.633-4.6,10.633l-3.2.161Z" transform="translate(-228.491 -2.852)" fill="#f9b3a2"/>
        <path id="Trazado_163774" data-name="Trazado 163774" d="M311.285,27.807c-.423,0-.86-.009-1.314-.027a.278.278,0,0,1-.266-.289.266.266,0,0,1,.289-.266,27.98,27.98,0,0,0,3-.028,3.356,3.356,0,0,0,1.886-.673,1.871,1.871,0,0,0,.779-1.33c.117-.6.442-2.686.511-3.49a.271.271,0,0,1,.3-.253.278.278,0,0,1,.253.3c-.073.835-.4,2.918-.519,3.548a2.424,2.424,0,0,1-.985,1.664,3.944,3.944,0,0,1-2.188.787c-.561.037-1.137.056-1.742.056" transform="translate(-211.26 -14.632)" fill="#362e4d"/>
        <path id="Trazado_163775" data-name="Trazado 163775" d="M318.6,28.239h-.025a.278.278,0,0,1-.252-.3l.466-5.3a.278.278,0,1,1,.553.049l-.466,5.3a.278.278,0,0,1-.277.253" transform="translate(-217.139 -15.266)" fill="#362e4d"/>
        <path id="Trazado_163776" data-name="Trazado 163776" d="M321.9,46.25a.281.281,0,0,1-.085-.013.278.278,0,0,1-.18-.349,6.513,6.513,0,0,1,1.97-2.975,5.757,5.757,0,0,1,4.7-.714.278.278,0,0,1-.169.529,5.291,5.291,0,0,0-4.219.644,6.072,6.072,0,0,0-1.754,2.687.278.278,0,0,1-.264.193" transform="translate(-219.392 -28.637)" fill="#362e4d"/>
        <path id="Trazado_163777" data-name="Trazado 163777" d="M322.362,96.272a.271.271,0,0,1-.085-.013.277.277,0,0,1-.18-.349l2.229-6.97a.278.278,0,1,1,.529.169l-2.229,6.97a.278.278,0,0,1-.264.193" transform="translate(-219.705 -60.537)" fill="#362e4d"/>
        <path id="Trazado_163778" data-name="Trazado 163778" d="M468.982,108.387l-5.371,11.387-18.264-6.388V95.85l2.466,1.311.494.261.444.233,2.083,1.106Z" transform="translate(-303.787 -65.383)" fill="#f9b3a2"/>
        <path id="Trazado_163779" data-name="Trazado 163779" d="M500.521,166.723l9.657,3.789-.775-7.825s-6.722-1.778-6.675-1.51-2.207,5.545-2.207,5.545" transform="translate(-341.423 -109.926)" fill="#f9b3a2"/>
        <path id="Trazado_163780" data-name="Trazado 163780" d="M467.628,106.143s-8.1.908-13.376,5.213c-4.135,3.372-14.942,10.068-14.942,10.068l-7.072,14.089a25.384,25.384,0,0,0,11.691-.635c6.249-1.869,20.97-12.517,20.97-12.517l4.235-12.047Z" transform="translate(-294.846 -72.404)" fill="#f9b3a2"/>
        <path id="Trazado_163781" data-name="Trazado 163781" d="M366.791,188.584l20.321,4.212s5.621,10.955,8.193,17.239c4.421,10.8,8.272,22.06,8.888,33.864.437,8.395-.648,40.156-.648,40.156l-21.154-.231s2.358-35.192,1.942-40.746-14.856-30.053-14.856-30.053l-2.685-18.076Z" transform="translate(-250.201 -128.64)" fill="#a66353"/>
        <path id="Trazado_163782" data-name="Trazado 163782" d="M345.433,188.584s-7.73,6.434-8.564,19.349-1.389,72.489-1.389,72.489h22.5s-2.5-67.906-2.5-68.323-.277-12.772-.833-13.607-9.211-9.908-9.211-9.908" transform="translate(-228.844 -128.64)" fill="#a66353"/>
        <path id="Trazado_163783" data-name="Trazado 163783" d="M342.785,526.431H321.477a.849.849,0,1,1,0-1.7h21.308a.849.849,0,1,1,0,1.7" transform="translate(-218.712 -357.939)" fill="#a66353"/>
        <path id="Trazado_163784" data-name="Trazado 163784" d="M438.234,529.757H420.259a.849.849,0,1,1,0-1.7h17.975a.849.849,0,1,1,0,1.7" transform="translate(-286.095 -360.208)" fill="#a66353"/>
        <path id="Trazado_163785" data-name="Trazado 163785" d="M455.818,514.829a9.929,9.929,0,0,0-3.233.855,6.729,6.729,0,0,0-3.6,3.416l-.528-.189a7.227,7.227,0,0,1,3.9-3.733,10.6,10.6,0,0,1,2.955-.855l.505.505" transform="translate(-305.909 -350.839)" fill="#2f3f4f"/>
        <path id="Trazado_163786" data-name="Trazado 163786" d="M393.349,125.112a100.208,100.208,0,0,1-4.6,9.21c-3.86-.717-11.381-2.127-14.936-2.928-2.9-.65-5.844-1.166-8.737-1.861l0,0c-.022-.507-.043-1.021-.065-1.553-.017-.433-.033-.878-.05-1.327q-.009-.275-.017-.55c-.022-.639-.039-1.294-.05-1.95-.005-.267-.011-.539-.011-.805s-.011-.533-.011-.8c-.017-2.039.011-4.061.122-5.871l7.615-5.125,3.312,3.783a10.107,10.107,0,0,0,9.9,2.159l4.378-1.4Z" transform="translate(-248.884 -76.092)" fill="#ffe7cf"/>
        <path id="Trazado_163787" data-name="Trazado 163787" d="M392.142,81.772l-3.661,10.209-.522-.183,3.627-10.121c.189.028.378.061.555.094" transform="translate(-264.641 -55.715)" fill="#ffe7cf"/>
        <path id="Trazado_163788" data-name="Trazado 163788" d="M446.555,100.236l-2.961,8.221-.289.8-.528-.189.817-2.261,2.466-6.832Z" transform="translate(-302.035 -68.196)" fill="#ffe7cf"/>
        <path id="Trazado_163789" data-name="Trazado 163789" d="M425.969,102.635l-5.488,5.071-10.076,9.315-1.511-1.633,11.587-10.709,3.4-3.15Z" transform="translate(-278.921 -69.257)" fill="#2f3f4f"/>
        <path id="Trazado_163790" data-name="Trazado 163790" d="M354.253,179.417h0a1.11,1.11,0,0,1,.47-1.5l8.535-6.014,1.029,1.969-8.535,6.014a1.11,1.11,0,0,1-1.5-.47" transform="translate(-241.562 -117.262)" fill="#2f3f4f"/>
        <path id="Trazado_163791" data-name="Trazado 163791" d="M359.6,156.4l2.888,3.587a2.282,2.282,0,0,0,3.243.317l14.839-12.446a2.281,2.281,0,0,0,.3-3.2l-3.022-3.67a2.281,2.281,0,0,0-3.241-.287L359.9,153.232a2.281,2.281,0,0,0-.3,3.168" transform="translate(-244.953 -95.607)" fill="#f57c64"/>
        <path id="Trazado_163792" data-name="Trazado 163792" d="M363.428,160.165a.278.278,0,0,1-.179-.49L380.5,145.155a.278.278,0,0,1,.358.425L363.606,160.1a.276.276,0,0,1-.178.065" transform="translate(-247.717 -98.971)" fill="#362e4d"/>
        <path id="Trazado_163793" data-name="Trazado 163793" d="M533.335,82.726l4.027-.084s-.348.779-1.812,1a2.3,2.3,0,0,1-2.215-.916" transform="translate(-363.807 -56.373)" fill="#fff"/>
        <path id="Trazado_163794" data-name="Trazado 163794" d="M535.7,48.546a5.43,5.43,0,0,0,2.364,2.266,20.9,20.9,0,0,1,2.61,1.062,3.79,3.79,0,0,1,1.421,2.157,5.336,5.336,0,0,1,.255,1.413,3.607,3.607,0,0,0,.261,1.482,4.322,4.322,0,0,0,1.592,1.568,9.248,9.248,0,0,0,1.259.783,18.916,18.916,0,0,0,1.954-7.121,5.889,5.889,0,0,0-5.3-5.833,8.012,8.012,0,0,0-4.374.623,7.726,7.726,0,0,0-2.041,1.6" transform="translate(-365.421 -31.556)" fill="#a66353"/>
        <path id="Trazado_163795" data-name="Trazado 163795" d="M536.882,131.1c-.289,1.344-.539,2.511-.75,3.516-.822,3.894-1.117,5.394-1.117,5.394l-7.182,3.077-13.281-2.727s-.383-2.8-.789-5.744c-.378-2.733-.772-5.588-.905-6.432-.278-1.761-2.439-3.4-2.222-7.316.322-5.833,10.459-14.725,10.459-14.725h8.227s7,1.205,9.643,2.783.556,9.876-2.083,22.174" transform="translate(-348.313 -72.404)" fill="#2f3f4f"/>
        <path id="Trazado_163796" data-name="Trazado 163796" d="M557.368,304.64H518.485l-3.633-20.691-.255-1.467-6.127-34.916s-.994-11.521-1-16.525a38.8,38.8,0,0,1,4.933-18l20.464-.35s3.672,3.077,6.866,12.659c4.177,12.531,10.387,42.354,14.215,61.64.166.811.322,1.606.472,2.378,1.789,9.065,2.95,15.275,2.95,15.275" transform="translate(-346.163 -145.082)" fill="#4663ab"/>
        <path id="Trazado_163797" data-name="Trazado 163797" d="M542.876,195.72c-.822,3.894-1.117,5.394-1.117,5.394l-7.182,3.077L521.3,201.464s-.383-2.8-.789-5.743Z" transform="translate(-355.056 -133.508)" fill="#4663ab"/>
        <path id="Trazado_163798" data-name="Trazado 163798" d="M514.295,487.033a.278.278,0,0,1-.278-.278v-2.129a.278.278,0,1,1,.556,0v2.129a.278.278,0,0,1-.278.278" transform="translate(-350.629 -330.391)" fill="#fff"/>
        <path id="Trazado_163799" data-name="Trazado 163799" d="M542.045,487.033a.278.278,0,0,1-.278-.278v-2.129a.278.278,0,1,1,.556,0v2.129a.278.278,0,0,1-.278.278" transform="translate(-369.559 -330.391)" fill="#fff"/>
        <path id="Trazado_163800" data-name="Trazado 163800" d="M569.795,487.033a.278.278,0,0,1-.278-.278v-2.129a.278.278,0,1,1,.556,0v2.129a.278.278,0,0,1-.278.278" transform="translate(-388.488 -330.391)" fill="#fff"/>
        <path id="Trazado_163801" data-name="Trazado 163801" d="M597.545,487.033a.278.278,0,0,1-.278-.278v-2.129a.278.278,0,1,1,.556,0v2.129a.278.278,0,0,1-.278.278" transform="translate(-407.417 -330.391)" fill="#fff"/>
        <path id="Trazado_163802" data-name="Trazado 163802" d="M625.832,487.033a.278.278,0,0,1-.278-.278v-2.129a.278.278,0,1,1,.556,0v2.129a.278.278,0,0,1-.278.278" transform="translate(-426.713 -330.391)" fill="#fff"/>
        <path id="Trazado_163803" data-name="Trazado 163803" d="M653.732,487.033a.278.278,0,0,1-.278-.278v-2.129a.278.278,0,1,1,.556,0v2.129a.278.278,0,0,1-.278.278" transform="translate(-445.744 -330.391)" fill="#fff"/>
        <path id="Trazado_163804" data-name="Trazado 163804" d="M639.678,469.325a.278.278,0,0,1-.278-.278v-2.129a.278.278,0,1,1,.556,0v2.129a.278.278,0,0,1-.278.278" transform="translate(-436.157 -318.312)" fill="#fff"/>
        <path id="Trazado_163805" data-name="Trazado 163805" d="M612.3,469.325a.278.278,0,0,1-.278-.278v-2.129a.278.278,0,0,1,.556,0v2.129a.278.278,0,0,1-.278.278" transform="translate(-417.483 -318.312)" fill="#fff"/>
        <path id="Trazado_163806" data-name="Trazado 163806" d="M584.924,469.325a.278.278,0,0,1-.278-.278v-2.129a.278.278,0,1,1,.556,0v2.129a.278.278,0,0,1-.278.278" transform="translate(-398.808 -318.312)" fill="#fff"/>
        <path id="Trazado_163807" data-name="Trazado 163807" d="M557.546,469.325a.278.278,0,0,1-.278-.278v-2.129a.278.278,0,0,1,.556,0v2.129a.278.278,0,0,1-.278.278" transform="translate(-380.132 -318.312)" fill="#fff"/>
        <path id="Trazado_163808" data-name="Trazado 163808" d="M514.295,448.822a.278.278,0,0,1-.278-.278v-2.129a.278.278,0,0,1,.556,0v2.129a.278.278,0,0,1-.278.278" transform="translate(-350.629 -304.326)" fill="#fff"/>
        <path id="Trazado_163809" data-name="Trazado 163809" d="M542.045,448.822a.278.278,0,0,1-.278-.278v-2.129a.278.278,0,0,1,.556,0v2.129a.278.278,0,0,1-.278.278" transform="translate(-369.559 -304.326)" fill="#fff"/>
        <path id="Trazado_163810" data-name="Trazado 163810" d="M569.795,448.822a.278.278,0,0,1-.278-.278v-2.129a.278.278,0,0,1,.556,0v2.129a.278.278,0,0,1-.278.278" transform="translate(-388.488 -304.326)" fill="#fff"/>
        <path id="Trazado_163811" data-name="Trazado 163811" d="M597.545,448.822a.278.278,0,0,1-.278-.278v-2.129a.278.278,0,0,1,.556,0v2.129a.278.278,0,0,1-.278.278" transform="translate(-407.417 -304.326)" fill="#fff"/>
        <path id="Trazado_163812" data-name="Trazado 163812" d="M625.832,448.822a.278.278,0,0,1-.278-.278v-2.129a.278.278,0,0,1,.556,0v2.129a.278.278,0,0,1-.278.278" transform="translate(-426.713 -304.326)" fill="#fff"/>
        <path id="Trazado_163813" data-name="Trazado 163813" d="M654,448.811a.276.276,0,0,1-.544-.067v-2.128a.26.26,0,0,1,.073-.183c.167.811.322,1.605.472,2.377" transform="translate(-445.746 -304.528)" fill="#fff"/>
        <path id="Trazado_163814" data-name="Trazado 163814" d="M639.678,431.113a.278.278,0,0,1-.278-.278v-2.129a.278.278,0,1,1,.556,0v2.129a.278.278,0,0,1-.278.278" transform="translate(-436.157 -292.246)" fill="#fff"/>
        <path id="Trazado_163815" data-name="Trazado 163815" d="M612.3,431.113a.278.278,0,0,1-.278-.278v-2.129a.278.278,0,0,1,.556,0v2.129a.278.278,0,0,1-.278.278" transform="translate(-417.483 -292.246)" fill="#fff"/>
        <path id="Trazado_163816" data-name="Trazado 163816" d="M584.924,431.113a.278.278,0,0,1-.278-.278v-2.129a.278.278,0,1,1,.556,0v2.129a.278.278,0,0,1-.278.278" transform="translate(-398.808 -292.246)" fill="#fff"/>
        <path id="Trazado_163817" data-name="Trazado 163817" d="M557.546,431.113a.278.278,0,0,1-.278-.278v-2.129a.278.278,0,0,1,.556,0v2.129a.278.278,0,0,1-.278.278" transform="translate(-380.132 -292.246)" fill="#fff"/>
        <path id="Trazado_163818" data-name="Trazado 163818" d="M502.791,431.113a.278.278,0,0,1-.278-.278v-2.129a.278.278,0,0,1,.556,0v2.129a.278.278,0,0,1-.278.278" transform="translate(-342.782 -292.246)" fill="#fff"/>
        <path id="Trazado_163819" data-name="Trazado 163819" d="M514.295,410.61a.278.278,0,0,1-.278-.278V408.2a.278.278,0,0,1,.556,0v2.129a.278.278,0,0,1-.278.278" transform="translate(-350.629 -278.26)" fill="#fff"/>
        <path id="Trazado_163820" data-name="Trazado 163820" d="M542.045,410.61a.278.278,0,0,1-.278-.278V408.2a.278.278,0,0,1,.556,0v2.129a.278.278,0,0,1-.278.278" transform="translate(-369.559 -278.26)" fill="#fff"/>
        <path id="Trazado_163821" data-name="Trazado 163821" d="M569.795,410.61a.278.278,0,0,1-.278-.278V408.2a.278.278,0,0,1,.556,0v2.129a.278.278,0,0,1-.278.278" transform="translate(-388.488 -278.26)" fill="#fff"/>
        <path id="Trazado_163822" data-name="Trazado 163822" d="M597.545,410.61a.278.278,0,0,1-.278-.278V408.2a.278.278,0,0,1,.556,0v2.129a.278.278,0,0,1-.278.278" transform="translate(-407.417 -278.26)" fill="#fff"/>
        <path id="Trazado_163823" data-name="Trazado 163823" d="M625.832,410.61a.278.278,0,0,1-.278-.278V408.2a.278.278,0,0,1,.556,0v2.129a.278.278,0,0,1-.278.278" transform="translate(-426.713 -278.26)" fill="#fff"/>
        <path id="Trazado_163824" data-name="Trazado 163824" d="M639.678,392.9a.278.278,0,0,1-.278-.278v-2.129a.278.278,0,1,1,.556,0v2.129a.278.278,0,0,1-.278.278" transform="translate(-436.157 -266.18)" fill="#fff"/>
        <path id="Trazado_163825" data-name="Trazado 163825" d="M612.3,392.9a.278.278,0,0,1-.278-.278v-2.129a.278.278,0,0,1,.556,0v2.129a.278.278,0,0,1-.278.278" transform="translate(-417.483 -266.18)" fill="#fff"/>
        <path id="Trazado_163826" data-name="Trazado 163826" d="M584.924,392.9a.278.278,0,0,1-.278-.278v-2.129a.278.278,0,1,1,.556,0v2.129a.278.278,0,0,1-.278.278" transform="translate(-398.808 -266.18)" fill="#fff"/>
        <path id="Trazado_163827" data-name="Trazado 163827" d="M557.546,392.9a.278.278,0,0,1-.278-.278v-2.129a.278.278,0,0,1,.556,0v2.129a.278.278,0,0,1-.278.278" transform="translate(-380.132 -266.18)" fill="#fff"/>
        <path id="Trazado_163828" data-name="Trazado 163828" d="M530.169,392.9a.278.278,0,0,1-.278-.278v-2.129a.278.278,0,1,1,.556,0v2.129a.278.278,0,0,1-.278.278" transform="translate(-361.457 -266.18)" fill="#fff"/>
        <path id="Trazado_163829" data-name="Trazado 163829" d="M502.791,392.9a.278.278,0,0,1-.278-.278v-2.129a.278.278,0,0,1,.556,0v2.129a.278.278,0,0,1-.278.278" transform="translate(-342.782 -266.18)" fill="#fff"/>
        <path id="Trazado_163830" data-name="Trazado 163830" d="M514.295,372.4a.278.278,0,0,1-.278-.278v-2.129a.278.278,0,0,1,.556,0v2.129a.278.278,0,0,1-.278.278" transform="translate(-350.629 -252.194)" fill="#fff"/>
        <path id="Trazado_163831" data-name="Trazado 163831" d="M542.045,372.4a.278.278,0,0,1-.278-.278v-2.129a.278.278,0,0,1,.556,0v2.129a.278.278,0,0,1-.278.278" transform="translate(-369.559 -252.194)" fill="#fff"/>
        <path id="Trazado_163832" data-name="Trazado 163832" d="M569.795,372.4a.278.278,0,0,1-.278-.278v-2.129a.278.278,0,0,1,.556,0v2.129a.278.278,0,0,1-.278.278" transform="translate(-388.488 -252.194)" fill="#fff"/>
        <path id="Trazado_163833" data-name="Trazado 163833" d="M597.545,372.4a.278.278,0,0,1-.278-.278v-2.129a.278.278,0,0,1,.556,0v2.129a.278.278,0,0,1-.278.278" transform="translate(-407.417 -252.194)" fill="#fff"/>
        <path id="Trazado_163834" data-name="Trazado 163834" d="M625.832,372.4a.278.278,0,0,1-.278-.278v-2.129a.278.278,0,0,1,.556,0v2.129a.278.278,0,0,1-.278.278" transform="translate(-426.713 -252.194)" fill="#fff"/>
        <path id="Trazado_163835" data-name="Trazado 163835" d="M612.3,354.69a.278.278,0,0,1-.278-.278v-2.129a.278.278,0,0,1,.556,0v2.129a.278.278,0,0,1-.278.278" transform="translate(-417.483 -240.115)" fill="#fff"/>
        <path id="Trazado_163836" data-name="Trazado 163836" d="M584.924,354.69a.278.278,0,0,1-.278-.278v-2.129a.278.278,0,0,1,.556,0v2.129a.278.278,0,0,1-.278.278" transform="translate(-398.808 -240.115)" fill="#fff"/>
        <path id="Trazado_163837" data-name="Trazado 163837" d="M557.546,354.69a.278.278,0,0,1-.278-.278v-2.129a.278.278,0,0,1,.556,0v2.129a.278.278,0,0,1-.278.278" transform="translate(-380.132 -240.115)" fill="#fff"/>
        <path id="Trazado_163838" data-name="Trazado 163838" d="M530.169,354.69a.278.278,0,0,1-.278-.278v-2.129a.278.278,0,0,1,.556,0v2.129a.278.278,0,0,1-.278.278" transform="translate(-361.457 -240.115)" fill="#fff"/>
        <path id="Trazado_163839" data-name="Trazado 163839" d="M502.791,354.69a.278.278,0,0,1-.278-.278v-2.129a.278.278,0,0,1,.556,0v2.129a.278.278,0,0,1-.278.278" transform="translate(-342.782 -240.115)" fill="#fff"/>
        <path id="Trazado_163840" data-name="Trazado 163840" d="M514.295,334.186a.278.278,0,0,1-.278-.278v-2.129a.278.278,0,0,1,.556,0v2.129a.278.278,0,0,1-.278.278" transform="translate(-350.629 -226.129)" fill="#fff"/>
        <path id="Trazado_163841" data-name="Trazado 163841" d="M542.045,334.186a.278.278,0,0,1-.278-.278v-2.129a.278.278,0,0,1,.556,0v2.129a.278.278,0,0,1-.278.278" transform="translate(-369.559 -226.129)" fill="#fff"/>
        <path id="Trazado_163842" data-name="Trazado 163842" d="M569.795,334.186a.278.278,0,0,1-.278-.278v-2.129a.278.278,0,0,1,.556,0v2.129a.278.278,0,0,1-.278.278" transform="translate(-388.488 -226.129)" fill="#fff"/>
        <path id="Trazado_163843" data-name="Trazado 163843" d="M597.545,334.186a.278.278,0,0,1-.278-.278v-2.129a.278.278,0,0,1,.556,0v2.129a.278.278,0,0,1-.278.278" transform="translate(-407.417 -226.129)" fill="#fff"/>
        <path id="Trazado_163844" data-name="Trazado 163844" d="M625.832,334.186a.278.278,0,0,1-.278-.278v-2.129a.278.278,0,0,1,.556,0v2.129a.278.278,0,0,1-.278.278" transform="translate(-426.713 -226.129)" fill="#fff"/>
        <path id="Trazado_163845" data-name="Trazado 163845" d="M612.3,316.478a.278.278,0,0,1-.278-.278V314.07a.278.278,0,0,1,.556,0V316.2a.278.278,0,0,1-.278.278" transform="translate(-417.483 -214.049)" fill="#fff"/>
        <path id="Trazado_163846" data-name="Trazado 163846" d="M584.924,316.478a.278.278,0,0,1-.278-.278V314.07a.278.278,0,0,1,.556,0V316.2a.278.278,0,0,1-.278.278" transform="translate(-398.808 -214.049)" fill="#fff"/>
        <path id="Trazado_163847" data-name="Trazado 163847" d="M557.546,316.478a.278.278,0,0,1-.278-.278V314.07a.278.278,0,0,1,.556,0V316.2a.278.278,0,0,1-.278.278" transform="translate(-380.132 -214.049)" fill="#fff"/>
        <path id="Trazado_163848" data-name="Trazado 163848" d="M530.169,316.478a.278.278,0,0,1-.278-.278V314.07a.278.278,0,0,1,.556,0V316.2a.278.278,0,0,1-.278.278" transform="translate(-361.457 -214.049)" fill="#fff"/>
        <path id="Trazado_163849" data-name="Trazado 163849" d="M502.791,316.478a.278.278,0,0,1-.278-.278V314.07a.278.278,0,0,1,.556,0V316.2a.278.278,0,0,1-.278.278" transform="translate(-342.782 -214.049)" fill="#fff"/>
        <path id="Trazado_163850" data-name="Trazado 163850" d="M514.295,295.973a.277.277,0,0,1-.278-.278v-2.129a.278.278,0,0,1,.556,0V295.7a.277.277,0,0,1-.278.278" transform="translate(-350.629 -200.063)" fill="#fff"/>
        <path id="Trazado_163851" data-name="Trazado 163851" d="M542.045,295.973a.277.277,0,0,1-.278-.278v-2.129a.278.278,0,0,1,.556,0V295.7a.277.277,0,0,1-.278.278" transform="translate(-369.559 -200.063)" fill="#fff"/>
        <path id="Trazado_163852" data-name="Trazado 163852" d="M569.795,295.973a.277.277,0,0,1-.278-.278v-2.129a.278.278,0,0,1,.556,0V295.7a.277.277,0,0,1-.278.278" transform="translate(-388.488 -200.063)" fill="#fff"/>
        <path id="Trazado_163853" data-name="Trazado 163853" d="M597.545,295.973a.277.277,0,0,1-.278-.278v-2.129a.278.278,0,0,1,.556,0V295.7a.277.277,0,0,1-.278.278" transform="translate(-407.417 -200.063)" fill="#fff"/>
        <path id="Trazado_163854" data-name="Trazado 163854" d="M612.3,278.266a.278.278,0,0,1-.278-.278v-2.129a.278.278,0,0,1,.556,0v2.129a.278.278,0,0,1-.278.278" transform="translate(-417.483 -187.984)" fill="#fff"/>
        <path id="Trazado_163855" data-name="Trazado 163855" d="M584.924,278.266a.278.278,0,0,1-.278-.278v-2.129a.278.278,0,0,1,.556,0v2.129a.278.278,0,0,1-.278.278" transform="translate(-398.808 -187.984)" fill="#fff"/>
        <path id="Trazado_163856" data-name="Trazado 163856" d="M557.546,278.266a.278.278,0,0,1-.278-.278v-2.129a.278.278,0,0,1,.556,0v2.129a.278.278,0,0,1-.278.278" transform="translate(-380.132 -187.984)" fill="#fff"/>
        <path id="Trazado_163857" data-name="Trazado 163857" d="M530.169,278.266a.278.278,0,0,1-.278-.278v-2.129a.278.278,0,0,1,.556,0v2.129a.278.278,0,0,1-.278.278" transform="translate(-361.457 -187.984)" fill="#fff"/>
        <path id="Trazado_163858" data-name="Trazado 163858" d="M514.295,257.761a.277.277,0,0,1-.278-.278v-2.129a.278.278,0,1,1,.556,0v2.129a.277.277,0,0,1-.278.278" transform="translate(-350.629 -173.997)" fill="#fff"/>
        <path id="Trazado_163859" data-name="Trazado 163859" d="M542.045,257.761a.277.277,0,0,1-.278-.278v-2.129a.278.278,0,1,1,.556,0v2.129a.277.277,0,0,1-.278.278" transform="translate(-369.559 -173.997)" fill="#fff"/>
        <path id="Trazado_163860" data-name="Trazado 163860" d="M569.795,257.761a.277.277,0,0,1-.278-.278v-2.129a.278.278,0,1,1,.556,0v2.129a.277.277,0,0,1-.278.278" transform="translate(-388.488 -173.997)" fill="#fff"/>
        <path id="Trazado_163861" data-name="Trazado 163861" d="M597.545,257.761a.277.277,0,0,1-.278-.278v-2.129a.278.278,0,1,1,.556,0v2.129a.277.277,0,0,1-.278.278" transform="translate(-407.417 -173.997)" fill="#fff"/>
        <path id="Trazado_163862" data-name="Trazado 163862" d="M584.924,240.053a.278.278,0,0,1-.278-.278v-2.129a.278.278,0,1,1,.556,0v2.129a.278.278,0,0,1-.278.278" transform="translate(-398.808 -161.917)" fill="#fff"/>
        <path id="Trazado_163863" data-name="Trazado 163863" d="M557.546,240.053a.278.278,0,0,1-.278-.278v-2.129a.278.278,0,0,1,.556,0v2.129a.278.278,0,0,1-.278.278" transform="translate(-380.132 -161.917)" fill="#fff"/>
        <path id="Trazado_163864" data-name="Trazado 163864" d="M530.169,240.053a.278.278,0,0,1-.278-.278v-2.129a.278.278,0,1,1,.556,0v2.129a.278.278,0,0,1-.278.278" transform="translate(-361.457 -161.917)" fill="#fff"/>
        <path id="Trazado_163865" data-name="Trazado 163865" d="M542.045,219.55a.278.278,0,0,1-.278-.278v-2.129a.278.278,0,1,1,.556,0v2.129a.278.278,0,0,1-.278.278" transform="translate(-369.559 -147.931)" fill="#fff"/>
        <path id="Trazado_163866" data-name="Trazado 163866" d="M569.795,219.55a.278.278,0,0,1-.278-.278v-2.129a.278.278,0,1,1,.556,0v2.129a.278.278,0,0,1-.278.278" transform="translate(-388.488 -147.931)" fill="#fff"/>
        <path id="Trazado_163867" data-name="Trazado 163867" d="M584.924,201.842a.278.278,0,0,1-.278-.278v-2.129a.278.278,0,1,1,.556,0v2.129a.278.278,0,0,1-.278.278" transform="translate(-398.808 -135.852)" fill="#fff"/>
        <path id="Trazado_163868" data-name="Trazado 163868" d="M557.546,201.842a.278.278,0,0,1-.278-.278v-2.129a.278.278,0,0,1,.556,0v2.129a.278.278,0,0,1-.278.278" transform="translate(-380.132 -135.852)" fill="#fff"/>
        <path id="Trazado_163869" data-name="Trazado 163869" d="M530.169,201.842a.278.278,0,0,1-.278-.278v-2.129a.278.278,0,1,1,.556,0v2.129a.278.278,0,0,1-.278.278" transform="translate(-361.457 -135.852)" fill="#fff"/>
        <path id="Trazado_163870" data-name="Trazado 163870" d="M517.13,528.355a2.654,2.654,0,0,1-2.211,1.189h-19a1.327,1.327,0,0,1-1.283-1.705c.006-.011.006-.022.011-.033a24.278,24.278,0,0,1,4.277-3.066h.005s2.705,3.455,4.438,3.594c1.239.1,9.265.056,13.764.022" transform="translate(-337.365 -357.943)" fill="#2f3f4f"/>
        <path id="Trazado_163871" data-name="Trazado 163871" d="M622.357,533.18H607.243a2.389,2.389,0,0,1-2.139-1.372h9.976a10.506,10.506,0,0,1,2.05-2.405,5.127,5.127,0,0,1,3.055-1.344c1.783,1.733,3.417,3.322,3.444,3.383.005.011.005.022.011.033a1.327,1.327,0,0,1-1.283,1.705" transform="translate(-412.763 -360.208)" fill="#2f3f4f"/>
        <path id="Trazado_163872" data-name="Trazado 163872" d="M596.444,142.7c-.975-4.033-2.843-7.929-4.495-11.715-1.949-4.464-3.994-8.887-6.079-13.288-1.053-2.223-1.871-4.563-3.5-6.457-2.963-3.445-7.646-4.951-12.915-5.1a82.021,82.021,0,0,0,2.331,10.107,46.291,46.291,0,0,0,4.331,9.267c.9,1.83,1.88,3.619,2.833,5.417a95.631,95.631,0,0,0,7.461,12.569,14.946,14.946,0,0,0,1.262,1.515c4.263,4.365,10.378,4.328,8.77-2.319" transform="translate(-388.445 -72.404)" fill="#f9b3a2"/>
        <path id="Trazado_163873" data-name="Trazado 163873" d="M633.416,200.509,629.9,201.9h-6.2s-.156-.372-.406-.983c-.272-.65-.65-1.561-1.072-2.572-.961-2.316-2.139-5.138-2.689-6.443-1.016-2.411-4.238-9.56-4.238-9.56l3.222-14.142s5.016,5.827,7.388,11.337c1.494,3.477,4.094,10.915,5.81,15.931.339.983.639,1.877.894,2.627.5,1.483.811,2.416.811,2.416" transform="translate(-419.712 -114.733)" fill="#f9b3a2"/>
        <path id="Trazado_163874" data-name="Trazado 163874" d="M662.32,326.7,657.2,297.129a1.286,1.286,0,0,1,1.046-1.485l6.91-1.2a1.285,1.285,0,0,1,1.485,1.046l5.124,29.567Zm3.052-31.435a.455.455,0,0,0-.077.007l-6.91,1.2a.452.452,0,0,0-.367.522L663,325.733l7.8-1.352-4.981-28.746a.452.452,0,0,0-.444-.374" transform="translate(-448.284 -200.84)" fill="#2f3f4f"/>
        <path id="Trazado_163875" data-name="Trazado 163875" d="M688.64,390.24l6.311,36.418-22.987,3.983a1.946,1.946,0,0,1-2.248-1.584l-7.259-41.891a1.946,1.946,0,0,1,1.584-2.248l13.683-2.371a9.442,9.442,0,0,1,10.917,7.692" transform="translate(-451.866 -260.854)" fill="#ffcfa6"/>
        <path id="Trazado_163876" data-name="Trazado 163876" d="M719.494,467.254l1.607,9.271a1.946,1.946,0,0,1-1.584,2.248l-21.345,3.7-3.542-20.436,14.011-2.428a9.312,9.312,0,0,1,4.522.327c.144.048.293.1.433.156a.006.006,0,0,1,.007,0,9.368,9.368,0,0,1,5.891,7.159" transform="translate(-473.832 -313.419)" fill="#ffcfa6"/>
        <path id="Trazado_163877" data-name="Trazado 163877" d="M691.991,535.319a1.62,1.62,0,1,1-1.873-1.32,1.62,1.62,0,0,1,1.873,1.32" transform="translate(-469.837 -364.243)" fill="#2f3f4f"/>
        <path id="Trazado_163878" data-name="Trazado 163878" d="M771.482,521.544a1.62,1.62,0,1,1-1.873-1.32,1.62,1.62,0,0,1,1.873,1.32" transform="translate(-524.061 -354.847)" fill="#2f3f4f"/>
        <rect id="Rectángulo_42803" data-name="Rectángulo 42803" width="0.556" height="46.404" transform="matrix(0.985, -0.171, 0.171, 0.985, 216.143, 123.378)" fill="#2f3f4f"/>
        <path id="Trazado_163879" data-name="Trazado 163879" d="M713.291,461.406l-18.472,3.2a.278.278,0,1,1-.095-.547l18.472-3.2a.278.278,0,0,1,.095.547" transform="translate(-473.739 -314.365)" fill="#2f3f4f"/>
        <path id="Trazado_163880" data-name="Trazado 163880" d="M665.947,294.561l-6.02,1.043a1.111,1.111,0,0,1-1.285-.9l-.052-.3a1.111,1.111,0,0,1,.9-1.284l6.021-1.043a1.111,1.111,0,0,1,1.284.9l.052.3a1.111,1.111,0,0,1-.905,1.284" transform="translate(-449.237 -199.222)" fill="#2f3f4f"/>
        <path id="Trazado_163881" data-name="Trazado 163881" d="M658.807,273.021a2.657,2.657,0,0,1-.044.594,2.212,2.212,0,0,1-.128.467,1.814,1.814,0,0,1-.816.878,3.546,3.546,0,0,1-.506.244c-.061.028-.122.05-.183.072a11.193,11.193,0,0,1-1.139.35,3.649,3.649,0,0,1-.555.111,2.8,2.8,0,0,1-2.033-.305c-1.105-.744-4.982-4.91-5.954-5.6s-2.222-3.561-2.222-3.561l3.61-3.7,4.777,1.811c.4.416.778.855,1.144,1.294a23.673,23.673,0,0,1,3.288,4.816,8.94,8.94,0,0,1,.617,1.594,4.583,4.583,0,0,1,.144.944" transform="translate(-440.132 -179.103)" fill="#f9b3a2"/>
        <path id="Trazado_163882" data-name="Trazado 163882" d="M647.47,256.608l-9.315,2.822c-.272-.65-.65-1.561-1.072-2.572l9.493-2.877c.339.983.639,1.878.894,2.628" transform="translate(-434.577 -173.249)" fill="#2f3f4f"/>
        <path id="Trazado_163883" data-name="Trazado 163883" d="M653.742,257.748a1.87,1.87,0,1,0-1.87,1.87,1.87,1.87,0,0,0,1.87-1.87" transform="translate(-443.39 -174.543)" fill="#fff"/>
        <path id="Trazado_163884" data-name="Trazado 163884" d="M670.371,290.151a3.624,3.624,0,0,1-.555.111c-.2-.539-.511-1.311-.984-2.294a16.6,16.6,0,0,0-2.45-3.644.28.28,0,0,1,.011-.394.275.275,0,0,1,.394.017,16.5,16.5,0,0,1,2.544,3.783c.5,1.05.828,1.861,1.039,2.422" transform="translate(-454.512 -193.627)" fill="#362e4d"/>
        <path id="Trazado_163885" data-name="Trazado 163885" d="M676.845,288.567a3.545,3.545,0,0,1-.505.244c-.195-.533-.506-1.278-.95-2.211a21.961,21.961,0,0,0-2.211-3.644.275.275,0,1,1,.433-.339,21.419,21.419,0,0,1,2.277,3.744c.444.927.75,1.667.956,2.205" transform="translate(-459.158 -192.709)" fill="#362e4d"/>
        <path id="Trazado_163886" data-name="Trazado 163886" d="M681.377,285.613a2.65,2.65,0,0,1-.044.594c-.139-.322-.3-.683-.489-1.078a16.328,16.328,0,0,0-2.455-3.644.268.268,0,0,1,.016-.389.273.273,0,0,1,.389.011,16.9,16.9,0,0,1,2.439,3.56,4.582,4.582,0,0,1,.144.944" transform="translate(-462.702 -191.695)" fill="#362e4d"/>
        <path id="Trazado_163887" data-name="Trazado 163887" d="M656.022,289.977a.277.277,0,0,1-.175-.062l-2.291-1.862a.278.278,0,0,1,.35-.431l2.291,1.862a.278.278,0,0,1-.175.493" transform="translate(-445.744 -196.155)" fill="#362e4d"/>
        <path id="Trazado_163888" data-name="Trazado 163888" d="M543.574,103.556s.229,2.413,3.355,2.551a5.914,5.914,0,0,0,4.871-2.551l-2.994-1.205Z" transform="translate(-370.791 -69.817)" fill="#f9b3a2"/>
        <path id="Trazado_163889" data-name="Trazado 163889" d="M555.877,71.333,553.8,74.267l-2.091-.312a14.618,14.618,0,0,0-.937,4.907c.064,1.3.089,2.336.245,3.623a7.9,7.9,0,0,1-.786,3.884,9.338,9.338,0,0,0-1.141,3.7c.06,1.492.642,2.917.64,4.416a7.936,7.936,0,0,1-.482,2.478,13.6,13.6,0,0,0-.659,1.883c-.1.547-.117,1.116-.166,1.675h4.558a12.291,12.291,0,0,1,.13-1.8c.225-1.228.681-2.4.857-3.65.2-1.388-.811-4.444-.846-5.589a11.9,11.9,0,0,1,1.7-5.184c1.146-2.118.783-5.057.669-7.557a29.752,29.752,0,0,1,.386-5.412" transform="translate(-374.097 -48.659)" fill="#a66353"/>
        <path id="Trazado_163890" data-name="Trazado 163890" d="M555.092,68.987a2.159,2.159,0,1,1-2.157-2.245,2.2,2.2,0,0,1,2.157,2.245" transform="translate(-375.705 -45.527)" fill="#f9b3a2"/>
        <path id="Trazado_163891" data-name="Trazado 163891" d="M566.1,45.907a1.25,1.25,0,1,0-1.25,1.25,1.25,1.25,0,0,0,1.25-1.25" transform="translate(-384.449 -30.462)" fill="#a66353"/>
        <path id="Trazado_163892" data-name="Trazado 163892" d="M557.034,78.762l-.518,3.989a.231.231,0,0,0,.23.261h1.262a.232.232,0,0,0,.228-.274l-.745-3.989a.232.232,0,0,0-.457.013" transform="translate(-379.618 -53.589)" fill="#fff"/>
        <path id="Trazado_163893" data-name="Trazado 163893" d="M455.172,133.71a.278.278,0,0,1-.156-.507l13.636-9.263a.278.278,0,1,1,.312.459l-13.636,9.263a.276.276,0,0,1-.156.048" transform="translate(-310.299 -84.511)" fill="#362e4d"/>
        <path id="Trazado_163894" data-name="Trazado 163894" d="M432.645,188.119a.282.282,0,0,1-.124-.029.278.278,0,0,1-.124-.373l1.893-3.777a.278.278,0,0,1,.5.249l-1.893,3.777a.278.278,0,0,1-.249.153" transform="translate(-294.933 -125.367)" fill="#362e4d"/>
        <path id="Trazado_163895" data-name="Trazado 163895" d="M359.909,80.4a.278.278,0,0,1-.049-.551,51.5,51.5,0,0,1,5.761-.673,23.553,23.553,0,0,1,5.509.34.278.278,0,0,1-.115.544,23.772,23.772,0,0,0-5.369-.328,50.86,50.86,0,0,0-5.687.664.3.3,0,0,1-.05,0" transform="translate(-245.317 -53.99)" fill="#2f3f4f"/>
        <path id="Trazado_163896" data-name="Trazado 163896" d="M387.641,70.158v3.077a.278.278,0,1,1-.555,0V70.075c.194.022.383.056.555.083" transform="translate(-264.045 -47.801)" fill="#2f3f4f"/>
        <path id="Trazado_163897" data-name="Trazado 163897" d="M378.781,69.638v3.3a.278.278,0,0,1-.278.278.275.275,0,0,1-.277-.278V69.649c.183-.005.372-.011.555-.011" transform="translate(-258.001 -47.503)" fill="#2f3f4f"/>
        <path id="Trazado_163898" data-name="Trazado 163898" d="M369.921,70.407v3.055a.278.278,0,0,1-.278.278.275.275,0,0,1-.278-.278V70.535a5.452,5.452,0,0,1,.555-.128" transform="translate(-251.958 -48.027)" fill="#2f3f4f"/>
        <path id="Trazado_163899" data-name="Trazado 163899" d="M614.46,131.6a.278.278,0,0,1-.258-.174c0-.011-.5-1.223-2.126-4.729a26.066,26.066,0,0,0-2.8-4.945.278.278,0,0,1,.43-.352,25.949,25.949,0,0,1,2.876,5.063c1.638,3.524,2.133,4.744,2.137,4.756a.277.277,0,0,1-.258.381" transform="translate(-415.565 -82.742)" fill="#2f3f4f"/>
        <path id="Trazado_163900" data-name="Trazado 163900" d="M502.747,172.651a.278.278,0,0,1-.159-.506l3.6-2.515a.278.278,0,0,1,.318.456l-3.6,2.515a.277.277,0,0,1-.159.05" transform="translate(-342.752 -115.677)" fill="#362e4d"/>
        <path id="Trazado_163901" data-name="Trazado 163901" d="M543.539,213.314H524.052a.278.278,0,1,1,0-.555h19.488a.278.278,0,1,1,0,.555" transform="translate(-357.285 -145.13)" fill="#362e4d"/>
        <path id="Trazado_163902" data-name="Trazado 163902" d="M508.341,317.871a.278.278,0,0,1-.272-.223l-3.22-15.853a.278.278,0,0,1,.545-.111l3.22,15.853a.278.278,0,0,1-.217.328.311.311,0,0,1-.056.005" transform="translate(-344.371 -205.639)" fill="#362e4d"/>
        <path id="Trazado_163903" data-name="Trazado 163903" d="M399.321,283.627a.278.278,0,0,1-.278-.278v-9.733a.278.278,0,1,1,.556,0v9.733a.278.278,0,0,1-.278.278" transform="translate(-272.201 -186.454)" fill="#362e4d"/>
        <path id="Trazado_163904" data-name="Trazado 163904" d="M396.295,198.9a1.18,1.18,0,1,1,1.18-1.18,1.182,1.182,0,0,1-1.18,1.18m0-1.805a.625.625,0,1,0,.625.625.626.626,0,0,0-.625-.625" transform="translate(-269.521 -134.068)" fill="#362e4d"/>
      </g>
    </g>
    <rect id="Rectángulo_42862" data-name="Rectángulo 42862" width="261" height="225" transform="translate(7604 -11248)" fill="none"/>
  </g>
</svg>
