<svg xmlns="http://www.w3.org/2000/svg" xmlns:xlink="http://www.w3.org/1999/xlink" width="261" height="225" viewBox="0 0 261 225">
  <defs>
    <clipPath id="clip-path">
      <rect id="Rect치ngulo_42867" data-name="Rect치ngulo 42867" width="101.928" height="212.23" fill="none"/>
    </clipPath>
  </defs>
  <g id="Grupo_169998" data-name="Grupo 169998" transform="translate(-8227 11248)">
    <rect id="Rect치ngulo_42864" data-name="Rect치ngulo 42864" width="261" height="225" transform="translate(8227 -11248)" fill="none"/>
    <g id="Grupo_169997" data-name="Grupo 169997" transform="translate(8307 -11242)">
      <g id="Grupo_169996" data-name="Grupo 169996" clip-path="url(#clip-path)">
        <path id="Trazado_164214" data-name="Trazado 164214" d="M93.522,273.494c-.005,10.026-.157,30.876-.032,37.322.148,7.707-1.673,39.57-1.745,39.87s-.541.926-3.685,1.223a8.908,8.908,0,0,1-5.006-.784c-.521-2.1-6.034-41.882-7.305-50.345s-4.941-28.97-5.242-32.263-2.318-2.471-2.618-.449-5.475,28.392-6.962,38.48c-1.676,11.342-8.274,42.339-8.274,42.339-2.849,2.394-8.472,0-8.472,0s-.063-6.109.014-13.219.413-28,.787-34.959c.34-6.383.812-34.213,1.171-40.856.032-.607.063-1.038.094-1.258,1.469.072,5.224.2,9.963-.036,5.758-.279,8.09-.958,8.418-1.1.025-.013.04-.023.04-.023.059-.054-.14-5.251-.368-10.789,0-.076-.009-.157-.015-.234,4.034.023,8.306.054,12.263.086,0,.021.005.048.005.077.269,5.987.467,11.309.467,11.309S89,259.66,93.53,256.452c0,0-.116,6.823-.027,12.582.013.943.019,2.494.019,4.46" transform="translate(-26.33 -146.936)" fill="#92bab4"/>
        <path id="Trazado_164215" data-name="Trazado 164215" d="M67.576,273.775c-.387.216-3.689,1.971-10.251,2.662a25.787,25.787,0,0,1-8.224-.268c.032-.607.063-1.038.095-1.258,1.468.072,5.224.2,9.962-.036,5.759-.279,8.09-.958,8.418-1.1" transform="translate(-29.279 -163.251)" fill="#0f0601"/>
        <path id="Trazado_164216" data-name="Trazado 164216" d="M142.045,283.862c.013.943.019,2.494.019,4.46l-4.074-3.18-1.99-10a41.444,41.444,0,0,1-10.439-2.429s11.984,1.773,16.511-1.434c0,0-.116,6.823-.027,12.582" transform="translate(-74.872 -161.764)" fill="#0f0601"/>
        <path id="Trazado_164217" data-name="Trazado 164217" d="M4.308,216.137C3.6,217.317-.215,226.749.009,232.7s6.221,15.712,20.347,10.831V214.972s-6.569,6.825-10.514,6.483c-4.144-.359-5.536-5.318-5.536-5.318" transform="translate(0 -128.187)" fill="#4c5346"/>
        <path id="Trazado_164218" data-name="Trazado 164218" d="M136.291,101.046c-5-8.085-19.735-13.669-26.6-14.21,0,0,.046.637.126,1.73.292,4.06,1.038,14.474,1.569,22.436.673,10.106,2.871,19.556,3.443,26.2.266,3.1.56,8.868.8,14.137,0,.025,0,.052,0,.078.272,5.99.47,11.313.47,11.313s11.983,1.771,16.509-1.436v-.005a.083.083,0,0,0,0-.017c.006-.235.066-2.568-.017-6.145a139.18,139.18,0,0,0-2.969-26.649,67.51,67.51,0,0,1,6.669-3.293c1.8-.774,3.441-1.46,4.693-1.977,1.468-.6,2.4-.978,2.4-.978-.263-.3-2.1-13.1-7.093-21.186" transform="translate(-65.405 -51.78)" fill="#5b2d24"/>
        <path id="Trazado_164219" data-name="Trazado 164219" d="M46.929,146.014c.072,1.643.656,16.115.6,16.169-.072.076-2.318.826-8.458,1.123-4.739.234-8.494.108-9.963.036-.431-.017-.669-.036-.669-.036s.9-14,1.123-22.682v-.019c.018-.71.009-1.423-.013-2.138a24.352,24.352,0,0,0,5.628-12.218,12.563,12.563,0,0,1-2.767-1.814,8.248,8.248,0,0,1-2.847-4.4l-2.892,2.412a5.848,5.848,0,0,0-.553-.512,101.5,101.5,0,0,0-9.446-6.1c-.768-.454-1.258-.736-1.258-.736s3.5-9.945,6.7-14.383c3.467-4.8,4.582-6.4,10.677-9.89l.664-.377a30.871,30.871,0,0,1,7.923-3c3.54-.836,6.28-.912,6.307-.633.013.157.08.633.157,1.185a.136.136,0,0,0-.009.171c.005-.108.009-.171.009-.171.008.071.023.144.031.22.148,1.038.328,2.246.328,2.246.355,2.421-1.019,14.019-1.562,21.313s-.01,27.269.291,34.232" transform="translate(-9.19 -51.683)" fill="#5b2d24"/>
        <path id="Trazado_164220" data-name="Trazado 164220" d="M166.461,271.225a.086.086,0,0,1,0,.023h0Z" transform="translate(-99.259 -161.731)" fill="#4c418c"/>
        <path id="Trazado_164221" data-name="Trazado 164221" d="M95.682,90.139c.007-.109.011-.172.011-.172a.146.146,0,0,0-.011.172" transform="translate(-57.041 -53.647)" fill="#4c418c"/>
        <path id="Trazado_164222" data-name="Trazado 164222" d="M24.056,500.248a119.05,119.05,0,0,0-13.648,9.014l22.384-.172-.263-8.842c-2.844,2.4-8.473,0-8.473,0" transform="translate(-6.206 -298.297)" fill="#663527"/>
        <path id="Trazado_164223" data-name="Trazado 164223" d="M148.223,504.7c-.075.3-1.2.713-4.341,1.013s-4.35-.574-4.35-.574a35.856,35.856,0,0,0-.642,6.491l22.084.347Z" transform="translate(-82.808 -300.954)" fill="#663527"/>
        <path id="Trazado_164224" data-name="Trazado 164224" d="M124.4,246.739c0-.015,0-.033,0-.049Z" transform="translate(-74.178 -147.101)" fill="#cc911b"/>
        <path id="Trazado_164225" data-name="Trazado 164225" d="M105.184,153.414c-.237-5.236-.53-10.939-.794-14.017-.572-6.647-2.771-16.1-3.443-26.2-.482-7.213-1.139-16.436-1.476-21.127-.18,2.023-1.127,3.02-3.166,2.787-1.46-.168-2.246-2.1-2.643-4.337,0,0-.006,0-.007,0,.149,1.038.328,2.245.328,2.245.354,2.424-1.022,14.018-1.562,21.314s-.009,27.27.29,34.233c.071,1.656.147,3.433.219,5.184l0-.037a88.5,88.5,0,0,0,12.256-.038" transform="translate(-54.972 -53.973)" fill="#ffb859"/>
        <path id="Trazado_164226" data-name="Trazado 164226" d="M124.379,246.323c0,.049.005.1.007.148Z" transform="translate(-74.167 -146.882)" fill="#1572a0"/>
        <path id="Trazado_164227" data-name="Trazado 164227" d="M106.286,246.52l0-.049c0-.05-.005-.1-.007-.148a88.569,88.569,0,0,1-12.256.038l0,.037.155,3.79s7.621,1.639,12.27,0Z" transform="translate(-56.064 -146.882)" fill="#e9632e"/>
        <path id="Trazado_164228" data-name="Trazado 164228" d="M57.253,133.315a45.993,45.993,0,0,1-6.814,8.439c.019-.709.009-1.423-.013-2.138a24.747,24.747,0,0,0,5.52-11.468c.041-.247.077-.5.108-.75,0,0-.067-.031-.184-.09a12.831,12.831,0,0,1-2.583-1.725c1.276-7.106.8-14.8.624-20.792-.161-5.444-.292-10.6-.241-12.819l.664-.377a26.238,26.238,0,0,1,3.324-1.567c.107-.045.215-.085.323-.126a35.174,35.174,0,0,1,4.276-1.3c-.018,1.949-.018,7.662.557,14.472.876,10.33-1.855,23.877-5.561,30.242" transform="translate(-30.069 -52.833)" fill="#4c5346"/>
        <path id="Trazado_164229" data-name="Trazado 164229" d="M101.12,83.721c-.18,2.022-1.128,3.019-3.166,2.786-1.46-.166-2.246-2.1-2.642-4.335a26.246,26.246,0,0,1-.354-4.046c0-.22,0-.436,0-.643a7.936,7.936,0,0,0,2.7.265,6.97,6.97,0,0,0,3.39-1.231c-.022.391-.039.84-.054,1.329a36.1,36.1,0,0,0,.108,3.909,11.3,11.3,0,0,1,.023,1.967" transform="translate(-56.62 -45.627)" fill="#f0875e"/>
        <path id="Trazado_164230" data-name="Trazado 164230" d="M94.171,13.655a8.63,8.63,0,0,0-2.19-3.86c-.786-.73.562-4.323-.393-6.007S88.45-.479,85.134,1.2c-.81.413-.845.449-2.024-.449a5.787,5.787,0,0,0-4.6-.505c-1.235.394-2.3.45-4.324.9s-4.21,2.312-4.771,6.181.28,5.142-.449,6.3a6.635,6.635,0,0,0-.562,5.2c.674,1.517,1.348,2.359,1.123,3.2a3.349,3.349,0,0,0,1.908,4.1,13.524,13.524,0,0,0,2.691.916,20.232,20.232,0,0,1-1.174-4.061c-1.2-6.288-.524-10.105,1.272-12.127s4.118-1.2,6.738-1.947S84.112,7.2,86.124,7.343c4.268.3,4.492,10.929,4.341,14.6a11.133,11.133,0,0,1-1.773,5.011,4.186,4.186,0,0,0,3.739-2.559c.617-1.629-.337-2.751.28-3.706a7.585,7.585,0,0,0,.618-4.884c-.449-1.235.954-1.038.842-2.147" transform="translate(-40.599 0)" fill="#85402b"/>
        <path id="Trazado_164231" data-name="Trazado 164231" d="M92.418,18.171c-2.011-.141-2.544.824-5.165,1.571s-4.941-.074-6.737,1.947-2.471,5.839-1.272,12.127a20.163,20.163,0,0,0,1.174,4.061c1.087,2.576,2.672,4.192,4.807,4.806a7.9,7.9,0,0,0,2.7.266,6.951,6.951,0,0,0,3.389-1.232,12.862,12.862,0,0,0,3.671-3.937,11.125,11.125,0,0,0,1.773-5.011c.15-3.669-.074-14.3-4.341-14.6" transform="translate(-46.893 -10.827)" fill="#f0875e"/>
        <path id="Trazado_164232" data-name="Trazado 164232" d="M97.137,49.326a3.168,3.168,0,0,1-1.216-.208c-.215-.1-.334-.219-.353-.365-.06-.44.41-6.732.619-7.8a.168.168,0,0,1,.2-.134.171.171,0,0,1,.134.2c-.2,1.033-.67,7.3-.617,7.694a.636.636,0,0,0,.325.165,3.4,3.4,0,0,0,2.5-.282.168.168,0,0,1,.189.279,3.273,3.273,0,0,1-1.78.457" transform="translate(-56.983 -24.337)" fill="#0f0601"/>
        <path id="Trazado_164233" data-name="Trazado 164233" d="M91.469,65.836s4.323,1.1,6.764-.337a3.367,3.367,0,0,1-3.382,3.257,3.194,3.194,0,0,1-3.382-3.033Z" transform="translate(-54.543 -39.057)" fill="#fff"/>
        <path id="Trazado_164234" data-name="Trazado 164234" d="M88.2,41.437c0,.69-.264,1.248-.589,1.248s-.59-.558-.59-1.248.264-1.25.59-1.25.589.56.589,1.25" transform="translate(-51.887 -23.963)" fill="#0f0601"/>
        <path id="Trazado_164235" data-name="Trazado 164235" d="M109.4,40.95c0,.69-.263,1.248-.589,1.248s-.59-.558-.59-1.248.264-1.25.59-1.25.589.56.589,1.25" transform="translate(-64.534 -23.673)" fill="#0f0601"/>
        <path id="Trazado_164236" data-name="Trazado 164236" d="M86.273,35.18c.06-.433-.374-1.449-2.134-1.362s-3.293.95-3.182,1.362,1.312,0,2.678,0,2.6.27,2.638,0" transform="translate(-48.271 -20.163)" fill="#85402b"/>
        <path id="Trazado_164237" data-name="Trazado 164237" d="M110.9,33.953a4.26,4.26,0,0,0-3.385-.823c-1.555.224-1.967.786-1.892,1.347s.936.225,2.226,0,3.3-.3,3.051-.524" transform="translate(-62.976 -19.723)" fill="#85402b"/>
        <path id="Trazado_164238" data-name="Trazado 164238" d="M146.334,246.95h4.042l4.605,22.449s-2.47,1.349-4.323,0Z" transform="translate(-87.259 -147.256)" fill="#ccdedd"/>
        <path id="Trazado_164239" data-name="Trazado 164239" d="M156.347,234.331l24.143-8.543,5.5,22.682-25.04,8.31Z" transform="translate(-93.229 -134.637)" fill="#e9632e"/>
        <path id="Trazado_164240" data-name="Trazado 164240" d="M161.041,280.906c-.675,2.47-2.546,5.689-1.8,6.138s3.145-2.395,3.145-2.395a11.543,11.543,0,0,1-1.66,3.668c-1.411,2.245-1.559,2.918-1.037,3.294s3.332-2.769,3.332-2.769-3.07,3.93-2.3,4.042c.483.07,3.568-2.322,3.867-2.77s-2.732,2.522-1.759,2.8,3.519-1.9,4.492-4.593a38.821,38.821,0,0,0,1.5-6.438,4.912,4.912,0,0,1-4.878-.6c-2.459-1.8-2.907-.373-2.907-.373" transform="translate(-94.853 -167.185)" fill="#f0875e"/>
        <path id="Trazado_164241" data-name="Trazado 164241" d="M174.519,225.787h-3.855l-24.33,8.543h4.042Z" transform="translate(-87.258 -134.636)" fill="#dceae7"/>
        <path id="Trazado_164242" data-name="Trazado 164242" d="M172.718,197.671a90.745,90.745,0,0,1-3.889,22.536c-3.073,2.021-7.533-1.316-7.533-1.316a12.972,12.972,0,0,0,.759-3.863V215a51.637,51.637,0,0,0-.013-6.143,140.7,140.7,0,0,0-2.825-26.013c-.045-.215-.094-.427-.144-.637a67.174,67.174,0,0,1,6.666-3.293c1.8-.776,3.441-1.459,4.694-1.977.108.3.26.751.435,1.352a57.884,57.884,0,0,1,1.851,19.377" transform="translate(-94.854 -105.51)" fill="#ffb859"/>
        <path id="Trazado_164243" data-name="Trazado 164243" d="M57.266,130.072A40.122,40.122,0,0,1,52.95,139a.165.165,0,0,1-.14.076.18.18,0,0,1-.094-.027.172.172,0,0,1-.05-.233,40.13,40.13,0,0,0,4.524-9.581c3.943-12.033,3.333-26.241,1.788-37.281.107-.045.215-.085.323-.126,1.59,11.32,2.2,25.971-2.035,38.246" transform="translate(-31.389 -54.756)" fill="#0f0601"/>
        <path id="Trazado_164244" data-name="Trazado 164244" d="M153.451,178.752a.17.17,0,0,1-.167-.146c-1.053-7.575-5.268-15.865-5.31-15.947a.169.169,0,0,1,.3-.153c.042.083,4.282,8.422,5.343,16.054a.168.168,0,0,1-.142.191l-.025,0" transform="translate(-88.225 -96.846)" fill="#0f0601"/>
        <path id="Trazado_164245" data-name="Trazado 164245" d="M76.1,98.668c-1.323,0-2.5,2.206-2.5,4.135s2.077,5.75,5.559,4.43Z" transform="translate(-43.886 -58.835)" fill="#79b3b7"/>
        <path id="Trazado_164246" data-name="Trazado 164246" d="M77.507,98.234c-1.769,1.081-1.993,3.649-.817,5.9s3.594,3.424,5.221,2.133.9-3.93-.618-6.344-3.077-2.117-3.786-1.685" transform="translate(-45.294 -58.401)" fill="#a4d2d8"/>
        <path id="Trazado_164247" data-name="Trazado 164247" d="M126.23,95.208a5.3,5.3,0,0,0-3.818-2.342c1.464.4,2.27,2.268,2.752,4.7.534,2.683-.369,5.32-2.752,5.643v.033c5.839-1.4,4.716-6.568,3.818-8.029" transform="translate(-72.994 -55.376)" fill="#79b3b7"/>
        <path id="Trazado_164248" data-name="Trazado 164248" d="M115.419,92.677c-1.638.14-3.366,1.635-3.3,4.892s.909,5.556,3.661,5.551a3.642,3.642,0,0,0,.5-.033V92.755a2.428,2.428,0,0,0-.853-.078" transform="translate(-66.853 -55.258)" fill="#a4d2d8"/>
        <path id="Trazado_164249" data-name="Trazado 164249" d="M125.165,97.571c-.482-2.427-1.287-4.283-2.752-4.688v10.332c2.383-.323,3.287-2.96,2.752-5.643" transform="translate(-72.995 -55.386)" fill="#a4d2d8"/>
        <path id="Trazado_164250" data-name="Trazado 164250" d="M62.829,155.95c.053.673-3.616,5.542-6.76,8.085a10.185,10.185,0,0,1-3.966-2.842c-1.8-2.1-1.648-3.37-1.648-3.37.673-1.872,2.7-6.589,4.717-7.11s7.411-1.051,7.487-.3c.068.665-1.582,1.451-1.95,1.617.08-.032.225-.085.4-.145a3.539,3.539,0,0,1,.692-.138.989.989,0,0,1,.857.237c.5.566-.552,1.271-1.5,1.851.09-.049.221-.117.36-.189h.005a2.727,2.727,0,0,1,.821-.278c.207-.023.373.021.441.188.184.449-.279,1.491-.876,2.268,0,0-.009.009-.013.018a3.64,3.64,0,0,1-.535.588,6,6,0,0,1,.786-.525c.337-.179.656-.26.679.045" transform="translate(-30.084 -89.467)" fill="#f0875e"/>
        <path id="Trazado_164251" data-name="Trazado 164251" d="M31.305,169.323a24.351,24.351,0,0,1-5.628,12.218c-3.723,4.509-8.156,6.859-10.017,6.872-4.416.036-6.738-4.64-6.738-11.6,0-5.992,1.622-13.25,3.36-16.924.171-.364.346-.692.516-.979a101.447,101.447,0,0,1,9.446,6.1l-.148,1.1.7-.584,2.891-2.413c.9,4.119,5.615,6.212,5.615,6.212" transform="translate(-5.321 -94.756)" fill="#ffb859"/>
        <path id="Trazado_164252" data-name="Trazado 164252" d="M117.959,99.761c-.87-.3-1.58,4.662-.512,4.829s1.642-4.435.512-4.829" transform="translate(-69.713 -59.48)" fill="#f89613"/>
        <path id="Trazado_164253" data-name="Trazado 164253" d="M82.691,105.529c-1.092.583.73,4.1,1.685,3.316s-.731-3.827-1.685-3.316" transform="translate(-49.107 -62.892)" fill="#f89613"/>
        <path id="Trazado_164254" data-name="Trazado 164254" d="M75.864,83.458s-4.333-9.167,3.21-11.594a3.754,3.754,0,0,0,1.144,1.352s-5.047,2-3.507,9.469Z" transform="translate(-44.499 -42.852)" fill="#f89613"/>
        <path id="Trazado_164255" data-name="Trazado 164255" d="M113.686,70.7a6.566,6.566,0,0,1,3.523,7.8,5.163,5.163,0,0,1,1.45.362,7.913,7.913,0,0,0-3.31-10.1Z" transform="translate(-67.791 -40.999)" fill="#f89613"/>
        <path id="Trazado_164256" data-name="Trazado 164256" d="M72.452,154.269a8.307,8.307,0,0,1-4.021,1.3h-.008a.108.108,0,0,1-.109-.108.112.112,0,0,1,.1-.117,7.824,7.824,0,0,0,3.342-.939,3.536,3.536,0,0,1,.692-.138" transform="translate(-40.735 -91.99)" fill="#0f0601"/>
        <path id="Trazado_164257" data-name="Trazado 164257" d="M73.521,158.286a14.189,14.189,0,0,1-4.19,1.945c-.009,0-.017,0-.027,0a.12.12,0,0,1-.112-.085.113.113,0,0,1,.08-.135,15.578,15.578,0,0,0,3.423-1.451H72.7a2.738,2.738,0,0,1,.821-.278" transform="translate(-41.257 -94.386)" fill="#0f0601"/>
        <path id="Trazado_164258" data-name="Trazado 164258" d="M75.454,164.478a8.859,8.859,0,0,1-2.538,1.783.134.134,0,0,1-.044.009.114.114,0,0,1-.1-.068.109.109,0,0,1,.059-.147,9.111,9.111,0,0,0,2.372-1.64,3.655,3.655,0,0,1-.535.588,5.953,5.953,0,0,1,.786-.526" transform="translate(-43.388 -98.04)" fill="#0f0601"/>
        <path id="Trazado_164259" data-name="Trazado 164259" d="M60.481,377.364a.094.094,0,0,1-.03,0,4.3,4.3,0,0,1-2.465-1.914.111.111,0,0,1,.046-.151.113.113,0,0,1,.152.047,4.152,4.152,0,0,0,2.326,1.8.111.111,0,0,1,.078.138.112.112,0,0,1-.108.082" transform="translate(-34.569 -223.78)" fill="#0f0601"/>
        <path id="Trazado_164260" data-name="Trazado 164260" d="M140.342,372.723h-.008c-.952-.065-1.864-1.87-1.9-1.945a.112.112,0,1,1,.2-.1c.009.017.895,1.767,1.719,1.823a.112.112,0,0,1-.007.224" transform="translate(-82.539 -220.997)" fill="#0f0601"/>
        <path id="Trazado_164261" data-name="Trazado 164261" d="M101.043,76.517c-.022.391-.039.84-.054,1.329a7.187,7.187,0,0,1-6.032.28c0-.22,0-.436,0-.643a7.936,7.936,0,0,0,2.7.265,6.971,6.971,0,0,0,3.39-1.231" transform="translate(-56.62 -45.627)" fill="#8a3c30"/>
        <path id="Trazado_164262" data-name="Trazado 164262" d="M170.867,178.294c-3.188,2.435-11.548,4.891-11.548,4.891l-.1-.336c-.045-.215-.094-.427-.144-.637a67.206,67.206,0,0,1,6.666-3.293c1.8-.776,3.44-1.459,4.694-1.976.108.3.26.75.435,1.352" transform="translate(-94.854 -105.51)" fill="#0f0601"/>
        <path id="Trazado_164263" data-name="Trazado 164263" d="M27.21,165.012l-.148,1.1c-1.464-1.7-7.335-4.914-9.814-6.221.171-.364.346-.692.516-.979a101.445,101.445,0,0,1,9.446,6.1" transform="translate(-10.284 -94.756)" fill="#0f0601"/>
        <path id="Trazado_164264" data-name="Trazado 164264" d="M24.965,178.56a.165.165,0,0,1-.083-.021.168.168,0,0,1-.062-.231c1.463-2.54,6.63-6.555,9.112-8.484.507-.394.9-.7,1.119-.882a.169.169,0,0,1,.216.26c-.221.183-.616.49-1.128.888-2.466,1.917-7.6,5.9-9.027,8.387a.172.172,0,0,1-.147.083" transform="translate(-14.786 -100.716)" fill="#0f0601"/>
        <path id="Trazado_164265" data-name="Trazado 164265" d="M84.637,84.656A28.6,28.6,0,0,0,80.9,83.064c-.337.055-4.379,2.638-4.379,2.638l5.7-8.779a9.074,9.074,0,0,0,1.739.8Z" transform="translate(-45.627 -45.869)" fill="#4f221d"/>
        <path id="Trazado_164266" data-name="Trazado 164266" d="M109.811,83.347s2.3-2.613,2.994-2.462a44.249,44.249,0,0,1,4.828,1.552c.112.168-3.469-5.662-6.881-8.072a2.555,2.555,0,0,0-.866.869s-.165,6.878-.076,8.112" transform="translate(-65.465 -44.344)" fill="#4f221d"/>
        <path id="Trazado_164267" data-name="Trazado 164267" d="M198.594,316.279H183.6a.352.352,0,0,1-.352-.353V297.135a.352.352,0,0,1,.352-.353h14.991a.352.352,0,0,1,.352.353v18.792a.352.352,0,0,1-.352.353m-14.639-.706h14.286V297.488H183.955Z" transform="translate(-109.272 -176.97)" fill="#2f3f4f"/>
        <path id="Trazado_164268" data-name="Trazado 164268" d="M193.1,404.748H152.9V353.711a20.1,20.1,0,0,1,20.1-20.1h0a20.1,20.1,0,0,1,20.1,20.1Z" transform="translate(-91.173 -198.931)" fill="#4663ab"/>
        <path id="Trazado_164269" data-name="Trazado 164269" d="M161.559,513.032a3.206,3.206,0,1,0-3.206,3.206,3.206,3.206,0,0,0,3.206-3.206" transform="translate(-92.513 -304.008)" fill="#2f3f4f"/>
        <path id="Trazado_164270" data-name="Trazado 164270" d="M234.349,513.032a3.206,3.206,0,1,1,3.206,3.206,3.206,3.206,0,0,1-3.206-3.206" transform="translate(-139.742 -304.008)" fill="#2f3f4f"/>
        <path id="Trazado_164271" data-name="Trazado 164271" d="M197.621,296.869H186.609a1.653,1.653,0,1,1,0-3.307h11.013a1.653,1.653,0,1,1,0,3.307" transform="translate(-110.288 -175.05)" fill="#2f3f4f"/>
        <path id="Trazado_164272" data-name="Trazado 164272" d="M194.76,376.755H174.926a2.168,2.168,0,0,1-2.165-2.165v-8.132a2.168,2.168,0,0,1,2.165-2.165H194.76a2.168,2.168,0,0,1,2.166,2.165v8.132a2.168,2.168,0,0,1-2.166,2.165M174.926,365a1.462,1.462,0,0,0-1.46,1.46v8.132a1.462,1.462,0,0,0,1.46,1.46H194.76a1.462,1.462,0,0,0,1.461-1.46v-8.132A1.462,1.462,0,0,0,194.76,365Z" transform="translate(-103.017 -217.226)" fill="#2f3f4f"/>
      </g>
    </g>
  </g>
</svg>
