<svg xmlns="http://www.w3.org/2000/svg" xmlns:xlink="http://www.w3.org/1999/xlink" width="261" height="225" viewBox="0 0 261 225">
  <defs>
    <clipPath id="clip-path">
      <rect id="Rectángulo_42870" data-name="Rectángulo 42870" width="261" height="148.423" fill="none"/>
    </clipPath>
  </defs>
  <g id="Grupo_170001" data-name="Grupo 170001" transform="translate(-8529 11248)">
    <rect id="Rectángulo_42865" data-name="Rectángulo 42865" width="261" height="225" transform="translate(8529 -11248)" fill="none"/>
    <g id="Grupo_170000" data-name="Grupo 170000" transform="translate(8529 -11210)">
      <g id="Grupo_169999" data-name="Grupo 169999" clip-path="url(#clip-path)">
        <path id="Trazado_164273" data-name="Trazado 164273" d="M488.51,128.026H456.634V90.285h40.682v28.934a8.807,8.807,0,0,1-8.807,8.807" transform="translate(-293.24 -57.979)" fill="#2f3f4f"/>
        <path id="Trazado_164274" data-name="Trazado 164274" d="M525.983,69.664s-4.574,14.419-4.495,14.931,10.567,5.881,10.567,5.881S546.5,100.706,553,102.917s12.333-7.348,12.333-7.348-16.181-14.943-23.486-19.84a38.1,38.1,0,0,0-8.713-4.236c-.2-.073-.407-.142-.6-.2a41.1,41.1,0,0,0-6.549-1.625" transform="translate(-334.887 -44.737)" fill="#f9b3a2"/>
        <path id="Trazado_164275" data-name="Trazado 164275" d="M629.5,82.929s-.332.531-.9,1.432c-.106.169-.219.35-.344.544-.544.851-1.238,1.932-2.02,3.151-.1.156-.206.319-.313.488-.187.294-.388.594-.581.9-.113.169-.225.344-.344.519-.35.544-.707,1.094-1.076,1.657-.112.169-.231.338-.344.519-3.033,4.6-6.384,9.479-7.847,10.911-4.334,4.233-9.085,2.664-10.436,1.689-2.876-2.064.257-10.768.257-10.768l7.135-9.223.388-.494,1.207-1.563.388-.5.894-1.151,2.3-2.976,1.457-1.882,8.523,2.851Z" transform="translate(-387.924 -48.922)" fill="#f9b3a2"/>
        <path id="Trazado_164276" data-name="Trazado 164276" d="M672.261,65.419a2.9,2.9,0,0,1-.65.525c-.069.044-.138.081-.206.119-1.426.8-3.539,1.276-6.009,2.576a79.431,79.431,0,0,0-8.548,5.415l-9.079,1.663-1.1-8.41s1.576-4.046,4.934-4.7,17.177.181,18.365.15c1.957-.056,3.458,1.382,2.295,2.658" transform="translate(-415.275 -40.048)" fill="#f9b3a2"/>
        <path id="Trazado_164277" data-name="Trazado 164277" d="M699.777,70.9a2.9,2.9,0,0,1-.65.525c-.069.044-.138.081-.206.119l-9.085.232h-.006a.3.3,0,0,1-.313-.3.314.314,0,0,1,.3-.325Z" transform="translate(-442.791 -45.534)" fill="#2f3f4f"/>
        <path id="Trazado_164278" data-name="Trazado 164278" d="M608.5,119.94a.313.313,0,0,1-.247-.5l1.975-2.554a.313.313,0,1,1,.495.383l-1.975,2.553a.312.312,0,0,1-.247.122" transform="translate(-390.563 -74.982)" fill="#2f3f4f"/>
        <path id="Trazado_164279" data-name="Trazado 164279" d="M385.133,65.562s5.878,13.938,5.846,14.455S381,86.843,381,86.843s-13.442,11.511-19.713,14.31-12.2-7.016-12.2-7.016S363.07,78.6,369.894,73.057a38.093,38.093,0,0,1,8.288-5.018c.194-.092.392-.178.579-.258a41.091,41.091,0,0,1,6.372-2.219" transform="translate(-224.172 -42.102)" fill="#f9b3a2"/>
        <path id="Trazado_164280" data-name="Trazado 164280" d="M327.266,81.29s1.748,4.807,3.169,8.877c.068.194.136.389.21.589.21.608.427,1.227.655,1.86.068.194.142.388.21.589,1.854,5.186,3.95,10.722,5.031,12.459,3.2,5.141,8.2,4.743,9.737,4.118,3.288-1.324,2.308-10.52,2.308-10.52L343.842,88.6l-.26-.57-.8-1.8-.26-.576-3.091-6.941-8.957.75Z" transform="translate(-210.163 -50.547)" fill="#f9b3a2"/>
        <path id="Trazado_164281" data-name="Trazado 164281" d="M288.039,60.241a2.894,2.894,0,0,0,.643.535c.068.045.136.083.2.122,1.414.82,3.521,1.325,5.972,2.661a79.439,79.439,0,0,1,8.47,5.536l9.055,1.792,1.6-5.861s-1.9-6.6-5.251-7.3-17.178-.062-18.365-.11c-1.956-.084-3.477,1.333-2.332,2.625" transform="translate(-184.719 -36.859)" fill="#f9b3a2"/>
        <path id="Trazado_164282" data-name="Trazado 164282" d="M288.747,65.345a2.894,2.894,0,0,0,.643.535c.068.045.136.083.2.122l9.082.36h.006a.3.3,0,0,0,.317-.3.314.314,0,0,0-.3-.329Z" transform="translate(-185.427 -41.963)" fill="#2f3f4f"/>
        <path id="Trazado_164283" data-name="Trazado 164283" d="M378.988,118.585a.312.312,0,0,1-.286-.186l-1.255-2.836a.312.312,0,1,1,.571-.253l1.256,2.836a.312.312,0,0,1-.16.412.307.307,0,0,1-.126.027" transform="translate(-242.371 -73.929)" fill="#2f3f4f"/>
        <path id="Trazado_164284" data-name="Trazado 164284" d="M569.538,221.93s12.923,5.419,14.382,6.566,4.169,7.087,2.814,12.818-7.864,5.211-8.414,5.107-24.31-8.546-24.31-9.275,15.528-15.215,15.528-15.215" transform="translate(-355.773 -142.518)" fill="#f9b3a2"/>
        <path id="Trazado_164285" data-name="Trazado 164285" d="M621.263,285.142l12.886-8.857-2.26-6.665-1.8-5.308-5.6-16.937a21.769,21.769,0,0,0-13.4-12.842l-8,6.985c-.015.011.628,1.071.661,1.125,1.351,2.3,8.5,19.947,13.235,31.762,2.472,6.162,4.281,10.735,4.281,10.735" transform="translate(-387.288 -150.612)" fill="#f9b3a2"/>
        <path id="Trazado_164286" data-name="Trazado 164286" d="M369.649,221.93s-12.923,5.419-14.382,6.566-4.169,7.087-2.814,12.818,7.864,5.211,8.414,5.107,24.31-8.546,24.31-9.275-15.528-15.215-15.528-15.215" transform="translate(-226.101 -142.518)" fill="#f9b3a2"/>
        <path id="Trazado_164287" data-name="Trazado 164287" d="M468.911,193.733l-14.595,20.009s-18.828-8.247-23.817-8.5c-.088-.006-.175-.006-.257-.006-.112,0-.237.006-.369.019-5.122.432-23.211,8.485-23.211,8.485l-14.588-20.009,21.066-9.486v-4.94l17.1-3.3c.006-.056.006-.094.006-.094l.25.05.244-.05s0,.031.006.094l17.1,3.3v4.94Z" transform="translate(-251.782 -112.967)" fill="#2f3f4f"/>
        <path id="Trazado_164288" data-name="Trazado 164288" d="M498.337,195.744v22.035c-.088-.006-.175-.006-.257-.006-.112,0-.237.006-.369.019V195.744a.314.314,0,0,1,.312-.313.31.31,0,0,1,.313.313" transform="translate(-319.619 -125.501)" fill="#0f0a1c"/>
        <path id="Trazado_164289" data-name="Trazado 164289" d="M485.646,179.307v3.9h-34.7v-3.9l17.1-3.3a.912.912,0,0,0,.006-.094h.494s0,.031.006.094Z" transform="translate(-289.589 -112.967)" fill="#a66353"/>
        <rect id="Rectángulo_42868" data-name="Rectángulo 42868" width="0.625" height="5.21" transform="translate(166.554 66.594)" fill="#2f3f4f"/>
        <rect id="Rectángulo_42869" data-name="Rectángulo 42869" width="0.625" height="5.21" transform="translate(190.132 66.594)" fill="#2f3f4f"/>
        <path id="Trazado_164290" data-name="Trazado 164290" d="M487.888,2.629l2.749-1.519a2.949,2.949,0,0,1,3.458.444l3.687,3.5a2.949,2.949,0,0,1,.7,3.24l-1.595,3.954Z" transform="translate(-313.311 -0.476)" fill="#a66353"/>
        <path id="Trazado_164291" data-name="Trazado 164291" d="M484.123,17.766c-2.112,2.678-8.492,1.169-14.249-3.371S461.162,4,463.274,1.324,471.765.155,477.523,4.7s8.712,10.392,6.6,13.071" transform="translate(-297.066 0.001)" fill="#a66353"/>
        <path id="Trazado_164292" data-name="Trazado 164292" d="M481.218,92.686c-.044.657-.081,1.3-.119,1.92-.263,4.352-.482,7.76-.513,8.773a6.917,6.917,0,0,1-.081.851,3.343,3.343,0,0,1-2.2,2.883l-33.866.081s-2.32.044-2.776-3.827c-.044-.388-.15-1.157-.294-2.22-.269-2.045-.669-5.171-1.032-8.761-.062-.588-.125-1.194-.181-1.813-.338-3.683-.613-7.716-.638-11.474-.056-6.991,2-13.025,2.7-14.088a5.682,5.682,0,0,1,3.17-2.089,14.782,14.782,0,0,1,2.195-.519c.15-.025.3-.05.444-.069a58.862,58.862,0,0,1,6.234-.413c4.233-.175,8.473-.369,12.706-.169a30.873,30.873,0,0,1,4.221.413,11.558,11.558,0,0,1,1.907.519,6.765,6.765,0,0,1,1.438.731,13.185,13.185,0,0,0,1.338.657c2.107.951,5.859,2.545,6.178,3.158.575,1.113-.206,15.132-.826,25.456" transform="translate(-282.247 -39.602)" fill="#44a38c"/>
        <path id="Trazado_164293" data-name="Trazado 164293" d="M476.534,61.511a.312.312,0,0,1-.244-.117,39.062,39.062,0,0,1-4.04-6.416c-1.672-3.45-2.246-9.392-2.27-9.643a.313.313,0,0,1,.282-.341.308.308,0,0,1,.341.282c.005.06.588,6.081,2.211,9.429a38.317,38.317,0,0,0,3.966,6.3.313.313,0,0,1-.244.508" transform="translate(-301.809 -28.893)" fill="#0f0a1c"/>
        <path id="Trazado_164294" data-name="Trazado 164294" d="M481.226,26.091a2.634,2.634,0,0,1-.238.219,1.02,1.02,0,0,1-.119.106,1.281,1.281,0,0,1-.137.119,7.249,7.249,0,0,1-2.445,1.307,6.989,6.989,0,0,1-1.213.256,7.151,7.151,0,0,1-7.7-5.008,7.423,7.423,0,0,1-.306-1.769v-.05a7.136,7.136,0,0,1,.419-2.677l-.006-.006a7.563,7.563,0,0,1,.381-.863s.019-.037.056-.1a7.137,7.137,0,0,1,13.119,1.307,7.968,7.968,0,0,1-1.807,7.16" transform="translate(-301.219 -8.903)" fill="#f9b3a2"/>
        <path id="Trazado_164295" data-name="Trazado 164295" d="M469.022,32.216a36.85,36.85,0,0,0,.312,8.229c.845,3.7,4.7,3.731,7.884,1.683a11.355,11.355,0,0,0,4.263-5.721s-6.227-2.883-7.023-2.875a53,53,0,0,1-5.436-1.315" transform="translate(-301.131 -20.688)" fill="#f9b3a2"/>
        <path id="Trazado_164296" data-name="Trazado 164296" d="M488.317,56.924l-.025.013a4.55,4.55,0,0,1-2.045.232,4.486,4.486,0,0,1-3.94-4.09l-.019-.206-.056-.682-.119-1.488V50.7l-.056-.669-.144-1.707,2.67-1.244,3.72-4.621,2.782,8.9a4.476,4.476,0,0,1-2.77,5.565" transform="translate(-309.474 -27.264)" fill="#f9b3a2"/>
        <path id="Trazado_164297" data-name="Trazado 164297" d="M474.741,50.144l4.534-.095s-.391.877-2.04,1.126a2.593,2.593,0,0,1-2.493-1.031" transform="translate(-304.868 -32.14)" fill="#fff"/>
        <path id="Trazado_164298" data-name="Trazado 164298" d="M482.759,26.091a2.639,2.639,0,0,1-.238.219c-.038.037-.148.142-.192.173a21.6,21.6,0,0,1-.4-2.156c-.3-1.657-.319-4.121-1.351-5.565-1.538-2.151-6.566-2.07-7.747-1.863a2.039,2.039,0,0,0-1.382.725,7.137,7.137,0,0,1,13.119,1.307,7.968,7.968,0,0,1-1.807,7.16" transform="translate(-302.753 -8.903)" fill="#2f3f4f"/>
        <path id="Trazado_164299" data-name="Trazado 164299" d="M497.188,35.438a2.066,2.066,0,1,1-4.028,0,2.066,2.066,0,1,1,4.028,0" transform="translate(-316.696 -21.134)" fill="#f9b3a2"/>
        <path id="Trazado_164300" data-name="Trazado 164300" d="M471.9,12.738a9.02,9.02,0,0,1,7.315.434c4.455,2.242,4.429,8.494,4.429,8.494s2.5-4.481,2.293-4.846-1.824-3.648-2.345-4.273a20.813,20.813,0,0,0-4.666-2.97,13.978,13.978,0,0,0-5.014-.313,11.894,11.894,0,0,0-3.972,1.564c-.26.259,1.961,1.91,1.961,1.91" transform="translate(-301.771 -5.868)" fill="#a66353"/>
        <path id="Trazado_164301" data-name="Trazado 164301" d="M479.3,20.26s1.93-.151,2.567,1.125.325,2.215,1.028,2.918,2.681.546,4.116.547c2.345,0,.651-1.589.547-1.746a4.562,4.562,0,0,0-1.042-1.511,11.207,11.207,0,0,0-2.088-1.459,9.86,9.86,0,0,0-2.732-.886,7.358,7.358,0,0,0-1.954.208c-.182.1-.443.8-.443.8" transform="translate(-307.794 -12.361)" fill="#2f3f4f"/>
        <path id="Trazado_164302" data-name="Trazado 164302" d="M486.6,57.624a4.942,4.942,0,0,1-2.364,3.658,6.711,6.711,0,0,1-1.744.65l-.119-1.488v-.006l-.056-.669a11.523,11.523,0,0,0,2.795-1.088,15.656,15.656,0,0,0,1.488-1.057" transform="translate(-309.732 -37.005)" fill="#2f3f4f"/>
        <path id="Trazado_164303" data-name="Trazado 164303" d="M372.074,281.25l-15.614.844-2.276-6.659-1.813-5.3L345.6,250.348c-3.014-10.9,8.535-14.863,8.535-14.863l5.728.112c.019,0,.156,1.232.163,1.294.331,2.645,5.434,20.991,8.892,33.241,1.8,6.39,3.158,11.118,3.158,11.118" transform="translate(-221.614 -151.223)" fill="#f9b3a2"/>
        <path id="Trazado_164304" data-name="Trazado 164304" d="M360.792,353.142H334.623A1.966,1.966,0,0,1,333.6,349.5l12.594-7.672,4.852-2.957,13.037,8.773.225.725a3.683,3.683,0,0,1-3.521,4.777" transform="translate(-213.627 -217.613)" fill="#f9b3a2"/>
        <path id="Trazado_164305" data-name="Trazado 164305" d="M364.331,346.276a3.672,3.672,0,0,1-3.539,2.658H334.623a1.967,1.967,0,0,1-1.963-1.963,1.85,1.85,0,0,1,.131-.694,1.907,1.907,0,0,1,.813-.988l8.879-5.409.532-.325,3.183-1.938-.744-2.176-.213-.625-.857-2.5h16.545c1.8,6.391,3.158,11.118,3.158,11.118l.225.725a3.606,3.606,0,0,1,.019,2.12" transform="translate(-213.627 -213.404)" fill="#a66353"/>
        <path id="Trazado_164306" data-name="Trazado 164306" d="M364.331,371.335a3.672,3.672,0,0,1-3.539,2.658H334.623a1.967,1.967,0,0,1-1.963-1.963,1.85,1.85,0,0,1,.131-.694Z" transform="translate(-213.627 -238.463)" fill="#2f3f4f"/>
        <path id="Trazado_164307" data-name="Trazado 164307" d="M362.364,355.532a.318.318,0,0,1-.438-.075l-1.813-2.582.531-.325,1.795,2.545a.324.324,0,0,1-.075.438" transform="translate(-231.256 -226.399)" fill="#2f3f4f"/>
        <path id="Trazado_164308" data-name="Trazado 164308" d="M371.7,339.616a.31.31,0,0,1-.313.313h-3.358l-.213-.625h3.57a.31.31,0,0,1,.313.313" transform="translate(-236.205 -217.893)" fill="#2f3f4f"/>
        <path id="Trazado_164309" data-name="Trazado 164309" d="M669.711,346.971a1.967,1.967,0,0,1-1.963,1.963H644.08c-1.251,0-1.932-1.013-2.651-2.658-.275-.625-.55-1.338-.869-2.12l-4.115-11.843h16.833l1.107,2.776.25.625.756,1.9,3.689,2.12.544.307,9.142,5.246a1.907,1.907,0,0,1,.813.988,1.85,1.85,0,0,1,.131.694" transform="translate(-408.711 -213.405)" fill="#a66353"/>
        <path id="Trazado_164310" data-name="Trazado 164310" d="M678.655,372.029a1.967,1.967,0,0,1-1.963,1.963H653.024c-1.251,0-1.932-1.013-2.651-2.658h28.151a1.85,1.85,0,0,1,.131.694" transform="translate(-417.655 -238.463)" fill="#2f3f4f"/>
        <path id="Trazado_164311" data-name="Trazado 164311" d="M696.644,353.362l-1.976,2.995a.316.316,0,0,1-.263.144.322.322,0,0,1-.175-.056.312.312,0,0,1-.087-.432l1.957-2.957Z" transform="translate(-445.73 -226.725)" fill="#2f3f4f"/>
        <path id="Trazado_164312" data-name="Trazado 164312" d="M680.715,340.7H677.37a.314.314,0,0,1-.313-.313.309.309,0,0,1,.313-.312h3.1Z" transform="translate(-434.791 -218.387)" fill="#2f3f4f"/>
        <path id="Trazado_164313" data-name="Trazado 164313" d="M428.142,63.722l-.65,6.322L425.2,92.3,423.7,92.16l-2.5-.225-.481-.044-2.921-.269-8.548-20.347a49.46,49.46,0,0,1,7.347-4.5,31.991,31.991,0,0,1,9.4-2.814c1.32-.194,2.145-.244,2.145-.244" transform="translate(-262.812 -40.921)" fill="#44a38c"/>
        <path id="Trazado_164314" data-name="Trazado 164314" d="M548.948,73.558,540.406,93.9l-2.357-.325-.456-.063-2.6-.362-3.239-.45-3.739-29.645a16.741,16.741,0,0,1,1.857.231,26.4,26.4,0,0,1,2.639.581,32.31,32.31,0,0,1,7.841,3.314,64.155,64.155,0,0,1,8.6,6.372" transform="translate(-339.078 -40.495)" fill="#44a38c"/>
        <path id="Trazado_164315" data-name="Trazado 164315" d="M487.74,54.5a.313.313,0,0,1-.218-.537,25.679,25.679,0,0,0,4.734-7.818,37.068,37.068,0,0,0,2.479-11.768.323.323,0,0,1,.32-.3.313.313,0,0,1,.305.32,37.773,37.773,0,0,1-2.529,12c-2.349,5.54-4.772,7.924-4.874,8.023a.311.311,0,0,1-.217.088" transform="translate(-313.015 -21.878)" fill="#0f0a1c"/>
        <path id="Trazado_164316" data-name="Trazado 164316" d="M480.759,90.008a1.123,1.123,0,0,1-.657-.219,1.461,1.461,0,0,1-.383-1.9,9.3,9.3,0,0,1,2.295-1.758c.189-.121.341-.219.427-.278l.589-2.272v2.45a.469.469,0,0,1-.014.078h0a.569.569,0,0,1-.019.061c-.093.367-.4,1.383-.831,2.567a2.358,2.358,0,0,1-.441.78,1.308,1.308,0,0,1-.97.486m1.417-3.233a10.428,10.428,0,0,0-1.912,1.426.829.829,0,0,0,.2,1.079c.253.181.537.121.8-.172a1.784,1.784,0,0,0,.322-.579c.262-.723.457-1.319.592-1.754" transform="translate(-307.939 -53.676)" fill="#0f0a1c"/>
        <path id="Trazado_164317" data-name="Trazado 164317" d="M490.128,94.006a1.306,1.306,0,0,1-.97-.486,2.36,2.36,0,0,1-.442-.78c-.553-1.527-.82-2.516-.849-2.624v0l.316-.095.2-.208c.055.045.239.162.485.321a9.3,9.3,0,0,1,2.3,1.759,1.461,1.461,0,0,1-.383,1.9,1.124,1.124,0,0,1-.657.219m-1.417-3.233c.136.438.332,1.034.593,1.754a1.786,1.786,0,0,0,.322.579c.259.293.543.353.8.172a.829.829,0,0,0,.2-1.079,10.421,10.421,0,0,0-1.912-1.426" transform="translate(-313.297 -57.675)" fill="#0f0a1c"/>
        <path id="Trazado_164318" data-name="Trazado 164318" d="M495.392,191.241h-6.644a.313.313,0,0,1-.313-.313v-2.683a.313.313,0,0,1,.313-.313h6.644a.313.313,0,0,1,.313.313v2.683a.313.313,0,0,1-.313.313m-6.331-.625h6.019v-2.058h-6.019Z" transform="translate(-313.663 -120.686)" fill="#fff"/>
        <path id="Trazado_164319" data-name="Trazado 164319" d="M648.859,88.283c-.544.851-1.238,1.932-2.02,3.151l-10.674-7.016,2.3-2.976Z" transform="translate(-408.531 -52.3)" fill="#a66353"/>
        <path id="Trazado_164320" data-name="Trazado 164320" d="M665.772,98.072c-.106.169-.219.35-.344.544-.544.851-1.238,1.932-2.02,3.152-.1.156-.206.319-.312.488a1.309,1.309,0,0,1-.475-.187c-.832-.544-.876-1.951-.1-3.139s2.082-1.726,2.914-1.182a1.28,1.28,0,0,1,.338.325" transform="translate(-425.1 -62.634)" fill="#fff"/>
        <path id="Trazado_164321" data-name="Trazado 164321" d="M500.7,208.236h-2.113v-.625H500.7A1.617,1.617,0,0,0,502.314,206V196.3h.625V206a2.243,2.243,0,0,1-2.24,2.24" transform="translate(-320.18 -126.063)" fill="#0f0a1c"/>
        <path id="Trazado_164322" data-name="Trazado 164322" d="M437.314,116.338a.313.313,0,0,1-.308-.259l-2.227-12.933a.313.313,0,0,1,.617-.106l2.227,12.933a.313.313,0,0,1-.255.361.305.305,0,0,1-.054,0" transform="translate(-279.202 -66.003)" fill="#0f0a1c"/>
        <path id="Trazado_164323" data-name="Trazado 164323" d="M555.773,118.521a.292.292,0,0,1-.066-.007.313.313,0,0,1-.241-.371l3.127-14.638a.313.313,0,0,1,.612.131l-3.127,14.638a.313.313,0,0,1-.305.247" transform="translate(-356.704 -66.31)" fill="#0f0a1c"/>
        <path id="Trazado_164324" data-name="Trazado 164324" d="M449.493,63.53,448.4,69.92l-3.789,22.117-1.769,10.3c-.269-2.045-.669-5.171-1.032-8.76l.3-1.77,4.746-27.694.05-.275c1.319-.194,2.144-.244,2.144-.244.15-.025.3-.05.444-.069" transform="translate(-283.719 -40.798)" fill="#2f3f4f"/>
        <path id="Trazado_164325" data-name="Trazado 164325" d="M541.262,95.914c-.263,4.352-.482,7.76-.513,8.773a6.893,6.893,0,0,1-.081.851,1.254,1.254,0,0,1-.419-.744l-1.926-11.224-5.071-29.577-.05-.288a26.4,26.4,0,0,1,2.639.581l.188,1.095,4.9,28.551Z" transform="translate(-342.41 -40.91)" fill="#2f3f4f"/>
        <path id="Trazado_164326" data-name="Trazado 164326" d="M499.48,11.5a.312.312,0,0,1-.228-.1l-.208-.221a45.589,45.589,0,0,0-3.61-3.522,25.458,25.458,0,0,0-4.811-3.106A.313.313,0,0,1,490.911,4a26.068,26.068,0,0,1,4.927,3.184,46,46,0,0,1,3.659,3.569l.21.223a.313.313,0,0,1-.228.527" transform="translate(-314.959 -2.547)" fill="#2f3f4f"/>
        <path id="Trazado_164327" data-name="Trazado 164327" d="M394.348,271.61a.312.312,0,0,1-.3-.231l-1.473-5.447a.312.312,0,1,1,.6-.163l1.473,5.447a.313.313,0,0,1-.3.394" transform="translate(-252.095 -170.522)" fill="#2f3f4f"/>
        <path id="Trazado_164328" data-name="Trazado 164328" d="M200.058,57.46a26.76,26.76,0,0,0-4.278,5.276c-1.876,3.087-5.412,9.857-5.412,9.857l4.553,4.313,5.809,1.645s4.3-7.533,4.768-8.124,3.869-2.9,3.869-3.17a21.245,21.245,0,0,0-1.667-5.263c-.742-1.055-7.642-4.534-7.642-4.534" transform="translate(-122.25 -36.9)" fill="#f9b3a2"/>
        <path id="Trazado_164329" data-name="Trazado 164329" d="M215.254,43.979l-.8,13.8a1.02,1.02,0,0,0,1,1.214H242.6a1.02,1.02,0,0,0,1-.829l.757-13.8a1.02,1.02,0,0,0-1-1.211H216.255a1.019,1.019,0,0,0-1,.825" transform="translate(-137.703 -27.713)" fill="#2f3f4f"/>
        <path id="Trazado_164330" data-name="Trazado 164330" d="M245.643,48.259l-.588,10.786a.89.89,0,0,1-.888.694H220.113a.867.867,0,0,1-.888-1.019l.632-10.787a.892.892,0,0,1,.888-.694h24.011a.873.873,0,0,1,.888,1.019" transform="translate(-140.77 -30.336)" fill="#fff"/>
        <path id="Trazado_164331" data-name="Trazado 164331" d="M260.549,60.791s-.638,2.011-.627,2.083a16.411,16.411,0,0,0,1.474.82,18.644,18.644,0,0,0,2.922,1.735c.907.308,1.72-1.025,1.72-1.025s-2.257-2.085-3.276-2.768a5.311,5.311,0,0,0-1.216-.591l-.084-.029a5.745,5.745,0,0,0-.914-.227" transform="translate(-166.916 -39.039)" fill="#f9b3a2"/>
        <path id="Trazado_164332" data-name="Trazado 164332" d="M274.988,62.641l-.126.2-.048.076-.282.44-.044.068c-.026.041-.054.083-.081.126l-.048.072-.15.231c-.016.024-.033.047-.048.073a14.12,14.12,0,0,1-1.095,1.522,1.172,1.172,0,0,1-1.456.236c-.4-.288.036-1.5.036-1.5l1-1.286.054-.069.169-.218.054-.07.125-.16.321-.415.2-.263,1.189.4Z" transform="translate(-174.314 -39.622)" fill="#f9b3a2"/>
        <path id="Trazado_164333" data-name="Trazado 164333" d="M280.953,60.2a.4.4,0,0,1-.091.073l-.029.016c-.2.112-.494.178-.838.359a11.12,11.12,0,0,0-1.192.755l-1.266.232-.154-1.173s.22-.564.688-.655a24.479,24.479,0,0,1,2.562.021c.273-.008.482.193.32.371" transform="translate(-178.129 -38.384)" fill="#f9b3a2"/>
        <path id="Trazado_164334" data-name="Trazado 164334" d="M240.9,60.219s.82,1.944.815,2.016a16.347,16.347,0,0,1-1.392.952,18.632,18.632,0,0,1-2.75,2c-.875.39-1.7-.979-1.7-.979a40.495,40.495,0,0,1,2.9-2.941,5.316,5.316,0,0,1,1.156-.7l.081-.036a5.721,5.721,0,0,1,.889-.31" transform="translate(-151.471 -38.671)" fill="#f9b3a2"/>
        <path id="Trazado_164335" data-name="Trazado 164335" d="M232.829,62.413s.244.671.442,1.238l.029.082q.044.127.092.259c.009.027.02.054.029.082a14.09,14.09,0,0,0,.7,1.738,1.173,1.173,0,0,0,1.358.574c.459-.185.322-1.467.322-1.467l-.662-1.487-.036-.079-.112-.252-.036-.081-.431-.968-1.25.1Z" transform="translate(-149.518 -39.849)" fill="#f9b3a2"/>
        <path id="Trazado_164336" data-name="Trazado 164336" d="M227.357,59.476a.39.39,0,0,0,.09.074l.028.017c.2.115.491.185.833.371a11.089,11.089,0,0,1,1.182.772l1.263.25.224-.818s-.266-.92-.732-1.018a24.388,24.388,0,0,0-2.562-.015c-.273-.012-.485.186-.325.366" transform="translate(-145.968 -37.939)" fill="#f9b3a2"/>
        <path id="Trazado_164337" data-name="Trazado 164337" d="M252.83,77.964h-10.1l2.632-1.188v-.688l2.383-.457V75.62l.037.006.031-.006.006.013,2.382.457v.688Z" transform="translate(-155.873 -48.561)" fill="#2f3f4f"/>
        <path id="Trazado_164338" data-name="Trazado 164338" d="M255.235,51.44l.384-.212a.411.411,0,0,1,.482.062l.514.489a.411.411,0,0,1,.1.452l-.223.552Z" transform="translate(-163.906 -32.864)" fill="#a66353"/>
        <path id="Trazado_164339" data-name="Trazado 164339" d="M254.71,53.551c-.294.374-1.184.163-1.988-.47s-1.215-1.45-.921-1.823,1.185-.163,1.988.471,1.216,1.45.921,1.823" transform="translate(-161.64 -32.798)" fill="#a66353"/>
        <path id="Trazado_164340" data-name="Trazado 164340" d="M254.3,64c-.006.092-.011.181-.016.268-.037.607-.067,1.082-.072,1.224a.969.969,0,0,1-.011.118.466.466,0,0,1-.307.4l-4.724.011s-.324.006-.388-.534c-.006-.054-.021-.161-.041-.31-.038-.285-.093-.721-.144-1.222-.009-.082-.017-.167-.025-.253-.047-.514-.086-1.076-.089-1.6a4.766,4.766,0,0,1,.376-1.965.79.79,0,0,1,.442-.291,2.022,2.022,0,0,1,.306-.072l.062-.01a8.2,8.2,0,0,1,.87-.058c.59-.025,1.182-.052,1.772-.024a4.294,4.294,0,0,1,.589.058,1.648,1.648,0,0,1,.266.072.953.953,0,0,1,.2.1,1.833,1.833,0,0,0,.186.092,4.24,4.24,0,0,1,.862.44A31.286,31.286,0,0,1,254.3,64" transform="translate(-159.572 -38.322)" fill="#44a38c"/>
        <path id="Trazado_164341" data-name="Trazado 164341" d="M254.305,54.713a.3.3,0,0,1-.033.031.11.11,0,0,1-.016.015.142.142,0,0,1-.019.016,1.006,1.006,0,0,1-.341.182,1.052,1.052,0,0,1-.169.036,1,1,0,0,1-1.075-.7,1.025,1.025,0,0,1-.043-.247v-.007a1,1,0,0,1,.058-.374h0a1,1,0,0,1,.053-.12l.008-.014a1,1,0,0,1,1.83.182,1.11,1.11,0,0,1-.252,1" transform="translate(-162.219 -34.04)" fill="#f9b3a2"/>
        <path id="Trazado_164342" data-name="Trazado 164342" d="M252.6,55.567a5.139,5.139,0,0,0,.043,1.148c.118.516.657.521,1.1.235a1.584,1.584,0,0,0,.595-.8,8.619,8.619,0,0,0-.98-.4,7.4,7.4,0,0,1-.758-.184" transform="translate(-162.207 -35.684)" fill="#f9b3a2"/>
        <path id="Trazado_164343" data-name="Trazado 164343" d="M255.3,59.013l0,0a.634.634,0,0,1-.285.032.624.624,0,0,1-.377-.188.631.631,0,0,1-.173-.383l0-.029-.008-.095-.016-.208h0l-.008-.093-.02-.238.372-.174.519-.645.388,1.242a.624.624,0,0,1-.386.776" transform="translate(-163.371 -36.601)" fill="#f9b3a2"/>
        <path id="Trazado_164344" data-name="Trazado 164344" d="M254.519,54.713a.3.3,0,0,1-.033.031l-.026.024a2.98,2.98,0,0,1-.056-.3,2.026,2.026,0,0,0-.189-.776c-.214-.3-.916-.289-1.081-.26a.286.286,0,0,0-.193.1,1,1,0,0,1,1.83.182,1.11,1.11,0,0,1-.252,1" transform="translate(-162.433 -34.04)" fill="#2f3f4f"/>
        <path id="Trazado_164345" data-name="Trazado 164345" d="M253.005,52.85a1.258,1.258,0,0,1,1.02.06,1.41,1.41,0,0,1,.618,1.185,3.9,3.9,0,0,0,.32-.676c-.029-.051-.254-.509-.327-.6a2.9,2.9,0,0,0-.651-.414,1.952,1.952,0,0,0-.7-.044,1.646,1.646,0,0,0-.554.218c-.036.036.273.266.273.266" transform="translate(-162.297 -33.616)" fill="#a66353"/>
        <path id="Trazado_164346" data-name="Trazado 164346" d="M254.036,53.9s.269-.021.358.157.045.309.143.407.374.076.574.076c.327,0,.091-.221.077-.243a.637.637,0,0,0-.146-.211,1.557,1.557,0,0,0-.291-.2,1.368,1.368,0,0,0-.381-.123,1.019,1.019,0,0,0-.272.029c-.025.015-.062.112-.062.112" transform="translate(-163.136 -34.522)" fill="#2f3f4f"/>
        <path id="Trazado_164347" data-name="Trazado 164347" d="M246.9,59.962l-.091.882-.32,3.1-.209-.019-.349-.031-.067-.006-.407-.038-1.192-2.838a6.9,6.9,0,0,1,1.025-.627A4.454,4.454,0,0,1,246.6,60c.184-.027.3-.034.3-.034" transform="translate(-156.862 -38.506)" fill="#44a38c"/>
        <path id="Trazado_164348" data-name="Trazado 164348" d="M263.752,61.334l-1.192,2.838-.329-.045-.064-.009-.363-.05L261.353,64l-.521-4.135a2.326,2.326,0,0,1,.259.032,3.7,3.7,0,0,1,.368.081,4.512,4.512,0,0,1,1.094.462,8.963,8.963,0,0,1,1.2.889" transform="translate(-167.5 -38.447)" fill="#44a38c"/>
        <path id="Trazado_164349" data-name="Trazado 164349" d="M249.032,96.1s-.106.332-.325.919v.006c-.213.575-.525,1.388-.932,2.376-1.626,3.9-3.9,9.49-8.444,14.243-6.878,7.19-19.121.932-19.121.932L222.3,98.558s8.521,4.72,12.435-2c.969-1.67,4.082-9.132,4.082-9.132Z" transform="translate(-141.414 -56.142)" fill="#f9b3a2"/>
        <path id="Trazado_164350" data-name="Trazado 164350" d="M271.239,75.063a19.267,19.267,0,0,1,1.212-5.784,15.751,15.751,0,0,1,3.895-4.742c.99-.73,2.553.625.677,3.283s.521,5.992.521,5.992l-4.846,7.92Z" transform="translate(-174.184 -41.319)" fill="#f9b3a2"/>
        <path id="Trazado_164351" data-name="Trazado 164351" d="M288.351,67.069v.006a17.521,17.521,0,0,1-.344,3.276c-.482,2.614-2.951,7.7-2.951,7.7s-6.09.131-6.065-.025c0-.2-2.477-4.583-2.477-5.052s-.469-4.8,0-5.052,2.311,0,4.178-.569,2.335-1.182,3.113-6.984a1.15,1.15,0,0,1,2-.658l.028.033a8.7,8.7,0,0,1,.707.938,7.249,7.249,0,0,1,.707,1.35,15.469,15.469,0,0,1,.919,3.077,11.19,11.19,0,0,1,.188,1.963" transform="translate(-177.437 -38.094)" fill="#f9b3a2"/>
        <path id="Trazado_164352" data-name="Trazado 164352" d="M302.383,63.484a11.455,11.455,0,0,1-.732,3.264.3.3,0,0,1-.281.175.329.329,0,0,1-.131-.025.315.315,0,0,1-.15-.419,11.658,11.658,0,0,0,.675-3.07,12.45,12.45,0,0,0-.038-2.914,8.7,8.7,0,0,1,.707.938,11.968,11.968,0,0,1-.05,2.051" transform="translate(-193.333 -38.849)" fill="#2f3f4f"/>
        <path id="Trazado_164353" data-name="Trazado 164353" d="M308.117,77.451v.006a6.484,6.484,0,0,1-.444,1.207.312.312,0,0,1-.275.169.333.333,0,0,1-.15-.038.317.317,0,0,1-.125-.425,11,11,0,0,0,.807-2.883,11.187,11.187,0,0,1,.188,1.963" transform="translate(-197.203 -48.477)" fill="#2f3f4f"/>
        <path id="Trazado_164354" data-name="Trazado 164354" d="M66.895,267.093,89.64,309.241s9.421,1.539,12.272-4.258C105,298.7,91.36,268.221,91.36,268.221l-9.511-6.339Z" transform="translate(-42.958 -168.175)" fill="#f9b3a2"/>
        <path id="Trazado_164355" data-name="Trazado 164355" d="M96.165,246.672s2.032,8.285,9.692,9.223,36.58-4.612,36.58-4.612,3.283-9.77,2.658-9.927-27.294-9.536-29.2-9.067-19.728,14.382-19.728,14.382" transform="translate(-61.755 -149.161)" fill="#f9b3a2"/>
        <path id="Trazado_164356" data-name="Trazado 164356" d="M186.638,266.486c-2.8,8.148-5.5,15.795-5.5,15.795s9.992,6.634,10.292,7.541c.006.013.006.025.013.038A1.493,1.493,0,0,1,190,291.779H169.861c-1.413,0-3.345-.525-2.932-2.376l1.257-4.759,3.3-18.158,3.864-21.241-27.688-10.611,7.666-10.317s26.225-3.127,34.51,1.251,4.846,16.414,2.032,25.324c-1.169,3.715-3.233,9.78-5.234,15.595" transform="translate(-94.826 -143.356)" fill="#f9b3a2"/>
        <path id="Trazado_164357" data-name="Trazado 164357" d="M225.908,382.033c-.3-.907-10.292-7.541-10.292-7.541s1.128-3.2,2.683-7.666H204.483l-1.824,10.03-1.257,4.758c-.413,1.851,1.519,2.376,2.932,2.376h20.141a1.494,1.494,0,0,0,1.445-1.92c-.006-.013-.006-.025-.013-.038" transform="translate(-129.3 -235.567)" fill="#fff"/>
        <path id="Trazado_164358" data-name="Trazado 164358" d="M143.5,76.057l-.223,2.088-.059.573-.1,1-.049.461-.508,4.855-4.446.74L132.5,83.765l3.825-10.2.063-.161.1-.253.112-.3,1.23.572,2.718,1.26Z" transform="translate(-85.089 -46.783)" fill="#f9b3a2"/>
        <path id="Trazado_164359" data-name="Trazado 164359" d="M147.036,46.664v.056a7.425,7.425,0,0,1-.288,1.813,7.346,7.346,0,0,1-7.8,5.237,7.126,7.126,0,0,1-1.247-.251,7.215,7.215,0,0,1-1.7-.732c-.014-.008-.02-.015-.034-.015a8.03,8.03,0,0,1-.79-.554c-.1-.073-.178-.145-.267-.224s-.164-.145-.239-.216a7.309,7.309,0,0,1,7.093-12.289,7.231,7.231,0,0,1,3.449,2.2,6.856,6.856,0,0,1,1.216,1.917,2.811,2.811,0,0,1,.145.333v.007a7.38,7.38,0,0,1,.466,2.723" transform="translate(-85.041 -25.172)" fill="#f9b3a2"/>
        <path id="Trazado_164360" data-name="Trazado 164360" d="M151.011,61.77c-.013.8-.057,1.776-.156,2.764-.019.225-.044.45-.069.675-.044.325-.094.651-.144.963-.038.206-.075.406-.119.607-.775,3.614-4.534,3.7-7.66,1.751a11.084,11.084,0,0,1-4.233-5.521s6.028-2.889,6.8-2.9,5.584-.288,5.584-.288.025.8-.006,1.945" transform="translate(-89.025 -38.418)" fill="#f9b3a2"/>
        <path id="Trazado_164361" data-name="Trazado 164361" d="M170.6,62.4s1.764,2.975,1.767,3.223-2.314.841-2.314.841Z" transform="translate(-109.201 -40.074)" fill="#f9b3a2"/>
        <path id="Trazado_164362" data-name="Trazado 164362" d="M146.428,43.6c0,.013-.006.025-.006.038-.931,4.589-3.933,8.629-5.678,9.092a6.62,6.62,0,0,1-1.119.181,18.24,18.24,0,0,1-3.62-.131.074.074,0,0,1-.038-.013,8.033,8.033,0,0,1-.788-.55,3.16,3.16,0,0,1-.269-.225c-.081-.069-.163-.143-.238-.219a7.37,7.37,0,0,1-1.926-3.145c-.031-.1-.062-.206-.087-.313s-.05-.2-.069-.3a7.3,7.3,0,0,1,12.625-6.334,6.951,6.951,0,0,1,.956,1.376c.057.106.113.213.163.325.031.069.063.144.094.219" transform="translate(-85.042 -25.173)" fill="#2f3f4f"/>
        <path id="Trazado_164363" data-name="Trazado 164363" d="M146.334,43.385l-13.675,4.934c-.025-.1-.05-.2-.069-.3a7.3,7.3,0,0,1,12.625-6.334,6.945,6.945,0,0,1,.957,1.375c.056.106.112.213.162.325" transform="translate(-85.043 -25.174)" fill="#f57c64"/>
        <path id="Trazado_164364" data-name="Trazado 164364" d="M164.108,59.852c-.037,1.357-.739,2.439-1.569,2.416s-1.472-1.141-1.435-2.5.739-2.439,1.569-2.416,1.472,1.141,1.435,2.5" transform="translate(-103.457 -36.831)" fill="#f9b3a2"/>
        <path id="Trazado_164365" data-name="Trazado 164365" d="M158.124,85.727l-.059.574-.1,1a3.1,3.1,0,0,1-.324-.2,9.354,9.354,0,0,1-2.017-2.441Z" transform="translate(-99.938 -54.365)" fill="#2f3f4f"/>
        <path id="Trazado_164366" data-name="Trazado 164366" d="M113.814,96.471l-.006.019c-.056.257-.694,3.12-1.519,6.7-.044.206-.094.413-.144.625-.519,2.282-1.1,4.8-1.651,7.11-.05.213-.1.419-.15.625-.857,3.608-1.6,6.559-1.845,7.034a.53.53,0,0,1-.044.081c-.106.213-.213.419-.319.625q-.769,1.5-1.482,2.776c-.944,1.707-1.82,3.139-2.626,4.339-.138.219-.282.425-.419.625-.056.075-.113.15-.162.225-.363.513-.707.975-1.038,1.394-4.477,5.678-6.259,3.283-6.259,3.283H65.409s-2.151-.35-1.413-2.92c.181-.638.388-1.3.607-1.982.069-.206.137-.413.206-.625.744-2.232,1.657-4.665,2.645-7.116.087-.206.169-.419.256-.625.988-2.42,2.039-4.846,3.064-7.116.094-.213.188-.419.281-.625,1.245-2.732,2.426-5.2,3.383-7.11.106-.219.206-.425.313-.625.581-1.151,1.063-2.051,1.394-2.62a24.218,24.218,0,0,1,2.376-3.414c.313-.375.644-.738.982-1.082.213-.219.432-.425.65-.625a15.554,15.554,0,0,1,1.782-1.4A14.987,14.987,0,0,1,88.2,91.663c.137-.019.275-.044.419-.063a36.849,36.849,0,0,1,8.616.05c1.188.125,2.364.294,3.514.494h.006c.488.075.963.163,1.432.257.681.131,1.338.275,1.976.425a33.366,33.366,0,0,1,4.339,1.3c1.394.544,2.439.982,3.214,1.326.6.262,1.038.463,1.357.625a8.117,8.117,0,0,1,.744.394" transform="translate(-40.998 -58.676)" fill="#ffcfa6"/>
        <path id="Trazado_164367" data-name="Trazado 164367" d="M54.137,357.924c-2.77,1.194-6.328.669-15.589-.688-2.651-.388-12.981-2.382-20.554-3.864-4.752-.932-8.416-1.657-8.416-1.657s-2.076,4.7-3.733,8a12.347,12.347,0,0,1-1.889,3.152c-.013.006-.025.006-.038.013a1.49,1.49,0,0,1-2.045-1.263l-.25-2.72-1.6-17.333c-.131-1.407.213-3.383,2.095-3.139l4.852.813.6.1L18,340.472l24.23,2.632s8.366-1.782,9.692-1.157,4.69,6.178,5,7.116-.244,7.766-2.782,8.86" transform="translate(0 -217.317)" fill="#f9b3a2"/>
        <path id="Trazado_164368" data-name="Trazado 164368" d="M18,340.473v12.9c-4.752-.932-8.416-1.657-8.416-1.657s-2.076,4.7-3.733,8C4.2,359.4,2.7,359.113,1.626,358.9l-1.6-17.333c-.131-1.407.213-3.383,2.095-3.139l4.852.813.6.1Z" transform="translate(0 -217.318)" fill="#fff"/>
        <path id="Trazado_164369" data-name="Trazado 164369" d="M203.5,69.575a13.213,13.213,0,0,1,3.6-5.041c1.038-.774,2-1.636,3.008-2.448.6-.481,3.055-2.256,3.345-.563.232,1.351-1.358,2.789-2.221,3.632-.51.5-1.4,1.066-1.67,1.753s.078,3.605-.391,4.348a8.614,8.614,0,0,1-2.345,1.681c-.2.156-3.33-3.361-3.33-3.361" transform="translate(-130.686 -39.048)" fill="#f9b3a2"/>
        <path id="Trazado_164370" data-name="Trazado 164370" d="M218.22,90.93a.318.318,0,0,1-.14-.033.313.313,0,0,1-.14-.419,5.823,5.823,0,0,0,.566-2.256.313.313,0,0,1,.313-.31h0a.313.313,0,0,1,.31.316,6.41,6.41,0,0,1-.632,2.529.312.312,0,0,1-.279.173" transform="translate(-139.935 -56.455)" fill="#362e4d"/>
        <path id="Trazado_164371" data-name="Trazado 164371" d="M224.476,397.749H204.335c-1.413,0-3.345-.525-2.933-2.376l1.257-4.758a32.11,32.11,0,0,0,7.947-.088,11.846,11.846,0,0,0,5.009-2.276s.588.388,1.482.994c.163.113.338.225.519.35l1.87,1.282c.169.119.344.238.519.356,2.726,1.888,5.74,4.065,5.9,4.558.006.012.006.025.013.038a1.494,1.494,0,0,1-1.445,1.92" transform="translate(-129.3 -249.326)" fill="#ffe7cf"/>
        <path id="Trazado_164372" data-name="Trazado 164372" d="M242.749,391.378l-1.7,2.445a.3.3,0,0,1-.257.131.307.307,0,0,1-.175-.057.319.319,0,0,1-.081-.438l1.694-2.432c.163.113.338.225.519.35" transform="translate(-154.432 -251.109)" fill="#362e4d"/>
        <path id="Trazado_164373" data-name="Trazado 164373" d="M249.907,395.946,248.481,398a.327.327,0,0,1-.263.137.316.316,0,0,1-.257-.494l1.426-2.051c.169.119.344.238.519.356" transform="translate(-159.202 -254.039)" fill="#362e4d"/>
        <path id="Trazado_164374" data-name="Trazado 164374" d="M9.58,351.714s-.25.569-.65,1.457c-.081.175-.169.369-.263.569-.275.619-.607,1.338-.957,2.095-.088.188-.175.381-.263.569-1.388,2.958-3.014,6.253-3.489,6.466-.013.006-.025.006-.038.013a1.49,1.49,0,0,1-2.045-1.263L.025,341.566c-.131-1.407.213-3.383,2.095-3.139l4.852.813.6.1a21.735,21.735,0,0,0-.519,5.922,13.192,13.192,0,0,0,2.526,6.453" transform="translate(0 -217.317)" fill="#ffe7cf"/>
        <path id="Trazado_164375" data-name="Trazado 164375" d="M20.273,377.059c-.081.175-.169.369-.263.569L17.8,376.177a.312.312,0,0,1-.087-.432.306.306,0,0,1,.431-.087Z" transform="translate(-11.343 -241.205)" fill="#362e4d"/>
        <path id="Trazado_164376" data-name="Trazado 164376" d="M16.932,384.553c-.088.188-.175.381-.263.569L14.5,383.7a.311.311,0,0,1,.344-.519Z" transform="translate(-9.222 -246.035)" fill="#362e4d"/>
        <path id="Trazado_164377" data-name="Trazado 164377" d="M195.415,127.826c-.031.213-.056.419-.094.625a21.95,21.95,0,0,1-1.551,5.909c-1.244-.019-2.589-.075-4.033-.206a36.955,36.955,0,0,1-11.2-2.927,28.535,28.535,0,0,1-2.757-1.332l.588-1.445.257-.625,2.908-7.116.256-.625,2.908-7.11.256-.625,2.739-6.7.006-.019a66.349,66.349,0,0,0,8.072,4.621,11.623,11.623,0,0,1,.725,2.1c.05.188.106.4.156.625a41.131,41.131,0,0,1,.957,7.11c.013.2.025.413.031.625.013.288.025.588.038.894a39.316,39.316,0,0,1-.263,6.222" transform="translate(-112.883 -67.832)" fill="#ffcfa6"/>
        <path id="Trazado_164378" data-name="Trazado 164378" d="M141.177,103.405H107.611c.213-.219.432-.425.651-.625H139.82c.6.262,1.038.463,1.357.625" transform="translate(-69.105 -66.003)" fill="#fff"/>
        <path id="Trazado_164379" data-name="Trazado 164379" d="M141.785,125.039H93.456c.106-.219.206-.425.313-.625h47.86c.05.187.106.4.156.625" transform="translate(-60.015 -79.896)" fill="#fff"/>
        <path id="Trazado_164380" data-name="Trazado 164380" d="M136.2,146.655H83.215c.094-.213.188-.419.282-.625h52.669c.013.2.025.413.031.625" transform="translate(-53.439 -93.777)" fill="#fff"/>
        <path id="Trazado_164381" data-name="Trazado 164381" d="M130.013,167.664c-.031.213-.056.419-.094.625H73.936c.088-.206.169-.419.257-.625Z" transform="translate(-47.48 -107.67)" fill="#fff"/>
        <path id="Trazado_164382" data-name="Trazado 164382" d="M105.393,189.3c-.138.219-.281.425-.419.625H65.968c.069-.206.137-.413.206-.625Z" transform="translate(-42.363 -121.563)" fill="#fff"/>
        <path id="Trazado_164383" data-name="Trazado 164383" d="M170.187,74.49c-.044.325-.094.65-.144.963a3.422,3.422,0,0,1-1.2-1.175Z" transform="translate(-108.427 -47.699)" fill="#fff"/>
        <path id="Trazado_164384" data-name="Trazado 164384" d="M108.344,224.286a63.389,63.389,0,0,1-2.739,13.675s-9.454.826-19.365,1.288c-7.422.35-15.088.5-19.24-.038-9.217-1.194-12.281-5.221-13.769-11.712a.036.036,0,0,1-.006-.025c-.081-.331-.15-.669-.219-1.013a14.484,14.484,0,0,1-.068-4.29q.028-.319.075-.638A48.392,48.392,0,0,1,55.05,213.2c.069-.213.143-.419.213-.625.55-1.638,1.119-3.145,1.613-4.389.088-.219.169-.425.251-.625.7-1.726,1.2-2.814,1.2-2.814H89.066s.387,1.338.844,2.814c.063.206.125.413.194.625.525,1.657,1.081,3.277,1.238,3.176.312-.206,16.532.088,16.532.088a49.8,49.8,0,0,1,.469,12.837" transform="translate(-33.915 -131.483)" fill="#a66353"/>
        <path id="Trazado_164385" data-name="Trazado 164385" d="M97.4,213.235H64.168c.088-.219.169-.425.25-.625H97.2c.063.206.125.413.194.625" transform="translate(-41.207 -136.533)" fill="#2f3f4f"/>
        <path id="Trazado_164386" data-name="Trazado 164386" d="M127.161,204.746v3.126a.314.314,0,0,1-.313.313.309.309,0,0,1-.312-.313v-3.126Z" transform="translate(-81.259 -131.483)" fill="#2f3f4f"/>
        <path id="Trazado_164387" data-name="Trazado 164387" d="M131.949,204.746v3.126a.31.31,0,0,1-.313.313.313.313,0,0,1-.313-.313v-3.126Z" transform="translate(-84.333 -131.483)" fill="#2f3f4f"/>
        <path id="Trazado_164388" data-name="Trazado 164388" d="M69.913,204.746v3.126a.31.31,0,0,1-.313.313.313.313,0,0,1-.313-.313v-3.126Z" transform="translate(-44.495 -131.483)" fill="#2f3f4f"/>
        <path id="Trazado_164389" data-name="Trazado 164389" d="M74.736,204.746v3.126a.313.313,0,0,1-.313.313.309.309,0,0,1-.312-.313v-3.126Z" transform="translate(-47.592 -131.483)" fill="#2f3f4f"/>
        <path id="Trazado_164390" data-name="Trazado 164390" d="M86.286,258.175l2.824,9.433-29.321.807S54.831,255.255,53.754,248s5.722-12.179,8.223-11.163,15.711,4.574,17.2,7.094,7.113,14.244,7.113,14.244" transform="translate(-34.446 -152.006)" fill="#a66353"/>
        <path id="Trazado_164391" data-name="Trazado 164391" d="M112.874,351.115a.33.33,0,0,1-.052,0l-5.713-.947a.313.313,0,0,1-.257-.359.309.309,0,0,1,.36-.257l5.713.947a.313.313,0,0,1-.051.621" transform="translate(-68.615 -224.468)" fill="#362e4d"/>
        <path id="Trazado_164392" data-name="Trazado 164392" d="M224.92,283.155a.313.313,0,0,1-.069-.618l4.924-1.113a.313.313,0,1,1,.138.61l-4.924,1.113a.331.331,0,0,1-.069.007" transform="translate(-144.238 -180.72)" fill="#362e4d"/>
        <path id="Trazado_164393" data-name="Trazado 164393" d="M155.215,41.84l-8.5,3.108-13.675,4.99a5.179,5.179,0,0,1-.156-.613l13.582-4.959L155,41.252a.313.313,0,0,1,.4.188.305.305,0,0,1-.181.4" transform="translate(-85.332 -26.48)" fill="#f57c64"/>
        <path id="Trazado_164394" data-name="Trazado 164394" d="M128.066,70.778a3.211,3.211,0,1,0-3.211,3.211,3.211,3.211,0,0,0,3.211-3.211" transform="translate(-78.118 -43.39)" fill="#2f3f4f"/>
        <path id="Trazado_164395" data-name="Trazado 164395" d="M157.989,129.386a.316.316,0,0,1-.14-.033,26.449,26.449,0,0,1-10.219-10.839,18.8,18.8,0,0,1-.7-15.231.313.313,0,0,1,.57.258,18.145,18.145,0,0,0,.688,14.684,25.8,25.8,0,0,0,9.944,10.569.312.312,0,0,1-.14.592" transform="translate(-93.522 -66.208)" fill="#2f3f4f"/>
        <path id="Trazado_164396" data-name="Trazado 164396" d="M119.595,301.817H107.16a.313.313,0,1,1,0-.625h12.435a.313.313,0,1,1,0,.625" transform="translate(-68.615 -193.419)" fill="#2f3f4f"/>
        <path id="Trazado_164397" data-name="Trazado 164397" d="M145.8,229.727a.312.312,0,0,1-.245-.507l4.589-5.784a.313.313,0,0,1,.556.227l-.469,4.534a.317.317,0,0,1-.343.279.313.313,0,0,1-.278-.344l.359-3.467-3.923,4.944a.31.31,0,0,1-.245.118" transform="translate(-93.426 -143.41)" fill="#2f3f4f"/>
        <path id="Trazado_164398" data-name="Trazado 164398" d="M105.731,236.45a4.92,4.92,0,0,1-4.914-4.914v-4.914h9.828v4.914a4.919,4.919,0,0,1-4.914,4.914m-4.289-9.2v4.289a4.289,4.289,0,1,0,8.578,0v-4.289Z" transform="translate(-64.742 -145.532)" fill="#2f3f4f"/>
        <path id="Trazado_164399" data-name="Trazado 164399" d="M55.485,226.624c-.069.206-.144.413-.213.625H58.93v4.29a4.3,4.3,0,0,1-4.29,4.29,2.775,2.775,0,0,1-.4-.025,3.622,3.622,0,0,1-1.007-.219q-.047.319-.075.638a4.578,4.578,0,0,0,.832.188,4.451,4.451,0,0,0,.65.044,4.924,4.924,0,0,0,4.915-4.915v-4.915Z" transform="translate(-34.138 -145.533)" fill="#2f3f4f"/>
        <path id="Trazado_164400" data-name="Trazado 164400" d="M85.324,124.312l-4.346,13.825a5.994,5.994,0,0,1-5.3,4.2h-.006a5.668,5.668,0,0,1-.657.013c-.038,0-.081-.006-.119-.006l-10.2-.581a6.011,6.011,0,0,1-5.177-3.614,5.865,5.865,0,0,1-.232-.632,5.975,5.975,0,0,1,.013-3.564l3.145-10,.194-.632,1.007-3.2a6.012,6.012,0,0,1,6.078-4.2l10.2.575a5.964,5.964,0,0,1,3.151,1.107c.069.05.131.1.2.15.112.087.219.175.319.269.069.063.131.125.194.188a6,6,0,0,1,1.532,6.1" transform="translate(-37.902 -74.435)" fill="#2f3f4f"/>
        <path id="Trazado_164401" data-name="Trazado 164401" d="M137.437,92.649a28.282,28.282,0,0,0-8.835,2.97c-4.215,2.514-6.44,8-6.465,8.06l-1.157-.463c.094-.244,2.395-5.94,6.978-8.673a24.275,24.275,0,0,1,5.965-2.388c1.188.125,2.363.294,3.514.494" transform="translate(-77.69 -59.18)" fill="#2f3f4f"/>
        <path id="Trazado_164402" data-name="Trazado 164402" d="M133.574,184.065c-.363.513-.707.975-1.038,1.394-1.645.181-3.833.331-6.71.362-.094,0-.194.006-.288.006a24.233,24.233,0,0,1-14.782-5.052l.813-.95a23.4,23.4,0,0,0,13.982,4.752c.082,0,.169-.006.257-.006a60.7,60.7,0,0,0,7.766-.506" transform="translate(-71.126 -115.48)" fill="#2f3f4f"/>
        <path id="Trazado_164403" data-name="Trazado 164403" d="M87.329,138.567a.332.332,0,0,1-.006.175v.013a.311.311,0,0,1-.213.2l-.563.156L75.03,142.263l-6.441-5.021.194-.632,6.378,4.965,11.618-3.182.163-.044a.319.319,0,0,1,.388.219" transform="translate(-44.046 -87.728)" fill="#0f0a1c"/>
        <path id="Trazado_164404" data-name="Trazado 164404" d="M84.27,121.515,78.636,139.2a3.76,3.76,0,0,1-3.564,2.6h-.087L60,141.455a5.891,5.891,0,0,1-.231-.632l15.238.35a3.1,3.1,0,0,0,3.033-2.163l5.721-17.952c.113.088.219.175.319.269.069.062.131.125.194.188" transform="translate(-38.38 -77.741)" fill="#0f0a1c"/>
        <path id="Trazado_164405" data-name="Trazado 164405" d="M114,125.98a1.62,1.62,0,1,1-1.62-1.62,1.62,1.62,0,0,1,1.62,1.62" transform="translate(-71.126 -79.861)" fill="#fff"/>
        <path id="Trazado_164406" data-name="Trazado 164406" d="M102.347,133.7a1.62,1.62,0,1,1-1.62-1.62,1.62,1.62,0,0,1,1.62,1.62" transform="translate(-63.644 -84.821)" fill="#f57c64"/>
      </g>
    </g>
  </g>
</svg>
