<svg xmlns="http://www.w3.org/2000/svg" xmlns:xlink="http://www.w3.org/1999/xlink" width="184.268" height="387.34" viewBox="0 0 184.268 387.34">
  <defs>
    <clipPath id="clip-path">
      <rect id="Rectángulo_41375" data-name="Rectángulo 41375" width="113.244" height="387.34" fill="none"/>
    </clipPath>
  </defs>
  <g id="Grupo_170004" data-name="Grupo 170004" transform="translate(-1228.181 -2785.719)">
    <path id="Trazado_114544" data-name="Trazado 114544" d="M78.8,4.847C54.872,15.7,30.058,30.347,20.422,54.84c-10.695,27.183.5,57.625.231,86.844-.214,23.147-7.695,45.5-13.58,67.885s-10.209,46.166-4.136,68.5c4.065,14.951,12.7,28.478,23.849,39.212,19.631,18.9,47.915,29.13,74.789,24.807s51.288-24.02,59.145-50.148c11.131-37.018-10.612-76.533-5.991-114.918,1.808-15.02,7.6-29.223,11.519-43.831A180.017,180.017,0,0,0,172.4,85.5c-.147-24.639-6.375-50.928-24.708-67.336C129.2,1.613,101.677-5.533,78.8,4.847Z" transform="matrix(-0.999, 0.035, -0.035, -0.999, 1412.449, 3135.703)" fill="#ffe891"/>
    <g id="Grupo_166330" data-name="Grupo 166330" transform="translate(1257.549 2785.719)">
      <g id="Grupo_166329" data-name="Grupo 166329" clip-path="url(#clip-path)">
        <path id="Trazado_155336" data-name="Trazado 155336" d="M138.651,734.35s-4.261,6.795-13.589.23c0,0-27.294,9.9-27.639,13.359s1.727,3.8,1.727,3.8l40.422-.345Z" transform="translate(-48.324 -364.4)" fill="#37374f"/>
        <path id="Trazado_155337" data-name="Trazado 155337" d="M55.467,705.432,53.912,727.2,67.9,725.3l-.346-2.418,1.382-14.511Z" transform="translate(-26.752 -350.05)" fill="#9fb6c4"/>
        <path id="Trazado_155338" data-name="Trazado 155338" d="M29.471,417.065c1.527-.463,2.048-2.32,2.328-3.89a4.793,4.793,0,0,0,.559,2.483,1.652,1.652,0,0,0,2.22.611,2.373,2.373,0,0,0,.715-1.294,89.552,89.552,0,0,0,3.677-27.75,2.086,2.086,0,0,0-.3-1.247,2.113,2.113,0,0,0-1.108-.609L28.3,382.532c-.217,10.167-4.71,20-4.091,30.151.759.232,1.35-.658,1.647-1.394l3.225-7.991.393,13.767" transform="translate(-11.983 -189.82)" fill="#fca19f"/>
        <path id="Trazado_155339" data-name="Trazado 155339" d="M49.938,360.629l-3.455,15.2.23,168.368,21.421.691,6.449-152.246,3.455-.231L93.93,544.66H116.5l-3.455-86.372.921-92.822-14.28-9.9Z" transform="translate(-23.066 -176.437)" fill="#37374f"/>
        <path id="Trazado_155340" data-name="Trazado 155340" d="M141.626,384.5l-17.5-18.426-19.117.23" transform="translate(-52.106 -181.655)" fill="none" stroke="#b5afe2" stroke-linecap="round" stroke-linejoin="round" stroke-width="0.777"/>
        <path id="Trazado_155341" data-name="Trazado 155341" d="M74.583,398.089,73.2,395.325l-.23-28.791-17.275.46-9.213,14.28" transform="translate(-23.066 -181.882)" fill="none" stroke="#b5afe2" stroke-linecap="round" stroke-linejoin="round" stroke-width="0.777"/>
        <path id="Trazado_155342" data-name="Trazado 155342" d="M124.506,83.643l2.278,21.851s-1.68,14.1-13.693,11.266-9.987-11.12-9.987-11.12l1.466-3.585L105.7,89.442Z" transform="translate(-51.099 -41.505)" fill="#fca19f"/>
        <path id="Trazado_155343" data-name="Trazado 155343" d="M126.682,88.069l-.326-3.127-5.732,1.092-5.541,1.708-7.9,5.695-.615,6.874c3.99,2.212,18.865,2.212,20.116-12.241" transform="translate(-52.88 -42.15)" fill="#f97070"/>
        <path id="Trazado_155344" data-name="Trazado 155344" d="M189.678,433.568a96.983,96.983,0,0,0-.959-15.42,26.564,26.564,0,0,0,3.433,8.466c-1.514-7.893-5.441-14.818-6.955-22.711-.451-2.352,1.511-5.671,1.06-8.023l-8.746-2.386c-.653-.178-1.471-.309-1.9.211a1.789,1.789,0,0,0-.309.906q-1.948,13.148-3.9,26.3c-.224,1.509-.4,3.217.558,4.406,2.507-3.113,1.273-8.09,3.727-11.246q.835,8.943,1.671,17.885c.12,1.291.329,2.744,1.38,3.5l1.292-3.8a4.776,4.776,0,0,0,3.259,4.216,60.324,60.324,0,0,0,1.684-14.911l3.3,11.319c.2.694.74,1.566,1.408,1.29" transform="translate(-84.967 -195.182)" fill="#fca19f"/>
        <path id="Trazado_155345" data-name="Trazado 155345" d="M88.817,31.584c-.547,9.717.771,29.253,10.434,30.41C109.418,63.21,115.21,58.336,118,49.083c0,0,4.816,2.575,5.461-4.36.285-3.059-3.334-1.939-3.334-1.939s9.418-24.084-6.034-28.424S89.565,18.282,88.817,31.584" transform="translate(-44.021 -6.549)" fill="#fca19f"/>
        <path id="Trazado_155346" data-name="Trazado 155346" d="M121.365,53.628a2.907,2.907,0,0,1-.929.28.789.789,0,0,1-.784-.476,1.544,1.544,0,0,1,.442-1.508,3.723,3.723,0,0,1,2.63-.928,7.931,7.931,0,0,1,2.773.19,3.538,3.538,0,0,1,2.2,1.831.668.668,0,0,1,.087.383.425.425,0,0,1-.355.352.9.9,0,0,1-.452-.111,7.287,7.287,0,0,0-5.612-.013" transform="translate(-59.34 -25.288)" fill="#37374f"/>
        <path id="Trazado_155347" data-name="Trazado 155347" d="M98.409,52.934a2.462,2.462,0,0,0,.807.359.666.666,0,0,0,.723-.406,1.709,1.709,0,0,0-.3-1.539A3.221,3.221,0,0,0,97.361,50.2a6.275,6.275,0,0,0-2.466-.051,3.085,3.085,0,0,0-2.056,1.632.716.716,0,0,0-.1.374.422.422,0,0,0,.293.38.712.712,0,0,0,.408-.071,5.844,5.844,0,0,1,4.97.474" transform="translate(-46.019 -24.831)" fill="#37374f"/>
        <path id="Trazado_155348" data-name="Trazado 155348" d="M110.089,76a1.875,1.875,0,0,0-1.3-.525c-.213-.033-.426-.067-.626-.118a2.919,2.919,0,0,1-1.412-.846.914.914,0,0,1-.2-.309,1.05,1.05,0,0,1,.132-.8c.986-2.02,2.006-4.109,1.93-6.316l.406-.014c.079,2.308-.963,4.443-1.971,6.507a.714.714,0,0,0-.115.488.549.549,0,0,0,.12.171,2.506,2.506,0,0,0,1.213.728c.188.048.388.079.588.11a2.179,2.179,0,0,1,1.561.686Z" transform="translate(-52.854 -33.28)" fill="#37374f"/>
        <path id="Trazado_155349" data-name="Trazado 155349" d="M97.64,61.655c.075-1.644.819-2.947,1.663-2.908s1.468,1.4,1.394,3.047-.819,2.946-1.663,2.908-1.469-1.4-1.394-3.046" transform="translate(-48.448 -29.151)" fill="#37374f"/>
        <path id="Trazado_155350" data-name="Trazado 155350" d="M123.437,64.016c.075-1.644.819-2.947,1.663-2.908s1.469,1.4,1.394,3.047-.819,2.946-1.664,2.908-1.469-1.4-1.394-3.046" transform="translate(-61.249 -30.322)" fill="#37374f"/>
        <path id="Trazado_155351" data-name="Trazado 155351" d="M100.969,88.158a27.212,27.212,0,0,0,12.38.883s-2.744,4.574-6.741,4.077-5.639-4.96-5.639-4.96" transform="translate(-50.103 -43.746)" fill="#fff"/>
        <path id="Trazado_155352" data-name="Trazado 155352" d="M145.9,55.947l-3.395.9-1.859-17.125h6.948l2.055,2.544s-.746,12.876-3.749,13.68" transform="translate(-69.789 -19.711)" fill="#945661"/>
        <path id="Trazado_155353" data-name="Trazado 155353" d="M125.148,34.615s-18.383-8.5-34.577-4.494l.323-4.623s13.015-6.6,34.963,4.62Z" transform="translate(-44.943 -11.695)" fill="#37374f"/>
        <path id="Trazado_155354" data-name="Trazado 155354" d="M86.677,31.6s-5.493,5.052-5.731,5.629,17.581,3.009,25.757,2c0,0,5.5-2.284,7.314-4.233s-20.451-5.78-20.451-5.78Z" transform="translate(-40.166 -14.498)" fill="#37374f"/>
        <path id="Trazado_155355" data-name="Trazado 155355" d="M117.818,19.356l8.134-3.846a2.773,2.773,0,0,0,.7-4.537A41.122,41.122,0,0,0,101.307.151C82.564-1.161,67.869,6.313,84.241,13.8s11.942.7,11.942.7Z" transform="translate(-38.29 0)" fill="#37374f"/>
        <path id="Trazado_155356" data-name="Trazado 155356" d="M126.176,30.473a45.591,45.591,0,0,0-34.964-4.62" transform="translate(-45.261 -12.051)" fill="none" stroke="#fff" stroke-linecap="round" stroke-linejoin="round" stroke-width="0.389"/>
        <path id="Trazado_155357" data-name="Trazado 155357" d="M90.5,34.526s11.31-3.389,28.258,2.633" transform="translate(-44.908 -16.661)" fill="none" stroke="#fff" stroke-linecap="round" stroke-linejoin="round" stroke-width="0.389"/>
        <path id="Trazado_155358" data-name="Trazado 155358" d="M89.7,121.019a32.282,32.282,0,0,1-14.05,11.286l-9.213-9.9L62.291,125.4l-22.009,9.12a6.182,6.182,0,0,0-3.8,5.318l-3.671,57.654-5.527,58.963,10.307,2.13,1.814-9.587s9.99,1.008,15.518-1.756c0,0,23.954,7.831,46.986,4.607l-.46,14.741,15.662.46,9.674-59.424-4.707-64.506a8.463,8.463,0,0,0-4.841-7.043L95,125.626Z" transform="translate(-13.537 -60.052)" fill="#37374f"/>
        <path id="Trazado_155359" data-name="Trazado 155359" d="M110.135,132.305c5.988-3.685,14.05-11.286,14.05-11.286l3.8,3.686-31.44,64.03.576-63.57,3.8-2.764Z" transform="translate(-47.908 -60.052)" fill="#fff"/>
        <path id="Trazado_155360" data-name="Trazado 155360" d="M81.294,132.678l-7.486,14.05,4.837,10.538-5.873.863,10.883,38.522,32.822-31.094-4.319-5.182,8.292-2.073,2.937-24.184" transform="translate(-36.111 -65.837)" fill="none" stroke="#b5afe2" stroke-linecap="round" stroke-linejoin="round" stroke-width="0.777"/>
        <line id="Línea_519" data-name="Línea 519" x1="6.161" y2="56.372" transform="translate(41.382 130.813)" fill="none" stroke="#b5afe2" stroke-linecap="round" stroke-linejoin="round" stroke-width="0.777"/>
        <path id="Trazado_155361" data-name="Trazado 155361" d="M190.4,156.223s-16.353,8.061-17.735,27.639" transform="translate(-85.682 -77.521)" fill="none" stroke="#b5afe2" stroke-linecap="round" stroke-linejoin="round" stroke-width="0.777"/>
        <path id="Trazado_155362" data-name="Trazado 155362" d="M49.226,152.566a80.844,80.844,0,0,1,3.225,23.263" transform="translate(-24.427 -75.706)" fill="none" stroke="#b5afe2" stroke-linecap="round" stroke-linejoin="round" stroke-width="0.777"/>
        <rect id="Rectángulo_41373" data-name="Rectángulo 41373" width="20.844" height="3.915" transform="translate(67.64 155.056)" fill="none" stroke="#b5afe2" stroke-linecap="round" stroke-linejoin="round" stroke-width="0.777"/>
        <rect id="Rectángulo_41374" data-name="Rectángulo 41374" width="11.171" height="3.915" transform="translate(26.641 155.056)" fill="none" stroke="#b5afe2" stroke-linecap="round" stroke-linejoin="round" stroke-width="0.777"/>
        <path id="Trazado_155363" data-name="Trazado 155363" d="M98.032,282.938a1.785,1.785,0,1,1,1.785,1.785A1.785,1.785,0,0,1,98.032,282.938Z" transform="translate(-48.646 -139.514)" fill="none" stroke="#b5afe2" stroke-linecap="round" stroke-linejoin="round" stroke-width="0.777"/>
        <path id="Trazado_155364" data-name="Trazado 155364" d="M95.06,306.712a1.785,1.785,0,1,1,1.785,1.785A1.785,1.785,0,0,1,95.06,306.712Z" transform="translate(-47.171 -151.311)" fill="none" stroke="#b5afe2" stroke-linecap="round" stroke-linejoin="round" stroke-width="0.777"/>
        <path id="Trazado_155365" data-name="Trazado 155365" d="M93,327.743a1.785,1.785,0,1,1,1.785,1.785A1.785,1.785,0,0,1,93,327.743Z" transform="translate(-46.15 -161.747)" fill="none" stroke="#b5afe2" stroke-linecap="round" stroke-linejoin="round" stroke-width="0.777"/>
        <path id="Trazado_155366" data-name="Trazado 155366" d="M110.1,143.8l-4.685,1.077,1.21,5.643-9.789,24.53-.288,24.99s11.689-22.572,11.689-23.263,2.074-25.221,2.074-25.221l3.972-5.7Z" transform="translate(-47.908 -71.356)" fill="#2773bf"/>
        <path id="Trazado_155367" data-name="Trazado 155367" d="M123.325,150.788a.173.173,0,0,0,.077-.328l-13.474-6.679a.159.159,0,0,0-.111-.014l-13.474,2.706a.17.17,0,0,0-.135.2.175.175,0,0,0,.2.135l13.416-2.694,13.421,6.653a.176.176,0,0,0,.077.018" transform="translate(-47.739 -71.338)" fill="#37374f"/>
        <path id="Trazado_155368" data-name="Trazado 155368" d="M48.083,374.09l17.159-1.612s36.277,7.486,46.986,4.146" transform="translate(-23.86 -184.831)" fill="none" stroke="#b5afe2" stroke-linecap="round" stroke-linejoin="round" stroke-width="0.777"/>
        <line id="Línea_520" data-name="Línea 520" x1="2.764" y2="148.906" transform="translate(28.024 218.395)" fill="none" stroke="#b5afe2" stroke-linecap="round" stroke-linejoin="round" stroke-width="0.777"/>
        <line id="Línea_521" data-name="Línea 521" x2="9.213" y2="152.015" transform="translate(69.712 215.747)" fill="none" stroke="#b5afe2" stroke-linecap="round" stroke-linejoin="round" stroke-width="0.777"/>
        <path id="Trazado_155369" data-name="Trazado 155369" d="M41.267,734.35s-4.261,6.795-13.589.23c0,0-27.294,9.9-27.639,13.359s1.728,3.8,1.728,3.8l40.422-.345Z" transform="translate(0 -364.4)" fill="#37374f"/>
        <path id="Trazado_155370" data-name="Trazado 155370" d="M192.244,391.458l-.522,3.132-16.179-.522v-3.654Z" transform="translate(-87.108 -193.731)" fill="#f2b84b"/>
        <path id="Trazado_155371" data-name="Trazado 155371" d="M193.094,379.543,192.506,383l-17.223-.848V378.5Z" transform="translate(-86.979 -187.819)" fill="#f2b84b"/>
        <path id="Trazado_155372" data-name="Trazado 155372" d="M177.377,320.808l-2.419.115V306.066l4.376-45.144L174.5,230.289" transform="translate(-86.59 -114.274)" fill="none" stroke="#b5afe2" stroke-linecap="round" stroke-linejoin="round" stroke-width="0.777"/>
        <path id="Trazado_155373" data-name="Trazado 155373" d="M37.956,377.187l-9.982-1.077.587-5.186,9.786,1.272Z" transform="translate(-13.882 -184.06)" fill="#f2b84b"/>
        <path id="Trazado_155374" data-name="Trazado 155374" d="M38.958,364.4l-9.688-1.24.587-5.186,9.427,1.142Z" transform="translate(-14.524 -177.634)" fill="#f2b84b"/>
        <path id="Trazado_155375" data-name="Trazado 155375" d="M47.054,302.541l3.4-56.891V209.258" transform="translate(-23.349 -103.838)" fill="none" stroke="#b5afe2" stroke-linecap="round" stroke-linejoin="round" stroke-width="0.777"/>
        <path id="Trazado_155376" data-name="Trazado 155376" d="M120.058,28.534l-6.465-.181.041-1.452,7.917.222a1.453,1.453,0,0,1-1.493,1.412" transform="translate(-56.367 -13.349)" fill="#f2b84b"/>
        <path id="Trazado_155377" data-name="Trazado 155377" d="M118.335,31.076l-5.216-.146.041-1.452,6.667.187a1.453,1.453,0,0,1-1.493,1.411" transform="translate(-56.132 -14.628)" fill="#e09a28"/>
        <path id="Trazado_155378" data-name="Trazado 155378" d="M97.651,27.906l6.466.181.04-1.452-7.917-.222a1.453,1.453,0,0,0,1.412,1.493" transform="translate(-47.756 -13.107)" fill="#f2b84b"/>
        <path id="Trazado_155379" data-name="Trazado 155379" d="M100.46,30.575l5.216.146.04-1.452-6.667-.187a1.453,1.453,0,0,0,1.412,1.493" transform="translate(-49.15 -14.431)" fill="#e09a28"/>
        <path id="Trazado_155380" data-name="Trazado 155380" d="M112.674,27.64a2.068,2.068,0,1,0-2.125,2.009,2.068,2.068,0,0,0,2.125-2.009" transform="translate(-53.86 -12.661)" fill="#f2b84b"/>
        <path id="Trazado_155381" data-name="Trazado 155381" d="M208.905,210.491l-6.447.523-.117-1.448,7.895-.641a1.453,1.453,0,0,1-1.331,1.565" transform="translate(-100.406 -103.673)" fill="#f2b84b"/>
        <path id="Trazado_155382" data-name="Trazado 155382" d="M207.468,213.305l-5.2.422-.117-1.448,6.648-.54a1.453,1.453,0,0,1-1.331,1.565" transform="translate(-100.311 -105.07)" fill="#e09a28"/>
        <path id="Trazado_155383" data-name="Trazado 155383" d="M186.523,212.309l6.447-.523-.118-1.448-7.894.641a1.452,1.452,0,0,0,1.565,1.33" transform="translate(-91.78 -104.374)" fill="#f2b84b"/>
        <path id="Trazado_155384" data-name="Trazado 155384" d="M189.606,214.756l5.2-.422-.117-1.448-6.648.54a1.452,1.452,0,0,0,1.565,1.33" transform="translate(-93.31 -105.638)" fill="#e09a28"/>
        <path id="Trazado_155385" data-name="Trazado 155385" d="M201.637,210.808a2.068,2.068,0,1,0-1.894,2.228,2.068,2.068,0,0,0,1.894-2.228" transform="translate(-98.008 -103.664)" fill="#f2b84b"/>
        <path id="Trazado_155386" data-name="Trazado 155386" d="M115.045,191.636l-5.774-.979-.294.587,5.97,1.664Z" transform="translate(-54.077 -94.608)" fill="#f2b84b"/>
      </g>
    </g>
  </g>
</svg>
