<svg xmlns="http://www.w3.org/2000/svg" width="252" height="86" viewBox="0 0 252 86">
  <g id="Grupo_170188" data-name="Grupo 170188" transform="translate(-495 -2958)">
    <rect id="Rectángulo_42455" data-name="Rectángulo 42455" width="252" height="86" rx="13" transform="translate(495 2958)" fill="#ffd947"/>
    <path id="Trazado_165143" data-name="Trazado 165143" d="M57.649,18.07H52.688L51.224,21H48.069l7.6-14.219h2.646L61.019,21H58.1ZM53.86,15.7h3.428l-.8-5.293ZM68.7,19.906a3.648,3.648,0,0,1-2.91,1.289,2.715,2.715,0,0,1-2.3-1.094,4,4,0,0,1-.605-2.832l1.143-6.836H66.78l-1.162,6.873a2.718,2.718,0,0,0-.01.606,1,1,0,0,0,1.084,1.007,2.517,2.517,0,0,0,2.119-.987l1.318-7.5H72.9L71.067,21H68.5Zm9.5-6.338,2.217-3.135h3.1L79.69,15.746,81.829,21H79.036l-1.3-3.3L75.4,21H72.288l3.984-5.527-2.041-5.039h2.793ZM86,21H83.226l1.836-10.566h2.773ZM85.384,7.748a1.376,1.376,0,0,1,.43-1.084,1.653,1.653,0,0,1,2.168-.049A1.37,1.37,0,0,1,88.46,7.65a1.415,1.415,0,0,1-.405,1.055,1.519,1.519,0,0,1-1.108.469A1.544,1.544,0,0,1,85.867,8.8,1.363,1.363,0,0,1,85.384,7.748ZM91.243,21H88.47L91.077,6h2.764Zm5.244,0H93.714L95.55,10.434h2.773ZM95.872,7.748a1.376,1.376,0,0,1,.43-1.084,1.653,1.653,0,0,1,2.168-.049,1.37,1.37,0,0,1,.479,1.035,1.415,1.415,0,0,1-.405,1.055,1.519,1.519,0,0,1-1.108.469A1.544,1.544,0,0,1,96.355,8.8,1.363,1.363,0,0,1,95.872,7.748ZM104.935,21a2.851,2.851,0,0,1-.107-.957,3.579,3.579,0,0,1-2.7,1.152,3.243,3.243,0,0,1-2.3-.9,2.733,2.733,0,0,1-.854-2.183,3.159,3.159,0,0,1,1.45-2.651,6.583,6.583,0,0,1,3.706-.923l1.289.02.137-.635a2.2,2.2,0,0,0,.029-.615,1.058,1.058,0,0,0-.347-.718,1.194,1.194,0,0,0-.786-.269,1.682,1.682,0,0,0-1.094.317,1.538,1.538,0,0,0-.576.972l-2.764.01a3.072,3.072,0,0,1,1.392-2.456,5.389,5.389,0,0,1,3.267-.923,3.9,3.9,0,0,1,2.813,1.069,3.128,3.128,0,0,1,.85,2.651l-.811,5.059-.049.625a3.015,3.015,0,0,0,.166,1.172l-.01.186Zm-2.119-1.943a2.522,2.522,0,0,0,2.08-1.035l.342-1.826-.957-.01a2.674,2.674,0,0,0-2.2.928,1.615,1.615,0,0,0-.3.791.937.937,0,0,0,.22.835A1.113,1.113,0,0,0,102.815,19.057Zm13.74-5.977a5.686,5.686,0,0,0-.928-.1,2.67,2.67,0,0,0-2.334,1.1L112.073,21h-2.754l1.836-10.566,2.588-.01-.254,1.289a2.906,2.906,0,0,1,2.461-1.494,4.017,4.017,0,0,1,.957.137Zm4.424,3.9L124,10.434h3.066l-6.182,12.158a5.289,5.289,0,0,1-1.558,2.051,3.4,3.4,0,0,1-2.065.654,6.294,6.294,0,0,1-1.328-.205l.205-2.148.381.02a2.064,2.064,0,0,0,1.973-.986l.605-1.123-1.729-10.42h2.852Zm14.727.537,3.008-7.08h2.969L136.575,21h-2.637l-1.807-10.566h2.793ZM146.185,21.2a4.6,4.6,0,0,1-2.456-.679,4.115,4.115,0,0,1-1.6-1.836,5.117,5.117,0,0,1-.41-2.573l.029-.391a6.831,6.831,0,0,1,.9-2.832,5.427,5.427,0,0,1,1.934-1.987,4.784,4.784,0,0,1,2.617-.659,3.655,3.655,0,0,1,3.091,1.5,5.146,5.146,0,0,1,.8,3.7l-.156,1.2h-6.475a2.267,2.267,0,0,0,.5,1.641,1.9,1.9,0,0,0,1.465.635,3.379,3.379,0,0,0,2.637-1.172l1.26,1.563a3.919,3.919,0,0,1-1.719,1.4A5.621,5.621,0,0,1,146.185,21.2Zm.879-8.682a1.957,1.957,0,0,0-1.353.479,4.2,4.2,0,0,0-1.06,1.729h3.789l.059-.254a2.589,2.589,0,0,0,.01-.742,1.418,1.418,0,0,0-.479-.884A1.5,1.5,0,0,0,147.063,12.514Zm11.924.566a5.686,5.686,0,0,0-.928-.1,2.67,2.67,0,0,0-2.334,1.1L154.5,21h-2.754l1.836-10.566,2.588-.01-.254,1.289a2.906,2.906,0,0,1,2.461-1.494,4.017,4.017,0,0,1,.957.137Zm10.1,2.666a7.577,7.577,0,0,1-1.523,4,3.791,3.791,0,0,1-3.184,1.455,2.946,2.946,0,0,1-2.539-1.348l-.4,1.143h-2.51l2.6-15h2.764l-1.064,5.4a3.292,3.292,0,0,1,2.578-1.162,2.981,2.981,0,0,1,2.407,1.1,4.862,4.862,0,0,1,.933,2.983A11.418,11.418,0,0,1,169.085,15.746Zm-2.734-.206a8.192,8.192,0,0,0,.059-1.293q-.107-1.7-1.406-1.734a2.292,2.292,0,0,0-2.021,1.107l-.762,4.212a1.572,1.572,0,0,0,1.582,1.1q2.031.059,2.49-2.958ZM13.138,45.51,17.2,33.781h2.051L13.978,48h-1.66L7.054,33.781H9.095ZM25.257,48.2a4.617,4.617,0,0,1-3.5-1.411,5.237,5.237,0,0,1-1.348-3.774v-.332a6.341,6.341,0,0,1,.6-2.808,4.685,4.685,0,0,1,1.68-1.934,4.223,4.223,0,0,1,2.339-.7,3.957,3.957,0,0,1,3.2,1.357,5.877,5.877,0,0,1,1.143,3.887v.752H22.22a3.756,3.756,0,0,0,.913,2.524,2.87,2.87,0,0,0,2.222.962,3.147,3.147,0,0,0,1.621-.391,4.073,4.073,0,0,0,1.162-1.035l1.1.859A4.437,4.437,0,0,1,25.257,48.2Zm-.225-9.473a2.41,2.41,0,0,0-1.836.8,3.868,3.868,0,0,0-.918,2.231h5.293v-.137a3.441,3.441,0,0,0-.742-2.134A2.269,2.269,0,0,0,25.032,38.723Zm11.543.332a5.414,5.414,0,0,0-.889-.068A2.381,2.381,0,0,0,33.274,40.5V48H31.468V37.434h1.758l.029,1.221a2.813,2.813,0,0,1,2.52-1.416,1.846,1.846,0,0,1,.8.137Zm10.605,3.779a6.283,6.283,0,0,1-1.113,3.892,3.557,3.557,0,0,1-2.988,1.47,3.683,3.683,0,0,1-3.1-1.416L39.9,48h-1.66V33h1.807v5.6a3.663,3.663,0,0,1,3.018-1.357,3.579,3.579,0,0,1,3.022,1.455,6.471,6.471,0,0,1,1.1,3.984Zm-1.807-.205a4.882,4.882,0,0,0-.713-2.852,2.36,2.36,0,0,0-2.051-1.006,2.652,2.652,0,0,0-2.568,1.66V45a2.727,2.727,0,0,0,2.588,1.66,2.347,2.347,0,0,0,2.021-1.006A5.192,5.192,0,0,0,45.374,42.629Zm3.6-.01a6.241,6.241,0,0,1,.61-2.793,4.553,4.553,0,0,1,1.7-1.914,4.626,4.626,0,0,1,2.485-.674,4.456,4.456,0,0,1,3.491,1.494A5.748,5.748,0,0,1,58.6,42.707v.127a6.3,6.3,0,0,1-.591,2.769,4.486,4.486,0,0,1-1.689,1.909,4.679,4.679,0,0,1-2.524.684A4.445,4.445,0,0,1,50.311,46.7a5.719,5.719,0,0,1-1.333-3.955Zm1.816.215a4.52,4.52,0,0,0,.815,2.822,2.763,2.763,0,0,0,4.37-.015,4.943,4.943,0,0,0,.811-3.022,4.513,4.513,0,0,0-.825-2.817,2.623,2.623,0,0,0-2.192-1.079,2.594,2.594,0,0,0-2.158,1.064A4.906,4.906,0,0,0,50.794,42.834ZM72.337,48a3.8,3.8,0,0,1-.254-1.113A4.031,4.031,0,0,1,69.075,48.2a3.73,3.73,0,0,1-2.563-.884,2.859,2.859,0,0,1-1-2.241,2.987,2.987,0,0,1,1.255-2.563,5.916,5.916,0,0,1,3.53-.913h1.758v-.83a2.029,2.029,0,0,0-.566-1.509,2.276,2.276,0,0,0-1.67-.562,2.634,2.634,0,0,0-1.621.488,1.439,1.439,0,0,0-.654,1.182H65.726a2.493,2.493,0,0,1,.562-1.528,3.832,3.832,0,0,1,1.523-1.167,5.125,5.125,0,0,1,2.114-.43,4.177,4.177,0,0,1,2.861.913,3.294,3.294,0,0,1,1.074,2.515v4.863a5.946,5.946,0,0,0,.371,2.314V48Zm-3-1.377a3.175,3.175,0,0,0,1.611-.439,2.658,2.658,0,0,0,1.1-1.143V42.873H70.638q-3.32,0-3.32,1.943a1.645,1.645,0,0,0,.566,1.328A2.177,2.177,0,0,0,69.339,46.623Zm13.877.332a3.837,3.837,0,0,1-3.1,1.24,3.285,3.285,0,0,1-2.573-.981,4.248,4.248,0,0,1-.894-2.905V37.434H78.46V44.26q0,2.4,1.953,2.4a2.7,2.7,0,0,0,2.754-1.543V37.434h1.807V48H83.255Zm8.047-5.664,2.344-3.857h2.109l-3.457,5.225L95.823,48h-2.09l-2.441-3.955L88.851,48h-2.1l3.564-5.342-3.457-5.225h2.09ZM99.593,48H97.786V37.434h1.807ZM97.64,34.631a1.078,1.078,0,0,1,.269-.742,1.008,1.008,0,0,1,.8-.3,1.024,1.024,0,0,1,.8.3,1.067,1.067,0,0,1,.273.742,1.032,1.032,0,0,1-.273.732,1.043,1.043,0,0,1-.8.293,1.026,1.026,0,0,1-.8-.293A1.043,1.043,0,0,1,97.64,34.631ZM104.446,48H102.64V33h1.807Zm4.854,0h-1.807V37.434H109.3Zm-1.953-13.369a1.078,1.078,0,0,1,.269-.742,1.008,1.008,0,0,1,.8-.3,1.024,1.024,0,0,1,.8.3,1.067,1.067,0,0,1,.273.742,1.032,1.032,0,0,1-.273.732,1.043,1.043,0,0,1-.8.293,1.026,1.026,0,0,1-.8-.293A1.043,1.043,0,0,1,107.347,34.631ZM118.714,48a3.8,3.8,0,0,1-.254-1.113,4.031,4.031,0,0,1-3.008,1.309,3.73,3.73,0,0,1-2.563-.884,2.859,2.859,0,0,1-1-2.241,2.987,2.987,0,0,1,1.255-2.563,5.916,5.916,0,0,1,3.53-.913h1.758v-.83a2.029,2.029,0,0,0-.566-1.509,2.276,2.276,0,0,0-1.67-.562,2.634,2.634,0,0,0-1.621.488,1.439,1.439,0,0,0-.654,1.182H112.1a2.493,2.493,0,0,1,.562-1.528,3.832,3.832,0,0,1,1.523-1.167,5.125,5.125,0,0,1,2.114-.43,4.177,4.177,0,0,1,2.861.913,3.294,3.294,0,0,1,1.074,2.515v4.863a5.946,5.946,0,0,0,.371,2.314V48Zm-3-1.377a3.175,3.175,0,0,0,1.611-.439,2.658,2.658,0,0,0,1.1-1.143V42.873h-1.416q-3.32,0-3.32,1.943a1.645,1.645,0,0,0,.566,1.328A2.177,2.177,0,0,0,115.716,46.623Zm12.461-7.568a5.414,5.414,0,0,0-.889-.068,2.381,2.381,0,0,0-2.412,1.514V48h-1.807V37.434h1.758l.029,1.221a2.813,2.813,0,0,1,2.52-1.416,1.846,1.846,0,0,1,.8.137Zm7.959-6.24,1.035.7a4.606,4.606,0,0,0-.937,2.676v1.328h-1.8V36.389a4.481,4.481,0,0,1,.474-1.973A4.729,4.729,0,0,1,136.136,32.814Zm3.076,0,1.035.7a4.606,4.606,0,0,0-.937,2.676v1.328h-1.8V36.389a4.481,4.481,0,0,1,.474-1.973A4.729,4.729,0,0,1,139.212,32.814Zm5.1,2.061v2.559h1.973v1.4H144.31v6.561a1.467,1.467,0,0,0,.264.953,1.11,1.11,0,0,0,.9.318,4.374,4.374,0,0,0,.859-.117V48a5.268,5.268,0,0,1-1.387.194,2.25,2.25,0,0,1-1.826-.732,3.147,3.147,0,0,1-.615-2.08V38.83h-1.924v-1.4H142.5V34.875Zm3.408,7.744a6.241,6.241,0,0,1,.61-2.793,4.553,4.553,0,0,1,1.7-1.914,4.626,4.626,0,0,1,2.485-.674A4.456,4.456,0,0,1,156,38.732a5.748,5.748,0,0,1,1.333,3.975v.127a6.3,6.3,0,0,1-.591,2.769,4.486,4.486,0,0,1-1.689,1.909,4.679,4.679,0,0,1-2.524.684,4.445,4.445,0,0,1-3.481-1.494,5.719,5.719,0,0,1-1.333-3.955Zm1.816.215a4.52,4.52,0,0,0,.815,2.822,2.763,2.763,0,0,0,4.37-.015,4.943,4.943,0,0,0,.811-3.022,4.513,4.513,0,0,0-.825-2.817,2.623,2.623,0,0,0-2.192-1.079,2.594,2.594,0,0,0-2.158,1.064A4.906,4.906,0,0,0,149.534,42.834Zm16.826-4.121a3.841,3.841,0,0,1,3.125-1.475q3.35,0,3.379,3.779V48h-1.807V41.008a2.433,2.433,0,0,0-.522-1.689,2.094,2.094,0,0,0-1.6-.547,2.607,2.607,0,0,0-1.543.469,3.183,3.183,0,0,0-1.035,1.23V48h-1.807V33h1.807ZM182.093,48a3.8,3.8,0,0,1-.254-1.113,4.031,4.031,0,0,1-3.008,1.309,3.73,3.73,0,0,1-2.563-.884,2.859,2.859,0,0,1-1-2.241,2.987,2.987,0,0,1,1.255-2.563,5.916,5.916,0,0,1,3.53-.913h1.758v-.83a2.029,2.029,0,0,0-.566-1.509,2.276,2.276,0,0,0-1.67-.562,2.634,2.634,0,0,0-1.621.488,1.439,1.439,0,0,0-.654,1.182h-1.816a2.493,2.493,0,0,1,.562-1.528,3.832,3.832,0,0,1,1.523-1.167,5.125,5.125,0,0,1,2.114-.43,4.177,4.177,0,0,1,2.861.913,3.294,3.294,0,0,1,1.074,2.515v4.863a5.946,5.946,0,0,0,.371,2.314V48Zm-3-1.377a3.175,3.175,0,0,0,1.611-.439,2.658,2.658,0,0,0,1.1-1.143V42.873h-1.416q-3.32,0-3.32,1.943a1.645,1.645,0,0,0,.566,1.328A2.177,2.177,0,0,0,179.095,46.623Zm10.693-1.074,2.617-8.115h1.846L190.462,48h-1.377l-3.828-10.566H187.1ZM200.374,48.2a4.617,4.617,0,0,1-3.5-1.411,5.237,5.237,0,0,1-1.348-3.774v-.332a6.341,6.341,0,0,1,.6-2.808,4.685,4.685,0,0,1,1.68-1.934,4.223,4.223,0,0,1,2.339-.7,3.957,3.957,0,0,1,3.2,1.357,5.877,5.877,0,0,1,1.143,3.887v.752h-7.158a3.756,3.756,0,0,0,.913,2.524,2.87,2.87,0,0,0,2.222.962,3.147,3.147,0,0,0,1.621-.391,4.073,4.073,0,0,0,1.162-1.035l1.1.859A4.437,4.437,0,0,1,200.374,48.2Zm-.225-9.473a2.41,2.41,0,0,0-1.836.8,3.868,3.868,0,0,0-.918,2.231h5.293v-.137a3.441,3.441,0,0,0-.742-2.134A2.269,2.269,0,0,0,200.149,38.723Zm6.543-.937-1.025-.7a4.7,4.7,0,0,0,.938-2.676V33h1.787v1.27a4.825,4.825,0,0,1-1.7,3.516Zm3,0-1.025-.7a4.7,4.7,0,0,0,.938-2.676V33h1.787v1.27a4.825,4.825,0,0,1-1.7,3.516Z" transform="translate(512 2975)" fill="#12263f"/>
  </g>
</svg>
