<svg xmlns="http://www.w3.org/2000/svg" width="1103" height="86" viewBox="0 0 1103 86">
  <g id="Grupo_169283" data-name="Grupo 169283" transform="translate(-285 -2958)">
    <rect id="Rectángulo_42454" data-name="Rectángulo 42454" width="177" height="86" rx="13" transform="translate(285 2958)" fill="#fc5f65"/>
    <rect id="Rectángulo_42455" data-name="Rectángulo 42455" width="252" height="86" rx="13" transform="translate(495 2958)" fill="#ffd947"/>
    <rect id="Rectángulo_42456" data-name="Rectángulo 42456" width="290" height="86" rx="13" transform="translate(779 2958)" fill="#3c3fa7"/>
    <rect id="Rectángulo_42457" data-name="Rectángulo 42457" width="295" height="86" rx="13" transform="translate(1093 2958)" fill="#6b8dfc"/>
    <path id="Trazado_165285" data-name="Trazado 165285" d="M17.236,17.2q.205-1.162-1.143-1.777l-1.885-.752q-3.281-1.465-3.115-4.033a3.7,3.7,0,0,1,.781-2.109,4.7,4.7,0,0,1,2-1.44,7.088,7.088,0,0,1,2.783-.5,4.822,4.822,0,0,1,3.33,1.226,4.084,4.084,0,0,1,1.25,3.179H18.389a2.035,2.035,0,0,0-.425-1.5,1.914,1.914,0,0,0-1.47-.557,2.963,2.963,0,0,0-1.7.444,1.823,1.823,0,0,0-.859,1.274q-.186,1.064,1.426,1.689l1.289.488.742.342q2.881,1.426,2.7,4a3.863,3.863,0,0,1-.806,2.173,4.542,4.542,0,0,1-1.953,1.4,6.957,6.957,0,0,1-2.72.459,6.092,6.092,0,0,1-2.7-.635,4.186,4.186,0,0,1-1.8-1.709,4.425,4.425,0,0,1-.537-2.344l2.861.01q-.137,2.314,2.275,2.354a2.989,2.989,0,0,0,1.719-.459A1.787,1.787,0,0,0,17.236,17.2ZM27.8,19.906a3.648,3.648,0,0,1-2.91,1.289,2.715,2.715,0,0,1-2.3-1.094,4,4,0,0,1-.605-2.832l1.143-6.836h2.754l-1.162,6.873a2.718,2.718,0,0,0-.01.606,1,1,0,0,0,1.084,1.007,2.517,2.517,0,0,0,2.119-.987l1.318-7.5H32L30.166,21H27.6Zm14.57-4.16a7.577,7.577,0,0,1-1.523,4,3.791,3.791,0,0,1-3.184,1.455,2.946,2.946,0,0,1-2.539-1.348L34.727,21h-2.51l2.6-15h2.764l-1.064,5.4a3.292,3.292,0,0,1,2.578-1.162,2.981,2.981,0,0,1,2.407,1.1,4.862,4.862,0,0,1,.933,2.983A11.416,11.416,0,0,1,42.373,15.746Zm-2.734-.206a8.192,8.192,0,0,0,.059-1.293q-.107-1.7-1.406-1.734a2.292,2.292,0,0,0-2.021,1.107l-.762,4.212a1.572,1.572,0,0,0,1.582,1.1q2.031.059,2.49-2.958Zm8.35-5.107L46.094,21.576a4.4,4.4,0,0,1-1.274,2.754,3.73,3.73,0,0,1-2.71.967,8.5,8.5,0,0,1-1.465-.186l.225-2.246a5.386,5.386,0,0,0,.85.127A1.494,1.494,0,0,0,43.3,21.586l1.914-11.152Zm-2.51-2.686a1.379,1.379,0,0,1,.41-1.069A1.66,1.66,0,0,1,48.1,6.635a1.384,1.384,0,0,1,.454,1.016,1.391,1.391,0,0,1-.41,1.079,1.572,1.572,0,0,1-1.1.444A1.544,1.544,0,0,1,45.962,8.8,1.363,1.363,0,0,1,45.479,7.748ZM53.389,21.2a4.6,4.6,0,0,1-2.456-.679,4.115,4.115,0,0,1-1.6-1.836,5.117,5.117,0,0,1-.41-2.573l.029-.391a6.831,6.831,0,0,1,.9-2.832A5.427,5.427,0,0,1,51.787,10.9a4.784,4.784,0,0,1,2.617-.659,3.655,3.655,0,0,1,3.091,1.5,5.146,5.146,0,0,1,.8,3.7l-.156,1.2H51.66a2.267,2.267,0,0,0,.5,1.641,1.9,1.9,0,0,0,1.465.635,3.379,3.379,0,0,0,2.637-1.172l1.26,1.563a3.919,3.919,0,0,1-1.719,1.4A5.621,5.621,0,0,1,53.389,21.2Zm.879-8.682a1.957,1.957,0,0,0-1.353.479,4.2,4.2,0,0,0-1.06,1.729h3.789l.059-.254a2.588,2.588,0,0,0,.01-.742,1.418,1.418,0,0,0-.479-.884A1.5,1.5,0,0,0,54.268,12.514Zm9.316,6.416a1.809,1.809,0,0,0,1.27-.415,2.04,2.04,0,0,0,.664-1.157l2.588-.01a3.8,3.8,0,0,1-.7,2,4.242,4.242,0,0,1-1.68,1.387,4.808,4.808,0,0,1-2.212.469,3.9,3.9,0,0,1-3.047-1.328,4.956,4.956,0,0,1-1.084-3.457l.029-.537.01-.107a6.605,6.605,0,0,1,1.738-4.087,4.7,4.7,0,0,1,3.643-1.45,3.809,3.809,0,0,1,2.837,1.167,4.122,4.122,0,0,1,1.03,2.974H66.1a2.163,2.163,0,0,0-.371-1.338,1.41,1.41,0,0,0-1.113-.527q-1.973-.059-2.393,2.881a9.728,9.728,0,0,0-.107,1.8Q62.217,18.9,63.584,18.93ZM74.756,7.836l-.459,2.6h1.758l-.361,2.07H73.936l-.9,5.293a1.346,1.346,0,0,0,.078.762q.137.264.664.283.156.01.84-.049l-.2,2.158a4.632,4.632,0,0,1-1.582.225,2.482,2.482,0,0,1-2.021-.85,3.07,3.07,0,0,1-.547-2.246l.908-5.576H69.688l.361-2.07h1.494l.449-2.6Zm-51.143,36.5q.215-1.563-1.621-2.285L20.3,41.438l-.566-.244q-2.852-1.3-2.666-3.652a3.82,3.82,0,0,1,.811-2.09,4.612,4.612,0,0,1,1.89-1.4,6.062,6.062,0,0,1,2.5-.464,5,5,0,0,1,2.3.576,3.7,3.7,0,0,1,1.538,1.528,4.166,4.166,0,0,1,.469,2.212l-1.846-.01a2.547,2.547,0,0,0-.586-2.034,2.623,2.623,0,0,0-1.953-.74,3.638,3.638,0,0,0-2.236.626,2.444,2.444,0,0,0-1.035,1.761q-.2,1.458,1.787,2.211l1.455.518.732.313q2.754,1.27,2.549,3.77a3.765,3.765,0,0,1-.811,2.075,4.532,4.532,0,0,1-1.909,1.353,6.582,6.582,0,0,1-2.593.449,5.424,5.424,0,0,1-2.446-.571,3.991,3.991,0,0,1-1.685-1.538,3.847,3.847,0,0,1-.508-2.217l1.836.01a2.419,2.419,0,0,0,.688,2.017,3.1,3.1,0,0,0,2.192.767,3.914,3.914,0,0,0,2.334-.615A2.4,2.4,0,0,0,23.613,44.338Zm10.059,2.617a4.081,4.081,0,0,1-3.154,1.24,2.633,2.633,0,0,1-2.241-1.084,4.146,4.146,0,0,1-.542-2.852l1.133-6.826h1.768l-1.143,6.855a4.553,4.553,0,0,0-.02.84,1.748,1.748,0,0,0,.42,1.1,1.433,1.433,0,0,0,1.035.43,3.171,3.171,0,0,0,2.93-1.533l1.328-7.7h1.768L35.117,48h-1.67Zm7.744-9.521-2,11.826a3.736,3.736,0,0,1-1,2.275,2.83,2.83,0,0,1-2.1.762,5.214,5.214,0,0,1-1.162-.2l.156-1.445a4.215,4.215,0,0,0,.811.107q1.26,0,1.514-1.5l2.021-11.826ZM39.951,34.66a1.119,1.119,0,0,1,.288-.762,1.027,1.027,0,0,1,.747-.322.951.951,0,0,1,.747.278,1.013,1.013,0,0,1,.3.747,1.052,1.052,0,0,1-.3.752,1.087,1.087,0,0,1-.752.313.931.931,0,0,1-.732-.273A.994.994,0,0,1,39.951,34.66Zm7.1,13.535a3.81,3.81,0,0,1-3.086-1.455,5.007,5.007,0,0,1-.937-3.623l.049-.42a7.03,7.03,0,0,1,.933-2.871,5.424,5.424,0,0,1,1.87-1.958,4.363,4.363,0,0,1,2.383-.63,3.36,3.36,0,0,1,2.559,1.084,4.458,4.458,0,0,1,1.016,2.832,8.276,8.276,0,0,1-.039,1.27l-.107.811h-6.9a3.569,3.569,0,0,0,.474,2.441A2.243,2.243,0,0,0,47.2,46.721a3.759,3.759,0,0,0,2.891-1.406l1.016.859a4.648,4.648,0,0,1-1.714,1.5A4.857,4.857,0,0,1,47.051,48.2Zm1.123-9.482a2.582,2.582,0,0,0-1.909.742,5.275,5.275,0,0,0-1.294,2.295l5.137.01.039-.156a2.891,2.891,0,0,0-.4-2.046A1.86,1.86,0,0,0,48.174,38.713Zm9.346-3.838-.449,2.559h1.924l-.244,1.4H56.836l-1.1,6.572a2.292,2.292,0,0,0-.01.469.745.745,0,0,0,.83.762,5.062,5.062,0,0,0,.859-.1l-.137,1.475a4.809,4.809,0,0,1-1.289.176,1.846,1.846,0,0,1-1.582-.776,3,3,0,0,1-.41-2.036l1.074-6.543H53.2l.244-1.4h1.865l.449-2.559Zm7.441,2.363a3.809,3.809,0,0,1,2.275.723,4.106,4.106,0,0,1,1.4,1.938,6,6,0,0,1,.308,2.7l-.02.215a7.107,7.107,0,0,1-.918,2.788,5.386,5.386,0,0,1-1.895,1.938,4.62,4.62,0,0,1-2.549.654,3.815,3.815,0,0,1-2.271-.723A4.013,4.013,0,0,1,59.9,45.559a6.164,6.164,0,0,1-.312-2.666,7.2,7.2,0,0,1,.889-2.949,5.511,5.511,0,0,1,1.909-2.026A4.565,4.565,0,0,1,64.961,37.238ZM61.367,42.9a6,6,0,0,0,0,1.279,3.134,3.134,0,0,0,.688,1.836,2.067,2.067,0,0,0,1.577.713,2.816,2.816,0,0,0,1.621-.435,3.649,3.649,0,0,0,1.25-1.4,5.9,5.9,0,0,0,.654-2.08,9.367,9.367,0,0,0,.029-1.514,3.253,3.253,0,0,0-.713-1.865,2.113,2.113,0,0,0-1.582-.723,2.88,2.88,0,0,0-2.324,1.074,5.307,5.307,0,0,0-1.182,2.891Z" transform="translate(331 2975)" fill="#12263f"/>
    <path id="Trazado_165284" data-name="Trazado 165284" d="M12.611,13.041h3.418L15.58,15.59H12.172l-.693,3.984H8.852l.693-3.984H6.107l.449-2.549H9.984l.664-3.818h2.627Z" transform="translate(464 2989)" fill="#12263f"/>
    <path id="Trazado_165282" data-name="Trazado 165282" d="M12.611,13.041h3.418L15.58,15.59H12.172l-.693,3.984H8.852l.693-3.984H6.107l.449-2.549H9.984l.664-3.818h2.627Z" transform="translate(752 2989)" fill="#12263f"/>
    <path id="Trazado_165281" data-name="Trazado 165281" d="M12.611,13.041h3.418L15.58,15.59H12.172l-.693,3.984H8.852l.693-3.984H6.107l.449-2.549H9.984l.664-3.818h2.627Z" transform="translate(1071 2989)" fill="#12263f"/>
    <path id="Trazado_165283" data-name="Trazado 165283" d="M57.649,18.07H52.688L51.224,21H48.069l7.6-14.219h2.646L61.019,21H58.1ZM53.86,15.7h3.428l-.8-5.293ZM68.7,19.906a3.648,3.648,0,0,1-2.91,1.289,2.715,2.715,0,0,1-2.3-1.094,4,4,0,0,1-.605-2.832l1.143-6.836H66.78l-1.162,6.873a2.718,2.718,0,0,0-.01.606,1,1,0,0,0,1.084,1.007,2.517,2.517,0,0,0,2.119-.987l1.318-7.5H72.9L71.067,21H68.5Zm9.5-6.338,2.217-3.135h3.1L79.69,15.746,81.829,21H79.036l-1.3-3.3L75.4,21H72.288l3.984-5.527-2.041-5.039h2.793ZM86,21H83.226l1.836-10.566h2.773ZM85.384,7.748a1.376,1.376,0,0,1,.43-1.084,1.653,1.653,0,0,1,2.168-.049A1.37,1.37,0,0,1,88.46,7.65a1.415,1.415,0,0,1-.405,1.055,1.519,1.519,0,0,1-1.108.469A1.544,1.544,0,0,1,85.867,8.8,1.363,1.363,0,0,1,85.384,7.748ZM91.243,21H88.47L91.077,6h2.764Zm5.244,0H93.714L95.55,10.434h2.773ZM95.872,7.748a1.376,1.376,0,0,1,.43-1.084,1.653,1.653,0,0,1,2.168-.049,1.37,1.37,0,0,1,.479,1.035,1.415,1.415,0,0,1-.405,1.055,1.519,1.519,0,0,1-1.108.469A1.544,1.544,0,0,1,96.355,8.8,1.363,1.363,0,0,1,95.872,7.748ZM104.935,21a2.851,2.851,0,0,1-.107-.957,3.579,3.579,0,0,1-2.7,1.152,3.243,3.243,0,0,1-2.3-.9,2.733,2.733,0,0,1-.854-2.183,3.159,3.159,0,0,1,1.45-2.651,6.583,6.583,0,0,1,3.706-.923l1.289.02.137-.635a2.2,2.2,0,0,0,.029-.615,1.058,1.058,0,0,0-.347-.718,1.194,1.194,0,0,0-.786-.269,1.682,1.682,0,0,0-1.094.317,1.538,1.538,0,0,0-.576.972l-2.764.01a3.072,3.072,0,0,1,1.392-2.456,5.389,5.389,0,0,1,3.267-.923,3.9,3.9,0,0,1,2.813,1.069,3.128,3.128,0,0,1,.85,2.651l-.811,5.059-.049.625a3.015,3.015,0,0,0,.166,1.172l-.01.186Zm-2.119-1.943a2.522,2.522,0,0,0,2.08-1.035l.342-1.826-.957-.01a2.674,2.674,0,0,0-2.2.928,1.615,1.615,0,0,0-.3.791.937.937,0,0,0,.22.835A1.113,1.113,0,0,0,102.815,19.057Zm13.74-5.977a5.686,5.686,0,0,0-.928-.1,2.67,2.67,0,0,0-2.334,1.1L112.073,21h-2.754l1.836-10.566,2.588-.01-.254,1.289a2.906,2.906,0,0,1,2.461-1.494,4.017,4.017,0,0,1,.957.137Zm4.424,3.9L124,10.434h3.066l-6.182,12.158a5.289,5.289,0,0,1-1.558,2.051,3.4,3.4,0,0,1-2.065.654,6.294,6.294,0,0,1-1.328-.205l.205-2.148.381.02a2.064,2.064,0,0,0,1.973-.986l.605-1.123-1.729-10.42h2.852Zm14.727.537,3.008-7.08h2.969L136.575,21h-2.637l-1.807-10.566h2.793ZM146.185,21.2a4.6,4.6,0,0,1-2.456-.679,4.115,4.115,0,0,1-1.6-1.836,5.117,5.117,0,0,1-.41-2.573l.029-.391a6.831,6.831,0,0,1,.9-2.832,5.427,5.427,0,0,1,1.934-1.987,4.784,4.784,0,0,1,2.617-.659,3.655,3.655,0,0,1,3.091,1.5,5.146,5.146,0,0,1,.8,3.7l-.156,1.2h-6.475a2.267,2.267,0,0,0,.5,1.641,1.9,1.9,0,0,0,1.465.635,3.379,3.379,0,0,0,2.637-1.172l1.26,1.563a3.919,3.919,0,0,1-1.719,1.4A5.621,5.621,0,0,1,146.185,21.2Zm.879-8.682a1.957,1.957,0,0,0-1.353.479,4.2,4.2,0,0,0-1.06,1.729h3.789l.059-.254a2.589,2.589,0,0,0,.01-.742,1.418,1.418,0,0,0-.479-.884A1.5,1.5,0,0,0,147.063,12.514Zm11.924.566a5.686,5.686,0,0,0-.928-.1,2.67,2.67,0,0,0-2.334,1.1L154.5,21h-2.754l1.836-10.566,2.588-.01-.254,1.289a2.906,2.906,0,0,1,2.461-1.494,4.017,4.017,0,0,1,.957.137Zm10.1,2.666a7.577,7.577,0,0,1-1.523,4,3.791,3.791,0,0,1-3.184,1.455,2.946,2.946,0,0,1-2.539-1.348l-.4,1.143h-2.51l2.6-15h2.764l-1.064,5.4a3.292,3.292,0,0,1,2.578-1.162,2.981,2.981,0,0,1,2.407,1.1,4.862,4.862,0,0,1,.933,2.983A11.418,11.418,0,0,1,169.085,15.746Zm-2.734-.206a8.192,8.192,0,0,0,.059-1.293q-.107-1.7-1.406-1.734a2.292,2.292,0,0,0-2.021,1.107l-.762,4.212a1.572,1.572,0,0,0,1.582,1.1q2.031.059,2.49-2.958ZM13.138,45.51,17.2,33.781h2.051L13.978,48h-1.66L7.054,33.781H9.095ZM25.257,48.2a4.617,4.617,0,0,1-3.5-1.411,5.237,5.237,0,0,1-1.348-3.774v-.332a6.341,6.341,0,0,1,.6-2.808,4.685,4.685,0,0,1,1.68-1.934,4.223,4.223,0,0,1,2.339-.7,3.957,3.957,0,0,1,3.2,1.357,5.877,5.877,0,0,1,1.143,3.887v.752H22.22a3.756,3.756,0,0,0,.913,2.524,2.87,2.87,0,0,0,2.222.962,3.147,3.147,0,0,0,1.621-.391,4.073,4.073,0,0,0,1.162-1.035l1.1.859A4.437,4.437,0,0,1,25.257,48.2Zm-.225-9.473a2.41,2.41,0,0,0-1.836.8,3.868,3.868,0,0,0-.918,2.231h5.293v-.137a3.441,3.441,0,0,0-.742-2.134A2.269,2.269,0,0,0,25.032,38.723Zm11.543.332a5.414,5.414,0,0,0-.889-.068A2.381,2.381,0,0,0,33.274,40.5V48H31.468V37.434h1.758l.029,1.221a2.813,2.813,0,0,1,2.52-1.416,1.846,1.846,0,0,1,.8.137Zm10.605,3.779a6.283,6.283,0,0,1-1.113,3.892,3.557,3.557,0,0,1-2.988,1.47,3.683,3.683,0,0,1-3.1-1.416L39.9,48h-1.66V33h1.807v5.6a3.663,3.663,0,0,1,3.018-1.357,3.579,3.579,0,0,1,3.022,1.455,6.471,6.471,0,0,1,1.1,3.984Zm-1.807-.205a4.882,4.882,0,0,0-.713-2.852,2.36,2.36,0,0,0-2.051-1.006,2.652,2.652,0,0,0-2.568,1.66V45a2.727,2.727,0,0,0,2.588,1.66,2.347,2.347,0,0,0,2.021-1.006A5.192,5.192,0,0,0,45.374,42.629Zm3.6-.01a6.241,6.241,0,0,1,.61-2.793,4.553,4.553,0,0,1,1.7-1.914,4.626,4.626,0,0,1,2.485-.674,4.456,4.456,0,0,1,3.491,1.494A5.748,5.748,0,0,1,58.6,42.707v.127a6.3,6.3,0,0,1-.591,2.769,4.486,4.486,0,0,1-1.689,1.909,4.679,4.679,0,0,1-2.524.684A4.445,4.445,0,0,1,50.311,46.7a5.719,5.719,0,0,1-1.333-3.955Zm1.816.215a4.52,4.52,0,0,0,.815,2.822,2.763,2.763,0,0,0,4.37-.015,4.943,4.943,0,0,0,.811-3.022,4.513,4.513,0,0,0-.825-2.817,2.623,2.623,0,0,0-2.192-1.079,2.594,2.594,0,0,0-2.158,1.064A4.906,4.906,0,0,0,50.794,42.834ZM72.337,48a3.8,3.8,0,0,1-.254-1.113A4.031,4.031,0,0,1,69.075,48.2a3.73,3.73,0,0,1-2.563-.884,2.859,2.859,0,0,1-1-2.241,2.987,2.987,0,0,1,1.255-2.563,5.916,5.916,0,0,1,3.53-.913h1.758v-.83a2.029,2.029,0,0,0-.566-1.509,2.276,2.276,0,0,0-1.67-.562,2.634,2.634,0,0,0-1.621.488,1.439,1.439,0,0,0-.654,1.182H65.726a2.493,2.493,0,0,1,.562-1.528,3.832,3.832,0,0,1,1.523-1.167,5.125,5.125,0,0,1,2.114-.43,4.177,4.177,0,0,1,2.861.913,3.294,3.294,0,0,1,1.074,2.515v4.863a5.946,5.946,0,0,0,.371,2.314V48Zm-3-1.377a3.175,3.175,0,0,0,1.611-.439,2.658,2.658,0,0,0,1.1-1.143V42.873H70.638q-3.32,0-3.32,1.943a1.645,1.645,0,0,0,.566,1.328A2.177,2.177,0,0,0,69.339,46.623Zm13.877.332a3.837,3.837,0,0,1-3.1,1.24,3.285,3.285,0,0,1-2.573-.981,4.248,4.248,0,0,1-.894-2.905V37.434H78.46V44.26q0,2.4,1.953,2.4a2.7,2.7,0,0,0,2.754-1.543V37.434h1.807V48H83.255Zm8.047-5.664,2.344-3.857h2.109l-3.457,5.225L95.823,48h-2.09l-2.441-3.955L88.851,48h-2.1l3.564-5.342-3.457-5.225h2.09ZM99.593,48H97.786V37.434h1.807ZM97.64,34.631a1.078,1.078,0,0,1,.269-.742,1.008,1.008,0,0,1,.8-.3,1.024,1.024,0,0,1,.8.3,1.067,1.067,0,0,1,.273.742,1.032,1.032,0,0,1-.273.732,1.043,1.043,0,0,1-.8.293,1.026,1.026,0,0,1-.8-.293A1.043,1.043,0,0,1,97.64,34.631ZM104.446,48H102.64V33h1.807Zm4.854,0h-1.807V37.434H109.3Zm-1.953-13.369a1.078,1.078,0,0,1,.269-.742,1.008,1.008,0,0,1,.8-.3,1.024,1.024,0,0,1,.8.3,1.067,1.067,0,0,1,.273.742,1.032,1.032,0,0,1-.273.732,1.043,1.043,0,0,1-.8.293,1.026,1.026,0,0,1-.8-.293A1.043,1.043,0,0,1,107.347,34.631ZM118.714,48a3.8,3.8,0,0,1-.254-1.113,4.031,4.031,0,0,1-3.008,1.309,3.73,3.73,0,0,1-2.563-.884,2.859,2.859,0,0,1-1-2.241,2.987,2.987,0,0,1,1.255-2.563,5.916,5.916,0,0,1,3.53-.913h1.758v-.83a2.029,2.029,0,0,0-.566-1.509,2.276,2.276,0,0,0-1.67-.562,2.634,2.634,0,0,0-1.621.488,1.439,1.439,0,0,0-.654,1.182H112.1a2.493,2.493,0,0,1,.562-1.528,3.832,3.832,0,0,1,1.523-1.167,5.125,5.125,0,0,1,2.114-.43,4.177,4.177,0,0,1,2.861.913,3.294,3.294,0,0,1,1.074,2.515v4.863a5.946,5.946,0,0,0,.371,2.314V48Zm-3-1.377a3.175,3.175,0,0,0,1.611-.439,2.658,2.658,0,0,0,1.1-1.143V42.873h-1.416q-3.32,0-3.32,1.943a1.645,1.645,0,0,0,.566,1.328A2.177,2.177,0,0,0,115.716,46.623Zm12.461-7.568a5.414,5.414,0,0,0-.889-.068,2.381,2.381,0,0,0-2.412,1.514V48h-1.807V37.434h1.758l.029,1.221a2.813,2.813,0,0,1,2.52-1.416,1.846,1.846,0,0,1,.8.137Zm7.959-6.24,1.035.7a4.606,4.606,0,0,0-.937,2.676v1.328h-1.8V36.389a4.481,4.481,0,0,1,.474-1.973A4.729,4.729,0,0,1,136.136,32.814Zm3.076,0,1.035.7a4.606,4.606,0,0,0-.937,2.676v1.328h-1.8V36.389a4.481,4.481,0,0,1,.474-1.973A4.729,4.729,0,0,1,139.212,32.814Zm5.1,2.061v2.559h1.973v1.4H144.31v6.561a1.467,1.467,0,0,0,.264.953,1.11,1.11,0,0,0,.9.318,4.374,4.374,0,0,0,.859-.117V48a5.268,5.268,0,0,1-1.387.194,2.25,2.25,0,0,1-1.826-.732,3.147,3.147,0,0,1-.615-2.08V38.83h-1.924v-1.4H142.5V34.875Zm3.408,7.744a6.241,6.241,0,0,1,.61-2.793,4.553,4.553,0,0,1,1.7-1.914,4.626,4.626,0,0,1,2.485-.674A4.456,4.456,0,0,1,156,38.732a5.748,5.748,0,0,1,1.333,3.975v.127a6.3,6.3,0,0,1-.591,2.769,4.486,4.486,0,0,1-1.689,1.909,4.679,4.679,0,0,1-2.524.684,4.445,4.445,0,0,1-3.481-1.494,5.719,5.719,0,0,1-1.333-3.955Zm1.816.215a4.52,4.52,0,0,0,.815,2.822,2.763,2.763,0,0,0,4.37-.015,4.943,4.943,0,0,0,.811-3.022,4.513,4.513,0,0,0-.825-2.817,2.623,2.623,0,0,0-2.192-1.079,2.594,2.594,0,0,0-2.158,1.064A4.906,4.906,0,0,0,149.534,42.834Zm16.826-4.121a3.841,3.841,0,0,1,3.125-1.475q3.35,0,3.379,3.779V48h-1.807V41.008a2.433,2.433,0,0,0-.522-1.689,2.094,2.094,0,0,0-1.6-.547,2.607,2.607,0,0,0-1.543.469,3.183,3.183,0,0,0-1.035,1.23V48h-1.807V33h1.807ZM182.093,48a3.8,3.8,0,0,1-.254-1.113,4.031,4.031,0,0,1-3.008,1.309,3.73,3.73,0,0,1-2.563-.884,2.859,2.859,0,0,1-1-2.241,2.987,2.987,0,0,1,1.255-2.563,5.916,5.916,0,0,1,3.53-.913h1.758v-.83a2.029,2.029,0,0,0-.566-1.509,2.276,2.276,0,0,0-1.67-.562,2.634,2.634,0,0,0-1.621.488,1.439,1.439,0,0,0-.654,1.182h-1.816a2.493,2.493,0,0,1,.562-1.528,3.832,3.832,0,0,1,1.523-1.167,5.125,5.125,0,0,1,2.114-.43,4.177,4.177,0,0,1,2.861.913,3.294,3.294,0,0,1,1.074,2.515v4.863a5.946,5.946,0,0,0,.371,2.314V48Zm-3-1.377a3.175,3.175,0,0,0,1.611-.439,2.658,2.658,0,0,0,1.1-1.143V42.873h-1.416q-3.32,0-3.32,1.943a1.645,1.645,0,0,0,.566,1.328A2.177,2.177,0,0,0,179.095,46.623Zm10.693-1.074,2.617-8.115h1.846L190.462,48h-1.377l-3.828-10.566H187.1ZM200.374,48.2a4.617,4.617,0,0,1-3.5-1.411,5.237,5.237,0,0,1-1.348-3.774v-.332a6.341,6.341,0,0,1,.6-2.808,4.685,4.685,0,0,1,1.68-1.934,4.223,4.223,0,0,1,2.339-.7,3.957,3.957,0,0,1,3.2,1.357,5.877,5.877,0,0,1,1.143,3.887v.752h-7.158a3.756,3.756,0,0,0,.913,2.524,2.87,2.87,0,0,0,2.222.962,3.147,3.147,0,0,0,1.621-.391,4.073,4.073,0,0,0,1.162-1.035l1.1.859A4.437,4.437,0,0,1,200.374,48.2Zm-.225-9.473a2.41,2.41,0,0,0-1.836.8,3.868,3.868,0,0,0-.918,2.231h5.293v-.137a3.441,3.441,0,0,0-.742-2.134A2.269,2.269,0,0,0,200.149,38.723Zm6.543-.937-1.025-.7a4.7,4.7,0,0,0,.938-2.676V33h1.787v1.27a4.825,4.825,0,0,1-1.7,3.516Zm3,0-1.025-.7a4.7,4.7,0,0,0,.938-2.676V33h1.787v1.27a4.825,4.825,0,0,1-1.7,3.516Z" transform="translate(512 2975)" fill="#12263f"/>
    <path id="Trazado_165280" data-name="Trazado 165280" d="M7.834,15.99,6.955,21H4.094L6.564,6.781l4.98.01A4.982,4.982,0,0,1,15.168,8.07a3.967,3.967,0,0,1,1.152,3.34,4.49,4.49,0,0,1-1.743,3.34A6.343,6.343,0,0,1,10.529,16Zm.4-2.373,2.383.02a3.013,3.013,0,0,0,1.914-.6,2.4,2.4,0,0,0,.908-1.611,2.058,2.058,0,0,0-.327-1.621,1.772,1.772,0,0,0-1.4-.645l-2.7-.01ZM22.531,21a2.851,2.851,0,0,1-.107-.957,3.579,3.579,0,0,1-2.7,1.152,3.243,3.243,0,0,1-2.3-.9,2.733,2.733,0,0,1-.854-2.183,3.159,3.159,0,0,1,1.45-2.651,6.583,6.583,0,0,1,3.706-.923l1.289.02.137-.635a2.2,2.2,0,0,0,.029-.615,1.058,1.058,0,0,0-.347-.718,1.194,1.194,0,0,0-.786-.269,1.682,1.682,0,0,0-1.094.317,1.538,1.538,0,0,0-.576.972l-2.764.01a3.072,3.072,0,0,1,1.392-2.456,5.389,5.389,0,0,1,3.267-.923,3.9,3.9,0,0,1,2.813,1.069,3.128,3.128,0,0,1,.85,2.651l-.811,5.059-.049.625a3.015,3.015,0,0,0,.166,1.172l-.01.186Zm-2.119-1.943a2.522,2.522,0,0,0,2.08-1.035l.342-1.826-.957-.01a2.674,2.674,0,0,0-2.2.928,1.615,1.615,0,0,0-.3.791.937.937,0,0,0,.22.835A1.113,1.113,0,0,0,20.412,19.057Zm12.627-1.035q.156-.781-1.084-1.133l-.889-.225Q27.912,15.795,28,13.6a3.035,3.035,0,0,1,1.323-2.437,4.927,4.927,0,0,1,3.071-.923,4.42,4.42,0,0,1,2.891.947,3.121,3.121,0,0,1,1.123,2.471l-2.734-.01a1.2,1.2,0,0,0-1.348-1.377,1.939,1.939,0,0,0-1.118.322,1.327,1.327,0,0,0-.581.869q-.146.781,1.182,1.1l.391.088a7.856,7.856,0,0,1,2.061.737,3.11,3.11,0,0,1,1.1,1.03,2.55,2.55,0,0,1,.356,1.475,2.814,2.814,0,0,1-.649,1.758,3.975,3.975,0,0,1-1.7,1.162A5.92,5.92,0,0,1,31.1,21.2a4.461,4.461,0,0,1-2.93-1.011,3.259,3.259,0,0,1-1.191-2.563l2.6.02a1.428,1.428,0,0,0,1.621,1.533,2.306,2.306,0,0,0,1.255-.312A1.234,1.234,0,0,0,33.039,18.021ZM42.57,7.836l-.459,2.6h1.758l-.361,2.07H41.75l-.9,5.293a1.346,1.346,0,0,0,.078.762q.137.264.664.283.156.01.84-.049l-.2,2.158a4.632,4.632,0,0,1-1.582.225,2.482,2.482,0,0,1-2.021-.85,3.07,3.07,0,0,1-.547-2.246L39,12.5H37.5l.361-2.07h1.494l.449-2.6Zm16.143,7.91a8.727,8.727,0,0,1-.869,2.949,4.782,4.782,0,0,1-1.65,1.914,3.823,3.823,0,0,1-2.187.6,3.05,3.05,0,0,1-2.422-1.143l-.967,5H47.863l2.529-14.629,2.539-.01-.186,1.064a3.374,3.374,0,0,1,2.7-1.25,3,3,0,0,1,2.412,1.128,4.9,4.9,0,0,1,.918,2.954A11.416,11.416,0,0,1,58.713,15.746Zm-2.734-.2.059-.939A2.612,2.612,0,0,0,55.69,13.1a1.244,1.244,0,0,0-1.069-.577,2.273,2.273,0,0,0-1.982,1.017L51.848,17.9A1.541,1.541,0,0,0,53.4,18.93a1.987,1.987,0,0,0,1.66-.773A5.292,5.292,0,0,0,55.979,15.546ZM65.7,21a2.851,2.851,0,0,1-.107-.957,3.579,3.579,0,0,1-2.7,1.152,3.243,3.243,0,0,1-2.3-.9,2.733,2.733,0,0,1-.854-2.183,3.159,3.159,0,0,1,1.45-2.651,6.583,6.583,0,0,1,3.706-.923l1.289.02.137-.635a2.2,2.2,0,0,0,.029-.615A1.058,1.058,0,0,0,66,12.587a1.194,1.194,0,0,0-.786-.269,1.682,1.682,0,0,0-1.094.317,1.538,1.538,0,0,0-.576.972l-2.764.01a3.072,3.072,0,0,1,1.392-2.456,5.389,5.389,0,0,1,3.267-.923,3.9,3.9,0,0,1,2.813,1.069,3.128,3.128,0,0,1,.85,2.651l-.811,5.059-.049.625a3.015,3.015,0,0,0,.166,1.172L68.4,21Zm-2.119-1.943a2.522,2.522,0,0,0,2.08-1.035L66,16.2l-.957-.01a2.674,2.674,0,0,0-2.2.928,1.615,1.615,0,0,0-.3.791.937.937,0,0,0,.22.835A1.113,1.113,0,0,0,63.576,19.057Zm13.74-5.977a5.686,5.686,0,0,0-.928-.1,2.67,2.67,0,0,0-2.334,1.1L72.834,21H70.08l1.836-10.566,2.588-.01-.254,1.289a2.906,2.906,0,0,1,2.461-1.494,4.017,4.017,0,0,1,.957.137Zm6.016-5.244-.459,2.6h1.758L84.27,12.5H82.512l-.9,5.293a1.346,1.346,0,0,0,.078.762q.137.264.664.283.156.01.84-.049L83,20.951a4.632,4.632,0,0,1-1.582.225,2.482,2.482,0,0,1-2.021-.85,3.07,3.07,0,0,1-.547-2.246l.908-5.576H78.264l.361-2.07h1.494l.449-2.6ZM87.307,21H84.533l1.836-10.566h2.773ZM86.691,7.748a1.376,1.376,0,0,1,.43-1.084,1.653,1.653,0,0,1,2.168-.049,1.37,1.37,0,0,1,.479,1.035,1.415,1.415,0,0,1-.405,1.055,1.519,1.519,0,0,1-1.108.469A1.544,1.544,0,0,1,87.175,8.8,1.363,1.363,0,0,1,86.691,7.748ZM94.27,18.93a1.809,1.809,0,0,0,1.27-.415,2.04,2.04,0,0,0,.664-1.157l2.588-.01a3.8,3.8,0,0,1-.7,2,4.242,4.242,0,0,1-1.68,1.387,4.808,4.808,0,0,1-2.212.469,3.9,3.9,0,0,1-3.047-1.328A4.956,4.956,0,0,1,90.07,16.42l.029-.537.01-.107a6.605,6.605,0,0,1,1.738-4.087,4.7,4.7,0,0,1,3.643-1.45,3.809,3.809,0,0,1,2.837,1.167,4.122,4.122,0,0,1,1.03,2.974H96.789a2.163,2.163,0,0,0-.371-1.338,1.41,1.41,0,0,0-1.113-.527q-1.973-.059-2.393,2.881a9.728,9.728,0,0,0-.107,1.8Q92.9,18.9,94.27,18.93Zm8.5,2.07H99.992l1.836-10.566H104.6ZM102.15,7.748a1.376,1.376,0,0,1,.43-1.084,1.653,1.653,0,0,1,2.168-.049,1.37,1.37,0,0,1,.479,1.035,1.415,1.415,0,0,1-.405,1.055,1.519,1.519,0,0,1-1.108.469,1.544,1.544,0,0,1-1.079-.371A1.363,1.363,0,0,1,102.15,7.748Zm13.1,8a8.727,8.727,0,0,1-.869,2.949,4.782,4.782,0,0,1-1.65,1.914,3.823,3.823,0,0,1-2.187.6,3.05,3.05,0,0,1-2.422-1.143l-.967,5H104.4l2.529-14.629,2.539-.01-.186,1.064a3.374,3.374,0,0,1,2.7-1.25,3,3,0,0,1,2.412,1.128,4.9,4.9,0,0,1,.918,2.954A11.415,11.415,0,0,1,115.246,15.746Zm-2.734-.2.059-.939a2.612,2.612,0,0,0-.347-1.506,1.244,1.244,0,0,0-1.069-.577,2.273,2.273,0,0,0-1.982,1.017l-.791,4.362a1.541,1.541,0,0,0,1.553,1.027,1.987,1.987,0,0,0,1.66-.773A5.292,5.292,0,0,0,112.512,15.546ZM119.025,21h-2.773l2.607-15h2.764Zm7.354.2a4.6,4.6,0,0,1-2.456-.679,4.115,4.115,0,0,1-1.6-1.836,5.117,5.117,0,0,1-.41-2.573l.029-.391a6.831,6.831,0,0,1,.9-2.832,5.427,5.427,0,0,1,1.934-1.987,4.784,4.784,0,0,1,2.617-.659,3.655,3.655,0,0,1,3.091,1.5,5.146,5.146,0,0,1,.8,3.7l-.156,1.2H124.65a2.267,2.267,0,0,0,.5,1.641,1.9,1.9,0,0,0,1.465.635,3.379,3.379,0,0,0,2.637-1.172l1.26,1.563a3.919,3.919,0,0,1-1.719,1.4A5.621,5.621,0,0,1,126.379,21.2Zm.879-8.682a1.957,1.957,0,0,0-1.353.479,4.2,4.2,0,0,0-1.06,1.729h3.789l.059-.254a2.589,2.589,0,0,0,.01-.742,1.418,1.418,0,0,0-.479-.884A1.5,1.5,0,0,0,127.258,12.514Zm15.664-2.275a4.238,4.238,0,0,1,2.407.718,4.042,4.042,0,0,1,1.484,1.924,5.952,5.952,0,0,1,.337,2.72,6.429,6.429,0,0,1-1.753,4.077,4.95,4.95,0,0,1-3.774,1.519,4.225,4.225,0,0,1-2.383-.708,4.027,4.027,0,0,1-1.484-1.909,5.821,5.821,0,0,1-.342-2.7,6.619,6.619,0,0,1,1.777-4.16A4.847,4.847,0,0,1,142.922,10.238Zm-2.783,6.644a2.438,2.438,0,0,0,.439,1.477,1.46,1.46,0,0,0,1.182.561,2.141,2.141,0,0,0,1.992-1.165,5.808,5.808,0,0,0,.674-3.164,2.652,2.652,0,0,0-.454-1.5,1.436,1.436,0,0,0-1.187-.58,2.143,2.143,0,0,0-1.968,1.155A5.748,5.748,0,0,0,140.139,16.882ZM148.684,21l1.475-8.506h-1.523L149,10.434l1.523-.01.137-1.055a4.165,4.165,0,0,1,1.377-2.651,4.167,4.167,0,0,1,2.861-.942,9.162,9.162,0,0,1,1.494.2l-.244,2.188a3.415,3.415,0,0,0-.811-.117,2.019,2.019,0,0,0-1.255.373,1.694,1.694,0,0,0-.649,1.147l-.146.863h2.041l-.361,2.061h-2.031L151.457,21Zm15.635-10.576-.225,1.2a3.89,3.89,0,0,1,3.1-1.387,2.973,2.973,0,0,1,1.621.449,2.1,2.1,0,0,1,.869,1.162,4.069,4.069,0,0,1,3.281-1.611,2.657,2.657,0,0,1,2.192,1,4.089,4.089,0,0,1,.62,2.793l-.02.244L174.631,21h-2.764l1.123-6.756a4.883,4.883,0,0,0,.029-.675,1.046,1.046,0,0,0-1.172-1.056,2.325,2.325,0,0,0-1.943,1.212l-.029.225L168.645,21h-2.754l1.123-6.729a4.872,4.872,0,0,0,.029-.674,1.045,1.045,0,0,0-1.162-1.064A2.334,2.334,0,0,0,164,13.52L162.678,21h-2.754l1.826-10.566ZM182.932,21a2.851,2.851,0,0,1-.107-.957,3.579,3.579,0,0,1-2.7,1.152,3.243,3.243,0,0,1-2.3-.9,2.733,2.733,0,0,1-.854-2.183,3.159,3.159,0,0,1,1.45-2.651,6.583,6.583,0,0,1,3.706-.923l1.289.02.137-.635a2.2,2.2,0,0,0,.029-.615,1.058,1.058,0,0,0-.347-.718,1.194,1.194,0,0,0-.786-.269,1.682,1.682,0,0,0-1.094.317,1.538,1.538,0,0,0-.576.972l-2.764.01a3.072,3.072,0,0,1,1.392-2.456,5.389,5.389,0,0,1,3.267-.923,3.9,3.9,0,0,1,2.813,1.069,3.128,3.128,0,0,1,.85,2.651l-.811,5.059-.049.625a3.015,3.015,0,0,0,.166,1.172l-.01.186Zm-2.119-1.943a2.522,2.522,0,0,0,2.08-1.035l.342-1.826-.957-.01a2.674,2.674,0,0,0-2.2.928,1.615,1.615,0,0,0-.3.791.937.937,0,0,0,.22.835A1.113,1.113,0,0,0,180.813,19.057ZM190.227,21h-2.773l1.836-10.566h2.773Zm-.615-13.252a1.376,1.376,0,0,1,.43-1.084,1.653,1.653,0,0,1,2.168-.049,1.37,1.37,0,0,1,.479,1.035,1.415,1.415,0,0,1-.405,1.055,1.519,1.519,0,0,1-1.108.469,1.544,1.544,0,0,1-1.079-.371A1.363,1.363,0,0,1,189.611,7.748Zm7.3,2.676-.234,1.25a3.8,3.8,0,0,1,3.076-1.436,2.535,2.535,0,0,1,2.207,1.094,4.407,4.407,0,0,1,.518,2.949L201.369,21h-2.754l1.133-6.748a3.16,3.16,0,0,0,.02-.693,1.118,1.118,0,0,0-1.25-1.025,2.37,2.37,0,0,0-1.943,1.006L195.256,21H192.5l1.836-10.566Zm15.986,7.09,3.008-7.08h2.969L213.771,21h-2.637l-1.807-10.566h2.793ZM223.381,21.2a4.6,4.6,0,0,1-2.456-.679,4.115,4.115,0,0,1-1.6-1.836,5.117,5.117,0,0,1-.41-2.573l.029-.391a6.831,6.831,0,0,1,.9-2.832,5.427,5.427,0,0,1,1.934-1.987,4.784,4.784,0,0,1,2.617-.659,3.655,3.655,0,0,1,3.091,1.5,5.146,5.146,0,0,1,.8,3.7l-.156,1.2h-6.475a2.267,2.267,0,0,0,.5,1.641,1.9,1.9,0,0,0,1.465.635,3.379,3.379,0,0,0,2.637-1.172l1.26,1.563a3.919,3.919,0,0,1-1.719,1.4A5.621,5.621,0,0,1,223.381,21.2Zm.879-8.682a1.957,1.957,0,0,0-1.353.479,4.2,4.2,0,0,0-1.06,1.729h3.789l.059-.254a2.589,2.589,0,0,0,.01-.742,1.418,1.418,0,0,0-.479-.884A1.5,1.5,0,0,0,224.26,12.514Zm11.924.566a5.686,5.686,0,0,0-.928-.1,2.67,2.67,0,0,0-2.334,1.1L231.7,21h-2.754l1.836-10.566,2.588-.01-.254,1.289a2.906,2.906,0,0,1,2.461-1.494,4.017,4.017,0,0,1,.957.137Zm10.1,2.666a7.577,7.577,0,0,1-1.523,4,3.791,3.791,0,0,1-3.184,1.455,2.946,2.946,0,0,1-2.539-1.348l-.4,1.143h-2.51l2.6-15h2.764l-1.064,5.4A3.292,3.292,0,0,1,243,10.238a2.981,2.981,0,0,1,2.407,1.1,4.862,4.862,0,0,1,.933,2.983A11.418,11.418,0,0,1,246.281,15.746Zm-2.734-.206a8.192,8.192,0,0,0,.059-1.293q-.107-1.7-1.406-1.734a2.292,2.292,0,0,0-2.021,1.107l-.762,4.212A1.572,1.572,0,0,0,241,18.93q2.031.059,2.49-2.958ZM51.145,42.434V48H49.27V33.781h5.244a5.269,5.269,0,0,1,3.657,1.191,4.039,4.039,0,0,1,1.323,3.154A3.986,3.986,0,0,1,58.2,41.315a5.5,5.5,0,0,1-3.706,1.118Zm0-1.533h3.369a3.369,3.369,0,0,0,2.3-.709,2.593,2.593,0,0,0,.8-2.05,2.679,2.679,0,0,0-.8-2.035,3.156,3.156,0,0,0-2.2-.792H51.145ZM68.02,48a3.8,3.8,0,0,1-.254-1.113A4.031,4.031,0,0,1,64.758,48.2a3.73,3.73,0,0,1-2.563-.884,2.859,2.859,0,0,1-1-2.241,2.987,2.987,0,0,1,1.255-2.563,5.916,5.916,0,0,1,3.53-.913h1.758v-.83a2.029,2.029,0,0,0-.566-1.509,2.276,2.276,0,0,0-1.67-.562,2.634,2.634,0,0,0-1.621.488,1.439,1.439,0,0,0-.654,1.182H61.408a2.493,2.493,0,0,1,.562-1.528,3.832,3.832,0,0,1,1.523-1.167,5.125,5.125,0,0,1,2.114-.43,4.177,4.177,0,0,1,2.861.913,3.294,3.294,0,0,1,1.074,2.515v4.863a5.946,5.946,0,0,0,.371,2.314V48Zm-3-1.377a3.175,3.175,0,0,0,1.611-.439,2.658,2.658,0,0,0,1.1-1.143V42.873H66.32q-3.32,0-3.32,1.943a1.645,1.645,0,0,0,.566,1.328A2.177,2.177,0,0,0,65.021,46.623Zm12.461-7.568a5.414,5.414,0,0,0-.889-.068A2.381,2.381,0,0,0,74.182,40.5V48H72.375V37.434h1.758l.029,1.221a2.813,2.813,0,0,1,2.52-1.416,1.846,1.846,0,0,1,.8.137Zm4.6-4.18v2.559h1.973v1.4H82.082v6.561a1.467,1.467,0,0,0,.264.953,1.11,1.11,0,0,0,.9.318,4.374,4.374,0,0,0,.859-.117V48a5.268,5.268,0,0,1-1.387.194,2.25,2.25,0,0,1-1.826-.732,3.147,3.147,0,0,1-.615-2.08V38.83H78.352v-1.4h1.924V34.875ZM88.127,48H86.32V37.434h1.807ZM86.174,34.631a1.078,1.078,0,0,1,.269-.742,1.008,1.008,0,0,1,.8-.3,1.024,1.024,0,0,1,.8.3,1.067,1.067,0,0,1,.273.742,1.032,1.032,0,0,1-.273.732,1.043,1.043,0,0,1-.8.293,1.026,1.026,0,0,1-.8-.293A1.043,1.043,0,0,1,86.174,34.631Zm9.082,12.09a2.6,2.6,0,0,0,1.689-.586,2.061,2.061,0,0,0,.8-1.465h1.709A3.276,3.276,0,0,1,98.83,46.4a4.116,4.116,0,0,1-1.538,1.309,4.438,4.438,0,0,1-2.036.488,4.353,4.353,0,0,1-3.433-1.44,5.737,5.737,0,0,1-1.274-3.94v-.3a6.361,6.361,0,0,1,.566-2.744A4.314,4.314,0,0,1,92.741,37.9a4.619,4.619,0,0,1,2.5-.664A4.238,4.238,0,0,1,98.2,38.3a3.8,3.8,0,0,1,1.255,2.764H97.746a2.49,2.49,0,0,0-.776-1.685,2.415,2.415,0,0,0-1.724-.659,2.529,2.529,0,0,0-2.134.991,4.655,4.655,0,0,0-.757,2.866v.342a4.562,4.562,0,0,0,.752,2.813A2.541,2.541,0,0,0,95.256,46.721ZM103.449,48h-1.807V37.434h1.807ZM101.5,34.631a1.078,1.078,0,0,1,.269-.742,1.008,1.008,0,0,1,.8-.3,1.024,1.024,0,0,1,.8.3,1.067,1.067,0,0,1,.273.742,1.032,1.032,0,0,1-.273.732,1.043,1.043,0,0,1-.8.293,1.026,1.026,0,0,1-.8-.293A1.043,1.043,0,0,1,101.5,34.631Zm13.77,8.2a6.327,6.327,0,0,1-1.1,3.887,3.537,3.537,0,0,1-2.988,1.475,3.875,3.875,0,0,1-3.027-1.221v5.088H106.34V37.434h1.65l.088,1.172a3.722,3.722,0,0,1,3.066-1.367,3.6,3.6,0,0,1,3.013,1.436,6.4,6.4,0,0,1,1.108,3.994Zm-1.807-.205a4.669,4.669,0,0,0-.762-2.822,2.454,2.454,0,0,0-2.09-1.035,2.656,2.656,0,0,0-2.461,1.455v5.049a2.661,2.661,0,0,0,2.48,1.445,2.442,2.442,0,0,0,2.065-1.03A5.1,5.1,0,0,0,113.459,42.629ZM119.523,48h-1.807V37.434h1.807ZM117.57,34.631a1.078,1.078,0,0,1,.269-.742,1.008,1.008,0,0,1,.8-.3,1.024,1.024,0,0,1,.8.3,1.067,1.067,0,0,1,.273.742,1.032,1.032,0,0,1-.273.732,1.043,1.043,0,0,1-.8.293,1.026,1.026,0,0,1-.8-.293A1.043,1.043,0,0,1,117.57,34.631Zm4.365,7.988a6.241,6.241,0,0,1,.61-2.793,4.553,4.553,0,0,1,1.7-1.914,4.626,4.626,0,0,1,2.485-.674,4.456,4.456,0,0,1,3.491,1.494,5.748,5.748,0,0,1,1.333,3.975v.127a6.3,6.3,0,0,1-.591,2.769,4.486,4.486,0,0,1-1.689,1.909,4.679,4.679,0,0,1-2.524.684,4.445,4.445,0,0,1-3.481-1.494,5.719,5.719,0,0,1-1.333-3.955Zm1.816.215a4.52,4.52,0,0,0,.815,2.822,2.763,2.763,0,0,0,4.37-.015,4.943,4.943,0,0,0,.811-3.022,4.513,4.513,0,0,0-.825-2.817,2.623,2.623,0,0,0-2.192-1.079,2.594,2.594,0,0,0-2.158,1.064A4.906,4.906,0,0,0,123.752,42.834Zm23.945,0a6.327,6.327,0,0,1-1.1,3.887,3.537,3.537,0,0,1-2.988,1.475,3.875,3.875,0,0,1-3.027-1.221v5.088h-1.807V37.434h1.65l.088,1.172a3.722,3.722,0,0,1,3.066-1.367,3.6,3.6,0,0,1,3.013,1.436,6.4,6.4,0,0,1,1.108,3.994Zm-1.807-.205a4.669,4.669,0,0,0-.762-2.822,2.454,2.454,0,0,0-2.09-1.035,2.656,2.656,0,0,0-2.461,1.455v5.049a2.661,2.661,0,0,0,2.48,1.445,2.442,2.442,0,0,0,2.065-1.03A5.1,5.1,0,0,0,145.891,42.629ZM156.516,48a3.8,3.8,0,0,1-.254-1.113,4.031,4.031,0,0,1-3.008,1.309,3.73,3.73,0,0,1-2.563-.884,2.859,2.859,0,0,1-1-2.241,2.987,2.987,0,0,1,1.255-2.563,5.916,5.916,0,0,1,3.53-.913h1.758v-.83a2.029,2.029,0,0,0-.566-1.509,2.276,2.276,0,0,0-1.67-.562,2.634,2.634,0,0,0-1.621.488,1.439,1.439,0,0,0-.654,1.182H149.9a2.493,2.493,0,0,1,.562-1.528,3.832,3.832,0,0,1,1.523-1.167,5.125,5.125,0,0,1,2.114-.43,4.177,4.177,0,0,1,2.861.913,3.294,3.294,0,0,1,1.074,2.515v4.863a5.946,5.946,0,0,0,.371,2.314V48Zm-3-1.377a3.175,3.175,0,0,0,1.611-.439,2.658,2.658,0,0,0,1.1-1.143V42.873h-1.416q-3.32,0-3.32,1.943a1.645,1.645,0,0,0,.566,1.328A2.177,2.177,0,0,0,153.518,46.623ZM167.023,45.2a1.33,1.33,0,0,0-.552-1.138,5.311,5.311,0,0,0-1.924-.7,9.1,9.1,0,0,1-2.178-.7,3.1,3.1,0,0,1-1.191-.977,2.336,2.336,0,0,1-.386-1.348,2.741,2.741,0,0,1,1.1-2.2,4.291,4.291,0,0,1,2.808-.9,4.415,4.415,0,0,1,2.915.928,2.947,2.947,0,0,1,1.118,2.373h-1.816a1.631,1.631,0,0,0-.63-1.279,2.36,2.36,0,0,0-1.587-.537,2.47,2.47,0,0,0-1.543.43,1.353,1.353,0,0,0-.557,1.123,1.1,1.1,0,0,0,.518.986,6.368,6.368,0,0,0,1.87.635,9.744,9.744,0,0,1,2.192.723,3.2,3.2,0,0,1,1.245,1.011,2.485,2.485,0,0,1,.405,1.44,2.7,2.7,0,0,1-1.133,2.271,4.752,4.752,0,0,1-2.939.854,5.321,5.321,0,0,1-2.246-.449,3.653,3.653,0,0,1-1.528-1.255,3.025,3.025,0,0,1-.552-1.743h1.807a1.87,1.87,0,0,0,.728,1.44,2.822,2.822,0,0,0,1.792.532,2.913,2.913,0,0,0,1.646-.415A1.275,1.275,0,0,0,167.023,45.2ZM177.707,48a3.8,3.8,0,0,1-.254-1.113,4.031,4.031,0,0,1-3.008,1.309,3.73,3.73,0,0,1-2.563-.884,2.859,2.859,0,0,1-1-2.241,2.987,2.987,0,0,1,1.255-2.563,5.916,5.916,0,0,1,3.53-.913h1.758v-.83a2.029,2.029,0,0,0-.566-1.509,2.276,2.276,0,0,0-1.67-.562,2.634,2.634,0,0,0-1.621.488,1.439,1.439,0,0,0-.654,1.182H171.1a2.493,2.493,0,0,1,.562-1.528,3.832,3.832,0,0,1,1.523-1.167,5.125,5.125,0,0,1,2.114-.43,4.177,4.177,0,0,1,2.861.913,3.294,3.294,0,0,1,1.074,2.515v4.863a5.946,5.946,0,0,0,.371,2.314V48Zm-3-1.377a3.175,3.175,0,0,0,1.611-.439,2.658,2.658,0,0,0,1.1-1.143V42.873h-1.416q-3.32,0-3.32,1.943a1.645,1.645,0,0,0,.566,1.328A2.177,2.177,0,0,0,174.709,46.623Zm6.914-3.994a6.19,6.19,0,0,1,1.152-3.911,3.921,3.921,0,0,1,5.957-.21V33h1.807V48h-1.66l-.088-1.133a3.679,3.679,0,0,1-3.018,1.328,3.609,3.609,0,0,1-2.993-1.5,6.26,6.26,0,0,1-1.157-3.926Zm1.807.205a4.687,4.687,0,0,0,.742,2.813,2.4,2.4,0,0,0,2.051,1.016,2.636,2.636,0,0,0,2.51-1.543V40.266a2.656,2.656,0,0,0-2.49-1.494,2.411,2.411,0,0,0-2.07,1.025A5.16,5.16,0,0,0,183.43,42.834Zm9.434-.215a6.241,6.241,0,0,1,.61-2.793,4.553,4.553,0,0,1,1.7-1.914,4.626,4.626,0,0,1,2.485-.674,4.456,4.456,0,0,1,3.491,1.494,5.748,5.748,0,0,1,1.333,3.975v.127a6.3,6.3,0,0,1-.591,2.769,4.486,4.486,0,0,1-1.689,1.909,4.679,4.679,0,0,1-2.524.684A4.445,4.445,0,0,1,194.2,46.7a5.719,5.719,0,0,1-1.333-3.955Zm1.816.215a4.52,4.52,0,0,0,.815,2.822,2.763,2.763,0,0,0,4.37-.015,4.943,4.943,0,0,0,.811-3.022,4.513,4.513,0,0,0-.825-2.817,2.623,2.623,0,0,0-2.192-1.079,2.594,2.594,0,0,0-2.158,1.064A4.906,4.906,0,0,0,194.68,42.834Z" transform="translate(799 2975)" fill="#fff"/>
    <path id="Trazado_165279" data-name="Trazado 165279" d="M81.449,16.254a5.318,5.318,0,0,1-1.006,2.612,5.468,5.468,0,0,1-2.187,1.748,6.661,6.661,0,0,1-2.91.581,4.92,4.92,0,0,1-2.451-.649,4.3,4.3,0,0,1-1.646-1.8,6.64,6.64,0,0,1-.679-2.71,13.293,13.293,0,0,1,.249-2.988,9.473,9.473,0,0,1,1.133-3.174,7.082,7.082,0,0,1,1.938-2.2A5.849,5.849,0,0,1,77.5,6.586,4.8,4.8,0,0,1,81,7.948a5.48,5.48,0,0,1,1.421,3.677l-2.852-.01a2.989,2.989,0,0,0-.537-1.973,2.191,2.191,0,0,0-1.67-.664,2.9,2.9,0,0,0-2.407,1.045A6.284,6.284,0,0,0,73.7,13.217a17.694,17.694,0,0,0-.273,3.057,3.043,3.043,0,0,0,.576,1.9,1.929,1.929,0,0,0,1.475.64,2.945,2.945,0,0,0,2.095-.62,3.281,3.281,0,0,0,1.04-1.919Zm7.07-6.016a4.238,4.238,0,0,1,2.407.718,4.042,4.042,0,0,1,1.484,1.924,5.952,5.952,0,0,1,.337,2.72A6.429,6.429,0,0,1,91,19.677,4.95,4.95,0,0,1,87.221,21.2a4.225,4.225,0,0,1-2.383-.708,4.027,4.027,0,0,1-1.484-1.909,5.821,5.821,0,0,1-.342-2.7,6.619,6.619,0,0,1,1.777-4.16A4.847,4.847,0,0,1,88.52,10.238Zm-2.783,6.644a2.438,2.438,0,0,0,.439,1.477,1.46,1.46,0,0,0,1.182.561,2.141,2.141,0,0,0,1.992-1.165,5.808,5.808,0,0,0,.674-3.164,2.652,2.652,0,0,0-.454-1.5,1.436,1.436,0,0,0-1.187-.58,2.143,2.143,0,0,0-1.968,1.155A5.748,5.748,0,0,0,85.736,16.882Zm12.2-6.458-.225,1.2a3.89,3.89,0,0,1,3.1-1.387,2.973,2.973,0,0,1,1.621.449,2.1,2.1,0,0,1,.869,1.162,4.069,4.069,0,0,1,3.281-1.611,2.657,2.657,0,0,1,2.192,1,4.089,4.089,0,0,1,.62,2.793l-.02.244L108.246,21h-2.764l1.123-6.756a4.886,4.886,0,0,0,.029-.675,1.046,1.046,0,0,0-1.172-1.056,2.325,2.325,0,0,0-1.943,1.212l-.029.225L102.26,21H99.506l1.123-6.729a4.874,4.874,0,0,0,.029-.674A1.045,1.045,0,0,0,99.5,12.533a2.334,2.334,0,0,0-1.885.986L96.293,21H93.539l1.826-10.566Zm22.646,5.322a8.727,8.727,0,0,1-.869,2.949,4.782,4.782,0,0,1-1.65,1.914,3.823,3.823,0,0,1-2.187.6,3.05,3.05,0,0,1-2.422-1.143l-.967,5H109.73l2.529-14.629,2.539-.01-.186,1.064a3.374,3.374,0,0,1,2.7-1.25,3,3,0,0,1,2.412,1.128,4.9,4.9,0,0,1,.918,2.954A11.415,11.415,0,0,1,120.58,15.746Zm-2.734-.2.059-.939a2.612,2.612,0,0,0-.347-1.506,1.244,1.244,0,0,0-1.069-.577,2.273,2.273,0,0,0-1.982,1.017l-.791,4.362a1.541,1.541,0,0,0,1.553,1.027,1.987,1.987,0,0,0,1.66-.773A5.292,5.292,0,0,0,117.846,15.546ZM124.359,21h-2.773l2.607-15h2.764Zm7.354.2a4.6,4.6,0,0,1-2.456-.679,4.115,4.115,0,0,1-1.6-1.836,5.117,5.117,0,0,1-.41-2.573l.029-.391a6.831,6.831,0,0,1,.9-2.832,5.427,5.427,0,0,1,1.934-1.987,4.784,4.784,0,0,1,2.617-.659,3.655,3.655,0,0,1,3.091,1.5,5.146,5.146,0,0,1,.8,3.7l-.156,1.2h-6.475a2.267,2.267,0,0,0,.5,1.641,1.9,1.9,0,0,0,1.465.635,3.379,3.379,0,0,0,2.637-1.172l1.26,1.563a3.919,3.919,0,0,1-1.719,1.4A5.621,5.621,0,0,1,131.713,21.2Zm.879-8.682a1.957,1.957,0,0,0-1.353.479,4.2,4.2,0,0,0-1.06,1.729h3.789l.059-.254a2.589,2.589,0,0,0,.01-.742,1.418,1.418,0,0,0-.479-.884A1.5,1.5,0,0,0,132.592,12.514Zm9.082-2.09-.225,1.2a3.89,3.89,0,0,1,3.1-1.387,2.973,2.973,0,0,1,1.621.449,2.1,2.1,0,0,1,.869,1.162,4.069,4.069,0,0,1,3.281-1.611,2.657,2.657,0,0,1,2.192,1,4.089,4.089,0,0,1,.62,2.793l-.02.244L151.986,21h-2.764l1.123-6.756a4.883,4.883,0,0,0,.029-.675,1.046,1.046,0,0,0-1.172-1.056,2.325,2.325,0,0,0-1.943,1.212l-.029.225L146,21h-2.754l1.123-6.729a4.872,4.872,0,0,0,.029-.674,1.045,1.045,0,0,0-1.162-1.064,2.334,2.334,0,0,0-1.885.986L140.033,21h-2.754l1.826-10.566ZM159.193,21.2a4.6,4.6,0,0,1-2.456-.679,4.115,4.115,0,0,1-1.6-1.836,5.117,5.117,0,0,1-.41-2.573l.029-.391a6.831,6.831,0,0,1,.9-2.832,5.427,5.427,0,0,1,1.934-1.987,4.784,4.784,0,0,1,2.617-.659,3.655,3.655,0,0,1,3.091,1.5,5.146,5.146,0,0,1,.8,3.7l-.156,1.2h-6.475a2.267,2.267,0,0,0,.5,1.641,1.9,1.9,0,0,0,1.465.635,3.379,3.379,0,0,0,2.637-1.172l1.26,1.563a3.919,3.919,0,0,1-1.719,1.4A5.621,5.621,0,0,1,159.193,21.2Zm.879-8.682a1.957,1.957,0,0,0-1.353.479,4.2,4.2,0,0,0-1.06,1.729h3.789l.059-.254a2.589,2.589,0,0,0,.01-.742,1.418,1.418,0,0,0-.479-.884A1.5,1.5,0,0,0,160.072,12.514Zm9.043-2.09-.234,1.25a3.8,3.8,0,0,1,3.076-1.436,2.535,2.535,0,0,1,2.207,1.094,4.407,4.407,0,0,1,.518,2.949L173.568,21h-2.754l1.133-6.748a3.16,3.16,0,0,0,.02-.693,1.118,1.118,0,0,0-1.25-1.025,2.37,2.37,0,0,0-1.943,1.006L167.455,21H164.7l1.836-10.566Zm12.2-2.588-.459,2.6h1.758l-.361,2.07h-1.758l-.9,5.293a1.346,1.346,0,0,0,.078.762q.137.264.664.283.156.01.84-.049l-.2,2.158a4.632,4.632,0,0,1-1.582.225,2.482,2.482,0,0,1-2.021-.85,3.07,3.07,0,0,1-.547-2.246l.908-5.576h-1.494l.361-2.07H178.1l.449-2.6ZM77.812,43.488a5.231,5.231,0,0,1-1.665,3.481A5.457,5.457,0,0,1,72.421,48.2a5.01,5.01,0,0,1-4.038-1.807,7.268,7.268,0,0,1-1.519-4.834V40.188a8.1,8.1,0,0,1,.708-3.486,5.289,5.289,0,0,1,2.007-2.31,5.588,5.588,0,0,1,3.008-.806,5.138,5.138,0,0,1,3.633,1.265,5.294,5.294,0,0,1,1.592,3.5H75.927a4.085,4.085,0,0,0-1.06-2.468,3.206,3.206,0,0,0-2.28-.764,3.355,3.355,0,0,0-2.817,1.329,6.1,6.1,0,0,0-1.021,3.782v1.378a6.273,6.273,0,0,0,.967,3.685,3.124,3.124,0,0,0,2.705,1.368,3.608,3.608,0,0,0,2.4-.708,3.929,3.929,0,0,0,1.108-2.466Zm1.8-.869a6.241,6.241,0,0,1,.61-2.793,4.553,4.553,0,0,1,1.7-1.914,4.626,4.626,0,0,1,2.485-.674,4.456,4.456,0,0,1,3.491,1.494,5.748,5.748,0,0,1,1.333,3.975v.127a6.3,6.3,0,0,1-.591,2.769,4.486,4.486,0,0,1-1.689,1.909,4.679,4.679,0,0,1-2.524.684A4.445,4.445,0,0,1,80.941,46.7a5.719,5.719,0,0,1-1.333-3.955Zm1.816.215a4.52,4.52,0,0,0,.815,2.822,2.763,2.763,0,0,0,4.37-.015,4.943,4.943,0,0,0,.811-3.022A4.513,4.513,0,0,0,86.6,39.8,2.623,2.623,0,0,0,84.4,38.723a2.594,2.594,0,0,0-2.158,1.064A4.906,4.906,0,0,0,81.425,42.834Zm11.768-5.4.049,1.172a3.9,3.9,0,0,1,3.135-1.367,3.021,3.021,0,0,1,3.018,1.7,4,4,0,0,1,1.372-1.23,4.052,4.052,0,0,1,2-.469q3.477,0,3.535,3.682V48h-1.807V41.027a2.426,2.426,0,0,0-.518-1.694,2.279,2.279,0,0,0-1.738-.562,2.4,2.4,0,0,0-1.67.6,2.436,2.436,0,0,0-.771,1.616V48H97.978V41.076a2.016,2.016,0,0,0-2.256-2.3,2.417,2.417,0,0,0-2.432,1.514V48H91.483V37.434Zm24.756,5.4a6.327,6.327,0,0,1-1.1,3.887,3.537,3.537,0,0,1-2.988,1.475,3.875,3.875,0,0,1-3.027-1.221v5.088h-1.807V37.434h1.65l.088,1.172a3.722,3.722,0,0,1,3.066-1.367,3.6,3.6,0,0,1,3.013,1.436,6.4,6.4,0,0,1,1.108,3.994Zm-1.807-.205a4.669,4.669,0,0,0-.762-2.822,2.454,2.454,0,0,0-2.09-1.035,2.656,2.656,0,0,0-2.461,1.455v5.049a2.661,2.661,0,0,0,2.48,1.445,2.442,2.442,0,0,0,2.065-1.03A5.1,5.1,0,0,0,116.142,42.629ZM122.206,48H120.4V33h1.807Zm7.275.2a4.617,4.617,0,0,1-3.5-1.411,5.237,5.237,0,0,1-1.348-3.774v-.332a6.341,6.341,0,0,1,.6-2.808,4.685,4.685,0,0,1,1.68-1.934,4.223,4.223,0,0,1,2.339-.7,3.957,3.957,0,0,1,3.2,1.357,5.877,5.877,0,0,1,1.143,3.887v.752h-7.158a3.756,3.756,0,0,0,.913,2.524,2.87,2.87,0,0,0,2.222.962,3.147,3.147,0,0,0,1.621-.391,4.073,4.073,0,0,0,1.162-1.035l1.1.859A4.437,4.437,0,0,1,129.481,48.2Zm-.225-9.473a2.41,2.41,0,0,0-1.836.8,3.869,3.869,0,0,0-.918,2.231H131.8v-.137a3.441,3.441,0,0,0-.742-2.134A2.269,2.269,0,0,0,129.257,38.723Zm8.135-1.289.049,1.172a3.9,3.9,0,0,1,3.135-1.367,3.021,3.021,0,0,1,3.018,1.7,4,4,0,0,1,1.372-1.23,4.052,4.052,0,0,1,2-.469q3.477,0,3.535,3.682V48H148.69V41.027a2.426,2.426,0,0,0-.518-1.694,2.279,2.279,0,0,0-1.738-.562,2.4,2.4,0,0,0-1.67.6,2.436,2.436,0,0,0-.771,1.616V48h-1.816V41.076a2.016,2.016,0,0,0-2.256-2.3,2.417,2.417,0,0,0-2.432,1.514V48h-1.807V37.434ZM157.606,48.2a4.617,4.617,0,0,1-3.5-1.411,5.237,5.237,0,0,1-1.348-3.774v-.332a6.341,6.341,0,0,1,.6-2.808,4.685,4.685,0,0,1,1.68-1.934,4.223,4.223,0,0,1,2.339-.7,3.957,3.957,0,0,1,3.2,1.357,5.877,5.877,0,0,1,1.143,3.887v.752h-7.158a3.756,3.756,0,0,0,.913,2.524,2.87,2.87,0,0,0,2.222.962,3.147,3.147,0,0,0,1.621-.391,4.073,4.073,0,0,0,1.162-1.035l1.1.859A4.437,4.437,0,0,1,157.606,48.2Zm-.225-9.473a2.41,2.41,0,0,0-1.836.8,3.868,3.868,0,0,0-.918,2.231h5.293v-.137a3.441,3.441,0,0,0-.742-2.134A2.269,2.269,0,0,0,157.382,38.723Zm8.145-1.289.059,1.328a3.851,3.851,0,0,1,3.164-1.523q3.35,0,3.379,3.779V48h-1.807V41.008a2.433,2.433,0,0,0-.522-1.689,2.094,2.094,0,0,0-1.6-.547,2.607,2.607,0,0,0-1.543.469,3.183,3.183,0,0,0-1.035,1.23V48h-1.807V37.434ZM177.3,34.875v2.559h1.973v1.4H177.3v6.561a1.467,1.467,0,0,0,.264.953,1.11,1.11,0,0,0,.9.318,4.374,4.374,0,0,0,.859-.117V48a5.268,5.268,0,0,1-1.387.194,2.25,2.25,0,0,1-1.826-.732,3.147,3.147,0,0,1-.615-2.08V38.83h-1.924v-1.4H175.5V34.875Zm3.408,7.744a6.241,6.241,0,0,1,.61-2.793,4.553,4.553,0,0,1,1.7-1.914,4.626,4.626,0,0,1,2.485-.674A4.456,4.456,0,0,1,189,38.732a5.748,5.748,0,0,1,1.333,3.975v.127a6.3,6.3,0,0,1-.591,2.769,4.486,4.486,0,0,1-1.689,1.909,4.679,4.679,0,0,1-2.524.684,4.445,4.445,0,0,1-3.481-1.494,5.719,5.719,0,0,1-1.333-3.955Zm1.816.215a4.52,4.52,0,0,0,.815,2.822,2.763,2.763,0,0,0,4.37-.015,4.943,4.943,0,0,0,.811-3.022A4.513,4.513,0,0,0,187.7,39.8a2.623,2.623,0,0,0-2.192-1.079,2.594,2.594,0,0,0-2.158,1.064A4.906,4.906,0,0,0,182.528,42.834Z" transform="translate(1115 2975)" fill="#12263f"/>
  </g>
</svg>
