<svg xmlns="http://www.w3.org/2000/svg" width="290" height="86" viewBox="0 0 290 86">
  <g id="Grupo_170189" data-name="Grupo 170189" transform="translate(-779 -2958)">
    <rect id="Rectángulo_42456" data-name="Rectángulo 42456" width="290" height="86" rx="13" transform="translate(779 2958)" fill="#3c3fa7"/>
    <path id="Trazado_165146" data-name="Trazado 165146" d="M7.834,15.99,6.955,21H4.094L6.564,6.781l4.98.01A4.982,4.982,0,0,1,15.168,8.07a3.967,3.967,0,0,1,1.152,3.34,4.49,4.49,0,0,1-1.743,3.34A6.343,6.343,0,0,1,10.529,16Zm.4-2.373,2.383.02a3.013,3.013,0,0,0,1.914-.6,2.4,2.4,0,0,0,.908-1.611,2.058,2.058,0,0,0-.327-1.621,1.772,1.772,0,0,0-1.4-.645l-2.7-.01ZM22.531,21a2.851,2.851,0,0,1-.107-.957,3.579,3.579,0,0,1-2.7,1.152,3.243,3.243,0,0,1-2.3-.9,2.733,2.733,0,0,1-.854-2.183,3.159,3.159,0,0,1,1.45-2.651,6.583,6.583,0,0,1,3.706-.923l1.289.02.137-.635a2.2,2.2,0,0,0,.029-.615,1.058,1.058,0,0,0-.347-.718,1.194,1.194,0,0,0-.786-.269,1.682,1.682,0,0,0-1.094.317,1.538,1.538,0,0,0-.576.972l-2.764.01a3.072,3.072,0,0,1,1.392-2.456,5.389,5.389,0,0,1,3.267-.923,3.9,3.9,0,0,1,2.813,1.069,3.128,3.128,0,0,1,.85,2.651l-.811,5.059-.049.625a3.015,3.015,0,0,0,.166,1.172l-.01.186Zm-2.119-1.943a2.522,2.522,0,0,0,2.08-1.035l.342-1.826-.957-.01a2.674,2.674,0,0,0-2.2.928,1.615,1.615,0,0,0-.3.791.937.937,0,0,0,.22.835A1.113,1.113,0,0,0,20.412,19.057Zm12.627-1.035q.156-.781-1.084-1.133l-.889-.225Q27.912,15.795,28,13.6a3.035,3.035,0,0,1,1.323-2.437,4.927,4.927,0,0,1,3.071-.923,4.42,4.42,0,0,1,2.891.947,3.121,3.121,0,0,1,1.123,2.471l-2.734-.01a1.2,1.2,0,0,0-1.348-1.377,1.939,1.939,0,0,0-1.118.322,1.327,1.327,0,0,0-.581.869q-.146.781,1.182,1.1l.391.088a7.856,7.856,0,0,1,2.061.737,3.11,3.11,0,0,1,1.1,1.03,2.55,2.55,0,0,1,.356,1.475,2.814,2.814,0,0,1-.649,1.758,3.975,3.975,0,0,1-1.7,1.162A5.92,5.92,0,0,1,31.1,21.2a4.461,4.461,0,0,1-2.93-1.011,3.259,3.259,0,0,1-1.191-2.563l2.6.02a1.428,1.428,0,0,0,1.621,1.533,2.306,2.306,0,0,0,1.255-.312A1.234,1.234,0,0,0,33.039,18.021ZM42.57,7.836l-.459,2.6h1.758l-.361,2.07H41.75l-.9,5.293a1.346,1.346,0,0,0,.078.762q.137.264.664.283.156.01.84-.049l-.2,2.158a4.632,4.632,0,0,1-1.582.225,2.482,2.482,0,0,1-2.021-.85,3.07,3.07,0,0,1-.547-2.246L39,12.5H37.5l.361-2.07h1.494l.449-2.6Zm16.143,7.91a8.727,8.727,0,0,1-.869,2.949,4.782,4.782,0,0,1-1.65,1.914,3.823,3.823,0,0,1-2.187.6,3.05,3.05,0,0,1-2.422-1.143l-.967,5H47.863l2.529-14.629,2.539-.01-.186,1.064a3.374,3.374,0,0,1,2.7-1.25,3,3,0,0,1,2.412,1.128,4.9,4.9,0,0,1,.918,2.954A11.416,11.416,0,0,1,58.713,15.746Zm-2.734-.2.059-.939A2.612,2.612,0,0,0,55.69,13.1a1.244,1.244,0,0,0-1.069-.577,2.273,2.273,0,0,0-1.982,1.017L51.848,17.9A1.541,1.541,0,0,0,53.4,18.93a1.987,1.987,0,0,0,1.66-.773A5.292,5.292,0,0,0,55.979,15.546ZM65.7,21a2.851,2.851,0,0,1-.107-.957,3.579,3.579,0,0,1-2.7,1.152,3.243,3.243,0,0,1-2.3-.9,2.733,2.733,0,0,1-.854-2.183,3.159,3.159,0,0,1,1.45-2.651,6.583,6.583,0,0,1,3.706-.923l1.289.02.137-.635a2.2,2.2,0,0,0,.029-.615A1.058,1.058,0,0,0,66,12.587a1.194,1.194,0,0,0-.786-.269,1.682,1.682,0,0,0-1.094.317,1.538,1.538,0,0,0-.576.972l-2.764.01a3.072,3.072,0,0,1,1.392-2.456,5.389,5.389,0,0,1,3.267-.923,3.9,3.9,0,0,1,2.813,1.069,3.128,3.128,0,0,1,.85,2.651l-.811,5.059-.049.625a3.015,3.015,0,0,0,.166,1.172L68.4,21Zm-2.119-1.943a2.522,2.522,0,0,0,2.08-1.035L66,16.2l-.957-.01a2.674,2.674,0,0,0-2.2.928,1.615,1.615,0,0,0-.3.791.937.937,0,0,0,.22.835A1.113,1.113,0,0,0,63.576,19.057Zm13.74-5.977a5.686,5.686,0,0,0-.928-.1,2.67,2.67,0,0,0-2.334,1.1L72.834,21H70.08l1.836-10.566,2.588-.01-.254,1.289a2.906,2.906,0,0,1,2.461-1.494,4.017,4.017,0,0,1,.957.137Zm6.016-5.244-.459,2.6h1.758L84.27,12.5H82.512l-.9,5.293a1.346,1.346,0,0,0,.078.762q.137.264.664.283.156.01.84-.049L83,20.951a4.632,4.632,0,0,1-1.582.225,2.482,2.482,0,0,1-2.021-.85,3.07,3.07,0,0,1-.547-2.246l.908-5.576H78.264l.361-2.07h1.494l.449-2.6ZM87.307,21H84.533l1.836-10.566h2.773ZM86.691,7.748a1.376,1.376,0,0,1,.43-1.084,1.653,1.653,0,0,1,2.168-.049,1.37,1.37,0,0,1,.479,1.035,1.415,1.415,0,0,1-.405,1.055,1.519,1.519,0,0,1-1.108.469A1.544,1.544,0,0,1,87.175,8.8,1.363,1.363,0,0,1,86.691,7.748ZM94.27,18.93a1.809,1.809,0,0,0,1.27-.415,2.04,2.04,0,0,0,.664-1.157l2.588-.01a3.8,3.8,0,0,1-.7,2,4.242,4.242,0,0,1-1.68,1.387,4.808,4.808,0,0,1-2.212.469,3.9,3.9,0,0,1-3.047-1.328A4.956,4.956,0,0,1,90.07,16.42l.029-.537.01-.107a6.605,6.605,0,0,1,1.738-4.087,4.7,4.7,0,0,1,3.643-1.45,3.809,3.809,0,0,1,2.837,1.167,4.122,4.122,0,0,1,1.03,2.974H96.789a2.163,2.163,0,0,0-.371-1.338,1.41,1.41,0,0,0-1.113-.527q-1.973-.059-2.393,2.881a9.728,9.728,0,0,0-.107,1.8Q92.9,18.9,94.27,18.93Zm8.5,2.07H99.992l1.836-10.566H104.6ZM102.15,7.748a1.376,1.376,0,0,1,.43-1.084,1.653,1.653,0,0,1,2.168-.049,1.37,1.37,0,0,1,.479,1.035,1.415,1.415,0,0,1-.405,1.055,1.519,1.519,0,0,1-1.108.469,1.544,1.544,0,0,1-1.079-.371A1.363,1.363,0,0,1,102.15,7.748Zm13.1,8a8.727,8.727,0,0,1-.869,2.949,4.782,4.782,0,0,1-1.65,1.914,3.823,3.823,0,0,1-2.187.6,3.05,3.05,0,0,1-2.422-1.143l-.967,5H104.4l2.529-14.629,2.539-.01-.186,1.064a3.374,3.374,0,0,1,2.7-1.25,3,3,0,0,1,2.412,1.128,4.9,4.9,0,0,1,.918,2.954A11.415,11.415,0,0,1,115.246,15.746Zm-2.734-.2.059-.939a2.612,2.612,0,0,0-.347-1.506,1.244,1.244,0,0,0-1.069-.577,2.273,2.273,0,0,0-1.982,1.017l-.791,4.362a1.541,1.541,0,0,0,1.553,1.027,1.987,1.987,0,0,0,1.66-.773A5.292,5.292,0,0,0,112.512,15.546ZM119.025,21h-2.773l2.607-15h2.764Zm7.354.2a4.6,4.6,0,0,1-2.456-.679,4.115,4.115,0,0,1-1.6-1.836,5.117,5.117,0,0,1-.41-2.573l.029-.391a6.831,6.831,0,0,1,.9-2.832,5.427,5.427,0,0,1,1.934-1.987,4.784,4.784,0,0,1,2.617-.659,3.655,3.655,0,0,1,3.091,1.5,5.146,5.146,0,0,1,.8,3.7l-.156,1.2H124.65a2.267,2.267,0,0,0,.5,1.641,1.9,1.9,0,0,0,1.465.635,3.379,3.379,0,0,0,2.637-1.172l1.26,1.563a3.919,3.919,0,0,1-1.719,1.4A5.621,5.621,0,0,1,126.379,21.2Zm.879-8.682a1.957,1.957,0,0,0-1.353.479,4.2,4.2,0,0,0-1.06,1.729h3.789l.059-.254a2.589,2.589,0,0,0,.01-.742,1.418,1.418,0,0,0-.479-.884A1.5,1.5,0,0,0,127.258,12.514Zm15.664-2.275a4.238,4.238,0,0,1,2.407.718,4.042,4.042,0,0,1,1.484,1.924,5.952,5.952,0,0,1,.337,2.72,6.429,6.429,0,0,1-1.753,4.077,4.95,4.95,0,0,1-3.774,1.519,4.225,4.225,0,0,1-2.383-.708,4.027,4.027,0,0,1-1.484-1.909,5.821,5.821,0,0,1-.342-2.7,6.619,6.619,0,0,1,1.777-4.16A4.847,4.847,0,0,1,142.922,10.238Zm-2.783,6.644a2.438,2.438,0,0,0,.439,1.477,1.46,1.46,0,0,0,1.182.561,2.141,2.141,0,0,0,1.992-1.165,5.808,5.808,0,0,0,.674-3.164,2.652,2.652,0,0,0-.454-1.5,1.436,1.436,0,0,0-1.187-.58,2.143,2.143,0,0,0-1.968,1.155A5.748,5.748,0,0,0,140.139,16.882ZM148.684,21l1.475-8.506h-1.523L149,10.434l1.523-.01.137-1.055a4.165,4.165,0,0,1,1.377-2.651,4.167,4.167,0,0,1,2.861-.942,9.162,9.162,0,0,1,1.494.2l-.244,2.188a3.415,3.415,0,0,0-.811-.117,2.019,2.019,0,0,0-1.255.373,1.694,1.694,0,0,0-.649,1.147l-.146.863h2.041l-.361,2.061h-2.031L151.457,21Zm15.635-10.576-.225,1.2a3.89,3.89,0,0,1,3.1-1.387,2.973,2.973,0,0,1,1.621.449,2.1,2.1,0,0,1,.869,1.162,4.069,4.069,0,0,1,3.281-1.611,2.657,2.657,0,0,1,2.192,1,4.089,4.089,0,0,1,.62,2.793l-.02.244L174.631,21h-2.764l1.123-6.756a4.883,4.883,0,0,0,.029-.675,1.046,1.046,0,0,0-1.172-1.056,2.325,2.325,0,0,0-1.943,1.212l-.029.225L168.645,21h-2.754l1.123-6.729a4.872,4.872,0,0,0,.029-.674,1.045,1.045,0,0,0-1.162-1.064A2.334,2.334,0,0,0,164,13.52L162.678,21h-2.754l1.826-10.566ZM182.932,21a2.851,2.851,0,0,1-.107-.957,3.579,3.579,0,0,1-2.7,1.152,3.243,3.243,0,0,1-2.3-.9,2.733,2.733,0,0,1-.854-2.183,3.159,3.159,0,0,1,1.45-2.651,6.583,6.583,0,0,1,3.706-.923l1.289.02.137-.635a2.2,2.2,0,0,0,.029-.615,1.058,1.058,0,0,0-.347-.718,1.194,1.194,0,0,0-.786-.269,1.682,1.682,0,0,0-1.094.317,1.538,1.538,0,0,0-.576.972l-2.764.01a3.072,3.072,0,0,1,1.392-2.456,5.389,5.389,0,0,1,3.267-.923,3.9,3.9,0,0,1,2.813,1.069,3.128,3.128,0,0,1,.85,2.651l-.811,5.059-.049.625a3.015,3.015,0,0,0,.166,1.172l-.01.186Zm-2.119-1.943a2.522,2.522,0,0,0,2.08-1.035l.342-1.826-.957-.01a2.674,2.674,0,0,0-2.2.928,1.615,1.615,0,0,0-.3.791.937.937,0,0,0,.22.835A1.113,1.113,0,0,0,180.813,19.057ZM190.227,21h-2.773l1.836-10.566h2.773Zm-.615-13.252a1.376,1.376,0,0,1,.43-1.084,1.653,1.653,0,0,1,2.168-.049,1.37,1.37,0,0,1,.479,1.035,1.415,1.415,0,0,1-.405,1.055,1.519,1.519,0,0,1-1.108.469,1.544,1.544,0,0,1-1.079-.371A1.363,1.363,0,0,1,189.611,7.748Zm7.3,2.676-.234,1.25a3.8,3.8,0,0,1,3.076-1.436,2.535,2.535,0,0,1,2.207,1.094,4.407,4.407,0,0,1,.518,2.949L201.369,21h-2.754l1.133-6.748a3.16,3.16,0,0,0,.02-.693,1.118,1.118,0,0,0-1.25-1.025,2.37,2.37,0,0,0-1.943,1.006L195.256,21H192.5l1.836-10.566Zm15.986,7.09,3.008-7.08h2.969L213.771,21h-2.637l-1.807-10.566h2.793ZM223.381,21.2a4.6,4.6,0,0,1-2.456-.679,4.115,4.115,0,0,1-1.6-1.836,5.117,5.117,0,0,1-.41-2.573l.029-.391a6.831,6.831,0,0,1,.9-2.832,5.427,5.427,0,0,1,1.934-1.987,4.784,4.784,0,0,1,2.617-.659,3.655,3.655,0,0,1,3.091,1.5,5.146,5.146,0,0,1,.8,3.7l-.156,1.2h-6.475a2.267,2.267,0,0,0,.5,1.641,1.9,1.9,0,0,0,1.465.635,3.379,3.379,0,0,0,2.637-1.172l1.26,1.563a3.919,3.919,0,0,1-1.719,1.4A5.621,5.621,0,0,1,223.381,21.2Zm.879-8.682a1.957,1.957,0,0,0-1.353.479,4.2,4.2,0,0,0-1.06,1.729h3.789l.059-.254a2.589,2.589,0,0,0,.01-.742,1.418,1.418,0,0,0-.479-.884A1.5,1.5,0,0,0,224.26,12.514Zm11.924.566a5.686,5.686,0,0,0-.928-.1,2.67,2.67,0,0,0-2.334,1.1L231.7,21h-2.754l1.836-10.566,2.588-.01-.254,1.289a2.906,2.906,0,0,1,2.461-1.494,4.017,4.017,0,0,1,.957.137Zm10.1,2.666a7.577,7.577,0,0,1-1.523,4,3.791,3.791,0,0,1-3.184,1.455,2.946,2.946,0,0,1-2.539-1.348l-.4,1.143h-2.51l2.6-15h2.764l-1.064,5.4A3.292,3.292,0,0,1,243,10.238a2.981,2.981,0,0,1,2.407,1.1,4.862,4.862,0,0,1,.933,2.983A11.418,11.418,0,0,1,246.281,15.746Zm-2.734-.206a8.192,8.192,0,0,0,.059-1.293q-.107-1.7-1.406-1.734a2.292,2.292,0,0,0-2.021,1.107l-.762,4.212A1.572,1.572,0,0,0,241,18.93q2.031.059,2.49-2.958ZM51.145,42.434V48H49.27V33.781h5.244a5.269,5.269,0,0,1,3.657,1.191,4.039,4.039,0,0,1,1.323,3.154A3.986,3.986,0,0,1,58.2,41.315a5.5,5.5,0,0,1-3.706,1.118Zm0-1.533h3.369a3.369,3.369,0,0,0,2.3-.709,2.593,2.593,0,0,0,.8-2.05,2.679,2.679,0,0,0-.8-2.035,3.156,3.156,0,0,0-2.2-.792H51.145ZM68.02,48a3.8,3.8,0,0,1-.254-1.113A4.031,4.031,0,0,1,64.758,48.2a3.73,3.73,0,0,1-2.563-.884,2.859,2.859,0,0,1-1-2.241,2.987,2.987,0,0,1,1.255-2.563,5.916,5.916,0,0,1,3.53-.913h1.758v-.83a2.029,2.029,0,0,0-.566-1.509,2.276,2.276,0,0,0-1.67-.562,2.634,2.634,0,0,0-1.621.488,1.439,1.439,0,0,0-.654,1.182H61.408a2.493,2.493,0,0,1,.562-1.528,3.832,3.832,0,0,1,1.523-1.167,5.125,5.125,0,0,1,2.114-.43,4.177,4.177,0,0,1,2.861.913,3.294,3.294,0,0,1,1.074,2.515v4.863a5.946,5.946,0,0,0,.371,2.314V48Zm-3-1.377a3.175,3.175,0,0,0,1.611-.439,2.658,2.658,0,0,0,1.1-1.143V42.873H66.32q-3.32,0-3.32,1.943a1.645,1.645,0,0,0,.566,1.328A2.177,2.177,0,0,0,65.021,46.623Zm12.461-7.568a5.414,5.414,0,0,0-.889-.068A2.381,2.381,0,0,0,74.182,40.5V48H72.375V37.434h1.758l.029,1.221a2.813,2.813,0,0,1,2.52-1.416,1.846,1.846,0,0,1,.8.137Zm4.6-4.18v2.559h1.973v1.4H82.082v6.561a1.467,1.467,0,0,0,.264.953,1.11,1.11,0,0,0,.9.318,4.374,4.374,0,0,0,.859-.117V48a5.268,5.268,0,0,1-1.387.194,2.25,2.25,0,0,1-1.826-.732,3.147,3.147,0,0,1-.615-2.08V38.83H78.352v-1.4h1.924V34.875ZM88.127,48H86.32V37.434h1.807ZM86.174,34.631a1.078,1.078,0,0,1,.269-.742,1.008,1.008,0,0,1,.8-.3,1.024,1.024,0,0,1,.8.3,1.067,1.067,0,0,1,.273.742,1.032,1.032,0,0,1-.273.732,1.043,1.043,0,0,1-.8.293,1.026,1.026,0,0,1-.8-.293A1.043,1.043,0,0,1,86.174,34.631Zm9.082,12.09a2.6,2.6,0,0,0,1.689-.586,2.061,2.061,0,0,0,.8-1.465h1.709A3.276,3.276,0,0,1,98.83,46.4a4.116,4.116,0,0,1-1.538,1.309,4.438,4.438,0,0,1-2.036.488,4.353,4.353,0,0,1-3.433-1.44,5.737,5.737,0,0,1-1.274-3.94v-.3a6.361,6.361,0,0,1,.566-2.744A4.314,4.314,0,0,1,92.741,37.9a4.619,4.619,0,0,1,2.5-.664A4.238,4.238,0,0,1,98.2,38.3a3.8,3.8,0,0,1,1.255,2.764H97.746a2.49,2.49,0,0,0-.776-1.685,2.415,2.415,0,0,0-1.724-.659,2.529,2.529,0,0,0-2.134.991,4.655,4.655,0,0,0-.757,2.866v.342a4.562,4.562,0,0,0,.752,2.813A2.541,2.541,0,0,0,95.256,46.721ZM103.449,48h-1.807V37.434h1.807ZM101.5,34.631a1.078,1.078,0,0,1,.269-.742,1.008,1.008,0,0,1,.8-.3,1.024,1.024,0,0,1,.8.3,1.067,1.067,0,0,1,.273.742,1.032,1.032,0,0,1-.273.732,1.043,1.043,0,0,1-.8.293,1.026,1.026,0,0,1-.8-.293A1.043,1.043,0,0,1,101.5,34.631Zm13.77,8.2a6.327,6.327,0,0,1-1.1,3.887,3.537,3.537,0,0,1-2.988,1.475,3.875,3.875,0,0,1-3.027-1.221v5.088H106.34V37.434h1.65l.088,1.172a3.722,3.722,0,0,1,3.066-1.367,3.6,3.6,0,0,1,3.013,1.436,6.4,6.4,0,0,1,1.108,3.994Zm-1.807-.205a4.669,4.669,0,0,0-.762-2.822,2.454,2.454,0,0,0-2.09-1.035,2.656,2.656,0,0,0-2.461,1.455v5.049a2.661,2.661,0,0,0,2.48,1.445,2.442,2.442,0,0,0,2.065-1.03A5.1,5.1,0,0,0,113.459,42.629ZM119.523,48h-1.807V37.434h1.807ZM117.57,34.631a1.078,1.078,0,0,1,.269-.742,1.008,1.008,0,0,1,.8-.3,1.024,1.024,0,0,1,.8.3,1.067,1.067,0,0,1,.273.742,1.032,1.032,0,0,1-.273.732,1.043,1.043,0,0,1-.8.293,1.026,1.026,0,0,1-.8-.293A1.043,1.043,0,0,1,117.57,34.631Zm4.365,7.988a6.241,6.241,0,0,1,.61-2.793,4.553,4.553,0,0,1,1.7-1.914,4.626,4.626,0,0,1,2.485-.674,4.456,4.456,0,0,1,3.491,1.494,5.748,5.748,0,0,1,1.333,3.975v.127a6.3,6.3,0,0,1-.591,2.769,4.486,4.486,0,0,1-1.689,1.909,4.679,4.679,0,0,1-2.524.684,4.445,4.445,0,0,1-3.481-1.494,5.719,5.719,0,0,1-1.333-3.955Zm1.816.215a4.52,4.52,0,0,0,.815,2.822,2.763,2.763,0,0,0,4.37-.015,4.943,4.943,0,0,0,.811-3.022,4.513,4.513,0,0,0-.825-2.817,2.623,2.623,0,0,0-2.192-1.079,2.594,2.594,0,0,0-2.158,1.064A4.906,4.906,0,0,0,123.752,42.834Zm23.945,0a6.327,6.327,0,0,1-1.1,3.887,3.537,3.537,0,0,1-2.988,1.475,3.875,3.875,0,0,1-3.027-1.221v5.088h-1.807V37.434h1.65l.088,1.172a3.722,3.722,0,0,1,3.066-1.367,3.6,3.6,0,0,1,3.013,1.436,6.4,6.4,0,0,1,1.108,3.994Zm-1.807-.205a4.669,4.669,0,0,0-.762-2.822,2.454,2.454,0,0,0-2.09-1.035,2.656,2.656,0,0,0-2.461,1.455v5.049a2.661,2.661,0,0,0,2.48,1.445,2.442,2.442,0,0,0,2.065-1.03A5.1,5.1,0,0,0,145.891,42.629ZM156.516,48a3.8,3.8,0,0,1-.254-1.113,4.031,4.031,0,0,1-3.008,1.309,3.73,3.73,0,0,1-2.563-.884,2.859,2.859,0,0,1-1-2.241,2.987,2.987,0,0,1,1.255-2.563,5.916,5.916,0,0,1,3.53-.913h1.758v-.83a2.029,2.029,0,0,0-.566-1.509,2.276,2.276,0,0,0-1.67-.562,2.634,2.634,0,0,0-1.621.488,1.439,1.439,0,0,0-.654,1.182H149.9a2.493,2.493,0,0,1,.562-1.528,3.832,3.832,0,0,1,1.523-1.167,5.125,5.125,0,0,1,2.114-.43,4.177,4.177,0,0,1,2.861.913,3.294,3.294,0,0,1,1.074,2.515v4.863a5.946,5.946,0,0,0,.371,2.314V48Zm-3-1.377a3.175,3.175,0,0,0,1.611-.439,2.658,2.658,0,0,0,1.1-1.143V42.873h-1.416q-3.32,0-3.32,1.943a1.645,1.645,0,0,0,.566,1.328A2.177,2.177,0,0,0,153.518,46.623ZM167.023,45.2a1.33,1.33,0,0,0-.552-1.138,5.311,5.311,0,0,0-1.924-.7,9.1,9.1,0,0,1-2.178-.7,3.1,3.1,0,0,1-1.191-.977,2.336,2.336,0,0,1-.386-1.348,2.741,2.741,0,0,1,1.1-2.2,4.291,4.291,0,0,1,2.808-.9,4.415,4.415,0,0,1,2.915.928,2.947,2.947,0,0,1,1.118,2.373h-1.816a1.631,1.631,0,0,0-.63-1.279,2.36,2.36,0,0,0-1.587-.537,2.47,2.47,0,0,0-1.543.43,1.353,1.353,0,0,0-.557,1.123,1.1,1.1,0,0,0,.518.986,6.368,6.368,0,0,0,1.87.635,9.744,9.744,0,0,1,2.192.723,3.2,3.2,0,0,1,1.245,1.011,2.485,2.485,0,0,1,.405,1.44,2.7,2.7,0,0,1-1.133,2.271,4.752,4.752,0,0,1-2.939.854,5.321,5.321,0,0,1-2.246-.449,3.653,3.653,0,0,1-1.528-1.255,3.025,3.025,0,0,1-.552-1.743h1.807a1.87,1.87,0,0,0,.728,1.44,2.822,2.822,0,0,0,1.792.532,2.913,2.913,0,0,0,1.646-.415A1.275,1.275,0,0,0,167.023,45.2ZM177.707,48a3.8,3.8,0,0,1-.254-1.113,4.031,4.031,0,0,1-3.008,1.309,3.73,3.73,0,0,1-2.563-.884,2.859,2.859,0,0,1-1-2.241,2.987,2.987,0,0,1,1.255-2.563,5.916,5.916,0,0,1,3.53-.913h1.758v-.83a2.029,2.029,0,0,0-.566-1.509,2.276,2.276,0,0,0-1.67-.562,2.634,2.634,0,0,0-1.621.488,1.439,1.439,0,0,0-.654,1.182H171.1a2.493,2.493,0,0,1,.562-1.528,3.832,3.832,0,0,1,1.523-1.167,5.125,5.125,0,0,1,2.114-.43,4.177,4.177,0,0,1,2.861.913,3.294,3.294,0,0,1,1.074,2.515v4.863a5.946,5.946,0,0,0,.371,2.314V48Zm-3-1.377a3.175,3.175,0,0,0,1.611-.439,2.658,2.658,0,0,0,1.1-1.143V42.873h-1.416q-3.32,0-3.32,1.943a1.645,1.645,0,0,0,.566,1.328A2.177,2.177,0,0,0,174.709,46.623Zm6.914-3.994a6.19,6.19,0,0,1,1.152-3.911,3.921,3.921,0,0,1,5.957-.21V33h1.807V48h-1.66l-.088-1.133a3.679,3.679,0,0,1-3.018,1.328,3.609,3.609,0,0,1-2.993-1.5,6.26,6.26,0,0,1-1.157-3.926Zm1.807.205a4.687,4.687,0,0,0,.742,2.813,2.4,2.4,0,0,0,2.051,1.016,2.636,2.636,0,0,0,2.51-1.543V40.266a2.656,2.656,0,0,0-2.49-1.494,2.411,2.411,0,0,0-2.07,1.025A5.16,5.16,0,0,0,183.43,42.834Zm9.434-.215a6.241,6.241,0,0,1,.61-2.793,4.553,4.553,0,0,1,1.7-1.914,4.626,4.626,0,0,1,2.485-.674,4.456,4.456,0,0,1,3.491,1.494,5.748,5.748,0,0,1,1.333,3.975v.127a6.3,6.3,0,0,1-.591,2.769,4.486,4.486,0,0,1-1.689,1.909,4.679,4.679,0,0,1-2.524.684A4.445,4.445,0,0,1,194.2,46.7a5.719,5.719,0,0,1-1.333-3.955Zm1.816.215a4.52,4.52,0,0,0,.815,2.822,2.763,2.763,0,0,0,4.37-.015,4.943,4.943,0,0,0,.811-3.022,4.513,4.513,0,0,0-.825-2.817,2.623,2.623,0,0,0-2.192-1.079,2.594,2.594,0,0,0-2.158,1.064A4.906,4.906,0,0,0,194.68,42.834Z" transform="translate(799 2975)" fill="#fff"/>
  </g>
</svg>
