<svg xmlns="http://www.w3.org/2000/svg" width="177" height="86" viewBox="0 0 177 86">
  <g id="Grupo_170187" data-name="Grupo 170187" transform="translate(-285 -2958)">
    <rect id="Rectángulo_42454" data-name="Rectángulo 42454" width="177" height="86" rx="13" transform="translate(285 2958)" fill="#fc5f65"/>
    <path id="Trazado_165142" data-name="Trazado 165142" d="M17.236,17.2q.205-1.162-1.143-1.777l-1.885-.752q-3.281-1.465-3.115-4.033a3.7,3.7,0,0,1,.781-2.109,4.7,4.7,0,0,1,2-1.44,7.088,7.088,0,0,1,2.783-.5,4.822,4.822,0,0,1,3.33,1.226,4.084,4.084,0,0,1,1.25,3.179H18.389a2.035,2.035,0,0,0-.425-1.5,1.914,1.914,0,0,0-1.47-.557,2.963,2.963,0,0,0-1.7.444,1.823,1.823,0,0,0-.859,1.274q-.186,1.064,1.426,1.689l1.289.488.742.342q2.881,1.426,2.7,4a3.863,3.863,0,0,1-.806,2.173,4.542,4.542,0,0,1-1.953,1.4,6.957,6.957,0,0,1-2.72.459,6.092,6.092,0,0,1-2.7-.635,4.186,4.186,0,0,1-1.8-1.709,4.425,4.425,0,0,1-.537-2.344l2.861.01q-.137,2.314,2.275,2.354a2.989,2.989,0,0,0,1.719-.459A1.787,1.787,0,0,0,17.236,17.2ZM27.8,19.906a3.648,3.648,0,0,1-2.91,1.289,2.715,2.715,0,0,1-2.3-1.094,4,4,0,0,1-.605-2.832l1.143-6.836h2.754l-1.162,6.873a2.718,2.718,0,0,0-.01.606,1,1,0,0,0,1.084,1.007,2.517,2.517,0,0,0,2.119-.987l1.318-7.5H32L30.166,21H27.6Zm14.57-4.16a7.577,7.577,0,0,1-1.523,4,3.791,3.791,0,0,1-3.184,1.455,2.946,2.946,0,0,1-2.539-1.348L34.727,21h-2.51l2.6-15h2.764l-1.064,5.4a3.292,3.292,0,0,1,2.578-1.162,2.981,2.981,0,0,1,2.407,1.1,4.862,4.862,0,0,1,.933,2.983A11.416,11.416,0,0,1,42.373,15.746Zm-2.734-.206a8.192,8.192,0,0,0,.059-1.293q-.107-1.7-1.406-1.734a2.292,2.292,0,0,0-2.021,1.107l-.762,4.212a1.572,1.572,0,0,0,1.582,1.1q2.031.059,2.49-2.958Zm8.35-5.107L46.094,21.576a4.4,4.4,0,0,1-1.274,2.754,3.73,3.73,0,0,1-2.71.967,8.5,8.5,0,0,1-1.465-.186l.225-2.246a5.386,5.386,0,0,0,.85.127A1.494,1.494,0,0,0,43.3,21.586l1.914-11.152Zm-2.51-2.686a1.379,1.379,0,0,1,.41-1.069A1.66,1.66,0,0,1,48.1,6.635a1.384,1.384,0,0,1,.454,1.016,1.391,1.391,0,0,1-.41,1.079,1.572,1.572,0,0,1-1.1.444A1.544,1.544,0,0,1,45.962,8.8,1.363,1.363,0,0,1,45.479,7.748ZM53.389,21.2a4.6,4.6,0,0,1-2.456-.679,4.115,4.115,0,0,1-1.6-1.836,5.117,5.117,0,0,1-.41-2.573l.029-.391a6.831,6.831,0,0,1,.9-2.832A5.427,5.427,0,0,1,51.787,10.9a4.784,4.784,0,0,1,2.617-.659,3.655,3.655,0,0,1,3.091,1.5,5.146,5.146,0,0,1,.8,3.7l-.156,1.2H51.66a2.267,2.267,0,0,0,.5,1.641,1.9,1.9,0,0,0,1.465.635,3.379,3.379,0,0,0,2.637-1.172l1.26,1.563a3.919,3.919,0,0,1-1.719,1.4A5.621,5.621,0,0,1,53.389,21.2Zm.879-8.682a1.957,1.957,0,0,0-1.353.479,4.2,4.2,0,0,0-1.06,1.729h3.789l.059-.254a2.588,2.588,0,0,0,.01-.742,1.418,1.418,0,0,0-.479-.884A1.5,1.5,0,0,0,54.268,12.514Zm9.316,6.416a1.809,1.809,0,0,0,1.27-.415,2.04,2.04,0,0,0,.664-1.157l2.588-.01a3.8,3.8,0,0,1-.7,2,4.242,4.242,0,0,1-1.68,1.387,4.808,4.808,0,0,1-2.212.469,3.9,3.9,0,0,1-3.047-1.328,4.956,4.956,0,0,1-1.084-3.457l.029-.537.01-.107a6.605,6.605,0,0,1,1.738-4.087,4.7,4.7,0,0,1,3.643-1.45,3.809,3.809,0,0,1,2.837,1.167,4.122,4.122,0,0,1,1.03,2.974H66.1a2.163,2.163,0,0,0-.371-1.338,1.41,1.41,0,0,0-1.113-.527q-1.973-.059-2.393,2.881a9.728,9.728,0,0,0-.107,1.8Q62.217,18.9,63.584,18.93ZM74.756,7.836l-.459,2.6h1.758l-.361,2.07H73.936l-.9,5.293a1.346,1.346,0,0,0,.078.762q.137.264.664.283.156.01.84-.049l-.2,2.158a4.632,4.632,0,0,1-1.582.225,2.482,2.482,0,0,1-2.021-.85,3.07,3.07,0,0,1-.547-2.246l.908-5.576H69.688l.361-2.07h1.494l.449-2.6Zm-51.143,36.5q.215-1.563-1.621-2.285L20.3,41.438l-.566-.244q-2.852-1.3-2.666-3.652a3.82,3.82,0,0,1,.811-2.09,4.612,4.612,0,0,1,1.89-1.4,6.062,6.062,0,0,1,2.5-.464,5,5,0,0,1,2.3.576,3.7,3.7,0,0,1,1.538,1.528,4.166,4.166,0,0,1,.469,2.212l-1.846-.01a2.547,2.547,0,0,0-.586-2.034,2.623,2.623,0,0,0-1.953-.74,3.638,3.638,0,0,0-2.236.626,2.444,2.444,0,0,0-1.035,1.761q-.2,1.458,1.787,2.211l1.455.518.732.313q2.754,1.27,2.549,3.77a3.765,3.765,0,0,1-.811,2.075,4.532,4.532,0,0,1-1.909,1.353,6.582,6.582,0,0,1-2.593.449,5.424,5.424,0,0,1-2.446-.571,3.991,3.991,0,0,1-1.685-1.538,3.847,3.847,0,0,1-.508-2.217l1.836.01a2.419,2.419,0,0,0,.688,2.017,3.1,3.1,0,0,0,2.192.767,3.914,3.914,0,0,0,2.334-.615A2.4,2.4,0,0,0,23.613,44.338Zm10.059,2.617a4.081,4.081,0,0,1-3.154,1.24,2.633,2.633,0,0,1-2.241-1.084,4.146,4.146,0,0,1-.542-2.852l1.133-6.826h1.768l-1.143,6.855a4.553,4.553,0,0,0-.02.84,1.748,1.748,0,0,0,.42,1.1,1.433,1.433,0,0,0,1.035.43,3.171,3.171,0,0,0,2.93-1.533l1.328-7.7h1.768L35.117,48h-1.67Zm7.744-9.521-2,11.826a3.736,3.736,0,0,1-1,2.275,2.83,2.83,0,0,1-2.1.762,5.214,5.214,0,0,1-1.162-.2l.156-1.445a4.215,4.215,0,0,0,.811.107q1.26,0,1.514-1.5l2.021-11.826ZM39.951,34.66a1.119,1.119,0,0,1,.288-.762,1.027,1.027,0,0,1,.747-.322.951.951,0,0,1,.747.278,1.013,1.013,0,0,1,.3.747,1.052,1.052,0,0,1-.3.752,1.087,1.087,0,0,1-.752.313.931.931,0,0,1-.732-.273A.994.994,0,0,1,39.951,34.66Zm7.1,13.535a3.81,3.81,0,0,1-3.086-1.455,5.007,5.007,0,0,1-.937-3.623l.049-.42a7.03,7.03,0,0,1,.933-2.871,5.424,5.424,0,0,1,1.87-1.958,4.363,4.363,0,0,1,2.383-.63,3.36,3.36,0,0,1,2.559,1.084,4.458,4.458,0,0,1,1.016,2.832,8.276,8.276,0,0,1-.039,1.27l-.107.811h-6.9a3.569,3.569,0,0,0,.474,2.441A2.243,2.243,0,0,0,47.2,46.721a3.759,3.759,0,0,0,2.891-1.406l1.016.859a4.648,4.648,0,0,1-1.714,1.5A4.857,4.857,0,0,1,47.051,48.2Zm1.123-9.482a2.582,2.582,0,0,0-1.909.742,5.275,5.275,0,0,0-1.294,2.295l5.137.01.039-.156a2.891,2.891,0,0,0-.4-2.046A1.86,1.86,0,0,0,48.174,38.713Zm9.346-3.838-.449,2.559h1.924l-.244,1.4H56.836l-1.1,6.572a2.292,2.292,0,0,0-.01.469.745.745,0,0,0,.83.762,5.062,5.062,0,0,0,.859-.1l-.137,1.475a4.809,4.809,0,0,1-1.289.176,1.846,1.846,0,0,1-1.582-.776,3,3,0,0,1-.41-2.036l1.074-6.543H53.2l.244-1.4h1.865l.449-2.559Zm7.441,2.363a3.809,3.809,0,0,1,2.275.723,4.106,4.106,0,0,1,1.4,1.938,6,6,0,0,1,.308,2.7l-.02.215a7.107,7.107,0,0,1-.918,2.788,5.386,5.386,0,0,1-1.895,1.938,4.62,4.62,0,0,1-2.549.654,3.815,3.815,0,0,1-2.271-.723A4.013,4.013,0,0,1,59.9,45.559a6.164,6.164,0,0,1-.312-2.666,7.2,7.2,0,0,1,.889-2.949,5.511,5.511,0,0,1,1.909-2.026A4.565,4.565,0,0,1,64.961,37.238ZM61.367,42.9a6,6,0,0,0,0,1.279,3.134,3.134,0,0,0,.688,1.836,2.067,2.067,0,0,0,1.577.713,2.816,2.816,0,0,0,1.621-.435,3.649,3.649,0,0,0,1.25-1.4,5.9,5.9,0,0,0,.654-2.08,9.367,9.367,0,0,0,.029-1.514,3.253,3.253,0,0,0-.713-1.865,2.113,2.113,0,0,0-1.582-.723,2.88,2.88,0,0,0-2.324,1.074,5.307,5.307,0,0,0-1.182,2.891Z" transform="translate(331 2975)" fill="#12263f"/>
  </g>
</svg>
