<svg id="Grupo_157504" data-name="Grupo 157504" xmlns="http://www.w3.org/2000/svg" width="290.843" height="595.896" viewBox="0 0 290.843 595.896">
  <g id="Grupo_157493" data-name="Grupo 157493" transform="translate(0 0)">
    <path id="Trazado_114544" data-name="Trazado 114544" d="M208.894,589.514c38.443-17.489,78.311-41.086,93.794-80.55,17.183-43.8-.8-92.846-.371-139.924.343-37.3,12.363-73.312,21.82-109.376s16.4-74.383,6.645-110.366c-6.532-24.088-20.406-45.884-38.318-63.178C260.923,55.664,215.479,39.185,172.3,46.15s-82.405,38.7-95.029,80.8C59.388,186.592,94.322,250.26,86.9,312.106c-2.9,24.2-12.2,47.085-18.508,70.622a290.813,290.813,0,0,0-9.88,76.835c.236,39.7,10.242,82.056,39.7,108.493C127.919,594.724,172.134,606.237,208.894,589.514Z" transform="translate(-51.93 -44.565)" fill="#ffe891"/>
    <g id="Grupo_157492" data-name="Grupo 157492" transform="translate(0 18.908)">
      <g id="Grupo_83725" data-name="Grupo 83725" transform="translate(0 256.384)">
        <path id="Trazado_117626" data-name="Trazado 117626" d="M461.877,291.856s-73.349,12.068-76.337-49.967c-2.867-59.525,25.1-78.676,25.1-78.676l51.914,80.235Z" transform="translate(-385.334 -163.213)" fill="#46467f"/>
      </g>
      <g id="Grupo_83727" data-name="Grupo 83727" transform="translate(1.202 150.019)">
        <path id="Trazado_117628" data-name="Trazado 117628" d="M455.251,307.3s-48.964,8.116-64.786-49.137,62.38-130.051,62.38-130.051Z" transform="translate(-388.352 -128.111)" fill="#fff0f1"/>
      </g>
      <g id="Grupo_83728" data-name="Grupo 83728" transform="translate(54.124 323.269)">
        <path id="Trazado_117629" data-name="Trazado 117629" d="M340.79,206.537s-10.2,63.6-10.2,111.028-5.037,99.469,0,104.1,55.023,20.157,115.454,16.687S524.6,419.313,523.595,413.8s-8.059-10.171-8.059-10.171,4.031-137.094-12.086-173.788-84.813-44.707-84.813-44.707H344.754Z" transform="translate(-328.347 -185.131)" fill="#fc5f65"/>
      </g>
      <g id="Grupo_83729" data-name="Grupo 83729" transform="translate(116.321 420.154)">
        <path id="Trazado_117630" data-name="Trazado 117630" d="M375.192,284.014a1.145,1.145,0,0,0,1.131-1.193l-3.608-64.459a1.123,1.123,0,0,0-1.194-1.07,1.135,1.135,0,0,0-1.07,1.194l3.611,64.459A1.13,1.13,0,0,0,375.192,284.014Z" transform="translate(-370.449 -217.286)" fill="#fff"/>
      </g>
      <g id="Grupo_83730" data-name="Grupo 83730" transform="translate(66.8 126.521)">
        <path id="Trazado_117631" data-name="Trazado 117631" d="M454.965,329.99s-57.513,12.824-86.317-1.209-12.57-94.693-12.57-94.693,15.646-110.477,38.093-112.834a187.419,187.419,0,0,1,42.256.622l27.687,93.883Z" transform="translate(-351.519 -120.348)" fill="#fc5f65"/>
      </g>
      <g id="Grupo_83731" data-name="Grupo 83731" transform="translate(109.451 124.415)">
        <path id="Trazado_117632" data-name="Trazado 117632" d="M346.75,119.651s-3.762,1.1-9.349,3.012l38.616,2.414s5.2,54.014,7.083,115.959c1.32,43.894-.018,83.492-.955,102.818l54.5-1.323s26-177.985,5.445-197.069-71.505-25.475-71.505-25.475Z" transform="translate(-337.401 -119.651)" fill="#fff0f1"/>
      </g>
      <g id="Grupo_83732" data-name="Grupo 83732" transform="translate(58.324 127.474)">
        <path id="Trazado_117633" data-name="Trazado 117633" d="M375.944,344.124l30.621-.749c-1.726-23.535-4.72-79.6.655-135.523,6.856-71.128,17.855-86.3,18.535-87.193-14.727,5.022-42.045,15.76-47.07,27.354C371.75,164.054,375.944,344.124,375.944,344.124Z" transform="translate(-374.687 -120.658)" fill="#fff0f1"/>
      </g>
      <g id="Grupo_83733" data-name="Grupo 83733" transform="translate(28.726 300.087)">
        <path id="Trazado_117634" data-name="Trazado 117634" d="M409.1,177.617l-51.192,53.207,67.1,89.529,64.257-48.087Z" transform="translate(-357.909 -177.617)" fill="#3c3fa7"/>
      </g>
      <g id="Grupo_83734" data-name="Grupo 83734" transform="translate(20.268 309.071)">
        <path id="Trazado_117635" data-name="Trazado 117635" d="M411.9,180.58l-51.192,53.207,67.1,89.529,64.257-48.086Z" transform="translate(-360.708 -180.58)" fill="#fff"/>
      </g>
      <g id="Grupo_83735" data-name="Grupo 83735" transform="translate(133.633)">
        <path id="Trazado_117636" data-name="Trazado 117636" d="M344.509,114.238s27.321-56,58.625-27.5c26.188,23.846-14.337,60.5-37.809,50.007S344.509,114.238,344.509,114.238Z" transform="translate(-344.418 -78.655)"/>
      </g>
      <g id="Grupo_83739" data-name="Grupo 83739" transform="translate(91.226 322.898)">
        <g id="Grupo_83738" data-name="Grupo 83738">
          <path id="Trazado_117638" data-name="Trazado 117638" d="M419.988,185.191s-54.425,9-65.176,18.9,15.328,47.9,22.034,54.059,54.467-25.109,54.467-25.109l6.907-27.3Z" transform="translate(-352.245 -185.191)" fill="#fca397"/>
        </g>
      </g>
      <g id="Grupo_83741" data-name="Grupo 83741" transform="translate(74.387 341.808)">
        <g id="Grupo_83740" data-name="Grupo 83740" transform="translate(0)">
          <path id="Trazado_117639" data-name="Trazado 117639" d="M395.226,191.447s-22.743,32.509-18.987,45.925S407.4,209.313,407.4,209.313Z" transform="translate(-375.82 -191.447)" fill="#fca397"/>
        </g>
      </g>
      <g id="Grupo_83743" data-name="Grupo 83743" transform="translate(114.851 374.831)">
        <g id="Grupo_83742" data-name="Grupo 83742">
          <path id="Trazado_117640" data-name="Trazado 117640" d="M377.871,214.427s28.179-3.976,22.62,6.236-35.673,8.439-40.652,2.783,10.739-21.087,10.739-21.087Z" transform="translate(-358.863 -202.359)" fill="#fca397"/>
        </g>
      </g>
      <g id="Grupo_83744" data-name="Grupo 83744" transform="translate(136.371 379.844)">
        <path id="Trazado_117641" data-name="Trazado 117641" d="M363.461,214.143a1.2,1.2,0,0,0,.405-.072l8.1-3.082a1.136,1.136,0,0,0,.269-1.97l-6.454-4.777a1.146,1.146,0,0,0-1.586.239,1.131,1.131,0,0,0,.242,1.583l4.786,3.544-6.164,2.342a1.135,1.135,0,0,0,.4,2.194Z" transform="translate(-362.328 -204.024)"/>
      </g>
      <g id="Grupo_83745" data-name="Grupo 83745" transform="translate(95.931 352.775)">
        <path id="Trazado_117642" data-name="Trazado 117642" d="M377.012,212.412a1.135,1.135,0,0,0,1.058-.722c1.876-4.856,5.505-13.111,7.264-14.606a1.134,1.134,0,1,0-1.468-1.728c-2.774,2.36-7.391,14.177-7.908,15.516a1.131,1.131,0,0,0,.65,1.465A1.067,1.067,0,0,0,377.012,212.412Z" transform="translate(-375.881 -195.086)"/>
      </g>
      <g id="Grupo_83746" data-name="Grupo 83746" transform="translate(104.538 362.295)">
        <path id="Trazado_117643" data-name="Trazado 117643" d="M373.44,219.8a1.131,1.131,0,0,0,1.012-.622l9.778-19.311a1.135,1.135,0,0,0-2.025-1.024l-9.778,19.314a1.132,1.132,0,0,0,1.012,1.644Z" transform="translate(-372.307 -198.225)"/>
      </g>
      <g id="Grupo_83747" data-name="Grupo 83747" transform="translate(87.786 20.193)">
        <path id="Trazado_117644" data-name="Trazado 117644" d="M362.427,146.454a37.038,37.038,0,0,1-7.053-29.648c2.218-12.147,7.69-16.011,7.69-16.011s-8.019-16.73,16.531-15.38,38.833,13.612,38.833,13.612,11.3-5.357,16.156,7.8-.453,32.406-.453,32.406Z" transform="translate(-354.733 -85.337)"/>
      </g>
      <g id="Grupo_83751" data-name="Grupo 83751" transform="translate(107.639 102.596)">
        <g id="Grupo_83750" data-name="Grupo 83750" transform="translate(0)">
          <g id="Grupo_83749" data-name="Grupo 83749">
            <g id="Grupo_83748" data-name="Grupo 83748">
              <path id="Trazado_117645" data-name="Trazado 117645" d="M403.021,112.512l-1.172,29.974s-5.741,8.406-23.333,9.146c-13.1.55-16.978-6.321-16.978-6.321l4.188-26.106,31.935-5.726Z" transform="translate(-361.538 -112.512)" fill="#fca397"/>
            </g>
          </g>
        </g>
      </g>
      <g id="Grupo_83755" data-name="Grupo 83755" transform="translate(109.451 100.751)">
        <g id="Grupo_83754" data-name="Grupo 83754" transform="translate(0)">
          <g id="Grupo_83753" data-name="Grupo 83753">
            <g id="Grupo_83752" data-name="Grupo 83752">
              <path id="Trazado_117646" data-name="Trazado 117646" d="M401.225,111.906a9.84,9.84,0,0,1-.985,2.858c-7.291,14.712-31.137,20.021-38.71,20.4l2.375-14.736Z" transform="translate(-361.53 -111.906)"/>
            </g>
          </g>
        </g>
      </g>
      <g id="Grupo_83759" data-name="Grupo 83759" transform="translate(94.955 29.957)">
        <g id="Grupo_83758" data-name="Grupo 83758">
          <g id="Grupo_83757" data-name="Grupo 83757">
            <g id="Grupo_83756" data-name="Grupo 83756">
              <path id="Trazado_117647" data-name="Trazado 117647" d="M367.137,99.022s-17.2,36.969-11.814,58.09S379.9,175.383,391.436,171.6s17.012-10.678,17.012-10.678a16.135,16.135,0,0,0,17.981-5.892c7.379-9.769,3.248-21.284-2.792-24.043s-13.4,1.478-13.4,1.478l5.943-10.72S393.558,66.012,367.137,99.022Z" transform="translate(-354.278 -88.57)" fill="#fca397"/>
            </g>
          </g>
        </g>
      </g>
      <g id="Grupo_83763" data-name="Grupo 83763" transform="translate(102.23 24.375)">
        <g id="Grupo_83762" data-name="Grupo 83762" transform="translate(0)">
          <g id="Grupo_83761" data-name="Grupo 83761">
            <g id="Grupo_83760" data-name="Grupo 83760">
              <path id="Trazado_117648" data-name="Trazado 117648" d="M406.488,136.2s-16.111,3.015-27.019-15.017-9.784-25.36-9.784-25.36l-11.376,18.3S356,101.291,361.234,93.205s10.521-6.321,10.521-6.321l35.3,9.346,8.929,28.521Z" transform="translate(-357.802 -86.721)"/>
            </g>
          </g>
        </g>
      </g>
      <g id="Grupo_83764" data-name="Grupo 83764" transform="translate(106.797 70.227)">
        <path id="Trazado_117649" data-name="Trazado 117649" d="M375.113,119.522a1.074,1.074,0,0,0,.317-.045,1.128,1.128,0,0,0,.771-1.4c-2.016-6.922,3.269-14.3,3.32-14.38a1.132,1.132,0,0,0-1.828-1.336c-.248.338-6,8.346-3.668,16.347A1.132,1.132,0,0,0,375.113,119.522Z" transform="translate(-373.471 -101.897)"/>
      </g>
      <g id="Grupo_83765" data-name="Grupo 83765" transform="translate(151.095 78.491)">
        <path id="Trazado_117650" data-name="Trazado 117650" d="M357.849,117.481a1.12,1.12,0,0,0,.813-.341l10.328-10.582a1.133,1.133,0,1,0-1.622-1.583L357.04,115.559a1.132,1.132,0,0,0,.809,1.922Z" transform="translate(-356.717 -104.632)"/>
      </g>
      <g id="Grupo_83766" data-name="Grupo 83766" transform="translate(154.884 85.194)">
        <path id="Trazado_117651" data-name="Trazado 117651" d="M364.7,110.3a1.132,1.132,0,0,0,.187-2.248l-7-1.181a1.132,1.132,0,1,0-.378,2.233l7,1.181A1.035,1.035,0,0,0,364.7,110.3Z" transform="translate(-356.563 -106.849)"/>
      </g>
      <g id="Grupo_83767" data-name="Grupo 83767" transform="translate(100.541 53.834)">
        <path id="Trazado_117652" data-name="Trazado 117652" d="M375.8,99.8a1.144,1.144,0,0,0,.175-.015l6.654-1.061a1.132,1.132,0,0,0-.357-2.236l-6.651,1.061A1.133,1.133,0,0,0,375.8,99.8Z" transform="translate(-374.665 -96.471)"/>
      </g>
      <g id="Grupo_83768" data-name="Grupo 83768" transform="translate(117.252 53.973)">
        <path id="Trazado_117653" data-name="Trazado 117653" d="M379.7,104.446a1.133,1.133,0,0,0,.526-2.136l-10.8-5.662a1.134,1.134,0,0,0-1.052,2.009l10.8,5.659A1.146,1.146,0,0,0,379.7,104.446Z" transform="translate(-367.76 -96.517)"/>
      </g>
      <g id="Grupo_83769" data-name="Grupo 83769" transform="translate(100.324 60.95)">
        <path id="Trazado_117654" data-name="Trazado 117654" d="M377.355,110.37a1.13,1.13,0,0,0,1.076-.786l2.167-6.714a1.133,1.133,0,0,0-.19-1.055l-2.037-2.562a1.133,1.133,0,1,0-1.774,1.411l1.656,2.088-1.976,6.137a1.132,1.132,0,0,0,.728,1.426A1.163,1.163,0,0,0,377.355,110.37Z" transform="translate(-376.221 -98.827)"/>
      </g>
      <g id="Grupo_83770" data-name="Grupo 83770" transform="translate(118.525 62.21)">
        <path id="Trazado_117655" data-name="Trazado 117655" d="M371.763,111.6a1.128,1.128,0,0,0,1.076-.786l2.166-6.714a1.13,1.13,0,0,0-.205-1.073l-2.813-3.378a1.132,1.132,0,0,0-1.74,1.447l2.414,2.9-1.976,6.122a1.131,1.131,0,0,0,.731,1.426A1.159,1.159,0,0,0,371.763,111.6Z" transform="translate(-369.984 -99.243)"/>
      </g>
      <g id="Grupo_83771" data-name="Grupo 83771" transform="translate(110.454 90.23)">
        <path id="Trazado_117656" data-name="Trazado 117656" d="M372.969,116.063c4.608,0,9.726-4.943,10.4-5.611a1.133,1.133,0,1,0-1.6-1.6c-1.861,1.846-7.345,6.276-10.373,4.563a1.132,1.132,0,1,0-1.115,1.97A5.367,5.367,0,0,0,372.969,116.063Z" transform="translate(-369.702 -108.517)"/>
      </g>
      <g id="Grupo_83772" data-name="Grupo 83772" transform="translate(138.878 143.268)">
        <path id="Trazado_117657" data-name="Trazado 117657" d="M380.01,125.845s87.278,55.428,86.586,140.917-116.382,111.07-116.382,111.07l-35.579-88.063,59.444-33.99Z" transform="translate(-314.635 -125.845)" fill="#fff0f1"/>
      </g>
      <g id="Grupo_83773" data-name="Grupo 83773" transform="translate(55.009 130.518)">
        <path id="Trazado_117658" data-name="Trazado 117658" d="M423.212,121.7a240.872,240.872,0,0,0-26.1,62.308c-9.575,36.476-16.2,64.52-16.2,64.52s-9.7-75.578,3.976-102.631C391.591,132.644,423.212,121.7,423.212,121.7Z" transform="translate(-377.584 -121.703)" fill="#46467f"/>
      </g>
      <g id="Grupo_83774" data-name="Grupo 83774" transform="translate(230.736 510.134)">
        <path id="Trazado_117659" data-name="Trazado 117659" d="M341.231,251.5a1.134,1.134,0,0,0,.263-2.236l-9.446-2.257a1.116,1.116,0,0,0-1.366.84,1.13,1.13,0,0,0,.84,1.363l9.446,2.257A.979.979,0,0,0,341.231,251.5Z" transform="translate(-330.651 -246.975)" fill="#fff"/>
      </g>
      <g id="Grupo_83777" data-name="Grupo 83777" transform="translate(154.333 263.278)">
        <path id="Trazado_117662" data-name="Trazado 117662" d="M343.147,201.172a1.126,1.126,0,0,0,.686-.233c.369-.281,37.172-28.236,51.207-33.2a1.133,1.133,0,1,0-.755-2.136c-14.368,5.082-50.3,32.376-51.826,33.536a1.133,1.133,0,0,0,.689,2.033Z" transform="translate(-342.013 -165.539)" fill="#fc5f65"/>
      </g>
      <g id="Grupo_83778" data-name="Grupo 83778" transform="translate(187.495 247.207)">
        <path id="Trazado_117663" data-name="Trazado 117663" d="M345.145,187.916a1.153,1.153,0,0,0,.813-.341c.568-.586,13.969-14.419,12.567-22.342a5.783,5.783,0,0,0-3.438-4.351,5.017,5.017,0,0,0-5.149.118c-6.227,4.019-5.977,23.589-5.925,25.807a1.141,1.141,0,0,0,.716,1.03A1.123,1.123,0,0,0,345.145,187.916Zm7.342-25.414a3.768,3.768,0,0,1,1.62.423,3.6,3.6,0,0,1,2.185,2.7c.852,4.8-5.771,13.479-10.013,18.262.124-6.832,1.118-18.555,4.889-20.988A2.351,2.351,0,0,1,352.487,162.5Z" transform="translate(-343.996 -160.24)" fill="#fc5f65"/>
      </g>
      <g id="Grupo_83779" data-name="Grupo 83779" transform="translate(24.114 170.157)">
        <path id="Trazado_117664" data-name="Trazado 117664" d="M419.271,137.179s21.435,27.9,20.5,38.963-8.941,5.475-8.941,5.475,4.832,12.4-.211,15-8.811-5.514-8.811-5.514.039,10.7-6.007,10.926-30.666-28.7-31.131-37.253,10.252-6.327,10.252-6.327-2.632-13.343,2.239-16.165,12.029,4.2,12.029,4.2S408.457,128.464,419.271,137.179Z" transform="translate(-384.659 -134.798)" fill="#fca397"/>
      </g>
      <g id="Grupo_83780" data-name="Grupo 83780" transform="translate(21.608 204.716)">
        <path id="Trazado_117665" data-name="Trazado 117665" d="M425.888,170.376s5.2,28.566-10.9,28.421c-33.694-.3-19.746-52.59-19.746-52.59Z" transform="translate(-392.386 -146.207)" fill="#fca397"/>
      </g>
      <g id="Grupo_83781" data-name="Grupo 83781" transform="translate(49.032 256.534)">
        <path id="Trazado_117666" data-name="Trazado 117666" d="M392.315,222.263a1.125,1.125,0,0,0,.873-.411c9.672-11.736,8.494-55.588,8.439-57.449a1.134,1.134,0,0,0-2.266.066c.015.447,1.212,44.861-7.92,55.941a1.132,1.132,0,0,0,.154,1.6A1.111,1.111,0,0,0,392.315,222.263Z" transform="translate(-391.182 -163.303)" fill="#fc5f65"/>
      </g>
      <g id="Grupo_83782" data-name="Grupo 83782" transform="translate(50.836 183.716)">
        <path id="Trazado_117667" data-name="Trazado 117667" d="M406.7,173.683a1.111,1.111,0,0,0,.562-.148,1.132,1.132,0,0,0,.423-1.544l-18.317-32.134a1.135,1.135,0,0,0-1.973,1.121l18.32,32.134A1.128,1.128,0,0,0,406.7,173.683Z" transform="translate(-387.253 -139.283)"/>
      </g>
      <g id="Grupo_83783" data-name="Grupo 83783" transform="translate(39.339 196.377)">
        <path id="Trazado_117668" data-name="Trazado 117668" d="M410.123,174.741a1.1,1.1,0,0,0,.589-.169,1.132,1.132,0,0,0,.378-1.556l-17.74-29.01a1.133,1.133,0,0,0-1.934,1.181l17.74,29.01A1.139,1.139,0,0,0,410.123,174.741Z" transform="translate(-391.25 -143.462)"/>
      </g>
      <g id="Grupo_83784" data-name="Grupo 83784" transform="translate(106.505 131.504)">
        <path id="Trazado_117669" data-name="Trazado 117669" d="M377.01,133.593c.877,0,1.789-.042,2.756-.13,11.724-1.079,23.381-9,23.871-9.34a1.132,1.132,0,1,0-1.281-1.867c-.115.079-11.672,7.926-22.8,8.95-11.7,1.082-15.727-5.481-15.893-5.759a1.134,1.134,0,0,0-1.964,1.133C361.878,126.888,365.863,133.593,377.01,133.593Z" transform="translate(-361.551 -122.057)" fill="#3c3fa7"/>
      </g>
    </g>
  </g>
</svg>
