<svg xmlns="http://www.w3.org/2000/svg" xmlns:xlink="http://www.w3.org/1999/xlink" width="85" height="85" viewBox="0 0 85 85">
  <defs>
    <clipPath id="clip-path">
      <rect id="Rectángulo_42674" data-name="Rectángulo 42674" width="60.567" height="55.796" fill="none"/>
    </clipPath>
  </defs>
  <g id="Grupo_169616" data-name="Grupo 169616" transform="translate(-1125 -3896)">
    <circle id="Elipse_4857" data-name="Elipse 4857" cx="42.5" cy="42.5" r="42.5" transform="translate(1125 3896)" fill="#6b8dfc"/>
    <g id="Grupo_169615" data-name="Grupo 169615" transform="translate(1137 3911)">
      <g id="Grupo_169614" data-name="Grupo 169614" clip-path="url(#clip-path)">
        <path id="Trazado_161619" data-name="Trazado 161619" d="M40.6,38.224a1.031,1.031,0,0,1-.7-1.1c.007-6.328-.055-12.656.024-18.983a18.144,18.144,0,0,1,35.812-4.1,21.266,21.266,0,0,0,.469,2.392V20.1a4.117,4.117,0,0,0-.33,1.513A17.859,17.859,0,0,1,69.51,32.226a20.081,20.081,0,0,0-3.8,3.784,12.347,12.347,0,0,0-2.161,7.413,12.451,12.451,0,0,1-1.772,6.755,11.818,11.818,0,0,1-12.358,5.4A11.992,11.992,0,0,1,40.1,45.948a25.869,25.869,0,0,1-.2-4.363.928.928,0,0,1,.691-.925c.8-.16,1.185.132,1.212.965.035,1.1.023,2.195.117,3.294A10.081,10.081,0,0,0,49.1,53.467a9.822,9.822,0,0,0,12.414-8.418c.083-.787.091-1.571.1-2.358A13.827,13.827,0,0,1,65.53,33.2c1.29-1.4,2.887-2.444,4.189-3.82a15.922,15.922,0,0,0,4.445-9.693,15.633,15.633,0,0,0-2.24-9.844A15.878,15.878,0,0,0,60.482,2.166a14.869,14.869,0,0,0-4.461-.041A16.315,16.315,0,0,0,41.983,16.594a26.371,26.371,0,0,0-.162,2.768c.015,5.731.007,11.462.007,17.193,0,.256.01.513-.01.768-.063.784-.447,1.065-1.22.9" transform="translate(-15.635 0)"/>
        <path id="Trazado_161620" data-name="Trazado 161620" d="M49.532,54.851a9.65,9.65,0,0,1-5.957-4.6,10.138,10.138,0,0,1-1.416-5.351c0-.63.005-1.261,0-1.891-.01-.822-.265-1.073-1.1-1.1.1-.113.241-.182.237-.373q-.016-.843,0-1.686c0-.191-.141-.261-.236-.375.864-.032,1.1-.288,1.1-1.223,0-6.126-.024-12.252.009-18.378a16.364,16.364,0,0,1,7.052-13.84,14.545,14.545,0,0,1,7.281-2.8.944.944,0,0,1,.69.067,17.06,17.06,0,0,1,7.46,5.786c.134.178.451.44-.017.638-.874-.3-1.647-.825-2.541-1.092a10.952,10.952,0,0,0-11.442,2.708,11.383,11.383,0,0,0-3.516,8.483c-.013,1.516.009,3.032-.006,4.547a3.694,3.694,0,0,0,.7,2.445,1.193,1.193,0,0,1,.245.6,1.829,1.829,0,0,1,.029.354q.013,7.855,0,15.711a2.094,2.094,0,0,1-.05.526c-.058.235-.254.337-.438.451a.939.939,0,0,0-.461.952,5.178,5.178,0,0,0,4.661,4.87,4.714,4.714,0,0,0,1.521-.156,1.319,1.319,0,0,1,.694-.074c.219.2.08.411-.021.585a10.584,10.584,0,0,1-4.039,4.1.54.54,0,0,1-.44.114" transform="translate(-16.097 -1.252)" fill="#f8e9e1"/>
        <path id="Trazado_161621" data-name="Trazado 161621" d="M23.674,39.212a20.147,20.147,0,0,1-5.727,14.157,1.12,1.12,0,0,1-.9.484.9.9,0,0,1-.539-1.575,20.885,20.885,0,0,0,2.074-2.5A18.519,18.519,0,0,0,16.8,26.521c-.7-.728-.79-1.215-.3-1.658.44-.4.953-.275,1.6.416a20.081,20.081,0,0,1,5.577,13.934" transform="translate(-6.348 -9.659)"/>
        <path id="Trazado_161622" data-name="Trazado 161622" d="M13.533,42.438a13.23,13.23,0,0,1-3.8,9.284.9.9,0,0,1-1.261.2A.854.854,0,0,1,8.2,50.814a2.251,2.251,0,0,1,.443-.547,11.548,11.548,0,0,0,.247-15.449c-.142-.163-.3-.314-.443-.474a.926.926,0,0,1-.074-1.363.878.878,0,0,1,1.351.1,13.188,13.188,0,0,1,3.625,7.142,16.749,16.749,0,0,1,.183,2.214" transform="translate(-3.177 -12.824)"/>
        <path id="Trazado_161623" data-name="Trazado 161623" d="M3.4,45.574a6.422,6.422,0,0,1-1.726,4.359.936.936,0,0,1-1.351.206c-.435-.365-.43-.881.012-1.4a4.538,4.538,0,0,0-.005-6.31c-.424-.5-.44-.985-.043-1.356a.9.9,0,0,1,1.35.137A6.3,6.3,0,0,1,3.4,45.574" transform="translate(0 -16.007)"/>
        <path id="Trazado_161624" data-name="Trazado 161624" d="M55,54.751A10.984,10.984,0,0,0,59.16,50.8a2.3,2.3,0,0,0,.374-.79c.057-.219.251-.291.419-.388a5.107,5.107,0,0,0,2.724-4.838,18.683,18.683,0,0,1,2.231-9.613,23.214,23.214,0,0,1,6.074-6.932,11.1,11.1,0,0,0,4.274-7.692c.049-.451.072-.9.1-1.353a1.491,1.491,0,0,0-.96-1.7,9.952,9.952,0,0,1-.646-2.3,1.4,1.4,0,0,0-.078-1.824,11.724,11.724,0,0,0-3.18-3.368c-.157-.107-.354-.2-.333-.444.166-.173,0-.29-.084-.4a17.594,17.594,0,0,0-7.709-5.935,2.3,2.3,0,0,0-.4-.083,12.306,12.306,0,0,1,4.7.062c7,1.428,11.594,5.57,13.213,12.534,1.483,6.374-.5,11.825-5.436,16.128a23.645,23.645,0,0,0-4.5,4.653A14.047,14.047,0,0,0,67.661,44.8,10.025,10.025,0,0,1,55.148,54.835.672.672,0,0,1,55,54.751" transform="translate(-21.562 -1.152)" fill="#f4dacb"/>
        <path id="Trazado_161625" data-name="Trazado 161625" d="M68.517,12.686a12.341,12.341,0,0,1,3.9,4.175.981.981,0,0,1-.208,1.407.917.917,0,0,1-1.426-.339,14.7,14.7,0,0,0-.809-1.23,9.467,9.467,0,0,0-6.8-3.776,9.909,9.909,0,0,0-3.491.337,9.591,9.591,0,0,0-6.793,8.023,13.35,13.35,0,0,0-.157,1.939c-.012.6.042.641.6.517a6.862,6.862,0,0,1,5.9,1.339,7.109,7.109,0,0,1-4.328,12.7,1.279,1.279,0,0,1-.781-.368,1.013,1.013,0,0,1,.432-1.662,14.543,14.543,0,0,1,1.56-.26,4.893,4.893,0,0,0,3.643-3.858A4.99,4.99,0,0,0,53.761,25.8c-.927.2-1.034.33-1.035,1.251,0,.236-.009.472.01.708A1.3,1.3,0,0,0,53.817,29.1a1.032,1.032,0,0,1,.559,1.771.953.953,0,0,1-.511.272,2.222,2.222,0,0,1-2.1-.892,3.573,3.573,0,0,1-.954-2.7c.063-2.106-.09-4.216.093-6.32A11.719,11.719,0,0,1,61.019,11,11.293,11.293,0,0,1,68.4,12.673c.029.019.077.009.116.013" transform="translate(-19.919 -4.287)"/>
        <path id="Trazado_161626" data-name="Trazado 161626" d="M72.809,26.836c.792.147,1.009.369,1.038,1.17a11.259,11.259,0,0,1-4.169,9.522,28.142,28.142,0,0,0-4.863,4.878,18.231,18.231,0,0,0-3.632,11.418,5.444,5.444,0,0,1-3.28,5.55,5.133,5.133,0,0,1-4.622-.489,5.3,5.3,0,0,1-2.44-4.35c-.036-.63.2-.895.909-1.094.285-.147.474.046.677.19a1.779,1.779,0,0,1,.423,1.2,3.334,3.334,0,0,0,3.24,2.94,3.146,3.146,0,0,0,3.076-3.188,23.657,23.657,0,0,1,1.3-8.184,21.611,21.611,0,0,1,3.946-6.611,36.635,36.635,0,0,1,4.155-3.85,9.26,9.26,0,0,0,3.267-6.165,8.658,8.658,0,0,0,.061-1.883.935.935,0,0,1,.917-1.052" transform="translate(-19.93 -10.521)"/>
        <path id="Trazado_161627" data-name="Trazado 161627" d="M52.942,56.849l-.6-.246q0-8.063,0-16.127c0-.275.016-.55.024-.826a3.326,3.326,0,0,0,1.812.773.868.868,0,0,0,.989-.728.9.9,0,0,0-.74-1.04c-.987-.272-1.2-.553-1.207-1.58,0-.276,0-.551,0-.827,0-.914,0-.914.864-1.154a5.135,5.135,0,0,1,6.4,6.025,4.338,4.338,0,0,1-.911,1.067,22.7,22.7,0,0,0-2.186,2.375,1.625,1.625,0,0,1-.546.435,3.458,3.458,0,0,1-1.152.194c-.551.031-1.019.168-1.1.812-.071.546.221.852.951,1.034.1.257-.052.463-.157.666a19.241,19.241,0,0,0-2.169,8.575c0,.214.063.492-.264.571" transform="translate(-20.519 -13.683)" fill="#efc8bb"/>
        <path id="Trazado_161628" data-name="Trazado 161628" d="M53.331,48.6c.122-.1.107-.244.107-.381a19.429,19.429,0,0,1,2.483-9.431,7.028,7.028,0,0,0,6.229-4.079,7.307,7.307,0,0,0,.646-3.5,2.457,2.457,0,0,1,.445-.618,10.048,10.048,0,0,0,2.615-8.334,10.193,10.193,0,0,0-4.826-7.548c-.164-.107-.343-.2-.385-.421a9.662,9.662,0,0,1,11.188,4.6c.368.646.631.737,1.362.527.148.79.5,1.528.591,2.335a1.1,1.1,0,0,0-.765,1.283,9.386,9.386,0,0,1-3.457,7.979,30.435,30.435,0,0,0-5.239,5.258,20.394,20.394,0,0,0-3.979,12.775,3.5,3.5,0,0,1-1.356,3.108,3.358,3.358,0,0,1-5.327-2.325,2.026,2.026,0,0,0-.332-1.227" transform="translate(-20.909 -5.435)" fill="#e7a99a"/>
        <path id="Trazado_161629" data-name="Trazado 161629" d="M60.808,14.566A10.856,10.856,0,0,1,65.252,19.3a10.559,10.559,0,0,1-2.063,12.008c-.071.067-.153.121-.23.181a7,7,0,0,0-3.885-5.63,6.717,6.717,0,0,0-4.88-.48c-.21.055-.409.2-.43-.2a10.175,10.175,0,0,1,5.192-9.88,5.676,5.676,0,0,1,1.852-.731" transform="translate(-21.071 -5.711)" fill="#efc8bb"/>
        <path id="Trazado_161630" data-name="Trazado 161630" d="M59.738,49.009a33.125,33.125,0,0,1,3.642-3.877,4.983,4.983,0,0,1-3.642,3.877" transform="translate(-23.42 -17.694)" fill="#e6a99a"/>
      </g>
    </g>
  </g>
</svg>
