<svg xmlns="http://www.w3.org/2000/svg" xmlns:xlink="http://www.w3.org/1999/xlink" width="126" height="144" viewBox="0 0 126 144">
  <defs>
    <clipPath id="clip-path">
      <rect id="Rect치ngulo_42677" data-name="Rect치ngulo 42677" width="80.199" height="89.706" fill="none"/>
    </clipPath>
  </defs>
  <g id="Grupo_169625" data-name="Grupo 169625" transform="translate(-232 -6505)">
    <rect id="Rect치ngulo_42671" data-name="Rect치ngulo 42671" width="126" height="144" rx="13" transform="translate(232 6505)" fill="#ffd947"/>
    <g id="Grupo_169624" data-name="Grupo 169624" transform="translate(255 6532)">
      <g id="Grupo_169623" data-name="Grupo 169623" clip-path="url(#clip-path)">
        <path id="Trazado_161681" data-name="Trazado 161681" d="M73.1,75.573a1.367,1.367,0,0,1,1.275,1.577,12.7,12.7,0,0,1-.118,2.527,5.083,5.083,0,0,1-3.991,4.162c-6.385,1.44-12.786,2.806-19.183,4.2-2.274.494-4.552.966-6.824,1.471a7.837,7.837,0,0,1-1.125.117c-4.883.373-9.605-.548-14.33-1.638-6.094-1.4-12.22-2.671-18.336-3.978a5.459,5.459,0,0,1-4.677-5.738c0-4.2-.013-8.4.011-12.6,0-.672-.034-.981-.891-1a4.934,4.934,0,0,1-4.9-5.09C0,58.5-.01,57.419.017,56.34a4.9,4.9,0,0,1,4.816-4.884c.823-.016,1.024-.268.972-1.033a8.673,8.673,0,0,1,.086-2.265,5.285,5.285,0,0,1,6.351-4.269c2.018.406,4.028.85,6.171,1.3a16.372,16.372,0,0,1-.817-5.565.847.847,0,0,0-.659-.926,5.787,5.787,0,0,1-2.788-9.047,1.262,1.262,0,0,0,.219-1.185A53.582,53.582,0,0,1,12.6,15.607c0-.524.031-1.049.056-1.573a1.408,1.408,0,0,1,1.356-1.525c.937-.06,1.361.28,1.436,1.193.052.638.025,1.281.017,1.921a49.623,49.623,0,0,0,1.362,10.8c.131.626.387.957,1.072.717a1.436,1.436,0,0,1,.518-.066c3.008.1,4.7-1.674,5.877-4.145a11.956,11.956,0,0,0,.991-2.977,2.136,2.136,0,0,1,.852-1.469,1.659,1.659,0,0,1,2.007.357c3.217,2.893,7.089,4.128,11.3,4.585A23.558,23.558,0,0,0,49.53,22.375a19.381,19.381,0,0,0,6.4-3.852,35.144,35.144,0,0,0,6.958-7.908,11.346,11.346,0,0,0,1.738-3.889c.2-1.026-.124-1.34-1.154-1.161A10.6,10.6,0,0,0,59.93,8.243a11.5,11.5,0,0,1-1.337,1.489,1.517,1.517,0,0,1-2.024.386,1.584,1.584,0,0,1-.513-2.08,15.606,15.606,0,0,0,1.008-3.326c.238-1.613-.443-2.2-1.981-1.669a6.647,6.647,0,0,0-.872.394A8.921,8.921,0,0,0,50.949,7.11c-.309.528-.548,1.094-.815,1.646-.639.835-1.312,1.1-2,.793a1.626,1.626,0,0,1-.854-1.993,25.054,25.054,0,0,0,.4-2.857,3.066,3.066,0,0,0-.34-1.606c-.653-.55-1.1.013-1.509.348a16.658,16.658,0,0,0-2.577,2.84,37.172,37.172,0,0,1-3.679,4.43,9.583,9.583,0,0,1-2.3,1.712,3.072,3.072,0,0,1-.8.332,1.52,1.52,0,0,1-1.644-.732,1.45,1.45,0,0,1,.229-1.766,3.139,3.139,0,0,1,.855-.595,10.559,10.559,0,0,0,3.262-3.1c.212-.275.256-.513-.116-.7a13.5,13.5,0,0,0-8.312-1.7,5.846,5.846,0,0,0-4.182,3.13c-.935,1.447-1.356,1.6-2.953,1a8.766,8.766,0,0,0-3.689-.522,4.018,4.018,0,0,0-2.9,1.582,2.5,2.5,0,0,1-.8.789c-.478.218-.978.448-1.4-.108-.806-.761-.879-1.243-.282-2.118,1.88-2.754,4.621-3.483,7.677-2.9A2.993,2.993,0,0,0,25.58,3.934c2.3-2.669,5.465-3.122,8.8-2.628a19.336,19.336,0,0,1,6.546,2.308c.434.241.665.229.991-.2A9.172,9.172,0,0,1,46.208,0h1.575a2.821,2.821,0,0,1,2.4,1.892c.218.544.442.463.811.126A6.715,6.715,0,0,1,55.135,0H57.06c2.072.607,2.991,2.042,2.926,4.275.494-.314.893-.574,1.3-.823a5.165,5.165,0,0,1,3.045-.916c2.252.14,3.636,2.166,3.152,4.6a17.835,17.835,0,0,1-3.364,6.739,29.555,29.555,0,0,1-2.66,3.242,1.234,1.234,0,0,0-.354,1.1c.355,2.864.6,5.739.713,8.624a.671.671,0,0,0,.551.724,5.845,5.845,0,0,1,.1,11.182c-.471.167-.516.407-.529.813a16.779,16.779,0,0,1-.9,5.8c1.873-.407,3.648-.806,5.43-1.177a8.215,8.215,0,0,1,3.705-.3,5.364,5.364,0,0,1,4.193,5.057,6.542,6.542,0,0,0,.066,2.164c.325.754,1.28.241,1.944.442a4.951,4.951,0,0,1,3.715,4.278,22.991,22.991,0,0,1,0,4.454,4.874,4.874,0,0,1-4.929,4.4c-.66.017-.82.173-.8.82.047,1.894.019,3.79.016,5.685,0,1.165-.214,1.444-1.345,1.815-.952.032-1.444-.419-1.5-1.477-.067-1.281-.016-2.565-.023-3.848,0-.32-.023-.643,0-.962a3.248,3.248,0,0,0-1.322-3.325A4.377,4.377,0,0,1,68.531,59.6c.008-1.021,0-2.041,0-3.061a5.156,5.156,0,0,1,2.175-4.364,1.708,1.708,0,0,0,.8-1.622c-.029-.407.005-.817-.012-1.224a2.558,2.558,0,0,0-3.323-2.566q-3.932.844-7.862,1.7-6.964,1.519-13.93,3.025c-1.1.238-1.144.27-1.145,1.363q0,16.135,0,32.271c0,1.173.022,1.19,1.192.943,7.5-1.584,14.983-3.255,22.48-4.856,1.95-.416,2.58-1.234,2.6-3.231a7.2,7.2,0,0,1,.051-1.309,1.248,1.248,0,0,1,1.539-1.1" transform="translate(0 0)"/>
        <path id="Trazado_161682" data-name="Trazado 161682" d="M93.791,96.935c-1.022.2-1.391.561-1.335,1.583.2,3.563-1.116,3.987-3.663,4.518-7.494,1.562-14.97,3.207-22.446,4.854-.642.142-.73-.021-.729-.594q.016-16.842,0-33.684c0-.527.133-.748.685-.867,7.627-1.635,15.245-3.31,22.872-4.947a2.708,2.708,0,0,1,3.26,2.482c.023.26-.01.526.015.787a2.809,2.809,0,0,1-1.3,3.06,4.093,4.093,0,0,0-1.668,3.59c-.011,1.079,0,2.158,0,3.237a4.865,4.865,0,0,0,2.433,4.368.972.972,0,0,1,.543.965c-.025,2.1.02,4.2-.024,6.3a1.55,1.55,0,0,0,1.291,1.779q.035,1.286.068,2.571" transform="translate(-20.693 -21.362)" fill="#d94a54"/>
        <path id="Trazado_161683" data-name="Trazado 161683" d="M21.254,13.321a1.321,1.321,0,0,0,1.759-.484c1.3-2,3.22-2.295,5.358-1.968a8.784,8.784,0,0,1,1.587.444c1.794.635,1.825.633,2.909-.889.344.39.081.773-.034,1.141a16.711,16.711,0,0,0-.623,8.563c.127.6.416,1.14.531,1.737a2.173,2.173,0,0,0-.748,1.325,12.858,12.858,0,0,1-1.681,4.365A5.714,5.714,0,0,1,25.089,30.6a1.694,1.694,0,0,0-.69.066c-1.009.441-1.191-.075-1.376-.956a46.458,46.458,0,0,1-1.3-12.363c.057-.959-.255-1.3-1.262-1.553q.4-1.237.788-2.475" transform="translate(-6.454 -3.287)" fill="#ebc22e"/>
        <path id="Trazado_161684" data-name="Trazado 161684" d="M39.093,90.522c0,5.51-.014,11.02.016,16.53,0,.768-.107.98-.941.8-7.84-1.73-15.69-3.413-23.536-5.112a2.75,2.75,0,0,1-2.346-2.84c-.015-4.548,0-9.1-.013-13.644a.908.908,0,0,1,.5-.9,4.9,4.9,0,0,0,2.478-4.431c0-1.02.006-2.041,0-3.061a4.827,4.827,0,0,0-2.372-4.31,1.083,1.083,0,0,1-.6-1.119c.038-.668-.013-1.342.016-2.011a2.72,2.72,0,0,1,3.3-2.618c7.593,1.633,15.179,3.3,22.774,4.926.639.137.745.427.743,1-.019,5.6-.012,11.2-.012,16.793" transform="translate(-3.869 -21.362)" fill="#c22430"/>
        <path id="Trazado_161685" data-name="Trazado 161685" d="M42.914,32.657a26.842,26.842,0,0,0,12.609,2.987,22.672,22.672,0,0,0,15.8-5.924c.169-.154.348-.3.6-.505a12.158,12.158,0,0,1,.328,2.716,137.344,137.344,0,0,1,.256,19.042,10.217,10.217,0,0,1-1.051,3.757,1.162,1.162,0,0,1-.915.687q-6.657,1.417-13.308,2.862A24.1,24.1,0,0,1,54.1,58.4c-3.609.308-7.043-.627-10.5-1.434-.42-.212-.484-.638-.592-1.023a20.034,20.034,0,0,1-.712-4.916c-.031-1.252-.012-2.506,0-3.758a1.851,1.851,0,0,1,.2-1.1.644.644,0,0,1,.383-.184,2.27,2.27,0,0,0,2.139-2.831,2.49,2.49,0,0,0-1.212-2.189c-.424-.215-.95.081-1.332-.3a.574.574,0,0,1-.108-.239,37.387,37.387,0,0,1,.115-7.217c.036-.24.06-.547.431-.552" transform="translate(-13.325 -9.214)" fill="#f0cfa4"/>
        <path id="Trazado_161686" data-name="Trazado 161686" d="M37.893,19.786c-.516-.255-.587-.79-.692-1.247a16.707,16.707,0,0,1,.7-9.522,1.4,1.4,0,0,0,.121-.672,6.3,6.3,0,0,1,6.221-3.357A16.74,16.74,0,0,1,51.5,7.225c-1.215,1.532-2.313,3.1-4.1,3.971-.917.446-1.234,1.152-.875,1.883.333.681,1.057.873,1.955.522.133-.052.27-.1.406-.144.73-.2,1.49-.16,2.228-.306a6.644,6.644,0,0,0,4.352-3.343C56.5,8.157,57.124,6.295,58.07,4.595c.2-.363.346-.861.952-.582a2.6,2.6,0,0,1,.468,2.121,13.876,13.876,0,0,1-.344,2.489c-.188.811-.2,1.51.631,1.941.664.342,1.246.078,1.862-.787,1.449-.283,1.994-1.39,2.461-2.618A6.618,6.618,0,0,1,65.678,4.5a3.039,3.039,0,0,1,1.761-.65c1.178-.114,1.623.318,1.534,1.5A12.275,12.275,0,0,1,67.932,9.2c-.4.95-.28,1.6.364,1.989s1.247.207,1.949-.585c.4-.455.83-.888,1.247-1.331,1.127-.926,2.278-1.82,3.467-2.665,1.2-.463,1.757-.061,1.559,1.179a9.825,9.825,0,0,1-1.49,3.606A33.342,33.342,0,0,1,64.376,22.3c-3.908,2.445-8.283,2.966-12.778,2.631A20.488,20.488,0,0,1,41.2,21.5a11.153,11.153,0,0,1-1.488-1.21,1.684,1.684,0,0,0-1.818-.5" transform="translate(-11.606 -1.209)" fill="#f3dc45"/>
        <path id="Trazado_161687" data-name="Trazado 161687" d="M38.854,33.741a3.645,3.645,0,0,0-.329,1.752c-.071,1.947-.029,3.9-.031,5.847a.534.534,0,0,0,.174.469c.053.164-.046.272-.134.388a3.4,3.4,0,0,0-.025,4.542.627.627,0,0,1,.2.466c-.064.092-.186.186-.184.278.022,2-.116,4,.085,6a20.1,20.1,0,0,0,.935,4.566c-2.728-.579-5.455-1.162-8.185-1.73a1,1,0,0,1-.764-.622,10.042,10.042,0,0,1-1.01-3.678c-.236-3.723-.23-7.451-.165-11.179.006-.329-.091-.678.437-.791,3.167-.678,5.007-2.869,6.339-5.629.3-.613.342-1.66.864-1.757.5-.094,1.16.638,1.748,1.009.023.014.033.047.049.072" transform="translate(-9.265 -10.297)" fill="#f0b885"/>
        <path id="Trazado_161688" data-name="Trazado 161688" d="M59.734,93.342c0,5.512-.021,11.024.022,16.536.006.84-.258,1.03-1.026.98-.958-.062-1.924-.031-2.886-.008-.409.01-.6-.116-.559-.544a4.959,4.959,0,0,0,0-.524c0-11.024.014-22.048-.025-33.072,0-.924.264-1.145,1.116-1.071a16.581,16.581,0,0,0,2.535,0c.65-.044.841.147.835.815-.032,3.937-.016,7.874-.016,11.811v5.074" transform="translate(-17.428 -23.85)" fill="#dc626d"/>
        <path id="Trazado_161689" data-name="Trazado 161689" d="M107.1,78.993c.492-.014.984-.059,1.474-.037a2.328,2.328,0,0,1,2.358,2.389c.033,1.043.027,2.089,0,3.134a2.363,2.363,0,0,1-2.37,2.482,3.852,3.852,0,0,1-1.636-.084,2.573,2.573,0,0,1-.832-1.781,13.117,13.117,0,0,1,.156-4.949,1.569,1.569,0,0,1,.847-1.155" transform="translate(-33.409 -24.899)" fill="#f0cfa4"/>
        <path id="Trazado_161690" data-name="Trazado 161690" d="M6.709,78.995c.465-.017.93-.06,1.394-.045a2.341,2.341,0,0,1,2.456,2.483c.016,1.05.023,2.1,0,3.149a2.241,2.241,0,0,1-2.048,2.3.621.621,0,0,1-.166.051c-2.092.12-2.577-.33-2.593-2.435-.008-1.191-.027-2.383.011-3.573a2.056,2.056,0,0,1,.95-1.934" transform="translate(-1.809 -24.897)" fill="#f0cfa4"/>
        <path id="Trazado_161691" data-name="Trazado 161691" d="M64.585,4.009c-.468-.066-.575.3-.725.609-.679,1.414-1.34,2.836-2.043,4.239a10.976,10.976,0,0,1-1.994,2.832,6.249,6.249,0,0,1-5.383,1.765c2.3-1.383,3.84-3.5,5.427-5.572A18.415,18.415,0,0,1,62.9,4.42c.474-.374.979-.874,1.685-.411" transform="translate(-17.169 -1.206)" fill="#ebc22e"/>
        <path id="Trazado_161692" data-name="Trazado 161692" d="M6.106,79.017a4.079,4.079,0,0,0-.713,2.795c.049.985.007,1.974.012,2.962.008,1.7.376,2.068,2.066,2.1.144,0,.289.021.433.033a4.546,4.546,0,0,1-1.984.04,2.3,2.3,0,0,1-2.067-2.324c-.037-1.1-.04-2.214,0-3.319a2.25,2.25,0,0,1,2.252-2.288" transform="translate(-1.206 -24.92)" fill="#efb885"/>
        <path id="Trazado_161693" data-name="Trazado 161693" d="M106.575,79.013a4.414,4.414,0,0,0-.861,2.774,18.718,18.718,0,0,0,.136,3.564c.113.558.507.984.555,1.547a2.185,2.185,0,0,1-2.087-2.142c-.047-1.189-.05-2.383,0-3.572a2.224,2.224,0,0,1,2.259-2.17" transform="translate(-32.887 -24.918)" fill="#f0b885"/>
        <path id="Trazado_161694" data-name="Trazado 161694" d="M90.592,50.066V44.344a2.726,2.726,0,0,1,1.881,2.389,3.121,3.121,0,0,1-1.881,3.333" transform="translate(-28.57 -13.985)" fill="#edb684"/>
        <path id="Trazado_161695" data-name="Trazado 161695" d="M24.651,44.285c0,1.9,0,3.777,0,5.657a2.814,2.814,0,0,1-1.9-2.605,3.025,3.025,0,0,1,1.9-3.052" transform="translate(-7.175 -13.966)" fill="#efb785"/>
        <path id="Trazado_161696" data-name="Trazado 161696" d="M77.121,4.81a37.875,37.875,0,0,0-1.99,4.144,1.843,1.843,0,0,1-2.05,1.131A10.187,10.187,0,0,1,77.121,4.81" transform="translate(-23.048 -1.517)" fill="#eac12e"/>
        <path id="Trazado_161697" data-name="Trazado 161697" d="M90.94,7.885a14.413,14.413,0,0,1-3.467,2.665A9.173,9.173,0,0,1,90.94,7.885" transform="translate(-27.586 -2.487)" fill="#e1bb2d"/>
        <path id="Trazado_161698" data-name="Trazado 161698" d="M91.86,81.381c-.018.741-.584,1.074-1.331,1.236q-4.054.877-8.109,1.758-2.646.571-5.3,1.132c-.256.055-.511.117-.77.154a1.305,1.305,0,0,1-1.591-1,1.273,1.273,0,0,1,1.069-1.537c1.7-.405,3.407-.767,5.114-1.139q4.437-.965,8.878-1.92c1.262-.272,2.039.185,2.035,1.316" transform="translate(-23.567 -25.226)"/>
        <path id="Trazado_161699" data-name="Trazado 161699" d="M90.526,87.06a1.219,1.219,0,0,1,1.307,1.047,1.2,1.2,0,0,1-.978,1.51c-1.786.416-3.578.8-5.37,1.194q-4.266.928-8.535,1.846c-.17.037-.342.077-.514.1-.914.114-1.512-.243-1.679-1A1.328,1.328,0,0,1,75.925,90.2c1.388-.327,2.786-.615,4.18-.918q4.821-1.047,9.644-2.091c.255-.055.517-.085.777-.127" transform="translate(-23.566 -27.456)"/>
        <path id="Trazado_161700" data-name="Trazado 161700" d="M55.484,64.572A6.031,6.031,0,0,1,50.226,61.4a1.343,1.343,0,0,1,.371-1.975c.69-.4,1.388-.159,1.9.657a3.377,3.377,0,0,0,6.03,0c.518-.817,1.217-1.06,1.9-.66A1.318,1.318,0,0,1,60.8,61.4a6.039,6.039,0,0,1-5.318,3.168" transform="translate(-15.756 -18.682)"/>
        <path id="Trazado_161701" data-name="Trazado 161701" d="M42.407,51.381a3.5,3.5,0,0,1-.038-5.4,1.612,1.612,0,0,1,2.131.958,3.739,3.739,0,0,1,.068,3.349,1.682,1.682,0,0,1-2.161,1.09" transform="translate(-12.966 -14.474)"/>
        <path id="Trazado_161702" data-name="Trazado 161702" d="M69.5,48.62a3.15,3.15,0,0,1,.721-2.185,1.418,1.418,0,0,1,2.322.018,3.808,3.808,0,0,1,.012,4.4,1.437,1.437,0,0,1-2.383-.025,3.222,3.222,0,0,1-.673-2.2" transform="translate(-21.918 -14.456)"/>
      </g>
    </g>
  </g>
</svg>
