<svg xmlns="http://www.w3.org/2000/svg" xmlns:xlink="http://www.w3.org/1999/xlink" width="254" height="157" viewBox="0 0 254 157">
  <defs>
    <clipPath id="clip-path">
      <rect id="Rect치ngulo_42681" data-name="Rect치ngulo 42681" width="153" height="152.947" fill="none"/>
    </clipPath>
  </defs>
  <g id="Grupo_169628" data-name="Grupo 169628" transform="translate(-359 -7465)">
    <rect id="Rect치ngulo_42533" data-name="Rect치ngulo 42533" width="254" height="157" rx="12" transform="translate(359 7465)" fill="#6b8dfc"/>
    <g id="Grupo_169635" data-name="Grupo 169635" transform="translate(410 7467)">
      <g id="Grupo_169635-2" data-name="Grupo 169635" transform="translate(0 0)" clip-path="url(#clip-path)">
        <path id="Trazado_161843" data-name="Trazado 161843" d="M4.119,113.014c-2.95-1.267-4.164-3.454-4.118-6.7.124-8.587.033-17.176.044-25.764a38.137,38.137,0,0,1,31.61-37.9,7.019,7.019,0,0,0,.813-.253c.743-.229,1.145.361,1.619.715,9.532,7.138,20.707,7.138,30.24,0,.474-.356.874-.944,1.617-.715a39.38,39.38,0,0,1,15.823,6.374c10.713,7.662,16.317,18.1,16.569,31.266.166,8.756-.048,17.519.075,26.276.045,3.25-1.149,5.447-4.119,6.7a1.431,1.431,0,0,1-1.2.519,41.482,41.482,0,0,1-6.894-.123c-.759-.281-.552-.726-.162-1.157a2.524,2.524,0,0,0-.062-3.9.989.989,0,0,1-.219-1.372,4.513,4.513,0,0,0,1.21-3.387c.078-2.292-.367-4.611.3-6.876,1.095-.88,2.4-.376,3.6-.533.411-.054,1.026.143,1.087-.5.048-.5-.437-.756-.843-.961a5.032,5.032,0,0,0-2-.32c-.718-.05-1.508.065-1.962-.725a7.256,7.256,0,0,1-.253-2.7q-.012-12.7-.009-25.4c0-3.28-.582-3.857-3.894-3.858q-33.759-.012-67.517,0a11.6,11.6,0,0,0-1.872.095,2.206,2.206,0,0,0-2,2,14.8,14.8,0,0,0-.087,2.211q0,12.447,0,24.893a8.1,8.1,0,0,1-.222,2.7c-.4.823-1.193.737-1.914.787a4.861,4.861,0,0,0-2.155.369c-.4.222-.863.5-.75,1.012.106.484.634.359,1.011.4,1.213.142,2.5-.322,3.633.477.728,2.264.241,4.591.33,6.887a4.513,4.513,0,0,0,1.2,3.4.81.81,0,0,1,.019,1.093c-1.456,1.457-1.591,2.908-.118,4.444.372.389.173.715-.291.9a38.622,38.622,0,0,1-6.928.145,1.434,1.434,0,0,1-1.2-.521" transform="translate(0 23.503)" fill="#009fc7"/>
        <path id="Trazado_161844" data-name="Trazado 161844" d="M85.624,87.953l8.652.022,14.083-.011a3.162,3.162,0,0,1,2.269-.493q16.4-.019,32.805,0a3.155,3.155,0,0,1,2.269.494q1.957.026,3.916.051c2.343.028,3.332.983,3.357,3.28.016,1.418.011,2.838,0,4.258-.016,2.157-.569,2.849-2.729,3.444-.9.686-1.959.495-2.965.5q-24.047.019-48.095.008-46.561,0-93.121-.011c-1.115,0-2.291.247-3.306-.493C.609,98.41.049,97.717.031,95.6c-.009-1.126,0-2.252,0-3.378,0-3.477.6-4.1,4.076-4.245l8.652-.022a3.221,3.221,0,0,1,2.277-.485q34.156-.019,68.312,0a3.225,3.225,0,0,1,2.278.485" transform="translate(0.014 48.543)" fill="#0a5078"/>
        <path id="Trazado_161845" data-name="Trazado 161845" d="M57.153,56.827a24.879,24.879,0,0,1-33.477,0,26.374,26.374,0,0,1-6.626-10.483A24.345,24.345,0,0,1,15.841,38.7a2.288,2.288,0,0,1,1.171-.658c2.619-.877,3.759-2.759,3.759-5.45,0-3.922-.02-7.845.011-11.767.026-3.4,1.1-4.463,4.539-4.469q15.094-.023,30.187,0c3.438.006,4.513,1.071,4.539,4.469.028,3.639.087,7.279-.016,10.913-.092,3.225.97,5.55,4.264,6.486a1.376,1.376,0,0,1,.692.476,23.984,23.984,0,0,1-6.842,16.98c-.35.362-.662.764-.992,1.146" transform="translate(8.791 9.072)" fill="#efc79f"/>
        <path id="Trazado_161846" data-name="Trazado 161846" d="M65.189,46.321a5.464,5.464,0,0,1-5.45-5.743c-.019-4.206,0-8.411-.008-12.618,0-2.535-.947-3.465-3.516-3.466q-15.6-.007-31.2,0c-2.574,0-3.51.927-3.514,3.466-.009,4.206.012,8.411-.008,12.618-.017,3.345-2.068,5.485-5.45,5.743l.016.017a2.8,2.8,0,0,1-.568-2.073q-.023-6.191,0-12.384a2.845,2.845,0,0,1,.488-1.931c.019-5.855.025-11.71.059-17.564A9.54,9.54,0,0,1,34.932,10.3c.756-.232.636-.986.843-1.5a9.551,9.551,0,0,1,8.811-6.147q5.542-.063,11.086,0a9.507,9.507,0,0,1,9.515,9.562c.054,5.911.045,11.823.064,17.735a3.1,3.1,0,0,1,.491,2.1q.023,6.023,0,12.045a3.017,3.017,0,0,1-.569,2.242Z" transform="translate(8.591 1.453)" fill="#0a5078"/>
        <path id="Trazado_161847" data-name="Trazado 161847" d="M66.771,24.487A24.58,24.58,0,1,1,91.3,49.16,24.587,24.587,0,0,1,66.771,24.487" transform="translate(37.061 -0.001)" fill="#0a5078"/>
        <path id="Trazado_161848" data-name="Trazado 161848" d="M149.211,96.812c.017.17.047.339.051.509.048,2.225.047,2.225-2.25,2.225H4.378c-2.684,0-2.684,0-2.539-2.734.754-.7,1.7-.546,2.6-.549q9.813-.026,19.628-.009,60.848,0,121.7.014c1.163,0,2.409-.311,3.451.544" transform="translate(0.993 53.402)" fill="#f9b300"/>
        <path id="Trazado_161849" data-name="Trazado 161849" d="M149.214,97.572H1.842q-.03-1.337-.058-2.672c.51-.02,1.02-.054,1.532-.054q72.212,0,144.424,0c.51,0,1.02.034,1.53.054q-.028,1.334-.056,2.672" transform="translate(0.99 52.642)" fill="#db9500"/>
        <path id="Trazado_161850" data-name="Trazado 161850" d="M73.789,79.4c-2.382-1.933-2.359-3.639.073-5.374.6-.7,1.438-.6,2.216-.6q13.774-.028,27.548,0a2.928,2.928,0,0,1,2.1.488c1.474.019,2.948.011,4.421.065a2.736,2.736,0,0,1,2.863,2.737,2.778,2.778,0,0,1-2.892,2.718c-.555.034-1.141-.132-1.65.233a3.932,3.932,0,0,1-2.158.311q-14.889.009-29.779-.006c-.938,0-1.952.208-2.742-.571" transform="translate(39.975 40.745)" fill="#009fc7"/>
        <path id="Trazado_161851" data-name="Trazado 161851" d="M74.83,69.124c-.509-.365-1.093-.2-1.648-.233a2.734,2.734,0,1,1-.047-5.461c.564-.031,1.131-.04,1.7-.061a3.2,3.2,0,0,1,2.273-.488q14.97-.019,29.943,0c.83,0,1.726-.137,2.385.6,2.434,1.735,2.457,3.441.075,5.374a2.72,2.72,0,0,1-2.232.571q-15.316.028-30.628.008a3.238,3.238,0,0,1-1.818-.313" transform="translate(39.012 34.896)" fill="#009fc7"/>
        <path id="Trazado_161852" data-name="Trazado 161852" d="M72.109,58.1c-1.3-.812-2.218-1.851-1.667-3.5.541-1.62,1.857-1.925,3.41-1.92,11.315.026,22.629.011,33.944.017,2.176,0,3.416.978,3.451,2.676.034,1.742-1.266,2.766-3.521,2.785-1.25.009-2.5.036-3.749.054a3.187,3.187,0,0,1-2.272.49q-13.606.019-27.21,0c-.83,0-1.726.137-2.385-.6" transform="translate(39.009 29.24)" fill="#c70a50"/>
        <path id="Trazado_161853" data-name="Trazado 161853" d="M107.683,89.914H70.34c-1.272-.823-2.2-1.849-1.659-3.49.532-1.608,1.826-1.989,3.379-1.933,1.241.045,2.487-.022,3.731-.039a3.151,3.151,0,0,1,2.27-.495q13.62-.021,27.237,0c.832,0,1.728-.135,2.392.594,2.452,1.781,2.451,3.583-.006,5.359" transform="translate(38.034 46.594)" fill="#c70a50"/>
        <path id="Trazado_161854" data-name="Trazado 161854" d="M105.75,86.5q-14.5-.026-29-.053c-.966,0-1.931-.033-2.9-.05q-3.678-2.706.012-5.356c.6-.694,1.438-.6,2.216-.6q15.138-.028,30.278,0a2.94,2.94,0,0,1,2.1.487c.676.023,1.358.006,2.029.079a2.731,2.731,0,0,1,2.524,2.707,2.689,2.689,0,0,1-2.521,2.7c-1.575.106-3.161.062-4.743.084" transform="translate(39.972 44.644)" fill="#f9b300"/>
        <path id="Trazado_161855" data-name="Trazado 161855" d="M107.664,75.858q-14.145.028-28.288.059c-1.193,0-2.384.036-3.577.054-1.47-.02-2.939-.011-4.409-.065a2.726,2.726,0,1,1,0-5.446c1.468-.053,2.939-.044,4.41-.062a3.172,3.172,0,0,1,2.27-.491q13.611-.021,27.223,0c.83,0,1.726-.135,2.39.594,2.454,1.79,2.446,3.611-.025,5.354" transform="translate(38.038 38.795)" fill="#c70a50"/>
        <path id="Trazado_161856" data-name="Trazado 161856" d="M108.472,65.434q-15.768-.028-31.535-.059c-1.023,0-2.045-.037-3.067-.056-2.471-1.757-2.473-3.591,0-5.348.6-.7,1.437-.6,2.214-.6q12.409-.028,24.82,0a2.935,2.935,0,0,1,2.1.485q3.221.03,6.446.058c2.28.016,3.552.978,3.566,2.71s-1.246,2.712-3.525,2.754c-.339.008-.676.037-1.015.056" transform="translate(39.973 32.946)" fill="#f9b300"/>
        <path id="Trazado_161857" data-name="Trazado 161857" d="M105.911,61.628q-12.61.028-25.218.059c-1.306,0-2.611.037-3.917.056-2.264-.019-4.528-.03-6.791-.061-1.976-.026-3.21-1.085-3.211-2.728s1.233-2.7,3.207-2.731c1.358-.023,2.717-.039,4.074-.058q13.636.028,27.269.059c1.533,0,3.065.036,4.6.054,2.463,1.765,2.46,3.6-.011,5.348" transform="translate(37.062 31.175)" fill="#009fc7"/>
        <path id="Trazado_161858" data-name="Trazado 161858" d="M109.42,82.7q-14.658.028-29.316.059c-1.76,0-3.521.036-5.281.054-.566-.019-1.135-.026-1.7-.059a2.728,2.728,0,1,1-.075-5.454c.566-.037,1.137-.026,1.7-.037q16.253.016,32.505.033a5.167,5.167,0,0,1,2.177.235c2.469,1.339,2.465,3.43-.014,5.169" transform="translate(39.012 42.882)" fill="#0a5078"/>
        <path id="Trazado_161859" data-name="Trazado 161859" d="M105.753,72.266q-14.492-.026-28.986-.054c-.966,0-1.931-.033-2.9-.051-2.471-1.763-2.473-3.838,0-5.174a5.2,5.2,0,0,1,2.179-.235l32.5-.031c.624.012,1.252-.012,1.872.045a2.751,2.751,0,0,1,2.594,2.665,2.707,2.707,0,0,1-2.662,2.763c-1.53.082-3.065.053-4.6.072" transform="translate(39.972 37.033)" fill="#0a5078"/>
        <path id="Trazado_161860" data-name="Trazado 161860" d="M47.435,36.581q.04-8.192.079-16.387a8.194,8.194,0,0,1-.079,16.387" transform="translate(26.329 11.208)" fill="#efc79f"/>
        <path id="Trazado_161861" data-name="Trazado 161861" d="M18.7,20.193q.037,8.194.076,16.389A8.194,8.194,0,0,1,18.7,20.193" transform="translate(5.866 11.207)" fill="#efc79f"/>
        <path id="Trazado_161862" data-name="Trazado 161862" d="M59.312,23.713a2.728,2.728,0,1,1-.106,5.455c-.981-.034-3.631-2.093-3.575-2.78.058-.726,2.749-2.681,3.681-2.675" transform="translate(30.878 13.161)" fill="#03a0c8"/>
        <path id="Trazado_161863" data-name="Trazado 161863" d="M6.222,23.713c.933-.017,3.626,1.9,3.718,2.64.084.67-2.56,2.766-3.547,2.815a2.729,2.729,0,1,1-.171-5.455" transform="translate(1.967 13.161)" fill="#03a0c8"/>
        <path id="Trazado_161864" data-name="Trazado 161864" d="M52.742,32.414c-.218-1.1.031-1.787,1.616-1.7,2.538.137,3.889,1.008,3.843,2.833a2.772,2.772,0,0,1-2.777,2.664c-1.731-.034-2.675-1.311-2.681-3.8" transform="translate(29.237 17.042)" fill="#03a0c8"/>
        <path id="Trazado_161865" data-name="Trazado 161865" d="M12.515,32.339c0,2.586-1,3.908-2.791,3.869a2.771,2.771,0,0,1-2.667-2.774c.031-1.734,1.3-2.6,3.609-2.712,1.4-.065,2.245.159,1.849,1.617" transform="translate(3.917 17.046)" fill="#03a0c8"/>
        <path id="Trazado_161866" data-name="Trazado 161866" d="M54.4,22.147c-1.093.213-1.788-.025-1.7-1.614.137-2.555.992-3.888,2.83-3.846a2.769,2.769,0,0,1,2.667,2.774c-.033,1.734-1.306,2.679-3.794,2.686" transform="translate(29.245 9.261)" fill="#03a0c8"/>
        <path id="Trazado_161867" data-name="Trazado 161867" d="M10.687,22.18a7.8,7.8,0,0,1-1.575-.142,2.588,2.588,0,0,1-2.039-2.78,2.55,2.55,0,0,1,2.339-2.53,2.552,2.552,0,0,1,2.927,1.818,6.05,6.05,0,0,1,.121,3.039c-.173,1.148-1.236.267-1.773.6" transform="translate(3.922 9.264)" fill="#03a0c8"/>
        <path id="Trazado_161868" data-name="Trazado 161868" d="M8.915,100.562c-1.348-.467-1.681-1.533-1.687-2.813-.011-2.6-.036-5.2-.054-7.8a2.34,2.34,0,0,1,0-2.724Q7.2,72.816,7.229,58.41c.006-3.168.778-3.962,3.877-3.962q34.361,0,68.721,0c3.1,0,3.872.795,3.878,3.962q.026,14.406.056,28.815a2.34,2.34,0,0,1,0,2.724c-.019,2.6-.044,5.2-.054,7.8-.006,1.278-.341,2.345-1.687,2.813-.868.98-2.043.863-3.169.865q-10.56.021-21.121.006-22.652,0-45.3-.008c-1.227,0-2.535.211-3.51-.863" transform="translate(3.739 30.22)" fill="#efefef"/>
        <path id="Trazado_161869" data-name="Trazado 161869" d="M8.746,84.1a10.012,10.012,0,0,0,2.854.322q33.7-.014,67.4,0a9.956,9.956,0,0,0,2.854-.322.619.619,0,0,0,.166.6c2.14,1.972,2.053,3.441-.285,5.115-.569.022-1.137.061-1.706.061q-34.73,0-69.458,0c-.569,0-1.137-.039-1.7-.061C6.526,88.144,6.439,86.666,8.58,84.7a.619.619,0,0,0,.166-.6" transform="translate(3.907 46.68)" fill="#d1d1d1"/>
        <path id="Trazado_161870" data-name="Trazado 161870" d="M8.925,75.526v2.724c-1.418,0-2.838-.025-4.256.011-1.356.033-1.249-.636-.739-1.479A2.532,2.532,0,0,1,6.2,75.526c.907-.008,1.815,0,2.723,0" transform="translate(1.987 41.918)" fill="#0082aa"/>
        <path id="Trazado_161871" data-name="Trazado 161871" d="M56.268,78.25V75.526c.908,0,1.816,0,2.723,0a2.526,2.526,0,0,1,2.177,1.118c.249.356.586.765.386,1.242-.229.552-.778.353-1.2.359-1.361.023-2.723.008-4.085.006" transform="translate(31.232 41.919)" fill="#0082aa"/>
        <path id="Trazado_161872" data-name="Trazado 161872" d="M44.587,36.939a1.3,1.3,0,0,1-2.115,1c-1.588-1.145-2.846-.824-4.27.333a5.008,5.008,0,0,1-6.447-.106c-1.323-1.073-2.552-1.382-3.975-.292a1.278,1.278,0,0,1-1.958-.166c-.622-.785-.278-1.47.387-2.076a5.4,5.4,0,0,1,6.62-.117c2.022,1.5,2.418,1.5,4.452-.006a5.4,5.4,0,0,1,6.352-.079,1.834,1.834,0,0,1,.953,1.515" transform="translate(14.152 19.109)" fill="#0b5078"/>
        <path id="Trazado_161873" data-name="Trazado 161873" d="M30.766,28.265c0-.964.008-1.928,0-2.891-.009-.922.373-1.6,1.326-1.637s1.4.624,1.4,1.552c.006,2.155.009,4.309,0,6.463a1.3,1.3,0,0,1-1.316,1.468c-.956.014-1.4-.617-1.406-1.553,0-1.134,0-2.267,0-3.4" transform="translate(17.075 13.174)" fill="#0b5078"/>
        <path id="Trazado_161874" data-name="Trazado 161874" d="M39.7,23.713a2.728,2.728,0,1,1-2.79,2.619,2.764,2.764,0,0,1,2.79-2.619" transform="translate(20.488 13.161)" fill="#0c5178"/>
        <path id="Trazado_161875" data-name="Trazado 161875" d="M28.317,26.442a2.728,2.728,0,1,1-2.682-2.729,2.767,2.767,0,0,1,2.682,2.729" transform="translate(12.69 13.161)" fill="#0c5178"/>
        <path id="Trazado_161876" data-name="Trazado 161876" d="M42.636,24.219c-1.986-.675-3.973-1.314-5.929-2.037a1.216,1.216,0,0,1-.787-1.653,1.331,1.331,0,0,1,1.782-.855c1.875.619,3.749,1.238,5.611,1.9a1.277,1.277,0,0,1,.938,1.72,1.387,1.387,0,0,1-1.614.93" transform="translate(19.882 10.868)" fill="#0d5178"/>
        <path id="Trazado_161877" data-name="Trazado 161877" d="M28.647,19.568c.858.062,1.384.378,1.585,1.037a1.2,1.2,0,0,1-.737,1.535q-3.011,1.115-6.085,2.06a1.256,1.256,0,0,1-1.505-.823,1.109,1.109,0,0,1,.53-1.591c2.1-.821,4.238-1.524,6.212-2.219" transform="translate(12.08 10.86)" fill="#0d5178"/>
        <path id="Trazado_161878" data-name="Trazado 161878" d="M108.162,24.537c-.513,7.295-7.152,14.394-14.915,15.952a19.2,19.2,0,0,1-22.562-14.6,10.521,10.521,0,0,1-.138-1.351c-1.151-7.124,3.2-13.59,8.83-16.86a17.474,17.474,0,0,1,7.007-2.5,2.379,2.379,0,0,1,1.655.09c.482.572.347,1.28.42,1.945s.012,1.541.945,1.518c.793-.02.787-.83.849-1.446a3.639,3.639,0,0,1,.379-1.967,7,7,0,0,1,4.636.505c6.317,2.249,10.825,6.337,12.653,12.982a14.143,14.143,0,0,1,.241,5.724" transform="translate(39.054 2.819)" fill="#efefef"/>
        <path id="Trazado_161879" data-name="Trazado 161879" d="M108.221,25.439c.812-9.421-7.2-18.368-17.382-19.154a1.766,1.766,0,0,0-2.847,0,19.062,19.062,0,0,0-11.576,5.066C73,14.588,70.758,18.525,70.634,23.407c-.017.678-.019,1.358-.028,2.037a17.411,17.411,0,0,1,3.042-13.68,19.167,19.167,0,0,1,34.816,8.624,10.743,10.743,0,0,1-.243,5.051" transform="translate(38.996 1.917)" fill="#d1d1d1"/>
        <path id="Trazado_161880" data-name="Trazado 161880" d="M34.481,80.493A8.193,8.193,0,1,1,42.76,72.35a8.329,8.329,0,0,1-8.279,8.142" transform="translate(14.638 35.582)" fill="#d1d1d1"/>
        <path id="Trazado_161881" data-name="Trazado 161881" d="M83.138,16.515q3.053-3.1,6.1-6.2c.638-.652,1.359-.952,2.092-.281.806.74.54,1.518-.168,2.213q-3.1,3.051-6.194,6.107a3.388,3.388,0,0,1-1.832-1.84" transform="translate(46.146 5.359)" fill="#c70c51"/>
        <path id="Trazado_161882" data-name="Trazado 161882" d="M84.427,14.069a5.068,5.068,0,0,1,1.832,1.84c.141,1.46-.188,2.684-1.653,3.353a2.523,2.523,0,0,1-2.826-.445,3.1,3.1,0,0,1-.936-2.917,1.663,1.663,0,0,1,1.838-1.837l1.745.006" transform="translate(44.857 7.805)" fill="#0c5078"/>
        <path id="Trazado_161883" data-name="Trazado 161883" d="M84.144,15.535a5.162,5.162,0,0,0-1.838,1.837q-1.761-1.719-3.524-3.441c-.664-.648-.86-1.386-.165-2.082s1.438-.5,2.084.163q1.724,1.759,3.443,3.524" transform="translate(43.395 6.333)" fill="#c70c51"/>
        <path id="Trazado_161884" data-name="Trazado 161884" d="M74.68,16.785c-1-.089-2.628.4-2.592-1.4.037-1.759,1.658-1.255,2.773-1.334.281-.02.566.006.849,0,.984-.031,1.743.341,1.723,1.4s-.823,1.376-1.787,1.336c-.283-.011-.566,0-.966,0" transform="translate(40.012 7.795)" fill="#02a0c8"/>
        <path id="Trazado_161885" data-name="Trazado 161885" d="M81.725,24.476a8.008,8.008,0,0,1,.014-1.353,1.279,1.279,0,0,1,1.272-1.151,1.254,1.254,0,0,1,1.381,1.21c.086.838.026,1.7.04,2.543.016.917-.355,1.619-1.312,1.641-1.057.025-1.446-.711-1.423-1.7.009-.4,0-.792,0-1.19h.026" transform="translate(45.346 12.194)" fill="#02a0c8"/>
        <path id="Trazado_161886" data-name="Trazado 161886" d="M81.661,5.758c.191-.751.577-1.348,1.424-1.35s1.23.6,1.423,1.35c-.02.905-.017,1.81-.07,2.712a1.352,1.352,0,0,1-2.7,0c-.067-.9-.053-1.807-.073-2.712" transform="translate(45.326 2.446)" fill="#02a0c7"/>
        <path id="Trazado_161887" data-name="Trazado 161887" d="M92.377,14.052c1.006.084,2.633-.393,2.6,1.4-.036,1.77-1.661,1.246-2.773,1.331-.28.022-.564,0-.848,0-.98.025-1.751-.333-1.725-1.4s.823-1.379,1.79-1.337c.281.012.564,0,.958,0" transform="translate(49.748 7.796)" fill="#02a0c8"/>
      </g>
    </g>
  </g>
</svg>
