<svg xmlns="http://www.w3.org/2000/svg" xmlns:xlink="http://www.w3.org/1999/xlink" width="191.316" height="191.965" viewBox="0 0 191.316 191.965">
  <defs>
    <clipPath id="clip-path">
      <rect id="Rectángulo_38700" data-name="Rectángulo 38700" width="153.921" height="160.921" fill="none"/>
    </clipPath>
    <clipPath id="clip-path-3">
      <path id="Trazado_142656" data-name="Trazado 142656" d="M233.348,71a4.007,4.007,0,0,0,4.226,3.776,4.474,4.474,0,0,0,4.512-3.876Z" transform="translate(-233.348 -70.896)" fill="none"/>
    </clipPath>
    <clipPath id="clip-path-5">
      <rect id="Rectángulo_38697" data-name="Rectángulo 38697" width="12.094" height="12.359" fill="none"/>
    </clipPath>
    <clipPath id="clip-path-6">
      <rect id="Rectángulo_38698" data-name="Rectángulo 38698" width="10.365" height="11.869" fill="none"/>
    </clipPath>
  </defs>
  <g id="Grupo_169381" data-name="Grupo 169381" transform="translate(-180 -364.125)">
    <rect id="Rectángulo_42552" data-name="Rectángulo 42552" width="191.316" height="191.965" rx="14" transform="translate(180 364.125)" fill="#8284d2"/>
    <g id="Grupo_169380" data-name="Grupo 169380" transform="translate(192.971 382.295)">
      <path id="Trazado_141266" data-name="Trazado 141266" d="M158.7,41.471C157.49,20.969,143.156,1.394,123.744.179c-22.3-1.874-42.762,11.541-64.971,11.683C47.447,12.928,36.826,8.17,25.79,6.634.862,5.63-2.935,37.77,1.714,58.486,21.319,156.151,160.055,142.863,158.7,41.471Z" transform="translate(139.488 0) rotate(90)" fill="#acade1"/>
      <path id="Trazado_114646" data-name="Trazado 114646" d="M71.028,95.265c1.1-19.35,14.188-37.826,31.909-38.972,20.355-1.769,39.038,10.893,59.313,11.027,10.339,1.005,20.035-3.485,30.11-4.935,22.756-.947,26.224,29.386,21.979,48.939C196.441,203.5,69.788,190.959,71.028,95.265Z" transform="translate(-49.376 -15.446)" fill="#8284d2"/>
      <g id="Grupo_161758" data-name="Grupo 161758" transform="translate(0 5.97)">
        <g id="Grupo_161770" data-name="Grupo 161770" clip-path="url(#clip-path)">
          <path id="Trazado_142640" data-name="Trazado 142640" d="M259.032,180.075l-6.894,24.613,3.949,33.523L244.647,235.9,237.866,204.6l1.952-26.747Z" transform="translate(-107.383 -80.292)" fill="#ffb98a"/>
          <g id="Grupo_161759" data-name="Grupo 161759">
            <g id="Grupo_161758-2" data-name="Grupo 161758" clip-path="url(#clip-path)">
              <path id="Trazado_142641" data-name="Trazado 142641" d="M245.961,123.829s14.916,6.847,17.054,37.853L241.658,165.9Z" transform="translate(-109.095 -55.902)" fill="#a8527e"/>
              <path id="Trazado_142642" data-name="Trazado 142642" d="M174.819,45.057s1.293,7.939-.8,10.03c-3.986,3.988-16.229,5.844-9.77,22.9h56.329s2.788-6.792-3.5-10.74c0,0-2.19-1.529-.847-6.135s-2-7.879-6.113-12.8l-8.08-13.131Z" transform="translate(-73.317 -15.884)" fill="#f46eab"/>
              <path id="Trazado_142643" data-name="Trazado 142643" d="M184.886,35.93c0,10.142,8.615,18.365,19.242,18.365s19.242-8.222,19.242-18.365-8.615-18.365-19.242-18.365-19.242,8.222-19.242,18.365" transform="translate(-83.466 -7.93)" fill="#f46eab"/>
              <path id="Trazado_142644" data-name="Trazado 142644" d="M242.582,60.952a4.979,4.979,0,1,0,3.321-6.21,4.979,4.979,0,0,0-3.321,6.21" transform="translate(-109.415 -24.616)" fill="#f29b5f"/>
              <path id="Trazado_142645" data-name="Trazado 142645" d="M218.608,75.376l-.48,22.079-15.994-.894L205.4,64.066Z" transform="translate(-91.252 -28.922)" fill="#ffaf78"/>
              <path id="Trazado_142646" data-name="Trazado 142646" d="M225.689,89.709s-7.133-.735-7.441-8.856l7.57,4.006Z" transform="translate(-98.527 -36.501)" fill="#2f1a2a"/>
              <path id="Trazado_142647" data-name="Trazado 142647" d="M228.164,27.839A7.279,7.279,0,0,1,230.541,32c.953,4.764,2.823,13.157,1.137,18.214-2.193,6.576-7.533,11.239-16.162,9.6,0,0-10.342-1.044-12.469-14.142-3.388-20.869,14.36-26.919,25.116-17.829" transform="translate(-91.473 -10.716)" fill="#ffaf78"/>
              <path id="Trazado_142648" data-name="Trazado 142648" d="M250.167,56.056a1.139,1.139,0,1,0,.812-1.392,1.14,1.14,0,0,0-.812,1.392" transform="translate(-112.919 -24.661)" fill="#2f1a2a"/>
              <path id="Trazado_142649" data-name="Trazado 142649" d="M232.614,56.408a1.139,1.139,0,1,0,.812-1.392,1.14,1.14,0,0,0-.812,1.392" transform="translate(-104.995 -24.82)" fill="#2f1a2a"/>
              <path id="Trazado_142650" data-name="Trazado 142650" d="M245.511,62.219l.795,2.165a.521.521,0,0,1-.373.614l-1.229.227" transform="translate(-110.47 -28.088)" fill="none" stroke="#2f1a2a" stroke-linecap="round" stroke-linejoin="round" stroke-width="0.893"/>
              <path id="Trazado_142651" data-name="Trazado 142651" d="M227.783,40.818s3.533-.625,3.721,1c0,0,.1,1.1-2.989,1.58s-4.324.4-4.7-.613,2.3-1.817,3.972-1.967" transform="translate(-101.021 -18.373)" fill="#2f1a2a"/>
              <path id="Trazado_142652" data-name="Trazado 142652" d="M251.657,40.9s-3.077-.671-3.519.884c0,0-.278,1.063,2.427,1.576,1.97.373,2.7.034,2.9-.679.238-.845-.648-1.625-1.812-1.781" transform="translate(-112.017 -18.399)" fill="#2f1a2a"/>
              <path id="Trazado_142653" data-name="Trazado 142653" d="M242.087,70.9l-8.739.1a4.008,4.008,0,0,0,4.227,3.776,4.475,4.475,0,0,0,4.512-3.876" transform="translate(-105.343 -32.006)" fill="#221914"/>
            </g>
          </g>
          <g id="Grupo_161761" data-name="Grupo 161761" transform="translate(128.005 38.89)">
            <g id="Grupo_161760" data-name="Grupo 161760" clip-path="url(#clip-path-3)">
              <path id="Trazado_142654" data-name="Trazado 142654" d="M232.532,78.794a3.079,3.079,0,1,0,1.513-4.082,3.079,3.079,0,0,0-1.513,4.082" transform="translate(-232.853 -72.491)" fill="#e275c2"/>
              <path id="Trazado_142655" data-name="Trazado 142655" d="M242.191,71.35l-9.919-.015V69.658l9.919-.364Z" transform="translate(-232.862 -70.173)" fill="#fff"/>
            </g>
          </g>
          <g id="Grupo_161769" data-name="Grupo 161769">
            <g id="Grupo_161768" data-name="Grupo 161768" clip-path="url(#clip-path)">
              <g id="Grupo_161764" data-name="Grupo 161764" transform="translate(120.773 24.844)" opacity="0.11">
                <g id="Grupo_161763" data-name="Grupo 161763">
                  <g id="Grupo_161762" data-name="Grupo 161762" clip-path="url(#clip-path-5)">
                    <path id="Trazado_142657" data-name="Trazado 142657" d="M232.259,51.538a6.049,6.049,0,1,1-5.976-6.249,6.115,6.115,0,0,1,5.976,6.249" transform="translate(-220.165 -45.289)" fill="#fff"/>
                  </g>
                </g>
              </g>
              <g id="Grupo_161767" data-name="Grupo 161767" transform="translate(136.021 25.209)" opacity="0.11">
                <g id="Grupo_161766" data-name="Grupo 161766">
                  <g id="Grupo_161765" data-name="Grupo 161765" clip-path="url(#clip-path-6)">
                    <path id="Trazado_142658" data-name="Trazado 142658" d="M258.326,51.949c-.038,3.277-2.388,5.907-5.25,5.874s-5.151-2.716-5.114-5.994,2.388-5.907,5.25-5.874,5.151,2.716,5.114,5.994" transform="translate(-247.961 -45.955)" fill="#fff"/>
                  </g>
                </g>
              </g>
              <path id="Trazado_142659" data-name="Trazado 142659" d="M232.259,51.538a6.049,6.049,0,1,1-5.976-6.249A6.115,6.115,0,0,1,232.259,51.538Z" transform="translate(-99.392 -20.446)" fill="none" stroke="#fff" stroke-linecap="round" stroke-linejoin="round" stroke-width="1.261"/>
              <path id="Trazado_142660" data-name="Trazado 142660" d="M258.326,51.949c-.038,3.277-2.388,5.907-5.25,5.874s-5.151-2.716-5.114-5.994,2.388-5.907,5.25-5.874S258.363,48.672,258.326,51.949Z" transform="translate(-111.94 -20.746)" fill="none" stroke="#fff" stroke-linecap="round" stroke-linejoin="round" stroke-width="1.261"/>
              <path id="Trazado_142661" data-name="Trazado 142661" d="M242.212,56.12a2.171,2.171,0,0,1,3.154-.009" transform="translate(-109.345 -25.027)" fill="none" stroke="#fff" stroke-linecap="round" stroke-linejoin="round" stroke-width="1.261"/>
              <line id="Línea_359" data-name="Línea 359" x1="5.404" y2="2.055" transform="translate(115.369 30.953)" fill="none" stroke="#fff" stroke-linecap="round" stroke-linejoin="round" stroke-width="1.261"/>
              <path id="Trazado_142662" data-name="Trazado 142662" d="M203.557,42.336c.822.344,15.891-8.724,8.245-18.593,0,0-11.463,2.691-10.8,18.586Z" transform="translate(-90.728 -10.719)" fill="#f46eab"/>
              <path id="Trazado_142663" data-name="Trazado 142663" d="M218.007,24.582s10.143-2.474,16.046,2.582c0,0-2.86-9.132-16.809-9.6l-5.25,11.678Z" transform="translate(-95.703 -7.93)" fill="#f46eab"/>
              <path id="Trazado_142664" data-name="Trazado 142664" d="M179.09,11.2a7.73,7.73,0,1,0,7.73-7.73,7.73,7.73,0,0,0-7.73,7.73" transform="translate(-80.849 -1.568)" fill="#f46eab"/>
              <path id="Trazado_142665" data-name="Trazado 142665" d="M207.679,48.179l-.985,10.42L203.1,49.06Z" transform="translate(-91.688 -21.75)" fill="#f46eab"/>
              <path id="Trazado_142666" data-name="Trazado 142666" d="M189.672,62.659a6.042,6.042,0,1,0,4.03-7.536,6.042,6.042,0,0,0-4.03,7.536" transform="translate(-85.508 -24.767)" fill="#ffaf78"/>
              <path id="Trazado_142667" data-name="Trazado 142667" d="M195.461,62.539a4.427,4.427,0,0,1,5.608,3.6" transform="translate(-88.24 -28.165)" fill="none" stroke="#2f1a2a" stroke-linecap="round" stroke-linejoin="round" stroke-width="0.893"/>
              <path id="Trazado_142668" data-name="Trazado 142668" d="M168.773,118.732S153,122.16,146.96,136.85s-1.846,65.172-1.846,65.172,30,14.113,56.189-1.79l5.059-75.917s-5.856-4.208-10.63-6.913Z" transform="translate(-64.871 -53)" fill="#a8527e"/>
              <path id="Trazado_142669" data-name="Trazado 142669" d="M201.5,111.277a62.949,62.949,0,0,0-12.088,4.69,157.044,157.044,0,0,1,20.53,19.626s7.05-7.243,6.428-20.957l-8.954-3.359Z" transform="translate(-85.508 -50.235)" fill="#ffaf78"/>
              <line id="Línea_360" data-name="Línea 360" x1="2.176" y2="32.651" transform="translate(138.128 89.13)" fill="none" stroke="#873964" stroke-linecap="round" stroke-linejoin="round" stroke-width="1.7"/>
              <path id="Trazado_142670" data-name="Trazado 142670" d="M154.519,176.919v32.572L169.8,236.255l-15.013-1.772-18.2-17.581,1.955-38.347Z" transform="translate(-61.659 -79.869)" fill="#fc9753"/>
              <path id="Trazado_142671" data-name="Trazado 142671" d="M145.735,118.639s11.849,6.916,13.749,24.019v24.319l-19.338-.662Z" transform="translate(-63.268 -53.559)" fill="#fff"/>
              <path id="Trazado_142672" data-name="Trazado 142672" d="M81.955,108.522s9.706,1.852,14.58,5.55l1.441,87.341c-31.173,18.8-66.815.549-66.815.549l9.668-87.438s1.262-4.928,14.809-5.984Z" transform="translate(-14.067 -48.992)" fill="#fff"/>
              <path id="Trazado_142673" data-name="Trazado 142673" d="M75.782,107.646a77.015,77.015,0,0,1,26.316-.017s1.437,9-10.718,9.377c-13.165.411-15.6-9.36-15.6-9.36" transform="translate(-34.211 -48.098)" fill="#fc9753"/>
              <line id="Línea_361" data-name="Línea 361" y1="30.635" x2="0.115" transform="translate(83.245 82.782)" fill="none" stroke="#dbdbdb" stroke-linecap="round" stroke-linejoin="round" stroke-width="1.748"/>
              <path id="Trazado_142674" data-name="Trazado 142674" d="M103.209,186.344a13.267,13.267,0,0,1,9.868-7.839l5.421-5.324a2.365,2.365,0,0,1,3.577,3.069l-2.67,3.708,1.464-.631a11.238,11.238,0,0,0,5.446-4.986L129.737,168a2.247,2.247,0,0,1,4.074,1.876l-3.426,8.879a12.8,12.8,0,0,1-7.538,7.412l-17.316,7.7Z" transform="translate(-46.593 -75.31)" fill="#fc9753"/>
              <path id="Trazado_142675" data-name="Trazado 142675" d="M59.451,202.41,11.3,220.835c-4.165,1.8-6.182,8.889-4.32,13.028a8.134,8.134,0,0,0,11.971,3.405l42.825-27.331Z" transform="translate(-2.835 -91.377)" fill="#fc9753"/>
              <path id="Trazado_142676" data-name="Trazado 142676" d="M6.39,217.567l5.036-38.92,23.355-1.727L26.6,211.6Z" transform="translate(-2.885 -79.869)" fill="#fc9753"/>
              <path id="Trazado_142677" data-name="Trazado 142677" d="M32.631,111.611S3.444,116.42,0,163.8H35.892l2.361-30.662Z" transform="translate(0 -50.386)" fill="#fff"/>
              <path id="Trazado_142678" data-name="Trazado 142678" d="M51.106,186.621h6.76l4.2-24.466" transform="translate(-23.072 -73.204)" fill="none" stroke="#dbdbdb" stroke-linecap="round" stroke-linejoin="round" stroke-width="1.748"/>
              <path id="Trazado_142679" data-name="Trazado 142679" d="M79.506,63.841s-4.709,7.612,2.206,7.384a7.618,7.618,0,0,0,2.235-6.842Z" transform="translate(-35.186 -28.821)" fill="#793625"/>
              <path id="Trazado_142680" data-name="Trazado 142680" d="M128.535,13.8A12.13,12.13,0,0,0,127.1,9.268c-9.956-18.4-31.608-3.715-31.608-3.715l3.792,12.9c9.026-5.46,19.766-7.69,29.254-4.646" transform="translate(-43.108 0)" fill="#793625"/>
              <path id="Trazado_142681" data-name="Trazado 142681" d="M102.4,27.932l4.231,16.73s26.476-7.6,25.023-21.377c-9.488-3.043-18.882-4.338-29.254,4.646" transform="translate(-46.228 -9.484)" fill="#6b2a1d"/>
              <path id="Trazado_142682" data-name="Trazado 142682" d="M125.238,54.949a5.428,5.428,0,1,0,3.883-6.622,5.428,5.428,0,0,0-3.883,6.622" transform="translate(-56.458 -21.737)" fill="#e8803a"/>
              <path id="Trazado_142683" data-name="Trazado 142683" d="M101.779,69.945l1,16.127a7.482,7.482,0,0,1-12.9,4.669L83.4,83.885l1.928-28.141Z" transform="translate(-37.648 -25.165)" fill="#fc9753"/>
              <path id="Trazado_142684" data-name="Trazado 142684" d="M108.477,87.008s-10.553-.453-11.339-11.092l10.845,3.136Z" transform="translate(-43.852 -34.272)" fill="#2f1a2a"/>
              <path id="Trazado_142685" data-name="Trazado 142685" d="M112.147,13.432s3.459,22.014.754,28.946-8.715,11.176-18.02,9.118c0,0-10.853-.842-12.82-16.6C79.1,11.173,101.434.533,112.147,13.432" transform="translate(-36.925 -3.563)" fill="#fc9753"/>
              <path id="Trazado_142686" data-name="Trazado 142686" d="M133.809,49.848a1.242,1.242,0,1,0,.944-1.481,1.241,1.241,0,0,0-.944,1.481" transform="translate(-60.394 -21.821)" fill="#171717"/>
              <path id="Trazado_142687" data-name="Trazado 142687" d="M114.673,49.482A1.242,1.242,0,1,0,115.617,48a1.241,1.241,0,0,0-.944,1.481" transform="translate(-51.755 -21.656)" fill="#171717"/>
              <path id="Trazado_142688" data-name="Trazado 142688" d="M129.017,52.744l1.194,4.245-2.009,1" transform="translate(-57.876 -23.811)" fill="none" stroke="#2f1a2a" stroke-linecap="round" stroke-linejoin="round" stroke-width="0.983"/>
              <path id="Trazado_142689" data-name="Trazado 142689" d="M109.634,34.4s3.859-.934,4.134,1.153c0,0,.157,1.417-3.219,2.146s-4.738.671-5.2-.619,2.454-2.426,4.285-2.68" transform="translate(-47.537 -15.434)" fill="#221914"/>
              <path id="Trazado_142690" data-name="Trazado 142690" d="M136.237,33.893s-3.593-.89-3.981,1.155c0,0-.237,1.4,2.916,2.08,2.3.5,3.114.051,3.289-.886.207-1.111-.872-2.139-2.223-2.348" transform="translate(-59.704 -15.214)" fill="#221914"/>
              <path id="Trazado_142691" data-name="Trazado 142691" d="M117.319,65.624l7.2.53s-.071,2.814-3.742,2.566-3.459-3.1-3.459-3.1" transform="translate(-52.962 -29.626)" fill="#fff"/>
              <path id="Trazado_142692" data-name="Trazado 142692" d="M82.085,33.42l1.059-8.013s6.347-2.019,7.864-14.012c0,0-2.664-5.517-10.8-2.993s-15.2,8.408-6.278,23.18Z" transform="translate(-31.503 -3.494)" fill="#793625"/>
              <path id="Trazado_142693" data-name="Trazado 142693" d="M68.792,53.823A6.587,6.587,0,1,0,73.5,45.786a6.588,6.588,0,0,0-4.712,8.036" transform="translate(-30.959 -20.573)" fill="#fc9753"/>
              <path id="Trazado_142694" data-name="Trazado 142694" d="M75.314,53.771a4.825,4.825,0,0,1,5.955,4.164" transform="translate(-34 -24.223)" fill="none" stroke="#2f1a2a" stroke-linecap="round" stroke-linejoin="round" stroke-width="0.983"/>
              <path id="Trazado_142695" data-name="Trazado 142695" d="M103.328,10.458a25.039,25.039,0,0,1,16.026,3.788l-1.684-7.121L107.131,5.665,97.075,9.451l2.481.234Z" transform="translate(-43.824 -2.557)" fill="#793625"/>
              <path id="Trazado_142696" data-name="Trazado 142696" d="M136.906,19.323s12.136.03,12.186,8.873a.153.153,0,0,0,.3.027c.569-3.285-.042-12.275-13.437-11.226Z" transform="translate(-61.377 -7.635)" fill="#793625"/>
            </g>
          </g>
        </g>
      </g>
    </g>
  </g>
</svg>
