<svg xmlns="http://www.w3.org/2000/svg" xmlns:xlink="http://www.w3.org/1999/xlink" width="400" height="478" viewBox="0 0 400 478">
  <defs>
    <clipPath id="clip-path">
      <rect id="Rectángulo_42686" data-name="Rectángulo 42686" width="400" height="478" rx="11" transform="translate(1020 953)" fill="#a6bbff"/>
    </clipPath>
    <filter id="Unión_17" x="45" y="23.001" width="267.815" height="121.403" filterUnits="userSpaceOnUse">
      <feOffset dy="3" input="SourceAlpha"/>
      <feGaussianBlur stdDeviation="3" result="blur"/>
      <feFlood flood-opacity="0.161"/>
      <feComposite operator="in" in2="blur"/>
      <feComposite in="SourceGraphic"/>
    </filter>
    <clipPath id="clip-path-2">
      <rect id="Rectángulo_42685" data-name="Rectángulo 42685" width="177.932" height="251.779" fill="none"/>
    </clipPath>
    <filter id="Unión_17-2" x="146" y="249.223" width="129.001" height="61" filterUnits="userSpaceOnUse">
      <feOffset dy="3" input="SourceAlpha"/>
      <feGaussianBlur stdDeviation="3" result="blur-2"/>
      <feFlood flood-opacity="0.161"/>
      <feComposite operator="in" in2="blur-2"/>
      <feComposite in="SourceGraphic"/>
    </filter>
  </defs>
  <g id="Enmascarar_grupo_221" data-name="Enmascarar grupo 221" transform="translate(-1020 -953)" clip-path="url(#clip-path)">
    <g id="Grupo_169373" data-name="Grupo 169373">
      <rect id="Rectángulo_42546" data-name="Rectángulo 42546" width="400" height="478" rx="11" transform="translate(1020 953)" fill="#a6bbff"/>
      <g id="Grupo_169647" data-name="Grupo 169647">
        <path id="Trazado_162030" data-name="Trazado 162030" d="M360,94.078C357.264,47.568,324.749,3.162,280.712.407c-50.579-4.251-97,26.181-147.387,26.5C107.634,29.327,83.54,18.534,58.5,15.049,1.957,12.772-6.659,85.681,3.887,132.676,48.363,354.228,363.083,324.084,360,94.078Z" transform="matrix(-0.602, 0.799, -0.799, -0.602, 1406.976, 1079.704)" fill="#e1e8ff"/>
        <path id="Trazado_162031" data-name="Trazado 162031" d="M71.042,157.094c2.844-49.917,36.6-97.577,82.315-100.534,52.508-4.563,100.7,28.1,153.008,28.445,26.671,2.594,51.683-8.99,77.675-12.731,58.7-2.444,67.648,75.807,56.7,126.245C394.568,436.306,67.845,403.953,71.042,157.094Z" transform="translate(930.175 1297.513) rotate(-45)" fill="#6b8dfc" opacity="0.388" style="mix-blend-mode: multiply;isolation: isolate"/>
      </g>
      <g id="Grupo_169368" data-name="Grupo 169368" transform="translate(1074 982.001)">
        <g transform="matrix(1, 0, 0, 1, -54, -29)" filter="url(#Unión_17)">
          <path id="Unión_17-3" data-name="Unión 17" d="M10,103.4a10,10,0,0,1-10-10v-69a10,10,0,0,1,10-10H46.374L54.084,0l7.71,14.4H239.815a10,10,0,0,1,10,10v69a10,10,0,0,1-10,10Z" transform="translate(303.81 132.4) rotate(180)" fill="#fff"/>
        </g>
        <path id="Trazado_165155" data-name="Trazado 165155" d="M19.785,17H17.5l.844-4.875H13.926L13.074,17H10.785L12.762,5.625h2.289l-.8,4.609h4.422l.8-4.609h2.289Zm6.8,0a2.281,2.281,0,0,1-.086-.766,2.863,2.863,0,0,1-2.156.922,2.594,2.594,0,0,1-1.84-.723,2.186,2.186,0,0,1-.684-1.746,2.527,2.527,0,0,1,1.16-2.121,5.266,5.266,0,0,1,2.965-.738l1.031.016.109-.508a1.764,1.764,0,0,0,.023-.492.846.846,0,0,0-.277-.574.955.955,0,0,0-.629-.215,1.345,1.345,0,0,0-.875.254,1.231,1.231,0,0,0-.461.777l-2.211.008a2.457,2.457,0,0,1,1.113-1.965,4.312,4.312,0,0,1,2.613-.738,3.117,3.117,0,0,1,2.25.855,2.5,2.5,0,0,1,.68,2.121l-.648,4.047-.039.5a2.412,2.412,0,0,0,.133.938L28.746,17Zm-1.7-1.555a2.017,2.017,0,0,0,1.664-.828l.273-1.461-.766-.008a2.139,2.139,0,0,0-1.758.742,1.292,1.292,0,0,0-.242.633.75.75,0,0,0,.176.668A.891.891,0,0,0,24.887,15.445Zm8.641-1.234,2.406-5.664h2.375L34.223,17H32.113L30.668,8.547H32.9Zm8.383,2.945a3.677,3.677,0,0,1-1.965-.543,3.292,3.292,0,0,1-1.277-1.469,4.093,4.093,0,0,1-.328-2.059l.023-.312a5.465,5.465,0,0,1,.719-2.266,4.341,4.341,0,0,1,1.547-1.59,3.827,3.827,0,0,1,2.094-.527,2.924,2.924,0,0,1,2.473,1.2,4.117,4.117,0,0,1,.637,2.962l-.125.962h-5.18a1.814,1.814,0,0,0,.4,1.313,1.521,1.521,0,0,0,1.172.508,2.7,2.7,0,0,0,2.109-.937l1.008,1.25A3.135,3.135,0,0,1,43.84,16.77,4.5,4.5,0,0,1,41.91,17.156Zm.7-6.945a1.565,1.565,0,0,0-1.082.383,3.363,3.363,0,0,0-.848,1.383h3.031l.047-.2a2.071,2.071,0,0,0,.008-.594,1.134,1.134,0,0,0-.383-.707A1.2,1.2,0,0,0,42.613,10.211Zm11.281,3.57,2.414-5.234h2.453l-4.945,9.727a4.231,4.231,0,0,1-1.246,1.641,2.723,2.723,0,0,1-1.652.523,5.035,5.035,0,0,1-1.062-.164l.164-1.719.3.016a1.651,1.651,0,0,0,1.578-.789l.484-.9L51,8.547h2.281Zm9.117-5.391a3.39,3.39,0,0,1,1.926.574A3.234,3.234,0,0,1,66.125,10.5a4.762,4.762,0,0,1,.27,2.176,5.143,5.143,0,0,1-1.4,3.262,3.96,3.96,0,0,1-3.02,1.215,3.38,3.38,0,0,1-1.906-.566,3.222,3.222,0,0,1-1.187-1.527,4.657,4.657,0,0,1-.273-2.156,5.3,5.3,0,0,1,1.422-3.328A3.878,3.878,0,0,1,63.012,8.391Zm-2.227,5.315a1.95,1.95,0,0,0,.352,1.182,1.168,1.168,0,0,0,.945.449,1.712,1.712,0,0,0,1.594-.932,4.647,4.647,0,0,0,.539-2.531,2.122,2.122,0,0,0-.363-1.2,1.149,1.149,0,0,0-.949-.464,1.715,1.715,0,0,0-1.574.924A4.6,4.6,0,0,0,60.785,13.706Zm11.477,2.419a2.919,2.919,0,0,1-2.328,1.031,2.172,2.172,0,0,1-1.844-.875,3.2,3.2,0,0,1-.484-2.266l.914-5.469h2.2l-.93,5.5a2.174,2.174,0,0,0-.008.485.8.8,0,0,0,.867.806,2.014,2.014,0,0,0,1.7-.79l1.055-6h2.219L74.152,17H72.1Zm15.109-2.2,2.008-5.375h2.2L88.02,17H86.176l-.625-5.289L83.082,17H81.238l-.625-8.453h2.063l.133,5.32,2.414-5.32h1.594ZM96.113,17a2.281,2.281,0,0,1-.086-.766,2.863,2.863,0,0,1-2.156.922,2.594,2.594,0,0,1-1.84-.723,2.186,2.186,0,0,1-.684-1.746,2.527,2.527,0,0,1,1.16-2.121,5.266,5.266,0,0,1,2.965-.738l1.031.016.109-.508a1.764,1.764,0,0,0,.023-.492.846.846,0,0,0-.277-.574.955.955,0,0,0-.629-.215,1.345,1.345,0,0,0-.875.254,1.231,1.231,0,0,0-.461.777l-2.211.008A2.457,2.457,0,0,1,93.3,9.129a4.312,4.312,0,0,1,2.613-.738,3.117,3.117,0,0,1,2.25.855,2.5,2.5,0,0,1,.68,2.121l-.648,4.047-.039.5a2.412,2.412,0,0,0,.133.938L98.277,17Zm-1.7-1.555a2.017,2.017,0,0,0,1.664-.828l.273-1.461-.766-.008a2.139,2.139,0,0,0-1.758.742,1.292,1.292,0,0,0-.242.633.75.75,0,0,0,.176.668A.891.891,0,0,0,94.418,15.445ZM101.949,17H99.73L101.2,8.547h2.219Zm-.492-10.6a1.1,1.1,0,0,1,.344-.867,1.323,1.323,0,0,1,1.734-.039,1.1,1.1,0,0,1,.383.828,1.132,1.132,0,0,1-.324.844,1.215,1.215,0,0,1-.887.375,1.235,1.235,0,0,1-.863-.3A1.091,1.091,0,0,1,101.457,6.4Zm6.828.07-.367,2.078h1.406l-.289,1.656h-1.406l-.719,4.234a1.077,1.077,0,0,0,.063.609q.109.211.531.227.125.008.672-.039l-.156,1.727a3.706,3.706,0,0,1-1.266.18,1.985,1.985,0,0,1-1.617-.68,2.456,2.456,0,0,1-.437-1.8l.727-4.461h-1.2l.289-1.656h1.2l.359-2.078Zm4.867,10.688a3.677,3.677,0,0,1-1.965-.543,3.292,3.292,0,0,1-1.277-1.469,4.093,4.093,0,0,1-.328-2.059l.023-.312a5.465,5.465,0,0,1,.719-2.266,4.341,4.341,0,0,1,1.547-1.59,3.827,3.827,0,0,1,2.094-.527,2.924,2.924,0,0,1,2.473,1.2,4.117,4.117,0,0,1,.637,2.962l-.125.962h-5.18a1.814,1.814,0,0,0,.4,1.313,1.521,1.521,0,0,0,1.172.508,2.7,2.7,0,0,0,2.109-.937l1.008,1.25a3.135,3.135,0,0,1-1.375,1.121A4.5,4.5,0,0,1,113.152,17.156Zm.7-6.945a1.565,1.565,0,0,0-1.082.383,3.363,3.363,0,0,0-.848,1.383h3.031l.047-.2a2.071,2.071,0,0,0,.008-.594,1.134,1.134,0,0,0-.383-.707A1.2,1.2,0,0,0,113.855,10.211ZM121.8,8.383a2.4,2.4,0,0,1,1.906.945L124.535,5h2.211l-2.078,12H122.7l.125-.906a2.736,2.736,0,0,1-2.2,1.07,2.433,2.433,0,0,1-1.383-.414,2.607,2.607,0,0,1-.918-1.168,4.7,4.7,0,0,1-.355-1.7,6.4,6.4,0,0,1,.023-.953l.047-.352a6.767,6.767,0,0,1,.723-2.281,3.766,3.766,0,0,1,1.313-1.461A3.094,3.094,0,0,1,121.8,8.383Zm-1.6,4.547a6.327,6.327,0,0,0-.039,1q.078,1.375,1.109,1.4a1.885,1.885,0,0,0,1.617-.875l.6-3.359a1.248,1.248,0,0,0-1.219-.875,1.606,1.606,0,0,0-1.34.621A4.176,4.176,0,0,0,120.2,12.93Zm13.727,1.281,2.406-5.664h2.375L134.621,17h-2.109l-1.445-8.453H133.3Zm8.383,2.945a3.677,3.677,0,0,1-1.965-.543,3.292,3.292,0,0,1-1.277-1.469,4.093,4.093,0,0,1-.328-2.059l.023-.312a5.465,5.465,0,0,1,.719-2.266,4.341,4.341,0,0,1,1.547-1.59,3.827,3.827,0,0,1,2.094-.527,2.924,2.924,0,0,1,2.473,1.2,4.117,4.117,0,0,1,.637,2.962l-.125.962h-5.18a1.814,1.814,0,0,0,.4,1.313,1.521,1.521,0,0,0,1.172.508,2.7,2.7,0,0,0,2.109-.937l1.008,1.25a3.135,3.135,0,0,1-1.375,1.121A4.5,4.5,0,0,1,142.309,17.156Zm.7-6.945a1.565,1.565,0,0,0-1.082.383,3.363,3.363,0,0,0-.848,1.383h3.031l.047-.2a2.071,2.071,0,0,0,.008-.594,1.134,1.134,0,0,0-.383-.707A1.2,1.2,0,0,0,143.012,10.211Zm9.539.453a4.548,4.548,0,0,0-.742-.078,2.136,2.136,0,0,0-1.867.883L148.965,17h-2.2l1.469-8.453,2.07-.008-.2,1.031a2.325,2.325,0,0,1,1.969-1.2,3.214,3.214,0,0,1,.766.109Zm3.539,3.117L158.5,8.547h2.453l-4.945,9.727a4.231,4.231,0,0,1-1.246,1.641,2.723,2.723,0,0,1-1.652.523,5.035,5.035,0,0,1-1.062-.164l.164-1.719.3.016a1.651,1.651,0,0,0,1.578-.789l.484-.9L153.2,8.547h2.281Zm11.742-5.242-.18.961a3.112,3.112,0,0,1,2.477-1.109,2.379,2.379,0,0,1,1.3.359,1.679,1.679,0,0,1,.7.93,3.255,3.255,0,0,1,2.625-1.289,2.126,2.126,0,0,1,1.754.8,3.271,3.271,0,0,1,.5,2.234l-.016.2-.9,5.383h-2.211l.9-5.4a3.909,3.909,0,0,0,.023-.54.837.837,0,0,0-.937-.845,1.86,1.86,0,0,0-1.555.97l-.023.18L171.293,17h-2.2l.9-5.383a3.9,3.9,0,0,0,.023-.539.836.836,0,0,0-.93-.852,1.867,1.867,0,0,0-1.508.789L166.52,17h-2.2l1.461-8.453Zm15.234,7.586a2.919,2.919,0,0,1-2.328,1.031,2.172,2.172,0,0,1-1.844-.875,3.2,3.2,0,0,1-.484-2.266l.914-5.469h2.2l-.93,5.5a2.175,2.175,0,0,0-.008.485.8.8,0,0,0,.867.806,2.014,2.014,0,0,0,1.7-.79l1.055-6h2.219L184.957,17H182.9Zm7.234-.781a1.447,1.447,0,0,0,1.016-.332,1.632,1.632,0,0,0,.531-.926l2.07-.008a3.036,3.036,0,0,1-.559,1.6,3.394,3.394,0,0,1-1.344,1.109,3.847,3.847,0,0,1-1.77.375,3.123,3.123,0,0,1-2.437-1.062,3.965,3.965,0,0,1-.867-2.766l.023-.43.008-.086a5.284,5.284,0,0,1,1.391-3.27,3.761,3.761,0,0,1,2.914-1.16,3.047,3.047,0,0,1,2.27.934,3.3,3.3,0,0,1,.824,2.379h-2.055a1.73,1.73,0,0,0-.3-1.07,1.128,1.128,0,0,0-.891-.422q-1.578-.047-1.914,2.3a7.783,7.783,0,0,0-.086,1.438Q189.207,15.32,190.3,15.344Zm7.828-5.859a2.946,2.946,0,0,1,2.289-1.094,2.143,2.143,0,0,1,1.848.9,3.548,3.548,0,0,1,.441,2.379L201.816,17h-2.2l.9-5.358a2.6,2.6,0,0,0,.016-.563.885.885,0,0,0-.984-.868,1.9,1.9,0,0,0-1.562.766L196.918,17h-2.2l2.078-12H199Zm5.625,10.367-1.164-.633.57-.914a4.9,4.9,0,0,0,.641-1.57l.289-1.656h1.859l-.227,1.438A5.172,5.172,0,0,1,203.754,19.852ZM9.367,28.383a2.4,2.4,0,0,1,1.906.945L12.1,25h2.211L12.234,37H10.266l.125-.906a2.736,2.736,0,0,1-2.2,1.07A2.433,2.433,0,0,1,6.8,36.75a2.607,2.607,0,0,1-.918-1.168,4.7,4.7,0,0,1-.355-1.7,6.4,6.4,0,0,1,.023-.953l.047-.352A6.767,6.767,0,0,1,6.324,30.3a3.766,3.766,0,0,1,1.313-1.461A3.094,3.094,0,0,1,9.367,28.383Zm-1.6,4.547a6.327,6.327,0,0,0-.039,1q.078,1.375,1.109,1.4a1.885,1.885,0,0,0,1.617-.875l.6-3.359a1.248,1.248,0,0,0-1.219-.875,1.606,1.606,0,0,0-1.34.621A4.176,4.176,0,0,0,7.766,32.93Zm10.242,4.227a3.677,3.677,0,0,1-1.965-.543,3.292,3.292,0,0,1-1.277-1.469,4.093,4.093,0,0,1-.328-2.059l.023-.312a5.465,5.465,0,0,1,.719-2.266,4.341,4.341,0,0,1,1.547-1.59,3.827,3.827,0,0,1,2.094-.527,2.924,2.924,0,0,1,2.473,1.2,4.117,4.117,0,0,1,.637,2.962l-.125.962h-5.18a1.814,1.814,0,0,0,.4,1.313,1.521,1.521,0,0,0,1.172.508A2.7,2.7,0,0,0,20.3,34.4l1.008,1.25a3.135,3.135,0,0,1-1.375,1.121A4.5,4.5,0,0,1,18.008,37.156Zm.7-6.945a1.565,1.565,0,0,0-1.082.383,3.363,3.363,0,0,0-.848,1.383h3.031l.047-.2a2.071,2.071,0,0,0,.008-.594,1.134,1.134,0,0,0-.383-.707A1.2,1.2,0,0,0,18.711,30.211ZM27.352,37a2.281,2.281,0,0,1-.086-.766,2.863,2.863,0,0,1-2.156.922,2.594,2.594,0,0,1-1.84-.723,2.186,2.186,0,0,1-.684-1.746,2.527,2.527,0,0,1,1.16-2.121,5.266,5.266,0,0,1,2.965-.738l1.031.016.109-.508a1.764,1.764,0,0,0,.023-.492.846.846,0,0,0-.277-.574.955.955,0,0,0-.629-.215,1.345,1.345,0,0,0-.875.254,1.231,1.231,0,0,0-.461.777l-2.211.008a2.457,2.457,0,0,1,1.113-1.965,4.312,4.312,0,0,1,2.613-.738,3.117,3.117,0,0,1,2.25.855,2.5,2.5,0,0,1,.68,2.121l-.648,4.047-.039.5a2.412,2.412,0,0,0,.133.938L29.516,37Zm-1.7-1.555a2.017,2.017,0,0,0,1.664-.828l.273-1.461-.766-.008a2.139,2.139,0,0,0-1.758.742,1.292,1.292,0,0,0-.242.633.75.75,0,0,0,.176.668A.891.891,0,0,0,25.656,35.445Zm10.992-4.781a4.548,4.548,0,0,0-.742-.078,2.136,2.136,0,0,0-1.867.883L33.063,37h-2.2l1.469-8.453,2.07-.008-.2,1.031a2.325,2.325,0,0,1,1.969-1.2,3.214,3.214,0,0,1,.766.109Zm2.438,2.852A4.545,4.545,0,0,1,39.5,31.8a3.918,3.918,0,0,1,1.078-1.289,10.06,10.06,0,0,0,.98-.864,2,2,0,0,0,.586-1.583.8.8,0,0,0-.883-.784,1.25,1.25,0,0,0-.937.352,1.835,1.835,0,0,0-.508,1l-2.211.016A3.2,3.2,0,0,1,38.754,26.3a3.836,3.836,0,0,1,2.621-.836,3.254,3.254,0,0,1,2.3.844,2.6,2.6,0,0,1,.727,2.164,3.71,3.71,0,0,1-1.516,2.523l-1,.828a2.8,2.8,0,0,0-.875,1.688Zm-.727,2.438a1.161,1.161,0,0,1,.336-.883,1.238,1.238,0,0,1,.883-.375,1.191,1.191,0,0,1,.867.316,1.213,1.213,0,0,1,.055,1.715,1.215,1.215,0,0,1-.891.383,1.265,1.265,0,0,1-.879-.32A1.121,1.121,0,0,1,38.359,35.953Zm10.563,2.023H47.188l6.2-12.352h1.742ZM68.2,37H66.7V31.742H60.961V37h-1.5V25.625h1.5v4.891H66.7V25.625H68.2Zm7.656,0a3.036,3.036,0,0,1-.2-.891,3.225,3.225,0,0,1-2.406,1.047,2.984,2.984,0,0,1-2.051-.707,2.288,2.288,0,0,1-.8-1.793,2.39,2.39,0,0,1,1-2.051,4.733,4.733,0,0,1,2.824-.73h1.406v-.664A1.623,1.623,0,0,0,75.18,30a1.821,1.821,0,0,0-1.336-.449,2.108,2.108,0,0,0-1.3.391,1.151,1.151,0,0,0-.523.945H70.57a2,2,0,0,1,.449-1.223,3.066,3.066,0,0,1,1.219-.934,4.1,4.1,0,0,1,1.691-.344,3.342,3.342,0,0,1,2.289.73,2.635,2.635,0,0,1,.859,2.012v3.891a4.757,4.757,0,0,0,.3,1.852V37Zm-2.4-1.1a2.54,2.54,0,0,0,1.289-.352,2.127,2.127,0,0,0,.883-.914V32.9H74.5q-2.656,0-2.656,1.555a1.316,1.316,0,0,0,.453,1.063A1.742,1.742,0,0,0,73.461,35.9Zm10.8-1.141a1.064,1.064,0,0,0-.441-.91,4.249,4.249,0,0,0-1.539-.559,7.277,7.277,0,0,1-1.742-.562,2.479,2.479,0,0,1-.953-.781,1.869,1.869,0,0,1-.309-1.078,2.193,2.193,0,0,1,.879-1.758,3.432,3.432,0,0,1,2.246-.719,3.532,3.532,0,0,1,2.332.742,2.357,2.357,0,0,1,.895,1.9H84.18a1.3,1.3,0,0,0-.5-1.023,1.888,1.888,0,0,0-1.27-.43,1.976,1.976,0,0,0-1.234.344,1.082,1.082,0,0,0-.445.9.877.877,0,0,0,.414.789,5.1,5.1,0,0,0,1.5.508,7.8,7.8,0,0,1,1.754.578,2.558,2.558,0,0,1,1,.809,1.988,1.988,0,0,1,.324,1.152,2.163,2.163,0,0,1-.906,1.816,3.8,3.8,0,0,1-2.352.684,4.257,4.257,0,0,1-1.8-.359,2.922,2.922,0,0,1-1.223-1,2.42,2.42,0,0,1-.441-1.395h1.445a1.5,1.5,0,0,0,.582,1.152,2.258,2.258,0,0,0,1.434.426,2.331,2.331,0,0,0,1.316-.332A1.02,1.02,0,0,0,84.266,34.758Zm10.8,2.4a3.693,3.693,0,0,1-2.8-1.129,4.19,4.19,0,0,1-1.078-3.02v-.266a5.073,5.073,0,0,1,.48-2.246,3.748,3.748,0,0,1,1.344-1.547,3.378,3.378,0,0,1,1.871-.559,3.166,3.166,0,0,1,2.563,1.086,4.7,4.7,0,0,1,.914,3.109v.6H92.633a3,3,0,0,0,.73,2.02,2.3,2.3,0,0,0,1.777.77,2.517,2.517,0,0,0,1.3-.312,3.259,3.259,0,0,0,.93-.828l.883.688A3.55,3.55,0,0,1,95.063,37.156Zm-.18-7.578a1.928,1.928,0,0,0-1.469.637A3.1,3.1,0,0,0,92.68,32h4.234v-.109a2.753,2.753,0,0,0-.594-1.707A1.815,1.815,0,0,0,94.883,29.578Zm10.07,5.18a1.064,1.064,0,0,0-.441-.91,4.249,4.249,0,0,0-1.539-.559,7.277,7.277,0,0,1-1.742-.562,2.479,2.479,0,0,1-.953-.781,1.869,1.869,0,0,1-.309-1.078,2.193,2.193,0,0,1,.879-1.758,3.432,3.432,0,0,1,2.246-.719,3.532,3.532,0,0,1,2.332.742,2.357,2.357,0,0,1,.895,1.9h-1.453a1.3,1.3,0,0,0-.5-1.023,1.888,1.888,0,0,0-1.27-.43,1.976,1.976,0,0,0-1.234.344,1.082,1.082,0,0,0-.445.9.877.877,0,0,0,.414.789,5.1,5.1,0,0,0,1.5.508,7.8,7.8,0,0,1,1.754.578,2.558,2.558,0,0,1,1,.809,1.988,1.988,0,0,1,.324,1.152,2.163,2.163,0,0,1-.906,1.816,3.8,3.8,0,0,1-2.352.684,4.257,4.257,0,0,1-1.8-.359,2.922,2.922,0,0,1-1.223-1A2.42,2.42,0,0,1,99.68,34.4h1.445a1.5,1.5,0,0,0,.582,1.152,2.258,2.258,0,0,0,1.434.426,2.331,2.331,0,0,0,1.316-.332A1.02,1.02,0,0,0,104.953,34.758Zm10.469-1.891a5.062,5.062,0,0,1-.883,3.109,2.829,2.829,0,0,1-2.391,1.18,3.1,3.1,0,0,1-2.422-.977v4.07h-1.445v-11.7h1.32l.07.938a2.977,2.977,0,0,1,2.453-1.094,2.882,2.882,0,0,1,2.41,1.148,5.117,5.117,0,0,1,.887,3.2Zm-1.445-.164a3.735,3.735,0,0,0-.609-2.258,1.963,1.963,0,0,0-1.672-.828,2.125,2.125,0,0,0-1.969,1.164V34.82a2.129,2.129,0,0,0,1.984,1.156,1.954,1.954,0,0,0,1.652-.824A4.077,4.077,0,0,0,113.977,32.7Zm6.789,4.453a3.693,3.693,0,0,1-2.8-1.129,4.19,4.19,0,0,1-1.078-3.02v-.266a5.073,5.073,0,0,1,.48-2.246,3.748,3.748,0,0,1,1.344-1.547,3.378,3.378,0,0,1,1.871-.559,3.166,3.166,0,0,1,2.563,1.086,4.7,4.7,0,0,1,.914,3.109v.6h-5.727a3,3,0,0,0,.73,2.02,2.3,2.3,0,0,0,1.777.77,2.517,2.517,0,0,0,1.3-.312,3.259,3.259,0,0,0,.93-.828l.883.688A3.55,3.55,0,0,1,120.766,37.156Zm-.18-7.578a1.928,1.928,0,0,0-1.469.637A3.1,3.1,0,0,0,118.383,32h4.234v-.109a2.753,2.753,0,0,0-.594-1.707A1.815,1.815,0,0,0,120.586,29.578Zm9.234.266a4.331,4.331,0,0,0-.711-.055A1.9,1.9,0,0,0,127.18,31v6h-1.445V28.547h1.406l.023.977a2.251,2.251,0,0,1,2.016-1.133,1.477,1.477,0,0,1,.641.109ZM136.055,37a3.036,3.036,0,0,1-.2-.891,3.225,3.225,0,0,1-2.406,1.047,2.984,2.984,0,0,1-2.051-.707,2.287,2.287,0,0,1-.8-1.793,2.39,2.39,0,0,1,1-2.051,4.733,4.733,0,0,1,2.824-.73h1.406v-.664A1.623,1.623,0,0,0,135.375,30a1.821,1.821,0,0,0-1.336-.449,2.107,2.107,0,0,0-1.3.391,1.151,1.151,0,0,0-.523.945h-1.453a2,2,0,0,1,.449-1.223,3.066,3.066,0,0,1,1.219-.934,4.1,4.1,0,0,1,1.691-.344,3.342,3.342,0,0,1,2.289.73,2.635,2.635,0,0,1,.859,2.012v3.891a4.757,4.757,0,0,0,.3,1.852V37Zm-2.4-1.1a2.54,2.54,0,0,0,1.289-.352,2.127,2.127,0,0,0,.883-.914V32.9H134.7q-2.656,0-2.656,1.555a1.316,1.316,0,0,0,.453,1.063A1.742,1.742,0,0,0,133.656,35.9Zm5.531-3.2a4.952,4.952,0,0,1,.922-3.129,3.137,3.137,0,0,1,4.766-.168V25h1.445V37h-1.328l-.07-.906a2.943,2.943,0,0,1-2.414,1.063,2.887,2.887,0,0,1-2.395-1.2,5.008,5.008,0,0,1-.926-3.141Zm1.445.164a3.749,3.749,0,0,0,.594,2.25,1.919,1.919,0,0,0,1.641.813,2.108,2.108,0,0,0,2.008-1.234V30.813a2.125,2.125,0,0,0-1.992-1.2,1.929,1.929,0,0,0-1.656.82A4.128,4.128,0,0,0,140.633,32.867Zm7.547-.172a4.993,4.993,0,0,1,.488-2.234,3.642,3.642,0,0,1,1.359-1.531,3.7,3.7,0,0,1,1.988-.539,3.565,3.565,0,0,1,2.793,1.2,4.6,4.6,0,0,1,1.066,3.18v.1a5.036,5.036,0,0,1-.473,2.215,3.589,3.589,0,0,1-1.352,1.527,3.743,3.743,0,0,1-2.02.547,3.556,3.556,0,0,1-2.785-1.2A4.575,4.575,0,0,1,148.18,32.8Zm1.453.172a3.616,3.616,0,0,0,.652,2.258,2.211,2.211,0,0,0,3.5-.012,3.954,3.954,0,0,0,.648-2.418,3.61,3.61,0,0,0-.66-2.254,2.1,2.1,0,0,0-1.754-.863,2.075,2.075,0,0,0-1.727.852A3.925,3.925,0,0,0,149.633,32.867Zm13.375-4.32.039.938a3.122,3.122,0,0,1,2.508-1.094,2.417,2.417,0,0,1,2.414,1.359,3.2,3.2,0,0,1,1.1-.984,3.242,3.242,0,0,1,1.6-.375q2.781,0,2.828,2.945V37h-1.445V31.422a1.941,1.941,0,0,0-.414-1.355,1.823,1.823,0,0,0-1.391-.449,1.917,1.917,0,0,0-1.336.48,1.949,1.949,0,0,0-.617,1.293V37h-1.453V31.461a1.613,1.613,0,0,0-1.8-1.844,1.934,1.934,0,0,0-1.945,1.211V37h-1.445V28.547Zm17.883,7.617a3.07,3.07,0,0,1-2.477.992,2.628,2.628,0,0,1-2.059-.785,3.4,3.4,0,0,1-.715-2.324v-5.5h1.445v5.461q0,1.922,1.563,1.922a2.163,2.163,0,0,0,2.2-1.234V28.547H182.3V37h-1.375Zm6.992-.187a2.082,2.082,0,0,0,1.352-.469,1.649,1.649,0,0,0,.641-1.172h1.367a2.621,2.621,0,0,1-.5,1.383,3.293,3.293,0,0,1-1.23,1.047,3.55,3.55,0,0,1-1.629.391A3.482,3.482,0,0,1,185.137,36a4.59,4.59,0,0,1-1.02-3.152v-.242a5.089,5.089,0,0,1,.453-2.2,3.451,3.451,0,0,1,1.3-1.492,3.7,3.7,0,0,1,2-.531,3.39,3.39,0,0,1,2.363.852,3.043,3.043,0,0,1,1,2.211h-1.367a1.992,1.992,0,0,0-.621-1.348,1.932,1.932,0,0,0-1.379-.527,2.023,2.023,0,0,0-1.707.793,3.724,3.724,0,0,0-.605,2.293v.273a3.65,3.65,0,0,0,.6,2.25A2.033,2.033,0,0,0,187.883,35.977Zm6.43-6.406a3.073,3.073,0,0,1,2.5-1.18q2.68,0,2.7,3.023V37H198.07V31.406a1.946,1.946,0,0,0-.418-1.352,1.675,1.675,0,0,0-1.277-.437,2.086,2.086,0,0,0-1.234.375,2.546,2.546,0,0,0-.828.984V37h-1.445V25h1.445ZM201.3,32.7a4.993,4.993,0,0,1,.488-2.234,3.642,3.642,0,0,1,1.359-1.531,3.7,3.7,0,0,1,1.988-.539,3.565,3.565,0,0,1,2.793,1.2,4.6,4.6,0,0,1,1.066,3.18v.1a5.036,5.036,0,0,1-.473,2.215,3.589,3.589,0,0,1-1.352,1.527,3.743,3.743,0,0,1-2.02.547,3.556,3.556,0,0,1-2.785-1.2A4.575,4.575,0,0,1,201.3,32.8Zm1.453.172a3.616,3.616,0,0,0,.652,2.258,2.211,2.211,0,0,0,3.5-.012,3.954,3.954,0,0,0,.648-2.418,3.61,3.61,0,0,0-.66-2.254,2.1,2.1,0,0,0-1.754-.863,2.075,2.075,0,0,0-1.727.852A3.925,3.925,0,0,0,202.75,32.867Zm8.008,6.4-.82-.562a3.77,3.77,0,0,0,.766-2.109v-1.3h1.414v1.133A3.559,3.559,0,0,1,211.73,38,3.7,3.7,0,0,1,210.758,39.266ZM79.047,52.7a4.961,4.961,0,0,1,.914-3.152,3.226,3.226,0,0,1,4.82-.152l.063-.852h1.328v11.7H84.727V56.219a3.033,3.033,0,0,1-2.328.938,2.915,2.915,0,0,1-2.441-1.191,5.072,5.072,0,0,1-.91-3.16Zm1.445.164a3.761,3.761,0,0,0,.613,2.281,1.951,1.951,0,0,0,1.652.828,2.164,2.164,0,0,0,1.969-1.141V50.7a2.171,2.171,0,0,0-1.953-1.117,1.965,1.965,0,0,0-1.664.832A4.094,4.094,0,0,0,80.492,52.867Zm13.219,3.3a3.07,3.07,0,0,1-2.477.992,2.628,2.628,0,0,1-2.059-.785,3.4,3.4,0,0,1-.715-2.324v-5.5h1.445v5.461q0,1.922,1.563,1.922a2.163,2.163,0,0,0,2.2-1.234V48.547h1.445V57H93.742Zm7.109.992a3.693,3.693,0,0,1-2.8-1.129,4.19,4.19,0,0,1-1.078-3.02v-.266a5.073,5.073,0,0,1,.48-2.246,3.748,3.748,0,0,1,1.344-1.547,3.378,3.378,0,0,1,1.871-.559,3.166,3.166,0,0,1,2.563,1.086,4.7,4.7,0,0,1,.914,3.109v.6H98.391a3,3,0,0,0,.73,2.02,2.3,2.3,0,0,0,1.777.77,2.517,2.517,0,0,0,1.3-.312,3.259,3.259,0,0,0,.93-.828l.883.688A3.55,3.55,0,0,1,100.82,57.156Zm-.18-7.578a1.928,1.928,0,0,0-1.469.637A3.1,3.1,0,0,0,98.438,52h4.234v-.109a2.753,2.753,0,0,0-.594-1.707A1.815,1.815,0,0,0,100.641,49.578Zm9.234.266a4.331,4.331,0,0,0-.711-.055A1.9,1.9,0,0,0,107.234,51v6h-1.445V48.547H107.2l.023.977a2.251,2.251,0,0,1,2.016-1.133,1.477,1.477,0,0,1,.641.109Zm2.9,7.156h-1.445V48.547h1.445Zm-1.562-10.7a.863.863,0,0,1,.215-.594.807.807,0,0,1,.637-.242.819.819,0,0,1,.641.242.854.854,0,0,1,.219.594.826.826,0,0,1-.219.586.834.834,0,0,1-.641.234.821.821,0,0,1-.637-.234A.834.834,0,0,1,111.211,46.3Zm3.523,6.4a4.952,4.952,0,0,1,.922-3.129,3.137,3.137,0,0,1,4.766-.168V45h1.445V57h-1.328l-.07-.906a2.943,2.943,0,0,1-2.414,1.063,2.887,2.887,0,0,1-2.395-1.2,5.008,5.008,0,0,1-.926-3.141Zm1.445.164a3.749,3.749,0,0,0,.594,2.25,1.92,1.92,0,0,0,1.641.813,2.108,2.108,0,0,0,2.008-1.234V50.813a2.125,2.125,0,0,0-1.992-1.2,1.929,1.929,0,0,0-1.656.82A4.128,4.128,0,0,0,116.18,52.867Zm7.547-.172a4.993,4.993,0,0,1,.488-2.234,3.643,3.643,0,0,1,1.359-1.531,3.7,3.7,0,0,1,1.988-.539,3.565,3.565,0,0,1,2.793,1.2,4.6,4.6,0,0,1,1.066,3.18v.1a5.036,5.036,0,0,1-.473,2.215,3.589,3.589,0,0,1-1.352,1.527,3.743,3.743,0,0,1-2.02.547,3.556,3.556,0,0,1-2.785-1.2,4.575,4.575,0,0,1-1.066-3.164Zm1.453.172a3.616,3.616,0,0,0,.652,2.258,2.211,2.211,0,0,0,3.5-.012,3.954,3.954,0,0,0,.648-2.418,3.61,3.61,0,0,0-.66-2.254,2.1,2.1,0,0,0-1.754-.863,2.075,2.075,0,0,0-1.727.852A3.925,3.925,0,0,0,125.18,52.867Zm9.75.917a4.663,4.663,0,0,1,.211-1.466,3.761,3.761,0,0,1,.8-1.193l1.023-1.053a2.36,2.36,0,0,0,.656-1.59,1.815,1.815,0,0,0-.43-1.282,1.62,1.62,0,0,0-1.25-.464,1.881,1.881,0,0,0-1.281.422,1.426,1.426,0,0,0-.484,1.133h-1.445a2.632,2.632,0,0,1,.9-2.043,3.374,3.374,0,0,1,2.309-.777,3.185,3.185,0,0,1,2.3.792,2.87,2.87,0,0,1,.824,2.172,3.926,3.926,0,0,1-1.266,2.691l-.852.842a2.623,2.623,0,0,0-.57,1.818Zm-.062,2.482a.861.861,0,0,1,.215-.6.81.81,0,0,1,.637-.241.822.822,0,0,1,.641.241.852.852,0,0,1,.219.6.824.824,0,0,1-.219.588.837.837,0,0,1-.641.233.774.774,0,0,1-.852-.82Z" transform="translate(21 11.999)" fill="#777"/>
      </g>
      <g id="Grupo_169370" data-name="Grupo 169370" transform="translate(1175 1076.946)">
        <path id="Trazado_160408" data-name="Trazado 160408" d="M454.745,248.939s-23.616,11.565-40.785,23.376c0,0-26.1-33.1-30.492-38.183,0,0-8.241,2.2-9.752,4.12,0,0,2.472,35.025,19.229,64.142,17.158,29.815,51.231-6.592,51.231-6.592Z" transform="translate(-358.563 -163.491)" fill="#fda69d"/>
        <path id="Trazado_160339" data-name="Trazado 160339" d="M360.936,222.9c.274-.337,1.332-.973,1.774-.493-.011-.011-.694-.76-.021-2.5s3.229-2.042,3.229-2.042-12.719-10.41-8.717-12.478,12.626,8.02,12.626,8.02c-.34-4.643-.665-14.979,2.84-15.628s3.9,15.994,3.9,15.994a3.854,3.854,0,0,1,1.033-.241,3.073,3.073,0,0,1,1.076.1c1.574.427,2.6,1.988,3.229,3.395A27.629,27.629,0,0,1,384,222.869a9.882,9.882,0,0,1,.01,4.075,4.873,4.873,0,0,1-.783,1.793c-.087.125-1.03,1.23-.958,1.337.577.869,1.105,1.785,1.656,2.674l-2.609,1.43q-1.869,1.025-3.742,2.047c-1.755.96,1.743,5.752-.124,6.522-.281.117-.789,18.586-1.055,18.439-.184-.1-5.4-22.573-5.49-22.761-.634-1.283-1.264-2.564-1.9-3.841-2.013-1.152-3.98-6.051-4.207-6.631a6.788,6.788,0,0,0-1.177-.4,4.928,4.928,0,0,1-1.706-1.209c-.967-.842-1.927-2.276-.979-3.445" transform="translate(-356.422 -158.989)" fill="#fda69d"/>
        <path id="Trazado_160340" data-name="Trazado 160340" d="M378.655,216.212s-3.942,6.241-2.423,9.055,6.272-2.435,7.6-6.769" transform="translate(-358.831 -161.273)" fill="none" stroke="#000" stroke-miterlimit="10" stroke-width="0.75"/>
        <path id="Trazado_160341" data-name="Trazado 160341" d="M367.259,220.7a75.9,75.9,0,0,1,7.26,3.828" transform="translate(-357.763 -161.828)" fill="none" stroke="#000" stroke-miterlimit="10" stroke-width="0.75"/>
        <path id="Trazado_160342" data-name="Trazado 160342" d="M363.6,225.887s9.69,6.68,12.229,1.365" transform="translate(-357.31 -162.472)" fill="none" stroke="#000" stroke-miterlimit="10" stroke-width="0.75"/>
        <path id="Trazado_160343" data-name="Trazado 160343" d="M362.257,229.91a11.446,11.446,0,0,0,3.936,2.164c1.306.427,3.089,1.064,4.258-.019a1.64,1.64,0,0,0,.536-.777,1.307,1.307,0,0,0,.01-.481,2.172,2.172,0,0,0-.679-1.284" transform="translate(-357.144 -162.92)" fill="none" stroke="#000" stroke-miterlimit="10" stroke-width="0.75"/>
        <path id="Trazado_160344" data-name="Trazado 160344" d="M538.754,372.687l4.121,38.6-100.816-3.582,2.2-44.57Z" transform="translate(-367.021 -179.457)" fill="#fc5f65"/>
        <line id="Línea_591" data-name="Línea 591" x1="97" y1="3.293" transform="translate(76.284 197.005)" fill="none" stroke="#000" stroke-miterlimit="10" stroke-width="0.75"/>
        <line id="Línea_592" data-name="Línea 592" x1="0.667" y2="22.947" transform="translate(115.5 205.606)" fill="none" stroke="#000" stroke-miterlimit="10" stroke-width="0.75"/>
        <path id="Trazado_160345" data-name="Trazado 160345" d="M616.694,401.6c-4.36-23.876-21.554-62.69-28.153-81.115-6.589-18.4-16.408-36.035-29.472-50.629-6.378-7.126-12.468-13.078-21.867-15.6-1.127-.3-16.98-2.463-16.982-2.47l7.217,38.2s56.731,78.174,66.967,117.928Z" transform="translate(-376.694 -165.678)" fill="#fda69d"/>
        <path id="Trazado_160346" data-name="Trazado 160346" d="M505.785,247.705s11.92,2.266,18.108,5.311c0,0-2.9,34.567,13.856,64.784l8.149,43.494-106.034-2.473s9.614-86.8,23.624-109.33c0,0,15.108-3.846,23.9-3.3s18.4,1.511,18.4,1.511" transform="translate(-366.749 -164.978)" fill="#0a4dc8"/>
        <path id="Trazado_160347" data-name="Trazado 160347" d="M446.672,172.088c-3.358,8.352,18.264,24.909,48.295,36.981s57.095,15.088,60.453,6.736-18.265-24.909-48.295-36.981-57.095-15.088-60.453-6.736" transform="translate(-367.549 -155.228)"/>
        <path id="Trazado_160348" data-name="Trazado 160348" d="M518.086,195.982v-4.173s-22.179.538-29.064-14.3a13.986,13.986,0,0,1-11.68,6.178s2.1-28.7,28.445-26.232,27.993,24.55,26.071,41.668,11.262,23.436,5.768,39.369l-33.14-8.205Z" transform="translate(-371.387 -153.984)" fill="#8e6339"/>
        <path id="Trazado_160349" data-name="Trazado 160349" d="M492.315,186.073l1.774-4.971-16.769-2.871C472.231,199.4,465,208.7,464.479,229.905l28.716,2.558Z" transform="translate(-369.795 -156.572)" fill="#8e6339"/>
        <path id="Trazado_160350" data-name="Trazado 160350" d="M478.084,182.662s-8.747,21.612-2.682,35.8,27.609,12.629,35.495,5l3.513-3.784,4.212-31.616L487.492,177.44Z" transform="translate(-370.882 -156.475)" fill="#fda69d"/>
        <path id="Trazado_160351" data-name="Trazado 160351" d="M519.952,202.112s7.7-2.878,9.857,2.94S522.6,218.9,518.291,214.58Z" transform="translate(-376.455 -159.44)" fill="#fda69d"/>
        <path id="Trazado_160352" data-name="Trazado 160352" d="M492.368,202.406a19.116,19.116,0,0,0-1.243,2.453c-.164.4-.556,1.158-.427,1.612.266.934,2.33,1.157,3.127,1.387" transform="translate(-373.037 -159.564)" fill="none" stroke="#000" stroke-miterlimit="10" stroke-width="0.75"/>
        <path id="Trazado_160353" data-name="Trazado 160353" d="M488.577,213.2a3.957,3.957,0,0,0,5.351.713" transform="translate(-372.778 -160.901)" fill="none" stroke="#000" stroke-miterlimit="10" stroke-width="0.75"/>
        <path id="Trazado_160354" data-name="Trazado 160354" d="M482.88,202.915a1.882,1.882,0,1,1-1.617-2.114,1.882,1.882,0,0,1,1.617,2.114" transform="translate(-371.609 -159.364)"/>
        <path id="Trazado_160355" data-name="Trazado 160355" d="M507.772,206.231a1.882,1.882,0,1,1-1.617-2.114,1.882,1.882,0,0,1,1.617,2.114" transform="translate(-374.689 -159.774)"/>
        <path id="Trazado_160356" data-name="Trazado 160356" d="M526.947,206.071A12.718,12.718,0,0,0,524,210.852" transform="translate(-377.161 -160.018)" fill="none" stroke="#000" stroke-miterlimit="10" stroke-width="0.75"/>
        <path id="Trazado_160357" data-name="Trazado 160357" d="M523.841,205.6a7.167,7.167,0,0,1,1.269,2.8" transform="translate(-377.142 -159.959)" fill="none" stroke="#000" stroke-miterlimit="10" stroke-width="0.75"/>
        <path id="Trazado_160358" data-name="Trazado 160358" d="M511.989,201.028a12.529,12.529,0,0,0-10.058-1.173l-.031-.059c3.13-1.81,7.7-1.427,10.089,1.232" transform="translate(-374.427 -159.104)"/>
        <path id="Trazado_160359" data-name="Trazado 160359" d="M485.272,197.468a10.822,10.822,0,0,0-5.736-1.2,19.1,19.1,0,0,1-2.085.23c2.41-1.412,6.04-1.115,7.821.967" transform="translate(-371.401 -158.727)"/>
        <path id="Trazado_160360" data-name="Trazado 160360" d="M515.352,217.193a6.526,6.526,0,1,1-5.608-7.331,6.527,6.527,0,0,1,5.608,7.331" transform="translate(-374.483 -160.48)" fill="#fd8072"/>
        <path id="Trazado_160361" data-name="Trazado 160361" d="M473.509,205.045a39.713,39.713,0,0,0,.646,13.029,6.524,6.524,0,0,0,.591-12.985,6.611,6.611,0,0,0-1.237-.044" transform="translate(-370.882 -159.892)" fill="#fd8072"/>
        <path id="Trazado_160362" data-name="Trazado 160362" d="M485.793,248.739l1.374-21.7,28.794-1.395-2.6,23.1S500.292,257.174,495.3,262.3Z" transform="translate(-372.433 -162.441)" fill="#fda69d"/>
        <path id="Trazado_160363" data-name="Trazado 160363" d="M505.787,157.46c26.345,2.473,27.993,24.55,26.071,41.668l-8.882-2a7.145,7.145,0,0,0-5.014-1.13l-.218-.05.342-4.134s-22.179.537-29.064-14.3a13.985,13.985,0,0,1-11.68,6.179s2.1-28.7,28.445-26.232" transform="translate(-371.387 -153.984)" fill="#8e6339"/>
        <path id="Trazado_160364" data-name="Trazado 160364" d="M508.788,232.988c-2.322,3.4-8.338,9.164-22.445,9.044l.478-7.542a28.107,28.107,0,0,0,21.967-1.5" transform="translate(-372.501 -163.35)"/>
        <path id="Trazado_160365" data-name="Trazado 160365" d="M536.755,197.433s-30.275-19.291-63.494-22.954c0,0,7.037-17.905,26.388-20.641a34.939,34.939,0,0,1,30.723,11.6c6.348,7.066,11.645,17.807,6.384,32" transform="translate(-370.882 -153.514)"/>
        <path id="Trazado_160366" data-name="Trazado 160366" d="M515.223,203.029c-1,6.594-5.928,11.315-11.008,10.545s-8.387-6.739-7.388-13.333Z" transform="translate(-373.776 -159.298)" fill="#ff7b24"/>
        <path id="Trazado_160367" data-name="Trazado 160367" d="M513.1,204.476c-.7,4.627-4.412,7.9-8.288,7.313s-6.45-4.814-5.749-9.441Z" transform="translate(-374.061 -159.558)"/>
        <path id="Trazado_160368" data-name="Trazado 160368" d="M488.371,199.223c-.935,6.166-5.543,10.581-10.294,9.861s-7.843-6.3-6.909-12.469Z" transform="translate(-370.602 -158.849)" fill="#ff7b24"/>
        <path id="Trazado_160369" data-name="Trazado 160369" d="M486.383,200.576c-.655,4.327-4.125,7.388-7.75,6.839s-6.032-4.5-5.377-8.829Z" transform="translate(-370.868 -159.092)"/>
        <path id="Trazado_160370" data-name="Trazado 160370" d="M489.262,199.639l8.2,1.011-.55,1.8-8.658-1.059Z" transform="translate(-372.737 -159.224)" fill="#ff7b24"/>
        <path id="Trazado_160371" data-name="Trazado 160371" d="M515.86,202.912l7.832-2.627.279,1.857-8.268,2.782Z" transform="translate(-376.135 -159.304)" fill="#ff7b24"/>
        <path id="Trazado_160372" data-name="Trazado 160372" d="M524.3,249.963a44.227,44.227,0,0,1,10.024,2.548s1.284,83.342,10.828,114.841l-10.426,2.564C523.47,324.132,524.3,249.963,524.3,249.963" transform="translate(-377.197 -165.451)"/>
        <path id="Trazado_160373" data-name="Trazado 160373" d="M596.245,423.584l4.151-1.177.415,1.177s-18.13,5.852-31.763,6.676-20.43-3.021-24.826-13.46-9.135-35.163-9.135-35.163l40.935-3.293c9.2,16.462,17,32.748,20.221,45.239" transform="translate(-378.534 -181.34)"/>
        <path id="Trazado_160374" data-name="Trazado 160374" d="M547.567,382.1c.467,3.491,1.088,6.97,1.868,10.4.987,4.35,1.741,10.234,6.17,12.553,4.641,2.431,10.643,1.737,15.51.435,5.959-1.594,11.956-2.978,17.981-4.366" transform="translate(-380.078 -181.805)" fill="none" stroke="#fff" stroke-miterlimit="10" stroke-width="0.75"/>
        <path id="Trazado_160375" data-name="Trazado 160375" d="M587.626,400.324a1.431,1.431,0,1,0,.527-2.227A1.653,1.653,0,0,0,587.626,400.324Z" transform="translate(-385.012 -183.773)" fill="none" stroke="#fff" stroke-miterlimit="10" stroke-width="0.75"/>
        <path id="Trazado_160376" data-name="Trazado 160376" d="M495.649,267.481s-6.881,60.373-7.072,94.977" transform="translate(-372.778 -167.618)" fill="none" stroke="#000" stroke-miterlimit="10" stroke-width="0.75"/>
        <path id="Trazado_160377" data-name="Trazado 160377" d="M497.518,276.2a1.5,1.5,0,1,0,1.5-1.5,1.5,1.5,0,0,0-1.5,1.5" transform="translate(-373.884 -168.513)"/>
        <path id="Trazado_160378" data-name="Trazado 160378" d="M495.81,293.976a1.5,1.5,0,1,0,1.5-1.5,1.5,1.5,0,0,0-1.5,1.5" transform="translate(-373.672 -170.712)"/>
        <path id="Trazado_160379" data-name="Trazado 160379" d="M494.1,315.306a1.5,1.5,0,1,0,1.5-1.5,1.5,1.5,0,0,0-1.5,1.5" transform="translate(-373.461 -173.353)"/>
        <path id="Trazado_160380" data-name="Trazado 160380" d="M493.231,335.047a1.5,1.5,0,1,0,1.5-1.5,1.5,1.5,0,0,0-1.5,1.5" transform="translate(-373.353 -175.795)"/>
        <path id="Trazado_160381" data-name="Trazado 160381" d="M492.392,356.507a1.5,1.5,0,1,0,1.5-1.5,1.5,1.5,0,0,0-1.5,1.5" transform="translate(-373.25 -178.452)"/>
        <path id="Trazado_160382" data-name="Trazado 160382" d="M484.724,246.562a26.6,26.6,0,0,0-11.462,8.306s19.006,5.592,20.492,10.024" transform="translate(-370.882 -165.028)" fill="none" stroke="#000" stroke-miterlimit="10" stroke-width="0.75"/>
        <path id="Trazado_160383" data-name="Trazado 160383" d="M515.054,248.453s6.461,4.313,8.11,10.182c0,0-20.791,1.587-26.515,6.49" transform="translate(-373.777 -165.265)" fill="none" stroke="#000" stroke-miterlimit="10" stroke-width="0.75"/>
        <path id="Trazado_160384" data-name="Trazado 160384" d="M483.29,162.839a180.77,180.77,0,0,1,31.351,9.6,190.1,190.1,0,0,1,24.725,11.982,29.04,29.04,0,0,1-.279,7.8,183.813,183.813,0,0,0-28.02-13.964,178.184,178.184,0,0,0-32.885-9.913,37.483,37.483,0,0,1,5.108-5.512" transform="translate(-371.491 -154.668)" fill="#fc5f65"/>
      </g>
      <g id="Grupo_169646" data-name="Grupo 169646" transform="translate(1036 1164.5)">
        <g id="Grupo_169646-2" data-name="Grupo 169646" clip-path="url(#clip-path-2)">
          <path id="Trazado_162004" data-name="Trazado 162004" d="M155.971,251.779H49.079l4.234-79.022-41.981-19.4C33.557,89.854,83.7,92.327,83.7,92.327l25.289,2.819s48.8-1.059,60.444,51.858l1.764,8.819L145.653,159Z" fill="#0a4dc8"/>
          <path id="Trazado_162005" data-name="Trazado 162005" d="M89.147,8.317a2.277,2.277,0,0,0,.948-.808c3.4-5.291,10.355-5.714,16.019-5.575a37.568,37.568,0,0,1,15.757,3.579,14.092,14.092,0,0,1,5.837,5.279c1.3,2.211.891,5.391,3.111,6.946,2.079,1.458,5.533,1.969,7.924,2.863,2.61.978,8.189,2.657,6.645,6.517-2.822,7.056-33.043,11.995-33.043,11.995L86.261,80.139c-1.25,1.965-8.18-1.607-9.5-2.63-14.026-10.847-11.4-41.515-5.639-55.981a21.532,21.532,0,0,1,7.134-9.747,17.041,17.041,0,0,1,5.61-2.61c1.455-.382,3.816-.138,5.283-.854"/>
          <path id="Trazado_162006" data-name="Trazado 162006" d="M83.7,57.769V95.914s11.066,9.169,25.288.7V73.54Z" fill="#e95628"/>
          <path id="Trazado_162007" data-name="Trazado 162007" d="M86.26,71.038S90.317,86.677,108.987,91.4V73.54l-10.45-5.272Z"/>
          <path id="Trazado_162008" data-name="Trazado 162008" d="M137.277,29.858s7.47,29-2.656,46.024-37.287,11.395-46.032.349l-3.831-5.412V29.858L92.471,18.3l23.762,1.726Z" fill="#e95628"/>
          <path id="Trazado_162009" data-name="Trazado 162009" d="M88.278,44.689s-9.319-4.97-13.046,2.071S82.066,65.6,88.278,60.842Z" fill="#e95628"/>
          <path id="Trazado_162010" data-name="Trazado 162010" d="M119.012,49a24.662,24.662,0,0,1,1.167,3.334c.14.542.512,1.569.27,2.125-.5,1.144-3.162,1.078-4.216,1.235" fill="none" stroke="#000" stroke-miterlimit="10" stroke-width="0.75"/>
          <path id="Trazado_162011" data-name="Trazado 162011" d="M121.9,61.643a5.081,5.081,0,0,1-6.933,0" fill="none" stroke="#000" stroke-miterlimit="10" stroke-width="0.75"/>
          <path id="Trazado_162012" data-name="Trazado 162012" d="M129.152,51.273a2.416,2.416,0,1,0,2.416-2.416,2.416,2.416,0,0,0-2.416,2.416"/>
          <path id="Trazado_162013" data-name="Trazado 162013" d="M100.894,51.273a2.416,2.416,0,1,0,2.416-2.416,2.416,2.416,0,0,0-2.416,2.416"/>
          <path id="Trazado_162014" data-name="Trazado 162014" d="M79.7,47.927a16.341,16.341,0,0,1,2.94,6.585" fill="none" stroke="#000" stroke-miterlimit="10" stroke-width="0.75"/>
          <path id="Trazado_162015" data-name="Trazado 162015" d="M83.7,47.927a9.2,9.2,0,0,0-2.089,3.346" fill="none" stroke="#000" stroke-miterlimit="10" stroke-width="0.75"/>
          <path id="Trazado_162016" data-name="Trazado 162016" d="M95.911,44.679a3.524,3.524,0,0,1,.435-.441,8.329,8.329,0,0,1,1.324-.961,9.093,9.093,0,0,1,2.148-.915,8.47,8.47,0,0,1,1.305-.265,8.632,8.632,0,0,1,1.378-.086,9.192,9.192,0,0,1,2.673.442,9.74,9.74,0,0,1,1.15.465,5.882,5.882,0,0,1,.958.543,4.575,4.575,0,0,1,.752.536l.532.468c.29.262.442.424.442.424l-.043.061-.508-.316-.582-.362a6.414,6.414,0,0,0-.79-.406,7.429,7.429,0,0,0-.963-.419c-.356-.111-.72-.266-1.115-.357-.4-.075-.8-.2-1.229-.24a9.847,9.847,0,0,0-1.288-.089,8.146,8.146,0,0,0-1.29.053,10.366,10.366,0,0,0-1.237.192,11.737,11.737,0,0,0-2.111.686,9.327,9.327,0,0,0-1.9,1.047Z"/>
          <path id="Trazado_162017" data-name="Trazado 162017" d="M126.609,44.646a2.555,2.555,0,0,1,.323-.366,6.17,6.17,0,0,1,1.01-.8,6.636,6.636,0,0,1,1.672-.758,6.2,6.2,0,0,1,1.026-.22,6.754,6.754,0,0,1,1.087-.072,8.32,8.32,0,0,1,1.085.1,7.725,7.725,0,0,1,1.02.261,6.872,6.872,0,0,1,.9.383,4.3,4.3,0,0,1,.742.447,5.827,5.827,0,0,1,.976.829c.218.217.328.353.328.353l-.043.061-.394-.244-.452-.28a4.887,4.887,0,0,0-.612-.313,5.669,5.669,0,0,0-.746-.324c-.276-.085-.558-.2-.864-.275s-.623-.153-.952-.184a7.5,7.5,0,0,0-1-.068,8.262,8.262,0,0,0-1.957.187,9.175,9.175,0,0,0-1.636.528,7.244,7.244,0,0,0-1.469.809Z"/>
          <path id="Trazado_162018" data-name="Trazado 162018" d="M89.242,63.009a8.382,8.382,0,1,0,8.382-8.382,8.381,8.381,0,0,0-8.382,8.382" fill="#ff8878"/>
          <path id="Trazado_162019" data-name="Trazado 162019" d="M139.884,54.781a50.973,50.973,0,0,1-3.031,16.475,8.376,8.376,0,1,1,3.031-16.475" fill="#ff8878"/>
          <path id="Trazado_162020" data-name="Trazado 162020" d="M78.664,19.2c2.959-5.991,10.381-10.3,16.473-7.554-1.98-.893,5.957-6.663,6.627-6.94.091-.039-4.327.011-7.3.029a4.071,4.071,0,0,0-.106-1.2c24.161-10.294,59.851,2.988,61.237,25.352.318,5.13-1.238,10.745-5.424,13.728-4.877,3.475-11.683,2.364-17.151-.08a42.22,42.22,0,0,1-12.035-8.118c-5.906-5.687-13.729-16.205-23.36-12.805-8.075,2.851-10.492,7.52-12.866,21.48-2.231-.328-3.25-1.005-5.48-1.333a3.345,3.345,0,0,1-1.86-.675,3.334,3.334,0,0,1-.761-2.208c-.6-6.655-.952-13.689,2.007-19.68"/>
          <path id="Trazado_162021" data-name="Trazado 162021" d="M13.032,154.14s-20.985,37.079-9.7,60.6,45.155,21.166,75.729-4.469c0,0,22.813-21.637,32.221-33.161l-17.4-8.232s-32.738,13.9-41.181,15.3l.612-11.418Z" fill="#e95628"/>
          <line id="Línea_628" data-name="Línea 628" y1="35.407" x2="2.942" transform="translate(52.701 148.768)" fill="none" stroke="#000" stroke-miterlimit="10" stroke-width="0.75"/>
          <line id="Línea_629" data-name="Línea 629" x1="2.03" y1="14.464" transform="translate(143.623 144.534)" fill="none" stroke="#000" stroke-miterlimit="10" stroke-width="0.75"/>
          <path id="Trazado_162022" data-name="Trazado 162022" d="M170.308,155.934s4.531,25.261,4.991,29.93c3.969,40.3,2.511,48.814,1.619,61.682H155.5L145.653,159Z" fill="#e95628"/>
          <path id="Trazado_162023" data-name="Trazado 162023" d="M97.126,136.352l19.536-7a2.119,2.119,0,0,1,2.711,1.281L133.2,169.216a2.12,2.12,0,0,1-1.28,2.711l-19.537,7a2.119,2.119,0,0,1-2.71-1.28L95.846,139.062a2.119,2.119,0,0,1,1.28-2.71"/>
          <path id="Trazado_162024" data-name="Trazado 162024" d="M90.716,167.552c3.445-3.121,5.023-18.31,8.737-21.225s1.677,12.456,1.677,12.456q1.133-1.438,2.284-2.86,2.443-3.03,4.954-6c1.54-1.813,3.1-3.605,4.782-5.292a2.426,2.426,0,0,1,2.239-.713c1.006.157,2.577.78,2.944,1.838a2.073,2.073,0,0,1-.531,1.837s1.782-1.07,3.12,1.178-.346,3.28-.346,3.28a2.631,2.631,0,0,1,2.813,1.442c1.024,1.812.769,3.452-.947,4.346.33-.173,1.307.359,1.545.545,1.339,1.051.542,3.1-.03,4.341a19.217,19.217,0,0,1-3.457,4.727c-3.019,3.3-33.722,37.024-39.933,40.565l-4-32.057s10.7-5.283,14.144-8.4" fill="#e95628"/>
          <path id="Trazado_162025" data-name="Trazado 162025" d="M108,157.818l9.8-10.229a1.75,1.75,0,0,0-.239-2.8" fill="none" stroke="#000" stroke-miterlimit="10" stroke-width="0.75"/>
          <path id="Trazado_162026" data-name="Trazado 162026" d="M111.058,160.92l9.518-8.874s1.605-1.516.552-2.894" fill="none" stroke="#000" stroke-miterlimit="10" stroke-width="0.75"/>
          <path id="Trazado_162027" data-name="Trazado 162027" d="M115.431,164.829l7.011-6.995s1.619-1.261,1.588-2.474" fill="none" stroke="#000" stroke-miterlimit="10" stroke-width="0.75"/>
          <path id="Trazado_162028" data-name="Trazado 162028" d="M123.986,158.38s1.464.873-.029,4.341-6.733,8.471-6.733,8.471" fill="none" stroke="#000" stroke-miterlimit="10" stroke-width="0.75"/>
          <path id="Trazado_162029" data-name="Trazado 162029" d="M114.522,95.5s-3.325,8.882-16.9,8.882-20.2-7.45-21.052-11.6" fill="none" stroke="#000" stroke-miterlimit="10" stroke-width="0.75"/>
        </g>
      </g>
      <g id="Grupo_169372" data-name="Grupo 169372" transform="translate(1175 1208.223)">
        <g transform="matrix(1, 0, 0, 1, -155, -255.22)" filter="url(#Unión_17-2)">
          <path id="Unión_17-4" data-name="Unión 17" d="M24.585,43a16,16,0,0,1-16-16V24.895L0,21.5l8.586-3.395V16a16,16,0,0,1,16-16H95a16,16,0,0,1,16,16V27A16,16,0,0,1,95,43Z" transform="translate(155 255.22)" fill="#fff"/>
        </g>
        <path id="Trazado_165156" data-name="Trazado 165156" d="M9.281,15.563A3.837,3.837,0,0,1,7.5,16.754a7.523,7.523,0,0,1-2.652.395A4.114,4.114,0,0,1,2.8,16.637a3.572,3.572,0,0,1-1.391-1.449,5.128,5.128,0,0,1-.578-2.156,9.841,9.841,0,0,1,.238-2.645A7.438,7.438,0,0,1,2.152,7.723,5.076,5.076,0,0,1,4,6.012a4.868,4.868,0,0,1,2.391-.543,3.954,3.954,0,0,1,2.789,1,4.165,4.165,0,0,1,1.148,2.785l-2.2-.008a2.331,2.331,0,0,0-.508-1.406,1.731,1.731,0,0,0-1.258-.484,2.467,2.467,0,0,0-2.277,1.27,7.9,7.9,0,0,0-.949,3.816,3.355,3.355,0,0,0,.41,2.07,1.7,1.7,0,0,0,1.488.75,3.171,3.171,0,0,0,1.984-.555L7.4,12.75H5.32l.3-1.727H9.969Zm7.18-4.9a4.548,4.548,0,0,0-.742-.078,2.136,2.136,0,0,0-1.867.883L12.875,17h-2.2l1.469-8.453,2.07-.008-.2,1.031a2.325,2.325,0,0,1,1.969-1.2,3.214,3.214,0,0,1,.766.109Zm5.742,0a4.548,4.548,0,0,0-.742-.078,2.136,2.136,0,0,0-1.867.883L18.617,17h-2.2l1.469-8.453,2.07-.008-.2,1.031a2.325,2.325,0,0,1,1.969-1.2,3.214,3.214,0,0,1,.766.109Zm5.742,0a4.548,4.548,0,0,0-.742-.078,2.136,2.136,0,0,0-1.867.883L24.359,17h-2.2l1.469-8.453,2.07-.008-.2,1.031a2.325,2.325,0,0,1,1.969-1.2,3.214,3.214,0,0,1,.766.109Zm4.32,2.1a5.849,5.849,0,0,1,1.277-3.184,3.242,3.242,0,0,1,2.629-1.2,2.37,2.37,0,0,1,2.016.977l.289-.82,2.023.008-1.383,8.164a3.983,3.983,0,0,1-1.437,2.672,4.471,4.471,0,0,1-3,.953,4.168,4.168,0,0,1-1.672-.379,3.575,3.575,0,0,1-1.312-1l1.094-1.344a2.349,2.349,0,0,0,1.844.961,2.166,2.166,0,0,0,1.469-.449,2.4,2.4,0,0,0,.828-1.355l.125-.508a2.749,2.749,0,0,1-2.07.891,2.428,2.428,0,0,1-1.961-.918,3.947,3.947,0,0,1-.8-2.348A7.89,7.89,0,0,1,32.266,12.766Zm2.164.927a2.02,2.02,0,0,0,.309,1.178,1.08,1.08,0,0,0,.895.466,1.972,1.972,0,0,0,1.594-.767l.656-3.583a1.3,1.3,0,0,0-1.242-.767,1.728,1.728,0,0,0-1.43.681,3.561,3.561,0,0,0-.734,1.87A8.214,8.214,0,0,0,34.43,13.693ZM46.57,10.664a4.548,4.548,0,0,0-.742-.078,2.136,2.136,0,0,0-1.867.883L42.984,17h-2.2L42.25,8.547l2.07-.008-.2,1.031a2.325,2.325,0,0,1,1.969-1.2,3.214,3.214,0,0,1,.766.109Zm5.742,0a4.548,4.548,0,0,0-.742-.078,2.136,2.136,0,0,0-1.867.883L48.727,17h-2.2l1.469-8.453,2.07-.008-.2,1.031a2.325,2.325,0,0,1,1.969-1.2,3.214,3.214,0,0,1,.766.109Zm5.742,0a4.548,4.548,0,0,0-.742-.078,2.136,2.136,0,0,0-1.867.883L54.469,17h-2.2l1.469-8.453,2.07-.008L55.6,9.57a2.325,2.325,0,0,1,1.969-1.2,3.214,3.214,0,0,1,.766.109Z" transform="translate(24 12)" fill="#3c3fa7"/>
      </g>
    </g>
  </g>
</svg>
