<svg xmlns="http://www.w3.org/2000/svg" xmlns:xlink="http://www.w3.org/1999/xlink" width="323" height="196.384" viewBox="0 0 323 196.384">
  <defs>
    <clipPath id="clip-path">
      <rect id="Rectángulo_42727" data-name="Rectángulo 42727" width="292.519" height="178" fill="none"/>
    </clipPath>
    <clipPath id="clip-path-5">
      <rect id="Rectángulo_42699" data-name="Rectángulo 42699" width="8.129" height="15.088" fill="none"/>
    </clipPath>
    <clipPath id="clip-path-6">
      <rect id="Rectángulo_42700" data-name="Rectángulo 42700" width="33.389" height="18.716" fill="none"/>
    </clipPath>
    <clipPath id="clip-path-7">
      <rect id="Rectángulo_42701" data-name="Rectángulo 42701" width="36.94" height="3.184" fill="none"/>
    </clipPath>
    <clipPath id="clip-path-8">
      <rect id="Rectángulo_42702" data-name="Rectángulo 42702" width="12.564" height="44.443" fill="none"/>
    </clipPath>
    <clipPath id="clip-path-9">
      <rect id="Rectángulo_42703" data-name="Rectángulo 42703" width="4.018" height="7.033" fill="none"/>
    </clipPath>
    <clipPath id="clip-path-10">
      <rect id="Rectángulo_42704" data-name="Rectángulo 42704" width="9.875" height="23.205" fill="none"/>
    </clipPath>
    <clipPath id="clip-path-11">
      <rect id="Rectángulo_42705" data-name="Rectángulo 42705" width="7.379" height="21.846" fill="none"/>
    </clipPath>
    <clipPath id="clip-path-12">
      <rect id="Rectángulo_42706" data-name="Rectángulo 42706" width="10.223" height="23.079" fill="none"/>
    </clipPath>
    <clipPath id="clip-path-13">
      <rect id="Rectángulo_42707" data-name="Rectángulo 42707" width="8.051" height="21.831" fill="none"/>
    </clipPath>
    <clipPath id="clip-path-14">
      <rect id="Rectángulo_42708" data-name="Rectángulo 42708" width="13.067" height="26.981" fill="none"/>
    </clipPath>
    <clipPath id="clip-path-16">
      <rect id="Rectángulo_42710" data-name="Rectángulo 42710" width="6.572" height="11.974" fill="none"/>
    </clipPath>
    <clipPath id="clip-path-17">
      <rect id="Rectángulo_42711" data-name="Rectángulo 42711" width="6.573" height="11.974" fill="none"/>
    </clipPath>
    <clipPath id="clip-path-18">
      <rect id="Rectángulo_42712" data-name="Rectángulo 42712" width="19.742" height="67.593" fill="none"/>
    </clipPath>
    <clipPath id="clip-path-19">
      <rect id="Rectángulo_42713" data-name="Rectángulo 42713" width="19.741" height="67.593" fill="none"/>
    </clipPath>
    <clipPath id="clip-path-20">
      <rect id="Rectángulo_42714" data-name="Rectángulo 42714" width="167.802" height="24.8" fill="none"/>
    </clipPath>
    <clipPath id="clip-path-21">
      <rect id="Rectángulo_42715" data-name="Rectángulo 42715" width="131.359" height="22.376" fill="none"/>
    </clipPath>
    <clipPath id="clip-path-22">
      <rect id="Rectángulo_42716" data-name="Rectángulo 42716" width="56.87" height="22.634" fill="none"/>
    </clipPath>
    <clipPath id="clip-path-24">
      <rect id="Rectángulo_42718" data-name="Rectángulo 42718" width="141.923" height="37.661" fill="none"/>
    </clipPath>
    <clipPath id="clip-path-25">
      <rect id="Rectángulo_42719" data-name="Rectángulo 42719" width="7.241" height="14.611" fill="none"/>
    </clipPath>
    <clipPath id="clip-path-27">
      <rect id="Rectángulo_42721" data-name="Rectángulo 42721" width="176.036" height="28.754" fill="none"/>
    </clipPath>
    <clipPath id="clip-path-28">
      <rect id="Rectángulo_42722" data-name="Rectángulo 42722" width="174.689" height="13.272" fill="none"/>
    </clipPath>
    <clipPath id="clip-path-29">
      <rect id="Rectángulo_42723" data-name="Rectángulo 42723" width="15.258" height="22.788" fill="none"/>
    </clipPath>
    <clipPath id="clip-path-30">
      <rect id="Rectángulo_42724" data-name="Rectángulo 42724" width="15.259" height="22.788" fill="none"/>
    </clipPath>
  </defs>
  <g id="Grupo_169382" data-name="Grupo 169382" transform="translate(8155 9852)">
    <rect id="Rectángulo_37339" data-name="Rectángulo 37339" width="323" height="196.384" transform="translate(-8155 -9852)" fill="none"/>
    <g id="Grupo_169648" data-name="Grupo 169648" transform="translate(-8140 -9843)">
      <g id="Grupo_169731" data-name="Grupo 169731" clip-path="url(#clip-path)">
        <rect id="Rectángulo_42687" data-name="Rectángulo 42687" width="17.024" height="5.169" transform="translate(16.503 96.672)" fill="#ebebeb"/>
        <rect id="Rectángulo_42688" data-name="Rectángulo 42688" width="17.024" height="5.169" transform="translate(7.006 103.19)" fill="#dbdbdb"/>
        <rect id="Rectángulo_42689" data-name="Rectángulo 42689" width="17.024" height="5.169" transform="translate(26 103.19)" fill="#ebebeb"/>
        <rect id="Rectángulo_42690" data-name="Rectángulo 42690" width="17.024" height="5.169" transform="translate(16.503 144.517)" fill="#dbdbdb"/>
        <rect id="Rectángulo_42691" data-name="Rectángulo 42691" width="17.024" height="5.169" transform="translate(216.387 103.19)" fill="#ebebeb"/>
        <rect id="Rectángulo_42692" data-name="Rectángulo 42692" width="17.024" height="5.169" transform="translate(261.407 115.561)" fill="#ebebeb"/>
        <rect id="Rectángulo_42693" data-name="Rectángulo 42693" width="17.024" height="5.169" transform="translate(270.904 122.078)" fill="#dbdbdb"/>
        <rect id="Rectángulo_42694" data-name="Rectángulo 42694" width="17.024" height="5.169" transform="translate(82.709 168.132)" fill="#dbdbdb"/>
        <rect id="Rectángulo_42695" data-name="Rectángulo 42695" width="17.024" height="5.169" transform="translate(261.407 168.132)" fill="#ebebeb"/>
        <rect id="Rectángulo_42696" data-name="Rectángulo 42696" width="292.519" height="3.486" transform="translate(0 87.911)" fill="#ebebeb"/>
        <g id="Grupo_169649" data-name="Grupo 169649">
          <g id="Grupo_169648-2" data-name="Grupo 169648" clip-path="url(#clip-path)">
            <path id="Trazado_162032" data-name="Trazado 162032" d="M43.993,190.322a4.139,4.139,0,0,1,.348,1.743,4.091,4.091,0,0,1-.348,1.743,4.1,4.1,0,0,1-.348-1.743,4.139,4.139,0,0,1,.348-1.743" transform="translate(-23.485 -102.411)" fill="#dbdbdb"/>
            <path id="Trazado_162033" data-name="Trazado 162033" d="M93.492,190.322a4.139,4.139,0,0,1,.348,1.743,4.091,4.091,0,0,1-.348,1.743,4.1,4.1,0,0,1-.348-1.743,4.14,4.14,0,0,1,.348-1.743" transform="translate(-50.12 -102.411)" fill="#dbdbdb"/>
            <path id="Trazado_162034" data-name="Trazado 162034" d="M142.991,190.322a4.131,4.131,0,0,1,.347,1.743,4.09,4.09,0,0,1-.347,1.743,4.091,4.091,0,0,1-.348-1.743,4.139,4.139,0,0,1,.348-1.743" transform="translate(-76.755 -102.411)" fill="#dbdbdb"/>
            <path id="Trazado_162035" data-name="Trazado 162035" d="M192.49,190.322a4.133,4.133,0,0,1,.348,1.743,4.091,4.091,0,0,1-.348,1.743,4.09,4.09,0,0,1-.347-1.743,4.132,4.132,0,0,1,.347-1.743" transform="translate(-103.391 -102.411)" fill="#dbdbdb"/>
            <path id="Trazado_162036" data-name="Trazado 162036" d="M241.99,190.322a4.139,4.139,0,0,1,.348,1.743,4.091,4.091,0,0,1-.348,1.743,4.083,4.083,0,0,1-.347-1.743,4.132,4.132,0,0,1,.347-1.743" transform="translate(-130.027 -102.411)" fill="#dbdbdb"/>
            <path id="Trazado_162037" data-name="Trazado 162037" d="M291.489,190.322a4.547,4.547,0,0,1,0,3.486,4.09,4.09,0,0,1-.348-1.743,4.139,4.139,0,0,1,.348-1.743" transform="translate(-156.661 -102.411)" fill="#dbdbdb"/>
            <path id="Trazado_162038" data-name="Trazado 162038" d="M340.988,190.322a4.139,4.139,0,0,1,.348,1.743,4.09,4.09,0,0,1-.348,1.743,4.09,4.09,0,0,1-.348-1.743,4.139,4.139,0,0,1,.348-1.743" transform="translate(-183.297 -102.411)" fill="#dbdbdb"/>
            <path id="Trazado_162039" data-name="Trazado 162039" d="M390.487,190.322a4.14,4.14,0,0,1,.348,1.743,4.091,4.091,0,0,1-.348,1.743,4.083,4.083,0,0,1-.347-1.743,4.132,4.132,0,0,1,.347-1.743" transform="translate(-209.932 -102.411)" fill="#dbdbdb"/>
            <path id="Trazado_162040" data-name="Trazado 162040" d="M439.986,190.322a4.132,4.132,0,0,1,.347,1.743,4.09,4.09,0,0,1-.347,1.743,4.09,4.09,0,0,1-.348-1.743,4.132,4.132,0,0,1,.348-1.743" transform="translate(-236.567 -102.411)" fill="#dbdbdb"/>
            <path id="Trazado_162041" data-name="Trazado 162041" d="M489.485,190.322a4.138,4.138,0,0,1,.348,1.743,4.09,4.09,0,0,1-.348,1.743,4.1,4.1,0,0,1-.348-1.743,4.139,4.139,0,0,1,.348-1.743" transform="translate(-263.202 -102.411)" fill="#dbdbdb"/>
            <path id="Trazado_162042" data-name="Trazado 162042" d="M538.984,190.322a4.541,4.541,0,0,1,0,3.486,4.1,4.1,0,0,1-.348-1.743,4.139,4.139,0,0,1,.348-1.743" transform="translate(-289.837 -102.411)" fill="#dbdbdb"/>
            <path id="Trazado_162043" data-name="Trazado 162043" d="M588.484,190.322a4.547,4.547,0,0,1,0,3.486,4.085,4.085,0,0,1-.348-1.743,4.139,4.139,0,0,1,.348-1.743" transform="translate(-316.473 -102.411)" fill="#dbdbdb"/>
            <path id="Trazado_162044" data-name="Trazado 162044" d="M501.4,43.933c3.207,0,57.164.355,60.555.247.244-.007.374-.365.132-.485-2.138-1.059-4.562-.846-6.784-1.595a7.206,7.206,0,0,1-3.017-2.275,6.254,6.254,0,0,0-2.807-1.833,5.937,5.937,0,0,0-3.057-.1,26.008,26.008,0,0,0-3.09,1.283,6.353,6.353,0,0,1-6.961-1.87,15.308,15.308,0,0,0-5.1-3.924,6.774,6.774,0,0,0-5.405-.075c-1.979.9-3.337,2.7-5.2,3.784-2.2,1.288-4.839.984-7.273,1.372s-4.3,2.439-6.437,3.619a4.56,4.56,0,0,1-2.328.721c-.477-.012-.945-.141-1.417-.2a1.939,1.939,0,0,0-1.927.543c-.12.15-.1.783.115.783" transform="translate(-269.702 -17.64)" fill="#ebebeb"/>
            <path id="Trazado_162045" data-name="Trazado 162045" d="M5.462,8.141c2.341,0,41.735.259,44.211.181.178-.005.273-.267.1-.355-1.561-.773-3.331-.618-4.953-1.164a5.266,5.266,0,0,1-2.2-1.661A4.568,4.568,0,0,0,40.564,3.8a4.328,4.328,0,0,0-2.231-.07,18.956,18.956,0,0,0-2.256.937A4.639,4.639,0,0,1,30.994,3.3,11.182,11.182,0,0,0,27.269.44,4.945,4.945,0,0,0,23.322.385c-1.445.655-2.436,1.971-3.794,2.763-1.609.94-3.533.718-5.31,1s-3.142,1.781-4.7,2.643a3.333,3.333,0,0,1-1.7.526c-.348-.009-.69-.1-1.035-.146a1.416,1.416,0,0,0-1.407.4c-.088.109-.07.572.084.572" transform="translate(-2.865 0)" fill="#ebebeb"/>
            <path id="Trazado_162046" data-name="Trazado 162046" d="M305.306,68.15c2.341,0,41.735.259,44.211.181.178-.006.273-.267.1-.355-1.561-.773-3.331-.618-4.953-1.164a5.267,5.267,0,0,1-2.2-1.661,4.572,4.572,0,0,0-2.05-1.339,4.338,4.338,0,0,0-2.231-.07,19.032,19.032,0,0,0-2.256.937,4.639,4.639,0,0,1-5.083-1.365,11.185,11.185,0,0,0-3.725-2.865,4.945,4.945,0,0,0-3.947-.054c-1.445.655-2.436,1.971-3.794,2.763-1.609.94-3.533.718-5.31,1s-3.142,1.781-4.7,2.643a3.327,3.327,0,0,1-1.7.526,10.319,10.319,0,0,1-1.035-.146,1.416,1.416,0,0,0-1.407.4c-.087.109-.07.571.084.571" transform="translate(-164.21 -32.291)" fill="#ebebeb"/>
            <path id="Trazado_162047" data-name="Trazado 162047" d="M81.173,109.354c2.341,0,41.735.259,44.211.181.178-.005.273-.267.1-.355-1.561-.773-3.331-.618-4.953-1.164a5.263,5.263,0,0,1-2.2-1.661,4.568,4.568,0,0,0-2.05-1.338,4.33,4.33,0,0,0-2.232-.07,18.956,18.956,0,0,0-2.256.937,4.639,4.639,0,0,1-5.083-1.365,11.175,11.175,0,0,0-3.725-2.864,4.943,4.943,0,0,0-3.947-.055c-1.445.655-2.436,1.971-3.794,2.763-1.609.94-3.533.718-5.31,1s-3.142,1.781-4.7,2.643a3.332,3.332,0,0,1-1.7.526c-.348-.009-.69-.1-1.035-.146a1.416,1.416,0,0,0-1.407.4c-.087.109-.07.572.084.572" transform="translate(-43.605 -54.462)" fill="#ebebeb"/>
            <path id="Trazado_162048" data-name="Trazado 162048" d="M184.54,31.922c.046.132,62.09,0,61.307,0-.357,0,.542-.534.193-.706-2.02-1-4.23-1.03-6.429-1.232a9.9,9.9,0,0,1-3.756-.911,9.746,9.746,0,0,1-2.728-2.657A11.659,11.659,0,0,0,222.532,22.4c-4.412.691-7.889,4.052-12.308,4.669-2.655.372-5.165-.655-7.76-1.017a9.5,9.5,0,0,0-5.826,1.065,11.115,11.115,0,0,1-4.275,1.388c-1.215.085-2.435-.054-3.652-.066a8.183,8.183,0,0,0-5.374,2.148c-.2.174-.822,1.334,1.2,1.334" transform="translate(-98.519 -11.983)" fill="#ebebeb"/>
          </g>
        </g>
        <g id="Grupo_169651" data-name="Grupo 169651">
          <g id="Grupo_169650" data-name="Grupo 169650" clip-path="url(#clip-path)">
            <path id="Trazado_162049" data-name="Trazado 162049" d="M10.437,348.83c-1.894.067-4.006.175-5.574-1.053-1.447-1.134-2.74-2.823-2.548-4.763.055-.553.182-.895.775-.659a7.076,7.076,0,0,1,2.225,2.056A19.148,19.148,0,0,0,7.942,346.9c.673.517,1.4.964,2.087,1.464.087.061.173.125.258.191.032.023.066.048.1.073h.054a.094.094,0,0,1,.078.041.085.085,0,0,1,.014.032.1.1,0,0,1-.093.125" transform="translate(-1.235 -184.179)" fill="#ffc727"/>
            <path id="Trazado_162050" data-name="Trazado 162050" d="M12.054,350.732c-1.664-.029-3.461.047-4.793-1.083a7.729,7.729,0,0,1-1.546-1.879c-.193-.314-.77-1.247-.531-1.619.433-.672,2.417,2.069,2.691,2.332a8.126,8.126,0,0,0,3.676,1.909q.131.091.258.191a9.091,9.091,0,0,1-2.761-1.06,13.572,13.572,0,0,1-2.763-2.72c-.2-.211-.8-.918-1.029-.478-.15.29.407,1.2.527,1.4a7.686,7.686,0,0,0,1.461,1.785c1.328,1.159,3.116,1.119,4.794,1.188a.087.087,0,0,1,.015.032" transform="translate(-2.759 -186.205)" fill="#fff"/>
            <path id="Trazado_162051" data-name="Trazado 162051" d="M19.639,345.525c-.017.073-.03.145-.046.219a.012.012,0,0,1,0,.007.051.051,0,0,1-.034.039.08.08,0,0,1-.1-.038.057.057,0,0,1,0-.046c0-.01.006-.019.01-.03l.021-.064,0-.006c0-.006,0-.015-.006-.021-.335-1.253-.466-2.556-.819-3.81-.337-1.2-.757-2.37-1-3.591-.153-.77-.689-4.634,1.014-4.152.754.214,1.272,1.306,1.558,1.959a7.969,7.969,0,0,1,.627,2.776c.124,2.356-.739,4.5-1.217,6.759" transform="translate(-9.393 -179.718)" fill="#ffc727"/>
            <path id="Trazado_162052" data-name="Trazado 162052" d="M21.481,343.533a9.293,9.293,0,0,0-.273-2.621c-.076-.3-.446-1.717-.928-1.682-.311.02-.364.634-.39.837a8.183,8.183,0,0,0,.338,2.575,35.573,35.573,0,0,1,.625,5.16c-.015.109-.032.22-.044.329-.015.091-.023.182-.035.273,0,.032-.009.062-.012.094s-.006.047-.009.073a.08.08,0,0,0,.1.038c.009-.07.02-.141.029-.211,0,.059,0,.114.006.173,0,0,0,0,0-.006.012-.062.024-.121.036-.179,0-.015.006-.026.009-.041,0-.1,0-.194-.006-.288a38.655,38.655,0,0,0,.552-4.523m-.576,3.9c-.047-1.013-.147-2.023-.291-3.026-.115-.81-.267-1.612-.437-2.41a8.264,8.264,0,0,1-.217-1.368c-.015-.352.035-1.655.707-.848a5.291,5.291,0,0,1,.661,2.554,13.129,13.129,0,0,1-.047,2.4c-.091.9-.241,1.8-.376,2.7" transform="translate(-10.689 -182.537)" fill="#fff"/>
            <path id="Trazado_162053" data-name="Trazado 162053" d="M15.785,363.661h0a.473.473,0,0,1-.07.008c-1.731-.087-4.038.075-5.478-1.07-1.064-.847-2.11-2.518-1.773-3.937.383-1.6,2.543.32,3.114.782a52.83,52.83,0,0,1,4.243,4.128c.007.011.016.02.022.031l0,.006c.015.028-.021.043-.06.052" transform="translate(-4.519 -192.657)" fill="#ffc727"/>
            <path id="Trazado_162054" data-name="Trazado 162054" d="M17.348,365.509c-.1-.061-.2-.123-.3-.188-1.139-.716-2.249-1.483-3.314-2.3-.27-.206-2.219-1.94-2.513-1.321-.176.376.467,1.139.672,1.4a5.342,5.342,0,0,0,1.316,1.175,13.7,13.7,0,0,0,3.86,1.221c.061.012.123.03.185.047a.191.191,0,0,0,.032.02h0c.038-.009.073-.023.059-.05m-3.426-.986a5.374,5.374,0,0,1-1.494-1.01c-.291-.276-1.315-1.312-1.042-1.738.144-.226.264-.105.54.03a3.488,3.488,0,0,1,.367.212c.291.191.558.414.828.628.475.382.957.748,1.45,1.106.8.588,1.632,1.139,2.478,1.665a26.162,26.162,0,0,1-3.126-.892" transform="translate(-6.022 -194.557)" fill="#fff"/>
            <path id="Trazado_162055" data-name="Trazado 162055" d="M27.622,355.9a10.24,10.24,0,0,1-2.968,5.183.076.076,0,0,1-.032.019.078.078,0,0,1-.089-.033.074.074,0,0,1,.009-.1c.03-.028.058-.059.088-.088.287-2.354.6-4.694.845-7.055.057-.556.492-4.1,1.58-3.521.672.357.717,1.807.774,2.459a10.319,10.319,0,0,1-.207,3.135" transform="translate(-13.193 -188.463)" fill="#ffc727"/>
            <path id="Trazado_162056" data-name="Trazado 162056" d="M27.011,355.3c-.059-.2-.162-.4-.382-.261-.423.264-.59,1.929-.661,2.39-.291,1.9-.74,3.725-1.2,5.583-.038.156-.076.314-.115.473l-.106.141a.078.078,0,0,0,.088.032c.006-.015.009-.032.015-.047.047-.062.1-.126.141-.191v0a12.083,12.083,0,0,0,1.714-3.341,11.433,11.433,0,0,0,.5-2.328,6.659,6.659,0,0,0,0-2.448m-2.222,7.99c-.021.032-.044.061-.065.094.021-.065.041-.127.059-.191a34.164,34.164,0,0,0,1.06-4.321c.126-.743.206-1.491.358-2.228.065-.311.217-1.2.475-1.345s.253.2.279.4c.018.144.018.405.021.54a11.935,11.935,0,0,1-2.187,7.048" transform="translate(-13.211 -191.02)" fill="#fff"/>
            <path id="Trazado_162057" data-name="Trazado 162057" d="M14.232,356.6h-.346c-.006-.305-.012-.611-.02-.913-.041-1.23-.091-2.46-.164-3.69-.041-.7-.091-1.4-.164-2.087a.515.515,0,0,1-.006-.07c-.009-.056-.015-.112-.021-.17s-.014-.121-.023-.182a14.892,14.892,0,0,0-1.189-4.521c-.22-.478-.461-.945-.713-1.409-.024-.044-.05-.088-.073-.132a.233.233,0,0,0-.021-.035c-.024-.047-.05-.091-.076-.138s-.038-.067-.059-.1c-.8-1.409-1.717-2.757-2.586-4.113-.25-.388-.5-.778-.743-1.168a.493.493,0,0,1-.044-.071.883.883,0,0,1-.055-.085c-1.092-1.723-2.167-3.461-3.3-5.152-.044-.061.059-.117.1-.056.766,1.121,1.559,2.225,2.346,3.335.106.147.209.3.314.443.209.293.414.584.619.878.411.587.816,1.174,1.213,1.77a49.692,49.692,0,0,1,3.188,5.158c.067.135.132.27.2.408.041.085.082.17.117.255s.091.2.135.3A15.97,15.97,0,0,1,14.02,350.5c.009.129.018.261.024.394,0,.059.009.12.012.182,0,.032,0,.064.006.1s0,.082.006.127v0c0,.03,0,.061,0,.094.006.112.009.223.015.338.05,1.23.082,2.46.109,3.687.009.391.024.784.038,1.177" transform="translate(-2.484 -178.905)" fill="#ffc727"/>
            <path id="Trazado_162058" data-name="Trazado 162058" d="M1.428,329.789c-.948-1.275-2.163-3.9-.766-5.272a1.488,1.488,0,0,1,1.981-.146,4.323,4.323,0,0,1,1.308,2.378c.641,2.23,1.065,4.5,1.864,6.688.014.013.068.187.087.235s-.056.065-.073.02c-.027-.071-.052-.142-.079-.213a19.073,19.073,0,0,1-4.323-3.69" transform="translate(-0.016 -174.376)" fill="#ffc727"/>
            <path id="Trazado_162059" data-name="Trazado 162059" d="M7.657,335.7c-.008-.012-.014-.026-.023-.038a15.72,15.72,0,0,1-.887-1.65,31.665,31.665,0,0,1-1.362-3.652c-.153-.479-.834-2.821-1.671-1.888a2.1,2.1,0,0,0-.246,1.57,5.89,5.89,0,0,0,.728,2.2,10.739,10.739,0,0,0,3.147,3.288c.055.044.111.085.167.126.012.021.024.038.035.059a.28.28,0,0,0,.024.038.039.039,0,0,0,.02.018.052.052,0,0,0,.073-.032.037.037,0,0,0-.006-.035m-.37-.258a12.546,12.546,0,0,1-2.668-2.677,6.626,6.626,0,0,1-.869-1.773,5.387,5.387,0,0,1-.188-.86,3.77,3.77,0,0,1-.038-.658c.015-.481.214-1.007.5-1.056.352-.065.469.141.7.545a3.867,3.867,0,0,1,.208.423,11.557,11.557,0,0,1,.393,1.11c.2.619.4,1.236.62,1.847.15.414.311.825.487,1.227a16.442,16.442,0,0,0,1.039,2.02c-.061-.047-.123-.1-.185-.147" transform="translate(-1.845 -176.631)" fill="#fff"/>
            <path id="Trazado_162060" data-name="Trazado 162060" d="M37.512,342.494c-.6,1.122-1.279,2.2-1.968,3.271-.389.607-.787,1.21-1.176,1.82a5.144,5.144,0,0,0-1.019,2.138l0,0a.454.454,0,0,1-.031.1.044.044,0,0,1-.013.009.1.1,0,0,1-.142-.086c0-.018,0-.036.006-.054s0-.013-.006-.02a3.1,3.1,0,0,1-.018-.71,16.63,16.63,0,0,1,.074-1.93,15.772,15.772,0,0,1,.835-3.856,13.33,13.33,0,0,1,1.61-3.141,6.971,6.971,0,0,1,2.226-2.343c.807-.367.921.767.9,1.312a8.443,8.443,0,0,1-1.284,3.483" transform="translate(-17.83 -181.676)" fill="#ffc727"/>
            <path id="Trazado_162061" data-name="Trazado 162061" d="M37.461,341.848c-.43-.167-1.279,1.1-1.665,1.641a12.842,12.842,0,0,0-1.486,2.749,16.6,16.6,0,0,0-1.1,5.48c0,.074-.008.152-.009.226,0,.007,0,.014,0,.021s0,.033,0,.052a.094.094,0,0,0,.142.086c.029-.156.062-.306.1-.458s.071-.272.112-.4a21.975,21.975,0,0,1,1.909-4.149c.844-1.562,2.561-5.021,1.993-5.244m-4.089,9.639c-.052.2-.1.4-.132.6.009-.154.018-.308.03-.46a18.363,18.363,0,0,1,.945-4.844,13.144,13.144,0,0,1,1.192-2.516,12.16,12.16,0,0,1,.859-1.226c.132-.163.894-1.2,1.137-1.042.17.113-.191,1.176-.2,1.2-.07.212-.151.423-.236.633-.173.43-.37.851-.573,1.267-.443.9-.938,1.78-1.411,2.668a17.337,17.337,0,0,0-1.615,3.722" transform="translate(-17.866 -183.938)" fill="#fff"/>
            <path id="Trazado_162062" data-name="Trazado 162062" d="M41.544,359a12,12,0,0,1-4.934,2.376c-.945.256-1.9.467-2.851.7a13,13,0,0,0-2.515.74c-.034.015-.07.032-.1.051a3.418,3.418,0,0,0-.616.4.05.05,0,0,1-.046.01.761.761,0,0,1-.052.058.017.017,0,0,1-.028-.018c.011-.024.027-.049.038-.073l0-.006a.052.052,0,0,1,.018-.061.142.142,0,0,1,.024-.019c.012-.024.025-.049.039-.072.922-1.712,2.884-3.043,4.484-4.016a10.255,10.255,0,0,1,5.275-1.686c.475,0,1.583-.073,1.873.426.265.455-.313.929-.607,1.19" transform="translate(-16.355 -192.303)" fill="#ffc727"/>
            <path id="Trazado_162063" data-name="Trazado 162063" d="M40.369,359.6c-.23-.52-1.691-.022-2.052.087a19.77,19.77,0,0,0-3.143,1.336,17.633,17.633,0,0,0-4.549,3.09v0l-.057.034c-.016.025-.028.049-.041.073a.107.107,0,0,0-.023.019.053.053,0,0,0-.018.062c.028-.014.053-.03.079-.042.2-.117.411-.225.621-.329.036-.018.071-.036.1-.051a38.093,38.093,0,0,1,4.581-1.692A18.233,18.233,0,0,0,39,360.866c.253-.141,1.563-.824,1.37-1.261m-.664.691c-1.528,1.183-3.578,1.687-5.382,2.282a19.963,19.963,0,0,0-3.553,1.461,18.76,18.76,0,0,1,4.165-2.75,25.239,25.239,0,0,1,2.592-1.19A10.317,10.317,0,0,1,39,359.632a4.055,4.055,0,0,1,.92-.116c.582.049.045.575-.217.779" transform="translate(-16.402 -193.376)" fill="#fff"/>
            <path id="Trazado_162064" data-name="Trazado 162064" d="M25.074,364.466a.1.1,0,0,1-.1.014c0,.013.006.024.009.036a.029.029,0,0,1-.019.036.027.027,0,0,1-.038-.015,16.676,16.676,0,0,1-1.556-6.642,8.706,8.706,0,0,1,.481-2.79c.218-.612.658-1.843,1.346-2.084,1.386-.482.879,3.647.8,4.269-.142,1.134-.38,2.253-.544,3.383-.179,1.238-.267,2.486-.357,3.733a.083.083,0,0,1-.026.06" transform="translate(-12.576 -189.938)" fill="#ffc727"/>
            <path id="Trazado_162065" data-name="Trazado 162065" d="M25.82,366.244c-.02-.118-.038-.235-.052-.354a18.794,18.794,0,0,1,.079-5.78,17.3,17.3,0,0,0,.326-2.9c0-.241.046-1.144-.455-.872a6.58,6.58,0,0,0-.781,2.138,11.925,11.925,0,0,0-.155,2.912,19.631,19.631,0,0,0,.887,4.807c.013.046.027.092.042.136a.028.028,0,0,0,.02-.036.217.217,0,0,1-.008-.035.1.1,0,0,0,.1-.016m-.864-4.052a13.822,13.822,0,0,1-.031-2.9,9.786,9.786,0,0,1,.189-1.139,6.2,6.2,0,0,1,.254-.868c.272-.685.4-.842.52-.822.076.014.146.126.19.615a4.857,4.857,0,0,1-.03.948c-.05.447-.115.891-.187,1.335-.139.888-.291,1.776-.364,2.671a14.526,14.526,0,0,0,.175,3.848,22.422,22.422,0,0,1-.716-3.693" transform="translate(-13.321 -191.717)" fill="#fff"/>
            <path id="Trazado_162066" data-name="Trazado 162066" d="M32.333,371.834a5.533,5.533,0,0,1-1.727,1.618c-1.328.86-2.82,1.425-4.2,2.189-.206.114-.411.232-.612.357-.021.015-.227.222-.217.2,0,0,.055-.093.148-.242h0a22.63,22.63,0,0,1,2.976-3.913,11.315,11.315,0,0,1,2.218-1.626c.385-.2,1.269-.611,1.687-.285.45.352-.051,1.349-.272,1.7" transform="translate(-13.761 -199.101)" fill="#ffc727"/>
            <path id="Trazado_162067" data-name="Trazado 162067" d="M31.749,372.159c-.384-.511-2.594,1.315-2.886,1.549A15.921,15.921,0,0,0,26,376.687c-.1.123-.185.249-.275.378-.093.15-.148.236-.15.241s.2-.185.219-.2l.1-.064c.169-.1.339-.2.507-.292.9-.629,1.8-1.244,2.688-1.893a14.655,14.655,0,0,0,1.8-1.53c.125-.128,1.024-.945.855-1.167m-.4.6c-1.505,1.75-3.595,2.779-5.414,4.146l-.089.067c.036-.046.071-.1.108-.141a18.129,18.129,0,0,1,2.338-2.5,17.337,17.337,0,0,1,1.649-1.282,8.71,8.71,0,0,1,.96-.626c.149-.075.564-.263.646-.172.117.127-.1.393-.2.509" transform="translate(-13.76 -200.209)" fill="#fff"/>
            <path id="Trazado_162068" data-name="Trazado 162068" d="M52.639,339.6c-2.843,2.874-7.415,2.955-10.418,5.625l-.015.014c-.091.081-.181.165-.27.252a.075.075,0,0,1-.121-.027.054.054,0,0,1,.016-.06c.02-.021.042-.042.065-.061a19.328,19.328,0,0,1,4.456-5.233,9.8,9.8,0,0,1,5.208-2.495c.484-.052,1.442-.184,1.762.334.34.549-.333,1.3-.684,1.65" transform="translate(-22.499 -181.639)" fill="#ffc727"/>
            <path id="Trazado_162069" data-name="Trazado 162069" d="M51.231,340.974c-.137-.216-.493-.156-.691-.135a6.21,6.21,0,0,0-1.444.338,10.222,10.222,0,0,0-2.659,1.46,21.083,21.083,0,0,0-3.831,3.519c-.249.3-.486.614-.706.938-.028.04-.053.08-.081.12a.077.077,0,0,0,.121.028c.084-.087.17-.163.259-.246a.2.2,0,0,1,.024-.022,12.353,12.353,0,0,1,1.837-1.555,29.06,29.06,0,0,1,3.287-1.8c.438-.221,4.358-1.9,3.883-2.646m-.551.706a13.887,13.887,0,0,1-2.623,1.474c-.895.456-1.794.9-2.681,1.37a14.119,14.119,0,0,0-2.013,1.289,10.985,10.985,0,0,0-1.468,1.345,15.312,15.312,0,0,1,1.259-1.5.049.049,0,0,1,.018-.015,27.655,27.655,0,0,1,2.585-2.342l.033-.029a12.814,12.814,0,0,1,2.564-1.68,7.347,7.347,0,0,1,1.576-.548c.619-.128,1.133-.169,1.194.038.04.141-.214.414-.443.6" transform="translate(-22.503 -183.391)" fill="#fff"/>
            <path id="Trazado_162070" data-name="Trazado 162070" d="M36.744,346.249c-.829.8-1.644,1.62-2.455,2.446q-.574.581-1.139,1.161c-.01.009-.018.015-.024.022l-.412.42a33.125,33.125,0,0,0-3.576,3.992,15.138,15.138,0,0,0-1.368,2.458c-.037.089-.078.177-.118.266v0c-.019.049-.041.1-.06.147-.013.026-.024.054-.034.081-.321.748-.605,1.513-.878,2.257-.381,1.04-.689,2.1-.986,3.157a.5.5,0,0,0-.027.093c-.015.048-.028.1-.043.144-.007.025-.013.048-.019.074-.014.045-.026.091-.04.135-.094.341-.191.681-.292,1.024l-.315-.122a22,22,0,0,1,.8-3.191.5.5,0,0,1,.022-.064c.03-.1.064-.205.1-.3.04-.127.081-.249.126-.373q.155-.45.315-.888a23.221,23.221,0,0,1,2.335-4.957l.086-.124a.55.55,0,0,1,.036-.052c.018-.03.039-.06.061-.09l.1-.14c.061-.084.124-.166.187-.246l.056-.073a35.519,35.519,0,0,1,3.364-3.523c.212-.2.422-.406.635-.607l.356-.334.546-.5a.049.049,0,0,1,.018-.015c.858-.785,1.731-1.552,2.585-2.342.039-.036.1.03.062.068" transform="translate(-13.429 -186.273)" fill="#ffc727"/>
          </g>
        </g>
        <g id="Grupo_169683" data-name="Grupo 169683">
          <g id="Grupo_169682" data-name="Grupo 169682" clip-path="url(#clip-path)">
            <path id="Trazado_162071" data-name="Trazado 162071" d="M564.968,286.76s10.247,18.122,10.254,18.135c1.646,3.655,3.024,6.888,3.581,8.627a.059.059,0,0,1,.009.029,2.8,2.8,0,0,1,.239,1.25.122.122,0,0,1-.011.032c-.756,1.227-29.578,15.234-30.747,15.384s-1.69-3.171-1-4.608,9.325-11.736,9.325-11.736l-10.062-18.194Z" transform="translate(-294.096 -154.304)" fill="#eb9481"/>
            <path id="Trazado_162072" data-name="Trazado 162072" d="M549.788,346.266c1.168-.152,29.531-14.054,30.285-15.278a.112.112,0,0,0,.013-.033,2.832,2.832,0,0,0-.237-1.25.057.057,0,0,0-.012-.028c-.557-1.739-1.936-4.974-3.579-8.631,0,0-1.727-3.167-2.414-4.266l-18.332,9.475,2.134,3.771s-8.173,10.192-8.863,11.629-.168,4.763,1,4.61" transform="translate(-295.132 -170.458)" fill="#ebebeb"/>
            <path id="Trazado_162073" data-name="Trazado 162073" d="M548.558,349.111c1.177-.179,29.894-14.972,30.628-16.23.287-.473-1.625-4.783-4.084-9.925l-.079-.16-18.633,9.337.169.311s-8.459,10.579-9.122,12.047-.056,4.8,1.12,4.62" transform="translate(-294.428 -173.695)" fill="#ffc727"/>
            <path id="Trazado_162074" data-name="Trazado 162074" d="M549.57,359.608c4.779-2.612,24.3-12.7,29.227-14.919.04-.018.054.008.016.031-4.68,2.693-24.286,12.621-29.2,14.968-.1.049-.141-.024-.041-.079" transform="translate(-295.689 -185.472)" fill="#fff"/>
            <path id="Trazado_162075" data-name="Trazado 162075" d="M564.131,343.409a7.589,7.589,0,0,1,6.357-1.637c.084.024.049.142-.023.154a30.154,30.154,0,0,0-6.2,1.72.137.137,0,0,1-.132-.237" transform="translate(-303.527 -183.802)" fill="#263238"/>
            <path id="Trazado_162076" data-name="Trazado 162076" d="M562.079,346.736a7.587,7.587,0,0,1,6.357-1.637c.084.024.049.142-.023.154a30.158,30.158,0,0,0-6.2,1.72.137.137,0,0,1-.132-.237" transform="translate(-302.423 -185.592)" fill="#263238"/>
            <path id="Trazado_162077" data-name="Trazado 162077" d="M560.026,350.064a7.587,7.587,0,0,1,6.357-1.637c.084.024.048.142-.023.154a30.158,30.158,0,0,0-6.2,1.72.137.137,0,0,1-.132-.237" transform="translate(-301.318 -187.383)" fill="#263238"/>
            <path id="Trazado_162078" data-name="Trazado 162078" d="M600.326,334.092c1.546-2.114,4.833.285,3.285,2.4s-4.833-.285-3.285-2.4" transform="translate(-322.814 -179.332)" fill="#fff"/>
            <g id="Grupo_169654" data-name="Grupo 169654" transform="translate(252.74 160.336)" opacity="0.1">
              <g id="Grupo_169653" data-name="Grupo 169653">
                <g id="Grupo_169652" data-name="Grupo 169652" clip-path="url(#clip-path-5)">
                  <path id="Trazado_162079" data-name="Trazado 162079" d="M555.3,347.119l-2.064,12.895a50.831,50.831,0,0,1-4.673,2.186c-1.175.183-1.777-3.159-1.123-4.621.5-1.109,5.476-7.451,7.86-10.459" transform="translate(-547.168 -347.119)"/>
                </g>
              </g>
            </g>
            <path id="Trazado_162080" data-name="Trazado 162080" d="M547.967,358.647c-.412.463.588,2.132,1.031,2.079s31.682-16.321,32.153-16.715-.709-2.2-1.377-1.982-31.806,16.618-31.806,16.618" transform="translate(-294.805 -184.034)" fill="#ffc727"/>
            <g id="Grupo_169657" data-name="Grupo 169657" transform="translate(253.064 157.977)" opacity="0.4">
              <g id="Grupo_169656" data-name="Grupo 169656">
                <g id="Grupo_169655" data-name="Grupo 169655" clip-path="url(#clip-path-6)">
                  <path id="Trazado_162081" data-name="Trazado 162081" d="M547.967,358.647c-.412.463.588,2.132,1.031,2.079s31.682-16.321,32.153-16.715-.709-2.2-1.377-1.982-31.806,16.618-31.806,16.618" transform="translate(-547.869 -342.011)"/>
                </g>
              </g>
            </g>
            <path id="Trazado_162082" data-name="Trazado 162082" d="M548.415,205.6l-20.654,11.028s-26.071-37.153-26.592-46.916c-.72-13.482,10.791-56.281,10.791-56.281l18.361-.125s-7.464,44.016-6.857,51.526c.317,3.929,24.952,40.768,24.952,40.768" transform="translate(-269.658 -60.968)" fill="#263238"/>
            <path id="Trazado_162083" data-name="Trazado 162083" d="M554.853,316.02c1.063-.766,10.854-6.439,18.309-10.063.05-.024.083.046.038.076-2.261,1.493-16.874,9.5-18.292,10.066-.047.019-.1-.045-.055-.079" transform="translate(-298.553 -164.631)" fill="#37474f"/>
            <path id="Trazado_162084" data-name="Trazado 162084" d="M543.081,156.788c.853-6.441,1.791-12.872,2.861-19.28,1.075-6.438,2.208-12.871,3.554-19.258.164-.78.337-1.558.507-2.337a.1.1,0,0,1,.188.036c-1.131,6.336-2.3,12.668-3.336,19.02s-2.012,12.715-2.884,19.093q-.324,2.368-.63,4.74a42.238,42.238,0,0,0-.469,4.918,12.577,12.577,0,0,0,.787,4.609,26.652,26.652,0,0,0,2.115,4.145c3.321,5.62,18.2,30.178,18.584,30.892.025.047-.039.1-.07.049-3.57-5.54-14.645-23.233-18.013-28.943-1.519-2.576-3.261-5.185-3.757-8.19-.515-3.125.151-6.392.561-9.493" transform="translate(-291.826 -62.332)" fill="#37474f"/>
            <path id="Trazado_162085" data-name="Trazado 162085" d="M513.984,313.114s.207,20.948.207,20.963c-.111,4.007-.28,7.517-.536,9.325a.065.065,0,0,1,0,.029,2.8,2.8,0,0,1-.33,1.23c-.01.01-.015.019-.024.025-1.215.775-33.26.823-34.378.448s-.139-3.591,1.1-4.585,13.508-6.5,13.508-6.5l-.009-20.933Z" transform="translate(-257.439 -168.485)" fill="#eb9481"/>
            <path id="Trazado_162086" data-name="Trazado 162086" d="M514.148,349.077s.042,4.286.042,4.3c-.111,4.007-.279,7.518-.536,9.325a.054.054,0,0,1,0,.029,5.415,5.415,0,0,1-.33,1.23c-.01.01-.014.019-.024.025-1.215.775-33.26.823-34.378.448s-.139-3.591,1.1-4.585,13.508-6.5,13.508-6.5l0-4.366Z" transform="translate(-257.438 -187.786)" fill="#ebebeb"/>
            <path id="Trazado_162087" data-name="Trazado 162087" d="M478.862,368.49c1.135.361,33.433-.208,34.648-1.011.467-.3.658-5.008.727-10.707,0-.06,0-.119,0-.178l-20.842.133.014.354s-12.266,5.747-13.51,6.771-2.174,4.283-1.038,4.638" transform="translate(-257.398 -191.881)" fill="#ffc727"/>
            <path id="Trazado_162088" data-name="Trazado 162088" d="M480.1,379.039c5.442-.23,27.414-.642,32.811-.455.044,0,.044.031,0,.035-5.389.345-27.364.579-32.81.509-.115,0-.116-.084,0-.089" transform="translate(-258.294 -203.689)" fill="#fff"/>
            <path id="Trazado_162089" data-name="Trazado 162089" d="M507.037,357.633a7.589,7.589,0,0,1,6.426,1.343c.065.058-.019.149-.089.128a30.138,30.138,0,0,0-6.324-1.2.137.137,0,0,1-.013-.27" transform="translate(-272.775 -192.34)" fill="#263238"/>
            <path id="Trazado_162090" data-name="Trazado 162090" d="M503.725,359.71a7.587,7.587,0,0,1,6.426,1.343c.065.058-.019.149-.089.128a30.174,30.174,0,0,0-6.323-1.2.137.137,0,0,1-.013-.27" transform="translate(-270.993 -193.457)" fill="#263238"/>
            <path id="Trazado_162091" data-name="Trazado 162091" d="M500.412,361.786a7.586,7.586,0,0,1,6.426,1.343c.065.058-.019.148-.089.128a30.116,30.116,0,0,0-6.323-1.2.137.137,0,0,1-.013-.271" transform="translate(-269.21 -194.574)" fill="#263238"/>
            <path id="Trazado_162092" data-name="Trazado 162092" d="M477.91,378.877c-.575.233-.415,2.172,0,2.321s35.634-.627,36.23-.771.338-2.289-.358-2.387-35.876.837-35.876.837" transform="translate(-256.96 -203.417)" fill="#ffc727"/>
            <g id="Grupo_169660" data-name="Grupo 169660" transform="translate(220.577 174.616)" opacity="0.4">
              <g id="Grupo_169659" data-name="Grupo 169659">
                <g id="Grupo_169658" data-name="Grupo 169658" clip-path="url(#clip-path-7)">
                  <path id="Trazado_162093" data-name="Trazado 162093" d="M477.91,378.877c-.575.233-.415,2.172,0,2.321s35.634-.627,36.23-.771.338-2.289-.358-2.387-35.876.837-35.876.837" transform="translate(-477.538 -378.033)"/>
                </g>
              </g>
            </g>
            <path id="Trazado_162094" data-name="Trazado 162094" d="M543.4,364.342c2.321-1.212,4.208,2.393,1.884,3.607s-4.208-2.393-1.884-3.607" transform="translate(-291.828 -195.918)" fill="#fff"/>
            <path id="Trazado_162095" data-name="Trazado 162095" d="M515.4,113.386a.079.079,0,0,0,.007.019c.122.379,6.721,18.461,7.342,18.749.7.324-14.577,25.992-15.481,37.916-.578,7.627.555,50.787.555,50.787h22.34s-1.074-38.8-1.584-51.1c-.2-4.768,15.339-28.5,15.529-43.286.06-4.659-3.287-13.172-3.287-13.172Z" transform="translate(-272.872 -60.968)" fill="#263238"/>
            <path id="Trazado_162096" data-name="Trazado 162096" d="M553.323,234.6c0-.2.155-.261.17-.059.5,6.654.622,13.271.94,19.936.317,6.645.137,8.247.433,14.893.168,3.761.009,7.532.1,11.3a.046.046,0,0,1-.092.007c-.7-6.633-1.543-42.306-1.547-46.074" transform="translate(-297.74 -126.137)" fill="#37474f"/>
            <path id="Trazado_162097" data-name="Trazado 162097" d="M507.338,192.3a32.792,32.792,0,0,1,.452-4.9,24.336,24.336,0,0,1,1.379-4.6c1.235-3.112,2.694-6.147,4.088-9.19q2.118-4.626,4.343-9.2,1.256-2.569,2.528-5.129c.858-1.727,1.783-3.423,2.682-5.129a.06.06,0,0,1,.107.053c-1.431,3.074-2.845,6.156-4.276,9.231s-2.838,6.161-4.245,9.247c-1.384,3.034-2.771,6.072-4.074,9.142a30.207,30.207,0,0,0-1.594,4.519,26.439,26.439,0,0,0-.655,4.866c-.216,3.817-.322,7.644-.7,11.449,0,.048-.083.043-.084,0-.114-3.445-.06-6.913.044-10.359" transform="translate(-272.938 -82.933)" fill="#37474f"/>
            <path id="Trazado_162098" data-name="Trazado 162098" d="M512.126,336.23c1.3-.169,11.2-.51,19.478-.157a.043.043,0,0,1,0,.085c-2.7.24-17.947.343-19.465.169-.05-.006-.069-.088-.011-.1" transform="translate(-275.553 -180.756)" fill="#37474f"/>
            <path id="Trazado_162099" data-name="Trazado 162099" d="M534.07,151.936a42.548,42.548,0,0,1,6.985,2.422.076.076,0,0,1-.048.144c-2.345-.734-4.729-1.423-7.031-2.285a.148.148,0,0,1,.094-.28" transform="translate(-287.277 -81.754)" fill="#37474f"/>
            <path id="Trazado_162100" data-name="Trazado 162100" d="M529.416,118.425c0-.078.133-.109.141-.025a75.169,75.169,0,0,0,1.146,7.465c.223,1.146,1.809,7.445,3.767,6.773.328-.113.466-.461.467-.972a8.087,8.087,0,0,0-.467-1.934c-.36-1.316-.676-2.64-.93-3.98a36.879,36.879,0,0,1-.693-7.572.065.065,0,0,1,.13-.006,69.655,69.655,0,0,0,1.681,10.378c.421,1.637,1.516,4.055-.2,4.489-1.745.442-3.32-3.634-3.654-4.759a38.487,38.487,0,0,1-1.388-9.858" transform="translate(-284.876 -63.557)" fill="#37474f"/>
            <path id="Trazado_162101" data-name="Trazado 162101" d="M539.78,149.8a10.8,10.8,0,0,1,.587,1.279,3.024,3.024,0,0,1,.3,1.07c0,.072-.093.088-.136.044a3.855,3.855,0,0,1-.575-1.012c-.194-.394-.4-.785-.581-1.184a.225.225,0,0,1,.406-.2" transform="translate(-290.222 -80.542)" fill="#37474f"/>
            <path id="Trazado_162102" data-name="Trazado 162102" d="M548.2,180.526c-.115-3.176-.467-6.506.574-9.572a31.87,31.87,0,0,1,2.038-4.347q1.162-2.24,2.28-4.5c2.985-6.029,5.8-12.153,8.309-18.395a39.007,39.007,0,0,0,2.724-9.316,28.661,28.661,0,0,0-.624-10.134c-.188-.827-.389-1.649-.615-2.467-.017-.06.073-.094.092-.033a33.321,33.321,0,0,1,1.742,9.691,27.374,27.374,0,0,1-1.681,9.263c-1.07,3.118-2.412,6.15-3.733,9.168q-2.042,4.668-4.244,9.263c-1.462,3.047-3.02,6.042-4.563,9.048a16.362,16.362,0,0,0-1.715,4.565,23.491,23.491,0,0,0-.184,5c.263,7.027.869,30.41.958,37.418q.017,1.334.031,2.669c0,.079-.117.09-.122.01-.445-6.992-1.016-30.322-1.268-37.327" transform="translate(-294.9 -65.502)" fill="#37474f"/>
            <path id="Trazado_162103" data-name="Trazado 162103" d="M559.152,123.3c0-.05.078-.04.084,0a16.582,16.582,0,0,0,1.347,5.693,7.958,7.958,0,0,0,3.979,3.374,29.515,29.515,0,0,0,2.9,1.07c.07.023.054.133-.023.116a15.375,15.375,0,0,1-5.332-1.852,6.679,6.679,0,0,1-2.886-4.879,16.993,16.993,0,0,1-.07-3.527" transform="translate(-300.846 -66.327)" fill="#37474f"/>
            <path id="Trazado_162104" data-name="Trazado 162104" d="M492.613,58.975c1.611,13.091,1.46,26.555-1.079,29.5-3.642,4.225-13.047,11.452-19.51,13.786-1.9.685-8.364-11.019-6.505-12.117,2.547-1.5,14.5-9.554,14.705-9.712.446-.34,5.99-18.2,6.685-21.794,1.219-6.3,4.838-6.694,5.7.337" transform="translate(-250.315 -28.953)" fill="#eb9481"/>
            <path id="Trazado_162105" data-name="Trazado 162105" d="M459.2,142.048c-1.431.993-9.112,6.442-11.3,7.114s-8.608,2.15-9.292.53,1.162-2.2,1.162-2.2-2.811.195-3.352-1.5,2.361-2.506,2.361-2.506-2.9-.011-3.32-1.739,2.637-2.056,2.637-2.056-2.654.114-2.4-1.454c.306-1.887,5.222-1.544,7.577-2.467.535-.21,10.537-5.019,10.537-5.019Z" transform="translate(-234.299 -70.355)" fill="#eb9481"/>
            <path id="Trazado_162106" data-name="Trazado 162106" d="M440.486,147.868c3.616.243,5.24-.276,8.378-1.973.061-.033.124.05.063.091-2.921,1.942-4.864,2.887-8.462,2.057-.176-.041-.151-.186.021-.175" transform="translate(-236.947 -78.501)" fill="#263238"/>
            <path id="Trazado_162107" data-name="Trazado 162107" d="M441.943,155.747a19.108,19.108,0,0,0,8.961-2.159c.049-.022.09.058.043.084-3.226,1.788-5.186,2.686-8.971,2.265-.171-.019-.207-.187-.034-.19" transform="translate(-237.746 -82.643)" fill="#263238"/>
            <path id="Trazado_162108" data-name="Trazado 162108" d="M445.023,163.568a17.142,17.142,0,0,0,8.741-2.771.067.067,0,0,1,.077.11,12.164,12.164,0,0,1-8.8,2.771c-.229-.011-.252-.089-.022-.11" transform="translate(-239.378 -86.518)" fill="#263238"/>
            <path id="Trazado_162109" data-name="Trazado 162109" d="M460.143,124.646a44.412,44.412,0,0,0-6.54-.367c-2.034.192-9.351,3.694-8.684,5.317.861,2.1,5.483.905,7.671.027,0,0,1.987,4.85,5.489,4.714s2.064-9.691,2.064-9.691" transform="translate(-239.385 -66.852)" fill="#eb9481"/>
            <path id="Trazado_162110" data-name="Trazado 162110" d="M445.867,136.1c2.164,1.345,4.961.006,7.147-.688a.21.21,0,0,1,.283.2c.969,1.977,2.91,4.484,5.208,4.838a.053.053,0,0,1-.007.106c-2.515-.045-4.624-2.352-5.546-4.586-2.231.746-5.095,1.966-7.1.152-.012-.011,0-.029.014-.02" transform="translate(-239.909 -72.858)" fill="#263238"/>
            <path id="Trazado_162111" data-name="Trazado 162111" d="M474.19,85.736,483.1,99.681s13.726-8.857,14.628-12.489,1.661-18.873.061-28.235c-1.589-9.3-5.05-5.905-6.671-.044-1.676,6.063-6.058,20.852-6.277,21s-10.647,5.826-10.647,5.826" transform="translate(-255.159 -28.617)" fill="#455a64"/>
            <path id="Trazado_162112" data-name="Trazado 162112" d="M480.71,122.19c-.026-.045.046-.09.077-.048a128.3,128.3,0,0,1,7.674,11.676c.026.044-.047.09-.077.049a128.132,128.132,0,0,1-7.674-11.676" transform="translate(-258.664 -65.715)" fill="#263238"/>
            <g id="Grupo_169663" data-name="Grupo 169663" transform="translate(230.993 24.563)" opacity="0.1">
              <g id="Grupo_169662" data-name="Grupo 169662">
                <g id="Grupo_169661" data-name="Grupo 169661" clip-path="url(#clip-path-8)">
                  <path id="Trazado_162113" data-name="Trazado 162113" d="M511.658,87.19c-.626,2.528-7.471,7.589-11.57,10.431l8.061-44.269c1.348-.7,2.728.649,3.572,5.6,1.6,9.364.84,24.606-.064,28.237" transform="translate(-500.088 -53.178)"/>
                </g>
              </g>
            </g>
            <path id="Trazado_162114" data-name="Trazado 162114" d="M516.236,88.36l30.206-5.25a5.359,5.359,0,0,0,.078-4.2c-3.683-8.315-15.292-28.144-23.893-30.677-1.836-.541-6.168.354-7.191,2.535C512.93,56.12,512.916,78.285,514.106,86c.235,1.527,2.045,2.3,2.13,2.359" transform="translate(-276.225 -25.874)" fill="#455a64"/>
            <path id="Trazado_162115" data-name="Trazado 162115" d="M516.522,48.331c1.74-.171,3.659-3.577,4.066-5.945.027-.162-.676-1.531-1.452-3.234-.466-1.036-.962-2.2-1.337-3.295L511.5,39.88a18.466,18.466,0,0,1,2.1,3.976,2.551,2.551,0,0,1,.107.466.789.789,0,0,0,.016.078c.153.9,1.108,4.1,2.79,3.932" transform="translate(-275.238 -19.295)" fill="#eb9481"/>
            <path id="Trazado_162116" data-name="Trazado 162116" d="M511.5,40.016A18.365,18.365,0,0,1,513.606,44a2.369,2.369,0,0,1,.106.464.4.4,0,0,0,.017.075,3.819,3.819,0,0,0,.719-.2c3.963-1.46,3.395-6.792,3.164-8.219Z" transform="translate(-275.235 -19.431)" fill="#263238"/>
            <path id="Trazado_162117" data-name="Trazado 162117" d="M507.4,14.659c1.735,2.056,3.414,9.426,2.383,11.671-1.493,3.254-5.4,5.176-8.53,3.048-3.036-2.063-5.054-11.706-3.767-13.9,1.895-3.225,7.35-3.861,9.913-.823" transform="translate(-267.482 -6.828)" fill="#eb9481"/>
            <path id="Trazado_162118" data-name="Trazado 162118" d="M525.839,40.814s0,0,0,0" transform="translate(-282.951 -21.96)" fill="none" stroke="#d3766a" stroke-linecap="round" stroke-linejoin="round" stroke-width="0"/>
            <path id="Trazado_162119" data-name="Trazado 162119" d="M508.566,32.512c0-.019.044.015.047.036.086.5.269,1.055.751,1.127.015,0,.019.028,0,.029-.563.036-.8-.705-.8-1.191" transform="translate(-273.657 -17.492)" fill="#263238"/>
            <path id="Trazado_162120" data-name="Trazado 162120" d="M508.9,31.177c.784-.224,1.175,1.36.449,1.568s-1.106-1.38-.449-1.568" transform="translate(-273.656 -16.764)" fill="#263238"/>
            <path id="Trazado_162121" data-name="Trazado 162121" d="M502.059,34.044c-.008-.018-.033.033-.027.053.137.487.212,1.068-.192,1.34-.012.008-.005.033.011.026.523-.21.416-.98.209-1.419" transform="translate(-270.034 -18.317)" fill="#263238"/>
            <path id="Trazado_162122" data-name="Trazado 162122" d="M500.555,33.166c-.8.135-.475,1.734.27,1.608s.4-1.722-.27-1.608" transform="translate(-269.095 -17.844)" fill="#263238"/>
            <path id="Trazado_162123" data-name="Trazado 162123" d="M508.592,28.162a6.317,6.317,0,0,1-.667-.065,1.08,1.08,0,0,1-.667-.2.346.346,0,0,1-.047-.419.856.856,0,0,1,.817-.292,1.253,1.253,0,0,1,.833.354.368.368,0,0,1-.269.617" transform="translate(-272.901 -14.629)" fill="#263238"/>
            <path id="Trazado_162124" data-name="Trazado 162124" d="M498.743,30.3a6.355,6.355,0,0,0,.589-.319,1.081,1.081,0,0,0,.539-.44.346.346,0,0,0-.12-.4.855.855,0,0,0-.866.048,1.257,1.257,0,0,0-.63.65.368.368,0,0,0,.488.464" transform="translate(-268.093 -15.627)" fill="#263238"/>
            <path id="Trazado_162125" data-name="Trazado 162125" d="M511.049,41.606c-.06.158-.1.357-.26.449a1.337,1.337,0,0,1-.546.115.018.018,0,0,0-.009.033.68.68,0,0,0,.7-.023.537.537,0,0,0,.171-.573c-.005-.03-.045-.023-.054,0" transform="translate(-274.549 -22.377)" fill="#263238"/>
            <path id="Trazado_162126" data-name="Trazado 162126" d="M505.841,33.315a1.722,1.722,0,0,1-.932,1.019,2.17,2.17,0,0,1-.594.176c-.04.009-.188.023-.23.025a.126.126,0,0,1-.126-.085v0c0-.018-.227-1.057-.227-1.057-.121.1-.747.594-.784.394a25.917,25.917,0,0,1-.6-5.218.047.047,0,0,1,.093-.009c.357,1.582.433,3.216.767,4.812a3.015,3.015,0,0,1,.73-.434c.03,0,.245,1.3.251,1.314a2.387,2.387,0,0,0,1.6-.964c.03-.037.077-.013.057.033" transform="translate(-270.307 -15.345)" fill="#263238"/>
            <g id="Grupo_169666" data-name="Grupo 169666" transform="translate(238.125 6.536)" opacity="0.2">
              <g id="Grupo_169665" data-name="Grupo 169665">
                <g id="Grupo_169664" data-name="Grupo 169664" clip-path="url(#clip-path-9)">
                  <path id="Trazado_162127" data-name="Trazado 162127" d="M517.346,19.02c.565.637,1.809,2.167,2.2,2.164-.553-2.553-1.343-4.765-2.439-5.9a5.319,5.319,0,0,0-1.578-1.13c.186.67,1.219,4.2,1.817,4.868" transform="translate(-515.529 -14.152)" fill="#263238"/>
                </g>
              </g>
            </g>
            <path id="Trazado_162128" data-name="Trazado 162128" d="M502.582,20.593a2.568,2.568,0,0,0,2.456.46,2.62,2.62,0,0,0,1.722-1.881.02.02,0,0,1,.04.007,2.593,2.593,0,0,1-1.691,2.07,2.643,2.643,0,0,1-2.569-.608c-.029-.028.01-.075.042-.048" transform="translate(-270.409 -10.308)" fill="#263238"/>
            <path id="Trazado_162129" data-name="Trazado 162129" d="M502.868,7.724a4.042,4.042,0,0,1,3.663,1.266,2.877,2.877,0,0,1,.594,1.8c0,.026-.053.03-.055,0a3.161,3.161,0,0,0-1.953-2.563,4.074,4.074,0,0,0-3.624.185,2.581,2.581,0,0,0-1.176,1.329c-.019.058-.135.042-.121-.016a3.123,3.123,0,0,1,2.672-2.007" transform="translate(-269.152 -4.131)" fill="#263238"/>
            <path id="Trazado_162130" data-name="Trazado 162130" d="M488.707,14.506a3.278,3.278,0,0,1,1.078-1.974,4.53,4.53,0,0,1,2.86-.875.022.022,0,0,1,0,.043,4.527,4.527,0,0,0-2.476.719,3.225,3.225,0,0,0-1.2,1.8,3.141,3.141,0,0,0,1.944,3.625,3.191,3.191,0,0,0,2.524-.174c.03-.016.062.027.031.044a3.209,3.209,0,0,1-4.762-3.206" transform="translate(-262.956 -6.273)" fill="#263238"/>
            <path id="Trazado_162131" data-name="Trazado 162131" d="M504.582,14.435s.928-2.864-.5-4.176c-.811-.743-2.976-.243-2.976-.243a4,4,0,0,0-2.81-1.227,7.237,7.237,0,0,0-3.889,1.358,3.71,3.71,0,0,0-3.376.531,3.429,3.429,0,0,0,1.336,5.811c1.741.5,3.668-1.308,3.668-1.308.214-.008,2.587.9,3.869-1.3,0,0,1.525.938,2.562-.092a1.939,1.939,0,0,0,2.118.642" transform="translate(-263.613 -4.727)" fill="#263238"/>
            <path id="Trazado_162132" data-name="Trazado 162132" d="M521.2,28.346s.656-2.859,1.892-2.713,1.372,3.852.364,4.774a1.3,1.3,0,0,1-1.88.006Z" transform="translate(-280.456 -13.79)" fill="#eb9481"/>
            <path id="Trazado_162133" data-name="Trazado 162133" d="M524.06,27.939c.018-.009.033.016.019.029a3.293,3.293,0,0,0-.8,2.548.719.719,0,0,1,.924-.586c.028.007.021.049,0,.054a.8.8,0,0,0-.712.59,3.872,3.872,0,0,0-.124.819c-.009.09-.159.1-.165.007v-.022c-.45-1.053-.227-2.872.87-3.44" transform="translate(-281.408 -15.033)" fill="#263238"/>
            <path id="Trazado_162134" data-name="Trazado 162134" d="M537.508,51.1c9.625,7.972,18.3,20.611,18.3,28.07,0,5.814-5.389,2.651-6.446,1.877-3.5-2.563-10.792-15.592-13.8-24.016-2.741-7.687-.441-7.9,1.939-5.931" transform="translate(-287.517 -26.932)" fill="#455a64"/>
            <path id="Trazado_162135" data-name="Trazado 162135" d="M547.893,87.862c-.491-.942-1-1.873-1.475-2.82l-1.46-2.825c-.963-1.888-1.942-3.768-2.875-5.671-.97-1.885-1.9-3.79-2.818-5.7q-.695-1.429-1.354-2.875c-.456-.957-.868-1.933-1.289-2.908a57.253,57.253,0,0,0,2.283,5.949c.85,1.948,1.782,3.857,2.718,5.763.973,1.887,1.947,3.775,2.987,5.626s2.107,3.689,3.282,5.459" transform="translate(-288.753 -35.011)" fill="#263238"/>
            <path id="Trazado_162136" data-name="Trazado 162136" d="M537.276,68.261a8.984,8.984,0,0,0-.581-.978c-.108-.153-.208-.31-.322-.461s-.218-.307-.348-.456a2.87,2.87,0,0,0,.456,1.06,3.161,3.161,0,0,0,.795.835" transform="translate(-288.432 -35.712)" fill="#263238"/>
            <path id="Trazado_162137" data-name="Trazado 162137" d="M519.068,74.59a4.237,4.237,0,0,0,4.489-1.719,6.976,6.976,0,0,0,.631-5.108c-.431-2.507-1.145-4.947-.937-7.517.176-2.133.781-4.489-.25-6.511-.006-.014-.018-.03-.023-.044a3.255,3.255,0,0,0-4.3-1.979c-2.121.75-3.138,2.947-3.577,5a29.72,29.72,0,0,0,.528,14.012c.515,1.777,1.542,3.394,3.436,3.866" transform="translate(-276.853 -27.715)" fill="#ffc727"/>
            <g id="Grupo_169669" data-name="Grupo 169669" transform="translate(237.654 23.791)" opacity="0.3">
              <g id="Grupo_169668" data-name="Grupo 169668">
                <g id="Grupo_169667" data-name="Grupo 169667" clip-path="url(#clip-path-10)">
                  <path id="Trazado_162138" data-name="Trazado 162138" d="M519.068,74.59a4.237,4.237,0,0,0,4.489-1.719,6.976,6.976,0,0,0,.631-5.108c-.431-2.507-1.145-4.947-.937-7.517.176-2.133.781-4.489-.25-6.511-.006-.014-.018-.03-.023-.044a3.255,3.255,0,0,0-4.3-1.979c-2.121.75-3.138,2.947-3.577,5a29.72,29.72,0,0,0,.528,14.012c.515,1.777,1.542,3.394,3.436,3.866" transform="translate(-514.507 -51.506)"/>
                </g>
              </g>
            </g>
            <g id="Grupo_169672" data-name="Grupo 169672" transform="translate(238.69 24.38)" opacity="0.1">
              <g id="Grupo_169671" data-name="Grupo 169671">
                <g id="Grupo_169670" data-name="Grupo 169670" clip-path="url(#clip-path-11)">
                  <path id="Trazado_162139" data-name="Trazado 162139" d="M529.36,61.295a18.576,18.576,0,0,0-1.235-8.129.041.041,0,0,1,.07-.04c3.02,4.136.719,10.117,1.724,14.782.012.055-.082.08-.1.025a23.179,23.179,0,0,1-.462-6.638" transform="translate(-522.869 -52.958)"/>
                  <path id="Trazado_162140" data-name="Trazado 162140" d="M529.771,92.394a8.429,8.429,0,0,0,1.134-5.144c0-.03.04-.034.046-.005a6.137,6.137,0,0,1-1.05,5.225c-.052.064-.172,0-.13-.075" transform="translate(-523.752 -71.315)"/>
                  <path id="Trazado_162141" data-name="Trazado 162141" d="M517.243,69.249a26.408,26.408,0,0,1-.46-6.8c.1-2.888.336-8.288,3.517-9.667.027-.012.053.03.027.047-2.935,1.916-3.106,6.518-3.206,9.669-.122,3.809,0,8.486,2.437,11.649.053.069-.044.174-.111.111-1.323-1.22-1.816-3.312-2.2-5.009" transform="translate(-516.75 -52.781)"/>
                  <path id="Trazado_162142" data-name="Trazado 162142" d="M523.338,63.451c-.126-3.46-.179-7.394,1.236-10.615a.008.008,0,0,1,.014.006,21.65,21.65,0,0,0-.822,5.542,48.085,48.085,0,0,0-.06,5.688,54.316,54.316,0,0,0,1.579,10.483c.032.128-.092.133-.132.006a42.755,42.755,0,0,1-1.815-11.111" transform="translate(-520.263 -52.808)"/>
                  <path id="Trazado_162143" data-name="Trazado 162143" d="M521.21,79.062c0-.087.131-.108.138-.016a33.282,33.282,0,0,0,1.373,7.682.064.064,0,0,1-.118.048,16.9,16.9,0,0,1-1.393-7.714" transform="translate(-519.15 -66.882)"/>
                </g>
              </g>
            </g>
            <path id="Trazado_162144" data-name="Trazado 162144" d="M528.22,81.025a4.236,4.236,0,0,0,4.686-1.074,6.977,6.977,0,0,0,1.34-4.969c-.076-2.543-.441-5.059.124-7.573.473-2.088,1.4-4.335.664-6.482,0-.014-.013-.033-.017-.047a3.255,3.255,0,0,0-3.977-2.561c-2.2.446-3.52,2.479-4.242,4.45a29.712,29.712,0,0,0-1.439,13.948c.26,1.832,1.051,3.577,2.861,4.309" transform="translate(-282.546 -31.343)" fill="#ffc727"/>
            <g id="Grupo_169675" data-name="Grupo 169675" transform="translate(242.54 26.905)" opacity="0.4">
              <g id="Grupo_169674" data-name="Grupo 169674">
                <g id="Grupo_169673" data-name="Grupo 169673" clip-path="url(#clip-path-12)">
                  <path id="Trazado_162145" data-name="Trazado 162145" d="M528.22,81.025a4.236,4.236,0,0,0,4.686-1.074,6.977,6.977,0,0,0,1.34-4.969c-.076-2.543-.441-5.059.124-7.573.473-2.088,1.4-4.335.664-6.482,0-.014-.013-.033-.017-.047a3.255,3.255,0,0,0-3.977-2.561c-2.2.446-3.52,2.479-4.242,4.45a29.712,29.712,0,0,0-1.439,13.948c.26,1.832,1.051,3.577,2.861,4.309" transform="translate(-525.086 -58.248)"/>
                </g>
              </g>
            </g>
            <g id="Grupo_169678" data-name="Grupo 169678" transform="translate(243.456 27.415)" opacity="0.1">
              <g id="Grupo_169677" data-name="Grupo 169677">
                <g id="Grupo_169676" data-name="Grupo 169676" clip-path="url(#clip-path-13)">
                  <path id="Trazado_162146" data-name="Trazado 162146" d="M541.867,68.475a18.576,18.576,0,0,0-.085-8.222.041.041,0,0,1,.075-.03c2.411,4.519-.7,10.118-.363,14.878,0,.056-.093.067-.1.011a23.184,23.184,0,0,1,.472-6.637" transform="translate(-534.729 -59.81)"/>
                  <path id="Trazado_162147" data-name="Trazado 162147" d="M537.631,99.508a8.43,8.43,0,0,0,1.843-4.935.023.023,0,0,1,.047,0,6.139,6.139,0,0,1-1.772,5.026c-.06.056-.171-.022-.118-.093" transform="translate(-532.744 -78.292)"/>
                  <path id="Trazado_162148" data-name="Trazado 162148" d="M527.128,75.228a26.389,26.389,0,0,1,.5-6.8c.5-2.846,1.493-8.159,4.836-9.08.029-.008.048.036.02.05-3.174,1.486-3.988,6.019-4.528,9.125-.654,3.755-1.185,8.4.782,11.876.043.076-.068.166-.126.095-1.139-1.394-1.334-3.534-1.48-5.268" transform="translate(-527.068 -59.351)"/>
                  <path id="Trazado_162149" data-name="Trazado 162149" d="M534.2,69.973c.359-3.444.858-7.346,2.71-10.337.005-.009.018,0,.013.008a21.626,21.626,0,0,0-1.589,5.372,48.146,48.146,0,0,0-.856,5.624,54.3,54.3,0,0,0,.1,10.6c.014.132-.11.119-.132-.012a42.753,42.753,0,0,1-.242-11.255" transform="translate(-530.766 -59.502)"/>
                  <path id="Trazado_162150" data-name="Trazado 162150" d="M531.5,84.931c.013-.086.145-.089.14,0a33.275,33.275,0,0,0,.284,7.8.064.064,0,0,1-.124.031,16.9,16.9,0,0,1-.3-7.833" transform="translate(-529.283 -73.081)"/>
                </g>
              </g>
            </g>
            <path id="Trazado_162151" data-name="Trazado 162151" d="M487.534,64.852c.988.329,4.85,1.759,3.957,2.919-.079.1-.716.21-.838.3-.824.551-.552,1.492.125,2.047,1.42,1.159,3.548,1.508,4.947,2.68a25.754,25.754,0,0,1,4.63,4.789c-.006.038.214.319.26.154.229-.788-1-8.048-1.868-10.959-.248-.845-.739-2.292-1.812-2.425-.905-.11-.863.731-1.014,1.37-.96-.63-1.645-2.427-2.181-3.313a17.419,17.419,0,0,0-1.939-2.734c-.8-.888-2.509-2.63-3.888-2.182-1.024.333.329,2-.622,2.423-.23.1-.86-.193-1.264-.265-.157-.03-2.752-1.146-3.5,0-1.836,2.829,3.265,4.61,5.007,5.2" transform="translate(-259.434 -30.899)" fill="#37474f"/>
            <path id="Trazado_162152" data-name="Trazado 162152" d="M494.033,66.65a34.463,34.463,0,0,0-6.782-2.393s0,0,0,0a20.826,20.826,0,0,1,6.156,1.889,29.1,29.1,0,0,0-4.058-2.808c-.1-.056-.086-.141.02-.085a30.4,30.4,0,0,1,7.135,5.209,39.047,39.047,0,0,0-4.574-6.572c-.036-.04.03-.1.068-.064a22.691,22.691,0,0,1,4.981,7.112,27.716,27.716,0,0,1,4.214,5.58c-.289-1.625-.527-3.231-.973-4.836-.018-.064.076-.1.1-.038A18.49,18.49,0,0,1,501.463,75a24.969,24.969,0,0,1,1.764,4.057.015.015,0,0,1-.028.011,37.275,37.275,0,0,0-2.388-4.535c-1.778-1.621-4.411-2.546-6.614-3.269-.018-.006-.009-.036.01-.032a16.418,16.418,0,0,1,4.358,1.564,14.571,14.571,0,0,1,1.805,1.048,32.246,32.246,0,0,0-6.336-7.194" transform="translate(-262.186 -33.26)" fill="#263238"/>
            <path id="Trazado_162153" data-name="Trazado 162153" d="M535.263,99.15c1.248-.63,7.413-3.413,7.6-3.674s-3.374-9.868-3.48-10.69-.9-12.037-.86-12.221-.443.51-.488.5-.322-.716-.375-.754-.31.579-.363.607-.319-.636-.4-.651-.44.657-.482.667-.652-.817-.744-.767-.349.667-.416.7-.3-.623-.381-.654-.244.547-.311.579-.475-.485-.528-.523-.349.539-.415.57-.413-.6-.518-.607-.334.607-.394.6-.448-.365-.585-.383-.295.517-.337.589-.587-.39-.655-.37-.13.534-.183.558-.43-.351-.486-.338.007.557-.031.582-.364-.379-.412-.4a5.332,5.332,0,0,0-.222.886s2.01,12.4,2.318,13.779,3.143,11.412,3.143,11.412" transform="translate(-285.084 -38.834)" fill="#ffc727"/>
            <g id="Grupo_169681" data-name="Grupo 169681" transform="translate(244.718 33.335)" opacity="0.1">
              <g id="Grupo_169680" data-name="Grupo 169680">
                <g id="Grupo_169679" data-name="Grupo 169679" clip-path="url(#clip-path-14)">
                  <path id="Trazado_162154" data-name="Trazado 162154" d="M535.263,99.15c1.248-.63,7.413-3.413,7.6-3.674s-3.374-9.868-3.48-10.69-.9-12.037-.86-12.221-.443.51-.488.5-.322-.716-.375-.754-.31.579-.363.607-.319-.636-.4-.651-.44.657-.482.667-.652-.817-.744-.767-.349.667-.416.7-.3-.623-.381-.654-.244.547-.311.579-.475-.485-.528-.523-.349.539-.415.57-.413-.6-.518-.607-.334.607-.394.6-.448-.365-.585-.383-.295.517-.337.589-.587-.39-.655-.37-.13.534-.183.558-.43-.351-.486-.338.007.557-.031.582-.364-.379-.412-.4a5.332,5.332,0,0,0-.222.886s2.01,12.4,2.318,13.779,3.143,11.412,3.143,11.412" transform="translate(-529.802 -72.169)"/>
                </g>
              </g>
            </g>
            <path id="Trazado_162155" data-name="Trazado 162155" d="M513.091,74.819c-.034.544,3.1,16.468,3.7,18.16s2.018,7.179,1.795,7.319-12.574,1.834-12.79,1.971S502.255,88.189,502,87.308s-3.2-9.289-3.2-9.289a5.6,5.6,0,0,0,.981.45c.112-.025.389-.534.491-.78s.43.479.551.5.437-.667.548-.787.583.422.644.431.2-.762.346-.817.571.542.72.509.286-.861.4-.885.795.537.888.515.255-.939.385-.968.728.7.859.667.237-1.08.4-1.05.7.736.768.677.306-.773.385-.855.68.591.736.579.273-.977.329-.989.878.788.943.729.271-.976.34-1.014.553.635.609.623a6.965,6.965,0,0,0,.257-.817c.023-.027.455.546.483.54s.128-.609.172-.63.331.473.389.471.183-.624.241-.669.339.506.395.493.371-.574.408-.582.146.347.188.36.4-.412.445-.412-.012.516-.012.516" transform="translate(-268.404 -39.982)" fill="#ffc727"/>
            <path id="Trazado_162156" data-name="Trazado 162156" d="M551.072,105.351c-2.55,2.132-7.386,2.144-20.531,1.212-1.819-.129-4.362-13.21-2.413-13.173,2.456.048,11.974.765,12.664.905,5.815,1.184,12.01,9.609,10.28,11.056" transform="translate(-283.805 -50.253)" fill="#eb9481"/>
            <path id="Trazado_162157" data-name="Trazado 162157" d="M538.3,92.818,542.86,108s13.752-.167,14.4-3.45c.588-2.984-5.057-9.135-9.229-10.493-1.739-.566-9.731-1.234-9.731-1.234" transform="translate(-289.656 -49.945)" fill="#455a64"/>
            <path id="Trazado_162158" data-name="Trazado 162158" d="M538.407,93.292l-.127-.513-.027.034c1.361.172,2.722.334,4.079.519s2.714.364,4.053.616a15.361,15.361,0,0,1,1.976.462,11.9,11.9,0,0,1,1.85.816,12.939,12.939,0,0,1,3.187,2.53,10.78,10.78,0,0,0-3.041-2.781,9.675,9.675,0,0,0-1.883-.895,15.736,15.736,0,0,0-2.018-.509c-1.358-.244-2.722-.412-4.088-.552-1.368-.121-2.737-.22-4.111-.26h-.04l.012.036Z" transform="translate(-289.612 -49.913)" fill="#263238"/>
            <path id="Trazado_162159" data-name="Trazado 162159" d="M547.181,96.88c.181.772.428,1.533.654,2.293s.46,1.52.7,2.276c.487,1.511.982,3.019,1.5,4.522.141.411.283.822.431,1.23.159.437.372.855.526,1.292a.028.028,0,0,0,.054-.018c-.113-.373-.173-.763-.279-1.14s-.227-.777-.347-1.163q-.354-1.137-.717-2.272c-.485-1.511-.978-3.022-1.512-4.517-.3-.844-.582-1.705-.933-2.531a.041.041,0,0,0-.077.026" transform="translate(-294.435 -52.102)" fill="#263238"/>
            <path id="Trazado_162160" data-name="Trazado 162160" d="M498.467,93.427a2,2,0,0,0,.741,2.156,2.964,2.964,0,0,0-1.008,1.744c-.157,1.21,1.67,1.988,1.67,1.988a3.653,3.653,0,0,0-.77,2.009c-.035,1.173,1.7,2.221,1.7,2.221a3.2,3.2,0,0,0,.436,2.193c1.149,1.706,4.289,1.6,6.285,1.551s7.615-2.054,8.724-2.327l-.2-12.817s-9.014-2.333-11.354-1.943c-1.971.328-5.745,1.742-6.227,3.225" transform="translate(-268.074 -48.514)" fill="#eb9481"/>
            <path id="Trazado_162161" data-name="Trazado 162161" d="M500.544,99.828a26.082,26.082,0,0,1,6.3-1.394.038.038,0,0,1,.011.074c-2.13.305-4.172,1.03-6.286,1.42a.053.053,0,0,1-.029-.1" transform="translate(-269.324 -52.966)" fill="#263238"/>
            <path id="Trazado_162162" data-name="Trazado 162162" d="M501.86,108.987a5.7,5.7,0,0,1,1.467-.256q.788-.082,1.577-.138c1.054-.075,2.11-.127,3.166-.147.047,0,.06.071.011.074-1.051.077-2.1.169-3.146.29q-.786.091-1.569.194a6.784,6.784,0,0,1-1.485.126.076.076,0,0,1-.021-.143" transform="translate(-270.025 -58.354)" fill="#263238"/>
            <path id="Trazado_162163" data-name="Trazado 162163" d="M503.915,118.6a3.967,3.967,0,0,1,1.333-.16q.721-.037,1.442-.081c.961-.06,1.922-.119,2.881-.212.048,0,.059.069.011.074-.973.1-1.945.212-2.919.3q-.718.067-1.436.126a3.728,3.728,0,0,1-1.31,0,.027.027,0,0,1,0-.049" transform="translate(-271.146 -63.576)" fill="#263238"/>
            <path id="Trazado_162164" data-name="Trazado 162164" d="M548.174,112.8a69.531,69.531,0,0,0,11.443-1.711,6.935,6.935,0,0,0,2.537-1.148c1.295-1.405.956-3.622.731-5.38a19.815,19.815,0,0,0-.679-2.815,14.342,14.342,0,0,1,1.221,5.69,3.473,3.473,0,0,1-2.288,3.6c-4.122,1.535-8.617,1.685-12.965,1.764" transform="translate(-294.969 -54.748)" fill="#263238"/>
          </g>
        </g>
        <g id="Grupo_169730" data-name="Grupo 169730">
          <g id="Grupo_169729" data-name="Grupo 169729" clip-path="url(#clip-path)">
            <path id="Trazado_162165" data-name="Trazado 162165" d="M91.778,161.093s-3.939-1.646-4.529-2.57-3.149-4.817-4.048-4.968c-3.375-.567-12.591-.224-15.686,1.44-1.694.911.092,7.646,1.647,9.226s12.665,1.907,14.46,1.545a6.036,6.036,0,0,0,3.12-2.207l4.421,1.231Z" transform="translate(-35.96 -82.491)" fill="#ffc727"/>
            <path id="Trazado_162166" data-name="Trazado 162166" d="M115.545,159.435s-2.994.435-3.717,1.062-2.994,5.649-2.849,7.387,1.979,3.524,1.979,3.524Z" transform="translate(-58.638 -85.791)" fill="#ffc727"/>
            <g id="Grupo_169686" data-name="Grupo 169686" transform="translate(50.335 73.644)" opacity="0.1">
              <g id="Grupo_169685" data-name="Grupo 169685">
                <g id="Grupo_169684" data-name="Grupo 169684" clip-path="url(#clip-path-16)">
                  <path id="Trazado_162167" data-name="Trazado 162167" d="M115.545,159.435s-2.994.435-3.717,1.062-2.994,5.649-2.849,7.387,1.979,3.524,1.979,3.524Z" transform="translate(-108.973 -159.435)"/>
                </g>
              </g>
            </g>
            <path id="Trazado_162168" data-name="Trazado 162168" d="M439.521,161.093s3.939-1.646,4.529-2.57,3.149-4.817,4.048-4.968c3.375-.567,12.591-.224,15.686,1.44,1.694.911-.092,7.646-1.647,9.226s-12.665,1.907-14.46,1.545a6.037,6.037,0,0,1-3.12-2.207l-4.421,1.231Z" transform="translate(-236.504 -82.491)" fill="#ffc727"/>
            <path id="Trazado_162169" data-name="Trazado 162169" d="M437.161,159.435s2.993.435,3.717,1.062,2.994,5.649,2.849,7.387-1.979,3.524-1.979,3.524Z" transform="translate(-235.234 -85.791)" fill="#ffc727"/>
            <g id="Grupo_169689" data-name="Grupo 169689" transform="translate(201.927 73.644)" opacity="0.1">
              <g id="Grupo_169688" data-name="Grupo 169688">
                <g id="Grupo_169687" data-name="Grupo 169687" clip-path="url(#clip-path-17)">
                  <path id="Trazado_162170" data-name="Trazado 162170" d="M437.161,159.435s2.993.435,3.717,1.062,2.994,5.649,2.849,7.387-1.979,3.524-1.979,3.524Z" transform="translate(-437.161 -159.435)"/>
                </g>
              </g>
            </g>
            <path id="Trazado_162171" data-name="Trazado 162171" d="M94.747,316.542H76.821a5.2,5.2,0,0,1-5.2-5.2V262.666a5.2,5.2,0,0,1,5.2-5.2H94.747a5.2,5.2,0,0,1,5.2,5.2v48.677a5.2,5.2,0,0,1-5.2,5.2" transform="translate(-38.539 -138.542)" fill="#263238"/>
            <path id="Trazado_162172" data-name="Trazado 162172" d="M81.648,220.513s-6.566,3.348-8.111,6.438,0,35.019,0,37.465S78.294,282.827,79.2,284.5s13.393,3.605,13.393,3.605Z" transform="translate(-39.2 -118.657)" fill="#ffc727"/>
            <g id="Grupo_169692" data-name="Grupo 169692" transform="translate(33.65 101.856)" opacity="0.1">
              <g id="Grupo_169691" data-name="Grupo 169691">
                <g id="Grupo_169690" data-name="Grupo 169690" clip-path="url(#clip-path-18)">
                  <path id="Trazado_162173" data-name="Trazado 162173" d="M81.648,220.513s-6.566,3.348-8.111,6.438,0,35.019,0,37.465S78.294,282.827,79.2,284.5s13.393,3.605,13.393,3.605Z" transform="translate(-72.851 -220.513)"/>
                </g>
              </g>
            </g>
            <path id="Trazado_162174" data-name="Trazado 162174" d="M432.624,316.542H450.55a5.2,5.2,0,0,0,5.2-5.2V262.666a5.2,5.2,0,0,0-5.2-5.2H432.624a5.2,5.2,0,0,0-5.2,5.2v48.677a5.2,5.2,0,0,0,5.2,5.2" transform="translate(-229.995 -138.542)" fill="#263238"/>
            <path id="Trazado_162175" data-name="Trazado 162175" d="M455.721,220.513s6.566,3.348,8.111,6.438,0,35.019,0,37.465-4.757,18.411-5.662,20.085-13.393,3.605-13.393,3.605Z" transform="translate(-239.332 -118.657)" fill="#ffc727"/>
            <g id="Grupo_169695" data-name="Grupo 169695" transform="translate(205.445 101.856)" opacity="0.1">
              <g id="Grupo_169694" data-name="Grupo 169694">
                <g id="Grupo_169693" data-name="Grupo 169693" clip-path="url(#clip-path-19)">
                  <path id="Trazado_162176" data-name="Trazado 162176" d="M455.721,220.513s6.566,3.348,8.111,6.438,0,35.019,0,37.465-4.757,18.411-5.662,20.085-13.393,3.605-13.393,3.605Z" transform="translate(-444.777 -220.513)"/>
                </g>
              </g>
            </g>
            <path id="Trazado_162177" data-name="Trazado 162177" d="M265.413,207.856c-.064.837-2.9,12.811-4.059,14.031s-24.334,2.189-25.751,2.189-5.854-2.509-6.69-2.7-47.337-.064-53.022-.064-52.186-.133-53.022.064-5.279,2.7-6.7,2.7-24.589-.964-25.75-2.189-3.99-13.194-4.054-14.031.837-3.8.837-4.443-.691-45.5-.5-46.367,2.027-6.952,2.852-8.252,8.159-10.575,8.351-11.156c4.513-13.543,17.138-33.358,19.072-35.1a12.657,12.657,0,0,1,6.423-3.043c1.928-.238,28.05-1.2,52.488-1.2s50.56.964,52.488,1.2a12.679,12.679,0,0,1,6.423,3.043c1.928,1.742,14.554,21.557,19.072,35.1.192.581,7.532,9.85,8.351,11.156s2.654,7.387,2.845,8.252-.494,45.722-.494,46.367.9,3.606.836,4.443" transform="translate(-46.473 -52.89)" fill="#ffc727"/>
            <g id="Grupo_169698" data-name="Grupo 169698" transform="translate(45.518 137.379)" opacity="0.1">
              <g id="Grupo_169697" data-name="Grupo 169697">
                <g id="Grupo_169696" data-name="Grupo 169696" clip-path="url(#clip-path-20)">
                  <path id="Trazado_162178" data-name="Trazado 162178" d="M266.345,307.019c0,.772-1.045,6.783-1.725,6.952-18.648,4.64-63.435,8.537-82.176,8.229-18.741.308-63.528-3.589-82.176-8.229-.679-.169-1.725-6.179-1.725-6.952s.772-9.333,1.725-9.588,20.68,3.287,37.267,5.488a350.723,350.723,0,0,0,44.91,2.782,350.762,350.762,0,0,0,44.909-2.782c16.58-2.2,36.308-5.75,37.267-5.488s1.725,8.816,1.725,9.588" transform="translate(-98.543 -297.417)"/>
                </g>
              </g>
            </g>
            <g id="Grupo_169701" data-name="Grupo 169701" transform="translate(63.739 139.802)" opacity="0.5">
              <g id="Grupo_169700" data-name="Grupo 169700">
                <g id="Grupo_169699" data-name="Grupo 169699" clip-path="url(#clip-path-21)">
                  <path id="Trazado_162179" data-name="Trazado 162179" d="M269.351,302.664,263,320.725c-20.675,2.695-46.3,4.512-59.335,4.3-13.032.215-38.655-1.6-59.329-4.3l-6.348-18.061c6.411,1.011,13.862,2.16,20.767,3.078a350.726,350.726,0,0,0,44.91,2.782,350.765,350.765,0,0,0,44.909-2.782c6.905-.918,14.362-2.068,20.773-3.078" transform="translate(-137.992 -302.664)" fill="#fff"/>
                </g>
              </g>
            </g>
            <path id="Trazado_162180" data-name="Trazado 162180" d="M272.773,309.282c.093.43-3.473,7.515-6.162,11.731a18.616,18.616,0,0,1-5.552,4.344c-.906.192-12.016,3.206-33.2,3.206s-32.29-3.014-33.2-3.206a18.62,18.62,0,0,1-5.552-4.344c-2.689-4.216-6.255-11.3-6.162-11.731s13.374,2.782,44.909,2.782,44.828-3.211,44.909-2.782" transform="translate(-98.446 -166.402)" fill="#263238"/>
            <path id="Trazado_162181" data-name="Trazado 162181" d="M119.28,313.444a3.911,3.911,0,1,1-3.91-3.911,3.911,3.911,0,0,1,3.91,3.911" transform="translate(-59.975 -166.558)" fill="#fff"/>
            <path id="Trazado_162182" data-name="Trazado 162182" d="M112.512,310.587a4.222,4.222,0,0,1,7.174,2.765,4.267,4.267,0,0,1-4.409,4.412,4.223,4.223,0,0,1-2.765-7.177m0,0a3.631,3.631,0,1,0,5.326.2,3.648,3.648,0,0,0-5.326-.2" transform="translate(-59.883 -166.466)" fill="#dbdbdb"/>
            <path id="Trazado_162183" data-name="Trazado 162183" d="M431.054,313.444a3.911,3.911,0,1,0,3.911-3.911,3.911,3.911,0,0,0-3.911,3.911" transform="translate(-231.948 -166.558)" fill="#fff"/>
            <path id="Trazado_162184" data-name="Trazado 162184" d="M437.139,310.587a3.631,3.631,0,1,0-.206,5.324,3.65,3.65,0,0,0,.206-5.324m0,0a4.223,4.223,0,0,1-2.765,7.177,4.267,4.267,0,0,1-4.409-4.412,4.222,4.222,0,0,1,7.174-2.765" transform="translate(-231.357 -166.466)" fill="#dbdbdb"/>
            <path id="Trazado_162185" data-name="Trazado 162185" d="M267.9,139.9s-34.891,1.528-74.458,1.528-74.458-1.528-74.458-1.528c7.143-17.9,16.482-31.738,17.51-32.51a26.932,26.932,0,0,1,5.726-2.381c4.385-1.1,35.728-1.289,51.222-1.289s46.832.192,51.216,1.289a26.862,26.862,0,0,1,5.732,2.381c1.028.772,10.366,14.611,17.509,32.51" transform="translate(-64.026 -55.813)" fill="#455a64"/>
            <path id="Trazado_162186" data-name="Trazado 162186" d="M267.9,176.3s-34.891,1.528-74.458,1.528-74.458-1.528-74.458-1.528c.674-1.684,1.365-3.334,2.062-4.936,8.032.32,38.5,1.44,72.4,1.44s64.364-1.121,72.4-1.44c.7,1.6,1.388,3.252,2.062,4.936" transform="translate(-64.026 -92.211)" fill="#263238"/>
            <g id="Grupo_169704" data-name="Grupo 169704" transform="translate(65.093 60.27)" opacity="0.7">
              <g id="Grupo_169703" data-name="Grupo 169703">
                <g id="Grupo_169702" data-name="Grupo 169702" clip-path="url(#clip-path-22)">
                  <path id="Trazado_162187" data-name="Trazado 162187" d="M193.716,150.215H145a2.829,2.829,0,0,0-2.794,2.386l-1.247,7.861a2.829,2.829,0,0,0,2.794,3.272h51.211a2.829,2.829,0,0,0,2.794-3.272l-1.247-7.861a2.829,2.829,0,0,0-2.794-2.386" transform="translate(-140.923 -141.1)" fill="#263238"/>
                  <path id="Trazado_162188" data-name="Trazado 162188" d="M197.857,142.647H166.9a1.779,1.779,0,0,1-1.779-1.779v-8.607a1.779,1.779,0,0,1,1.779-1.78h30.959a1.779,1.779,0,0,1,1.779,1.78v8.607a1.779,1.779,0,0,1-1.779,1.779" transform="translate(-153.943 -130.481)" fill="#263238"/>
                </g>
              </g>
            </g>
            <g id="Grupo_169707" data-name="Grupo 169707" transform="translate(136.872 60.27)" opacity="0.7">
              <g id="Grupo_169706" data-name="Grupo 169706">
                <g id="Grupo_169705" data-name="Grupo 169705" clip-path="url(#clip-path-22)">
                  <path id="Trazado_162189" data-name="Trazado 162189" d="M349.113,150.215H300.4A2.829,2.829,0,0,0,297.6,152.6l-1.247,7.861a2.829,2.829,0,0,0,2.794,3.272H350.36a2.829,2.829,0,0,0,2.794-3.272l-1.247-7.861a2.829,2.829,0,0,0-2.794-2.386" transform="translate(-296.32 -141.1)" fill="#263238"/>
                  <path id="Trazado_162190" data-name="Trazado 162190" d="M353.254,142.647H322.3a1.779,1.779,0,0,1-1.779-1.779v-8.607a1.779,1.779,0,0,1,1.779-1.78h30.959a1.779,1.779,0,0,1,1.779,1.78v8.607a1.779,1.779,0,0,1-1.779,1.779" transform="translate(-309.34 -130.481)" fill="#263238"/>
                </g>
              </g>
            </g>
            <path id="Trazado_162191" data-name="Trazado 162191" d="M353.9,169.5H305.617l4.621-6.574,19.519-1.037,19.519,1.037Z" transform="translate(-164.451 -87.113)" fill="#263238"/>
            <path id="Trazado_162192" data-name="Trazado 162192" d="M344.734,142.511a11.28,11.28,0,0,0-10.814,14.484,11.18,11.18,0,0,0,3.038,4.959c1.324-.023,2.619-.052,3.9-.081a9.023,9.023,0,0,1-4.5-4.925,8.925,8.925,0,0,1,.848-7.985,8.8,8.8,0,0,1,1.5-1.783,8.957,8.957,0,1,1,10.279,14.507c1.341-.035,2.648-.07,3.908-.1a11.275,11.275,0,0,0-8.154-19.072" transform="translate(-179.431 -76.684)" fill="#263238"/>
            <path id="Trazado_162193" data-name="Trazado 162193" d="M348.531,159.874l-8.456-6.7,1.443-1.82,7.013,5.56,7.013-5.56,1.443,1.82Z" transform="translate(-182.992 -81.44)" fill="#263238"/>
            <g id="Grupo_169710" data-name="Grupo 169710" transform="translate(59.303 47.945)" opacity="0.1">
              <g id="Grupo_169709" data-name="Grupo 169709">
                <g id="Grupo_169708" data-name="Grupo 169708" clip-path="url(#clip-path-24)">
                  <path id="Trazado_162194" data-name="Trazado 162194" d="M199.894,103.8l-36.976,36.976c-3.229-.081-6.214-.169-8.92-.25l36.645-36.645c3.13-.035,6.255-.064,9.251-.081" transform="translate(-142.168 -103.799)" fill="#fff"/>
                  <path id="Trazado_162195" data-name="Trazado 162195" d="M357.583,110.855,325.241,143.2c-3.02.041-6.127.081-9.292.116l35.943-35.943a22.86,22.86,0,0,1,4.483,1.986,10.577,10.577,0,0,1,1.208,1.5" transform="translate(-229.313 -105.721)" fill="#fff"/>
                  <path id="Trazado_162196" data-name="Trazado 162196" d="M416.9,161.24l-6.615,6.615c-2.677.093-5.865.2-9.478.3l13.149-13.148c.981,1.981,1.969,4.06,2.944,6.232" transform="translate(-274.973 -131.354)" fill="#fff"/>
                  <path id="Trazado_162197" data-name="Trazado 162197" d="M182.858,104.051l-36.517,36.517c-.471-.012-.923-.029-1.371-.041l36.46-36.459Z" transform="translate(-137.31 -103.935)" fill="#fff"/>
                  <path id="Trazado_162198" data-name="Trazado 162198" d="M277.36,103.918l-37.516,37.51-1.394-.017L275.96,103.9c.465.006.929.006,1.4.018" transform="translate(-187.611 -103.853)" fill="#fff"/>
                  <path id="Trazado_162199" data-name="Trazado 162199" d="M404.295,146.489l-16.737,16.737c-.476.012-.964.023-1.452.041l17.7-17.7q.244.454.488.923" transform="translate(-267.064 -126.274)" fill="#fff"/>
                  <path id="Trazado_162200" data-name="Trazado 162200" d="M153.968,105.182l-25.582,25.582c1.057-2.225,2.12-4.333,3.153-6.307l19.072-19.072c.97-.075,2.1-.145,3.357-.2" transform="translate(-128.386 -104.543)" fill="#fff"/>
                  <path id="Trazado_162201" data-name="Trazado 162201" d="M302.117,104.247l-37.424,37.424c-1.051,0-2.1-.006-3.136-.012l37.464-37.47c1.051.018,2.085.041,3.1.058" transform="translate(-200.046 -104.009)" fill="#fff"/>
                </g>
              </g>
            </g>
            <g id="Grupo_169713" data-name="Grupo 169713" transform="translate(47.719 84.091)" opacity="0.1">
              <g id="Grupo_169712" data-name="Grupo 169712">
                <g id="Grupo_169711" data-name="Grupo 169711" clip-path="url(#clip-path-25)">
                  <path id="Trazado_162202" data-name="Trazado 162202" d="M110.55,182.053a70.962,70.962,0,0,1-6.11,10.779c-.062.092-.182.275-.24.368-.121.4.335,1.219.577,1.643.344.616.75,1.21,1.147,1.82-.975-.774-3.241-2.679-2.452-4.067a57.714,57.714,0,0,1,7.078-10.543" transform="translate(-103.309 -182.053)"/>
                </g>
              </g>
            </g>
            <g id="Grupo_169716" data-name="Grupo 169716" transform="translate(203.876 84.091)" opacity="0.1">
              <g id="Grupo_169715" data-name="Grupo 169715">
                <g id="Grupo_169714" data-name="Grupo 169714" clip-path="url(#clip-path-25)">
                  <path id="Trazado_162203" data-name="Trazado 162203" d="M441.38,182.053a57.7,57.7,0,0,1,7.078,10.543c.788,1.391-1.474,3.289-2.452,4.067.4-.61.8-1.2,1.147-1.82.241-.422.7-1.248.578-1.643-.058-.092-.179-.275-.241-.368a70.979,70.979,0,0,1-6.11-10.779" transform="translate(-441.38 -182.053)"/>
                </g>
              </g>
            </g>
            <g id="Grupo_169719" data-name="Grupo 169719" transform="translate(41.4 101.267)" opacity="0.1">
              <g id="Grupo_169718" data-name="Grupo 169718">
                <g id="Grupo_169717" data-name="Grupo 169717" clip-path="url(#clip-path-27)">
                  <path id="Trazado_162204" data-name="Trazado 162204" d="M265.665,231.256c0,.819-.035,5.511-.673,5.894-1.783,1.069-9.652,3.56-14.56,4.466-22.974,4.239-56.373,6.626-72.785,6.353-16.412.273-49.811-2.114-72.785-6.353-4.907-.906-12.776-3.4-14.559-4.466-.639-.383-.673-5.075-.673-5.894s5.465-11.737,6.481-12.01,12.358,6.179,31.366,9.6c19.49,3.508,50.171,3.6,50.171,3.6s30.681-.093,50.171-3.6c19.008-3.42,30.35-9.3,31.366-9.019s6.481,10.61,6.481,11.429" transform="translate(-89.629 -219.237)"/>
                </g>
              </g>
            </g>
            <g id="Grupo_169722" data-name="Grupo 169722" transform="translate(42.074 119.18)" opacity="0.5">
              <g id="Grupo_169721" data-name="Grupo 169721">
                <g id="Grupo_169720" data-name="Grupo 169720" clip-path="url(#clip-path-28)">
                  <path id="Trazado_162205" data-name="Trazado 162205" d="M265.776,258.018c-6.556,3.5-13.849,5.323-21.134,6.575q-10.916,1.991-21.927,3.393c-14.689,1.84-29.454,3.325-44.284,3.3-24.061-.2-48.057-3.21-71.656-7.76a60.647,60.647,0,0,1-15.689-5.512,65.391,65.391,0,0,0,15.843,4.653c23.667,3.416,47.574,6.169,71.5,6.3,14.717.084,29.428-1.324,44.073-2.774,7.331-.787,14.656-1.66,21.955-2.714a94.084,94.084,0,0,0,10.862-1.906,67.941,67.941,0,0,0,10.454-3.556" transform="translate(-91.087 -258.018)" fill="#fff"/>
                </g>
              </g>
            </g>
            <path id="Trazado_162206" data-name="Trazado 162206" d="M100.276,214.533c3.961.367,22.772,12.048,23.565,13.009s2.7,10.621,1.515,11.567-15.4.463-19.684-.225-13.132-3.086-15.125-4.62-.464-12.332,1.492-14.494c2.514-2.779,5.7-5.472,8.237-5.237" transform="translate(-48.22 -115.431)" fill="#fff"/>
            <path id="Trazado_162207" data-name="Trazado 162207" d="M99.992,214.549a12.879,12.879,0,0,1,2.952.972c2.858,1.246,5.6,2.749,8.329,4.244,4.083,2.288,8.178,4.574,12.067,7.2a2.382,2.382,0,0,1,.952,1.424,29.609,29.609,0,0,1,.819,3.049,29.916,29.916,0,0,1,.829,6.276c-.032,1.21-.233,2.012-1.559,2.175a62.676,62.676,0,0,1-10.228.251,73.871,73.871,0,0,1-9.383-.808,64.418,64.418,0,0,1-13.494-4.108,5.2,5.2,0,0,1-1.4-.915c-1.153-1.855-.741-4.241-.611-6.3.413-2.795.787-5.814,2.4-8.2,2.189-2.23,4.977-5.306,8.331-5.263m0,0c-3.194,0-5.637,2.639-7.728,4.757a6.083,6.083,0,0,0-1.513,2.654,27.362,27.362,0,0,0-1.121,6.088,17.225,17.225,0,0,0,.149,4.59,2.081,2.081,0,0,0,1.094,1.679,53.965,53.965,0,0,0,11.051,3.37,61.827,61.827,0,0,0,12.271,1.295c2.067.08,4.138.127,6.2.1a19.188,19.188,0,0,0,4.344-.357c-.013.06.1-.139.127-.351a24.635,24.635,0,0,0-.533-6.777,20.17,20.17,0,0,0-.943-3.677c-.062-.183-.257-.288-.431-.449-3.772-2.73-7.764-5.17-11.766-7.564a85.889,85.889,0,0,0-8.258-4.364,12.759,12.759,0,0,0-2.943-.993" transform="translate(-47.937 -115.448)" fill="#dbdbdb"/>
            <path id="Trazado_162208" data-name="Trazado 162208" d="M121.145,239.38a5.462,5.462,0,1,1-9.174-4.008,5.476,5.476,0,0,1,9.174,4.008m0,0a4.876,4.876,0,1,0-8.468,3.3,4.888,4.888,0,0,0,8.468-3.3" transform="translate(-59.326 -125.87)" fill="#dbdbdb"/>
            <path id="Trazado_162209" data-name="Trazado 162209" d="M145.751,247.71a4.679,4.679,0,1,1-7.837-3.454,4.7,4.7,0,0,1,7.837,3.454m0,0a4.1,4.1,0,1,0-4.383,4.094,4.1,4.1,0,0,0,4.383-4.094" transform="translate(-73.408 -130.773)" fill="#dbdbdb"/>
            <path id="Trazado_162210" data-name="Trazado 162210" d="M98.548,224.106c-.606,1.758-1.252,10.32-.929,11.45a6.159,6.159,0,0,0,1.119,1.752c-3.55-.963-7.033-2.147-8.2-3.043-1.992-1.53-.462-12.329,1.5-14.493,2.509-2.782,5.7-5.475,8.234-5.235a17.352,17.352,0,0,1,4.6,1.736s-5.719,6.075-6.32,7.833" transform="translate(-48.219 -115.433)" fill="#ffc727"/>
            <g id="Grupo_169725" data-name="Grupo 169725" transform="translate(41.391 99.088)" opacity="0.2">
              <g id="Grupo_169724" data-name="Grupo 169724">
                <g id="Grupo_169723" data-name="Grupo 169723" clip-path="url(#clip-path-29)">
                  <path id="Trazado_162211" data-name="Trazado 162211" d="M98.548,224.1c-.606,1.758-1.252,10.321-.929,11.451a6.165,6.165,0,0,0,1.119,1.752c-3.55-.963-7.033-2.148-8.2-3.043-1.992-1.53-.462-12.33,1.5-14.494,2.509-2.782,5.7-5.475,8.234-5.236a17.354,17.354,0,0,1,4.6,1.736s-5.719,6.076-6.32,7.834" transform="translate(-89.61 -214.519)"/>
                </g>
              </g>
            </g>
            <path id="Trazado_162212" data-name="Trazado 162212" d="M418.013,214.533c-3.961.367-22.772,12.048-23.565,13.009s-2.7,10.621-1.515,11.567,15.4.463,19.684-.225,13.133-3.086,15.126-4.62.463-12.332-1.492-14.494c-2.514-2.779-5.7-5.472-8.237-5.237" transform="translate(-211.232 -115.431)" fill="#fff"/>
            <path id="Trazado_162213" data-name="Trazado 162213" d="M417.449,214.549a12.856,12.856,0,0,0-2.943.993,85.837,85.837,0,0,0-8.258,4.364c-4,2.395-7.995,4.834-11.767,7.564-.174.162-.369.266-.431.449a20.215,20.215,0,0,0-.943,3.677,24.634,24.634,0,0,0-.533,6.777c.03.212.14.411.127.351a2.472,2.472,0,0,0,.545.138,70.522,70.522,0,0,0,10,.119,61.815,61.815,0,0,0,12.27-1.295,53.932,53.932,0,0,0,11.051-3.37,2.076,2.076,0,0,0,1.094-1.679,17.243,17.243,0,0,0,.149-4.59,27.387,27.387,0,0,0-1.12-6.088,6.081,6.081,0,0,0-1.513-2.653c-2.089-2.12-4.536-4.759-7.728-4.757m0,0c3.358-.043,6.139,3.033,8.331,5.262,1.61,2.387,1.981,5.408,2.4,8.2.132,2.071.543,4.425-.611,6.3a5.184,5.184,0,0,1-1.4.914,64.365,64.365,0,0,1-13.494,4.108,95.285,95.285,0,0,1-15.645.864,27.876,27.876,0,0,1-3.966-.307,2.666,2.666,0,0,1-.936-.315,1.481,1.481,0,0,1-.543-1.007,23.428,23.428,0,0,1,.749-7.129,29.493,29.493,0,0,1,.819-3.049,2.38,2.38,0,0,1,.952-1.424c3.889-2.626,7.984-4.912,12.067-7.2,2.734-1.5,5.471-3,8.329-4.244a12.782,12.782,0,0,1,2.952-.972" transform="translate(-210.668 -115.448)" fill="#dbdbdb"/>
            <path id="Trazado_162214" data-name="Trazado 162214" d="M426.532,239.38a4.876,4.876,0,1,0,8.466-3.3,4.889,4.889,0,0,0-8.466,3.3m0,0a5.462,5.462,0,1,1,9.172,4.006,5.477,5.477,0,0,1-9.172-4.006" transform="translate(-229.514 -125.87)" fill="#dbdbdb"/>
            <path id="Trazado_162215" data-name="Trazado 162215" d="M403.748,247.71a4.1,4.1,0,1,0,4.384-4.092,4.125,4.125,0,0,0-4.384,4.092m0,0a4.679,4.679,0,1,1,7.835,3.452,4.7,4.7,0,0,1-7.835-3.452" transform="translate(-217.254 -130.772)" fill="#dbdbdb"/>
            <path id="Trazado_162216" data-name="Trazado 162216" d="M444.043,224.106c.607,1.758,1.252,10.32.929,11.45a6.153,6.153,0,0,1-1.118,1.752c3.549-.963,7.032-2.147,8.195-3.043,1.992-1.53.462-12.329-1.5-14.493-2.509-2.782-5.7-5.475-8.234-5.235a17.353,17.353,0,0,0-4.6,1.736s5.719,6.075,6.32,7.833" transform="translate(-235.536 -115.433)" fill="#ffc727"/>
            <g id="Grupo_169728" data-name="Grupo 169728" transform="translate(202.187 99.088)" opacity="0.2">
              <g id="Grupo_169727" data-name="Grupo 169727">
                <g id="Grupo_169726" data-name="Grupo 169726" clip-path="url(#clip-path-30)">
                  <path id="Trazado_162217" data-name="Trazado 162217" d="M444.043,224.1c.607,1.758,1.252,10.321.929,11.451a6.16,6.16,0,0,1-1.118,1.752c3.549-.963,7.032-2.148,8.195-3.043,1.992-1.53.462-12.33-1.5-14.494-2.509-2.782-5.7-5.475-8.234-5.236a17.354,17.354,0,0,0-4.6,1.736s5.719,6.076,6.32,7.834" transform="translate(-437.723 -214.519)"/>
                </g>
              </g>
            </g>
            <path id="Trazado_162218" data-name="Trazado 162218" d="M271.907,239.987c.1.43-4.681,10.709-5.553,11.969s-5.018,3.426-5.987,3.618-15.831,3.206-38.631,3.206-37.667-3.014-38.637-3.206-5.116-2.364-5.982-3.618-5.65-11.54-5.552-11.969,14.385,2.358,23.026,2.695c4.251.168,17.574.906,27.144.906s22.893-.738,27.143-.906c8.642-.337,22.934-3.124,23.027-2.695" transform="translate(-92.318 -129.111)" fill="#37474f"/>
            <path id="Trazado_162219" data-name="Trazado 162219" d="M181.47,242.679c1.946.279,4.03.569,6.1.813H172.845c-.133-.3-.25-.569-.348-.813Zm81.537,0c-1.946.279-4.031.569-6.1.813h14.722c.133-.3.249-.569.348-.813Zm-31.889,2.23c-3.066.087-6.127.151-8.88.151s-5.813-.064-8.88-.151H173.467c.116.261.238.528.366.807h96.811c.128-.279.25-.546.366-.807Zm-56.634,2.224c.122.273.249.54.377.807h94.755c.127-.267.255-.534.377-.807Zm1.045,2.225c.133.279.267.552.395.813h92.629c.128-.261.261-.534.395-.813Zm1.086,2.224c.151.3.3.569.418.813h90.411c.122-.244.267-.517.418-.813Zm1.33,2.225a8.082,8.082,0,0,0,1,.813h86.578a8.08,8.08,0,0,0,1-.813Zm3.363,2.23a17.537,17.537,0,0,0,1.69.807h78.477a17.549,17.549,0,0,0,1.7-.807Zm9.785,2.224c1.946.267,4.239.546,6.859.807h48.574c2.619-.261,4.913-.54,6.859-.807Z" transform="translate(-92.82 -130.584)" fill="#455a64"/>
            <rect id="Rectángulo_42725" data-name="Rectángulo 42725" width="38.071" height="10.171" transform="translate(110.383 136.715)" fill="#fff"/>
          </g>
        </g>
      </g>
    </g>
  </g>
</svg>
