<svg xmlns="http://www.w3.org/2000/svg" xmlns:xlink="http://www.w3.org/1999/xlink" width="323" height="196.384" viewBox="0 0 323 196.384">
  <defs>
    <clipPath id="clip-path">
      <rect id="Rectángulo_42753" data-name="Rectángulo 42753" width="20.953" height="42.71" fill="none"/>
    </clipPath>
    <clipPath id="clip-path-2">
      <rect id="Rectángulo_42754" data-name="Rectángulo 42754" width="18.761" height="38.243" fill="none"/>
    </clipPath>
    <clipPath id="clip-path-3">
      <rect id="Rectángulo_42756" data-name="Rectángulo 42756" width="2.335" height="40.999" fill="none"/>
    </clipPath>
    <clipPath id="clip-path-4">
      <rect id="Rectángulo_42758" data-name="Rectángulo 42758" width="4.174" height="42.233" fill="none"/>
    </clipPath>
    <clipPath id="clip-path-5">
      <rect id="Rectángulo_42759" data-name="Rectángulo 42759" width="13.166" height="6.167" fill="none"/>
    </clipPath>
  </defs>
  <g id="Grupo_169384" data-name="Grupo 169384" transform="translate(8155 9852)">
    <rect id="Rectángulo_37339" data-name="Rectángulo 37339" width="323" height="196.384" transform="translate(-8155 -9852)" fill="none"/>
    <g id="Grupo_169799" data-name="Grupo 169799" transform="translate(-8128 -9848)">
      <g id="Grupo_169800" data-name="Grupo 169800">
        <g id="Grupo_169797" data-name="Grupo 169797">
          <g id="Grupo_169801" data-name="Grupo 169801">
            <path id="Trazado_162437" data-name="Trazado 162437" d="M297.084,388.849a23.725,23.725,0,0,0-3.974-4.583c-5.989-5.323-14.04-7.631-21.906-9.157-42.5-8.238-86.076,1.931-129.208,5.6-12.3,1.047-24.89,1.617-36.355,6.187-8.6,3.427-16.167,8.957-23.569,14.513-6.271,4.707-23.506,13.238-13.417,22.53,2.8,2.576,6.614,3.67,10.293,4.626,59.826,15.535,122.951,15.661,184.045,6.274,12.039-1.85,25.051-4.637,32.852-13.992,7.353-8.819,7.537-22.555,1.239-32" transform="translate(-44.683 -253.535)" fill="#738fea"/>
            <path id="Trazado_162438" data-name="Trazado 162438" d="M305,481.2c0,4.8-13.365,9.131-34.7,12.149-.255.038-.51.076-.771.109-11.682,1.623-25.7,2.855-41.181,3.572l-.668.033c-9.646.434-19.863.668-30.432.668q-3.615,0-7.166-.038c-.217,0-.434,0-.651-.005-16.823-.184-32.576-.961-46.375-2.2-.223-.016-.451-.038-.673-.06a269.53,269.53,0,0,1-35.323-5.179c-.223-.054-.445-.1-.662-.157-10.7-2.568-16.9-5.619-16.9-8.892,0-6.1,21.5-11.416,53.492-14.282.331-.033.657-.06.988-.087,8.892-.782,18.571-1.368,28.814-1.732l.863-.032c7.595-.261,15.493-.4,23.6-.4q7.516,0,14.76.158c.217,0,.434.005.651.011,12.068.266,23.489.836,33.917,1.661.228.016.456.038.679.054C262.738,467.8,276,469.609,285.9,471.8c.206.049.413.1.613.141,11.671,2.644,18.49,5.83,18.49,9.261" transform="translate(-60.995 -316.718)" fill="#ffc799"/>
            <path id="Trazado_162439" data-name="Trazado 162439" d="M180.155,471.455c-.114.092-.233.185-.347.277a124.272,124.272,0,0,1-17.952,11.736c-6.373,3.42-12.8,6.7-18.451,11.269-.054.043-.109.087-.163.136-.223-.054-.445-.1-.662-.157.575-.478,1.156-.939,1.748-1.4,5.629-4.332,11.992-7.464,18.213-10.835a123.065,123.065,0,0,0,16.628-10.944c.331-.032.657-.06.988-.087" transform="translate(-97.182 -321.343)" fill="#e8a270"/>
            <path id="Trazado_162440" data-name="Trazado 162440" d="M286.866,465.914a125.73,125.73,0,0,0-13.712,13.034q-8.257,8.876-16.883,17.388c-.223-.017-.451-.038-.673-.06q1.067-1.05,2.122-2.1c5.716-5.684,11.226-11.552,16.747-17.425A113.82,113.82,0,0,1,286,465.946l.863-.032" transform="translate(-174.215 -317.567)" fill="#e8a270"/>
            <path id="Trazado_162441" data-name="Trazado 162441" d="M426.591,465.175q-11.774,16.09-22.577,32.853c-.217,0-.434,0-.651-.005q10.8-16.758,22.577-32.859c.217,0,.434.005.651.011" transform="translate(-274.932 -317.055)" fill="#e8a270"/>
            <path id="Trazado_162442" data-name="Trazado 162442" d="M543.066,470.47c-3.87,7.089-7.453,14.347-11.861,21.133a111.74,111.74,0,0,1-7.046,9.342l-.668.032A118.334,118.334,0,0,0,531.8,489.66c3.577-5.754,6.579-11.839,9.8-17.794.261-.483.527-.966.793-1.449.228.016.456.038.679.054" transform="translate(-356.811 -320.635)" fill="#e8a270"/>
            <path id="Trazado_162443" data-name="Trazado 162443" d="M671.909,487.2c-2.676,3.941-5.564,7.73-8.5,11.487-2.578,3.29-5.19,6.574-7.714,9.923-.255.038-.51.076-.771.109,5.434-7.253,11.242-14.206,16.372-21.66.206.049.413.1.614.141" transform="translate(-446.395 -331.976)" fill="#e8a270"/>
            <path id="Trazado_162444" data-name="Trazado 162444" d="M692.044,111.864h-10.47a.319.319,0,0,1-.318-.318V91.378a.318.318,0,0,1,.318-.318h10.47a.318.318,0,0,1,.318.318v20.168a.318.318,0,0,1-.318.318" transform="translate(-464.343 -62.066)" fill="#ede2db"/>
            <path id="Trazado_162445" data-name="Trazado 162445" d="M739.732,141.613h-10.47a.319.319,0,0,1-.318-.318v-6.271a.319.319,0,0,1,.318-.318h10.47a.319.319,0,0,1,.318.318v6.271a.319.319,0,0,1-.318.318" transform="translate(-496.848 -91.815)" fill="#ede2db"/>
            <path id="Trazado_162446" data-name="Trazado 162446" d="M492.783,18.983A18.1,18.1,0,0,0,484.15,23c1.811-6.071,5.3-11.6,8.36-17.107.19-.341-.218-.842-.577-.577-4.194,3.091-8.348,6.649-11.034,11.041A41.492,41.492,0,0,1,485.914.626a.425.425,0,0,0-.577-.577c-6.707,3.431-9.06,10.7-9.027,17.774a21.45,21.45,0,0,0-3.248-3.963c-2.264-2.136-6.2-4.785-9.5-4.055a.425.425,0,0,0-.186.7c4.788,4.552,9.351,9.592,11.9,15.683a21.072,21.072,0,0,0-3.555-2.428,34.81,34.81,0,0,0-5.895-2.545c-1.307-.43-6.28-.649-7.081.607-.665,1.044,6.237,3.632,6.911,4.1,4.662,3.206,9.014,7.052,11.206,12.4a.446.446,0,0,0,.059.088,17.569,17.569,0,0,0-1.955.445.422.422,0,0,0,.224.813,14.6,14.6,0,0,1,5.4-.524.424.424,0,0,0,.407-.31,30.368,30.368,0,0,1,5.325-11.4,30.742,30.742,0,0,1,4.1-4.4A9.153,9.153,0,0,0,493.3,19.5c.127-.33-.237-.567-.519-.519" transform="translate(-312.656 0)" fill="#a9b881"/>
            <path id="Trazado_162447" data-name="Trazado 162447" d="M521.449,60.5c.329-.424-.264-1.025-.6-.6a22.507,22.507,0,0,0-2.144,3.332,40.569,40.569,0,0,0-2.027-5.055.354.354,0,0,0,.027-.075,13.93,13.93,0,0,1,1.748-5.071.422.422,0,0,0-.729-.426,14.578,14.578,0,0,0-1.652,4.329c-.535-1.07-1.086-2.112-1.626-3.113-.258-.478-.986-.053-.728.426,2.465,4.575,5.245,10.021,5.237,15.334a.422.422,0,0,0,.844,0,19.847,19.847,0,0,0-.763-5.223.4.4,0,0,0,.1-.126,21.337,21.337,0,0,1,2.312-3.736" transform="translate(-350.116 -35.722)" fill="#7a9136"/>
            <path id="Trazado_162448" data-name="Trazado 162448" d="M517.168,90.468c-1.114-2.611-2.376-6.094-4.942-7.628a.422.422,0,0,0-.426.728c2.379,1.423,3.6,4.894,4.639,7.325.212.5.939.068.729-.426" transform="translate(-348.705 -56.421)" fill="#7a9136"/>
            <path id="Trazado_162449" data-name="Trazado 162449" d="M568.771,69.071a14.674,14.674,0,0,0-5.315,2.7,72.735,72.735,0,0,0,1.928-7.368.428.428,0,0,0-.62-.476c-4.488,2.181-5.5,7.1-5.968,11.647a12.563,12.563,0,0,0-5.505-4.162c-.373-.124-.63.312-.476.62,1.411,2.828,3.247,5.743,4.008,8.849a.419.419,0,0,0-.033.154c0,.29.022.578.047.865a1.8,1.8,0,0,1-.216-.359c-.2-.5-1.017-.28-.814.224a3.476,3.476,0,0,0,1.308,1.626.36.36,0,0,0,.261.165,6.525,6.525,0,0,0,1.124.512c1.487.527,2.014.426,2.715-1.019a57.577,57.577,0,0,1,3.263-6.416c1.525-2.355,3.171-4.636,4.766-6.942a.426.426,0,0,0-.476-.62" transform="translate(-376.767 -43.54)" fill="#a9b881"/>
            <path id="Trazado_162450" data-name="Trazado 162450" d="M574.855,89.735a31.431,31.431,0,0,0-2.9,5.5,10.578,10.578,0,0,0-.546-1.507c-.224-.494-.951-.066-.729.426a9.182,9.182,0,0,1,.771,2.859c.054.535.9.541.843,0a10.579,10.579,0,0,0-.216-1.271.463.463,0,0,0,.661-.216,30.347,30.347,0,0,1,2.847-5.367c.3-.453-.429-.877-.729-.426" transform="translate(-388.944 -61.032)" fill="#7a9136"/>
            <path id="Trazado_162451" data-name="Trazado 162451" d="M474.967,126.827h30.256c7.282-2.674,8.616-7.781,9.66-13.814H465.307c1.044,6.034,2.378,11.141,9.66,13.814" transform="translate(-317.153 -77.03)" fill="#5462b3"/>
            <path id="Trazado_162452" data-name="Trazado 162452" d="M798.7,375.844l2.39,34.241h-2.812l-6.186-34.33Z" transform="translate(-539.886 -256.113)" fill="#de8b5b"/>
            <path id="Trazado_162453" data-name="Trazado 162453" d="M446.387,375.844,444,410.084h2.812l6.186-34.33Z" transform="translate(-302.628 -256.113)" fill="#de8b5b"/>
            <path id="Trazado_162454" data-name="Trazado 162454" d="M555.424,225.938H427.547a2.956,2.956,0,0,1-2.953-2.952V158.155a2.956,2.956,0,0,1,2.953-2.952H555.424a2.956,2.956,0,0,1,2.953,2.952v64.831a2.956,2.956,0,0,1-2.953,2.952M427.547,156.046a2.111,2.111,0,0,0-2.109,2.109v64.831a2.111,2.111,0,0,0,2.109,2.109H555.424a2.112,2.112,0,0,0,2.109-2.109V158.155a2.111,2.111,0,0,0-2.109-2.109Z" transform="translate(-289.403 -105.786)" fill="#ffe1d4"/>
            <path id="Trazado_162455" data-name="Trazado 162455" d="M565.255,235.586H454.614a2.956,2.956,0,0,1-2.952-2.953V184.721a2.956,2.956,0,0,1,2.952-2.953H565.255a2.956,2.956,0,0,1,2.953,2.953v47.913a2.956,2.956,0,0,1-2.953,2.953" transform="translate(-307.852 -123.893)" fill="#ffe1d4"/>
            <rect id="Rectángulo_42752" data-name="Rectángulo 42752" width="119.532" height="0.843" transform="translate(142.317 84.363)" fill="#fff"/>
            <path id="Trazado_162456" data-name="Trazado 162456" d="M622.3,199.041H603.128a.678.678,0,0,1-.678-.678v-2.236a.678.678,0,0,1,.678-.678H622.3a.678.678,0,0,1,.677.678v2.236a.678.678,0,0,1-.677.678" transform="translate(-410.629 -133.219)" fill="#de8b5b"/>
            <path id="Trazado_162457" data-name="Trazado 162457" d="M622.3,282.538H603.128a.678.678,0,0,1-.678-.677v-2.236a.678.678,0,0,1,.678-.678H622.3a.678.678,0,0,1,.677.678v2.236a.678.678,0,0,1-.677.677" transform="translate(-410.629 -190.13)" fill="#de8b5b"/>
            <path id="Trazado_162458" data-name="Trazado 162458" d="M439.228,483.165a2.825,2.825,0,0,0-.969-.451c-1.235-.32-2.483-.531-3.72-.89-1.56-.452-3.093-.979-4.606-1.563q-2.108-2.91-4.129-5.882a.364.364,0,0,0-.565-.073c-2.413,2.618-5.547,4.536-7.4,7.641-.139-.1-.275-.213-.417-.313-.379-.266-.739.356-.363.621,2.138,1.5,3.877,3.484,5.969,5.042a4.24,4.24,0,0,0,4.356,1.717,32.879,32.879,0,0,1,6.253-.7c1.579.037,3.286.354,4.777-.32a3.516,3.516,0,0,0,1.626-3.547,2.011,2.011,0,0,0-.815-1.281" transform="translate(-284.161 -323.215)" fill="#ffa98f"/>
            <path id="Trazado_162459" data-name="Trazado 162459" d="M322.845,513.749c-.638-.878-1.941-1.112-2.919-1.378-1.5-.408-3.008-.787-4.513-1.175-1.125-.29-1.741-2.6-2.159-3.572s-.727-2.3-1.559-3.006a.293.293,0,0,0-.428.035.347.347,0,0,0-.108-.02A11.05,11.05,0,0,0,306,506.158a8.123,8.123,0,0,0-3.3,2.438.355.355,0,0,0-.357.53q1.014,1.712,2.088,3.388c1.14,1.786,1.887,4.151,3.474,5.6a4.967,4.967,0,0,0,3.491,1.05c1.283.045,2.567,0,3.85.05a23.85,23.85,0,0,0,3.724.219c1.944-.242,5.392-3.607,3.882-5.684" transform="translate(-206.038 -343.894)" fill="#ffa98f"/>
            <path id="Trazado_162460" data-name="Trazado 162460" d="M119.4,270.017a3.648,3.648,0,0,1-.572-1.882,6.661,6.661,0,0,0-.189-3.258,7.517,7.517,0,0,0-1.234-1.931,17.781,17.781,0,0,0-1.4-1.721c-.392-.373-1.317-.844-1.842-.5a.9.9,0,0,0-.3.915,7.08,7.08,0,0,0,1.1,2.69c-1.766-1.118-2.6-2.676-4.867-2.614a4.6,4.6,0,0,0-.816.09,2.146,2.146,0,0,0-2.5.007c-.576.492-.577,2.093-.577,2.093s-1.133.7-1.2.947a2.009,2.009,0,0,0,.444,1.94,6.928,6.928,0,0,0,.65.734,1.686,1.686,0,0,0-.132,1.634c1.149,2.639,4.4,4.288,6.387,6.206.753.726,3.387,3.7,3.387,3.7a8.856,8.856,0,0,1,1.372-1.758,50.078,50.078,0,0,0,4.318-4.711,21.255,21.255,0,0,1-2.036-2.575" transform="translate(-71.516 -177.628)" fill="#ffa98f"/>
            <path id="Trazado_162461" data-name="Trazado 162461" d="M399.706,209.212a1.6,1.6,0,0,0-.046-1.183.472.472,0,0,0-.18-.137,1.432,1.432,0,0,0-.021-1.174c-.306-.653-1-.463-1.556-.273a6.658,6.658,0,0,0-.632.26c.5-.606.715-1.225.071-1.639-.626-.4-1.559.291-2.071.552-1.371.7-3.056,2.143-4.611,1.438-.127-1.444-.495-4.342-2.011-3.151-.669.525-.769,2.9-.941,3.7-.179.835-.433,1.687-.529,2.534a3.764,3.764,0,0,0,.02.879c-1.376,1.452-2.934,2.748-4.414,4.089a.323.323,0,0,0,.036.515,11.542,11.542,0,0,0,2.113,3.411c.577.658,1.685,2.316,2.63,2.4.889.077,1.858-1.207,2.408-1.736a28.95,28.95,0,0,0,2.687-3c2.072-1.106,4.538-1.679,6.065-3.567.408-.5,1.468-2.636.754-3.242a3.515,3.515,0,0,0,.229-.681" transform="translate(-260.83 -138.791)" fill="#ffa98f"/>
            <path id="Trazado_162462" data-name="Trazado 162462" d="M252.126,235.988l-.719,10.392,7,4.223,7.815-.719.94-6.169Z" transform="translate(-171.359 -160.85)" fill="#ffa98f"/>
            <path id="Trazado_162463" data-name="Trazado 162463" d="M264.071,151.557c-.581-5.081-2.958-10.359-7.231-13.344a20.184,20.184,0,0,0-10.367-3.572c-3.58-.2-7.64.169-10.565,2.426a31.741,31.741,0,0,0-2.838,2.954c-3.6.309-6.7,3.335-8.076,6.765-1.838,4.574.452,9.333,1.746,13.716a.379.379,0,0,0,.74-.117c.177,3.545,6.483,3.222,8.931,3.265,2.352.041,4.7-.067,7.055.034,2.543.11,5.066.526,7.616.5,3.885-.04,7.982-.5,10.5-3.732a8.564,8.564,0,0,0,1.732-6.668c.676.011.943-1.833.755-2.227" transform="translate(-152.889 -91.739)" fill="#ab593f"/>
            <path id="Trazado_162464" data-name="Trazado 162464" d="M248.226,190.647c7.773,5.1,16.639,3.13,21.309-3.554,2.1-3,2.522-7.264,2.535-10.826,0-.349-.008-.7-.016-1.046-.07-3.21-.344-8.454-2.651-10.99A16.987,16.987,0,0,0,261.515,159a19.4,19.4,0,0,0-9.769.426c-5.584,1.484-10.954,5.209-12.01,11.125-.635,3.556.176,8.085,1.2,11.5.964,3.226,3.475,5.68,6.047,7.71.4.315.82.6,1.244.877" transform="translate(-163.251 -108.067)" fill="#ffa98f"/>
            <path id="Trazado_162465" data-name="Trazado 162465" d="M270.562,195.915c-.022-.016-.045-.032-.07-.046-1.425-.856-4.774.244-5.037,1.818a.508.508,0,0,0,.59.524c.792-.172,1.426-.454,2.207-.654.685-.175,1.885-.07,2.405-.557a.685.685,0,0,0-.095-1.086" transform="translate(-180.93 -133.3)" fill="#ab593f"/>
            <path id="Trazado_162466" data-name="Trazado 162466" d="M316.146,192.048c.018-.02.036-.041.056-.06,1.159-1.147,4.6-.818,5.216.655a.5.5,0,0,1-.44.64c-.793.008-1.567-.13-2.357-.152-.693-.019-1.705.352-2.314-.006a.693.693,0,0,1-.161-1.077" transform="translate(-215.358 -130.389)" fill="#ab593f"/>
            <path id="Trazado_162467" data-name="Trazado 162467" d="M330.589,216.8a1.649,1.649,0,0,0-.422-.189,3.821,3.821,0,0,0-2.726.389c-.454.241-.924.752-.489,1.239a1.415,1.415,0,0,0,.726.379,4.118,4.118,0,0,0,2.229-.058,1.844,1.844,0,0,0,.812-.456.89.89,0,0,0,.233-.865.859.859,0,0,0-.365-.438" transform="translate(-222.733 -147.569)" fill="#f79274"/>
            <path id="Trazado_162468" data-name="Trazado 162468" d="M264.559,221.973a1.655,1.655,0,0,0-.423-.19,3.831,3.831,0,0,0-2.733.39c-.455.241-.926.753-.49,1.242a1.422,1.422,0,0,0,.728.38,4.123,4.123,0,0,0,2.235-.058,1.85,1.85,0,0,0,.814-.457.893.893,0,0,0,.234-.867.863.863,0,0,0-.366-.44" transform="translate(-177.72 -151.092)" fill="#f79274"/>
            <path id="Trazado_162469" data-name="Trazado 162469" d="M300.183,233.09a.927.927,0,0,0-.346-.624,1.657,1.657,0,0,0-1.27-.116,28.2,28.2,0,0,1-4.309.4,2.112,2.112,0,0,0-.724.093c-.938.359-.324,1.634.173,2.1a3.355,3.355,0,0,0,1.566.769,4.521,4.521,0,0,0,4.446-1.359,1.956,1.956,0,0,0,.465-.938,1.152,1.152,0,0,0,0-.324" transform="translate(-199.739 -158.323)" fill="#d4562f"/>
            <path id="Trazado_162470" data-name="Trazado 162470" d="M306.7,217.767c-.2-.912-1-1.587-1.359-2.428-.2-.456-.924-.192-.727.268.463,1.079,2,2.277.8,3.365-.365.33.076.969.446.634a2.011,2.011,0,0,0,.844-1.838" transform="translate(-207.603 -146.613)" fill="#e87c5a"/>
            <path id="Trazado_162471" data-name="Trazado 162471" d="M274.832,210.473a2.853,2.853,0,0,0-2.2-.483c-.491.11-2.128.9-1.612,1.61.162.224.506.148.77.068a5.981,5.981,0,0,1,1.884-.259,2.018,2.018,0,0,0,1.151-.163c.473-.3.306-.565.005-.773" transform="translate(-184.661 -143.09)" fill="#422c25"/>
            <path id="Trazado_162472" data-name="Trazado 162472" d="M322.741,206.994a2.853,2.853,0,0,0-2.2-.483c-.491.11-2.128.9-1.612,1.61.162.224.506.148.77.068a5.981,5.981,0,0,1,1.884-.259,2.018,2.018,0,0,0,1.151-.163c.473-.3.306-.565.005-.773" transform="translate(-217.315 -140.719)" fill="#422c25"/>
            <path id="Trazado_162473" data-name="Trazado 162473" d="M260.807,156a20.5,20.5,0,0,0-11.405-2.1,25.947,25.947,0,0,0-5.962,1.556,16.913,16.913,0,0,0-5.476,2.772c-3.4,2.921-4.391,7.478-4.239,11.773a.363.363,0,0,0,.065.194c-.108.006-.207.025-.32.023a.38.38,0,0,0,0,.759,4.6,4.6,0,0,0,3.868-1.892c-.034.2-.081.388-.113.585a.385.385,0,0,0,.558.429c1.646-1,2.47-3.289,3.226-4.964a34.663,34.663,0,0,0,2.158-6.509,52.245,52.245,0,0,1,6.5.19,47.529,47.529,0,0,1,6.735,1.783.385.385,0,0,0,.467-.467,2.62,2.62,0,0,0-1.035-1.525c3.122.808,6.5,1.711,8.706,3.765a.383.383,0,0,0,.635-.167q.051-.237.079-.466A15.922,15.922,0,0,1,267.535,164a.383.383,0,0,0,.649-.268c-.261-3.509-4.534-6.3-7.376-7.733" transform="translate(-158.883 -104.818)" fill="#ab593f"/>
            <path id="Trazado_162474" data-name="Trazado 162474" d="M232.778,207.2s-1.98-2.7-4.6-1.652-2.723,8.345,1.465,10.691a6.343,6.343,0,0,0,6.543-.579c-.127-.069-3.41-8.459-3.41-8.459" transform="translate(-154.269 -139.939)" fill="#ffa98f"/>
            <path id="Trazado_162475" data-name="Trazado 162475" d="M239.076,223.165a1.884,1.884,0,0,1,.061-2.46c.327-.371-.2-.94-.53-.565a2.688,2.688,0,0,0-.1,3.555c.31.391.873-.141.565-.53" transform="translate(-162.143 -149.963)" fill="#e87c5a"/>
            <path id="Trazado_162476" data-name="Trazado 162476" d="M268.447,253.844l-.039,0a38.233,38.233,0,0,1-7.254-1.608,20.221,20.221,0,0,1-6.73-4.559.359.359,0,1,1,.518-.5,19.866,19.866,0,0,0,6.448,4.378,37.4,37.4,0,0,0,7.1,1.573.359.359,0,0,1-.038.717" transform="translate(-173.347 -168.4)" fill="#e87c5a"/>
            <path id="Trazado_162477" data-name="Trazado 162477" d="M256.728,155.03q-.7-.573-1.381-1.175c-.407-.363-1.084-.8-1.274-1.326-.165-.456-.9-.259-.732.2a3.747,3.747,0,0,0,1.17,1.391q.82.746,1.681,1.445c.376.306.916-.228.537-.537" transform="translate(-172.66 -103.787)" fill="#943f24"/>
            <path id="Trazado_162478" data-name="Trazado 162478" d="M250.945,163.342a37.35,37.35,0,0,1-2.093,8.7c-.17.459.564.657.732.2a38.132,38.132,0,0,0,2.12-8.9c.056-.485-.7-.48-.759,0" transform="translate(-169.6 -111.087)" fill="#943f24"/>
            <path id="Trazado_162479" data-name="Trazado 162479" d="M240.2,174.143a30.169,30.169,0,0,1-2.561,6.809c-.226.433.43.818.656.384a31.017,31.017,0,0,0,2.638-6.991c.116-.475-.616-.677-.732-.2" transform="translate(-161.939 -118.511)" fill="#943f24"/>
            <path id="Trazado_162480" data-name="Trazado 162480" d="M288.272,158.6a18.82,18.82,0,0,0-5.652-1.889c-.478-.079-.684.653-.2.732a18.165,18.165,0,0,1,5.471,1.812c.433.225.818-.43.383-.656" transform="translate(-192.308 -106.809)" fill="#943f24"/>
            <path id="Trazado_162481" data-name="Trazado 162481" d="M303.542,154.387c-2.866-4.339-7.888-5.606-12.775-6.151-.485-.054-.481.706,0,.76,4.592.512,9.414,1.68,12.119,5.775.268.406.926.026.656-.383" transform="translate(-197.94 -101.036)" fill="#943f24"/>
            <path id="Trazado_162482" data-name="Trazado 162482" d="M243.321,296.486c-.388,2.4,1.049,4.507.072,6.893a7.73,7.73,0,0,1-3.177,3.551c-3.9,2.357-9.495,2.171-13.872,2.659-5.161.575-10.394,1.5-15.583,1.582-4.312.079-9.186-.949-12.722-3.544a5.4,5.4,0,0,1-2.415-3.443,8.918,8.918,0,0,1,.345-2.746,24.346,24.346,0,0,0,.043-4.636c-.137-5.391.058-10.781.223-16.172a68.96,68.96,0,0,1,.532-8.165,23.5,23.5,0,0,1,1.732-6.914,2.927,2.927,0,0,1,1.236-1.236,16.734,16.734,0,0,1,3.09-1.013l2.537-.8q2.178-.69,4.37-1.38a3.112,3.112,0,0,1,1.8-1.5,1.725,1.725,0,0,1,2.128,1.172,22.736,22.736,0,0,0,5.995,2.789,12.507,12.507,0,0,0,4.578.741,14.677,14.677,0,0,0,2.077-.209c.6-.266,1.193-.518,1.8-.726.1-.036.194-.072.295-.1.992-.323,1.7.259,2.566.374.51-.108,1.021-.2,1.545-.266a34.023,34.023,0,0,1,3.745-.309l.906-.022c1.861-.043,3.709-.022,5.469-.093a.36.36,0,0,1,.345.266c1.61,5.57.913,11.306.834,17.013-.007.359,0,.712.007,1.064.05,2.544.359,5.053.525,7.6a18.225,18.225,0,0,1-.122,4.1c-.194,1.186-.726,2.286-.913,3.465" transform="translate(-133.316 -176.918)" fill="#f2e5dc"/>
            <path id="Trazado_162483" data-name="Trazado 162483" d="M159.706,284.889a16.9,16.9,0,0,0-2.736-4.858,21.827,21.827,0,0,0-3.333-3.84c.352-.047.707-.08,1.055-.1.46-.023.463-.742,0-.719a8.321,8.321,0,0,0-3.293.7c-1.365.669-1.752,1.983-2.913,2.81-1.3.93-2.9,1.346-4.221,2.309a12.291,12.291,0,0,0-1.573,1.374c-1.253-1.017-3.259-1.541-4.25-2.655-.492-.553-.791-1.937-1.749-1.937-1.024,0-1.939,1.589-2.517,2.26a40.331,40.331,0,0,0-5.6,8.45,2.879,2.879,0,0,0-.507,2.349,13.206,13.206,0,0,0,2.672,3.723,25.472,25.472,0,0,0,15.741,8.621c2.424.311,5.538.569,7.621-.955a15.292,15.292,0,0,0,4.875-7.133c1.143-3.181,1.711-7.117.723-10.408" transform="translate(-87.225 -187.696)" fill="#f2e5dc"/>
            <path id="Trazado_162484" data-name="Trazado 162484" d="M346.625,244.126c-.532-2.178-2.825-5.542-4.161-7.3-.453-.6-1.581-2.372-2.358-2.624a1.742,1.742,0,0,0-1.308.223c-1.977.812-3.371,2.53-5.089,3.738a7.728,7.728,0,0,1-3.155,1.25,4.371,4.371,0,0,0-2.508,1.474c-2.128,2.034-5.254,2.731-7.612,4.4a5.678,5.678,0,0,0-.618.474,6.847,6.847,0,0,0-1.6,1.912.361.361,0,0,0,.625.359,6.379,6.379,0,0,1,1.409-1.7v.022a50.583,50.583,0,0,0,1.847,11.859c.288,1.028.554,3.407,1.589,4.011a4.3,4.3,0,0,1,1.042,1.035c.532.668,1.035,1.33,1.653,1.179a3.92,3.92,0,0,0,1-.453c1.66-.978,3.968-3.155,5.06-3.9,1.258-.855,2.013-2.271,3.191-3.22,1.43-1.157,4.88-4.255,5.283-5.2.913-.805,1.8-1.632,2.667-2.5.208-.209.438-.424.676-.64,1.035-.971,2.2-2.027,2.408-3.328a2.5,2.5,0,0,0-.036-1.078" transform="translate(-216.861 -159.591)" fill="#f2e5dc"/>
            <path id="Trazado_162485" data-name="Trazado 162485" d="M241.874,400.419a58.365,58.365,0,0,1-.6-9.768c0-.237,0-.467-.007-.7v-.158c-.022-1.445.129-3,.007-4.456a.08.08,0,0,0-.007-.036,3.64,3.64,0,0,0-.043-.4,1.3,1.3,0,0,0-.64-1.171c-2.516-1.7-6.124-.525-8.8-.173a60.037,60.037,0,0,1-10.6.288c-7.417-.338-14.828-.891-22.253-1.28a.377.377,0,0,0-.438-.345,10.015,10.015,0,0,1-5.046-.352c-.043-.036-.985.014-1.056,0a.241.241,0,0,0-.072-.007c-1.438-.187-1.042,3.3-1.229,4.528-.309,2.041-.546,4.1-.719,6.152-.014.245-.036.489-.058.733q-.1,1.369-.172,2.738c-.309,6.153.129,12.14,2.868,17.753,1.121,2.307,2.386,4.773,4.672,6.109,2.142,1.251,4.715,1.625,7.123,2.048a22.364,22.364,0,0,0,8.352.273,13.462,13.462,0,0,0,1.373-.388,29.791,29.791,0,0,0,2.961-.481,90.865,90.865,0,0,0,9.962-2.882,13.268,13.268,0,0,0,5.829.891c2.1-.151,4.895-.769,6.354-2.429a10.278,10.278,0,0,0,1.531-3.407c.554-1.56,1.186-3.112,1.6-4.708.8-3.011-.359-5.434-.891-8.366" transform="translate(-129.54 -260.266)" fill="#4d68b0"/>
            <path id="Trazado_162486" data-name="Trazado 162486" d="M245.068,347.457a74.688,74.688,0,0,0-.769-7.978c-.108-.827-.216-1.653-.331-2.487a88.571,88.571,0,0,0-1.8-9.89.8.8,0,0,0-1.028-.762,233.593,233.593,0,0,1-25.48.445c-1.474-.057-6.821-1.071-7.015,1.057a45.106,45.106,0,0,1-3.011,12.607,3.841,3.841,0,0,1-.963,1.581,4.042,4.042,0,0,1-1.89.719c-1.581.309-4.758.863-6.339,1.172a.847.847,0,0,0-.316.093c-.108.072.144.173-.18.625-.2.28-.64,1.725.136,1.588.273-.05.367-.381.467-.64s.424-.517.625-.331c1.322,4.14,5.11,7.087,9.157,8.675.733.288,1.488.539,2.242.762.611.18,1.236.338,1.862.489,2.825.669,5.743,1.057,8.6,1.6,3.543.676,7.051,1.588,10.645,1.933a19.974,19.974,0,0,0,10.58-1.481,8.432,8.432,0,0,0,3.8-3.321,6.49,6.49,0,0,0,.424-.942,6.858,6.858,0,0,0,.223-.748,13.265,13.265,0,0,0,.352-2.825c.022-.633.022-1.272.014-1.9a.08.08,0,0,0-.007-.036" transform="translate(-133.344 -222.427)" fill="#4d68b0"/>
            <path id="Trazado_162487" data-name="Trazado 162487" d="M218.093,273.5a14.888,14.888,0,0,0-3.86-4.708l-2.537.8a16.771,16.771,0,0,0-3.091,1.013c3.055,1.689,5.067,4.507,6.634,7.561a29.9,29.9,0,0,1,3.644,11.091.366.366,0,0,0,.259.323.371.371,0,0,0,.338.367,8.983,8.983,0,0,0,3.306-.273c.187-.05.877-.309.827-.5-1.488-5.269-2.76-10.853-5.52-15.676" transform="translate(-142.185 -183.211)" fill="#4d68b0"/>
            <path id="Trazado_162488" data-name="Trazado 162488" d="M320.242,287.11c-.64-4.219-1.2-8.5-2.171-12.629a17.149,17.149,0,0,0-.977-2.954c-.187-.431-.5-1.28-.856-1.941a3.779,3.779,0,0,0-.287-.453,44.164,44.164,0,0,1-4.363.784,41.075,41.075,0,0,1,3.644,9.516c.841,3.457.726,7.13,1.775,10.523a.36.36,0,0,0,.345.266c.985-.05,1.962-.108,2.94-.165a.362.362,0,0,0,.345-.453c-.137-.827-.266-1.66-.4-2.494" transform="translate(-212.378 -183.441)" fill="#4d68b0"/>
            <path id="Trazado_162489" data-name="Trazado 162489" d="M282.3,478.161c-3.017-4.264-6.325-8.644-11.179-10.916-3.934-1.841-8.676-1.984-12.277.7-1.348,1-3.288,3-3.015,4.875a3.917,3.917,0,0,0,2.6,2.844c.108.118.2.243.318.357,1.409,1.421,3.192,2.138,4.37,3.777a24.282,24.282,0,0,0,3.955,4.306,11.966,11.966,0,0,0,2.156,3.088c1.663,1.71,3.044.3,4.889-.667l4.088-2.146a39.425,39.425,0,0,0,4.447-2.346c1.583-1.119.536-2.61-.355-3.869" transform="translate(-174.353 -317.551)" fill="#4d68b0"/>
            <path id="Trazado_162490" data-name="Trazado 162490" d="M373.1,432.971a1.637,1.637,0,0,0-.116-.223c-.071-.114-.353-.06-.461-.191a5.6,5.6,0,0,1-.42-.943,10.181,10.181,0,0,0-1.183-1.749c-.9-1.107-1.971-2.068-2.9-3.15a55.856,55.856,0,0,0-5.417-5.9c-1.84-1.555-3.3-3.708-5.51-4.608-3.243-1.318-5.536-1.562-9.913-2.849a50.129,50.129,0,0,0-7.749-1.364c0-.093,0-.187-.005-.279a.36.36,0,0,0-.719,0c0,.065,0,.131,0,.2-.119-.012-.234-.031-.354-.041-.46-.042-.458.677,0,.719.124.011.245.029.367.041.164,8.025,1.128,16.62-2.036,24.155-.089.211-.608,2.046-.4,2.033a52.169,52.169,0,0,0,7.562-.522,11.125,11.125,0,0,1,3.863,0c.668.1,2.3-.7,2.965-.68,1.1,1.153,2.529.67,4.063,1.308a7.849,7.849,0,0,1,2.877,1.617c.454.463.742,1.039,1.325,1.365a5.561,5.561,0,0,0,1.473.33c.677.182,1.23.739,1.919.815,1.026.112,2.357-.862,3.167-1.354a20.978,20.978,0,0,0,3.861-3.019,20.7,20.7,0,0,0,3.161-3.709c.615-.995,1.044-.889.573-1.995" transform="translate(-229.178 -280.385)" fill="#4d68b0"/>
            <path id="Trazado_162491" data-name="Trazado 162491" d="M408.652,218.458c-.158-.431-.853-.245-.693.191a3.6,3.6,0,0,1-.141,2.912c-.206.413.414.777.621.363a4.317,4.317,0,0,0,.214-3.466" transform="translate(-277.94 -148.734)" fill="#e87c5a"/>
            <path id="Trazado_162492" data-name="Trazado 162492" d="M422.721,214.218a19.073,19.073,0,0,1-1.636,1.644c-.346.308.163.815.508.508a19.07,19.07,0,0,0,1.636-1.644c.3-.346-.2-.856-.508-.508" transform="translate(-286.933 -145.931)" fill="#e87c5a"/>
            <path id="Trazado_162493" data-name="Trazado 162493" d="M426.41,217.075a9.9,9.9,0,0,1-2.487,2.236c-.42.194-.055.814.363.621a10.327,10.327,0,0,0,2.632-2.349.36.36,0,0,0-.508-.508" transform="translate(-288.819 -147.885)" fill="#e87c5a"/>
            <path id="Trazado_162494" data-name="Trazado 162494" d="M427.159,225.712l-1.885,1.709c-.343.311.166.819.508.508l1.884-1.71c.343-.311-.166-.819-.508-.508" transform="translate(-289.789 -153.779)" fill="#e87c5a"/>
            <path id="Trazado_162495" data-name="Trazado 162495" d="M136.266,278.414a4.864,4.864,0,0,1-.19-4.044c.166-.432-.529-.619-.693-.191a5.567,5.567,0,0,0,.262,4.6c.21.412.83.049.621-.363" transform="translate(-92.02 -186.715)" fill="#e87c5a"/>
            <path id="Trazado_162496" data-name="Trazado 162496" d="M122.012,267.635l-2.553-2.389c-.338-.316-.847.192-.508.508l2.553,2.389c.337.316.847-.191.508-.508" transform="translate(-81 -180.723)" fill="#e87c5a"/>
            <path id="Trazado_162497" data-name="Trazado 162497" d="M115.323,272.389q-1.646-1.024-3.215-2.162c-.375-.272-.734.351-.363.621q1.569,1.138,3.215,2.162c.394.245.755-.376.363-.621" transform="translate(-76.059 -184.141)" fill="#e87c5a"/>
            <path id="Trazado_162498" data-name="Trazado 162498" d="M114.373,281.85q-1.431-.99-2.82-2.036c-.37-.278-.728.345-.363.621q1.39,1.047,2.821,2.036c.381.264.741-.359.363-.621" transform="translate(-75.683 -190.673)" fill="#e87c5a"/>
            <path id="Trazado_162499" data-name="Trazado 162499" d="M247.233,331.141a1.486,1.486,0,0,0-.615-.722,1.729,1.729,0,0,0-2.388,1.561,1.6,1.6,0,0,0,.616,1.258,1.3,1.3,0,0,0,.625.267,1.826,1.826,0,0,0,1.856-1.419,1.623,1.623,0,0,0-.095-.946" transform="translate(-166.468 -225.092)" fill="#ffbf87"/>
            <path id="Trazado_162500" data-name="Trazado 162500" d="M331.127,329.424a1.493,1.493,0,0,0-.942-.1,1.729,1.729,0,0,0-.668,2.774,1.6,1.6,0,0,0,1.311.494,1.3,1.3,0,0,0,.638-.234,1.825,1.825,0,0,0,.379-2.3,1.625,1.625,0,0,0-.717-.624" transform="translate(-224.305 -224.44)" fill="#ffbf87"/>
            <path id="Trazado_162501" data-name="Trazado 162501" d="M268.651,344.031c.539-.5,8.146.12,10.6,0s5.81-.779,6.409-.359.958,7.906,0,10.123-4.845,2.862-9.434,2.875c-3.324.009-5.99-.937-7.038-2.875-.87-1.609-1.078-9.266-.539-9.763" transform="translate(-182.911 -234.152)" fill="#7b93d1"/>
            <path id="Trazado_162502" data-name="Trazado 162502" d="M307.589,503.023c-.578-.56-.943-.512-1.679-.25a7.738,7.738,0,0,0-1.053.534,23.548,23.548,0,0,1-2.669,1.087A49.905,49.905,0,0,0,296,507.545a23.824,23.824,0,0,1-2.892,1c-.693.281-2.239,1.276-1.651,2.213.47.749,1.2,1.3,1.653,2.045.325.543.311.968.972,1.285a2.749,2.749,0,0,0,1.878.048,32.112,32.112,0,0,0,7.208-3.036q1.807-.944,3.527-2.04c.728-.464,2-1.026,2.407-1.884.579-1.226-.688-3.356-1.514-4.156" transform="translate(-198.568 -342.561)" fill="#7b93d1"/>
            <path id="Trazado_162503" data-name="Trazado 162503" d="M424.641,475.7c-.218-.42-.55-1.239-1.049-1.395-.812-.253-2.248.784-2.532,1.3a7.516,7.516,0,0,1-1.108,1.334,12.106,12.106,0,0,1-1.565,1.749,17.228,17.228,0,0,1-2.836,1.924,6.8,6.8,0,0,0-1.236,1.149c-.88,1.076-1.044,1.6-2.7,2.049-2.052.56-1.33,1.3-.086,3.223a.33.33,0,0,0,.04.041,2.114,2.114,0,0,0,2.914.71c1.106-.511,1.93-1.592,2.918-2.28s2.054-1.243,3.073-1.873c1.52-.94,4.051-2.887,4.9-4.552.619-1.213-.163-2.28-.733-3.378" transform="translate(-279.676 -323.261)" fill="#7b93d1"/>
            <path id="Trazado_162504" data-name="Trazado 162504" d="M244.725,329.4c-.163-.428-.858-.242-.693.191a9.45,9.45,0,0,1,.452,1.483c.16.786.41,1.556-.454,1.923a13.878,13.878,0,0,1-3.711.631q-.341-2.156-.683-4.312c-.072-.456-.765-.262-.693.191q.365,2.3.73,4.608a.358.358,0,0,0,.346.264c.9-.109,1.8-.235,2.7-.394.595-.106,2.021-.117,2.454-.588.734-.8-.137-3.191-.445-4" transform="translate(-162.86 -224.281)" fill="#354f96"/>
            <path id="Trazado_162505" data-name="Trazado 162505" d="M329.652,331.877c-.6.028-1.191.067-1.784.129-.438.046-1.353.322-1.736.121-.337-.176-.272-.4-.335-.8l-.142-.9-.312-1.984c-.072-.456-.764-.262-.693.191q.2,1.262.4,2.525c.076.487.034,1.288.446,1.645.344.3.823.125,1.228.065a29.074,29.074,0,0,1,2.931-.274c.46-.021.463-.74,0-.719" transform="translate(-221.278 -223.689)" fill="#354f96"/>
            <path id="Trazado_162506" data-name="Trazado 162506" d="M205.386,379.889a23.812,23.812,0,0,1-2.669,5.06c-1.123,1.6-2.619,3.652-4.488,4.4-.424.17-.239.866.191.693,3.737-1.5,6.288-6.435,7.659-9.964.167-.431-.527-.618-.693-.191" transform="translate(-134.949 -258.767)" fill="#354f96"/>
            <path id="Trazado_162507" data-name="Trazado 162507" d="M264.821,437.239c-1.345-2.9-2.491-6.392-4.9-8.613-2.27-2.091-5.291-2.092-8.2-1.844a57.112,57.112,0,0,0-11.217,2.13.36.36,0,0,0,.191.693,56.239,56.239,0,0,1,10.362-2.044c3.4-.332,6.854-.411,9.2,2.5,1.826,2.265,2.869,5.228,4.083,7.845,1.414,3.049,3.276,6.174,3.894,9.5.084.454.777.262.693-.191-.649-3.493-2.628-6.785-4.109-9.978" transform="translate(-163.755 -290.819)" fill="#354f96"/>
            <path id="Trazado_162508" data-name="Trazado 162508" d="M254.7,482.989a24.011,24.011,0,0,1-6.126-8.272c-.19-.421-.809-.056-.621.363a24.418,24.418,0,0,0,4.613,6.85,11.843,11.843,0,0,1-5.755-2.623c-.373-.274-.732.349-.363.621a11.944,11.944,0,0,0,6.543,2.763.314.314,0,0,0,.236-.084q.469.456.965.891c.347.3.857-.2.508-.508" transform="translate(-167.876 -323.439)" fill="#354f96"/>
            <path id="Trazado_162509" data-name="Trazado 162509" d="M347.828,418.048a69.542,69.542,0,0,0-5.3,8.236,62.306,62.306,0,0,0,1.939-9.965c.051-.459-.668-.455-.719,0a61.182,61.182,0,0,1-3.179,13.78c-.135.38.482.646.657.277a69.5,69.5,0,0,1,7.227-11.965c.278-.37-.346-.729-.621-.363" transform="translate(-232.116 -283.529)" fill="#354f96"/>
            <path id="Trazado_162510" data-name="Trazado 162510" d="M335.944,462.581a11.856,11.856,0,0,1-1.826,5.551c-.247.393.375.754.621.363a12.659,12.659,0,0,0,1.923-5.913c.033-.462-.686-.459-.719,0" transform="translate(-227.696 -315.059)" fill="#354f96"/>
            <path id="Trazado_162511" data-name="Trazado 162511" d="M387.317,468.155c-1.411,2.559-2.929,5.148-5.5,6.6.6-1.877,1.686-3.562,2.177-5.483a.36.36,0,0,0-.693-.191c-.546,2.137-1.836,3.98-2.364,6.124,0,.008,0,.013,0,.02-.281.224.052.733.44.567,3.193-1.371,4.957-4.355,6.566-7.272.224-.405-.4-.769-.621-.363" transform="translate(-259.571 -318.973)" fill="#354f96"/>
            <path id="Trazado_162512" data-name="Trazado 162512" d="M241.823,407.991c-.194.058-.4.108-.589.158a44.528,44.528,0,0,1-7.274.905c-5.154.424-10.444-.532-15.5.647a30.772,30.772,0,0,1-7.087.381,39.024,39.024,0,0,0-4.2.28c-1.179.13-2.35.288-3.529.446-4.277.568-8.632,1-12.787-.2.021-.245.043-.489.057-.733,4.248,1.258,8.7.755,13.067.173l1.33-.173a50.788,50.788,0,0,1,5.721-.5c2.465-.043,4.794.209,7.231-.359,4.428-1.042,8.841-.273,13.34-.51,3.069-.165,6.691-.173,9.847-1.1.122-.036.237-.072.359-.115.007.237.007.467.007.7" transform="translate(-130.092 -277.606)" fill="#354f96"/>
            <path id="Trazado_162513" data-name="Trazado 162513" d="M283.978,347.225a111.357,111.357,0,0,1-21.278.636c-.462-.03-.46.689,0,.719a111.36,111.36,0,0,0,21.278-.637c.453-.057.459-.777,0-.719" transform="translate(-178.82 -236.666)" fill="#4d68b0"/>
            <path id="Trazado_162514" data-name="Trazado 162514" d="M144.845,314.459a2.136,2.136,0,0,0-3.26,1.027,1.978,1.978,0,0,0,.134,1.577c.005.012.008.024.013.036a1.763,1.763,0,0,0,.123.191c.028.041.05.086.081.125a1.809,1.809,0,0,0,.273.285c.032.029.061.059.095.086s.082.056.125.083a2.06,2.06,0,0,0,1.247.4,1.538,1.538,0,0,0,.762-.238,1.944,1.944,0,0,0,.561-.334,2.137,2.137,0,0,0-.153-3.233" transform="translate(-96.432 -214.055)" fill="#fff"/>
            <path id="Trazado_162515" data-name="Trazado 162515" d="M201.356,343.523a2.136,2.136,0,0,0-3.26,1.027,1.978,1.978,0,0,0,.134,1.577c.005.012.008.024.014.036a1.676,1.676,0,0,0,.123.191c.028.041.05.086.08.125a1.823,1.823,0,0,0,.273.285c.032.029.061.059.095.086s.083.056.125.083a2.059,2.059,0,0,0,1.247.4,1.539,1.539,0,0,0,.762-.238,1.945,1.945,0,0,0,.561-.334,2.137,2.137,0,0,0-.153-3.233" transform="translate(-134.95 -233.865)" fill="#fff"/>
            <path id="Trazado_162516" data-name="Trazado 162516" d="M256.223,299.643a2.136,2.136,0,0,0-3.26,1.026,1.978,1.978,0,0,0,.134,1.577c.005.012.008.024.013.036a1.73,1.73,0,0,0,.123.191c.028.041.05.086.08.125a1.81,1.81,0,0,0,.273.285c.032.029.061.059.095.086s.082.056.125.083a2.061,2.061,0,0,0,1.247.4,1.538,1.538,0,0,0,.762-.238,1.945,1.945,0,0,0,.561-.334,2.137,2.137,0,0,0-.153-3.233" transform="translate(-172.347 -203.956)" fill="#fff"/>
            <path id="Trazado_162517" data-name="Trazado 162517" d="M313.906,310.93a2.136,2.136,0,0,0-3.26,1.027,1.978,1.978,0,0,0,.134,1.577c.005.012.008.024.013.036a1.732,1.732,0,0,0,.123.191c.028.041.05.086.081.125a1.8,1.8,0,0,0,.272.285c.032.029.061.059.1.086s.082.056.125.083a2.057,2.057,0,0,0,1.246.4,1.542,1.542,0,0,0,.762-.238,1.951,1.951,0,0,0,.561-.334,2.137,2.137,0,0,0-.153-3.233" transform="translate(-211.664 -211.649)" fill="#fff"/>
            <path id="Trazado_162518" data-name="Trazado 162518" d="M347.718,299.643a2.136,2.136,0,0,0-3.26,1.026,1.978,1.978,0,0,0,.134,1.577c.005.012.008.024.013.036a1.764,1.764,0,0,0,.123.191c.028.041.05.086.081.125a1.809,1.809,0,0,0,.273.285c.032.029.061.059.095.086s.082.056.125.083a2.059,2.059,0,0,0,1.246.4,1.538,1.538,0,0,0,.762-.238,1.946,1.946,0,0,0,.561-.334,2.137,2.137,0,0,0-.153-3.233" transform="translate(-234.71 -203.956)" fill="#fff"/>
            <path id="Trazado_162519" data-name="Trazado 162519" d="M401.226,268.464c-.209,1.3-1.373,2.357-2.408,3.328a1.633,1.633,0,0,1-.144-.166c-.029-.036-.05-.079-.079-.122a1.114,1.114,0,0,1-.122-.194c-.007-.007-.007-.022-.014-.036a1.99,1.99,0,0,1-.137-1.574,2.151,2.151,0,0,1,2.9-1.237" transform="translate(-271.425 -182.851)" fill="#fff"/>
            <path id="Trazado_162520" data-name="Trazado 162520" d="M205.4,288.92a2.136,2.136,0,0,0-3.26,1.026,1.978,1.978,0,0,0,.134,1.577c.005.012.008.024.013.036a1.716,1.716,0,0,0,.123.191c.028.041.05.086.081.125a1.784,1.784,0,0,0,.272.285c.032.029.061.059.095.086s.082.056.125.083a2.061,2.061,0,0,0,1.247.4,1.539,1.539,0,0,0,.762-.238,1.946,1.946,0,0,0,.561-.334,2.137,2.137,0,0,0-.153-3.233" transform="translate(-137.705 -196.647)" fill="#fff"/>
            <path id="Trazado_162521" data-name="Trazado 162521" d="M289.057,274.2a1.937,1.937,0,0,1-.561.331,1.534,1.534,0,0,1-.762.237,2.037,2.037,0,0,1-1.243-.4c-.043-.029-.086-.05-.129-.079a1.046,1.046,0,0,1-.094-.086,1.72,1.72,0,0,1-.273-.287c-.029-.036-.05-.086-.079-.122a1.1,1.1,0,0,1-.122-.194c-.007-.014-.007-.021-.014-.036a2,2,0,0,1-.23-1.057,14.631,14.631,0,0,0,2.077-.208c.6-.266,1.193-.518,1.8-.726a2.1,2.1,0,0,1-.374,2.623" transform="translate(-194.627 -185.104)" fill="#fff"/>
            <path id="Trazado_162522" data-name="Trazado 162522" d="M359.774,254.393a2.136,2.136,0,0,0-3.26,1.027,1.978,1.978,0,0,0,.134,1.577c.005.012.008.024.013.036a1.721,1.721,0,0,0,.123.191c.028.041.05.086.081.125a1.791,1.791,0,0,0,.272.285c.032.029.061.059.095.086s.082.056.125.083a2.061,2.061,0,0,0,1.247.4,1.538,1.538,0,0,0,.762-.238,1.945,1.945,0,0,0,.561-.334,2.137,2.137,0,0,0-.153-3.233" transform="translate(-242.927 -173.114)" fill="#fff"/>
            <path id="Trazado_162523" data-name="Trazado 162523" d="M177.643,302.967c-.544-1.329-1.543-2.458-1.865-3.869-.1-.422-.7-.279-.7.111a.306.306,0,0,0-.341.343q.357,4.068.334,8.148a.36.36,0,0,0,.719,0q.021-3.616-.263-7.217c.26.528.571,1.03.87,1.564a10.723,10.723,0,0,1,1.314,4.334c.041.457.76.461.719,0a11.661,11.661,0,0,0-.791-3.413" transform="translate(-119.103 -203.69)" fill="#dbc7ba"/>
            <path id="Trazado_162524" data-name="Trazado 162524" d="M208.423,334.6a24.807,24.807,0,0,1-5.335,7.666c-.331.324.177.832.508.508a25.292,25.292,0,0,0,5.448-7.812c.187-.419-.432-.785-.621-.363" transform="translate(-138.351 -227.938)" fill="#dbc7ba"/>
            <path id="Trazado_162525" data-name="Trazado 162525" d="M261.757,267.747c-2.738,1.515-6.076.983-8.994.3a13.253,13.253,0,0,1-7.4-4.1c-.3-.355-.84.117-.543.471,2.111,2.514,5.106,3.753,8.254,4.434,2.975.643,6.232,1.083,9-.451.4-.223.089-.87-.318-.645" transform="translate(-166.808 -179.814)" fill="#dbc7ba"/>
            <path id="Trazado_162526" data-name="Trazado 162526" d="M349.036,265.22c.06-.457-.659-.453-.719,0A46.725,46.725,0,0,1,346.6,273c-.12-2.694-.414-5.395-.556-8.02-.025-.46-.743-.463-.719,0,.317,5.867,1.425,12.167-.458,17.852-.145.44.548.629.693.191a24.76,24.76,0,0,0,1.093-7.892c0-.006.007-.009.009-.015a47.888,47.888,0,0,0,2.377-9.9" transform="translate(-235.046 -180.374)" fill="#dbc7ba"/>
            <path id="Trazado_162527" data-name="Trazado 162527" d="M353.23,545.378a7.518,7.518,0,0,1-1.07-.224.36.36,0,0,0-.191.693,8.763,8.763,0,0,0,1.262.25c.458.059.453-.661,0-.719" transform="translate(-239.729 -371.566)" fill="#e87c5a"/>
            <path id="Trazado_162528" data-name="Trazado 162528" d="M360.383,533.855a5.775,5.775,0,0,0-1.876-.736c-.452-.09-.645.6-.191.693a5.181,5.181,0,0,1,1.7.664c.4.242.757-.38.363-.621" transform="translate(-244.051 -363.368)" fill="#e87c5a"/>
            <path id="Trazado_162529" data-name="Trazado 162529" d="M358.955,539.942a5,5,0,0,0-1.3-.447c-.452-.087-.646.606-.191.693a4.315,4.315,0,0,1,1.128.374c.413.206.777-.414.363-.621" transform="translate(-243.47 -367.714)" fill="#e87c5a"/>
            <path id="Trazado_162530" data-name="Trazado 162530" d="M481.4,512.259a3.081,3.081,0,0,0-2.084-.409c-.449.11-.259.8.191.693a2.322,2.322,0,0,1,1.53.336c.416.2.78-.422.363-.621" transform="translate(-326.53 -348.837)" fill="#e87c5a"/>
            <path id="Trazado_162531" data-name="Trazado 162531" d="M483.744,507.8a2.1,2.1,0,0,0-1.407-.172c-.452.1-.261.79.191.693a1.283,1.283,0,0,1,.853.1c.415.2.779-.419.363-.621" transform="translate(-328.585 -345.96)" fill="#e87c5a"/>
            <path id="Trazado_162532" data-name="Trazado 162532" d="M483.972,503a1.744,1.744,0,0,0-1.087-.157c-.456.071-.262.764.191.693a.879.879,0,0,1,.533.084c.415.2.779-.419.363-.621" transform="translate(-328.957 -342.72)" fill="#e87c5a"/>
            <g id="Grupo_169783" data-name="Grupo 169783" transform="translate(161.317 115.909)" opacity="0.6">
              <g id="Grupo_169782" data-name="Grupo 169782">
                <g id="Grupo_169781" data-name="Grupo 169781" clip-path="url(#clip-path)">
                  <path id="Trazado_162533" data-name="Trazado 162533" d="M506.646,364.036l1.59,42.71h18.027l1.337-42.71Z" transform="translate(-506.646 -364.036)" fill="#93b3f4"/>
                </g>
              </g>
            </g>
            <g id="Grupo_169786" data-name="Grupo 169786" transform="translate(162.413 115.987)" opacity="0.5">
              <g id="Grupo_169785" data-name="Grupo 169785">
                <g id="Grupo_169784" data-name="Grupo 169784" clip-path="url(#clip-path-2)">
                  <path id="Trazado_162534" data-name="Trazado 162534" d="M528.85,364.28l-.208,6.635-.174,5.559-.75,23.985a1.983,1.983,0,0,1-1.809,2.063H513.349a2.1,2.1,0,0,1-1.919-2.174l-.977-26.238-.074-2.008-.291-7.822Z" transform="translate(-510.088 -364.28)" fill="#fff"/>
                </g>
              </g>
            </g>
            <path id="Trazado_162535" data-name="Trazado 162535" d="M529.25,396.964l-.75,23.984a1.984,1.984,0,0,1-1.809,2.064H514.131a2.1,2.1,0,0,1-1.918-2.174l-.977-26.238a10.93,10.93,0,0,1,8.153,1.443c3.055,1.774,7.059,1.475,9.862.921" transform="translate(-348.458 -268.782)" fill="#fff"/>
            <g id="Grupo_169789" data-name="Grupo 169789" transform="translate(164.675 117.165)" opacity="0.4">
              <g id="Grupo_169788" data-name="Grupo 169788">
                <g id="Grupo_169787" data-name="Grupo 169787" clip-path="url(#clip-path-3)">
                  <rect id="Rectángulo_42755" data-name="Rectángulo 42755" width="2.335" height="41" transform="translate(0 0)" fill="#fff"/>
                </g>
              </g>
            </g>
            <g id="Grupo_169792" data-name="Grupo 169792" transform="translate(174.763 115.931)" opacity="0.2">
              <g id="Grupo_169791" data-name="Grupo 169791">
                <g id="Grupo_169790" data-name="Grupo 169790" clip-path="url(#clip-path-4)">
                  <rect id="Rectángulo_42757" data-name="Rectángulo 42757" width="4.174" height="42.233" transform="translate(0 0)" fill="#93b3f4"/>
                </g>
              </g>
            </g>
            <g id="Grupo_169795" data-name="Grupo 169795" transform="translate(167.078 116.235)" opacity="0.6">
              <g id="Grupo_169794" data-name="Grupo 169794">
                <g id="Grupo_169793" data-name="Grupo 169793" clip-path="url(#clip-path-5)">
                  <path id="Trazado_162536" data-name="Trazado 162536" d="M537.9,365.185a.18.18,0,0,0-.176-.125H525.518c-4.293,0,10.576.335,10.576.335a1.335,1.335,0,0,1,1.335,1.335s.478,4.633.478,4.494V365.3a.235.235,0,0,0,0-.037.16.16,0,0,0,0-.077" transform="translate(-524.74 -365.06)" fill="#93b3f4"/>
                </g>
              </g>
            </g>
            <path id="Trazado_162537" data-name="Trazado 162537" d="M20.052,519.99s2.763,7.8,20.981,8.468,24.47-8.949,24.47-8.949Z" transform="translate(-13.667 -354.097)" fill="#ede2db"/>
            <path id="Trazado_162538" data-name="Trazado 162538" d="M56.985,472.728c0,6.889-12.757,12.474-28.493,12.474S0,479.617,0,472.728s12.756-12.474,28.493-12.474,28.493,5.585,28.493,12.474" transform="translate(0 -313.709)" fill="#fff"/>
            <path id="Trazado_162539" data-name="Trazado 162539" d="M37.2,486.322c-13.7,0-24.424-4.4-24.424-10.014S23.508,466.292,37.2,466.292s24.424,4.4,24.424,10.016S50.9,486.322,37.2,486.322m0-18.888c-12.62,0-23.282,4.064-23.282,8.874S24.583,485.18,37.2,485.18s23.282-4.063,23.282-8.873-10.662-8.874-23.282-8.874" transform="translate(-8.71 -317.824)" fill="#ede2db"/>
            <path id="Trazado_162540" data-name="Trazado 162540" d="M27.2,504.7c-.978-.833-2.273-.771-3.381-1.32a7.828,7.828,0,0,0-1.119-.9c-.58-.66-1.148-1.382-2.162-1.149-1.326.3-1.986,1.009-1.712,2.308a.608.608,0,0,0,.265.385,6.09,6.09,0,0,0,2.846,1.779,7.326,7.326,0,0,1,2.739,1.174,3.51,3.51,0,0,0,1.211.61,1.654,1.654,0,0,0,1.9-.752A1.793,1.793,0,0,0,27.2,504.7" transform="translate(-12.788 -341.675)" fill="#a9b881"/>
            <path id="Trazado_162541" data-name="Trazado 162541" d="M31.215,483.614a1.055,1.055,0,0,0-.471-.756c-1.329-.794-2.564,2.506-2.7,3.343-.058.358,0,.841.36.91a.737.737,0,0,0,.552-.209,8.8,8.8,0,0,0,1.668-1.669,2.728,2.728,0,0,0,.592-1.2,1.375,1.375,0,0,0,0-.423" transform="translate(-19.102 -329.032)" fill="#a9b881"/>
            <path id="Trazado_162542" data-name="Trazado 162542" d="M134.583,484.609a2.471,2.471,0,0,0-.519-.574,1.418,1.418,0,0,0-1.275-.286,1.829,1.829,0,0,0-1.035,1.383c-.513,2.024-1.769,3.767-2.252,5.8a2.478,2.478,0,0,0-.018,1.462,1.726,1.726,0,0,0,1.888.942,3.1,3.1,0,0,0,1.851-1.246,18.113,18.113,0,0,0,1.178-1.954,7.764,7.764,0,0,0,1.008-2.014,4.427,4.427,0,0,0-.535-3.01,4.895,4.895,0,0,0-.293-.5" transform="translate(-88.185 -329.686)" fill="#a9b881"/>
            <path id="Trazado_162543" data-name="Trazado 162543" d="M60.419,471.7,52.665,466.6a1.642,1.642,0,0,0-2.27.467l-1,1.513L26.611,453.567a.571.571,0,0,0-.628.954l22.787,15.01-1,1.512a1.642,1.642,0,0,0,.467,2.271l7.754,5.109a.565.565,0,0,0,.313.094.571.571,0,0,0,.315-1.048l-7.753-5.107a.5.5,0,0,1-.142-.689l.341-.518,8.17,5.382a.571.571,0,0,0,.628-.955L49.7,470.2l.684-1.037,7.8,5.143c.374.247.961.454,1.193.071.221-.365-.184-.782-.54-1.016l-4.92-3.239c-.461-.3-2.45-1.215-2.595-1.705-.092-.311,0-1.348.722-.865l7.754,5.107a.571.571,0,0,0,.628-.954" transform="translate(-17.535 -309.087)" fill="#464752"/>
          </g>
        </g>
      </g>
    </g>
  </g>
</svg>
