<svg xmlns="http://www.w3.org/2000/svg" xmlns:xlink="http://www.w3.org/1999/xlink" width="1238.79" height="684.003" viewBox="0 0 1238.79 684.003">
  <defs>
    <clipPath id="clip-path">
      <rect id="Rect치ngulo_38294" data-name="Rect치ngulo 38294" width="1238.79" height="684.003" rx="23" transform="translate(0 0)" fill="#ffdfe0"/>
    </clipPath>
  </defs>
  <g id="Grupo_169448" data-name="Grupo 169448" transform="translate(-180 -5055.445)">
    <g id="Grupo_161191" data-name="Grupo 161191" transform="translate(0 -14.038)">
      <rect id="Rect치ngulo_4933" data-name="Rect치ngulo 4933" width="1238.79" height="684.003" rx="23" transform="translate(180 5069.483)" fill="#c4d1ff"/>
      <g id="Enmascarar_grupo_164" data-name="Enmascarar grupo 164" transform="translate(180 5069.483)" clip-path="url(#clip-path)">
        <g id="Grupo_169449" data-name="Grupo 169449" transform="matrix(0.259, -0.966, 0.966, 0.259, 1110.023, 729.429)">
          <g id="Grupo_162315" data-name="Grupo 162315" transform="translate(5.432 4.902)" style="mix-blend-mode: overlay;isolation: isolate">
            <path id="Trazado_143614" data-name="Trazado 143614" d="M156.576,73.379c-11.668,10.822-23.7,21.268-35.957,31.541,5.489-10.716,11.375-21.275,16.605-32.1,5.928-12.266,12.895-28.956,6.267-41.47-15.1-28.525-56.361,1-71.669,15.987-1.63,1.6-3.192,3.262-4.771,4.907C72.72,40.331,77.868,28.1,76.99,15.418,75.784-2.023,58.2-5.733,42.7,2.812,26.06,11.985,12.449,27.442,1.052,41.454c-9.681,11.9,11.328,22.4,20.931,10.67A170.705,170.705,0,0,1,39.144,34.064q-1.392,2.233-2.811,4.459c-6.259,9.811-12.446,19.658-17.616,29.946-9.9,19.7-24.482,46.99-13.389,67.119,5.591,10.144,19.4,10.812,29.949,6.332,14.18-6.021,24.259-18.731,33.932-29.52,10.1-11.264,19.051-23.177,28.437-34.9a184.142,184.142,0,0,1,12.3-14.392c.1-.105.209-.2.311-.3l-.118.312a214.894,214.894,0,0,1-9.21,19.97c-6.18,12.25-14.065,25.181-16.593,38.394-2.234,11.684,2.574,24.578,18.058,23.31,14.556-1.191,26.586-14.179,36.557-22.9,12.074-10.569,23.945-21.334,35.818-32.089C187.167,78.567,168.832,62.015,156.576,73.379Z" transform="translate(2.318 2.073)" fill="#3c384f"/>
            <path id="Trazado_143615" data-name="Trazado 143615" d="M103.264,149.071c-5.7.156-10.489-1.523-13.905-4.9-4.749-4.69-6.626-12.491-5.024-20.866,2.089-10.919,7.643-21.475,13.013-31.681,1.286-2.445,2.56-4.865,3.767-7.259,1.144-2.27,2.349-4.655,3.546-7.12q-1.071,1.33-2.121,2.644l-.695.869c-2.439,3.045-4.847,6.1-7.254,9.158-6.758,8.578-13.747,17.45-21.269,25.841-1.1,1.225-2.2,2.476-3.319,3.74-8.63,9.776-18.411,20.854-31.511,26.415-11.678,4.953-26.75,4.069-32.966-7.215-11.171-20.27,2.366-47.117,12.252-66.719L18.9,69.752c2.908-5.791,6.144-11.454,9.565-17.1q-1.171,1.364-2.3,2.747c-5.937,7.252-15.954,7.42-22.213,3.391C-1.224,55.46-3.991,49.077,1.5,42.327,13.667,27.37,27.222,12.262,43.879,3.08,53.124-2.016,63.1-3.075,70.585.245,77.172,3.168,81.106,9.2,81.66,17.237c.651,9.423-1.877,18.529-5.405,27.246,12.42-11.028,35.251-26.81,53.129-25,8.213.834,14.457,5.187,18.56,12.937,6.75,12.745.628,29.011-6.252,43.24-3.274,6.774-6.854,13.54-10.317,20.085l-1.226,2.315c9.972-8.517,18.9-16.441,27.106-24.049v0a15.757,15.757,0,0,1,14.215-4.177c5.606,1.176,10.3,5.378,11.682,10.461,1.266,4.662-.312,9.294-4.448,13.039l-1.35,1.221c-11.241,10.184-22.865,20.715-34.5,30.894-1.434,1.256-2.908,2.6-4.428,3.981-9.042,8.225-20.295,18.465-33.638,19.557C104.275,149.031,103.766,149.057,103.264,149.071Zm9.364-86.234a2.318,2.318,0,0,1,1.132.244A1.9,1.9,0,0,1,114.8,65.47l-.12.314a217.562,217.562,0,0,1-9.3,20.166c-1.219,2.417-2.506,4.859-3.8,7.324-5.225,9.934-10.629,20.2-12.6,30.524-1.34,7.007.17,13.673,3.938,17.4,2.795,2.761,6.732,3.937,11.717,3.545,11.552-.947,21.645-10.128,30.55-18.23,1.544-1.4,3.042-2.767,4.5-4.043,11.6-10.153,23.212-20.669,34.438-30.839l1.348-1.221c3.659-3.313,3.706-6.652,3.1-8.87a11.226,11.226,0,0,0-8.412-7.543,10.5,10.5,0,0,0-9.625,2.9v0c-10.6,9.827-22.392,20.171-36.053,31.62a2.569,2.569,0,0,1-2.971.243,1.938,1.938,0,0,1-.7-2.573c2.074-4.051,4.206-8.078,6.338-12.1,3.443-6.511,7.005-13.242,10.245-19.945,6.445-13.329,12.23-28.469,6.281-39.7-3.457-6.534-8.39-10.04-15.08-10.717C111.924,22.035,87.9,38.994,75.828,50.815c-1.288,1.258-2.53,2.562-3.775,3.865l-.941.987a2.583,2.583,0,0,1-3.028.507,1.943,1.943,0,0,1-.87-2.6c5.4-11.353,10.6-23.471,9.742-35.833C76.5,11.122,73.51,6.4,68.317,4.1,62.26,1.409,53.977,2.379,46.157,6.688c-15.9,8.767-29.063,23.462-40.92,38.038C1.492,49.332,3.6,53.193,6.827,55.269a11.871,11.871,0,0,0,15.608-2.277,174.043,174.043,0,0,1,17.4-18.315,2.57,2.57,0,0,1,3.085-.289A1.948,1.948,0,0,1,43.5,37.1q-1.4,2.243-2.826,4.478c-6.336,9.934-12.445,19.686-17.5,29.749l-1.124,2.233C12.562,92.369-.424,118.128,9.767,136.622c4.951,8.984,17.3,9.536,26.931,5.448,12.024-5.1,21.005-15.276,29.69-25.115,1.124-1.271,2.237-2.532,3.346-3.766,7.42-8.279,14.359-17.09,21.074-25.612q3.62-4.6,7.276-9.187l.695-.867a175.865,175.865,0,0,1,11.769-13.709l.216-.213A2.866,2.866,0,0,1,112.628,62.837ZM158.9,75.452h0Z" fill="#3c384f"/>
            <path id="Trazado_143616" data-name="Trazado 143616" d="M9.7.818C.541,16.841-4.917,35.48,2.195,52.238c1.05,2.478,5.641,1.256,4.576-1.259C.1,35.245,5.088,17.928,13.7,2.857,15.122.373,11.124-1.68,9.7.818Z" transform="translate(10.936 80.488)" fill="#3c384f"/>
            <path id="Trazado_143617" data-name="Trazado 143617" d="M6.887,11.347c-.04,0-.077-.013-.115-.018-.062-.113-.118-.237-.138-.271l-.011-.012c0-.017,0,0,0-.03-.275-.945-.463-1.9-.664-2.866q-.7-3.352-1.4-6.7A2.275,2.275,0,0,0,1.707.037,2.3,2.3,0,0,0-.019,2.7Q.77,6.5,1.562,10.287c.438,2.1,1.157,4.859,3.947,5.207a2.6,2.6,0,0,0,2.943-1.57A2.014,2.014,0,0,0,6.887,11.347Z" transform="translate(19.538 114.762)" fill="#3c384f"/>
            <path id="Trazado_143618" data-name="Trazado 143618" d="M6.9.081C4.269-1.137,1.777,2.608,4.416,3.828c3.644,1.685,4.662,5.292,4.7,8.861A56.907,56.907,0,0,1,7.683,24.941a80.122,80.122,0,0,1-8.87,23.126c-1.419,2.486,2.576,4.537,4,2.04a83.877,83.877,0,0,0,9.961-27.222C14.12,15.17,15.78,4.186,6.9.081Z" transform="translate(125.986 32.239)" fill="#3c384f"/>
          </g>
          <g id="Grupo_162318" data-name="Grupo 162318" transform="translate(0 0)">
            <g id="Grupo_162317" data-name="Grupo 162317">
              <g id="Grupo_162316" data-name="Grupo 162316">
                <path id="Trazado_143619" data-name="Trazado 143619" d="M156.578,73.38c-11.668,10.822-23.7,21.268-35.959,31.539C126.107,94.2,132,83.644,137.226,72.826c5.929-12.266,12.892-28.956,6.267-41.47-15.1-28.525-56.361,1-71.669,15.987-1.632,1.6-3.191,3.259-4.771,4.907C72.719,40.332,77.868,28.1,76.992,15.419,75.786-2.022,58.2-5.732,42.7,2.811,26.059,11.986,12.451,27.443,1.051,41.454c-9.681,11.9,11.33,22.4,20.933,10.67A170.919,170.919,0,0,1,39.143,34.062q-1.392,2.233-2.809,4.461c-6.259,9.811-12.446,19.658-17.616,29.944-9.9,19.7-24.482,46.99-13.389,67.121,5.591,10.144,19.4,10.812,29.949,6.332,14.18-6.021,24.259-18.731,33.932-29.52,10.1-11.264,19.049-23.177,28.435-34.9a185.59,185.59,0,0,1,12.3-14.394c.1-.1.211-.2.313-.3l-.118.314a215.515,215.515,0,0,1-9.21,19.97c-6.182,12.248-14.065,25.179-16.593,38.394-2.237,11.684,2.574,24.578,18.058,23.31,14.553-1.191,26.583-14.179,36.554-22.9,12.077-10.569,23.947-21.336,35.82-32.091C187.167,78.568,168.832,62.016,156.578,73.38Z" transform="translate(2.316 2.072)" fill="#6b8dff"/>
                <path id="Trazado_143620" data-name="Trazado 143620" d="M103.262,149.069c-5.7.156-10.487-1.521-13.9-4.9-4.749-4.691-6.626-12.491-5.024-20.868,2.086-10.917,7.641-21.473,13.013-31.681,1.284-2.444,2.557-4.863,3.767-7.256,1.144-2.27,2.349-4.655,3.546-7.121-.714.884-1.421,1.769-2.121,2.644l-.695.867c-2.439,3.045-4.847,6.1-7.256,9.159-6.756,8.58-13.744,17.452-21.267,25.841Q71.674,117.6,70,119.5c-8.63,9.773-18.411,20.852-31.511,26.415-11.681,4.953-26.75,4.067-32.966-7.217-11.171-20.267,2.366-47.115,12.25-66.719L18.9,69.752c2.908-5.791,6.144-11.454,9.563-17.1q-1.168,1.364-2.3,2.745c-5.934,7.254-15.952,7.422-22.211,3.393C-1.224,55.46-3.991,49.077,1.5,42.327,13.666,27.37,27.222,12.262,43.877,3.078,53.124-2.015,63.1-3.075,70.585.245,77.172,3.169,81.1,9.2,81.66,17.235c.651,9.423-1.877,18.531-5.408,27.247,12.422-11.026,35.251-26.808,53.129-25,8.213.834,14.459,5.187,18.562,12.937,6.748,12.745.626,29.009-6.252,43.24-3.274,6.772-6.854,13.54-10.317,20.083l-1.226,2.315c9.971-8.515,18.9-16.439,27.106-24.047h0a15.756,15.756,0,0,1,14.215-4.175c5.606,1.176,10.3,5.378,11.68,10.461,1.269,4.662-.31,9.292-4.446,13.037l-1.35,1.224c-11.241,10.184-22.865,20.712-34.5,30.894-1.434,1.256-2.908,2.6-4.43,3.981-9.04,8.225-20.292,18.465-33.635,19.557C104.273,149.029,103.766,149.055,103.262,149.069Zm9.364-86.234a2.313,2.313,0,0,1,1.132.246,1.9,1.9,0,0,1,1.041,2.389l-.12.314a217.821,217.821,0,0,1-9.3,20.166c-1.219,2.415-2.506,4.857-3.8,7.323-5.227,9.934-10.631,20.2-12.606,30.522-1.34,7.007.17,13.673,3.94,17.4,2.793,2.759,6.732,3.937,11.718,3.545,11.552-.947,21.645-10.128,30.547-18.23,1.544-1.406,3.045-2.77,4.5-4.043,11.6-10.153,23.212-20.669,34.438-30.839l1.348-1.224c3.657-3.31,3.706-6.65,3.1-8.87a11.22,11.22,0,0,0-8.412-7.54,10.5,10.5,0,0,0-9.623,2.9h0c-10.6,9.827-22.392,20.171-36.053,31.623a2.57,2.57,0,0,1-2.971.243,1.936,1.936,0,0,1-.7-2.573c2.074-4.051,4.206-8.078,6.335-12.107,3.445-6.508,7.005-13.24,10.247-19.943,6.443-13.328,12.23-28.469,6.282-39.7-3.46-6.532-8.393-10.038-15.08-10.717C111.924,22.036,87.9,38.994,75.825,50.814c-1.286,1.26-2.528,2.564-3.772,3.865l-.943.989a2.579,2.579,0,0,1-3.026.507,1.946,1.946,0,0,1-.872-2.6c5.4-11.351,10.6-23.471,9.744-35.831C76.5,11.12,73.51,6.4,68.317,4.1,62.258,1.409,53.977,2.379,46.157,6.688,30.256,15.453,17.094,30.15,5.237,44.726,1.49,49.332,3.6,53.191,6.827,55.267a11.868,11.868,0,0,0,15.608-2.275,173.61,173.61,0,0,1,17.4-18.315,2.566,2.566,0,0,1,3.083-.289A1.944,1.944,0,0,1,43.5,37.1q-1.4,2.246-2.824,4.481a340.285,340.285,0,0,0-17.5,29.749l-1.124,2.233C12.562,92.369-.424,118.128,9.767,136.62c4.951,8.986,17.3,9.538,26.93,5.45,12.024-5.1,21.006-15.278,29.69-25.115q1.685-1.909,3.343-3.768c7.422-8.277,14.362-17.088,21.076-25.61,2.414-3.065,4.83-6.133,7.276-9.189l.695-.865a175.951,175.951,0,0,1,11.767-13.709l.218-.213A2.863,2.863,0,0,1,112.626,62.835Zm46.268,12.617h0Z"/>
              </g>
              <path id="Trazado_143621" data-name="Trazado 143621" d="M9.7.818C.54,16.841-4.916,35.479,2.193,52.238c1.052,2.476,5.644,1.256,4.578-1.259C.1,35.243,5.087,17.929,13.7,2.858,15.121.371,11.125-1.679,9.7.818Z" transform="translate(10.935 80.488)"/>
              <path id="Trazado_143622" data-name="Trazado 143622" d="M6.887,11.347c-.04,0-.077-.013-.115-.018-.062-.115-.12-.237-.14-.271l-.009-.013c0-.017,0-.006,0-.032-.275-.943-.465-1.9-.664-2.864q-.7-3.352-1.4-6.7A2.277,2.277,0,0,0,1.705.037,2.3,2.3,0,0,0-.019,2.7l1.578,7.581c.44,2.105,1.159,4.861,3.949,5.209a2.607,2.607,0,0,0,2.943-1.57A2.015,2.015,0,0,0,6.887,11.347Z" transform="translate(19.538 114.762)"/>
              <path id="Trazado_143623" data-name="Trazado 143623" d="M6.9.081C4.27-1.137,1.775,2.608,4.416,3.828c3.644,1.685,4.66,5.292,4.7,8.859A56.923,56.923,0,0,1,7.684,24.941a80.12,80.12,0,0,1-8.87,23.126c-1.422,2.487,2.576,4.537,4,2.04a83.965,83.965,0,0,0,9.961-27.222C14.121,15.168,15.781,4.184,6.9.081Z" transform="translate(125.985 32.239)"/>
            </g>
          </g>
        </g>
        <g id="Grupo_169450" data-name="Grupo 169450" transform="translate(-143.488 37.53) rotate(-50)">
          <g id="Grupo_162315-2" data-name="Grupo 162315" transform="translate(8.136 7.966)" style="mix-blend-mode: overlay;isolation: isolate">
            <path id="Trazado_143614-2" data-name="Trazado 143614" d="M237.853,116.175c-18.522,18.552-37.593,36.492-56.992,54.152,8.989-18.124,18.583-36,27.178-54.287,9.743-20.731,21.3-48.892,11.7-69.524-21.893-47.029-86.96,3.974-111.3,29.63-2.592,2.735-5.081,5.578-7.6,8.391C110.161,64.4,118.7,43.762,117.968,22.611,116.962-6.472,90.023-11.951,65.708,2.954,39.6,18.955,17.852,45.329-.409,69.2c-15.511,20.273,16.37,36.956,31.753,16.967A300.791,300.791,0,0,1,58.693,55.3q-2.255,3.787-4.553,7.563C44.007,79.5,33.984,96.205,25.508,113.6,9.28,146.9-14.546,193.088,1.573,226.257c8.125,16.716,29.388,17.267,45.873,9.355,22.161-10.636,38.327-32.277,53.772-50.692,16.122-19.227,30.513-39.491,45.561-59.453,6.287-8.342,12.576-16.8,19.673-24.542.163-.18.332-.345.494-.521l-.2.526c-4.351,11.5-9.734,22.6-15.18,33.732-10.13,20.713-22.923,42.635-27.469,64.807-4.018,19.607,2.766,40.948,26.7,38.2,22.5-2.584,41.691-24.768,57.494-39.751,19.137-18.146,37.97-36.612,56.8-55.061C284.772,123.592,257.309,96.693,237.853,116.175Z" transform="translate(3.473 3.367)" fill="#3c384f"/>
            <path id="Trazado_143615-2" data-name="Trazado 143615" d="M151.936,244.781c-8.8.494-16.1-2.116-21.2-7.613-7.093-7.641-9.606-20.593-6.725-34.648,3.756-18.324,12.838-36.183,21.618-53.449,2.1-4.136,4.186-8.231,6.164-12.278,1.876-3.839,3.85-7.871,5.817-12.038q-1.717,2.265-3.4,4.5l-1.114,1.48q-5.865,7.778-11.634,15.594c-10.842,14.6-22.053,29.709-34.064,44.031-1.754,2.091-3.518,4.226-5.3,6.383-13.787,16.681-29.413,35.585-49.885,45.409-18.251,8.75-41.45,7.889-50.482-10.705-16.233-33.4,5.957-78.8,22.162-111.943l1.839-3.769c4.768-9.791,10.035-19.383,15.588-28.948q-1.873,2.327-3.682,4.682c-9.51,12.356-24.966,13.045-34.42,6.571C-4.6,92.686-8.559,82.137.238,70.639c19.5-25.48,41.139-51.269,67.275-67.286,14.5-8.888,29.948-11.066,41.321-5.825,10.013,4.614,15.784,14.531,16.246,27.929.543,15.713-3.8,31.026-9.67,45.731,19.693-18.927,55.672-46.22,83.152-43.933,12.623,1.057,22.039,8.074,27.987,20.852,9.785,21.013-.453,48.432-11.759,72.48-5.381,11.449-11.233,22.9-16.893,33.97l-2,3.917c15.794-14.634,29.952-28.234,42.977-41.277v0c6.44-6.453,14.3-9.133,22.126-7.557a22.707,22.707,0,0,1,17.5,17c1.724,7.736-.937,15.537-7.5,21.962l-2.142,2.1c-17.833,17.469-36.273,35.533-54.713,53.011-2.272,2.156-4.611,4.458-7.023,6.831-14.347,14.108-32.2,31.671-52.829,34.04C153.5,244.672,152.71,244.738,151.936,244.781ZM170.6,100.36a3.232,3.232,0,0,1,1.733.361,3.113,3.113,0,0,1,1.484,3.949l-.2.53c-4.561,12.057-10.278,23.748-15.322,34.063-2,4.087-4.1,8.219-6.221,12.388-8.543,16.806-17.38,34.182-20.93,51.5-2.409,11.758-.408,22.832,5.22,28.9,4.175,4.5,10.189,6.3,17.9,5.443,17.861-2.054,33.874-17.8,48-31.7,2.45-2.407,4.827-4.747,7.134-6.937,18.389-17.433,36.806-35.471,54.617-52.917l2.138-2.1c5.8-5.683,6.041-11.262,5.222-14.943a16.581,16.581,0,0,0-12.6-12.255c-3.708-.751-9.31-.444-14.984,5.242v0c-16.827,16.848-35.517,34.606-57.145,54.288a3.772,3.772,0,0,1-4.593.528,3.281,3.281,0,0,1-.959-4.269c3.4-6.851,6.881-13.665,10.366-20.478,5.628-11.015,11.451-22.4,16.775-33.732,10.592-22.526,20.255-48.051,11.631-66.569-5.011-10.773-12.447-16.427-22.729-17.285-25.619-2.136-63.5,27.171-82.692,47.409-2.048,2.154-4.027,4.382-6.01,6.611l-1.5,1.686a3.86,3.86,0,0,1-4.694.97,3.249,3.249,0,0,1-1.214-4.3C109.9,67.565,118.513,47.111,117.8,26.5c-.383-11.044-4.758-18.805-12.653-22.444C95.94-.189,83.118,1.77,70.849,9.286,45.9,24.579,24.883,49.662,5.885,74.492c-6,7.846-2.937,14.211,1.935,17.546,6.6,4.514,17.312,4.488,24.18-4.44A306.68,306.68,0,0,1,59.732,56.3a3.785,3.785,0,0,1,4.771-.609,3.333,3.333,0,0,1,.757,4.508q-2.267,3.8-4.577,7.6C50.426,84.643,40.528,101.18,32.237,118.2l-1.843,3.776C14.846,153.773-6.441,197.329,8.368,227.8c7.194,14.8,26.2,15.222,41.261,8,18.792-9.015,33.14-26.374,47.013-43.162,1.795-2.168,3.574-4.321,5.344-6.427,11.848-14.131,22.98-29.132,33.751-43.64q5.808-7.828,11.67-15.642l1.114-1.476c5.9-7.837,12.005-15.938,18.82-23.378l.343-.364A4.51,4.51,0,0,1,170.6,100.36Zm70.729,19.181.033,0Z" fill="#3c384f"/>
            <path id="Trazado_143616-2" data-name="Trazado 143616" d="M14.913.97C.009,28.107-9.32,59.464.825,87.164c1.5,4.1,8.638,1.867,7.118-2.289C-1.578,58.866,6.968,29.738,20.986,4.213A3.446,3.446,0,1,0,14.913.97Z" transform="translate(12.921 133.994)" fill="#3c384f"/>
            <path id="Trazado_143617-2" data-name="Trazado 143617" d="M10.064,18.672c-.061,0-.118-.018-.176-.026-.091-.187-.17-.392-.2-.447l-.017-.02c-.006-.028,0-.007,0-.049-.378-1.567-.62-3.159-.884-4.76Q7.874,7.8,6.961,2.229A3.272,3.272,0,0,0,2.631-.008,4.111,4.111,0,0,0-.161,4.518Q.87,10.817,1.9,17.12c.572,3.5,1.546,8.069,5.832,8.536a4.215,4.215,0,0,0,4.614-2.742C12.849,21.17,12.052,18.888,10.064,18.672Z" transform="translate(24.507 190.891)" fill="#3c384f"/>
            <path id="Trazado_143618-2" data-name="Trazado 143618" d="M10.642-.146c-4-1.928-8.031,4.429-4.021,6.36,5.537,2.666,6.93,8.648,6.814,14.608a104.655,104.655,0,0,1-2.809,20.523A148.486,148.486,0,0,1-4.184,80.335a3.446,3.446,0,1,0,6.073,3.244A155.475,155.475,0,0,0,18.583,37.7C21.031,24.762,24.129,6.348,10.642-.146Z" transform="translate(192.698 48.707)" fill="#3c384f"/>
          </g>
          <g id="Grupo_162318-2" data-name="Grupo 162318">
            <g id="Grupo_162317-2" data-name="Grupo 162317">
              <g id="Grupo_162316-2" data-name="Grupo 162316">
                <path id="Trazado_143619-2" data-name="Trazado 143619" d="M237.856,116.176c-18.522,18.552-37.593,36.492-57,54.148,8.988-18.12,18.586-36,27.181-54.284,9.743-20.731,21.3-48.891,11.7-69.524-21.893-47.029-86.96,3.97-111.3,29.63-2.6,2.732-5.081,5.574-7.6,8.391C110.161,64.4,118.7,43.764,117.971,22.612,116.965-6.471,90.026-11.951,65.712,2.951,39.6,18.956,17.855,45.33-.41,69.2c-15.511,20.273,16.374,36.956,31.757,16.967A301.176,301.176,0,0,1,58.692,55.3q-2.255,3.787-4.55,7.566C44.01,79.506,33.987,96.206,25.511,113.6,9.279,146.905-14.543,193.086,1.577,226.258c8.125,16.716,29.384,17.267,45.873,9.355,22.161-10.636,38.327-32.277,53.772-50.692,16.122-19.227,30.51-39.49,45.558-59.453,6.29-8.342,12.58-16.8,19.674-24.545.162-.176.335-.342.5-.522l-.2.53c-4.351,11.5-9.738,22.6-15.18,33.732-10.133,20.71-22.923,42.631-27.469,64.807-4.022,19.607,2.766,40.948,26.7,38.2,22.5-2.584,41.687-24.768,57.49-39.75,19.141-18.146,37.974-36.616,56.809-55.065C284.772,123.593,257.309,96.694,237.856,116.176Z" transform="translate(3.47 3.367)" fill="#6b8dff"/>
                <path id="Trazado_143620-2" data-name="Trazado 143620" d="M151.932,244.778c-8.8.494-16.1-2.113-21.2-7.609-7.093-7.641-9.606-20.593-6.725-34.652,3.752-18.32,12.834-36.179,21.618-53.449,2.1-4.135,4.182-8.227,6.164-12.274,1.876-3.839,3.85-7.871,5.817-12.038-1.145,1.506-2.278,3.012-3.4,4.5l-1.114,1.476q-5.865,7.778-11.638,15.594c-10.838,14.608-22.05,29.712-34.06,44.03q-2.632,3.142-5.3,6.386c-13.787,16.677-29.412,35.582-49.885,45.409-18.255,8.751-41.45,7.885-50.482-10.709-16.234-33.4,5.957-78.793,22.158-111.943l1.843-3.766c4.768-9.791,10.035-19.383,15.584-28.948q-1.867,2.327-3.682,4.679c-9.507,12.359-24.962,13.049-34.416,6.574C-4.6,92.686-8.559,82.138.238,70.639,19.734,45.159,41.377,19.37,67.51,3.35,82.018-5.535,97.458-7.712,108.834-2.472c10.014,4.614,15.781,14.528,16.246,27.926.543,15.713-3.8,31.029-9.674,45.731,19.7-18.923,55.672-46.217,83.152-43.929,12.623,1.057,22.043,8.074,27.99,20.851,9.781,21.013-.457,48.429-11.759,72.48-5.381,11.445-11.233,22.9-16.893,33.966l-2,3.917c15.794-14.63,29.952-28.23,42.977-41.273h0c6.44-6.453,14.3-9.129,22.126-7.554a22.7,22.7,0,0,1,17.5,17c1.728,7.736-.933,15.533-7.494,21.958l-2.142,2.1c-17.833,17.469-36.273,35.53-54.713,53.011-2.272,2.156-4.611,4.458-7.027,6.831-14.343,14.108-32.2,31.671-52.826,34.04C153.493,244.669,152.71,244.734,151.932,244.778ZM170.6,100.357a3.225,3.225,0,0,1,1.733.365,3.11,3.11,0,0,1,1.488,3.948l-.2.53c-4.56,12.053-10.278,23.748-15.322,34.063-2,4.084-4.1,8.216-6.221,12.388-8.547,16.806-17.384,34.182-20.934,51.5-2.409,11.758-.408,22.832,5.224,28.9,4.171,4.494,10.189,6.3,17.9,5.443,17.861-2.054,33.874-17.8,48-31.7,2.45-2.411,4.831-4.75,7.138-6.937,18.389-17.433,36.806-35.471,54.617-52.917l2.139-2.1c5.8-5.679,6.041-11.259,5.219-14.942a16.572,16.572,0,0,0-12.6-12.252c-3.7-.751-9.306-.444-14.981,5.242h0c-16.827,16.848-35.517,34.606-57.145,54.292a3.772,3.772,0,0,1-4.593.528,3.278,3.278,0,0,1-.959-4.269c3.4-6.851,6.881-13.665,10.363-20.481,5.632-11.012,11.451-22.4,16.778-33.729,10.589-22.526,20.255-48.051,11.631-66.572-5.015-10.77-12.45-16.423-22.729-17.285-25.619-2.132-63.5,27.175-82.7,47.41-2.044,2.157-4.024,4.385-6.006,6.61l-1.5,1.69a3.854,3.854,0,0,1-4.691.97,3.253,3.253,0,0,1-1.218-4.3C109.9,67.565,118.513,47.108,117.8,26.5c-.382-11.047-4.758-18.809-12.653-22.447-9.212-4.24-22.03-2.281-34.3,5.235C45.9,24.576,24.883,49.662,5.885,74.493-.12,82.339,2.948,88.7,7.82,92.035c6.6,4.518,17.312,4.492,24.18-4.437A305.913,305.913,0,0,1,59.732,56.3a3.78,3.78,0,0,1,4.768-.609,3.326,3.326,0,0,1,.757,4.5q-2.267,3.809-4.574,7.6c-10.26,16.852-20.154,33.389-28.449,50.4l-1.843,3.776C14.846,153.774-6.441,197.329,8.369,227.8c7.194,14.807,26.2,15.225,41.261,8,18.792-9.015,33.14-26.377,47.013-43.162q2.692-3.258,5.34-6.431c11.851-14.128,22.984-29.129,33.755-43.637q5.808-7.828,11.67-15.645l1.114-1.473c5.9-7.837,12.006-15.941,18.817-23.378l.347-.364A4.506,4.506,0,0,1,170.6,100.357Zm70.729,19.185.036,0Z"/>
              </g>
              <path id="Trazado_143621-2" data-name="Trazado 143621" d="M14.915.97C.007,28.108-9.318,59.461.823,87.165c1.5,4.093,8.641,1.867,7.122-2.289C-1.579,58.864,6.966,29.739,20.988,4.214A3.446,3.446,0,1,0,14.915.97Z" transform="translate(12.92 133.994)"/>
              <path id="Trazado_143622-2" data-name="Trazado 143622" d="M10.064,18.672c-.061,0-.118-.018-.176-.026-.091-.19-.173-.392-.2-.447l-.013-.021c-.006-.028,0-.011,0-.053-.378-1.563-.624-3.159-.884-4.757Q7.868,7.8,6.961,2.229A3.274,3.274,0,0,0,2.627-.007,4.11,4.11,0,0,0-.161,4.518L1.9,17.116c.575,3.5,1.549,8.073,5.835,8.539a4.219,4.219,0,0,0,4.615-2.742C12.849,21.17,12.048,18.888,10.064,18.672Z" transform="translate(24.507 190.891)"/>
              <path id="Trazado_143623-2" data-name="Trazado 143623" d="M10.643-.146c-4-1.928-8.034,4.429-4.021,6.36,5.537,2.666,6.927,8.648,6.814,14.6a104.685,104.685,0,0,1-2.809,20.526A148.486,148.486,0,0,1-4.183,80.335,3.446,3.446,0,1,0,1.89,83.579,155.637,155.637,0,0,0,18.584,37.7C21.032,24.759,24.13,6.344,10.643-.146Z" transform="translate(192.697 48.707)"/>
            </g>
          </g>
        </g>
      </g>
    </g>
  </g>
</svg>
