<svg xmlns="http://www.w3.org/2000/svg" width="190" height="180.511" viewBox="0 0 190 180.511">
  <g id="Grupo_169817" data-name="Grupo 169817" transform="translate(-184 -6741)">
    <rect id="Rectángulo_42525" data-name="Rectángulo 42525" width="190" height="166" rx="11" transform="translate(184 6741)" fill="#ffbfc1"/>
    <path id="Trazado_162003" data-name="Trazado 162003" d="M107.537,200.839c12.534-5.015,25.533-11.782,30.58-23.1,5.6-12.56-.262-26.625-.121-40.126.112-10.7,4.031-21.024,7.114-31.366s5.348-21.331,2.167-31.65a39.572,39.572,0,0,0-12.493-18.117A51,51,0,0,0,95.606,45.02c-14.077,2-26.867,11.1-30.983,23.17-5.831,17.1,5.559,35.362,3.138,53.1-.947,6.94-3.979,13.5-6.034,20.252a73.967,73.967,0,0,0-3.221,22.034c.077,11.385,3.339,23.531,12.943,31.112C81.136,202.333,95.552,205.635,107.537,200.839Z" transform="matrix(0.719, 0.695, -0.695, 0.719, 290.447, 6670.053)" fill="#fff0f1"/>
    <g id="Grupo_169818" data-name="Grupo 169818" transform="translate(-796.242 6536.885)">
      <path id="Trazado_117089" data-name="Trazado 117089" d="M1167.4,259.072c7.555,0,7.982-10.9,6.272-15.815,0,0,9.833-6.413,3.847-18.6s-14.963-.641-16.245,2.138-13.039-10.475-19.666-9.833-6.84,7.7-8.336,7.7-11.3-2.565-16.977,1.283-1.612,7.7-2.792,9.619-9.944,4.062-3.531,10.688c0,0-10.688-1.069-11.757,4.275s2.565,7.482,2.137,9.406-9.619,13.035,9.619,16.671c0,0,.561,29.288,24.756,17.744S1167.4,259.072,1167.4,259.072Z" transform="translate(-82.223)" fill="#a56a42"/>
      <path id="Trazado_117090" data-name="Trazado 117090" d="M1069.586,480.653l-5.5,54.8h-32.826c3.607-9.534,13.734-36.157,16.878-42.966,3.848-8.337,11.329-8.978,11.329-8.978A43.743,43.743,0,0,1,1069.586,480.653Z" transform="translate(-40.277 -166.294)" fill="#3bad96"/>
      <path id="Trazado_117091" data-name="Trazado 117091" d="M1306.661,536.064h-42.222V481.617a76.393,76.393,0,0,1,8.3,2.325,23.443,23.443,0,0,1,12.438,10.011C1288.62,499.863,1301.068,524.805,1306.661,536.064Z" transform="translate(-187.314 -166.902)" fill="#3bad96"/>
      <path id="Trazado_117092" data-name="Trazado 117092" d="M1177.282,531.432h-69.659V479.489a43.742,43.742,0,0,1,10.114-2.859,178.157,178.157,0,0,1,20.276-2.271,105,105,0,0,1,27.539,2.627,76.421,76.421,0,0,1,8.3,2.325l1.968,29.851.53,8.1Z" transform="translate(-88.428 -162.271)" fill="#3bad96"/>
      <path id="Trazado_117093" data-name="Trazado 117093" d="M1417.025,485.838l-.08,3.625-1.091,48.319h-23.509c2.641-7.869,12.608-37.786,15.213-49.236a14.484,14.484,0,0,0,.6-4.2Z" transform="translate(-267.97 -168.62)" fill="#ffaf82"/>
      <path id="Trazado_117094" data-name="Trazado 117094" d="M1128.188,628.533H955.332a.682.682,0,0,1,0-1.336h172.856a.682.682,0,0,1,0,1.336Z" transform="translate(27.456 -258.703)" fill="#6a2810"/>
      <path id="Trazado_117095" data-name="Trazado 117095" d="M1058.9,605.733c9.118.2,16.076,10.734,6.782,23.322a1.727,1.727,0,0,1-3.1-.9,9.894,9.894,0,0,1,.167-2.759s-2.351,2.672-3.848-.107c0,0-.962,2.351-3.634.321,0,0-1.069,2.992-4.168,1.175s-6.092-11.97-2.993-16.994S1058.9,605.733,1058.9,605.733Z" transform="translate(-50.073 -245.122)" fill="#ffaf82"/>
      <path id="Trazado_117096" data-name="Trazado 117096" d="M1063.474,641.5a.668.668,0,0,1-.565-.31c-2.843-4.484-3.087-10.45-3.1-10.7a.668.668,0,1,1,1.335-.048c0,.058.243,5.861,2.889,10.034a.668.668,0,0,1-.564,1.026Z" transform="translate(-58.279 -260.345)" fill="#fe976a"/>
      <path id="Trazado_117097" data-name="Trazado 117097" d="M1077.22,638.447a.668.668,0,0,1-.654-.537,39.238,39.238,0,0,1-.467-11.873.668.668,0,0,1,1.323.185,38.623,38.623,0,0,0,.454,11.426.668.668,0,0,1-.525.786A.657.657,0,0,1,1077.22,638.447Z" transform="translate(-68.393 -257.609)" fill="#fe976a"/>
      <path id="Trazado_117098" data-name="Trazado 117098" d="M1088.833,639.1a.669.669,0,0,1-.6-.967c1.7-3.406.694-10.971.684-11.047a.668.668,0,0,1,1.323-.181c.045.327,1.075,8.05-.812,11.826A.668.668,0,0,1,1088.833,639.1Z" transform="translate(-76.158 -258.156)" fill="#fe976a"/>
      <g id="Grupo_83492" data-name="Grupo 83492" transform="translate(1019.195 346.891)">
        <path id="Trazado_117099" data-name="Trazado 117099" d="M1176.347,576.818a204.409,204.409,0,0,1-45.246,5.233,158.1,158.1,0,0,1-23.478-1.647v-8.145c10.643,1.678,35.711,4.017,68.194-3.54Z" transform="translate(-1107.623 -568.717)" fill="#0091cc"/>
      </g>
      <path id="Trazado_117100" data-name="Trazado 117100" d="M1182.312,399.6v30.02s-1.358,8.336-10.764,7.7a11.259,11.259,0,0,1-10.688-9.192V399.6Z" transform="translate(-121.998 -115.186)" fill="#ffaf82"/>
      <path id="Trazado_117101" data-name="Trazado 117101" d="M1182.312,399.6v27.851c-12.853-.543-18.33-11.174-21.452-21.216V399.6Z" transform="translate(-121.998 -115.186)" fill="#fe976a"/>
      <path id="Trazado_117102" data-name="Trazado 117102" d="M1193.641,274.205c9.619,16.834,13.467,59.158-13.467,59.158s-34.629-22.124-28.377-47.615S1193.641,274.205,1193.641,274.205Z" transform="translate(-114.993 -33.708)" fill="#ffaf82"/>
      <path id="Trazado_117103" data-name="Trazado 117103" d="M1135.024,372.487c-2.753,8.5-17.845,6.019-18.756-3.52-.884-9.253,9.648-13.2,16.567-7.113S1135.024,372.487,1135.024,372.487Z" transform="translate(-93.846 -89.54)" fill="#ffaf82"/>
      <path id="Trazado_117104" data-name="Trazado 117104" d="M1134.234,379.411a.668.668,0,0,1-.537-1.065c.027-.037,2.724-3.769,1.27-6.563a.668.668,0,0,1,1.185-.617c1.839,3.535-1.247,7.793-1.379,7.973A.667.667,0,0,1,1134.234,379.411Z" transform="translate(-104.787 -97.026)" fill="#fe976a"/>
      <path id="Trazado_117105" data-name="Trazado 117105" d="M1141.377,382.36a9.06,9.06,0,0,1-2.878-.416.668.668,0,0,1,.431-1.265,11.932,11.932,0,0,0,5.556-.016.668.668,0,0,1,.323,1.3A15.626,15.626,0,0,1,1141.377,382.36Z" transform="translate(-107.612 -103.229)" fill="#fe976a"/>
      <path id="Trazado_117106" data-name="Trazado 117106" d="M1229.118,402.513a13.734,13.734,0,0,1-6.72-2.024.668.668,0,0,1,.739-1.113c.3.2,7.357,4.759,11.983-1.314a.668.668,0,1,1,1.063.81A8.553,8.553,0,0,1,1229.118,402.513Z" transform="translate(-160.616 -114.047)" fill="#6a2810"/>
      <path id="Trazado_117107" data-name="Trazado 117107" d="M1190.336,374.29a4.217,4.217,0,0,1-1.946-.494,3.14,3.14,0,0,1-1.816-2.708,3.559,3.559,0,0,1,1.527-3.056,1.913,1.913,0,0,1,1.958-.121.668.668,0,1,1-.628,1.179.565.565,0,0,0-.619.073,2.227,2.227,0,0,0-.9,1.87,1.81,1.81,0,0,0,1.1,1.577,2.527,2.527,0,0,0,3.126-.433,3.833,3.833,0,0,0,.461-4.539,3.52,3.52,0,0,0-3.405-2.068,3.293,3.293,0,0,0-2.869,2.182.668.668,0,0,1-1.26-.443,4.629,4.629,0,0,1,4.03-3.071,4.86,4.86,0,0,1,4.685,2.774,5.162,5.162,0,0,1-.692,6.106A3.831,3.831,0,0,1,1190.336,374.29Z" transform="translate(-137.234 -92.875)" fill="#fe976a"/>
      <path id="Trazado_117108" data-name="Trazado 117108" d="M1267.826,363.056a4.216,4.216,0,0,1-1.946-.494,3.141,3.141,0,0,1-1.817-2.708,3.56,3.56,0,0,1,1.528-3.056,1.914,1.914,0,0,1,1.958-.121.668.668,0,1,1-.628,1.179.564.564,0,0,0-.619.073,2.227,2.227,0,0,0-.9,1.87,1.811,1.811,0,0,0,1.1,1.577,2.529,2.529,0,0,0,3.127-.433,3.834,3.834,0,0,0,.461-4.54,3.522,3.522,0,0,0-3.406-2.068,3.292,3.292,0,0,0-2.868,2.182.668.668,0,0,1-1.261-.443,4.629,4.629,0,0,1,4.029-3.071,4.857,4.857,0,0,1,4.686,2.773,5.161,5.161,0,0,1-.692,6.106A3.829,3.829,0,0,1,1267.826,363.056Z" transform="translate(-186.098 -85.791)" fill="#fe976a"/>
      <path id="Trazado_117109" data-name="Trazado 117109" d="M1241.865,361.744a.668.668,0,0,1-.38-1.218l5.279-3.635-5.45-7.894a.668.668,0,0,1,1.1-.759l5.829,8.444a.668.668,0,0,1-.171.929l-5.83,4.014A.665.665,0,0,1,1241.865,361.744Z" transform="translate(-172.657 -82.613)" fill="#6a2810"/>
      <path id="Trazado_117110" data-name="Trazado 117110" d="M1201.013,341.284c0,1.8-.723,2.807-1.614,2.807s-1.614-1.011-1.614-2.807.722-2.76,1.614-2.76S1201.013,339.487,1201.013,341.284Z" transform="translate(-145.283 -76.669)" fill="#6a2810"/>
      <path id="Trazado_117111" data-name="Trazado 117111" d="M1260.091,333.749c0,1.8-.723,2.807-1.614,2.807s-1.614-1.011-1.614-2.807.723-2.76,1.614-2.76S1260.091,331.952,1260.091,333.749Z" transform="translate(-182.537 -71.917)" fill="#6a2810"/>
      <path id="Trazado_117112" data-name="Trazado 117112" d="M1190.867,271.559c-5.221-6.87-8.517-3.848-10.849,0s-5.324.82-8.744-2.048-9.728-2.013-9.032,2.262-2.989,5.985-8.094,2.779-11.09,3.848-8.1,7.268,3.4,9.556-3.322,10.763-8.239-4.885-7.588-13.916,2.964-25.7,26.282-27.2,28.089,8.55,29.445,12.184S1190.867,271.559,1190.867,271.559Z" transform="translate(-105.693 -21.675)" fill="#a56a42"/>
      <path id="Trazado_117113" data-name="Trazado 117113" d="M1194.415,272.1c-2.017-2.263-3.712-2.92-5.153-2.64-1.713.335-3.073,1.983-4.191,3.839-.937,1.543-1.984,1.924-3.124,1.644h0c-1.568-.386-3.314-2.017-5.2-3.594a7.193,7.193,0,0,0-5.141-1.564c-2.136.2-3.823,1.458-3.454,3.717.466,2.865-1.136,4.518-3.819,4.183a9.816,9.816,0,0,1-3.886-1.539,4.829,4.829,0,0,0-3.259-.733c-3.708.5-6.662,5.119-4.446,7.649,2.848,3.254,3.238,9.095-3.162,10.243a7.667,7.667,0,0,1-2.114.114c-4.6-.415-5.649-5.806-5.107-13.357.619-8.595,2.823-24.461,25.012-25.885q2.009-.127,3.835-.14h.063c17.748.263,21.664,8.565,22.851,11.735A12.234,12.234,0,0,1,1194.415,272.1Z" transform="translate(-110.251 -23.392)" fill="#fe976a"/>
      <path id="Trazado_117114" data-name="Trazado 117114" d="M1193.458,270.3c-.156.779-.307,1.26-.307,1.26-1.955-2.574-3.643-3.759-5.108-4.035-2.449-.454-4.284,1.63-5.74,4.035a3.511,3.511,0,0,1-1.946,1.728h0c-1.969.557-4.266-1.652-6.8-3.776a7.5,7.5,0,0,0-4.066-1.643c-2.814-.258-5.424,1.073-4.965,3.906.4,2.5-.681,4.119-2.676,4.4a8.478,8.478,0,0,1-5.42-1.616,5.231,5.231,0,0,0-2.089-.77c-4.467-.6-8.6,5.081-6.008,8.038,2.992,3.42,3.4,9.557-3.322,10.764-.307.054-.6.094-.886.12-4.836-.437-5.936-6.1-5.367-14.037.65-9.031,2.966-25.7,26.284-27.2q2.11-.134,4.03-.147h.067c18.65.276,22.765,9,24.012,12.331A12.855,12.855,0,0,1,1193.458,270.3Z" transform="translate(-107.974 -21.682)" fill="#a56a42"/>
      <path id="Trazado_117115" data-name="Trazado 117115" d="M1454.822,444.464c-2.142,3.954-8.662,6.2-11.334,6.413s-6.485,1.492-6.52,3.1l-.08,3.625-9.388-.917a14.492,14.492,0,0,0,.6-4.2,18.047,18.047,0,0,0-2.886-8.123c-2.779-4.489-.321-8.657,1.817-6.734s2.138,5.986,4.6,6.306,7.268-1.5,11.329-4.7,7.054-7.588,8.871-4.168c0,0,3.955-.534,2.779,3.954C1454.6,439.013,1456.964,440.51,1454.822,444.464Z" transform="translate(-287.913 -136.758)" fill="#ffaf82"/>
      <path id="Trazado_117116" data-name="Trazado 117116" d="M1469.3,446.328a.668.668,0,0,1-.19-1.308c9.209-2.732,10.208-9.01,10.216-9.073a.668.668,0,0,1,1.323.189c-.042.292-1.138,7.192-11.159,10.165A.668.668,0,0,1,1469.3,446.328Z" transform="translate(-316.076 -137.74)" fill="#fe976a"/>
      <path id="Trazado_117117" data-name="Trazado 117117" d="M1479.135,454.789a.668.668,0,0,1-.081-1.331c6.475-.8,9.276-6.921,9.3-6.983a.668.668,0,0,1,1.221.542c-.124.28-3.122,6.877-10.362,7.768A.685.685,0,0,1,1479.135,454.789Z" transform="translate(-322.279 -144.492)" fill="#fe976a"/>
      <path id="Trazado_117118" data-name="Trazado 117118" d="M1106.483,579.82a.668.668,0,0,1-.668-.668V550.616a.668.668,0,0,1,1.336,0v28.537A.669.669,0,0,1,1106.483,579.82Z" transform="translate(-87.287 -209.991)" fill="#6a2810"/>
      <path id="Trazado_117119" data-name="Trazado 117119" d="M1291.408,573.2a.668.668,0,0,1-.666-.624l-2.134-32.412a.668.668,0,0,1,1.333-.088l2.134,32.412a.669.669,0,0,1-.623.711Z" transform="translate(-202.554 -203.374)" fill="#6a2810"/>
    </g>
  </g>
</svg>
