<svg xmlns="http://www.w3.org/2000/svg" width="301.801" height="521.68" viewBox="0 0 301.801 521.68">
  <g id="Grupo_169825" data-name="Grupo 169825" transform="translate(6.022 -25)">
    <g id="Grupo_157493" data-name="Grupo 157493" transform="translate(-6.022 25)">
      <path id="Trazado_114544" data-name="Trazado 114544" d="M170.254,558.875c-33.932-16.505-69.122-38.776-82.788-76.021-15.167-41.335.709-87.626.327-132.057-.3-35.2-10.912-69.191-19.259-103.227s-14.479-70.2-5.866-104.161c5.766-22.734,18.012-43.3,33.822-59.626,27.84-28.742,67.952-44.3,106.064-37.721s72.736,36.525,83.878,76.256c15.785,56.29-15.05,116.379-8.5,174.747,2.564,22.839,10.771,44.437,16.336,66.651a292.412,292.412,0,0,1,8.721,72.516c-.208,37.467-9.04,77.443-35.04,102.393C241.728,563.793,202.7,574.659,170.254,558.875Z" transform="translate(-7 -44.565)" fill="#ffe891"/>
      <g id="Grupo_158989" data-name="Grupo 158989" transform="translate(0 65.452)">
        <g id="Layer_3" data-name="Layer 3" transform="translate(0)">
          <path id="Trazado_115817" data-name="Trazado 115817" d="M682.561,1030.871c-.15-4.72-.3-9.443-.518-14.163-.429-9.547-1.1-19.094-2.437-28.562-2.246-15.849-8.15-29.954-12.281-45.256a176.512,176.512,0,0,1-3.9-18.425,211.218,211.218,0,0,1-2.461-34.89c.1-11.454.928-23.018,4.95-33.845,2.184-5.886,4.608-13.265,9.393-17.585.757-.683,2.1-1.435,2.726-2.075,0-.005,0-.011,0-.016.236-.181.467-.368.686-.565.164-1.059.363-2.114.521-3.186.013-.08.024-.164.035-.244-2.472-.2-5.2,1.587-7.375,2.531-5.179,2.253-10.5,4.178-15.659,6.481-2.376,1.06-4.787,2.172-7.107,3.3-2.265,1.1-4.045,2.956-6.32,4.064-2.544,1.239-5.093,2.464-7.679,3.622-1.955.876-3.917,1.742-5.866,2.638a54.279,54.279,0,0,0,5.392,10.718c-.069.242-.138.484-.214.725-1.92,6.1-5.664,11.377-8.219,17.2-.627,1.429-1.152,2.888-1.672,4.336l.005,0c1.171.638,1.219,2.064,1.616,3.3,3.3,10.219-2.11,16.124-3.595,25.684-1.192,7.656,1.672,14.58,1.355,22.055-.205,4.824-2.883,8.955-4.123,13.51a50.183,50.183,0,0,0-1.235,6.211c-2.771,19.953-7.259,39.8-11.166,59.6-.936,4.742-1.747,9.865-2.971,14.873l.011,0c1.259,15.31,1.421,30.97,1.3,46.443H682.47c.336-6.915.589-13.836.611-20.759C683.113,1049.275,682.857,1040.157,682.561,1030.871Zm-16.943-26.791c-1.107-2.475.349-5.782,3.227-5.982a4.008,4.008,0,0,1,3.254.819c2.368,1.851,1.373,4.877-.283,6.84C670.176,1007.707,666.493,1006.035,665.618,1004.08Zm8.9,46.219c-1.643,1.947-5.323.277-6.2-1.677-1.107-2.478.349-5.782,3.224-5.982a4,4,0,0,1,3.254.819C677.171,1045.309,676.174,1048.336,674.52,1050.3Z" transform="translate(-541.537 -659.172)" fill="#8284d2"/>
          <path id="Trazado_115818" data-name="Trazado 115818" d="M642.409,399.548a1.277,1.277,0,0,1,.141,2.052,3.163,3.163,0,0,1-2.562.585c-1.275-.174-2.6-.258-3.882-.321-1.509-.075-3.024-.084-4.536-.135-1.1-.039-3.032.168-3.914-.636-1.119-1.023-.162-2.022,1.017-2.268a13.447,13.447,0,0,1,3.257.051c.777.03,1.569.069,2.355.1,1.677.057,3.357.03,5.033.045A5.788,5.788,0,0,1,642.409,399.548Z" transform="translate(-558.869 -328.675)" fill="#ffbc3b"/>
          <path id="Trazado_115819" data-name="Trazado 115819" d="M614.165,299.627c1.428.09,1.323,1.659.453,2.367-.12.477-.87.609-1.254.9-.576.429-3.719,2.865-4.209,3.387a9.019,9.019,0,0,1-1.485,1.077c-.684.489-2.955,2.22-3.684.876a1.361,1.361,0,0,1,.147-1.278,5.407,5.407,0,0,1,2.148-1.773,6.783,6.783,0,0,0,2.1-1.584c.5-.624,3.7-2.841,4.3-3.333A2.221,2.221,0,0,1,614.165,299.627Z" transform="translate(-541.115 -253.084)" fill="#ffbc3b"/>
          <path id="Trazado_115820" data-name="Trazado 115820" d="M610.016,477.291a1.277,1.277,0,0,1-1.344,1.557,3.163,3.163,0,0,1-2.235-1.386c-.783-1.02-1.665-2.016-2.529-2.961-1.02-1.116-2.091-2.187-3.125-3.287-.753-.8-2.274-2.013-2.334-3.207-.078-1.515,1.308-1.551,2.316-.894a13.386,13.386,0,0,1,2.28,2.325c.531.573,1.068,1.155,1.6,1.728,1.152,1.221,2.364,2.382,3.546,3.576A5.829,5.829,0,0,1,610.016,477.291Z" transform="translate(-536.969 -380.523)" fill="#ffbc3b"/>
          <path id="Trazado_115821" data-name="Trazado 115821" d="M568.089,406.75c.348,2.184-2.169,2.109-3.761,2.016a7.976,7.976,0,0,1,1.887-2.52C567,405.568,567.9,405.538,568.089,406.75Z" transform="translate(-510.945 -334.05)" fill="#ffbc3b"/>
          <path id="Trazado_115822" data-name="Trazado 115822" d="M529.674,510.136c0,.066-.225-.033-.348-.075-.234-.075-.48-.165-.705-.258a9.467,9.467,0,0,0-1.476-.516c-2.589-.612-5.165-1.539-7.7-2.346h-.072c0-.723.036-1.458-.012-2.172-.03-.459-.2-.978-.219-1.47l.039,0c0,.24,4.659,1.83,5.093,1.962a29.643,29.643,0,0,1,5.007,1.647c.2.1.468.366.669.3h.087a18.029,18.029,0,0,1-.225,2.958Z" transform="translate(-476.484 -408.431)" fill="#dedede"/>
          <path id="Trazado_115823" data-name="Trazado 115823" d="M530.068,521.777c.123.042.348.141.348.075l.141.024c-.042.255-.093.51-.153.762a8.288,8.288,0,0,1-.693,2.208,6.018,6.018,0,0,1-.36.564l-.027-.018c-.684-.276-1.383-.672-2.106-.909-2.256-.738-4.533-1.728-6.716-2.655l-.237,0a15.988,15.988,0,0,0-.072-1.974,9.408,9.408,0,0,1-.075-1.2h.072c2.532.807,5.108,1.734,7.7,2.346a9.472,9.472,0,0,1,1.476.516C529.588,521.612,529.834,521.7,530.068,521.777Z" transform="translate(-477.226 -420.146)" fill="#dedede"/>
          <path id="Trazado_115824" data-name="Trazado 115824" d="M519.82,427.055h-.033c-.18-2.6-1-5.117-1.392-7.7-.495-3.246-.792-6.692-1.926-9.794a14.472,14.472,0,0,0-.624-1.458c.192-.012.372-.021.531-.03a6.925,6.925,0,0,0,1.854-.465,5.286,5.286,0,0,0,1.719-1.143,7.838,7.838,0,0,0,1.428-1.371c.039-.06.078-.123.117-.186a6.994,6.994,0,0,0,3.473,2.7,6.87,6.87,0,0,0,1.854.465l.528.03a13.846,13.846,0,0,0-.621,1.458c-1.137,3.1-1.434,6.548-1.929,9.794-.357,2.34-1.2,4.73-1.215,7.106,0,.219.033.441.036.66C522.348,427.127,521.071,427.091,519.82,427.055Z" transform="translate(-473.967 -333.385)" fill="#ffbc3b"/>
          <path id="Trazado_115825" data-name="Trazado 115825" d="M529.8,535.583l.027.018a5.6,5.6,0,0,1-1.05,1.119,5.123,5.123,0,0,1-3.711.744,4.9,4.9,0,0,1-3.446-2.277,5.534,5.534,0,0,1-.792-2.028,7.584,7.584,0,0,1-.087-1.137l.237,0c2.184.927,4.46,1.917,6.716,2.655C528.414,534.912,529.113,535.307,529.8,535.583Z" transform="translate(-477.699 -430.338)" fill="#dedede"/>
          <path id="Trazado_115826" data-name="Trazado 115826" d="M536.346,381.572a7.28,7.28,0,0,1-.867,3.845,7.838,7.838,0,0,1-1.218-3.006c-.159-.87-.159-2.469.765-2.978S536.338,381.08,536.346,381.572Z" transform="translate(-487.953 -313.897)" fill="#ffbc3b"/>
          <path id="Trazado_115827" data-name="Trazado 115827" d="M533.738,253.927c.3.387-.057,1.059-.069,1.539-.015.72-.036,4.694.075,5.4a8.978,8.978,0,0,1-.066,1.836c-.036.84-.072,3.693-1.581,3.44a1.354,1.354,0,0,1-.915-.9,5.374,5.374,0,0,1-.072-2.784,6.859,6.859,0,0,0,.045-2.628c-.183-.78.042-4.664.03-5.444a2.224,2.224,0,0,1,.408-1.56C532.547,251.755,533.714,252.8,533.738,253.927Z" transform="translate(-485.498 -217.049)" fill="#ffbc3b"/>
          <path id="Trazado_115828" data-name="Trazado 115828" d="M532.49,498.253c-.009.033.006.051-.027.084,0-.027,0-.057-.006-.084Z" transform="translate(-486.637 -404.583)" fill="#8cc295"/>
          <path id="Trazado_115829" data-name="Trazado 115829" d="M474.508,365.1l-.279.141-.069-.21a12.977,12.977,0,0,0-1.323-2.7c-1.371-2.1-3.663-3.075-5.531-4.607a21.589,21.589,0,0,1-7.589-15.346c-.486-9.452,6.725-18.385,16.417-18.6,4.233-.1,8.984.813,12.424,3.345a19.207,19.207,0,0,1,6.8,22.212,20.57,20.57,0,0,1-3.03,5.561c-1.386,1.812-3.444,2.913-4.859,4.638-1.287,1.563-3.084,3.138-3.261,5.285l-.024.228-.129.051c-1.071.1-2.163.132-3.264.138,0-.219-.036-.441-.036-.66.018-2.376.858-4.766,1.215-7.106.495-3.246.792-6.692,1.929-9.794a13.819,13.819,0,0,1,.621-1.458c1.593.093,4.109.168,3.762-2.016-.192-1.212-1.092-1.182-1.875-.5a7.975,7.975,0,0,0-1.887,2.52c-.192-.012-.369-.021-.528-.03a6.872,6.872,0,0,1-1.854-.465,7,7,0,0,1-3.473-2.7,7.281,7.281,0,0,0,.867-3.846c-.009-.492-.384-2.652-1.32-2.139s-.924,2.109-.765,2.979a7.84,7.84,0,0,0,1.218,3.006c-.039.063-.078.126-.117.186a7.835,7.835,0,0,1-1.428,1.371,5.287,5.287,0,0,1-1.719,1.143,6.925,6.925,0,0,1-1.854.465c-.159.009-.339.018-.531.03a7.978,7.978,0,0,0-1.887-2.52c-.783-.678-1.68-.708-1.875.5-.348,2.184,2.169,2.109,3.761,2.016a14.484,14.484,0,0,1,.624,1.458c1.134,3.1,1.431,6.548,1.926,9.794.4,2.586,1.212,5.1,1.392,7.7C476.128,365.144,475.309,365.117,474.508,365.1Z" transform="translate(-431.139 -271.498)" fill="#ffbc3b"/>
          <path id="Trazado_115830" data-name="Trazado 115830" d="M519.177,499.045l-.039,0a1.325,1.325,0,0,1,.429-1.125l.279-.141c.8.015,1.62.042,2.451.066,0,.027,0,.057.006.084.033-.033.018-.051.027-.084,1.251.036,2.529.072,3.8.063,1.1-.006,2.193-.042,3.264-.138l.129-.051c.492.315.516,1.035.516,1.557,0,.711-.039,1.413-.024,2.13.012.513.021,1.029.018,1.542h-.087c-.2.069-.468-.2-.669-.3a29.639,29.639,0,0,0-5.007-1.647C523.835,500.875,519.177,499.285,519.177,499.045Z" transform="translate(-476.477 -404.178)" fill="#dedede"/>
          <path id="Trazado_115831" data-name="Trazado 115831" d="M501.763,406.246a7.976,7.976,0,0,1,1.887,2.52c-1.593.093-4.109.168-3.761-2.016C500.083,405.538,500.98,405.568,501.763,406.246Z" transform="translate(-461.771 -334.05)" fill="#ffbc3b"/>
          <path id="Trazado_115832" data-name="Trazado 115832" d="M435.435,467.114c1.011-.657,2.394-.621,2.319.894-.06,1.194-1.581,2.405-2.334,3.207-1.038,1.1-2.106,2.172-3.129,3.287-.861.945-1.746,1.941-2.529,2.961a3.164,3.164,0,0,1-2.232,1.386,1.279,1.279,0,0,1-1.347-1.557,5.836,5.836,0,0,1,1.824-2.549c1.182-1.194,2.394-2.355,3.545-3.576.537-.573,1.074-1.155,1.6-1.728A13.35,13.35,0,0,1,435.435,467.114Z" transform="translate(-405.555 -380.523)" fill="#ffbc3b"/>
          <path id="Trazado_115833" data-name="Trazado 115833" d="M414.421,311.245c.831.873,1.044,2.241-.456,2.442-1.185.156-2.655-1.116-3.579-1.71-1.272-.819-2.52-1.674-3.8-2.475-1.086-.678-2.226-1.365-3.372-1.947a3.178,3.178,0,0,1-1.773-1.944,1.28,1.28,0,0,1,1.287-1.6,5.815,5.815,0,0,1,2.841,1.326c1.389.945,2.751,1.923,4.164,2.832.66.426,1.332.846,1.989,1.263A13.547,13.547,0,0,1,414.421,311.245Z" transform="translate(-386.671 -256.426)" fill="#ffbc3b"/>
          <path id="Trazado_115834" data-name="Trazado 115834" d="M393.907,398.825c1.182.246,2.139,1.245,1.017,2.268-.882.8-2.814.6-3.912.636-1.512.051-3.027.06-4.538.135-1.278.063-2.6.147-3.879.321a3.17,3.17,0,0,1-2.565-.585,1.28,1.28,0,0,1,.141-2.052,5.8,5.8,0,0,1,3.093-.531c1.677-.015,3.357.012,5.033-.045.786-.027,1.575-.066,2.355-.1A13.426,13.426,0,0,1,393.907,398.825Z" transform="translate(-370.036 -328.675)" fill="#ffbc3b"/>
          <path id="Trazado_115835" data-name="Trazado 115835" d="M939.027,757.158l.005-.155c6.928-.229,15.02-4.259,20.975-8.894l.125.157c-.253,2-.133,4.2-.283,6a67.8,67.8,0,0,0-.211,10.715c-4.115.248-8.1,1.3-12.355.963A52.031,52.031,0,0,1,933,762.6a46.007,46.007,0,0,1-10.726-6.563,49.933,49.933,0,0,1-6.008-5.814c-.347-.365-.712-.851-1.1-1.344,2.261,1.27,4.566,2.475,6.907,3.7a44.68,44.68,0,0,0,9.078,3.355A34.328,34.328,0,0,0,939.027,757.158Z" transform="translate(-778.541 -595.154)" fill="#e39476"/>
          <path id="Trazado_115836" data-name="Trazado 115836" d="M867.577,1532.594c2.368,1.851,1.373,4.878-.283,6.84-1.64,1.949-5.323.277-6.2-1.677-1.107-2.475.349-5.782,3.227-5.982A4.008,4.008,0,0,1,867.577,1532.594Z" transform="translate(-737.015 -1192.849)" fill="#37628f"/>
          <path id="Trazado_115837" data-name="Trazado 115837" d="M1173.648,1079.491H1110.87c.088-9.62.213-19.308-.643-28.845a207.692,207.692,0,0,1-.936-24.127c.179-6.616-.347-13.323-.123-19.988.248-7.454,1.851-14.867,2.157-22.353a96,96,0,0,1,2.371-16.441c1.355-6.262,1.27-12.713,2.982-18.958,1.731-6.307,3.565-12.577,4.816-19.036,1.139-5.875,1.84-11.8,3.043-17.646a109.9,109.9,0,0,0,.632-40.01c-.629-3.9-.9-7.771-1.867-11.622-1.891-7.534-5.326-14.881-11.212-20.119-2.176-1.936-5.155-2.872-7.28-4.672-.2-1.053-.429-2.1-.621-3.168-.016-.08-.029-.163-.043-.243,2.464-.277,5.248,1.422,7.451,2.3,5.248,2.088,10.625,3.843,15.857,5.982,2.408.984,4.854,2.019,7.208,3.072,2.3,1.029,4.136,2.827,6.446,3.862,2.581,1.157,5.168,2.3,7.79,3.376a132.641,132.641,0,0,1,16.433,7.526c6.934,4.022,13.452,8.043,18.972,14.006,5.158,5.574,9.262,12.929,12.827,19.588,3.953,7.371,6.934,15.612,9.606,23.522a45.165,45.165,0,0,1,1.968,5.835c.7,3.739.955,7.641,1.52,11.422q.96,6.413,1.752,12.852c1.08,8.726,1.957,17.476,2.715,26.234.966,11.169.845,22.407,2.043,33.557,1.171,10.924,5.432,20.724,7.272,31.442,1.193,6.953-.2,13.926-.65,20.876-.245,3.744,1.134,7.363,1.088,11.089-.043,3.587-1.006,7.094-1.1,10.694Z" transform="translate(-922.679 -659.317)" fill="#8284d2"/>
          <path id="Trazado_115838" data-name="Trazado 115838" d="M526.243,700.855c-.376-1.773-.605-3.56-.939-5.365-.352-1.907-.782-3.8-1.211-5.691-1.795-7.9-3.147-15.268-.656-23.183,2.237-7.107,6.118-13.625,7.817-20.913,1.165-5,.888-10.019.725-15.113-.2-6.243.123-12.508.16-18.751.027-4.371-.485-10.724,3.848-13.377a2.937,2.937,0,0,1,3.288-.173c3.747,1.693,4.451,7.232,4.614,10.779.453,9.937.08,19.836.04,29.781,0,.539.1.872.12,1.363a12.318,12.318,0,0,1,4.04.493c5.8,1.747,9.734,6.9,13.292,11.548.808-3.4,2.694-7.51,6.246-8.7a4.36,4.36,0,0,1,3.077-.224,6.747,6.747,0,0,1,3.91,3.211c1.68,3.435-.056,7.715-.813,11.169a32.7,32.7,0,0,0-1.147,7.209c.011,2.707.461,5.387.528,8.091.053,2.2.043,4.414-.123,6.616a34.967,34.967,0,0,1-1.437,7.907c-1.92,6.1-5.664,11.377-8.219,17.2-.627,1.429-1.152,2.888-1.672,4.336-1.51,4.2-2.982,8.289-6.817,11.228-5.051,3.875-11.809,2.6-16.94-.408a26.04,26.04,0,0,1-7.288-6.368,8.211,8.211,0,0,1-1.816-4.147c-.419-2.245-1.507-4.395-2.147-6.584C526.536,702.143,526.379,701.5,526.243,700.855Z" transform="translate(-478.719 -480.563)" fill="#f5b49b"/>
          <path id="Trazado_115839" data-name="Trazado 115839" d="M979.594,608.255c1.189,2.928-1.4,6.222-3.328,8.211-3.211,3.3-7.406,5.211-12.073,4.609a15.322,15.322,0,0,1-6.953-2.4,20.818,20.818,0,0,1-5.379-4.878c-1.131-1.531-2.024-4.315-.755-6.032a5.289,5.289,0,0,1,4.757-1.742c1.558.16,3.158.184,4.72.3a37.556,37.556,0,0,0,4.382-.021c1.912-.088,3.838.008,5.739-.24,1.736-.227,3.435-.947,5.2-.563A4.729,4.729,0,0,1,979.594,608.255Z" transform="translate(-805.478 -486.297)" fill="#fff"/>
          <path id="Trazado_115840" data-name="Trazado 115840" d="M734.618,202.515c-.269-1.891-.483-3.787-.707-5.67a33,33,0,0,0-1.056-6.166c-1.283-4.014-3.763-7.51-5.128-11.491a15.811,15.811,0,0,1-.979-5.558c.032-2.158.318-4.3.5-6.451a72.445,72.445,0,0,1,1.9-10.641c1.107-4.614,2.768-9.382,2.27-14.174-.059-.555-.131-1.107-.2-1.661-.459-3.616.763-6.3,2.416-9.4a28.028,28.028,0,0,1,11.238-11.817c5.363-2.813,11.913-3.763,17.516-6.195a48.523,48.523,0,0,0,6.931-3.723c.9-.584,1.592-1.336,2.544-1.829,1.435-.744,2.955-1.349,4.43-1.981a25.717,25.717,0,0,1,5.547-1.688,39.836,39.836,0,0,1,17.676.941c5.528,1.587,11.27,4.971,12.638,10.987.352,1.547,1.51,1.4,2.915,1.4a17.816,17.816,0,0,1,12.3,2.027c5.376,2.944,7.192,8.056,10.086,13.044,2.568,4.429,6.163,8.131,9.31,12.137,4,5.1,7.051,10.857,6.059,17.534a50.794,50.794,0,0,0-.843,9.155c.1,3.176-1.419,6.774-2.211,9.819a45.823,45.823,0,0,1-1.475,5.968c-1.848,4.446-2.15,9.131-1.939,13.862.013.344.03.688.051,1.035a31.142,31.142,0,0,1-.107,3.795,9.739,9.739,0,0,1-.467,2.643c-.27.744-.893,1.888-1.8,2.024-2.963.437-2.395-8.168-2.44-9.753-.149-5.23-1.075-11.078-4.086-15.505a24.222,24.222,0,0,1-3.163-7.9,37.011,37.011,0,0,1-.9-8.862c.005-4.75.349-9.545-2.195-13.862-2.325-3.947-7.1-5.691-11.462-6.016-1.045-.08-1.709-.014-2.733-.075-7.051-.424-14,.061-20.553,2.816a16.169,16.169,0,0,1-6.566,1.181c-5.747-.1-11.185-2.4-16.75-3.568a28.81,28.81,0,0,0-8.11-.523c-2.87.2-5.747.376-8.131,2.211a13.51,13.51,0,0,0-4.451,6.592,25.926,25.926,0,0,0-1.085,5.459c-.232,2.317.438,4.523.245,6.819a28.112,28.112,0,0,1-3.005,11.39c-.5.925-.845,1.915-1.269,2.875a16.051,16.051,0,0,1-1.48,2.294,32.087,32.087,0,0,0-3.179,5.326c-1.792,4.392-.662,9.2-.6,13.774.026,1.869.01,3.9-1.219,5.438-1.27,1.584-2.966,1.147-4.176-.277-1.264-1.48-1.4-3.366-1.723-5.2C734.867,204.219,734.736,203.368,734.618,202.515Z" transform="translate(-634.827 -103.484)" fill="#1e244a"/>
          <path id="Trazado_115841" data-name="Trazado 115841" d="M1103.676,832.359c.014.08.027.163.042.243-.083-.051-.162-.04-.189-.224C1103.577,832.37,1103.628,832.365,1103.676,832.359Z" transform="translate(-922.207 -659.414)" fill="#8cc295"/>
          <path id="Trazado_115842" data-name="Trazado 115842" d="M1082.06,479.77a6.691,6.691,0,0,1-1.136,4.832c-1.021,1.541-3.275,1.741-4.95,1.28a4.92,4.92,0,0,1-2.224-8.241c1.4-1.485,3.766-2.542,5.721-1.507A5.908,5.908,0,0,1,1082.06,479.77Z" transform="translate(-898.402 -387.398)" fill="#2b1a0f"/>
          <path id="Trazado_115843" data-name="Trazado 115843" d="M878.971,1720.313c2.371,1.851,1.374,4.878-.28,6.841-1.643,1.947-5.323.277-6.2-1.678-1.107-2.477.349-5.781,3.224-5.982A4.007,4.007,0,0,1,878.971,1720.313Z" transform="translate(-745.708 -1336.027)" fill="#37628f"/>
          <path id="Trazado_115844" data-name="Trazado 115844" d="M423.984,1043.409c3.3,10.219-2.109,16.124-3.595,25.684-1.192,7.656,1.672,14.58,1.355,22.054-.205,4.824-2.883,8.955-4.123,13.51a50.221,50.221,0,0,0-1.235,6.211c-2.771,19.953-7.259,39.8-11.166,59.6-.936,4.742-1.747,9.865-2.971,14.873-1.549,6.352-3.76,12.521-7.718,17.5-9.4,11.812-31.986,16.4-43.915,5.512-7.12-6.5-9.859-16.841-10.83-26.1-2.155-20.526,4.024-42.512,10.9-61.617,2.406-6.683,5.651-13.027,8.1-19.694a77.626,77.626,0,0,0,4.515-19.207,35.776,35.776,0,0,1,3.851-13.5c2.645-4.907,7.219-8.435,8.835-13.924,2.2-7.464.784-16.116,8.392-20.932a13.78,13.78,0,0,0,2.5-1.475c.136.645.293,1.288.48,1.928.64,2.19,1.728,4.339,2.147,6.584a8.208,8.208,0,0,0,1.816,4.147,26.035,26.035,0,0,0,7.288,6.368c5.131,3.011,11.889,4.283,16.94.408,3.835-2.938,5.307-7.029,6.816-11.227l.005,0C423.538,1040.751,423.586,1042.177,423.984,1043.409Z" transform="translate(-339.35 -811.61)" fill="#8284d2"/>
          <path id="Trazado_115845" data-name="Trazado 115845" d="M910.091,768.755c0-.168.005-.333.014-.5a96.783,96.783,0,0,0,.013-10.07c-.1-1.678-.261-3.35-.509-5.009-.107-.7-.333-1.406-.459-2.075-.115-.627.059-1.592-.376-2.109l.309-.536q.6.348,1.208.691c.387.493.752.979,1.1,1.344a49.928,49.928,0,0,0,6.008,5.814,46,46,0,0,0,10.726,6.563,52.035,52.035,0,0,0,14.281,3.342c4.259.341,8.241-.715,12.355-.963q.064.92.176,1.83c.053.435.12.861.195,1.288-.048.005-.1.01-.146.019.027.184.107.173.189.224.192,1.067.424,2.115.621,3.168a18.554,18.554,0,0,1,.384,4.4,20.51,20.51,0,0,1-2.166,8.024,22.836,22.836,0,0,1-11.937,11.057c-1.019.4-2.027.854-3.059,1.214a15.865,15.865,0,0,1-5.92.8,29.951,29.951,0,0,1-5.982-1.005,23.6,23.6,0,0,1-8.531-3.7,22.484,22.484,0,0,1-8.5-12.276,10.815,10.815,0,0,1-.155-5.3,13.57,13.57,0,0,0,.224-2.68C910.153,771.129,910.07,769.929,910.091,768.755Z" transform="translate(-773.663 -595.421)" fill="#f5b49b"/>
          <path id="Trazado_115846" data-name="Trazado 115846" d="M1076.293,402.36a1.845,1.845,0,0,1-1.371,2.893,8.3,8.3,0,0,1-3.864-.808c-.56-.2-1.163-.429-1.731-.568a9.775,9.775,0,0,0-2.107.027c-2.045-.064-3.853.723-5.763,1.331a2.142,2.142,0,0,1-1.669-.075c-1.749-1.008-.381-2.717.672-3.656a6.883,6.883,0,0,1,2.315-1.408,19.917,19.917,0,0,1,3.8-1.131,12.616,12.616,0,0,1,3.293-.125C1072.1,399.085,1075.069,400.376,1076.293,402.36Z" transform="translate(-888.205 -328.714)" fill="#1e244a"/>
          <path id="Trazado_115847" data-name="Trazado 115847" d="M885.817,402.36a1.844,1.844,0,0,1-1.371,2.893,8.294,8.294,0,0,1-3.861-.808c-.56-.2-1.163-.429-1.731-.568a9.8,9.8,0,0,0-2.109.027c-2.045-.064-3.851.723-5.763,1.331a2.136,2.136,0,0,1-1.667-.075c-1.75-1.008-.381-2.717.672-3.656A6.855,6.855,0,0,1,872.3,400.1a19.952,19.952,0,0,1,3.793-1.131,12.625,12.625,0,0,1,3.293-.125C881.625,399.085,884.6,400.376,885.817,402.36Z" transform="translate(-742.927 -328.714)" fill="#1e244a"/>
          <path id="Trazado_115848" data-name="Trazado 115848" d="M894.53,479.77a6.693,6.693,0,0,1-1.139,4.832c-1.021,1.541-3.275,1.741-4.95,1.28a4.922,4.922,0,0,1-2.224-8.241c1.4-1.485,3.766-2.542,5.72-1.507A5.912,5.912,0,0,1,894.53,479.77Z" transform="translate(-755.367 -387.398)" fill="#2b1a0f"/>
          <path id="Trazado_115849" data-name="Trazado 115849" d="M761.327,401.232q-.608-.344-1.208-.691c-2.315-1.328-4.587-2.741-6.814-4.318-4.387-3.107-9.086-6.659-12.323-11-1.918-2.568-3.9-5.027-5.907-7.539-1.784-2.235-2.936-4.9-4.664-7.168-1.837-2.421-3.907-2.806-6.459-4.251a21.289,21.289,0,0,1-6.787-5.928,15.173,15.173,0,0,1-1.877-2.742,23.431,23.431,0,0,1-1.352-3.547,11.853,11.853,0,0,1,.309-7.547,6.221,6.221,0,0,1,4.968-3.669c2.832-.283,3.805,1.768,5.278,3.7.117.853.248,1.7.4,2.555.32,1.832.459,3.718,1.723,5.2,1.211,1.424,2.907,1.861,4.176.277,1.229-1.536,1.245-3.568,1.219-5.438-.064-4.571-1.195-9.382.6-13.774a32.107,32.107,0,0,1,3.179-5.326,16.043,16.043,0,0,0,1.48-2.294c.424-.96.768-1.949,1.269-2.875a28.113,28.113,0,0,0,3.005-11.39c.192-2.3-.477-4.5-.245-6.819a25.908,25.908,0,0,1,1.086-5.459,13.51,13.51,0,0,1,4.451-6.592c2.384-1.835,5.262-2.014,8.131-2.211a28.806,28.806,0,0,1,8.11.523c5.566,1.168,11,3.464,16.75,3.568a16.17,16.17,0,0,0,6.566-1.181c6.558-2.755,13.5-3.24,20.553-2.816,1.024.061,1.688-.005,2.733.075,4.36.325,9.137,2.069,11.462,6.016,2.544,4.317,2.2,9.112,2.195,13.862a37.018,37.018,0,0,0,.9,8.862,24.233,24.233,0,0,0,3.163,7.9c3.011,4.427,3.936,10.276,4.086,15.505.045,1.584-.523,10.19,2.44,9.752.907-.136,1.531-1.28,1.8-2.024a9.732,9.732,0,0,0,.467-2.643,31.153,31.153,0,0,0,.107-3.795c-.021-.347-.037-.691-.051-1.035l.139-.005c2.512-3.758,7.926-1.813,9.419,1.779a12.228,12.228,0,0,1,.317,7.79,24.278,24.278,0,0,1-1.395,3.662,15.849,15.849,0,0,1-1.936,2.832,21.984,21.984,0,0,1-7.011,6.118c-1.979,1.123-4.07,2.027-6.1,3.056l-.144-.064c-2.568,5.862-5.739,11.937-9.673,16.684a135.094,135.094,0,0,1-10.316,10.736,42.956,42.956,0,0,1-3.376,2.91c-5.955,4.635-14.046,8.665-20.974,8.894l-.005.155a34.325,34.325,0,0,1-7.873-1.219,44.68,44.68,0,0,1-9.078-3.355C765.893,403.707,763.589,402.5,761.327,401.232Zm50.088-77.189a1.845,1.845,0,0,0,1.371-2.893c-1.224-1.984-4.192-3.275-6.43-3.52a12.621,12.621,0,0,0-3.293.125,19.924,19.924,0,0,0-3.795,1.131,6.883,6.883,0,0,0-2.315,1.408c-1.053.939-2.422,2.648-.672,3.656a2.142,2.142,0,0,0,1.669.075c1.91-.608,3.718-1.395,5.763-1.331a9.782,9.782,0,0,1,2.107-.027c.568.139,1.171.371,1.731.568A8.3,8.3,0,0,0,811.416,324.043Zm-4.195,20.665a6.69,6.69,0,0,0,1.136-4.832,5.908,5.908,0,0,0-2.589-3.635c-1.955-1.035-4.323.021-5.72,1.507a4.92,4.92,0,0,0,2.224,8.241C803.946,346.45,806.2,346.25,807.221,344.709Zm-11.734,32.965c1.933-1.989,4.518-5.283,3.328-8.211a4.729,4.729,0,0,0-3.686-2.758c-1.768-.384-3.467.336-5.2.563-1.9.248-3.827.152-5.739.24a37.543,37.543,0,0,1-4.382.021c-1.563-.112-3.163-.136-4.72-.3a5.29,5.29,0,0,0-4.758,1.742c-1.269,1.717-.376,4.5.755,6.032a20.816,20.816,0,0,0,5.379,4.878,15.32,15.32,0,0,0,6.952,2.4C788.081,382.885,792.276,380.973,795.487,377.673Zm-29.269-53.63a1.844,1.844,0,0,0,1.371-2.893c-1.221-1.984-4.192-3.275-6.43-3.52a12.63,12.63,0,0,0-3.293.125,19.959,19.959,0,0,0-3.792,1.131,6.853,6.853,0,0,0-2.315,1.408c-1.054.939-2.422,2.648-.672,3.656a2.136,2.136,0,0,0,1.667.075c1.912-.608,3.718-1.395,5.763-1.331a9.807,9.807,0,0,1,2.109-.027c.568.139,1.171.371,1.731.568A8.293,8.293,0,0,0,766.218,324.043Zm-3.5,20.665a6.692,6.692,0,0,0,1.139-4.832,5.911,5.911,0,0,0-2.592-3.635c-1.955-1.035-4.32.021-5.72,1.507a4.922,4.922,0,0,0,2.224,8.241C759.447,346.45,761.7,346.25,762.722,344.709Z" transform="translate(-624.699 -247.504)" fill="#f5b49b"/>
          <path id="Trazado_115850" data-name="Trazado 115850" d="M488.767,356.256c-1.222.516-2.542,1.495-2.776,2.567-.127.579.051,1.2-.1,1.768-.255.955-1.29,1.431-2.03,2.088a4.239,4.239,0,0,0-1.116,4.564c.475,1.243,1.548,2.265,1.688,3.588.118,1.122-.419,2.443.339,3.279.643.709,1.784.546,2.682.877,1.154.425,1.844,1.653,2.965,2.161,1.624.736,3.475-.252,5.257-.332a19.7,19.7,0,0,1,3.215.374,4.261,4.261,0,0,0,3.106-.585c.942-.717,1.287-1.961,1.989-2.915a14.277,14.277,0,0,1,2.6-2.31,4.4,4.4,0,0,0,1.819-2.865c.119-1.575-1.147-2.891-1.6-4.4a16.944,16.944,0,0,1-.347-3.075c-.1-.964-.421-2.231-1.421-2.608a15.785,15.785,0,0,0-1.706-.359c-1.786-.457-2.98-2.172-4.681-2.883a6.058,6.058,0,0,0-3.5-.235c-1.1.217-2.205.929-3.31.947A7.5,7.5,0,0,0,488.767,356.256Z" transform="translate(-448.522 -295.171)" fill="#fff"/>
          <path id="Trazado_115851" data-name="Trazado 115851" d="M1131.8,1270.507c-.461,8.607-8.157,14.836-11.973,22.564-3.333,6.752-3.623,14.545-3.849,22.072" transform="translate(-931.7 -993.599)" fill="none"/>
          <path id="Trazado_115852" data-name="Trazado 115852" d="M930.863,1557.608c-.841-2.521-.781-5.074-1.228-7.7-1.073-6.32-1.78-12.7-2.343-19.082-.269-3.047-.105-6.449-.786-9.427a41.624,41.624,0,0,1-.842-7.054,155.9,155.9,0,0,0-6.031-34.753c.136.814.265,1.633.381,2.456,1.288,9.093,1.953,18.26,2.385,27.429q.027.566.053,1.132c.213,4.72.368,9.443.517,14.164.3,9.286.552,18.4.52,27.717-.021,6.923-.274,13.844-.61,20.758h10.108c-.155-2.081-.439-4.164-.725-6.221C931.84,1564.008,931.825,1560.494,930.863,1557.608Z" transform="translate(-781.945 -1153.07)" fill="#ededed"/>
          <path id="Trazado_115853" data-name="Trazado 115853" d="M925.694,883.147c-.629-3.9-.9-7.771-1.867-11.622-1.891-7.534-5.326-14.881-11.211-20.118-2.176-1.936-5.155-2.872-7.28-4.673a18.558,18.558,0,0,1,.384,4.4,20.507,20.507,0,0,1-2.166,8.024,22.835,22.835,0,0,1-11.937,11.057c-1.019.4-2.027.853-3.059,1.214a15.863,15.863,0,0,1-5.92.8,29.963,29.963,0,0,1-5.982-1.005,23.6,23.6,0,0,1-8.531-3.7,22.484,22.484,0,0,1-8.5-12.275,10.819,10.819,0,0,1-.155-5.3,13.56,13.56,0,0,0,.224-2.68c-.624.64-1.968,1.392-2.726,2.075-4.784,4.32-7.208,11.7-9.393,17.585-4.021,10.827-4.851,22.391-4.949,33.845a211.215,211.215,0,0,0,2.461,34.89,176.5,176.5,0,0,0,3.9,18.425c3.916,14.507,9.424,27.939,11.9,42.8a155.888,155.888,0,0,1,6.031,34.754,41.627,41.627,0,0,0,.842,7.054c.681,2.978.517,6.38.786,9.427.563,6.385,1.27,12.761,2.343,19.082.447,2.63.387,5.183,1.228,7.7.963,2.886.977,6.4,1.4,9.414.287,2.058.57,4.141.725,6.222h37.151c.088-9.62.213-19.308-.643-28.845a207.746,207.746,0,0,1-.936-24.127c.179-6.616-.347-13.323-.123-19.988.248-7.454,1.851-14.868,2.158-22.353a96.013,96.013,0,0,1,2.371-16.441c1.355-6.262,1.269-12.713,2.981-18.958,1.731-6.307,3.566-12.577,4.816-19.036,1.139-5.875,1.84-11.8,3.043-17.647A109.9,109.9,0,0,0,925.694,883.147Z" transform="translate(-723.203 -670.378)" fill="#fffbf2"/>
        </g>
        <g id="Layer_2" data-name="Layer 2" transform="translate(37.335 19.863)">
          <g id="Grupo_82948" data-name="Grupo 82948" transform="translate(128.045 3.737)">
            <path id="Trazado_115854" data-name="Trazado 115854" d="M1037.011,221.626a.667.667,0,0,1-.475-1.135c4.851-4.916,7.085-11.379,8.631-17.054a.667.667,0,0,1,1.287.35c-2.836,10.41-6.125,14.759-8.968,17.64A.665.665,0,0,1,1037.011,221.626Z" transform="translate(-1036.345 -202.946)"/>
          </g>
          <g id="Grupo_82949" data-name="Grupo 82949" transform="translate(138.756 15.733)">
            <path id="Trazado_115855" data-name="Trazado 115855" d="M1082.153,260.444a.667.667,0,0,1-.221-1.3,28.551,28.551,0,0,0,9.453-5.479.667.667,0,1,1,.88,1,29.882,29.882,0,0,1-9.892,5.735A.665.665,0,0,1,1082.153,260.444Z" transform="translate(-1081.486 -253.503)"/>
          </g>
          <g id="Grupo_82950" data-name="Grupo 82950" transform="translate(97.082)">
            <path id="Trazado_115856" data-name="Trazado 115856" d="M917.588,203.411a.667.667,0,0,1-.651-.526c-1.5-6.94-5.39-12.191-10.678-14.406a.667.667,0,1,1,.515-1.23c5.7,2.386,9.875,7.982,11.466,15.355a.667.667,0,0,1-.652.807Z" transform="translate(-905.85 -187.197)"/>
          </g>
          <g id="Grupo_82951" data-name="Grupo 82951" transform="translate(73.817 11.728)">
            <path id="Trazado_115857" data-name="Trazado 115857" d="M820.357,240.795a.663.663,0,0,1-.324-.084c-4.024-2.238-7.886-3.118-11.475-2.613a.667.667,0,0,1-.185-1.321c3.883-.545,8.025.385,12.308,2.768a.667.667,0,0,1-.325,1.25Z" transform="translate(-807.799 -236.626)"/>
          </g>
          <g id="Grupo_82952" data-name="Grupo 82952" transform="translate(117.888 65.269)">
            <path id="Trazado_115858" data-name="Trazado 115858" d="M999.013,488.14a5.545,5.545,0,0,1-2.215-.506,10.039,10.039,0,0,1-3.059-1.937.667.667,0,1,1,.928-.957,8.774,8.774,0,0,0,2.665,1.672,3.83,3.83,0,0,0,2.129.359,5.531,5.531,0,0,0,1.459-.453c.632-.292,2.551-1.179,1.29-5.319-.416-1.367-.908-2.74-1.383-4.067-.434-1.213-.883-2.467-1.277-3.723a9.628,9.628,0,0,1-.349-2.116c-.028-.327-.055-.636-.1-.951a28.5,28.5,0,0,1,.151-7.282.667.667,0,1,1,1.324.158,27.322,27.322,0,0,0-.155,6.939c.049.349.078.691.107,1.021a8.467,8.467,0,0,0,.292,1.832c.387,1.232.831,2.473,1.261,3.674.48,1.342.977,2.73,1.4,4.128,1.322,4.341-.361,6.158-2.005,6.918a6.886,6.886,0,0,1-1.809.56A4.188,4.188,0,0,1,999.013,488.14Z" transform="translate(-993.537 -462.272)" fill="#ab684d"/>
          </g>
          <g id="Grupo_82953" data-name="Grupo 82953" transform="translate(54.462 81.206)">
            <path id="Trazado_115859" data-name="Trazado 115859" d="M736.237,543.442a.666.666,0,0,1-.6-.368,4.61,4.61,0,0,0-1.694-1.6,5.132,5.132,0,0,1-2.149-2.243,4.189,4.189,0,0,1,.131-2.972,7.261,7.261,0,0,0,.28-1.09,2.2,2.2,0,0,0-.213-1.08c-.071-.194-.144-.4-.205-.618a2.573,2.573,0,0,0-.784-1.477,4.039,4.039,0,0,0-2.673-1.211,1.3,1.3,0,0,0-.895.6.667.667,0,1,1-1.089-.769,2.6,2.6,0,0,1,1.805-1.157,5.081,5.081,0,0,1,3.7,1.5,3.868,3.868,0,0,1,1.224,2.156c.046.169.107.336.172.513a3.382,3.382,0,0,1,.279,1.73,8.423,8.423,0,0,1-.326,1.293,2.973,2.973,0,0,0-.166,2.083,3.947,3.947,0,0,0,1.658,1.632,5.769,5.769,0,0,1,2.139,2.107.667.667,0,0,1-.6.966Z" transform="translate(-726.227 -529.439)" fill="#ab684d"/>
          </g>
          <g id="Grupo_82954" data-name="Grupo 82954" transform="translate(171.54 81.59)">
            <path id="Trazado_115860" data-name="Trazado 115860" d="M1220.32,545.469a.667.667,0,0,1-.6-.966,5.938,5.938,0,0,1,2.2-2.167,4.093,4.093,0,0,0,1.72-1.7,3.13,3.13,0,0,0-.17-2.164,8.66,8.66,0,0,1-.336-1.331,3.467,3.467,0,0,1,.287-1.774c.066-.183.129-.356.178-.532a3.973,3.973,0,0,1,1.257-2.215c1.431-1.173,2.71-1.694,3.8-1.545a2.658,2.658,0,0,1,1.849,1.186.667.667,0,0,1-1.09.769,1.363,1.363,0,0,0-.939-.633,4.192,4.192,0,0,0-2.776,1.255,2.673,2.673,0,0,0-.816,1.536c-.062.229-.138.436-.211.636a2.288,2.288,0,0,0-.221,1.125,7.586,7.586,0,0,0,.289,1.128,4.307,4.307,0,0,1,.136,3.054,5.2,5.2,0,0,1-2.211,2.305,4.775,4.775,0,0,0-1.756,1.66A.667.667,0,0,1,1220.32,545.469Z" transform="translate(-1219.654 -531.055)" fill="#ab684d"/>
          </g>
          <g id="Grupo_82955" data-name="Grupo 82955" transform="translate(42.035 151.372)">
            <path id="Trazado_115861" data-name="Trazado 115861" d="M674.916,847.222a1.055,1.055,0,0,1-.369-.069.23.23,0,0,0-.079-.018.667.667,0,1,1,.1-1.329,1.483,1.483,0,0,1,.367.073.676.676,0,0,1,.194-.015c1.77.133,3.311-2.074,3.868-3.492a16.069,16.069,0,0,0,.769-8.113c-.351-2.561-.81-5.212-2.2-7.011q-.391-.506-.787-1.024a.667.667,0,1,1,1.059-.811q.395.515.784,1.019c1.593,2.059,2.093,4.906,2.468,7.646a17.382,17.382,0,0,1-.849,8.782,8.7,8.7,0,0,1-1.886,2.89,4.362,4.362,0,0,1-3.215,1.45A1.185,1.185,0,0,1,674.916,847.222Z" transform="translate(-673.853 -825.151)" fill="#ab684d"/>
          </g>
          <g id="Grupo_82956" data-name="Grupo 82956" transform="translate(19.324 139.158)">
            <path id="Trazado_115862" data-name="Trazado 115862" d="M578.805,777.8a.667.667,0,0,1-.4-1.2,15.12,15.12,0,0,1,7.692-2.919.667.667,0,0,1,.115,1.329,13.767,13.767,0,0,0-7.005,2.656A.664.664,0,0,1,578.805,777.8Z" transform="translate(-578.138 -773.677)" fill="#ab684d"/>
          </g>
          <g id="Grupo_82957" data-name="Grupo 82957" transform="translate(21.9 154.892)">
            <path id="Trazado_115863" data-name="Trazado 115863" d="M600.662,868.669a3.1,3.1,0,0,1-2.359-.892,1.7,1.7,0,0,0-.314-.169,1.457,1.457,0,0,1-1.024-1.145.667.667,0,0,1,1.315-.2,2.738,2.738,0,0,0,.27.137,2.21,2.21,0,0,1,.728.468c1,1.071,3.82.1,5.051-.723,3.442-2.3,5.929-8,3.757-14.04a9.476,9.476,0,0,0-1.257-2.126c-.192-.27-.391-.549-.573-.828-2.9-4.415-5.76-6.949-8.508-7.534a20.661,20.661,0,0,0-7.949.226.667.667,0,0,1-.271-1.305,22,22,0,0,1,8.5-.225c3.147.67,6.2,3.321,9.346,8.107.169.258.352.515.545.787a10.422,10.422,0,0,1,1.425,2.448c1.792,4.985.9,12.146-4.272,15.6A8.965,8.965,0,0,1,600.662,868.669Z" transform="translate(-588.996 -839.986)" fill="#ab684d"/>
          </g>
          <g id="Grupo_82958" data-name="Grupo 82958" transform="translate(16.97 167.636)">
            <path id="Trazado_115864" data-name="Trazado 115864" d="M575.855,916.717a4,4,0,0,1-3.2-1.663,5.863,5.863,0,0,1-1.2-2.973,7.584,7.584,0,0,1,.044-1.246,3.417,3.417,0,0,0-.1-1.686,8.37,8.37,0,0,0-2.582-2.812l-.349-.283a.667.667,0,1,1,.844-1.033l.344.278a9.5,9.5,0,0,1,2.953,3.288,4.5,4.5,0,0,1,.222,2.368,6.572,6.572,0,0,0-.043,1.027,4.554,4.554,0,0,0,.932,2.261,2.686,2.686,0,0,0,3.878.567c2.446-1.631,3.434-5.044,3.542-7.7a13.069,13.069,0,0,0-.622-4.35,11.255,11.255,0,0,0-3.062-4.2l-.3-.309a13.462,13.462,0,0,0-4.873-3.265.667.667,0,1,1,.467-1.249,14.784,14.784,0,0,1,5.358,3.58l.3.306a12.4,12.4,0,0,1,3.388,4.747,14.4,14.4,0,0,1,.679,4.8c-.158,3.858-1.7,7.13-4.135,8.75A4.468,4.468,0,0,1,575.855,916.717Z" transform="translate(-568.219 -893.698)" fill="#ab684d"/>
          </g>
          <g id="Grupo_82959" data-name="Grupo 82959" transform="translate(31.947 180.45)">
            <path id="Trazado_115865" data-name="Trazado 115865" d="M632.007,959.272a.667.667,0,0,1-.638-.86,24.116,24.116,0,0,1,3.762-7.793c.29-.388.553-.745.811-1.1.378-.515.735-1,1.159-1.557a.667.667,0,0,1,1.06.81c-.417.545-.77,1.026-1.144,1.536-.261.355-.526.716-.819,1.108a22.851,22.851,0,0,0-3.553,7.381A.668.668,0,0,1,632.007,959.272Z" transform="translate(-631.339 -947.703)" fill="#ab684d"/>
          </g>
          <g id="Grupo_82960" data-name="Grupo 82960" transform="translate(25.019 207.972)">
            <path id="Trazado_115866" data-name="Trazado 115866" d="M602.808,1209.751a.684.684,0,0,1-.155-.018.667.667,0,0,1-.494-.8c.782-3.279,1.4-6.613,1.993-9.837.288-1.562.561-3.037.851-4.51.967-4.9,1.985-9.881,2.971-14.7,3-14.679,6.1-29.859,8.189-44.857a50.2,50.2,0,0,1,1.252-6.3,45.522,45.522,0,0,1,1.788-5c1.125-2.794,2.187-5.433,2.311-8.362a50.176,50.176,0,0,0-.8-9.514c-.6-4.042-1.228-8.222-.545-12.615a51.77,51.77,0,0,1,2.379-8.826c1.8-5.356,3.363-9.982,1.242-16.552-.1-.308-.177-.62-.252-.922-.219-.884-.408-1.647-1.05-2a.667.667,0,0,1,.638-1.171,3.921,3.921,0,0,1,1.706,2.846c.073.293.141.569.227.833,2.257,6.988.555,12.039-1.246,17.387a50.709,50.709,0,0,0-2.325,8.6c-.652,4.192-.043,8.27.546,12.212a51.177,51.177,0,0,1,.817,9.768,26.657,26.657,0,0,1-2.406,8.8,44.52,44.52,0,0,0-1.738,4.851,48.9,48.9,0,0,0-1.218,6.129c-2.09,15.04-5.2,30.24-8.2,44.94-.985,4.818-2,9.8-2.969,14.692-.289,1.465-.561,2.936-.848,4.494-.6,3.241-1.217,6.592-2.007,9.9A.667.667,0,0,1,602.808,1209.751Z" transform="translate(-602.141 -1063.693)" fill="#2e5378"/>
          </g>
          <g id="Grupo_82961" data-name="Grupo 82961" transform="translate(7.294 232.552)">
            <path id="Trazado_115867" data-name="Trazado 115867" d="M544.63,1188.233a.664.664,0,0,1-.472-.2,190.947,190.947,0,0,1-16.582-19.68.667.667,0,1,1,1.062-.807A189.825,189.825,0,0,0,545.1,1187.1a.666.666,0,0,1-.472,1.137Z" transform="translate(-527.44 -1167.287)" fill="#2e5378"/>
          </g>
          <g id="Grupo_82962" data-name="Grupo 82962" transform="translate(3.072 265.514)">
            <path id="Trazado_115868" data-name="Trazado 115868" d="M520.272,1309.286a33.012,33.012,0,0,1-10.162-1.784.667.667,0,1,1,.409-1.269c5.639,1.82,10.351,2.183,14.828,1.142a.667.667,0,0,1,.3,1.3A23.589,23.589,0,0,1,520.272,1309.286Z" transform="translate(-509.648 -1306.201)" fill="#2e5378"/>
          </g>
          <g id="Grupo_82963" data-name="Grupo 82963" transform="translate(204.708 215.637)">
            <path id="Trazado_115869" data-name="Trazado 115869" d="M1368.364,1281.58h-.006a.666.666,0,0,1-.661-.673c.042-4.581-.361-9.31-.75-13.883-.338-3.972-.688-8.079-.744-12.067-.1-7.347-.476-14.818-.835-22.044-.13-2.6-.264-5.294-.383-7.94-.707-15.668-1.778-30.57-3.273-45.557-1.575-15.8-2.91-31.251-1.955-46.636.691-11.131,3.143-23.012,7.5-36.323a.667.667,0,0,1,1.267.414c-4.317,13.2-6.748,24.974-7.433,35.991-.949,15.285.381,30.68,1.951,46.42,1.5,15.012,2.569,29.938,3.278,45.63.119,2.644.253,5.333.383,7.934.36,7.237.732,14.72.837,22.091.056,3.941.4,8.024.74,11.973.392,4.6.8,9.364.755,14.008A.666.666,0,0,1,1368.364,1281.58Z" transform="translate(-1359.436 -1095.997)" fill="#2e5378"/>
          </g>
          <g id="Grupo_82964" data-name="Grupo 82964" transform="translate(233.327 356.244)">
            <path id="Trazado_115870" data-name="Trazado 115870" d="M1480.717,1707.8a.667.667,0,0,1-.43-1.177c7.063-5.952,12.012-11.893,14.708-17.658a.667.667,0,1,1,1.208.565c-2.779,5.941-7.844,12.035-15.057,18.113A.665.665,0,0,1,1480.717,1707.8Z" transform="translate(-1480.051 -1688.584)" fill="#2e5378"/>
          </g>
          <g id="Grupo_82965" data-name="Grupo 82965" transform="translate(5.189 81.069)">
            <path id="Trazado_115871" data-name="Trazado 115871" d="M528.141,533.926a.752.752,0,0,1-.28-.055c-.294-.118-.585-.255-.868-.388a10.771,10.771,0,0,0-1.19-.5c-2.085-.684-4.173-1.571-6.193-2.429l-.583-.248a.75.75,0,1,1,.585-1.381l.584.248c1.991.846,4.05,1.72,6.074,2.384a11.987,11.987,0,0,1,1.36.572c.276.13.536.252.79.354a.75.75,0,0,1-.281,1.446Z" transform="translate(-518.57 -528.862)" fill="#a19086"/>
          </g>
          <g id="Grupo_82966" data-name="Grupo 82966" transform="translate(4.878 77.897)">
            <path id="Trazado_115872" data-name="Trazado 115872" d="M528.214,520.208a1.467,1.467,0,0,1-.5-.11l-.062-.022c-.291-.1-.537-.187-.754-.275l-.17-.07a7.357,7.357,0,0,0-1.194-.413c-1.982-.467-3.961-1.119-5.876-1.75-.628-.207-1.254-.413-1.877-.612a.75.75,0,0,1,.456-1.429c.627.2,1.258.408,1.89.616,1.885.62,3.833,1.262,5.751,1.714a8.739,8.739,0,0,1,1.42.486l.167.068c.186.076.4.155.661.241l.064.022a.754.754,0,0,1,.752.5.77.77,0,0,1-.185.809A.744.744,0,0,1,528.214,520.208Zm-.692-.539h0Z" transform="translate(-517.257 -515.492)" fill="#a19086"/>
          </g>
          <g id="Grupo_82967" data-name="Grupo 82967" transform="translate(5.143 74.556)">
            <path id="Trazado_115873" data-name="Trazado 115873" d="M529.3,506.526a1.514,1.514,0,0,1-.831-.319,1.245,1.245,0,0,0-.108-.07,18.039,18.039,0,0,0-3.489-1.205c-.456-.124-.928-.252-1.395-.393-.327-.1-3.36-1.127-4.649-1.689a.75.75,0,0,1,.6-1.375c1.213.529,4.178,1.536,4.482,1.628.447.135.908.26,1.354.381a19.455,19.455,0,0,1,3.775,1.315,2.5,2.5,0,0,1,.267.163l.077.051a.75.75,0,0,1,.228,1.46A.96.96,0,0,1,529.3,506.526Z" transform="translate(-518.376 -501.412)" fill="#a19086"/>
          </g>
          <g id="Grupo_82968" data-name="Grupo 82968" transform="translate(0 45.61)">
            <path id="Trazado_115874" data-name="Trazado 115874" d="M508.982,408.534h-.006a.75.75,0,0,1-.744-.755,22.132,22.132,0,0,1,.712-4.686c.2-.874.384-1.7.511-2.527.1-.661.194-1.331.287-2a38.3,38.3,0,0,1,1.678-7.936q.1-.281.21-.546a10.125,10.125,0,0,1-1.516-.441,7.685,7.685,0,0,1-3.237-2.186c-.216.212-.444.4-.658.579-.127.106-.254.21-.373.317a6.019,6.019,0,0,1-1.972,1.291,10.118,10.118,0,0,1-1.516.441q.107.266.21.547a38.288,38.288,0,0,1,1.678,7.935c.093.673.186,1.343.287,2,.154,1.01.381,2.038.6,3.032a37.493,37.493,0,0,1,.742,4.1.75.75,0,1,1-1.492.158,36.276,36.276,0,0,0-.716-3.931c-.224-1.017-.456-2.07-.617-3.128-.1-.668-.2-1.344-.29-2.025a37.186,37.186,0,0,0-1.6-7.625q-.183-.5-.38-.941c-1.226.048-2.726-.017-3.543-.918a2.287,2.287,0,0,1-.5-1.99,1.75,1.75,0,0,1,1.073-1.515,2.068,2.068,0,0,1,2.032.558,8.314,8.314,0,0,1,1.836,2.313l.052,0a6.406,6.406,0,0,0,1.643-.424,4.676,4.676,0,0,0,1.47-.994c.133-.118.273-.235.415-.353a6.458,6.458,0,0,0,.722-.661,8.694,8.694,0,0,1-1.05-2.855c-.242-1.316-.088-3.093,1.143-3.771a1.246,1.246,0,0,1,1.249,0c1.072.62,1.18,2.765,1.181,2.787a8.444,8.444,0,0,1-.736,3.805,6.209,6.209,0,0,0,2.84,2.045,6.408,6.408,0,0,0,1.643.424l.052,0a8.318,8.318,0,0,1,1.836-2.312,2.068,2.068,0,0,1,2.033-.559,1.751,1.751,0,0,1,1.074,1.515,2.288,2.288,0,0,1-.5,1.99c-.817.9-2.316.967-3.543.918q-.2.441-.38.94a37.179,37.179,0,0,0-1.6,7.626c-.094.68-.188,1.357-.29,2.025-.134.88-.336,1.77-.53,2.631a21.043,21.043,0,0,0-.675,4.366A.75.75,0,0,1,508.982,408.534Zm6.662-21.353a1.141,1.141,0,0,0-.523.294,6.37,6.37,0,0,0-1.091,1.234,2.449,2.449,0,0,0,1.609-.431c.052-.057.21-.231.128-.746a.656.656,0,0,0-.122-.351Zm-17.318.009a.99.99,0,0,0-.105.341c-.082.514.076.688.128.746a2.449,2.449,0,0,0,1.608.431,6.371,6.371,0,0,0-1.091-1.234A.958.958,0,0,0,498.326,387.19Zm8.337-6.17a2.944,2.944,0,0,0-.254,2.072,7.406,7.406,0,0,0,.39,1.377,8.054,8.054,0,0,0,.208-2.064A4.146,4.146,0,0,0,506.663,381.021Z" transform="translate(-496.699 -379.422)" fill="#a84216"/>
          </g>
          <g id="Grupo_82969" data-name="Grupo 82969" transform="translate(79.44 271.144)">
            <path id="Trazado_115875" data-name="Trazado 115875" d="M843.184,1369.406a.667.667,0,0,1-.659-.57A116.47,116.47,0,0,0,837.6,1349.5c-.643-1.951-1.42-3.958-2.171-5.9-1.618-4.181-3.292-8.5-3.922-12.907a.667.667,0,0,1,1.32-.189c.609,4.253,2.255,8.5,3.846,12.615.757,1.956,1.54,3.979,2.194,5.962a117.727,117.727,0,0,1,4.979,19.563.667.667,0,0,1-.563.757A.739.739,0,0,1,843.184,1369.406Z" transform="translate(-831.499 -1329.93)" fill="#2e5378"/>
          </g>
          <g id="Grupo_82970" data-name="Grupo 82970" transform="translate(215.63 198.085)">
            <path id="Trazado_115876" data-name="Trazado 115876" d="M1406.135,1035.6a.667.667,0,0,1-.617-.919,47.459,47.459,0,0,1,4.107-7.41c1.006-1.583,2.046-3.22,2.914-4.888a.667.667,0,0,1,1.183.616c-.894,1.718-1.95,3.38-2.972,4.987a46.521,46.521,0,0,0-4,7.2A.667.667,0,0,1,1406.135,1035.6Z" transform="translate(-1405.468 -1022.024)" fill="#2e5378"/>
          </g>
        </g>
      </g>
    </g>
  </g>
</svg>
