<svg xmlns="http://www.w3.org/2000/svg" xmlns:xlink="http://www.w3.org/1999/xlink" width="1238.79" height="669.161" viewBox="0 0 1238.79 669.161">
  <defs>
    <clipPath id="clip-path">
      <rect id="Rectángulo_38294" data-name="Rectángulo 38294" width="1238.79" height="669.161" rx="23" transform="translate(0 0)" fill="#ffdfe0"/>
    </clipPath>
  </defs>
  <g id="Grupo_169466" data-name="Grupo 169466" transform="translate(-180 -5055.445)">
    <g id="Grupo_161191" data-name="Grupo 161191" transform="translate(0 -14.038)">
      <path id="Trazado_162723" data-name="Trazado 162723" d="M23,0H1215.79a23,23,0,0,1,23,23V646.161a23,23,0,0,1-23,23H23a23,23,0,0,1-23-23V23A23,23,0,0,1,23,0Z" transform="translate(180 5069.483)" fill="#acade1"/>
      <g id="Enmascarar_grupo_164" data-name="Enmascarar grupo 164" transform="translate(180 5069.483)" clip-path="url(#clip-path)">
        <g id="Grupo_169449" data-name="Grupo 169449" transform="matrix(0.259, -0.966, 0.966, 0.259, 1106.776, 715.122)">
          <g id="Grupo_162315" data-name="Grupo 162315" transform="translate(5.349 4.924)" style="mix-blend-mode: overlay;isolation: isolate">
            <path id="Trazado_143614" data-name="Trazado 143614" d="M156.013,76.755c-11.373,10.743-23.108,21.108-35.058,31.3,5.319-10.671,11.029-21.182,16.095-31.958,5.742-12.216,12.477-28.844,5.915-41.376C128.013,6.156,87.751,35.416,72.834,50.3c-1.588,1.586-3.109,3.239-4.648,4.874,5.489-11.87,10.467-24.052,9.538-36.724C76.448,1.025,59.2-2.775,44.06,5.673c-16.254,9.069-29.505,24.43-40.6,38.36C-5.956,55.864,14.684,66.463,24.029,54.8A166.385,166.385,0,0,1,40.745,36.86q-1.351,2.223-2.73,4.437A337.136,337.136,0,0,0,20.918,71.1C11.328,90.718-2.813,117.893,8.165,138.053c5.533,10.16,19.067,10.9,29.377,6.486,13.86-5.935,23.667-18.572,33.085-29.293,9.832-11.193,18.54-23.04,27.672-34.694a180.049,180.049,0,0,1,11.974-14.3c.1-.1.2-.2.3-.3l-.114.311a213.9,213.9,0,0,1-8.915,19.891C95.559,98.345,87.9,111.215,85.5,124.395c-2.126,11.655,2.656,24.556,17.818,23.374,14.255-1.111,25.971-14.014,35.692-22.673,11.773-10.488,23.344-21.173,34.919-31.848C186.013,82.1,167.959,65.474,156.013,76.755Z" transform="translate(2.383 2.192)" fill="#3c384f"/>
            <path id="Trazado_143615" data-name="Trazado 143615" d="M104.292,152.158c-5.587.125-10.285-1.578-13.65-4.966-4.678-4.709-6.56-12.509-5.035-20.863,1.987-10.892,7.372-21.4,12.577-31.565,1.247-2.434,2.482-4.844,3.651-7.228,1.109-2.261,2.276-4.635,3.436-7.091q-1.042,1.322-2.063,2.629l-.676.864c-2.373,3.027-4.716,6.066-7.057,9.106-6.575,8.529-13.374,17.35-20.7,25.688-1.07,1.217-2.145,2.46-3.231,3.717-8.4,9.715-17.925,20.724-30.729,26.206-11.415,4.883-26.187,3.918-32.338-7.383-11.055-20.3,2.062-47.036,11.642-66.556l1.087-2.22c2.818-5.767,5.957-11.4,9.279-17.02q-1.14,1.356-2.239,2.731C22.469,65.416,12.655,65.529,6.5,61.472c-5.089-3.356-7.836-9.744-2.493-16.455,11.84-14.87,25.039-29.882,41.309-38.961,9.029-5.038,18.8-6.042,26.15-2.685,6.469,2.955,10.356,9,10.943,17.027.689,9.413-1.738,18.492-5.148,27.178C89.371,36.631,111.654,21,129.18,22.9c8.051.877,14.192,5.258,18.254,13.019,6.683,12.763.773,28.972-5.891,43.143-3.171,6.747-6.642,13.483-10,20l-1.188,2.305c9.723-8.451,18.429-16.315,26.427-23.867v0a15.121,15.121,0,0,1,13.9-4.094,15.4,15.4,0,0,1,11.5,10.509c1.266,4.662-.255,9.279-4.287,13l-1.316,1.212c-10.958,10.108-22.29,20.56-33.633,30.662-1.4,1.246-2.835,2.578-4.317,3.951-8.815,8.165-19.784,18.328-32.851,19.346C105.282,152.123,104.784,152.147,104.292,152.158ZM113,66.1a2.251,2.251,0,0,1,1.11.25,1.925,1.925,0,0,1,1.031,2.391l-.116.313a216.55,216.55,0,0,1-9,20.086c-1.182,2.407-2.428,4.839-3.685,7.292-5.065,9.891-10.3,20.117-12.183,30.411-1.274,6.989.24,13.654,3.953,17.392,2.753,2.772,6.617,3.968,11.5,3.6,11.313-.883,21.152-10,29.832-18.038,1.505-1.393,2.966-2.747,4.385-4.013,11.313-10.075,22.63-20.513,33.574-30.608l1.314-1.212c3.567-3.288,3.595-6.622,2.994-8.84a11.244,11.244,0,0,0-8.283-7.577,10.078,10.078,0,0,0-9.414,2.847v0c-10.332,9.756-21.829,20.02-35.152,31.379a2.474,2.474,0,0,1-2.909.227,1.969,1.969,0,0,1-.7-2.573c2.01-4.034,4.077-8.043,6.144-12.053,3.338-6.482,6.792-13.184,9.929-19.86,6.243-13.274,11.828-28.361,5.939-39.608-3.423-6.544-8.275-10.071-14.833-10.783C112.088,25.354,88.642,42.158,76.878,53.9c-1.255,1.249-2.465,2.544-3.677,3.839l-.916.98a2.485,2.485,0,0,1-2.964.49,1.973,1.973,0,0,1-.866-2.6C73.68,45.3,78.708,33.228,77.8,20.88,77.319,14.264,74.367,9.535,69.266,7.2c-5.949-2.717-14.06-1.793-21.7,2.467C32.039,18.34,19.221,32.942,7.684,47.432,4.039,52.011,6.127,55.879,9.3,57.969c4.295,2.829,11.108,3.021,15.28-2.189A169.64,169.64,0,0,1,41.528,37.586a2.475,2.475,0,0,1,3.021-.272,1.978,1.978,0,0,1,.58,2.712q-1.358,2.232-2.744,4.457A336.483,336.483,0,0,0,25.4,74.094l-1.09,2.224c-9.191,18.729-21.775,44.38-11.689,62.9,4.9,9,17,9.616,26.415,5.586,11.753-5.031,20.5-15.14,28.952-24.918,1.094-1.263,2.178-2.517,3.257-3.743,7.225-8.227,13.976-16.987,20.508-25.46q3.522-4.572,7.079-9.134l.676-.862a171.936,171.936,0,0,1,11.457-13.625l.21-.211A2.75,2.75,0,0,1,113,66.1Zm45.4,12.847h0Z" fill="#3c384f"/>
            <path id="Trazado_143616" data-name="Trazado 143616" d="M11.121,1.418c-8.884,15.95-14.13,34.533-7.072,51.3,1.042,2.481,5.534,1.284,4.477-1.232C1.9,35.743,6.7,18.479,15.055,3.476,16.434,1,12.506-1.068,11.121,1.418Z" transform="translate(11.845 82.624)" fill="#3c384f"/>
            <path id="Trazado_143617" data-name="Trazado 143617" d="M6.912,11.475c-.039,0-.076-.013-.113-.019-.062-.113-.116-.238-.136-.271l-.011-.013c0-.017,0,0,0-.03-.275-.945-.464-1.9-.666-2.866q-.7-3.351-1.4-6.7A2.245,2.245,0,0,0,1.776.153,2.274,2.274,0,0,0,.1,2.808Q.893,6.6,1.689,10.388c.44,2.1,1.16,4.858,3.9,5.221a2.513,2.513,0,0,0,2.874-1.551A2.036,2.036,0,0,0,6.912,11.475Z" transform="translate(21.972 117.337)" fill="#3c384f"/>
            <path id="Trazado_143618" data-name="Trazado 143618" d="M8.995.427C6.407-.8,3.985,2.922,6.577,4.155c3.58,1.7,4.6,5.309,4.653,8.873A57.654,57.654,0,0,1,9.893,25.255,80.08,80.08,0,0,1,1.328,48.3c-1.377,2.475,2.549,4.544,3.933,2.058a83.911,83.911,0,0,0,9.612-27.129C16.146,15.533,17.713,4.574,8.995.427Z" transform="translate(123.69 35.311)" fill="#3c384f"/>
          </g>
          <g id="Grupo_162318" data-name="Grupo 162318" transform="translate(0 0)">
            <g id="Grupo_162317" data-name="Grupo 162317">
              <g id="Grupo_162316" data-name="Grupo 162316">
                <path id="Trazado_143619" data-name="Trazado 143619" d="M156.015,76.756c-11.373,10.743-23.108,21.108-35.06,31.3,5.319-10.669,11.031-21.183,16.1-31.956,5.742-12.216,12.474-28.844,5.915-41.376C128.015,6.157,87.753,35.414,72.836,50.3c-1.591,1.584-3.109,3.237-4.648,4.874,5.487-11.87,10.464-24.052,9.538-36.724C76.45,1.025,59.2-2.775,44.062,5.672,27.806,14.743,14.557,30.1,3.464,44.033-5.956,55.864,14.686,66.464,24.031,54.8A166.6,166.6,0,0,1,40.745,36.859q-1.351,2.223-2.728,4.439a337.405,337.405,0,0,0-17.1,29.8C11.327,90.719-2.811,117.892,8.167,138.054c5.533,10.16,19.065,10.9,29.377,6.486,13.86-5.935,23.667-18.572,33.085-29.293,9.832-11.193,18.537-23.04,27.67-34.694a181.471,181.471,0,0,1,11.974-14.307c.1-.1.205-.2.3-.3l-.114.313a214.521,214.521,0,0,1-8.915,19.891C95.558,98.344,87.9,111.213,85.5,124.4c-2.128,11.655,2.656,24.556,17.818,23.374,14.252-1.111,25.968-14.014,35.69-22.673,11.775-10.488,23.347-21.175,34.921-31.85C186.013,82.1,167.959,65.475,156.015,76.756Z" transform="translate(2.381 2.191)" fill="#3c3fa7"/>
                <path id="Trazado_143620" data-name="Trazado 143620" d="M104.29,152.156c-5.587.125-10.283-1.576-13.648-4.964-4.678-4.709-6.56-12.509-5.035-20.865,1.985-10.89,7.369-21.4,12.577-31.565,1.245-2.434,2.479-4.842,3.651-7.225,1.109-2.261,2.276-4.636,3.436-7.091-.695.879-1.383,1.758-2.063,2.629l-.676.862c-2.373,3.027-4.716,6.069-7.059,9.106-6.573,8.531-13.371,17.352-20.7,25.688q-1.6,1.829-3.232,3.719c-8.4,9.712-17.925,20.722-30.729,26.206-11.417,4.883-26.187,3.916-32.338-7.385-11.055-20.3,2.062-47.033,11.64-66.556L21.206,72.5c2.818-5.767,5.957-11.4,9.277-17.02q-1.137,1.356-2.239,2.729C22.469,65.416,12.655,65.529,6.5,61.472c-5.089-3.356-7.836-9.744-2.493-16.455,11.84-14.87,25.039-29.882,41.307-38.963,9.032-5.036,18.8-6.04,26.152-2.683,6.469,2.955,10.354,9,10.943,17.025.689,9.413-1.738,18.494-5.15,27.178C89.371,36.631,111.652,21,129.177,22.9c8.051.877,14.195,5.258,18.257,13.019,6.681,12.763.77,28.97-5.891,43.143-3.171,6.745-6.642,13.483-10,20l-1.188,2.3c9.723-8.449,18.429-16.313,26.427-23.865h0A15.12,15.12,0,0,1,170.687,73.4a15.388,15.388,0,0,1,11.5,10.509c1.268,4.662-.253,9.277-4.285,12.994l-1.316,1.214c-10.958,10.108-22.289,20.558-33.633,30.662-1.4,1.246-2.835,2.578-4.319,3.951-8.812,8.164-19.781,18.328-32.848,19.346C105.28,152.121,104.784,152.145,104.29,152.156ZM113,66.1a2.246,2.246,0,0,1,1.11.252,1.923,1.923,0,0,1,1.033,2.391l-.116.313a216.808,216.808,0,0,1-9,20.086c-1.182,2.4-2.428,4.837-3.685,7.292-5.067,9.891-10.307,20.118-12.185,30.409-1.274,6.989.24,13.654,3.955,17.394,2.751,2.77,6.617,3.968,11.5,3.6,11.313-.883,21.152-10,29.83-18.038,1.505-1.4,2.968-2.749,4.387-4.013,11.313-10.075,22.63-20.513,33.574-30.607l1.314-1.214c3.565-3.286,3.595-6.62,2.991-8.84a11.237,11.237,0,0,0-8.283-7.575,10.075,10.075,0,0,0-9.412,2.847h0c-10.332,9.756-21.829,20.02-35.152,31.381a2.475,2.475,0,0,1-2.909.227,1.967,1.967,0,0,1-.7-2.573c2.01-4.034,4.077-8.043,6.142-12.055,3.34-6.48,6.792-13.182,9.931-19.858,6.24-13.274,11.828-28.361,5.939-39.611-3.425-6.542-8.277-10.069-14.833-10.783-16.339-1.772-39.787,15.032-51.551,26.768-1.253,1.251-2.463,2.546-3.675,3.839l-.919.982a2.481,2.481,0,0,1-2.962.49,1.976,1.976,0,0,1-.869-2.6C73.68,45.3,78.708,33.226,77.8,20.88,77.319,14.262,74.367,9.533,69.266,7.2c-5.951-2.715-14.06-1.791-21.7,2.469C32.037,18.338,19.221,32.942,7.684,47.432,4.037,52.011,6.127,55.877,9.3,57.967c4.295,2.831,11.108,3.023,15.28-2.187A169.218,169.218,0,0,1,41.528,37.586a2.471,2.471,0,0,1,3.019-.272,1.974,1.974,0,0,1,.58,2.71q-1.359,2.235-2.742,4.459A336.514,336.514,0,0,0,25.4,74.094l-1.09,2.224c-9.189,18.729-21.772,44.38-11.687,62.9,4.9,9,17,9.618,26.415,5.588,11.753-5.031,20.5-15.142,28.952-24.918q1.641-1.9,3.255-3.745c7.227-8.225,13.978-16.985,20.51-25.458,2.348-3.048,4.7-6.1,7.079-9.136l.676-.86a172.019,172.019,0,0,1,11.454-13.625l.213-.211A2.747,2.747,0,0,1,113,66.1Zm45.4,12.849h0Z"/>
              </g>
              <path id="Trazado_143621" data-name="Trazado 143621" d="M11.123,1.418c-8.886,15.95-14.13,34.531-7.074,51.3,1.045,2.478,5.536,1.284,4.479-1.232C1.9,35.742,6.7,18.479,15.056,3.477,16.433,1,12.507-1.068,11.123,1.418Z" transform="translate(11.844 82.624)"/>
              <path id="Trazado_143622" data-name="Trazado 143622" d="M6.912,11.475c-.039,0-.076-.013-.113-.019-.062-.116-.119-.238-.139-.271l-.009-.013c0-.017,0-.006,0-.032-.275-.943-.466-1.9-.666-2.863q-.7-3.351-1.4-6.7A2.246,2.246,0,0,0,1.774.153,2.273,2.273,0,0,0,.1,2.807l1.587,7.578c.442,2.1,1.162,4.861,3.9,5.223a2.515,2.515,0,0,0,2.874-1.551A2.037,2.037,0,0,0,6.912,11.475Z" transform="translate(21.972 117.337)"/>
              <path id="Trazado_143623" data-name="Trazado 143623" d="M9,.427C6.408-.8,3.983,2.922,6.578,4.155c3.58,1.7,4.594,5.309,4.653,8.871A57.67,57.67,0,0,1,9.894,25.255,80.078,80.078,0,0,1,1.329,48.3c-1.379,2.475,2.549,4.544,3.933,2.058a84,84,0,0,0,9.612-27.129C16.147,15.531,17.714,4.572,9,.427Z" transform="translate(123.689 35.311)"/>
            </g>
          </g>
        </g>
        <g id="Grupo_169450" data-name="Grupo 169450" transform="translate(-157.151 39.338) rotate(-50)">
          <g id="Grupo_162315-2" data-name="Grupo 162315" transform="translate(8.118 7.981)" style="mix-blend-mode: overlay;isolation: isolate">
            <path id="Trazado_143614-2" data-name="Trazado 143614" d="M246.573,126.108c-18.088,18.188-36.725,35.763-55.688,53.057,8.68-17.865,17.961-35.479,26.252-53.51,9.4-20.441,20.509-48.226,10.8-68.776-22.117-46.841-85.81,3.009-109.566,28.175-2.53,2.683-4.957,5.474-7.411,8.234,8.991-19.859,17.2-40.217,16.251-61.187-1.3-28.833-27.958-34.551-51.8-20.039C49.8,27.642,28.616,53.547,10.842,77.007c-15.1,19.925,16.557,36.8,31.53,17.154a288.312,288.312,0,0,1,26.671-30.3q-2.186,3.729-4.415,7.446C54.8,87.7,45.086,104.139,36.9,121.288c-15.666,32.832-38.7,78.347-22.426,111.391,8.2,16.653,29.2,17.426,45.389,9.761,21.765-10.3,37.494-31.579,52.545-49.663,15.711-18.882,29.7-38.81,44.346-58.433,6.118-8.2,12.237-16.512,19.161-24.111.159-.176.324-.339.482-.512l-.189.519c-4.173,11.348-9.369,22.292-14.627,33.267-9.779,20.419-22.176,42.008-26.426,63.933-3.757,19.388,3.168,40.611,26.772,38.141,22.19-2.321,40.9-24.1,56.337-38.78,18.7-17.779,37.095-35.878,55.493-53.961C292.974,133.96,265.573,107.009,246.573,126.108Z" transform="translate(3.749 3.722)" fill="#3c384f"/>
            <path id="Trazado_143615-2" data-name="Trazado 143615" d="M163.408,252.991c-8.685.4-15.917-2.269-21.014-7.771-7.085-7.648-9.7-20.511-7.01-34.409,3.512-18.119,12.288-35.721,20.772-52.739,2.032-4.076,4.045-8.112,5.954-12.1,1.811-3.784,3.717-7.759,5.614-11.868q-1.671,2.226-3.308,4.427l-1.084,1.455q-5.707,7.646-11.319,15.329c-10.548,14.358-21.455,29.207-33.159,43.272-1.709,2.054-3.428,4.15-5.166,6.269-13.434,16.384-28.658,34.952-48.765,44.468C47,257.8,24.086,256.7,14.97,238.173c-16.383-33.275,5.039-78.027,20.683-110.7l1.776-3.716c4.6-9.652,9.7-19.1,15.08-28.522q-1.824,2.286-3.585,4.6c-9.257,12.143-24.509,12.662-33.911,6.144C7.236,100.587,3.219,90.091,11.782,78.79c18.975-25.043,40.067-50.37,65.7-65.964C91.706,4.172,106.93,2.179,118.214,7.495c9.935,4.679,15.738,14.569,16.337,27.852.7,15.578-3.422,30.707-9.058,45.218,19.24-18.547,54.469-45.211,81.624-42.65,12.474,1.183,21.845,8.237,27.853,20.964,9.885,20.929.07,47.993-10.835,71.7-5.19,11.289-10.845,22.571-16.315,33.485l-1.936,3.86c15.436-14.334,29.269-27.661,41.989-40.448v0c6.289-6.327,14.025-8.9,21.763-7.253A23.119,23.119,0,0,1,287.1,137.261c1.785,7.685-.759,15.388-7.168,21.685L277.835,161c-17.42,17.122-35.432,34.827-53.45,51.951-2.22,2.112-4.5,4.368-6.861,6.695-14.013,13.829-31.452,31.043-51.793,33.17C164.948,252.9,164.172,252.956,163.408,252.991Zm16.884-142.926a3.222,3.222,0,0,1,1.715.376,3.146,3.146,0,0,1,1.508,3.929l-.192.523c-4.374,11.9-9.893,23.426-14.763,33.594-1.93,4.029-3.962,8.1-6.01,12.21-8.255,16.564-16.794,33.69-20.113,50.814-2.253,11.627-.159,22.623,5.463,28.693,4.17,4.5,10.126,6.354,17.726,5.586,17.611-1.844,33.252-17.279,47.052-30.9,2.393-2.36,4.715-4.653,6.969-6.8,17.969-17.08,35.959-34.759,53.356-51.859l2.089-2.053c5.67-5.57,5.844-11.1,5-14.753a16.884,16.884,0,0,0-12.573-12.28c-3.669-.784-9.2-.539-14.738,5.035v0c-16.432,16.517-34.7,33.917-55.837,53.191a3.692,3.692,0,0,1-4.529.474,3.3,3.3,0,0,1-.992-4.241c3.28-6.753,6.648-13.469,10.016-20.184,5.439-10.856,11.066-22.081,16.2-33.251,10.217-22.211,19.483-47.4,10.772-65.847-5.063-10.73-12.464-16.413-22.625-17.373-25.316-2.391-62.4,26.249-81.132,46.1-2,2.113-3.929,4.3-5.863,6.487L117.324,99.2a3.761,3.761,0,0,1-4.624.911,3.273,3.273,0,0,1-1.245-4.276C120.016,76.915,128.3,56.737,127.376,36.3c-.5-10.949-4.9-18.687-12.732-22.378-9.137-4.3-21.774-2.5-33.807,4.818C56.372,33.631,35.888,58.264,17.4,82.669c-5.841,7.712-2.748,14.052,2.1,17.41A17.275,17.275,0,0,0,43.32,95.936,293.957,293.957,0,0,1,70.364,65.211a3.7,3.7,0,0,1,4.7-.552,3.342,3.342,0,0,1,.8,4.476q-2.2,3.745-4.438,7.479C61.48,93.2,51.885,109.487,43.881,126.261l-1.78,3.723c-15.01,31.351-35.561,74.288-20.614,104.648C28.748,249.38,47.52,250,62.309,243c18.456-8.733,32.436-25.783,45.953-42.273,1.749-2.129,3.482-4.244,5.207-6.313,11.546-13.878,22.376-28.625,32.855-42.888q5.65-7.7,11.354-15.377l1.084-1.451c5.744-7.7,11.682-15.667,18.331-22.968l.335-.357A4.342,4.342,0,0,1,180.292,110.065Zm70.034,19.765h0Z" fill="#3c384f"/>
            <path id="Trazado_143616-2" data-name="Trazado 143616" d="M20.207,2.933C5.782,29.668-3.093,60.644,7.219,88.2c1.522,4.076,8.548,1.942,7-2.193C4.545,60.135,12.67,31.359,26.237,6.213A3.434,3.434,0,1,0,20.207,2.933Z" transform="translate(19.507 139.899)" fill="#3c384f"/>
            <path id="Trazado_143617-2" data-name="Trazado 143617" d="M10.486,18.954c-.061,0-.117-.019-.174-.027-.092-.186-.172-.39-.2-.445l-.017-.02c-.006-.028,0-.007,0-.049-.39-1.557-.646-3.137-.923-4.727q-.958-5.53-1.919-11.06A3.3,3.3,0,0,0,2.948.362,3.978,3.978,0,0,0,.24,4.818q1.085,6.253,2.174,12.51c.6,3.47,1.612,8.013,5.849,8.521a4.061,4.061,0,0,0,4.526-2.668C13.262,21.459,12.451,19.189,10.486,18.954Z" transform="translate(36.675 197.881)" fill="#3c384f"/>
            <path id="Trazado_143618-2" data-name="Trazado 143618" d="M17.8,1.081c-3.973-1.954-7.881,4.3-3.9,6.26,5.5,2.7,6.935,8.645,6.883,14.55A103.221,103.221,0,0,1,18.224,42.2,144.412,144.412,0,0,1,4.018,80.682a3.434,3.434,0,1,0,6.03,3.279A151.335,151.335,0,0,0,26.04,38.675C28.319,25.877,31.181,7.66,17.8,1.081Z" transform="translate(194.265 57.998)" fill="#3c384f"/>
          </g>
          <g id="Grupo_162318-2" data-name="Grupo 162318" transform="translate(0 0)">
            <g id="Grupo_162317-2" data-name="Grupo 162317">
              <g id="Grupo_162316-2" data-name="Grupo 162316">
                <path id="Trazado_143619-2" data-name="Trazado 143619" d="M246.573,126.109c-18.088,18.188-36.725,35.763-55.691,53.054,8.68-17.862,17.965-35.479,26.255-53.506,9.4-20.441,20.506-48.226,10.8-68.776-22.117-46.841-85.81,3.005-109.566,28.175-2.533,2.679-4.957,5.47-7.411,8.234,8.987-19.859,17.2-40.217,16.251-61.187-1.3-28.833-27.958-34.551-51.8-20.042C49.8,27.643,28.617,53.548,10.839,77.008c-15.1,19.925,16.56,36.8,31.534,17.154a288.681,288.681,0,0,1,26.667-30.3q-2.186,3.729-4.411,7.449C54.8,87.7,45.086,104.14,36.9,121.285c-15.67,32.835-38.7,78.347-22.426,111.395,8.2,16.653,29.194,17.426,45.389,9.761,21.765-10.3,37.494-31.579,52.545-49.663,15.711-18.883,29.7-38.81,44.342-58.433,6.121-8.2,12.24-16.513,19.161-24.115.158-.173.327-.335.485-.512l-.189.523c-4.173,11.348-9.372,22.292-14.627,33.267-9.783,20.416-22.176,42-26.426,63.933-3.761,19.388,3.168,40.611,26.772,38.141,22.186-2.32,40.892-24.1,56.334-38.78,18.7-17.779,37.1-35.882,55.5-53.964C292.97,133.961,265.57,107.01,246.573,126.109Z" transform="translate(3.749 3.721)" fill="#3c3fa7"/>
                <path id="Trazado_143620-2" data-name="Trazado 143620" d="M163.4,252.988c-8.685.4-15.914-2.266-21.011-7.768-7.085-7.648-9.7-20.511-7.009-34.413,3.509-18.116,12.284-35.717,20.772-52.739,2.029-4.076,4.041-8.109,5.954-12.1,1.811-3.784,3.717-7.76,5.614-11.868-1.114,1.481-2.217,2.961-3.308,4.427l-1.084,1.451c-3.8,5.1-7.564,10.217-11.323,15.33-10.544,14.361-21.451,29.21-33.156,43.272q-2.564,3.086-5.166,6.272c-13.433,16.38-28.658,34.948-48.765,44.469C46.994,257.8,24.086,256.693,14.97,238.17c-16.384-33.271,5.039-78.023,20.68-110.7l1.779-3.712c4.6-9.652,9.7-19.1,15.076-28.522q-1.819,2.286-3.585,4.6c-9.253,12.147-24.505,12.665-33.908,6.147C7.236,100.587,3.219,90.091,11.782,78.79c18.975-25.043,40.067-50.37,65.7-65.967,14.228-8.65,29.448-10.643,40.736-5.328,9.935,4.679,15.735,14.566,16.337,27.849.7,15.578-3.422,30.71-9.062,45.218,19.243-18.543,54.469-45.207,81.624-42.647,12.474,1.183,21.848,8.237,27.857,20.963,9.881,20.93.067,47.99-10.835,71.7-5.19,11.285-10.845,22.571-16.315,33.481l-1.936,3.86c15.436-14.33,29.269-27.657,41.988-40.444h0c6.289-6.327,14.025-8.894,21.763-7.25a23.109,23.109,0,0,1,17.457,17.031c1.789,7.685-.755,15.384-7.164,21.681L277.835,161c-17.42,17.122-35.432,34.824-53.45,51.952-2.221,2.112-4.5,4.368-6.864,6.695-14.01,13.828-31.448,31.043-51.789,33.17C164.944,252.9,164.172,252.953,163.4,252.988Zm16.884-142.926a3.216,3.216,0,0,1,1.715.38,3.142,3.142,0,0,1,1.511,3.929l-.192.523c-4.374,11.9-9.893,23.425-14.763,33.594-1.93,4.026-3.962,8.1-6.01,12.21-8.259,16.564-16.8,33.69-20.117,50.811-2.253,11.627-.159,22.623,5.466,28.7,4.166,4.5,10.126,6.354,17.726,5.586,17.611-1.844,33.253-17.279,47.049-30.9,2.393-2.363,4.719-4.656,6.973-6.8,17.969-17.08,35.959-34.76,53.356-51.859l2.089-2.057c5.666-5.566,5.843-11.093,4.993-14.753a16.874,16.874,0,0,0-12.573-12.276c-3.665-.784-9.193-.54-14.734,5.035h0c-16.432,16.517-34.7,33.916-55.837,53.194a3.692,3.692,0,0,1-4.529.474,3.3,3.3,0,0,1-.992-4.241c3.28-6.753,6.648-13.469,10.012-20.187,5.442-10.853,11.066-22.077,16.2-33.247,10.213-22.211,19.483-47.4,10.772-65.851C223.34,51.6,215.939,45.913,205.781,44.949c-25.316-2.387-62.4,26.253-81.136,46.1-2,2.116-3.926,4.3-5.859,6.487L117.321,99.2a3.756,3.756,0,0,1-4.621.911,3.277,3.277,0,0,1-1.248-4.279c8.564-18.913,16.847-39.1,15.924-59.527-.5-10.952-4.9-18.691-12.732-22.381-9.14-4.3-21.774-2.5-33.807,4.822C56.369,33.627,35.888,58.264,17.4,82.669c-5.844,7.712-2.748,14.048,2.1,17.406a17.271,17.271,0,0,0,23.824-4.138A293.224,293.224,0,0,1,70.364,65.211a3.7,3.7,0,0,1,4.7-.552,3.335,3.335,0,0,1,.8,4.472q-2.2,3.751-4.434,7.482c-9.95,16.591-19.541,32.874-27.548,49.649L42.1,129.984C27.091,161.335,6.541,204.272,21.488,234.629,28.748,249.38,47.52,250,62.309,243c18.456-8.734,32.436-25.787,45.953-42.273q2.623-3.2,5.2-6.316c11.549-13.875,22.38-28.622,32.859-42.885q5.65-7.7,11.354-15.38l1.084-1.448c5.744-7.7,11.682-15.67,18.327-22.968l.339-.357A4.338,4.338,0,0,1,180.288,110.062Zm70.033,19.769.036,0Z"/>
              </g>
              <path id="Trazado_143621-2" data-name="Trazado 143621" d="M20.209,2.934C5.781,29.669-3.091,60.642,7.217,88.205c1.526,4.073,8.551,1.942,7.007-2.193-9.681-25.88-1.555-54.653,12.015-79.8A3.434,3.434,0,1,0,20.209,2.934Z" transform="translate(19.505 139.898)"/>
              <path id="Trazado_143622-2" data-name="Trazado 143622" d="M10.486,18.954c-.061,0-.117-.019-.174-.027-.091-.19-.175-.39-.2-.445l-.013-.021c-.006-.028,0-.011,0-.053-.39-1.553-.649-3.137-.923-4.723Q8.2,8.155,7.247,2.625A3.3,3.3,0,0,0,2.945.362,3.977,3.977,0,0,0,.24,4.818l2.17,12.507c.605,3.473,1.616,8.017,5.852,8.525a4.064,4.064,0,0,0,4.526-2.668C13.262,21.459,12.447,19.189,10.486,18.954Z" transform="translate(36.675 197.882)"/>
              <path id="Trazado_143623-2" data-name="Trazado 143623" d="M17.8,1.081c-3.973-1.954-7.885,4.3-3.9,6.26,5.495,2.7,6.931,8.645,6.883,14.547A103.25,103.25,0,0,1,18.225,42.2,144.413,144.413,0,0,1,4.02,80.682a3.434,3.434,0,1,0,6.03,3.279A151.492,151.492,0,0,0,26.042,38.675C28.32,25.873,31.182,7.657,17.8,1.081Z" transform="translate(194.263 57.998)"/>
            </g>
          </g>
        </g>
      </g>
    </g>
  </g>
</svg>
