<svg xmlns="http://www.w3.org/2000/svg" xmlns:xlink="http://www.w3.org/1999/xlink" width="190" height="163" viewBox="0 0 190 163">
  <defs>
    <clipPath id="clip-path">
      <rect id="Rect치ngulo_42770" data-name="Rect치ngulo 42770" width="125.406" height="128.564" fill="none"/>
    </clipPath>
  </defs>
  <g id="Grupo_169834" data-name="Grupo 169834" transform="translate(-2990 10635)">
    <rect id="Rect치ngulo_42581" data-name="Rect치ngulo 42581" width="190" height="163" rx="18" transform="translate(2990 -10635)" fill="#ffbfc1"/>
    <g id="Grupo_169833" data-name="Grupo 169833" transform="translate(3022 -10618)">
      <g id="Grupo_169832" data-name="Grupo 169832" clip-path="url(#clip-path)">
        <path id="Trazado_162788" data-name="Trazado 162788" d="M21.513,20.414c.619,0,1.052,0,1.485,0a1.267,1.267,0,0,1,1.411,1.369c.024,1.968,0,3.935.011,5.9,0,.529-.185,1.08-.654,1.178-1.057.222-1.01,1.011-1.083,1.753-.305,3.087-.581,6.176-.891,9.263a6.53,6.53,0,0,0,.281,2.578q4.076,13.528,8.112,27.067A2.427,2.427,0,0,0,31.4,71.1q3.312,1.853,6.566,3.811c.66.4.957.526,1.212-.428.978-3.666,2.05-7.306,3.1-10.95.14-.484.25-.827-.317-1.195-.77-.5-.506-1.276-.262-2.012.675-2.039.658-2.034-1.453-2.667C36.866,56.643,33.493,55.6,30.1,54.607c-1.169-.342-1.972-.951-2-2.242-.025-1.132.742-1.888,2.18-2.221,4.591-1.06,9.179-2.132,13.779-3.151A1.525,1.525,0,0,0,45.4,45.82a17.292,17.292,0,0,1,1.768-4.069A1.382,1.382,0,0,0,47.1,40.1q-4.41-7.128-8.75-14.3c-.9-1.477-.624-2.817.662-3.465a2.463,2.463,0,0,1,2.575.388c4.683,2.884,9.389,5.733,14.052,8.649a2.249,2.249,0,0,0,2.616.217,8.01,8.01,0,0,1,2.7-.942c1.371-.205,1.776-1,2.054-2.229,1.172-5.191,2.446-10.358,3.682-15.534.287-1.2.845-2.145,2.251-2.13,1.383.016,1.934.9,2.221,2.14,1.267,5.483,2.6,10.95,3.846,16.439.2.889.694,1.164,1.41,1.6,2.392,1.458,4.272.669,6.375-.731,3.923-2.61,8.008-4.974,12.032-7.433,1.444-.882,2.342-.876,3.2-.018.842.841.85,1.814,0,3.213q-4.294,7.045-8.613,14.075a1.464,1.464,0,0,0-.092,1.768,16.431,16.431,0,0,1,1.758,4.073,1.441,1.441,0,0,0,1.263,1.1c4.6,1.031,9.184,2.107,13.779,3.146,1.214.274,2.178.807,2.228,2.177s-.838,1.97-2.053,2.325c-3.724,1.09-7.423,2.269-11.155,3.327-.933.265-1.134.61-.714,1.432a5.833,5.833,0,0,1,.29.867c.627,1.93.225,2.51-1.782,2.394-1.251-.073-.574.744-.489,1.086,1.309,5.246,2.666,10.482,4.011,15.72.379,1.479.763,2.956,1.135,4.437.739,2.941.661,3.134-1.892,4.68a14.933,14.933,0,0,1,4.367,4.928c.559-1.592,1.038-2.962,1.52-4.33.553-1.568.93-1.8,2.511-1.471q8.91,1.844,17.816,3.7c.641.133,1.279.28,1.919.419,1.568.341,1.871.872,1.313,2.416-1.807,5-3.612,10.008-5.458,15a1.337,1.337,0,0,0,.451,1.743c2.279,2.061,2.749,4.758,2.4,7.673-.449,3.8-3.179,7.119-6.508,7.9a4.2,4.2,0,0,1-1.421.16c-.847-.1-1.386.06-1.624,1a1.235,1.235,0,0,1-1.332.86c-.306-.006-.612,0-.918,0H37.025c-2.215,0-2.389-.179-2.4-2.371-.008-1.792.065-3.593-.074-5.375a15.106,15.106,0,0,0-3.019-7.837c-5.159-7.051-10.268-14.14-15.442-21.18-.78-1.062-1.063-1.974-.084-3a1.507,1.507,0,0,0,.214-1.59Q13.006,75.2,9.8,63.192c-.068-.253-.053-.651-.211-.737-2.3-1.252-1.467-3.62-1.914-5.489-.526-2.2-.731-4.478-1.064-6.724-.059-.4-.076-.737-.58-.89-3.6-1.1-5.1-3.946-5.73-7.309-.789-4.191-.126-8.083,2.984-11.3.655-.677.41-1.351-.55-1.646A1.452,1.452,0,0,1,1.606,27.55c.008-1.88-.006-3.761.007-5.641a1.349,1.349,0,0,1,1.563-1.5c.743.012,1.486,0,2.23,0,.432,0,.84.027.487-.629C3.783,15.855,4.677,12.09,6.565,8.4A33.322,33.322,0,0,1,12.228.732c1.095-1.152,2.049-.935,2.621.6a48.882,48.882,0,0,1,2.466,8.536,1.77,1.77,0,0,0,3.226.98c.98-1.055,2.015-.8,2.418.582a10.363,10.363,0,0,1-.733,7.641c-.188.388-.4.762-.713,1.344" transform="translate(0 0)"/>
        <path id="Trazado_162789" data-name="Trazado 162789" d="M45.8,127.928c.17-.252.328-.514.514-.755.563-.729.869-1.515-.006-2.163-.835-.619-1.555-.246-2.095.549-.6.384-.9-.1-1.169-.453-2.6-3.425-5.073-6.947-7.622-10.411a1.189,1.189,0,0,1-.146-1.228c.943-1.416,1.877-2.839,2.834-4.245.527-.772.992-1.557-.018-2.257-1.081-.75-1.658.041-2.2.839-.813,1.187-1.64,2.366-2.461,3.548-.388.1-.551-.2-.726-.436-.945-1.258-1.886-2.52-2.785-3.812a1.494,1.494,0,0,1-.064-1.829c3-4.515,5.983-9.04,9.18-13.419a.54.54,0,0,1,.218-.141c3.361,1.672,6.5,3.744,9.772,5.567.991.551,1.935,1.194,2.948,1.7.808.4.956.737.387,1.538-2.325,3.276-4.575,6.605-6.852,9.916-.174.251-.358.5-.508.762a1.3,1.3,0,1,0,2.146,1.449c.74-1.028,1.454-2.073,2.173-3.117,1.759-2.553,3.548-5.087,5.251-7.678.492-.747.843-.872,1.619-.392,3.787,2.34,7.343,4.916,9.547,8.934a14.944,14.944,0,0,1,1.643,4.669c.152.876.536,1.655,1.625,1.449,1.019-.193,1.066-.995.963-1.844a22.678,22.678,0,0,0-1.639-5.158c2.278.475,4.394.915,6.509,1.359,1.62.34,3.229.755,4.863,1,1.092.165,1.061.53.579,1.339q-5.926,9.962-11.805,19.952c-1.532,2.594-3.065,5.188-4.578,7.792a1.456,1.456,0,0,1-1.419.9c-4.5-.05-9-.043-13.5-.055a4.63,4.63,0,0,1,0-4.132q5.191-4.991,10.387-9.977c.69-.661,1.241-1.343.385-2.209s-1.564-.285-2.235.356q-4.4,4.2-8.813,8.4c-.616.023-.625-.518-.769-.882a19.382,19.382,0,0,0-1.977-4.09,1.172,1.172,0,0,1-.151-1.335" transform="translate(-5.125 -15.895)" fill="#95c495"/>
        <path id="Trazado_162790" data-name="Trazado 162790" d="M112.442,144.909c.88-2.526,1.711-4.9,2.535-7.279,1.868-5.387,3.768-10.762,5.574-16.169a7.9,7.9,0,0,0,.348-4.369,1.965,1.965,0,0,1,.213-1.135c.632-1.854,1.349-3.681,1.93-5.551a1.1,1.1,0,0,1,1.457-.89q8.221,1.7,16.435,3.427c.484.1.886.265.624.98q-2.536,6.929-4.992,13.887c-.168.474-.441.556-.873.58-4.577.26-7.649,4.632-7.857,8.685a8.892,8.892,0,0,0,2.3,7.1c.379.389.384.728-.265.728-5.755.01-11.51.006-17.428.006" transform="translate(-19.487 -18.972)" fill="#577257"/>
        <path id="Trazado_162791" data-name="Trazado 162791" d="M84.136,62.8c3.055,2.247,5.682,4.984,8.552,7.442a14.425,14.425,0,0,0,3.429,2.144c.392.179.818.3.832.871.091,3.981.173,7.969-1.906,11.582a15.282,15.282,0,0,1-12.762,8.121,12.422,12.422,0,0,1-6.858-5.174A16,16,0,0,1,72.266,74.82a12,12,0,0,1,4.534-7.3c2-1.552,4.067-3.017,6.155-4.448.353-.243.7-.57,1.181-.279" transform="translate(-12.47 -10.863)" fill="#95c495"/>
        <path id="Trazado_162792" data-name="Trazado 162792" d="M103,117.469c-1.114,3.457-2.168,6.671-3.185,9.9Q96.983,136.329,94.2,145.3a1.138,1.138,0,0,1-1.268.98q-8.778-.058-17.557,0c-1.1.006-1.017-.288-.547-1.076q6.778-11.395,13.5-22.822c.863-1.462,1.738-2.918,2.568-4.4a1.162,1.162,0,0,1,1.567-.646,22.791,22.791,0,0,0,6.173.892,15.72,15.72,0,0,0,4.363-.757" transform="translate(-12.911 -20.321)" fill="#577257"/>
        <path id="Trazado_162793" data-name="Trazado 162793" d="M96.932,57.136a2.206,2.206,0,0,1-2.721-1.324,17.034,17.034,0,0,0-15.748-9.061c-6.84.077-12.076,3.339-15.51,9.305a1.641,1.641,0,0,1-1.7,1.054c-1.176-.07-2.359-.038-3.538-.01-.681.016-.935-.16-.77-.913,2.181-9.961,9.563-16.73,20-17.188,6.563-.288,12.322,1.644,16.9,6.513a22.514,22.514,0,0,1,5.42,10.734c.17.755-.124.936-.792.9-.479-.029-.961-.006-1.536-.006" transform="translate(-9.86 -6.754)" fill="#95c495"/>
        <path id="Trazado_162794" data-name="Trazado 162794" d="M23.846,59.031q2.242,7.427,4.482,14.853c.638,2.124,1.222,4.266,1.9,6.377a2.115,2.115,0,0,1-.253,2.069c-2.8,4.048-5.558,8.128-8.336,12.194-.155.226-.2.661-.613.527-.274-.089-.241-.426-.308-.676C18.884,87.44,17.065,80.5,15.177,73.582c-.278-1.019-.017-1.21.922-1.179,1.527.052,3.058-.017,4.586.025.994.028,1.586-.316,1.688-1.362.231-2.378.482-4.753.721-7.131q.248-2.459.487-4.919l.266.015" transform="translate(-2.612 -10.228)" fill="#698a69"/>
        <path id="Trazado_162795" data-name="Trazado 162795" d="M97.453,94.205c-.074-.526.417-.824.779-1.184a18.79,18.79,0,0,0,5.417-9.933,33.471,33.471,0,0,0,.377-6.12c0-.451-.313-1.333.4-1.272.76.065,1.885-.282,2.209,1.062.908,3.761,1.9,7.5,2.86,11.248.838,3.286,1.653,6.577,2.521,9.855.165.623.1,1.024-.516,1.251-3.675,1.362-7.355,2.712-11.028,4.081-.39.146-.733.153-.845-.282-.732-2.863-1.435-5.733-2.174-8.706" transform="translate(-16.888 -13.118)" fill="#506850"/>
        <path id="Trazado_162796" data-name="Trazado 162796" d="M104.3,145.493c-.831-.148-2.235.5-2.773-.269-.444-.634.432-1.838.731-2.785q4.214-13.321,8.436-26.638c.528-1.672,2.189-2,3.366-2.888.41-.311.56.253.726.518a9.438,9.438,0,0,1,1.222,8.36c-2.624,7.663-5.351,15.291-8.018,22.939a.985.985,0,0,1-1.147.774c-.783-.048-1.572-.012-2.544-.012" transform="translate(-17.574 -19.553)" fill="#698a69"/>
        <path id="Trazado_162797" data-name="Trazado 162797" d="M82.829,61.72a74.307,74.307,0,0,0-6.492,4.52,12.089,12.089,0,0,0-3.93,4.444c-1.933,3.734-1.763,7.528-.423,11.357a17.1,17.1,0,0,0,8.99,9.838A15.537,15.537,0,0,1,64.436,76.066c.025-1.266.063-2.535-.017-3.8a1.841,1.841,0,0,1,1.073-1.987,24.552,24.552,0,0,0,5.857-4.768,7.035,7.035,0,0,1,2.807-2.008,8.258,8.258,0,0,0,4.493-4c.508-.91.946-1.858,1.538-3.033a20.594,20.594,0,0,0,2.642,5.247" transform="translate(-11.163 -9.787)" fill="#789578"/>
        <path id="Trazado_162798" data-name="Trazado 162798" d="M10.721,35.236c3.675,0,6.952.019,10.228-.012.925-.009,1.16.191,1,1.209-.343,2.139-.445,4.316-.655,6.477-.332,3.412-.686,6.822-1.005,10.235-.3,3.156-.552,6.316-.835,9.474-.074.821-.2,1.639-.263,2.46-.045.562-.413.588-.827.588-1.7,0-3.408-.013-5.111.007-.6.007-.81-.207-.894-.821-.379-2.792-.835-5.573-1.235-8.361-.069-.476-.287-1.008.408-1.34a8.6,8.6,0,0,0,4.635-6.27,13.034,13.034,0,0,0-1.631-10.645,8.428,8.428,0,0,0-3.813-3" transform="translate(-1.858 -6.104)" fill="#577257"/>
        <path id="Trazado_162799" data-name="Trazado 162799" d="M38.036,91.2c-1.43,2.579-3.238,4.91-4.863,7.36q-2.123,3.2-4.294,6.372a1.051,1.051,0,0,0,.015,1.41c1.125,1.485,2.216,3,3.32,4.495l-2.993,4.5c-1.829-2.5-3.6-4.91-5.345-7.327-1.737-2.4-1.739-2.411-.1-4.832,3.107-4.588,6.24-9.157,9.322-13.762.461-.689.789-.88,1.51-.346,1.081.8,2.4,1.234,3.429,2.132" transform="translate(-3.91 -15.383)" fill="#789578"/>
        <path id="Trazado_162800" data-name="Trazado 162800" d="M78.992,101.84a17.7,17.7,0,0,0,11.274-1.625c1.035-.535,1.347-.372,1.608.727.863,3.632,1.818,7.241,2.79,11.066-2.582-.535-5.024-1.03-7.461-1.548-3.265-.694-6.526-1.4-9.788-2.109-.112-.133-.25-.283-.228-.451a22,22,0,0,1,1.484-5.851c.045-.108.205-.15.321-.208" transform="translate(-13.377 -17.317)" fill="#759976"/>
        <path id="Trazado_162801" data-name="Trazado 162801" d="M14.483,4.655a42.3,42.3,0,0,1,1.75,6.279c.561,2.969,2.234,4.326,5.227,4.011.826-.087.87.2.813.8a8.561,8.561,0,0,1-2.381,5.115,1.443,1.443,0,0,1-1.195.381c-2.182-.006-4.363-.017-6.545.007a1.8,1.8,0,0,1-1.385-.584A6.669,6.669,0,0,1,9.056,14.14c.776-3.654,2.95-6.523,5.427-9.485" transform="translate(-1.533 -0.807)" fill="#95c495"/>
        <path id="Trazado_162802" data-name="Trazado 162802" d="M12.676,46.033c-.072,2.394-.563,4.7-2.434,6.493A3.075,3.075,0,0,1,5.6,52.512c-3.159-2.967-3.211-10.037-.1-13.084a3.219,3.219,0,0,1,4.786-.051c1.817,1.8,2.353,4.112,2.392,6.657" transform="translate(-0.554 -6.644)" fill="#95c495"/>
        <path id="Trazado_162803" data-name="Trazado 162803" d="M143.247,140.664a7.385,7.385,0,0,1-2.722,5.937c-2.288,1.849-4.985,1.061-6-1.689a7.939,7.939,0,0,1,2.018-8.075c1.161-1,2.459-1.7,4.073-1.067a4.191,4.191,0,0,1,2.55,3.535,10.727,10.727,0,0,1,.085,1.359" transform="translate(-23.247 -23.488)" fill="#95c495"/>
        <path id="Trazado_162804" data-name="Trazado 162804" d="M35.848,118.028c.279,1.488,1.473,2.42,2.262,3.581,1.8,2.655,3.769,5.2,5.665,7.788.26.355.494.73,1.009.722-1.129,1.579-2.259,3.157-3.458,4.832-2.552-4.111-5.432-7.723-8.13-11.465a1.221,1.221,0,0,1,.031-1.716c.909-1.22,1.75-2.492,2.62-3.742" transform="translate(-5.695 -20.455)" fill="#789578"/>
        <path id="Trazado_162805" data-name="Trazado 162805" d="M93.871,61.684A6.775,6.775,0,0,1,88.7,59.262a13.459,13.459,0,0,1-2.712-6.705c-.078-.6-.071-.919.688-.738A15.311,15.311,0,0,1,97.173,59.56c.43.793.252,1.125-.52,1.447a16.33,16.33,0,0,1-2.783.677" transform="translate(-14.897 -8.972)" fill="#698a69"/>
        <path id="Trazado_162806" data-name="Trazado 162806" d="M70.526,60.852a3.434,3.434,0,0,0-.543-.112c-1.026-.128-2.508-.063-2.813-.911-.374-1.04.846-1.982,1.556-2.821a15.207,15.207,0,0,1,8.557-5.149c1.438-.315,1.6-.162,1.26,1.272a15.135,15.135,0,0,1-1.8,4.449c-1.34,2.191-3.356,3.192-6.22,3.271" transform="translate(-11.629 -8.964)" fill="#698a69"/>
        <path id="Trazado_162807" data-name="Trazado 162807" d="M13.828,31.341c-2.492,0-4.985-.04-7.475.02-.953.023-1.316-.217-1.277-1.233.1-2.622-.289-2.195,2.245-2.208,4.634-.025,9.269.029,13.9-.033,1.129-.015,1.656.25,1.458,1.442a3.269,3.269,0,0,0,0,.916c.108.867-.261,1.128-1.114,1.113-2.578-.046-5.159-.017-7.738-.017" transform="translate(-0.879 -4.833)" fill="#688a69"/>
        <path id="Trazado_162808" data-name="Trazado 162808" d="M67,65.669c-3.337,3.5-7.194,5.7-12.224,5.276-.591-.05-.645-.26-.489-.723.608-1.815,1.238-3.623,1.81-5.45.238-.762.8-.642,1.363-.685A19.086,19.086,0,0,1,67,65.669" transform="translate(-9.395 -11.094)" fill="#577257"/>
        <path id="Trazado_162809" data-name="Trazado 162809" d="M104.085,64.121c2.718.028,2.014-.286,2.877,2.028.486,1.305.879,2.645,1.328,3.965.2.582.1.743-.591.871-4.3.8-7.609-1.071-10.611-3.819-.207-.189-.565-.367-.42-.733.118-.3.451-.17.7-.217A8.171,8.171,0,0,0,101.07,64.7c.894-.719,1.976-.56,3.015-.581" transform="translate(-16.747 -11.112)" fill="#577157"/>
        <path id="Trazado_162810" data-name="Trazado 162810" d="M82.8,18.666c.546,2.357,1.089,4.715,1.642,7.071q.774,3.3,1.567,6.588c.1.408.249.863-.433.74a30.532,30.532,0,0,0-5.6-.17c-.592,0-.866-.06-.685-.8,1.1-4.462,2.159-8.938,3.23-13.41Z" transform="translate(-13.732 -3.235)" fill="#749976"/>
        <path id="Trazado_162811" data-name="Trazado 162811" d="M60.155,95.148c-1.13-.665-2.091-1.247-3.069-1.8-.412-.232-.459-.489-.38-.959.825-4.916,1.605-9.839,2.406-14.759a6.127,6.127,0,0,1,.252-1.8c.136-.284.2-.584.6-.565.506.023.508.39.51.747,0,1.18.051,2.362-.01,3.539a10.3,10.3,0,0,0,.325,3.365c.817,2.837-.061,5.59-.213,8.375-.065,1.209-.257,2.412-.418,3.86" transform="translate(-9.822 -13.043)" fill="#506850"/>
        <path id="Trazado_162812" data-name="Trazado 162812" d="M99.326,39.072l12.643-7.759.165.12L104.5,43.94a26.924,26.924,0,0,0-5.171-4.868" transform="translate(-17.214 -5.427)" fill="#749976"/>
        <path id="Trazado_162813" data-name="Trazado 162813" d="M63.078,39.085a26.955,26.955,0,0,0-5.133,4.893c-2.523-4.123-5-8.177-7.483-12.231l.209-.271,12.407,7.609" transform="translate(-8.745 -5.455)" fill="#749976"/>
        <path id="Trazado_162814" data-name="Trazado 162814" d="M48.378,135.519c.346,1.591,1.629,2.725,2.07,4.291a4.833,4.833,0,0,0,.827,2.015l-6.3,6.065a26.636,26.636,0,0,0-.515-6.436c-.1-.43.194-.737.424-1.057q1.75-2.438,3.494-4.879" transform="translate(-7.702 -23.486)" fill="#779578"/>
        <path id="Trazado_162815" data-name="Trazado 162815" d="M77.851,101.822a43.28,43.28,0,0,0-1.577,6.51c-2.529.1-3.981-1.62-5.491-3.249a.768.768,0,0,1-.114-.834c.328-1.258.613-2.527.918-3.791.163-.67.5-.811,1.126-.452a15.912,15.912,0,0,0,5.137,1.816" transform="translate(-12.236 -17.298)" fill="#5e7b5e"/>
        <path id="Trazado_162816" data-name="Trazado 162816" d="M55.423,76.73c-.48,2.979-.974,6.021-1.46,9.064-.227,1.414-.47,2.826-.647,4.248-.2,1.576-.305,1.651-1.657.843-1.708-1.021-1.734-1.028-1.2-2.924,1.071-3.809,2.181-7.608,3.262-11.415.169-.594.373-1.063,1.133-.976s.514.657.57,1.16" transform="translate(-8.692 -13.095)" fill="#688a69"/>
        <path id="Trazado_162817" data-name="Trazado 162817" d="M123.3,62.98c-2.138.658-4.274,1.322-6.415,1.97-1.122.34-2.263.616-3.375.987-.708.237-.99-.023-1.28-.649a12,12,0,0,1-.77-4.658c-.04-.875.531-.448.876-.371,3.26.727,6.515,1.472,9.772,2.212.379.086.756.175,1.134.262.02.083.039.165.058.246" transform="translate(-19.316 -10.413)" fill="#749976"/>
        <path id="Trazado_162818" data-name="Trazado 162818" d="M39.255,62.763c3.723-.846,7.363-1.646,10.987-2.514.843-.2.814-.017.856.77a10.624,10.624,0,0,1-.761,4.27c-.2.554-.446.913-1.136.7-3.239-.985-6.485-1.948-9.725-2.925-.063-.019-.1-.131-.221-.3" transform="translate(-6.803 -10.428)" fill="#749976"/>
        <path id="Trazado_162819" data-name="Trazado 162819" d="M103.294,114.112c-.5-.24-1.458.542-1.807-.7-.445-1.591-.447-1.673,1.14-2.25,2.09-.761,4.173-1.537,6.264-2.3a3.019,3.019,0,0,1,3.136.92c.24.316.106.459-.126.616-2.594,1.759-5.062,3.808-8.607,3.714" transform="translate(-17.544 -18.843)" fill="#95c495"/>
        <path id="Trazado_162820" data-name="Trazado 162820" d="M64.8,92.781A24.883,24.883,0,0,0,68,96.438a.978.978,0,0,1,.247,1.076c-.323,1.167-.683,2.326-.948,3.507-.132.593-.346.562-.8.347-2.26-1.08-2.7-2-2.247-4.522a33.517,33.517,0,0,1,.544-4.065" transform="translate(-11.108 -16.079)" fill="#688a69"/>
        <path id="Trazado_162821" data-name="Trazado 162821" d="M52.123,147.3q0,2.066,0,4.133H47.745l4.378-4.133" transform="translate(-8.274 -25.528)" fill="#779578"/>
      </g>
    </g>
  </g>
</svg>
