<svg xmlns="http://www.w3.org/2000/svg" width="62.466" height="56.512" viewBox="0 0 62.466 56.512">
  <g id="Grupo_162324" data-name="Grupo 162324" transform="translate(0)">
    <g id="Grupo_81065" data-name="Grupo 81065" transform="translate(1.818 1.819)" style="mix-blend-mode: overlay;isolation: isolate">
      <path id="Trazado_115015" data-name="Trazado 115015" d="M185.738,213.809c-3.7,3.781-7.514,7.424-11.406,11,1.683-3.8,3.5-7.548,5.094-11.392,1.811-4.358,3.916-10.3,1.633-14.87-5.2-10.42-18.356-.2-23.2,5.049-.515.559-1.008,1.143-1.506,1.72,1.73-4.235,3.287-8.587,2.875-13.163-.565-6.292-6.333-7.8-11.3-4.877-5.332,3.139-9.615,8.57-13.191,13.5-3.037,4.189,3.912,8.178,6.926,4.048a54.48,54.48,0,0,1,5.414-6.333q-.431.79-.872,1.578a117.56,117.56,0,0,0-5.445,10.608c-3.031,6.994-7.514,16.678-3.7,24.035,1.922,3.708,6.429,4.084,9.822,2.576,4.561-2.028,7.721-6.5,10.766-10.294,3.179-3.956,5.979-8.157,8.922-12.285a59.785,59.785,0,0,1,3.866-5.061c.032-.037.066-.071.1-.107l-.035.111c-.782,2.43-1.786,4.762-2.8,7.1-1.893,4.35-4.335,8.928-5.028,13.66-.613,4.185,1.081,8.875,6.114,8.571,4.732-.285,8.524-4.843,11.687-7.886,3.83-3.686,7.592-7.445,11.355-11.2C195.758,215.979,189.62,209.839,185.738,213.809Z" transform="translate(-133.215 -185.074)" fill="#3c384f"/>
      <path id="Trazado_115016" data-name="Trazado 115016" d="M168.1,239.534a6.013,6.013,0,0,1-4.58-1.9,9.263,9.263,0,0,1-1.843-7.563c.573-3.911,2.279-7.657,3.928-11.279.4-.867.786-1.727,1.156-2.576.351-.806.719-1.653,1.085-2.529q-.336.468-.665.931l-.218.306c-.765,1.072-1.519,2.149-2.273,3.226-2.118,3.022-4.307,6.147-6.676,9.094-.346.43-.693.87-1.045,1.314-2.716,3.435-5.794,7.327-10.008,9.2-3.757,1.668-8.677,1.2-10.814-2.923-3.84-7.408.306-16.941,3.334-23.9l.344-.792c.89-2.056,1.889-4.064,2.948-6.062q-.368.48-.723.966a5.105,5.105,0,0,1-7.205,1,4.047,4.047,0,0,1-.962-5.953c3.817-5.265,8.086-10.572,13.423-13.713,2.962-1.743,6.2-2.026,8.675-.757a7.366,7.366,0,0,1,3.777,6.227,23.491,23.491,0,0,1-1.493,9.757c3.939-3.848,11.223-9.305,17.066-8.478,2.684.381,4.762,2.01,6.176,4.841,2.326,4.656.491,10.452-1.611,15.507-1,2.407-2.1,4.808-3.164,7.13l-.377.821c3.165-2.968,6-5.733,8.6-8.392h0a4.609,4.609,0,0,1,4.591-1.364,5.651,5.651,0,0,1,3.91,3.882,4.65,4.65,0,0,1-1.321,4.651l-.428.426c-3.563,3.556-7.247,7.233-10.937,10.783-.455.438-.922.907-1.4,1.39-2.865,2.872-6.431,6.448-10.769,6.71C168.43,239.529,168.265,239.534,168.1,239.534Zm2.2-30.957a.724.724,0,0,1,.371.1.746.746,0,0,1,.362.871l-.036.112c-.819,2.548-1.888,5-2.83,7.169-.374.858-.769,1.725-1.167,2.6-1.6,3.525-3.264,7.17-3.806,10.866a7.855,7.855,0,0,0,1.455,6.3,4.6,4.6,0,0,0,3.853,1.392c3.755-.227,6.954-3.433,9.775-6.262.489-.49.964-.966,1.426-1.411,3.681-3.541,7.36-7.213,10.918-10.764l.427-.426a3.119,3.119,0,0,0,.924-3.163,4.129,4.129,0,0,0-2.816-2.8,3.073,3.073,0,0,0-3.108.95h0c-3.357,3.434-7.1,7.042-11.437,11.029a.767.767,0,0,1-1.22-.875c.636-1.438,1.291-2.867,1.946-4.3,1.058-2.31,2.152-4.7,3.142-7.08,1.969-4.735,3.7-10.13,1.655-14.232-1.191-2.387-2.833-3.7-5.02-4.008-5.448-.772-13.109,5.1-16.927,9.235-.407.44-.8.9-1.192,1.355l-.3.346a.767.767,0,0,1-1.291-.791c1.647-4.034,3.221-8.346,2.821-12.806a5.82,5.82,0,0,0-2.95-5c-2-1.028-4.69-.76-7.2.714-5.094,3-9.239,8.161-12.959,13.292a2.543,2.543,0,0,0,.622,3.812,3.549,3.549,0,0,0,5.064-.666,55.546,55.546,0,0,1,5.49-6.423.767.767,0,0,1,1.217.909q-.434.794-.877,1.585a117.346,117.346,0,0,0-5.41,10.539l-.344.793c-2.905,6.678-6.883,15.825-3.379,22.584,1.7,3.283,5.73,3.6,8.83,2.227,3.868-1.719,6.694-5.293,9.427-8.75.354-.446.7-.89,1.053-1.323,2.336-2.908,4.511-6.012,6.615-9.014q1.134-1.62,2.28-3.236l.218-.305a57.067,57.067,0,0,1,3.7-4.82l.068-.074A.837.837,0,0,1,170.3,208.577Zm15.2,5h0Z" transform="translate(-132.979 -184.841)" fill="#3c384f"/>
      <path id="Trazado_115017" data-name="Trazado 115017" d="M141.83,223.156c-2.826,5.679-4.42,12.336-1.937,18.44.367.9,1.851.508,1.479-.408-2.33-5.731-.874-11.917,1.783-17.258C143.593,223.049,142.27,222.27,141.83,223.156Z" transform="translate(-134.303 -193.677)" fill="#3c384f"/>
      <path id="Trazado_115018" data-name="Trazado 115018" d="M145.113,243.119c-.013,0-.025-.005-.038-.008-.021-.041-.041-.087-.048-.1l0,0c0-.006,0,0,0-.011-.1-.343-.169-.69-.245-1.039q-.26-1.214-.521-2.428a.772.772,0,0,0-.943-.535.785.785,0,0,0-.536.943q.294,1.372.59,2.746c.163.762.425,1.761,1.338,1.914a.786.786,0,0,0,.943-.536A.776.776,0,0,0,145.113,243.119Z" transform="translate(-135.258 -197.452)" fill="#3c384f"/>
      <path id="Trazado_115019" data-name="Trazado 115019" d="M189.172,201.693c-.871-.465-1.646.859-.774,1.325a3.55,3.55,0,0,1,1.619,3.237,22.183,22.183,0,0,1-.346,4.4,29.184,29.184,0,0,1-2.662,8.239c-.438.881.884,1.659,1.325.774a30.7,30.7,0,0,0,2.977-9.7C191.673,207.2,192.105,203.259,189.172,201.693Z" transform="translate(-145.548 -188.745)" fill="#3c384f"/>
    </g>
    <g id="Grupo_81068" data-name="Grupo 81068" transform="translate(0 0)">
      <g id="Grupo_81067" data-name="Grupo 81067">
        <g id="Grupo_81066" data-name="Grupo 81066">
          <path id="Trazado_115020" data-name="Trazado 115020" d="M183.367,211.438c-3.7,3.781-7.514,7.424-11.407,11,1.683-3.8,3.5-7.548,5.1-11.391,1.811-4.358,3.915-10.3,1.633-14.87-5.2-10.42-18.356-.2-23.2,5.049-.516.558-1.008,1.142-1.506,1.72,1.729-4.235,3.286-8.587,2.875-13.163-.565-6.292-6.333-7.8-11.3-4.878-5.333,3.139-9.615,8.57-13.192,13.5-3.037,4.189,3.913,8.178,6.927,4.048a54.549,54.549,0,0,1,5.413-6.334q-.431.79-.871,1.578a117.662,117.662,0,0,0-5.445,10.608c-3.032,7-7.514,16.678-3.7,24.035,1.922,3.708,6.428,4.084,9.822,2.576,4.561-2.028,7.721-6.5,10.766-10.294,3.179-3.956,5.979-8.157,8.922-12.285a60.255,60.255,0,0,1,3.866-5.061c.032-.036.067-.07.1-.107l-.035.112c-.782,2.43-1.787,4.762-2.8,7.1-1.894,4.349-4.335,8.927-5.028,13.66-.614,4.185,1.081,8.875,6.114,8.571,4.731-.285,8.523-4.843,11.686-7.886,3.831-3.686,7.593-7.446,11.356-11.2C193.386,213.608,187.248,207.468,183.367,211.438Z" transform="translate(-130.844 -182.703)" fill="#ffd947"/>
          <path id="Trazado_115021" data-name="Trazado 115021" d="M165.729,237.162a6.01,6.01,0,0,1-4.579-1.9,9.264,9.264,0,0,1-1.843-7.563c.572-3.91,2.278-7.656,3.928-11.279.394-.867.785-1.726,1.156-2.576.35-.806.719-1.653,1.085-2.529-.224.311-.446.623-.665.931l-.218.305c-.765,1.072-1.519,2.15-2.274,3.226-2.117,3.023-4.307,6.148-6.675,9.094-.346.431-.693.871-1.045,1.315-2.716,3.434-5.794,7.326-10.008,9.2-3.758,1.668-8.677,1.2-10.814-2.924-3.84-7.408.306-16.941,3.333-23.9l.344-.791c.89-2.056,1.889-4.064,2.948-6.062q-.367.48-.723.966a5.1,5.1,0,0,1-7.2,1,4.047,4.047,0,0,1-.962-5.953c3.817-5.265,8.086-10.572,13.422-13.714,2.963-1.743,6.2-2.026,8.675-.756a7.366,7.366,0,0,1,3.777,6.227,23.477,23.477,0,0,1-1.493,9.757c3.939-3.847,11.223-9.3,17.066-8.478,2.684.381,4.763,2.01,6.177,4.841,2.325,4.656.49,10.451-1.611,15.507-1,2.406-2.1,4.808-3.164,7.129l-.377.821c3.165-2.968,6-5.733,8.6-8.391h0a4.608,4.608,0,0,1,4.591-1.363,5.649,5.649,0,0,1,3.909,3.882,4.647,4.647,0,0,1-1.32,4.65l-.428.427c-3.563,3.556-7.247,7.232-10.937,10.783-.455.438-.922.907-1.4,1.39-2.865,2.872-6.43,6.448-10.768,6.71C166.058,237.158,165.894,237.162,165.729,237.162Zm2.2-30.957a.723.723,0,0,1,.371.1.745.745,0,0,1,.363.871l-.036.112c-.819,2.547-1.888,5-2.83,7.169-.374.858-.769,1.724-1.167,2.6-1.605,3.525-3.265,7.17-3.807,10.865a7.854,7.854,0,0,0,1.456,6.3,4.606,4.606,0,0,0,3.853,1.392c3.755-.227,6.954-3.433,9.775-6.263.489-.491.965-.967,1.427-1.411,3.681-3.541,7.36-7.213,10.918-10.764l.427-.427a3.118,3.118,0,0,0,.923-3.163,4.126,4.126,0,0,0-2.816-2.8,3.072,3.072,0,0,0-3.107.95h0c-3.357,3.434-7.1,7.042-11.437,11.03a.767.767,0,0,1-1.22-.875c.636-1.438,1.291-2.867,1.945-4.3,1.058-2.309,2.152-4.7,3.142-7.079,1.968-4.735,3.7-10.13,1.655-14.233-1.192-2.386-2.834-3.7-5.02-4.008-5.448-.771-13.11,5.1-16.928,9.235-.406.441-.8.9-1.191,1.355l-.3.347a.767.767,0,0,1-1.291-.792c1.647-4.034,3.222-8.346,2.822-12.8a5.82,5.82,0,0,0-2.95-5c-2-1.027-4.69-.759-7.2.715-5.1,3-9.239,8.161-12.959,13.292a2.542,2.542,0,0,0,.622,3.811,3.548,3.548,0,0,0,5.064-.665,55.406,55.406,0,0,1,5.49-6.423.767.767,0,0,1,1.216.908q-.434.795-.876,1.585a117.354,117.354,0,0,0-5.41,10.539l-.344.793c-2.9,6.678-6.882,15.825-3.379,22.583,1.7,3.284,5.73,3.6,8.83,2.228,3.868-1.719,6.694-5.294,9.427-8.75q.53-.671,1.052-1.324c2.337-2.907,4.511-6.011,6.615-9.013.756-1.08,1.513-2.161,2.28-3.237l.218-.3a57.091,57.091,0,0,1,3.7-4.82l.069-.074A.836.836,0,0,1,167.93,206.205Zm15.2,5h0Z" transform="translate(-130.608 -182.47)"/>
        </g>
        <path id="Trazado_115022" data-name="Trazado 115022" d="M139.458,220.784c-2.826,5.679-4.42,12.336-1.938,18.44.367.9,1.852.508,1.48-.408-2.331-5.732-.875-11.917,1.783-17.258C141.221,220.677,139.9,219.9,139.458,220.784Z" transform="translate(-131.932 -191.306)"/>
        <path id="Trazado_115023" data-name="Trazado 115023" d="M142.742,240.748c-.013,0-.025-.005-.038-.008-.021-.042-.041-.087-.048-.1l0,0c0-.006,0,0,0-.011-.1-.342-.17-.69-.245-1.038q-.261-1.214-.521-2.428a.773.773,0,0,0-.944-.535.785.785,0,0,0-.535.943l.589,2.745c.164.762.426,1.762,1.338,1.914a.786.786,0,0,0,.943-.536A.776.776,0,0,0,142.742,240.748Z" transform="translate(-132.887 -195.081)"/>
        <path id="Trazado_115024" data-name="Trazado 115024" d="M186.8,199.322c-.871-.465-1.647.859-.774,1.325a3.551,3.551,0,0,1,1.619,3.236,22.19,22.19,0,0,1-.346,4.4,29.182,29.182,0,0,1-2.662,8.239c-.439.881.884,1.659,1.325.774a30.727,30.727,0,0,0,2.977-9.7C189.3,204.826,189.734,200.887,186.8,199.322Z" transform="translate(-143.177 -186.374)"/>
      </g>
    </g>
  </g>
</svg>
