<svg xmlns="http://www.w3.org/2000/svg" width="128.023" height="137.566" viewBox="0 0 128.023 137.566">
  <g id="Grupo_162323" data-name="Grupo 162323" transform="matrix(0.839, 0.545, -0.545, 0.839, 29.423, -0.981)">
    <g id="Grupo_81059" data-name="Grupo 81059" transform="translate(0 0)">
      <g id="Grupo_81053" data-name="Grupo 81053" transform="translate(1.801 0)" style="mix-blend-mode: overlay;isolation: isolate">
        <path id="Trazado_114995" data-name="Trazado 114995" d="M38.913,40.863l6.227-25.4L0,0Z" transform="translate(0.759 0.759)" fill="#3c384f"/>
        <path id="Trazado_114996" data-name="Trazado 114996" d="M.76,0A.759.759,0,0,0,.21,1.283L39.122,42.146a.759.759,0,0,0,1.287-.343l6.228-25.4a.76.76,0,0,0-.491-.9L1.006.041A.75.75,0,0,0,.76,0ZM39.265,40.093,3.45,2.484,45,16.718Z" transform="translate(0 0)" fill="#3c384f"/>
        <path id="Trazado_114997" data-name="Trazado 114997" d="M43.587,37.046,0,0,60.391,24.736Z" transform="translate(0.759 0.759)" fill="#3c384f"/>
        <path id="Trazado_114998" data-name="Trazado 114998" d="M.76,0A.759.759,0,0,0,.268,1.338L43.854,38.384a.76.76,0,0,0,.941.034l16.8-12.31a.76.76,0,0,0-.161-1.315L1.048.057A.754.754,0,0,0,.76,0ZM44.381,36.838,4.887,3.271,59.607,25.685Z" transform="translate(0 0)" fill="#3c384f"/>
        <path id="Trazado_114999" data-name="Trazado 114999" d="M38.913,40.863,0,0,25.613,50.7Z" transform="translate(0.759 0.759)" fill="#3c384f"/>
        <path id="Trazado_115000" data-name="Trazado 115000" d="M.759,0A.76.76,0,0,0,.082,1.1l25.612,50.7a.76.76,0,0,0,1.13.268l13.3-9.84a.759.759,0,0,0,.1-1.134L1.31.235A.758.758,0,0,0,.759,0ZM26.644,50.317,3.757,5.008,38.529,41.523Z" transform="translate(0 0)" fill="#3c384f"/>
        <path id="Trazado_115001" data-name="Trazado 115001" d="M6.846,14.2Q3.648,7.581.1,1.141C-.371.284.94-.483,1.412.375Q4.959,6.812,8.157,13.432C8.581,14.309,7.272,15.08,6.846,14.2Z" transform="translate(16.483 27.169)" fill="#3c384f"/>
        <path id="Trazado_115002" data-name="Trazado 115002" d="M2.264,2.582a.773.773,0,0,1-.349.454.765.765,0,0,1-.585.077.749.749,0,0,1-.454-.349L.1,1.145A.812.812,0,0,1,.026.56.773.773,0,0,1,.375.106.765.765,0,0,1,.96.029a.747.747,0,0,1,.454.349L2.188,2A.812.812,0,0,1,2.264,2.582Z" transform="translate(19.695 28.266)" fill="#3c384f"/>
        <path id="Trazado_115003" data-name="Trazado 115003" d="M15.132,7.937Q7.729,4.738.394,1.388C-.494.982.277-.327,1.16.076Q8.5,3.427,15.9,6.625C16.794,7.012,16.02,8.321,15.132,7.937Z" transform="translate(34.504 17.292)" fill="#3c384f"/>
      </g>
      <g id="Grupo_81058" data-name="Grupo 81058" transform="translate(0 1.801)">
        <g id="Grupo_81057" data-name="Grupo 81057" transform="translate(0 0)">
          <g id="Grupo_81054" data-name="Grupo 81054" transform="translate(0 0)">
            <path id="Trazado_115004" data-name="Trazado 115004" d="M38.913,40.863l6.227-25.4L0,0Z" transform="translate(0.759 0.76)" fill="#fff"/>
            <path id="Trazado_115005" data-name="Trazado 115005" d="M.759,0a.76.76,0,0,0-.55,1.284L39.122,42.146A.759.759,0,0,0,40.41,41.8l6.228-25.4a.76.76,0,0,0-.491-.9L1.006.041A.772.772,0,0,0,.759,0ZM39.265,40.094,3.451,2.484,45,16.718Z" transform="translate(0 0)"/>
          </g>
          <g id="Grupo_81055" data-name="Grupo 81055" transform="translate(0 0)">
            <path id="Trazado_115006" data-name="Trazado 115006" d="M43.587,37.046,0,0,60.391,24.736Z" transform="translate(0.759 0.76)" fill="#fff"/>
            <path id="Trazado_115007" data-name="Trazado 115007" d="M.76,0A.759.759,0,0,0,.268,1.338L43.855,38.385a.76.76,0,0,0,.94.033L61.6,26.109a.759.759,0,0,0-.161-1.315L1.047.057A.75.75,0,0,0,.76,0ZM44.381,36.838,4.887,3.271,59.607,25.685Z" transform="translate(0 0)"/>
          </g>
          <g id="Grupo_81056" data-name="Grupo 81056" transform="translate(0 0)">
            <path id="Trazado_115008" data-name="Trazado 115008" d="M38.913,40.863,0,0,25.613,50.7Z" transform="translate(0.759 0.76)" fill="#fff"/>
            <path id="Trazado_115009" data-name="Trazado 115009" d="M.759,0A.76.76,0,0,0,.082,1.1l25.612,50.7a.758.758,0,0,0,1.129.268l13.3-9.84a.76.76,0,0,0,.1-1.135L1.31.236A.759.759,0,0,0,.759,0ZM26.644,50.317,3.757,5.008,38.529,41.523Z" transform="translate(0 0)"/>
          </g>
          <path id="Trazado_115010" data-name="Trazado 115010" d="M6.846,14.2Q3.648,7.582.1,1.141C-.371.284.94-.483,1.413.375Q4.959,6.812,8.157,13.432C8.581,14.309,7.271,15.08,6.846,14.2Z" transform="translate(16.483 27.169)"/>
          <path id="Trazado_115011" data-name="Trazado 115011" d="M2.264,2.582a.775.775,0,0,1-.349.453.767.767,0,0,1-.586.077.747.747,0,0,1-.453-.349Q.489,1.954.1,1.145A.812.812,0,0,1,.026.56.775.775,0,0,1,.374.106.767.767,0,0,1,.96.029a.751.751,0,0,1,.453.349L2.188,2A.818.818,0,0,1,2.264,2.582Z" transform="translate(19.695 28.266)"/>
          <path id="Trazado_115012" data-name="Trazado 115012" d="M15.132,7.936Q7.73,4.738.394,1.387C-.495.982.277-.328,1.16.076Q8.5,3.426,15.9,6.625C16.793,7.012,16.021,8.321,15.132,7.936Z" transform="translate(34.504 17.293)"/>
        </g>
      </g>
    </g>
    <g id="Grupo_81063" data-name="Grupo 81063" transform="translate(44.279 42.803)">
      <g id="Grupo_81060" data-name="Grupo 81060" transform="translate(0 0)">
        <path id="Trazado_115013" data-name="Trazado 115013" d="M.759,0A.76.76,0,0,0,.188,1.26,76.81,76.81,0,0,0,6.649,7.807.759.759,0,0,0,7.665,6.678,75.229,75.229,0,0,1,1.332.26.759.759,0,0,0,.759,0ZM13.045,11.276a.759.759,0,0,0-.45,1.371c1.64,1.208,3.347,2.365,5.076,3.442a.76.76,0,0,0,.8-1.29c-1.7-1.056-3.371-2.191-4.979-3.375A.757.757,0,0,0,13.045,11.276Zm87.28,3.351a.753.753,0,0,0-.4.116q-.69.432-1.388.85a.76.76,0,0,0,.779,1.3q.712-.426,1.416-.867a.76.76,0,0,0-.4-1.4ZM26.068,19.048a.759.759,0,0,0-.325,1.445c2.306,1.091,4.687,2.081,7.079,2.941a.759.759,0,1,0,.514-1.429c-2.346-.845-4.682-1.815-6.943-2.884A.75.75,0,0,0,26.068,19.048Zm66.153,0a.761.761,0,0,0-.322.072,77.357,77.357,0,0,1-8.376,3.346A.76.76,0,0,0,84,23.91,78.874,78.874,0,0,0,92.544,20.5a.76.76,0,0,0-.324-1.448ZM38.87,23.792a.759.759,0,0,0-.2,1.492,76.6,76.6,0,0,0,9,1.893.76.76,0,0,0,.222-1.5,75.2,75.2,0,0,1-8.824-1.854A.733.733,0,0,0,38.87,23.792Zm39.061.335a.731.731,0,0,0-.185.023c-2.425.605-4.906,1.1-7.374,1.469a.759.759,0,0,0,.225,1.5c2.515-.377,5.044-.88,7.516-1.5a.759.759,0,0,0-.183-1.5ZM55.339,26.395a.759.759,0,0,0-.034,1.518c2.031.093,4.094.108,6.133.041a.759.759,0,1,0-.049-1.518c-2,.065-4.023.052-6.014-.04Z" transform="translate(0 0)"/>
      </g>
    </g>
  </g>
</svg>
