<svg xmlns="http://www.w3.org/2000/svg" width="102.083" height="201.18" viewBox="0 0 102.083 201.18">
  <g id="Grupo_170182" data-name="Grupo 170182" transform="translate(-1208.292 -140.495)">
    <g id="Grupo_162322" data-name="Grupo 162322" transform="translate(1259.333 140.495)">
      <path id="Trazado_117337" data-name="Trazado 117337" d="M1398.4,1028.192c-.928,0-1.826-1.122-2.963-2.544l-.334-.417a.323.323,0,0,1-.053-.1.29.29,0,0,1-.005-.271c3.259-6.679,6.9-13.4,10.048-19.178a.576.576,0,0,0-.505-.852.554.554,0,0,0-.087.007c-1.052.161-2.074.294-3.04.394h0c-.255,0-.681-.615-.886-.911-.1-.15-.2-.287-.286-.393-.745-.923-1.4-1.775-1.994-2.606-.056-.079-.043-.1-.029-.123a.513.513,0,0,0,.056-.113.678.678,0,0,0,.1-.129c2.986-5.294,6.285-10.464,9.4-15.261a.576.576,0,0,0-.483-.891.529.529,0,0,0-.086.007l-1.825.275c-.144.021-.312.059-.491.1a4.443,4.443,0,0,1-.866.138.643.643,0,0,1-.175-.018c-.311-.085-.768-.743-1.04-1.136-.126-.181-.241-.347-.344-.475l-.113-.142c-.552-.689-1.123-1.4-1.617-2.135-.066-.1-.04-.129-.012-.166,4.478-7.649,8.394-15.712,12.182-23.509q1.481-3.047,2.966-6.079a.269.269,0,0,1,.188-.081c8.182-.044,16.494-.314,24.533-.575l.111,0a.14.14,0,0,1,.147.073.821.821,0,0,0,.093.121,41.2,41.2,0,0,0,2.837,3.6.265.265,0,0,1-.009.4c-3.776,4.5-7.332,9.314-10.77,13.971q-1.261,1.709-2.524,3.411a.576.576,0,0,0,.462.919.566.566,0,0,0,.059,0l5.073-.522a.588.588,0,0,0,.127-.028.358.358,0,0,0,.064.011c.036.042.126.117.148.142,1.088,1.282,2.058,2.516,2.966,3.772a.325.325,0,0,1-.1.272c-4.579,5.336-9.357,10.66-13.976,15.807l-.105.117a.576.576,0,0,0,.429.961c.018,0,5.236-.5,5.236-.5a.46.46,0,0,0,.087-.015.432.432,0,0,0,.074.017c.028.021.068.047.072.052l.019.018a47.543,47.543,0,0,1,3.009,3.829.275.275,0,0,1-.044.221c-5.5,4.947-11.2,9.874-16.7,14.638q-3.225,2.791-6.445,5.587l-10.866,9.453a2.828,2.828,0,0,1-1.716.868Z" transform="translate(-1394.439 -950.429)" fill="#fff"/>
      <path id="Trazado_117338" data-name="Trazado 117338" d="M1440.781,952.089a.835.835,0,0,0,0-1.149,41.335,41.335,0,0,1-2.827-3.584c-.012-.017-.026-.029-.038-.044a.708.708,0,0,0-.663-.358c-8.206.267-16.417.534-24.627.579a.8.8,0,0,0-.7.4c-4.861,9.877-9.526,19.977-15.084,29.486a.681.681,0,0,0-.013.845c.541.8,1.154,1.56,1.759,2.315.4.5,1.006,1.621,1.679,1.806a5.018,5.018,0,0,0,1.772-.206q.912-.139,1.824-.275c-3.266,5.023-6.486,10.085-9.423,15.293a.6.6,0,0,0-.141.215.653.653,0,0,0,.047.768c.645.9,1.319,1.771,2.014,2.631.375.464.95,1.591,1.679,1.515,1.024-.106,2.048-.241,3.068-.4-3.462,6.344-6.894,12.712-10.06,19.2a.827.827,0,0,0-.024.706.883.883,0,0,0,.15.279c2.1,2.6,3.282,4.4,5.841,2.165q5.43-4.73,10.865-9.453c7.73-6.726,15.535-13.379,23.155-20.231a.8.8,0,0,0,.127-.985,46.942,46.942,0,0,0-3.016-3.835c-.017-.024-.036-.044-.054-.065l-.01-.012s-.005,0-.009-.006a1.05,1.05,0,0,0-.316-.21h-.006a.645.645,0,0,0-.373-.009q-2.589.248-5.18.5c4.735-5.277,9.472-10.553,14.089-15.934a.817.817,0,0,0,.127-.984c-.948-1.312-1.947-2.574-2.994-3.807a.642.642,0,0,0-.327-.293.624.624,0,0,0-.068-.032l-.009,0a.636.636,0,0,0-.433,0q-2.536.261-5.073.522C1431.85,963.608,1436.109,957.656,1440.781,952.089Zm-18.253,16.3c.1.18.217.352.322.516.2.311.4.626.61.931-.717.067-1.434.135-2.15.2Q1421.921,969.208,1422.529,968.385Zm1.633,1.382c-.276-.445-.617-.858-.927-1.28a4.059,4.059,0,0,0-.411-.5q.487-.661.972-1.325c.234.435.543.854.768,1.257a11.907,11.907,0,0,0,.818,1.687l-.041.055C1424.947,969.7,1424.554,969.73,1424.161,969.767Zm9.3-16.033c.2.547.491,1.088.678,1.571.214.557.31,1.333.583,1.926-.3.4-.6.8-.906,1.193-.165-.349-.378-.683-.494-.911a14.57,14.57,0,0,0-.994-2.313C1432.706,954.712,1433.081,954.221,1433.462,953.735Zm-1.6,2.08a14.565,14.565,0,0,0,.709,1.7c.2.468.44.912.634,1.381.034.083.059.161.082.235q-.5.654-.994,1.309c-.118-.325-.272-.641-.4-.931a15.588,15.588,0,0,0-1.1-2.293C1431.142,956.746,1431.5,956.281,1431.858,955.815Zm-1.516,1.994c.137.416.354.822.519,1.2.244.554.518,1.084.724,1.655a4.56,4.56,0,0,1,.14.518c-.343.453-.689.9-1.031,1.357a10.625,10.625,0,0,0-.555-1.167c-.294-.6-.594-1.357-.969-2Q1429.753,958.587,1430.342,957.809Zm-1.656,2.21c.163.4.376.792.544,1.141a14.184,14.184,0,0,1,.7,1.644c.074.218.106.381.167.525q-.592.786-1.182,1.574c-.273-.62-.549-1.239-.857-1.841a14.1,14.1,0,0,0-.688-1.258Q1428.025,960.91,1428.686,960.019Zm-1.735,2.347c.251.549.545,1.09.783,1.6a6.679,6.679,0,0,0,.695,1.577q-.571.759-1.14,1.518a9.124,9.124,0,0,0-.908-1.883,8.024,8.024,0,0,0-.7-1.088Q1426.314,963.23,1426.951,962.365Zm-1.676,2.28c.178.3.375.591.53.872.39.712.631,1.485.988,2.207l-.953,1.268a9.89,9.89,0,0,0-.626-1.147,7.406,7.406,0,0,0-1.073-1.656Zm10.092-8.261c-.173-.573-.464-1.152-.636-1.584a7.989,7.989,0,0,0-.787-1.674q.642-.816,1.289-1.625c.144.442.359.874.533,1.27a14.809,14.809,0,0,1,.584,1.55c.065.21.094.4.145.589l-.914,1.192C1435.509,956.2,1435.438,956.291,1435.367,956.385Zm1.379-6.733a11.613,11.613,0,0,0,.484,1.71,7.006,7.006,0,0,0,.678,1.728c-.272.348-.548.692-.817,1.042-.126-.391-.317-.776-.444-1.083a11.866,11.866,0,0,0-.989-2.078C1436.018,950.528,1436.384,950.092,1436.746,949.652Zm2.447,1.86a.329.329,0,0,0-.11.091c-.274.336-.538.681-.807,1.021-.125-.485-.378-.976-.53-1.4-.23-.644-.414-1.313-.695-1.938.055-.066.109-.133.164-.2.444.6.9,1.191,1.366,1.773A4.546,4.546,0,0,0,1439.193,951.513Zm-27.155-.148q.64-1.29,1.275-2.581c-.082.168,8.13.234,9.112.212q6.535-.15,13.068-.367c-5.827,7.07-11.136,14.628-16.61,21.963a.817.817,0,0,0,.7,1.223c3.743-.3,7.48-.7,11.216-1.083-5.971,6.909-12.1,13.69-18.215,20.468-.42.464-.188,1.485.574,1.387,3.973-.506,7.964-.891,11.952-1.27-10.157,9.092-20.5,17.986-30.8,26.923,2.885-5.706,5.924-11.339,8.991-16.952l0,0q1.316-2.409,2.63-4.816a.821.821,0,0,0-.917-1.194c-2.81.434-5.612.914-8.411,1.4,3.911-6.791,8.266-13.352,12.541-19.912a.817.817,0,0,0-.7-1.223c-3.138.328-6.265.763-9.382,1.252C1403.778,968.545,1407.829,959.868,1412.039,951.365Zm20.084,21.587c.308.78.586,1.587.91,2.359-.289.332-.58.662-.87.993a9.249,9.249,0,0,0-1.373-3.086q.51-.587,1.019-1.174A7,7,0,0,0,1432.123,972.952Zm-2.312,4.235a13.859,13.859,0,0,0-.8-1.925c.5-.566.985-1.136,1.479-1.7.235,1.152.929,2.214,1.095,3.4-.426.486-.85.973-1.278,1.457C1430.174,977.98,1429.958,977.548,1429.811,977.188Zm-2.32,1.7a7.073,7.073,0,0,0,.618,2.01c-.3.343-.611.684-.916,1.027a10.956,10.956,0,0,0-.466-1.3c-.245-.586-.5-1.257-.819-1.848q.637-.719,1.274-1.438A10.278,10.278,0,0,0,1427.491,978.888Zm-3.843,7.012c-.224-.58-.46-1.154-.664-1.743-.165-.479-.278-1.046-.5-1.533.39-.435.781-.869,1.17-1.3a11.666,11.666,0,0,0,.481,1.459,5.6,5.6,0,0,0,.775,1.7Q1424.281,985.189,1423.648,985.9Zm-7.066,3.295c.1.261.231.517.31.729a4.089,4.089,0,0,0,.228.571c-.638.07-1.275.148-1.912.222Zm.4-.438q.8-.882,1.591-1.764c.152.591.477,1.215.639,1.724.143.451.234,1.016.407,1.515q-.952.1-1.9.2A4.574,4.574,0,0,0,1416.977,988.756Zm2.815-.515a5.188,5.188,0,0,0-.8-1.719l1.308-1.458a10.078,10.078,0,0,0,.4,1.044c.289.709.53,1.457.826,2.166-.421.469-.837.941-1.258,1.411C1420.145,989.17,1419.93,988.649,1419.793,988.242Zm1.829-1.841a19.278,19.278,0,0,0-.774-1.948l1.108-1.236c.085.394.227.785.337,1.13a15.585,15.585,0,0,0,.833,2.138c-.347.388-.691.778-1.039,1.165A9.944,9.944,0,0,0,1421.622,986.4Zm3.172-3.573c-.269-.619-.489-1.28-.8-1.884.475-.533.946-1.069,1.42-1.6.1.312.228.618.345.914a13.193,13.193,0,0,1,.807,2.375q-.651.733-1.3,1.463A5.528,5.528,0,0,0,1424.793,982.828Zm1.367,13.9c-.4-1.033-.807-2.061-1.226-3.084.5-.444,1-.884,1.494-1.329a9.649,9.649,0,0,0,.447,1.683,16.632,16.632,0,0,0,.5,1.667Zm-3.666,3.208a18.534,18.534,0,0,1-.782-1.774c-.136-.4-.26-.849-.439-1.262.464-.411.924-.823,1.387-1.234.181.567.439,1.141.619,1.651a8,8,0,0,0,.572,1.434Q1423.174,999.348,1422.495,999.939Zm-1.793,1.563a16.273,16.273,0,0,1-.879-1.825c-.139-.353-.253-.751-.413-1.117.461-.406.916-.818,1.377-1.225.1.438.248.873.376,1.264a7.163,7.163,0,0,0,.791,1.81Q1421.329,1000.957,1420.7,1001.5Zm-1.857,1.619c-.228-.611-.452-1.224-.7-1.826a7.282,7.282,0,0,0-.544-1.149c.457-.4.915-.8,1.371-1.2.11.469.282.938.417,1.356a5.279,5.279,0,0,0,.811,1.637Zm-3.554,3.1c-.182-.422-.394-.834-.576-1.251a10.42,10.42,0,0,0-.786-1.615l1.23-1.076c.112.363.274.718.389,1.019a8.7,8.7,0,0,0,.869,1.942ZM1397.164,1022a13.871,13.871,0,0,0-.629-1.4c-.249-.487-.432-1.048-.7-1.54l1.408-1.221a10.945,10.945,0,0,0,.523,1.149c.257.533.462,1.239.792,1.79Zm-2.041.1a7.578,7.578,0,0,0-.876-1.656l1.143-.992a7.1,7.1,0,0,0,.368.945c.3.681.644,1.341.906,2.036l-.987.859C1395.526,1022.865,1395.276,1022.437,1395.124,1022.1Zm3.446-2.917a19.2,19.2,0,0,0-.87-1.735q.714-.619,1.429-1.239a11.579,11.579,0,0,0,.577,1.33,16.92,16.92,0,0,0,.711,1.628l-1.279,1.113C1398.98,1019.9,1398.745,1019.523,1398.57,1019.185Zm1.833-1.709a11.761,11.761,0,0,0-.8-1.673q.656-.569,1.311-1.137a12.763,12.763,0,0,0,.5,1.283,15.862,15.862,0,0,0,.723,1.725l-1.144,1C1400.818,1018.259,1400.59,1017.862,1400.4,1017.476Zm1.72-1.244c-.284-.61-.532-1.272-.863-1.871l1.391-1.206a11.041,11.041,0,0,0,.521,1.149c.234.5.461,1,.645,1.525.041.113.065.211.09.3l-1.3,1.126C1402.471,1016.908,1402.281,1016.568,1402.123,1016.232Zm1.947-1.441a16.487,16.487,0,0,0-.943-2.048l1.371-1.188a110.419,110.419,0,0,0,1.393,2.852l-1.421,1.236C1404.354,1015.337,1404.178,1015.033,1404.07,1014.791Zm1.581-1.995c-.263-.485-.491-1.06-.79-1.556l1.429-1.239c.118.3.266.582.391.85a12.717,12.717,0,0,0,.961,2.032l-1.356,1.18A5.962,5.962,0,0,0,1405.651,1012.8Zm1.738-1.65c-.247-.471-.438-1.011-.667-1.518l1.221-1.059a8.365,8.365,0,0,0,.4,1.009,15.486,15.486,0,0,0,.866,1.942l-1.132.985A8.585,8.585,0,0,0,1407.388,1011.147Zm1.689-1.315c-.25-.521-.448-1.1-.715-1.626l1.246-1.08c.09.284.219.563.335.835.3.7.558,1.453.908,2.13l-1.154,1C1409.529,1010.656,1409.268,1010.23,1409.077,1009.831Zm1.624-1.634c-.2-.455-.391-.99-.654-1.453.455-.4.908-.794,1.364-1.19.146.5.4.987.581,1.44.21.527.375,1.074.566,1.609l-1.238,1.079A11.394,11.394,0,0,0,1410.7,1008.2Zm1.934-1.381a8.7,8.7,0,0,0-.739-1.686q.859-.748,1.714-1.5a11.238,11.238,0,0,0,.454,1.3,18.511,18.511,0,0,0,.71,1.736q-.835.727-1.668,1.455C1412.968,1007.683,1412.8,1007.247,1412.635,1006.817Zm3.479-3.675c-.152-.381-.274-.867-.458-1.3.488-.428.979-.854,1.466-1.282.129.419.331.834.477,1.208.239.611.458,1.229.676,1.848l-1.38,1.2C1416.684,1004.249,1416.327,1003.675,1416.114,1003.142Zm8.133-5.044c-.232-.468-.394-.968-.581-1.455a8.434,8.434,0,0,0-.585-1.348q.68-.6,1.357-1.206a26.838,26.838,0,0,0,1.2,3.1q-.642.562-1.283,1.126C1424.323,998.24,1424.284,998.171,1424.247,998.1Zm-21.443.721a9.6,9.6,0,0,0-.483-1.006c-.067-.128-.133-.278-.2-.428q.807-.133,1.615-.263Zm-3.5.565a11.662,11.662,0,0,0-.89-1.376c.4-.069.8-.14,1.2-.208a7.139,7.139,0,0,0,.642,1.348,9.35,9.35,0,0,0,.6,1.188c-.311.048-.623.095-.936.136A6.422,6.422,0,0,0,1399.3,999.383Zm6.116-20.714c-.084-.352-.146-.744-.241-1.118.55-.07,1.1-.135,1.653-.2l-1.244,1.9C1405.529,979.046,1405.459,978.842,1405.417,978.669Zm-6.472-.221c.556-.088,1.111-.176,1.669-.26a11.128,11.128,0,0,0,.432,1.471c.1.3.155.666.246,1l-.487.074C1400.161,980,1399.532,979.237,1398.945,978.448Zm2.995,2.117a8.228,8.228,0,0,0-.283-.816,11.18,11.18,0,0,0-.721-1.609q.785-.118,1.574-.229c.075.5.175.991.279,1.483a6.815,6.815,0,0,0,.228,1.008Zm1.81-.275c-.074-.368-.273-.765-.349-1.065a6.875,6.875,0,0,0-.45-1.379c.532-.075,1.065-.143,1.6-.212a8.493,8.493,0,0,0,.148,1,3.837,3.837,0,0,0,.4,1.378l-.055.084C1404.609,980.158,1404.18,980.226,1403.751,980.29Zm-5.9,19.789c-.472-.567-.925-1.149-1.37-1.736l1.152-.2c.254.49.635.946.916,1.393.164.261.317.682.514,1.045-.175.021-.349.047-.524.067C1397.811,1000.73,1398.348,1000.678,1397.849,1000.079Zm3.673.144a6.391,6.391,0,0,0-.679-1.422,6.9,6.9,0,0,0-.615-1.109c.4-.068.8-.13,1.206-.2.066.209.164.415.229.594a5.959,5.959,0,0,0,.641,1.353.362.362,0,0,0,.1.1q-.159.294-.32.587C1401.9,1000.163,1401.712,1000.191,1401.523,1000.223Zm-8.7,21.458.976-.846c.188.464.511.941.679,1.316.218.487.438.97.63,1.468.013.033.026.063.038.095C1394.224,1024.212,1393.567,1022.854,1392.821,1021.682Zm36.508-27.74q-.409.364-.821.729c-.171.151-.343.3-.514.451-.116-.331-.271-.657-.373-.958a21.736,21.736,0,0,0-.754-2.235c.188-.169.378-.335.567-.5.44.506.866,1.023,1.262,1.565A10.915,10.915,0,0,1,1429.329,993.942Zm-.66-13.672c-.1-.418-.284-.835-.4-1.229a19.007,19.007,0,0,0-.693-2.137c.351-.4.7-.795,1.055-1.194a8.389,8.389,0,0,0,.472,1.354c.18.475.355.95.5,1.437.06.2.091.387.133.572l-.133.151C1429.292,979.574,1428.979,979.92,1428.668,980.27Zm5.3-6.021c-.165.191-.333.379-.5.568a10.057,10.057,0,0,0-.5-1.294c-.211-.5-.4-1-.606-1.494a4.365,4.365,0,0,1-.144-.456c.176-.2.354-.406.53-.609.559.663,1.1,1.338,1.618,2.037C1435.038,973.884,1434.738,973.355,1433.964,974.249Zm-31.738.157a204.6,204.6,0,0,1,10.354-21.027c.024-.043.1-.013.081.035a180.911,180.911,0,0,1-10.25,21.07C1402.357,974.582,1402.182,974.514,1402.226,974.406Zm10.585-21.749a1.381,1.381,0,0,1,.2-.794.864.864,0,0,1,.424-.519.09.09,0,0,1,.134.077c.008.393-.236,1.2-.682,1.28A.064.064,0,0,1,1412.811,952.657Zm3.359,32.869a62.183,62.183,0,0,1,9-10.735c.064-.065.156.03.1.1-3.03,3.548-5.986,7.15-9,10.714C1416.223,985.658,1416.132,985.586,1416.17,985.526Zm9.43-11.215c.126-.43.44-.952.914-1.03a.09.09,0,0,1,.109.109c-.073.446-.554.773-.911,1.006A.077.077,0,0,1,1425.6,974.311Zm-23.454,35.266a96.783,96.783,0,0,1,11.681-10.307c.114-.084.238.094.146.189-3.58,3.721-7.787,6.887-11.71,10.235C1402.183,1009.763,1402.071,1009.655,1402.146,1009.577Zm12.5-10.729a.086.086,0,0,1-.083-.083c-.04-.437.6-.831.972-.9.063-.013.146.044.117.118C1415.522,998.322,1415.066,998.894,1414.65,998.848Z" transform="translate(-1390.953 -946.953)"/>
    </g>
    <g id="Grupo_170158" data-name="Grupo 170158" transform="matrix(0.809, 0.588, -0.588, 0.809, 3147.237, 1356.539)">
      <path id="Trazado_120381" data-name="Trazado 120381" d="M-2125.333,269.706c-1.236-7.9-2.376-16.085-3.481-24-1.229-8.824-2.5-17.949-3.909-26.712a50.021,50.021,0,0,1-.5-6.1c-.258-6.307-.479-11.754-10.405-12.321a64.875,64.875,0,0,0-13.726,1.179c-2.527.4-5.142.812-7.689,1.031-.866.075-1.8.133-2.779.193a65.858,65.858,0,0,0-7.312.73c-3.9.685-6.73,1.947-8.664,3.858-4,3.954-2.567,10.994-1.619,15.652.056.281.112.554.166.82a104.184,104.184,0,0,1,1.417,11.613c.269,3.208.548,6.523,1.076,9.793l.293,1.8c.979,6.049,1.907,11.762,2.746,17.736.722,5.15,1.818,10.755,2.878,16.057,1.088,5.437,5.14,8.527,10.843,8.263,1.377-.065,2.8-.115,4.177-.165a117.2,117.2,0,0,0,15.867-1.3c.529-.093,1.056-.195,1.562-.3a44.444,44.444,0,0,1,4.749-.6c1.6-.147,3.248-.3,4.849-.579a18.617,18.617,0,0,0,4.013-1.12,10.341,10.341,0,0,0,2.907-1.794C-2124.075,280.064-2124.571,274.581-2125.333,269.706Z" transform="translate(0 0)" fill="#fff"/>
      <g id="Grupo_88486" data-name="Grupo 88486" transform="translate(-2186.468 200.52)">
        <g id="Grupo_88485" data-name="Grupo 88485" transform="translate(0 0)">
          <path id="Trazado_120382" data-name="Trazado 120382" d="M-2143.632,200.574c9.927.567,10.147,6.014,10.405,12.322a50.016,50.016,0,0,0,.5,6.1c1.407,8.763,2.68,17.887,3.909,26.712,1.105,7.915,2.245,16.1,3.481,24,.763,4.875,1.259,10.358-2.546,13.741a10.341,10.341,0,0,1-2.907,1.794,18.619,18.619,0,0,1-4.013,1.12c-1.6.282-3.252.432-4.849.579a44.389,44.389,0,0,0-4.749.6c-.506.1-1.033.205-1.562.3a117.2,117.2,0,0,1-15.867,1.3c-1.377.05-2.8.1-4.177.165-5.7.264-9.755-2.826-10.843-8.263-1.06-5.3-2.155-10.907-2.878-16.057-.839-5.974-1.767-11.687-2.746-17.736l-.293-1.8c-.528-3.27-.807-6.585-1.076-9.793a104.184,104.184,0,0,0-1.417-11.613c-.053-.266-.11-.539-.166-.82-.949-4.657-2.381-11.7,1.619-15.652,1.934-1.911,4.769-3.173,8.664-3.858a65.926,65.926,0,0,1,7.313-.73c.983-.061,1.913-.118,2.779-.193,2.546-.219,5.162-.632,7.689-1.031A64.893,64.893,0,0,1-2143.632,200.574Zm8.708,12.391c-.26-6.371-.415-10.218-8.806-10.695a63.583,63.583,0,0,0-13.363,1.16c-2.556.4-5.2.822-7.807,1.045-.888.076-1.828.134-2.822.2a64.4,64.4,0,0,0-7.122.707c-3.544.623-6.084,1.734-7.765,3.394-3.346,3.307-2.076,9.548-1.147,14.1.056.281.113.558.167.824a105.529,105.529,0,0,1,1.444,11.8c.265,3.176.541,6.46,1.059,9.665l.293,1.8c.981,6.057,1.909,11.778,2.75,17.769.717,5.108,1.807,10.684,2.863,15.961.935,4.677,4.166,7.129,9.1,6.9,1.385-.065,2.812-.115,4.194-.166a115.631,115.631,0,0,0,15.635-1.273c.512-.09,1.021-.186,1.512-.289.2-.042.408-.081.617-.117,1.347-.237,2.791-.37,4.321-.51,1.564-.144,3.178-.291,4.711-.561a11.972,11.972,0,0,0,6.085-2.51c3.166-2.813,2.689-7.778,2-12.209-1.237-7.915-2.38-16.106-3.484-24.028-1.229-8.816-2.5-17.932-3.9-26.676A52.239,52.239,0,0,1-2134.924,212.965Z" transform="translate(2186.468 -200.52)"/>
          <path id="Trazado_120383" data-name="Trazado 120383" d="M-2027.058,223.852a.851.851,0,0,1,.181,1.188.844.844,0,0,1-.536.334.836.836,0,0,1-.65-.153l-.131-.1a.851.851,0,0,1-.181-1.186.849.849,0,0,1,1.188-.181Z" transform="translate(2072.887 -217.113)"/>
          <path id="Trazado_120384" data-name="Trazado 120384" d="M-2026.723,235.785a1.1,1.1,0,0,1,.58.857.849.849,0,0,1-.694.928l-.059.008a.85.85,0,0,1-.849-.467.846.846,0,0,1-.128-.986A.848.848,0,0,1-2026.723,235.785Z" transform="translate(2072.482 -225.808)"/>
          <path id="Trazado_120385" data-name="Trazado 120385" d="M-2025.492,246.832a.85.85,0,0,1,.738.948l-.031.242a.85.85,0,0,1-.695.732.847.847,0,0,1-.253.006.847.847,0,0,1-.738-.946l.03-.245A.85.85,0,0,1-2025.492,246.832Z" transform="translate(2071.403 -233.822)"/>
          <path id="Trazado_120386" data-name="Trazado 120386" d="M-2037.117,225.562a.851.851,0,0,1-.648,1.011l-.046.008a.94.94,0,0,1-.766-.187.946.946,0,0,1-.349-.745.851.851,0,0,1,.846-.852.853.853,0,0,1,.568.217A.849.849,0,0,1-2037.117,225.562Z" transform="translate(2080.356 -217.981)"/>
          <path id="Trazado_120387" data-name="Trazado 120387" d="M-2037.288,236.071a.85.85,0,0,1,.942.746l.025.218a.849.849,0,0,1-.7.933l-.05.009a.852.852,0,0,1-.942-.746l-.025-.218A.849.849,0,0,1-2037.288,236.071Z" transform="translate(2079.72 -226.084)"/>
          <path id="Trazado_120388" data-name="Trazado 120388" d="M-2034.67,248.22a1.173,1.173,0,0,1,.108,1.091.846.846,0,0,1-.644.527.849.849,0,0,1-.454-.043.849.849,0,0,1-.537-.886.851.851,0,0,1,.347-.919A.852.852,0,0,1-2034.67,248.22Z" transform="translate(2078.415 -234.556)"/>
          <path id="Trazado_120389" data-name="Trazado 120389" d="M-2094.011,296.822a.2.2,0,0,1,.013.049c0,.008,0,.017,0,.026,0,.032,0,.062.005.094s0,.049,0,.075-.007.058-.013.086-.008.051-.015.076-.019.053-.029.081-.017.048-.028.072-.028.048-.043.072a.467.467,0,0,1-.044.068.6.6,0,0,1-.05.056.623.623,0,0,1-.064.065.466.466,0,0,1-.051.039.8.8,0,0,1-.088.061.131.131,0,0,1-.018.012c-.018.01-.036.015-.054.024s-.04.018-.062.026a.8.8,0,0,1-.14.038h-.01c-1.119.182-2.26.415-3.362.643-.72.146-1.465.3-2.2.439h-.01a.794.794,0,0,1-.162.011c-.019,0-.037,0-.055-.005a.78.78,0,0,1-.1-.012c-.023,0-.041-.012-.064-.019s-.057-.018-.085-.028-.042-.021-.061-.03a.812.812,0,0,1-.077-.043l-.057-.04c-.022-.018-.045-.037-.066-.057a.443.443,0,0,1-.048-.05.712.712,0,0,1-.055-.068c-.014-.019-.029-.04-.041-.06a.615.615,0,0,1-.039-.077.442.442,0,0,1-.03-.07c0-.01-.01-.02-.014-.032a43.135,43.135,0,0,0-2.819-6.6,27.133,27.133,0,0,0-3.664-5.723,6.088,6.088,0,0,0-4.965-2.177,6.535,6.535,0,0,0-4.868,3.05,28.8,28.8,0,0,0-4.272,13.583c0,.006,0,.011,0,.018a.729.729,0,0,1-.014.1c0,.02-.006.042-.011.062s-.021.064-.032.1-.015.039-.022.058-.036.062-.055.092-.018.031-.029.044a.867.867,0,0,1-.093.107.049.049,0,0,0-.01.013.892.892,0,0,1-.276.171l-.052.013a.892.892,0,0,1-.1.029h0l-.008,0a.275.275,0,0,1-.04,0c-1.475.167-2.981.356-4.436.539q-1.471.184-2.957.367h-.018a.821.821,0,0,1-.146,0,.017.017,0,0,0-.01,0,.805.805,0,0,1-.143-.027.242.242,0,0,1-.044-.014l-.043-.012c-.014-.006-.026-.015-.038-.019-.028-.012-.057-.027-.083-.042a.712.712,0,0,1-.066-.042.727.727,0,0,1-.065-.051.455.455,0,0,1-.06-.058.38.38,0,0,1-.054-.061.793.793,0,0,1-.046-.065c-.015-.023-.03-.047-.043-.072l-.032-.074c-.009-.024-.018-.051-.027-.077s-.014-.058-.02-.087-.007-.029-.01-.044v-.032a.657.657,0,0,1,0-.09.78.78,0,0,1,0-.08c0-.027.01-.054.016-.081a.522.522,0,0,1,.024-.086l.007-.034c.227-.6.439-1.217.644-1.818a27.247,27.247,0,0,1,1.51-3.792c1.082-2.083,2.332-4.572,3.4-7.232a63.441,63.441,0,0,0,2.777-8.651c-.051.015-.1.029-.158.047a.933.933,0,0,1-.107.025.849.849,0,0,1-.956-.582.846.846,0,0,1,.557-1.064c.355-.112.721-.213,1.09-.31.344-1.636.621-3.286.812-4.919q.159-1.324.326-2.668c.27-2.177.545-4.413.756-6.636-.262.1-.517.212-.763.328a.825.825,0,0,1-.217.068.848.848,0,0,1-.913-.473.847.847,0,0,1,.4-1.13,15.421,15.421,0,0,1,1.646-.664c.129-1.754.191-3.336.191-4.819,0-2-.086-4.083-.165-6.1-.034-.893-.069-1.792-.1-2.694-.233.035-.469.067-.712.095a.85.85,0,0,1-.943-.744.848.848,0,0,1,.744-.942c.3-.037.584-.077.867-.12q-.02-.87-.023-1.738l-.088.011a.847.847,0,0,1-.94-.747.85.85,0,0,1,.746-.942c.1-.011.2-.028.3-.043a48.462,48.462,0,0,1,.347-5.159.3.3,0,0,1,.011-.049c.005-.031.013-.06.021-.09s.019-.051.028-.076a.724.724,0,0,1,.034-.075c.013-.024.028-.048.043-.072s.029-.042.047-.064.036-.041.056-.062l.059-.056c.021-.017.044-.033.067-.048s.045-.029.066-.042a.7.7,0,0,1,.088-.041.331.331,0,0,1,.044-.021.1.1,0,0,0,.023-.006.684.684,0,0,1,.091-.021.479.479,0,0,1,.075-.013c.027,0,.053,0,.081,0s.061,0,.089,0l.026,0c.017,0,.036.009.054.012a.566.566,0,0,1,.083.018l.083.031c.021.011.044.02.066.031a.862.862,0,0,1,.08.046c.02.014.039.028.059.044s.043.038.064.058a.7.7,0,0,1,.053.058.668.668,0,0,1,.051.069c.014.021.029.044.042.066s.027.056.041.086c0,.014.016.029.021.046.523,1.5.986,3.023,1.409,4.555a13.431,13.431,0,0,1,1.441-.249.849.849,0,0,1,.938.751.848.848,0,0,1-.752.936,10.917,10.917,0,0,0-1.192.206q.174.674.339,1.354c.359-.167.709-.345,1.051-.543a.851.851,0,0,1,1.161.311.848.848,0,0,1-.311,1.161,15.33,15.33,0,0,1-1.5.758c.447,1.954.857,3.906,1.26,5.831.514,2.46,1.05,4.991,1.652,7.472.232-.032.463-.066.692-.1l.62-.09a.851.851,0,0,1,.962.719.845.845,0,0,1-.719.963l-.622.09-.524.075c.249.958.5,1.853.751,2.715a50.072,50.072,0,0,0,4.294,9.945c.44-.2.869-.427,1.283-.672a.848.848,0,0,1,1.164.3.848.848,0,0,1-.3,1.164q-.644.382-1.319.7c1.024,1.805,2.109,3.606,3.166,5.352.754,1.247,1.533,2.537,2.279,3.811.834,1.42,1.7,2.838,2.531,4.207,1.46,2.392,2.969,4.869,4.344,7.421.009.015.012.032.021.048s.025.054.034.083A.632.632,0,0,1-2094.011,296.822Zm-4.393,0c.739-.151,1.494-.306,2.253-.448-.98-1.761-2.018-3.5-3.048-5.187-.228-.376-.458-.751-.685-1.123-.837-1.375-1.7-2.8-2.546-4.232-.087-.149-.175-.3-.264-.449-.658-1.117-1.339-2.243-2-3.338-1.1-1.816-2.229-3.691-3.3-5.579a43.237,43.237,0,0,1-8.113,1.793c-1.593.248-3.122.487-4.574.811a65.09,65.09,0,0,1-3.057,9.768c-1.094,2.727-2.366,5.262-3.468,7.382a25.845,25.845,0,0,0-1.409,3.559c-.063.184-.129.372-.193.56.527-.067,1.059-.13,1.582-.2,1.229-.156,2.491-.313,3.746-.458a30.79,30.79,0,0,1,4.519-13.737,8.217,8.217,0,0,1,6.154-3.8,7.75,7.75,0,0,1,6.348,2.731,17.787,17.787,0,0,1,1.4,1.776,39.589,39.589,0,0,1,2.511,4.3c.2.377.412.8.637,1.259a44.423,44.423,0,0,1,2.056,4.9C-2099.366,297.018-2098.881,296.92-2098.4,296.823Zm-10.424-21.863a52.151,52.151,0,0,1-4.336-10.1c-.276-.932-.542-1.9-.809-2.942a38.455,38.455,0,0,0-4.489.936c-.217,2.493-.523,5-.824,7.437-.111.89-.222,1.779-.326,2.657-.167,1.428-.4,2.87-.679,4.3,1.3-.26,2.623-.468,3.926-.671A43.3,43.3,0,0,0-2108.827,274.96Zm-5.554-14.694c-.484-2.006-.926-4.036-1.345-6.032-.1-.451-.191-.9-.285-1.349-.385-1.844-.775-3.711-1.2-5.578-.4.126-.805.237-1.226.334.031.988.069,1.975.107,2.954.05,1.291.1,2.61.133,3.921.018.751.031,1.5.031,2.238,0,1.343-.049,2.759-.15,4.3C-2117.036,260.727-2115.7,260.476-2114.382,260.266Zm-3.222-14.619q-.19-.788-.391-1.574c-.167.042-.335.083-.5.123q0,.853.016,1.709C-2118.182,245.828-2117.891,245.74-2117.6,245.647Zm-.829-3.217c-.013-.047-.025-.095-.041-.144,0,.051,0,.1,0,.156Z" transform="translate(2146.514 -226.684)"/>
          <path id="Trazado_120390" data-name="Trazado 120390" d="M-2048.47,226.791a.849.849,0,0,1,.942.746l.012.108a.849.849,0,0,1-.7.933.473.473,0,0,1-.053.007.848.848,0,0,1-.939-.747l-.012-.108A.849.849,0,0,1-2048.47,226.791Z" transform="translate(2087.762 -219.41)"/>
          <path id="Trazado_120391" data-name="Trazado 120391" d="M-2047.211,237.616a.852.852,0,0,1,.942.746l.025.218a.85.85,0,0,1-.7.933l-.05.009a.85.85,0,0,1-.942-.746l-.025-.218A.846.846,0,0,1-2047.211,237.616Z" transform="translate(2086.856 -227.195)"/>
          <path id="Trazado_120392" data-name="Trazado 120392" d="M-2045.357,249.948a.849.849,0,0,1,.941.744l.025.218a.85.85,0,0,1-.7.935.433.433,0,0,1-.051.007.85.85,0,0,1-.942-.746l-.025-.215A.846.846,0,0,1-2045.357,249.948Z" transform="translate(2085.522 -236.064)"/>
          <path id="Trazado_120393" data-name="Trazado 120393" d="M-2017.582,440.659a.982.982,0,0,1,.365.781.849.849,0,0,1-.7.846.832.832,0,0,1-.14.012.844.844,0,0,1-.617-.258.84.84,0,0,1-.393-.541.849.849,0,0,1,.641-1.016A.991.991,0,0,1-2017.582,440.659Z" transform="translate(2066.089 -373.079)"/>
          <path id="Trazado_120394" data-name="Trazado 120394" d="M-2024.291,429.615a.849.849,0,0,1-.246,1.175.835.835,0,0,1-.316.124.848.848,0,0,1-.858-.371l-.192-.294a.829.829,0,0,1-.079-.154.849.849,0,0,1,.325-1.02.848.848,0,0,1,1.175.246Z" transform="translate(2071.09 -364.796)"/>
          <path id="Trazado_120395" data-name="Trazado 120395" d="M-2044.452,470.062a.849.849,0,0,1,.913.779.848.848,0,0,1-.7.9c-.027,0-.055.007-.082.01-3.438.272-6.886.691-10.1,1.1a.849.849,0,0,1-.948-.736.852.852,0,0,1,.734-.948C-2051.4,470.758-2047.926,470.337-2044.452,470.062Z" transform="translate(2092.187 -394.371)"/>
          <path id="Trazado_120396" data-name="Trazado 120396" d="M-2030.682,419.728a.975.975,0,0,1,.365.779.848.848,0,0,1-.7.845.775.775,0,0,1-.14.012.836.836,0,0,1-.617-.258.843.843,0,0,1-.393-.543.849.849,0,0,1,.643-1.014A.982.982,0,0,1-2030.682,419.728Z" transform="translate(2075.511 -358.024)"/>
          <path id="Trazado_120397" data-name="Trazado 120397" d="M-2039.278,483.728a.849.849,0,0,1-.538,1.073,18.039,18.039,0,0,1-2.5.6,31.439,31.439,0,0,1-5.557.475.849.849,0,0,1-.833-.865.848.848,0,0,1,.865-.833,27.375,27.375,0,0,0,7.489-.987A.849.849,0,0,1-2039.278,483.728Z" transform="translate(2087.39 -403.783)"/>
          <path id="Trazado_120398" data-name="Trazado 120398" d="M-2036.273,408.57a.847.847,0,0,1,.01.88.85.85,0,0,1-.584.4.841.841,0,0,1-.579-.105,1.247,1.247,0,0,1-.391-.358,1.2,1.2,0,0,1-.213-.575.85.85,0,0,1,.751-.936.85.85,0,0,1,.883.537A.859.859,0,0,1-2036.273,408.57Z" transform="translate(2079.716 -349.648)"/>
          <path id="Trazado_120399" data-name="Trazado 120399" d="M-2044.409,396.588a.852.852,0,0,1-.246,1.177.841.841,0,0,1-.317.125.85.85,0,0,1-.858-.371l-.192-.294a.848.848,0,0,1,.246-1.175.849.849,0,0,1,1.175.246Z" transform="translate(2085.56 -341.044)"/>
          <path id="Trazado_120400" data-name="Trazado 120400" d="M-2052.032,384.974a.847.847,0,0,1,.132,1.031.845.845,0,0,1-.584.407.846.846,0,0,1-.577-.106,1.2,1.2,0,0,1-.605-.932.849.849,0,0,1,.751-.936A.848.848,0,0,1-2052.032,384.974Z" transform="translate(2090.962 -332.789)"/>
          <path id="Trazado_120401" data-name="Trazado 120401" d="M-2077.607,347.55a.831.831,0,0,1,.205.421.849.849,0,0,1-.689.983h0a8.751,8.751,0,0,1-1.174.105l-.13.006a10.878,10.878,0,0,0-1.377.162c-.207.036-.415.077-.625.121l-.025,0a.855.855,0,0,1-.775-.265c-.344-.373-.267-.662.021-1.734.041-.16.1-.375.115-.449a11.319,11.319,0,0,0,.053-1.169c0-.352.008-.715.037-1.08.013-.159.03-.318.048-.476.028-.255.054-.5.06-.728,0-.089.007-.189.014-.3a2.762,2.762,0,0,0,.01-.459.85.85,0,0,1,.45-1.094.85.85,0,0,1,1.116.441l0,0c.113.262.238.521.368.8.218.455.443.924.627,1.424a12.157,12.157,0,0,0,.661,1.516c.153.292.313.564.484.855.1.162.191.324.287.493.031.055.061.11.09.165C-2077.705,347.386-2077.656,347.479-2077.607,347.55Zm-2.061-.17c-.151-.258-.305-.524-.455-.808-.068-.128-.134-.261-.2-.4a9.418,9.418,0,0,1-.062.957,2.431,2.431,0,0,1-.07.325C-2080.18,347.423-2079.921,347.4-2079.668,347.38Z" transform="translate(2111.645 -301.934)"/>
          <path id="Trazado_120402" data-name="Trazado 120402" d="M-2082.979,297.233c0,.017,0,.034.007.051l.019.156a.85.85,0,0,1-.7.935.371.371,0,0,1-.051.007.849.849,0,0,1-.941-.744l-.019-.156c0-.028-.005-.055-.006-.083a.846.846,0,0,1,.752-.859A.852.852,0,0,1-2082.979,297.233Z" transform="translate(2113.252 -269.572)"/>
          <path id="Trazado_120403" data-name="Trazado 120403" d="M-2081.877,309.214a.849.849,0,0,1,.943.744l.036.313a.849.849,0,0,1-.7.933l-.05.009a.853.853,0,0,1-.941-.746l-.035-.311A.848.848,0,0,1-2081.877,309.214Z" transform="translate(2111.786 -278.688)"/>
          <path id="Trazado_120404" data-name="Trazado 120404" d="M-2068.351,488.276a.85.85,0,0,1,.74.945.852.852,0,0,1-.7.735.86.86,0,0,1-.251.005,9.422,9.422,0,0,0-3.013.295.852.852,0,0,1-1.018-.638.85.85,0,0,1,.638-1.018A11.305,11.305,0,0,1-2068.351,488.276Z" transform="translate(2104.583 -407.441)"/>
          <path id="Trazado_120405" data-name="Trazado 120405" d="M-2096.707,475.766a.85.85,0,0,1,.95.734.85.85,0,0,1-.7.946.214.214,0,0,1-.038,0c-3.526.454-7.288.922-11.122,1.216a.849.849,0,0,1-.912-.782.847.847,0,0,1,.782-.911C-2103.948,476.682-2100.21,476.216-2096.707,475.766Z" transform="translate(2130.413 -398.47)"/>
          <path id="Trazado_120406" data-name="Trazado 120406" d="M-2091.752,391.338a.852.852,0,0,1,.3,1.152.856.856,0,0,1-.6,1.031c-.025.006-.05.013-.074.017a.84.84,0,0,1-.963-.609,1.643,1.643,0,0,1,.173-1.3A.85.85,0,0,1-2091.752,391.338Z" transform="translate(2119.355 -337.669)"/>
          <path id="Trazado_120407" data-name="Trazado 120407" d="M-2095.526,402.843a.846.846,0,0,1,.608,1.033,1.35,1.35,0,0,1-.758.914.825.825,0,0,1-.193.058.849.849,0,0,1-.926-.5.851.851,0,0,1,.273-1.022A.853.853,0,0,1-2095.526,402.843Z" transform="translate(2122.025 -346.009)"/>
          <path id="Trazado_120408" data-name="Trazado 120408" d="M-2097.531,490.72a.847.847,0,0,1,.859.838.85.85,0,0,1-.7.848,1.035,1.035,0,0,1-.138.013,14.476,14.476,0,0,0-2.457.32,20.678,20.678,0,0,1-2.146.322.846.846,0,0,1-.915-.777.85.85,0,0,1,.779-.915,19.286,19.286,0,0,0,1.971-.3A16.016,16.016,0,0,1-2097.531,490.72Z" transform="translate(2126.46 -409.229)"/>
          <path id="Trazado_120409" data-name="Trazado 120409" d="M-2099.736,415.181a.85.85,0,0,1-.3.95.855.855,0,0,1-.634.5.9.9,0,0,1-.223.009.849.849,0,0,1-.77-.921,1.235,1.235,0,0,1,.853-1.079A.849.849,0,0,1-2099.736,415.181Z" transform="translate(2125.479 -354.483)"/>
          <path id="Trazado_120410" data-name="Trazado 120410" d="M-2149.964,243.306a4.335,4.335,0,0,1,.014,4,5.054,5.054,0,0,1-1.454,1.756,4.7,4.7,0,0,1-2.032.909,3.9,3.9,0,0,1-2.772-.526,4.221,4.221,0,0,1-1.864-3.636,5.17,5.17,0,0,1,2.034-4.358,4.035,4.035,0,0,1,1.547-.63A4.341,4.341,0,0,1-2149.964,243.306Zm-1.505,3.244a2.651,2.651,0,0,0-.005-2.469,2.661,2.661,0,0,0-2.723-1.586,2.334,2.334,0,0,0-.9.369,3.548,3.548,0,0,0-1.281,2.918,2.568,2.568,0,0,0,1.061,2.221,2.236,2.236,0,0,0,.759.3,2.311,2.311,0,0,0,.823,0A3.278,3.278,0,0,0-2151.469,246.55Z" transform="translate(2166.046 -229.463)"/>
          <path id="Trazado_120411" data-name="Trazado 120411" d="M-2104.163,427.571a.839.839,0,0,1-.1.664.851.851,0,0,1-.494.658.9.9,0,0,1-.2.061.851.851,0,0,1-.923-.491,1.1,1.1,0,0,1-.012-.94,1.043,1.043,0,0,1,.691-.557A.85.85,0,0,1-2104.163,427.571Z" transform="translate(2128.589 -363.358)"/>
          <path id="Trazado_120412" data-name="Trazado 120412" d="M-2110.116,438.973a.85.85,0,0,1,.139,1.193l-.276.346a.842.842,0,0,1-.519.309.846.846,0,0,1-.675-.17.847.847,0,0,1-.136-1.192l.273-.348A.85.85,0,0,1-2110.116,438.973Z" transform="translate(2132.744 -371.882)"/>
          <path id="Trazado_120413" data-name="Trazado 120413" d="M-2114.957,450.035a1.094,1.094,0,0,1,.012.94,1.038,1.038,0,0,1-.689.555c-.025.006-.048.013-.071.017a.852.852,0,0,1-.969-.619.852.852,0,0,1,.1-.667.847.847,0,0,1,.494-.658A.849.849,0,0,1-2114.957,450.035Z" transform="translate(2136.292 -379.606)"/>
        </g>
      </g>
    </g>
  </g>
</svg>
