<svg xmlns="http://www.w3.org/2000/svg" width="67.583" height="64.83" viewBox="0 0 67.583 64.83">
  <g id="Grupo_88493" data-name="Grupo 88493" transform="translate(1935.398 -1084.874)">
    <path id="Trazado_120439" data-name="Trazado 120439" d="M-1875.059,1097.1c-3.709-4.394-8.117-9.225-13.532-10.943a33.684,33.684,0,0,0-9.914-1.286,42.446,42.446,0,0,0-11.794,1.551,36.027,36.027,0,0,0-15.4,8.881,31.738,31.738,0,0,0-9.465,26.389,28.764,28.764,0,0,0,14.262,21.445,49.491,49.491,0,0,0,7.268,3.557,1.045,1.045,0,0,0,.13.051,41.739,41.739,0,0,0,14.913,2.956h0c9.414,0,17.232-3.779,22.613-10.928a45.656,45.656,0,0,0,3.255-4.95.149.149,0,0,0,.011-.02,36.085,36.085,0,0,0,4.856-15.85A29.53,29.53,0,0,0-1875.059,1097.1Z" transform="translate(0)" fill="#fff"/>
    <g id="Grupo_88492" data-name="Grupo 88492" transform="translate(-1935.398 1084.874)">
      <g id="Grupo_88491" data-name="Grupo 88491" transform="translate(0)">
        <path id="Trazado_120440" data-name="Trazado 120440" d="M-1875.059,1097.1a29.53,29.53,0,0,1,7.2,20.853,36.079,36.079,0,0,1-4.857,15.85.1.1,0,0,1-.011.02,45.669,45.669,0,0,1-3.254,4.95c-5.381,7.149-13.2,10.928-22.613,10.928h0a41.742,41.742,0,0,1-14.913-2.956,1.024,1.024,0,0,1-.129-.051,49.477,49.477,0,0,1-7.268-3.557,28.763,28.763,0,0,1-14.262-21.445,31.738,31.738,0,0,1,9.465-26.389,36.026,36.026,0,0,1,15.4-8.881,42.444,42.444,0,0,1,11.795-1.551,33.683,33.683,0,0,1,9.913,1.286C-1883.175,1087.878-1878.768,1092.709-1875.059,1097.1Zm1.168,34.182a32.659,32.659,0,0,0,3.818-13.376c-.508-.406-1.027-.807-1.557-1.19a1.132,1.132,0,0,1-.423.544,1.133,1.133,0,0,1-1.162.073,27,27,0,0,1-6.582-5.57,38.426,38.426,0,0,0-3.72-3.57c-.728,2.059-1.678,4.081-2.6,6.047-.392.838-.793,1.7-1.173,2.552.231.477.479.993.761,1.588a10.977,10.977,0,0,1,.429,1.105,3.127,3.127,0,0,0,.9,1.608,2.994,2.994,0,0,0,.974.3,5.115,5.115,0,0,1,1.932.716c2.631,1.794,4.87,4.665,6.848,7.194q.448.576.88,1.123Q-1874.229,1130.861-1873.891,1131.284Zm2.053-17.455c.6.4,1.19.807,1.768,1.233a27.529,27.529,0,0,0-6.715-16.5c-3.5-4.154-7.649-8.712-12.488-10.249a31.967,31.967,0,0,0-9.23-1.179,40.2,40.2,0,0,0-11.135,1.453,33.413,33.413,0,0,0-14.468,8.32,29.5,29.5,0,0,0-8.822,24.514,26.2,26.2,0,0,0,3.872,10.869c.669-.877,1.331-1.78,1.943-2.7a17.569,17.569,0,0,0,1.23-2.473,11.4,11.4,0,0,1,2.6-4.219,1.129,1.129,0,0,1,1.489.025,9.811,9.811,0,0,1,2.262,3.756,10.471,10.471,0,0,0,1.176,2.339c2.7-1.14,4.013.707,5.085,2.219.028.037.054.074.081.113a28.238,28.238,0,0,1,1.235-4.735,1.126,1.126,0,0,1,1.058-.739h0c1.9,0,3.994,1.176,5.678,2.121l.034.017c2.637-3.127,3.692-7.961,4.628-12.257q.135-.613.265-1.2c.045-.214.1-.434.144-.654l.163-.725c.883-3.9,1.884-8.325,1.9-12.147a1.127,1.127,0,0,1,.855-1.091,1.132,1.132,0,0,1,1.266.561q1.163,2.162,2.349,4.313c.97,1.771,1.972,3.6,2.942,5.418.776,1.447,1.458,2.747,2.082,3.971.144-.3.287-.615.428-.917a52.165,52.165,0,0,0,2.962-7.212,1.139,1.139,0,0,1,.68-.736,1.133,1.133,0,0,1,1,.1,29.416,29.416,0,0,1,5.353,4.774,33.838,33.838,0,0,0,4.617,4.276,1.12,1.12,0,0,1,.552-.7A1.129,1.129,0,0,1-1871.838,1113.83Zm-3.241,19.575c-.412-.51-.835-1.035-1.264-1.576-.287-.364-.583-.745-.889-1.134-1.873-2.4-4-5.122-6.34-6.721a3.17,3.17,0,0,0-1.123-.367,4.712,4.712,0,0,1-1.782-.652,4.978,4.978,0,0,1-1.754-2.727c-.113-.319-.218-.621-.341-.885-.372-.784-.682-1.43-.978-2.028-.677-1.376-1.4-2.8-2.248-4.405-.217.33-.424.657-.612.984-.051.085-.181.4-.277.632-.7,1.658-1.267,2.854-2.276,3.1a1.684,1.684,0,0,1-.415.053,2.724,2.724,0,0,1-1.819-1,3.572,3.572,0,0,0-.3-.285c-.277-.2-.525-.386-.762-.567-.031.135-.059.271-.09.406-1.015,4.653-2.279,10.443-5.8,13.989a1.13,1.13,0,0,1-1.337.2c-.26-.141-.539-.3-.829-.459a16.572,16.572,0,0,0-3.808-1.735,33.247,33.247,0,0,0-1.23,6.115c-.172,1.472-.279,3-.321,4.543-.011.384-.02.762-.031,1.142-.04,1.6-.085,3.243-.254,4.9a42.8,42.8,0,0,0,6.741,1.878,35.848,35.848,0,0,0,6.63.643c6.052,0,14.572-1.74,20.81-10.029A45.492,45.492,0,0,0-1875.078,1133.405Zm-19.28-20.65c.4-.691.855-1.379,1.362-2.09-.86-1.6-1.74-3.207-2.595-4.769-.172-.313-.341-.626-.513-.939-.358,2.84-1.01,5.753-1.616,8.441.466.364.951.742,1.54,1.168a4.843,4.843,0,0,1,.578.519c.034.034.076.073.118.116a16.652,16.652,0,0,0,.717-1.546A8.372,8.372,0,0,1-1894.358,1112.755Zm-19.287,21.778-.263-.349q-.321-.436-.634-.852c-.2-.274-.392-.538-.569-.789-1.222-1.721-1.441-2.031-2.919-1.168a1.128,1.128,0,0,1-1.3-.115,9.03,9.03,0,0,1-2.3-3.729,13.387,13.387,0,0,0-.948-2.019,18.494,18.494,0,0,0-1.244,2.507,19.1,19.1,0,0,1-1.419,2.817c-.778,1.17-1.63,2.3-2.462,3.387a28.126,28.126,0,0,0,7.945,6.98,47.121,47.121,0,0,0,5.607,2.849c.11-1.337.146-2.682.181-4.081.011-.381.02-.764.034-1.148C-1913.891,1137.374-1913.793,1135.932-1913.646,1134.533Z" transform="translate(1935.398 -1084.874)"/>
        <path id="Trazado_120441" data-name="Trazado 120441" d="M-1774.471,1178.017a1.13,1.13,0,0,1,.713,1.427l-.417,1.247a1.129,1.129,0,0,1-1.069.773,1.139,1.139,0,0,1-.358-.059,1.129,1.129,0,0,1-.714-1.427l.417-1.249A1.128,1.128,0,0,1-1774.471,1178.017Z" transform="translate(1835.696 -1143.234)"/>
        <path id="Trazado_120442" data-name="Trazado 120442" d="M-1816.451,1196.185a1.126,1.126,0,0,1-.1,1.591c-.522.457-.965.818-1.354,1.137-1.543,1.266-1.782,1.461-2.011,3.548a11.567,11.567,0,0,1-.561,2.29,8.647,8.647,0,0,0-.477,2.019,1.127,1.127,0,0,1-1.125,1.063.628.628,0,0,1-.068,0,1.127,1.127,0,0,1-1.058-1.193,10.362,10.362,0,0,1,.578-2.572,10.011,10.011,0,0,0,.468-1.853c.313-2.857.97-3.528,2.826-5.046.375-.307.8-.654,1.295-1.089A1.127,1.127,0,0,1-1816.451,1196.185Z" transform="translate(1865.06 -1154.42)"/>
        <path id="Trazado_120443" data-name="Trazado 120443" d="M-1846.392,1214.917a1.128,1.128,0,0,1,.592,1.481,1.126,1.126,0,0,1-1.035.685,1.14,1.14,0,0,1-.446-.093l-1.455-.623a1.127,1.127,0,0,1-.592-1.481,1.125,1.125,0,0,1,1.48-.592Z" transform="translate(1881.492 -1165.958)"/>
        <path id="Trazado_120444" data-name="Trazado 120444" d="M-1893.283,1129.08a5.651,5.651,0,0,1-.6,5.906,5.518,5.518,0,0,1-4.408,1.971,5.2,5.2,0,0,1-5.085-3.164,4.511,4.511,0,0,1,.445-3.8,7.179,7.179,0,0,1,4.437-3.4,5.684,5.684,0,0,1,1.077-.107A4.53,4.53,0,0,1-1893.283,1129.08Zm-2.386,4.532a3.435,3.435,0,0,0,.364-3.537,2.285,2.285,0,0,0-2.11-1.334,3.455,3.455,0,0,0-.64.065,4.925,4.925,0,0,0-2.908,2.3,2.354,2.354,0,0,0-.293,1.915,2.365,2.365,0,0,0,1.247,1.309,4.06,4.06,0,0,0,1.72.375A3.321,3.321,0,0,0-1895.669,1133.613Z" transform="translate(1915.469 -1110.963)"/>
        <path id="Trazado_120445" data-name="Trazado 120445" d="M-1896.235,1215.435a1.128,1.128,0,0,1,.505,1.514l-.623,1.247a1.13,1.13,0,0,1-1.01.623,1.122,1.122,0,0,1-.505-.118,1.13,1.13,0,0,1-.5-1.514l.623-1.247A1.129,1.129,0,0,1-1896.235,1215.435Z" transform="translate(1912.259 -1166.656)"/>
      </g>
    </g>
  </g>
</svg>
