<svg xmlns="http://www.w3.org/2000/svg" xmlns:xlink="http://www.w3.org/1999/xlink" width="1320" height="538.413" viewBox="0 0 1320 538.413">
  <defs>
    <clipPath id="clip-path">
      <path id="Rectangle_652" data-name="Rectangle 652" d="M1299.213,0H20.787C9.307,0,0,8.922,0,19.928V518.115c0,11.006,9.307,19.927,20.787,19.927H1299.213c11.48,0,20.787-8.922,20.787-19.927V19.928C1320,8.922,1310.693,0,1299.213,0Z" transform="translate(144.333 70)" fill="#ff5f65"/>
    </clipPath>
  </defs>
  <g id="Grupo_165574" data-name="Grupo 165574" transform="translate(-144.333 -72)">
    <path id="Rectangle_652-2" data-name="Rectangle 652" d="M1299.213,0H20.787C9.307,0,0,8.922,0,19.928V518.115c0,11.006,9.307,19.927,20.787,19.927H1299.213c11.48,0,20.787-8.922,20.787-19.927V19.928C1320,8.922,1310.693,0,1299.213,0Z" transform="translate(144.333 72.37)" fill="#e1e8ff"/>
    <g id="Enmascarar_grupo_168" data-name="Enmascarar grupo 168" transform="translate(0 2)" clip-path="url(#clip-path)">
      <g id="Grupo_162320" data-name="Grupo 162320" transform="translate(97.728 -1397.084)">
        <path id="Trazado_143600" data-name="Trazado 143600" d="M73.524,1697.663a61.009,61.009,0,0,0,35.713-48.433c1.952-18.021-4.153-37.323,3.366-53.816,8.961-19.659,33.661-26.761,55.251-25.96s43.044,7.137,64.5,4.645c28.9-3.356,55.118-24.007,65.148-51.322,6.547-17.828,6-37.952-.7-55.693H43.6v234.965A59.839,59.839,0,0,0,73.524,1697.663Z" transform="translate(0 -28)" fill="#a6bbff" opacity="0.34"/>
        <path id="Trazado_143601" data-name="Trazado 143601" d="M97.583,1726.888c22.746-16.924,35.872-45.981,33.534-74.236-1.251-15.123-6.39-31.356.753-44.745,5.848-10.961,18.692-16.624,31.076-17.62s24.706,1.845,36.977,3.792c28.9,4.584,59.019,4.152,86.813-5s53.109-27.58,67.251-53.2c11.456-20.753,14.768-46.315,7.925-68.8h-65.1c6.693,17.741,7.243,37.865.7,55.693-10.03,27.315-36.244,47.966-65.148,51.322-21.46,2.492-42.914-3.843-64.5-4.645s-46.29,6.3-55.251,25.96c-7.519,16.493-1.414,35.8-3.366,53.816a61.009,61.009,0,0,1-35.713,48.433,59.839,59.839,0,0,1-29.919,4.386v41.158A85.365,85.365,0,0,0,97.583,1726.888Z" transform="translate(0 -28)" fill="#6b8dfc" opacity="0.493"/>
        <path id="Trazado_143602" data-name="Trazado 143602" d="M1041.51,1936.14c-22.788,17.621-41.469,40.489-65.961,55.654-33.64,20.83-74.727,25.061-114.252,26.864s-80.074,1.879-117.076,15.892c-29.572,11.2-56.827,33.771-67.941,62.534h75.914c16.916-26.329,42.463-47.2,72.244-56.951,59.454-19.462,128.594,2.72,184.606-25.142,39.678-19.737,66.491-62.067,108.972-74.688,30.736-9.131,64.558-.5,92.076,15.959a222.085,222.085,0,0,1,33.513,25.055v-61.773C1180.479,1886.971,1098.059,1892.411,1041.51,1936.14Z" transform="translate(123.992 -91.957)" fill="#6b8dfc" opacity="0.34"/>
        <path id="Trazado_143603" data-name="Trazado 143603" d="M1118.016,1940.3c-42.481,12.621-69.294,54.951-108.972,74.688-56.012,27.862-125.152,5.68-184.606,25.142-29.781,9.749-55.328,30.622-72.244,56.951H1243.6V1981.317a222.085,222.085,0,0,0-33.513-25.055C1182.574,1939.805,1148.752,1931.172,1118.016,1940.3Z" transform="translate(123.992 -91.957)" fill="#c4d1ff" opacity="0.34"/>
        <g id="Grupo_162314" data-name="Grupo 162314" transform="translate(464.291 1455.219) rotate(124)">
          <g id="Grupo_162310" data-name="Grupo 162310" transform="translate(140.009 191.871)" style="mix-blend-mode: overlay;isolation: isolate">
            <path id="Trazado_143604" data-name="Trazado 143604" d="M401.491,330.407c-19.1,19.547-38.843,38.376-58.961,56.872,8.7-19.666,18.076-39.018,26.334-58.89,9.361-22.528,20.244-53.236,8.441-76.866-26.9-53.862-94.89-1.011-119.912,26.1-2.664,2.89-5.21,5.908-7.787,8.889,8.941-21.894,16.989-44.39,14.864-68.044-2.922-32.524-32.738-40.326-58.406-25.212-27.564,16.224-49.7,44.3-68.187,69.8-15.7,21.656,20.225,42.273,35.8,20.926a281.616,281.616,0,0,1,27.988-32.738q-2.23,4.086-4.508,8.156c-10.043,17.941-19.963,35.953-28.146,54.838-15.669,36.155-38.844,86.211-19.13,124.242,9.936,19.166,33.233,21.113,50.774,13.314,23.579-10.483,39.91-33.626,55.654-53.212,16.434-20.451,30.91-42.166,46.123-63.5,6.356-8.917,12.707-17.961,19.987-26.16.167-.19.341-.365.508-.551l-.182.575c-4.04,12.561-9.234,24.614-14.5,36.7-9.785,22.485-22.409,46.151-25.993,70.614-3.168,21.632,5.59,45.877,31.608,44.307,24.459-1.475,44.061-25.034,60.412-40.766,19.8-19.055,39.248-38.487,58.7-57.9C453.287,341.624,421.557,309.882,401.491,330.407Z" transform="translate(-129.981 -181.868)" fill="#3c384f"/>
            <path id="Trazado_143605" data-name="Trazado 143605" d="M314.536,467.566c-9.6,0-17.747-3.37-23.674-9.825-8.239-8.972-11.8-23.587-9.527-39.093,2.962-20.217,11.779-39.581,20.3-58.3,2.042-4.484,4.064-8.925,5.975-13.318,1.812-4.167,3.719-8.544,5.61-13.072q-1.737,2.421-3.437,4.813l-1.126,1.582c-3.953,5.543-7.854,11.109-11.752,16.676-10.947,15.621-22.266,31.778-34.51,47.011-1.788,2.224-3.584,4.5-5.4,6.792-14.039,17.754-29.95,37.876-51.733,47.558-19.42,8.624-44.854,6.209-55.9-15.11-19.852-38.3,1.582-87.575,17.235-123.556l1.776-4.092c4.6-10.63,9.765-21.006,15.241-31.334q-1.9,2.48-3.735,5c-9.631,13.2-26.5,13-37.246,5.178-8.889-6.467-13.877-18.488-4.972-30.771,19.733-27.218,41.8-54.647,69.389-70.887,15.312-9.012,32.072-10.475,44.842-3.913,11.244,5.777,18.179,17.207,19.523,32.19,1.578,17.572-2.216,34.391-7.716,50.437,20.359-19.892,58.013-48.1,88.222-43.827,13.877,1.971,24.618,10.392,31.925,25.026,12.021,24.067,2.538,54.029-8.326,80.161-5.17,12.442-10.856,24.852-16.355,36.857l-1.947,4.246c16.363-15.344,31-29.637,44.434-43.379v0c6.641-6.8,15.078-9.3,23.733-7.049A29.214,29.214,0,0,1,445.6,343.63c2.371,8.742-.052,17.283-6.827,24.043l-2.212,2.2c-18.417,18.381-37.46,37.388-56.539,55.742-2.351,2.264-4.766,4.686-7.256,7.184-14.813,14.848-33.245,33.332-55.666,34.684C316.237,467.543,315.38,467.566,314.536,467.566Zm11.375-160.025a3.743,3.743,0,0,1,1.919.512,3.857,3.857,0,0,1,1.871,4.5l-.186.579c-4.234,13.171-9.757,25.863-14.63,37.059-1.931,4.437-3.973,8.917-6.031,13.437-8.294,18.222-16.874,37.063-19.673,56.17-1.9,12.973.983,25.458,7.521,32.579,4.849,5.281,11.542,7.672,19.919,7.2,19.412-1.174,35.945-17.747,50.532-32.373,2.529-2.534,4.984-5,7.371-7.3,19.027-18.306,38.047-37.285,56.439-55.643l2.208-2.2c5.995-5.979,5.9-12.192,4.778-16.351a21.343,21.343,0,0,0-14.555-14.468c-4.1-1.071-10.213-1.078-16.065,4.912v0c-17.354,17.75-36.691,36.4-59.12,57.014a3.965,3.965,0,0,1-6.308-4.524c3.287-7.434,6.673-14.821,10.059-22.207,5.468-11.942,11.125-24.289,16.24-36.6,10.178-24.479,19.15-52.364,8.556-73.571-6.157-12.339-14.646-19.115-25.95-20.716-28.162-3.989-67.767,26.35-87.5,47.737-2.105,2.276-4.131,4.639-6.161,7l-1.534,1.788a3.965,3.965,0,0,1-6.673-4.088c8.513-20.855,16.652-43.145,14.583-66.2-1.11-12.35-6.383-21.287-15.249-25.843-10.34-5.313-24.245-3.929-37.2,3.691-26.334,15.506-47.76,42.186-66.99,68.711-6.074,8.382-2.323,15.677,3.216,19.705,7.5,5.452,19.221,6.094,26.176-3.441a287.128,287.128,0,0,1,28.38-33.2,3.966,3.966,0,0,1,6.292,4.7q-2.242,4.1-4.532,8.191c-10.166,18.167-19.959,36-27.964,54.477l-1.78,4.1c-15.019,34.522-35.58,81.8-17.469,116.745,8.8,16.973,29.621,18.631,45.643,11.514,19.995-8.885,34.605-27.361,48.732-45.231,1.828-2.307,3.64-4.6,5.444-6.839,12.077-15.031,23.317-31.076,34.193-46.595q5.864-8.374,11.787-16.728l1.126-1.578c5.967-8.378,12.136-17.037,19.126-24.915l.353-.385A4.329,4.329,0,0,1,325.911,307.542Zm78.583,25.839h0Z" transform="translate(-132.979 -184.841)" fill="#3c384f"/>
            <path id="Trazado_143606" data-name="Trazado 143606" d="M155.038,224.782c-14.607,29.356-22.849,63.77-10.015,95.323,1.9,4.667,9.567,2.625,7.644-2.109-12.045-29.625-4.52-61.6,9.218-89.213C164.153,224.231,157.314,220.206,155.038,224.782Z" transform="translate(-116.133 -72.4)" fill="#3c384f"/>
            <path id="Trazado_143607" data-name="Trazado 143607" d="M154.937,260.437c-.067-.008-.131-.028-.194-.04-.111-.214-.21-.448-.246-.511l-.02-.024c-.008-.032,0-.008-.008-.056-.511-1.772-.876-3.564-1.265-5.368q-1.344-6.274-2.692-12.549a3.992,3.992,0,0,0-4.877-2.767A4.058,4.058,0,0,0,142.864,244q1.522,7.1,3.049,14.194c.845,3.937,2.2,9.1,6.915,9.892,2.038.341,4.369-.535,4.877-2.771C158.14,263.4,157.125,260.8,154.937,260.437Z" transform="translate(-103.99 -24.369)" fill="#3c384f"/>
            <path id="Trazado_143608" data-name="Trazado 143608" d="M198.556,202.1c-4.5-2.4-8.509,4.441-4,6.847,6.225,3.323,8.124,10.087,8.37,16.732a114.669,114.669,0,0,1-1.788,22.73A150.857,150.857,0,0,1,187.375,291c-2.264,4.556,4.571,8.576,6.847,4a158.677,158.677,0,0,0,15.392-50.159C211.481,230.551,213.717,210.192,198.556,202.1Z" transform="translate(26.951 -135.164)" fill="#3c384f"/>
          </g>
          <g id="Grupo_162313" data-name="Grupo 162313" transform="translate(130.608 182.47)">
            <g id="Grupo_162312" data-name="Grupo 162312">
              <g id="Grupo_162311" data-name="Grupo 162311">
                <path id="Trazado_143609" data-name="Trazado 143609" d="M399.123,328.037c-19.1,19.547-38.844,38.376-58.965,56.868,8.7-19.662,18.08-39.018,26.338-58.886,9.361-22.528,20.241-53.236,8.441-76.866-26.9-53.862-94.89-1.015-119.912,26.1-2.668,2.886-5.21,5.9-7.787,8.889,8.937-21.894,16.985-44.39,14.864-68.044-2.922-32.523-32.738-40.326-58.406-25.216-27.568,16.228-49.7,44.3-68.191,69.8-15.7,21.656,20.229,42.273,35.806,20.926a281.972,281.972,0,0,1,27.984-32.742q-2.23,4.086-4.5,8.16c-10.043,17.941-19.963,35.953-28.146,54.834-15.673,36.159-38.843,86.211-19.13,124.246,9.936,19.166,33.229,21.113,50.774,13.314,23.579-10.483,39.91-33.626,55.654-53.212,16.434-20.451,30.906-42.166,46.119-63.5,6.36-8.917,12.711-17.961,19.987-26.164.167-.186.345-.361.511-.551l-.182.579c-4.04,12.561-9.238,24.614-14.5,36.7-9.789,22.481-22.409,46.147-25.993,70.614-3.172,21.632,5.59,45.877,31.608,44.307,24.455-1.475,44.057-25.034,60.408-40.766,19.8-19.055,39.252-38.491,58.7-57.9C450.915,339.254,419.185,307.511,399.123,328.037Z" transform="translate(-127.612 -179.497)" fill="#fed947"/>
                <path id="Trazado_143610" data-name="Trazado 143610" d="M312.161,465.192c-9.6,0-17.743-3.366-23.67-9.821-8.239-8.972-11.8-23.587-9.528-39.1,2.958-20.213,11.776-39.577,20.3-58.3,2.038-4.484,4.06-8.921,5.975-13.314,1.812-4.167,3.719-8.544,5.61-13.072-1.158,1.61-2.3,3.219-3.438,4.813l-1.126,1.578c-3.953,5.543-7.854,11.114-11.756,16.676-10.943,15.625-22.263,31.782-34.506,47.011q-2.682,3.342-5.4,6.8c-14.039,17.751-29.95,37.872-51.733,47.558-19.424,8.624-44.854,6.2-55.9-15.114-19.852-38.292,1.582-87.571,17.231-123.556l1.78-4.088c4.6-10.63,9.765-21.006,15.237-31.334q-1.9,2.48-3.735,4.992c-9.627,13.2-26.493,13-37.242,5.182-8.889-6.467-13.877-18.488-4.972-30.771,19.733-27.219,41.8-54.647,69.385-70.891,15.316-9.008,32.072-10.471,44.846-3.909,11.244,5.777,18.175,17.2,19.523,32.187,1.578,17.572-2.216,34.395-7.72,50.437,20.363-19.888,58.014-48.1,88.222-43.823,13.877,1.97,24.622,10.392,31.929,25.026,12.017,24.067,2.534,54.025-8.326,80.161-5.17,12.438-10.856,24.852-16.355,36.853l-1.947,4.246c16.363-15.34,31-29.633,44.434-43.375h0c6.641-6.8,15.078-9.293,23.733-7.046a29.2,29.2,0,0,1,20.209,20.066c2.375,8.742-.048,17.279-6.823,24.039l-2.212,2.208c-18.417,18.381-37.46,37.384-56.539,55.742-2.351,2.264-4.766,4.686-7.26,7.184-14.809,14.848-33.241,33.332-55.662,34.684C313.862,465.168,313.009,465.192,312.161,465.192Zm11.375-160.025a3.737,3.737,0,0,1,1.919.515,3.853,3.853,0,0,1,1.875,4.5l-.186.579c-4.234,13.167-9.757,25.863-14.63,37.059-1.931,4.433-3.973,8.913-6.031,13.437-8.3,18.222-16.878,37.063-19.678,56.166-1.9,12.973.983,25.458,7.525,32.583,4.845,5.277,11.542,7.672,19.919,7.2,19.412-1.174,35.945-17.747,50.528-32.373,2.53-2.537,4.988-5,7.375-7.3,19.027-18.306,38.047-37.285,56.439-55.642l2.208-2.208c5.991-5.975,5.9-12.188,4.774-16.351a21.33,21.33,0,0,0-14.555-14.464c-4.1-1.071-10.209-1.078-16.062,4.912h0c-17.354,17.751-36.691,36.4-59.12,57.018a3.965,3.965,0,0,1-6.308-4.524c3.287-7.434,6.673-14.821,10.055-22.211,5.472-11.938,11.125-24.285,16.244-36.6,10.174-24.479,19.15-52.364,8.556-73.575-6.161-12.335-14.65-19.111-25.95-20.716-28.162-3.985-67.771,26.354-87.5,47.737-2.1,2.28-4.127,4.643-6.157,7l-1.538,1.792a3.966,3.966,0,0,1-6.673-4.092c8.516-20.851,16.656-43.145,14.587-66.193-1.11-12.354-6.383-21.291-15.249-25.847-10.344-5.309-24.245-3.925-37.2,3.7-26.338,15.5-47.76,42.186-66.99,68.711-6.078,8.382-2.323,15.673,3.215,19.7,7.5,5.456,19.222,6.1,26.176-3.438a286.417,286.417,0,0,1,28.38-33.2,3.964,3.964,0,0,1,6.288,4.694q-2.242,4.11-4.528,8.2c-10.17,18.167-19.959,36-27.968,54.477l-1.78,4.1c-15.015,34.522-35.576,81.8-17.465,116.741,8.8,16.977,29.621,18.635,45.643,11.518,19.995-8.885,34.605-27.365,48.732-45.231q2.742-3.467,5.44-6.843c12.081-15.027,23.321-31.072,34.2-46.591q5.864-8.374,11.788-16.732l1.126-1.574c5.967-8.378,12.136-17.041,19.122-24.915l.357-.385A4.324,4.324,0,0,1,323.536,305.167Zm78.583,25.843h0Z" transform="translate(-130.608 -182.47)"/>
              </g>
              <path id="Trazado_143611" data-name="Trazado 143611" d="M152.669,222.411c-14.61,29.356-22.849,63.766-10.019,95.323,1.9,4.663,9.571,2.625,7.648-2.109-12.049-29.629-4.524-61.6,9.218-89.213C161.78,221.856,154.945,217.836,152.669,222.411Z" transform="translate(-113.763 -70.029)"/>
              <path id="Trazado_143612" data-name="Trazado 143612" d="M152.566,258.066c-.067-.008-.131-.028-.194-.04-.111-.218-.214-.448-.25-.511l-.016-.024c-.008-.032,0-.012-.008-.059-.511-1.768-.88-3.564-1.265-5.364q-1.35-6.274-2.692-12.549a4,4,0,0,0-4.881-2.768,4.057,4.057,0,0,0-2.767,4.877l3.045,14.19c.849,3.941,2.2,9.107,6.919,9.9,2.038.337,4.369-.535,4.877-2.771C155.769,261.027,154.75,258.431,152.566,258.066Z" transform="translate(-101.619 -21.998)"/>
              <path id="Trazado_143613" data-name="Trazado 143613" d="M196.186,199.729c-4.5-2.4-8.513,4.441-4,6.847,6.225,3.323,8.12,10.087,8.37,16.728a114.708,114.708,0,0,1-1.788,22.734A150.859,150.859,0,0,1,185,288.628c-2.268,4.556,4.571,8.576,6.847,4a158.841,158.841,0,0,0,15.392-50.159C209.111,228.176,211.347,207.817,196.186,199.729Z" transform="translate(29.321 -132.793)"/>
            </g>
          </g>
        </g>
        <g id="Grupo_162319" data-name="Grupo 162319" transform="translate(-128.027 1737.266)">
          <g id="Grupo_162315" data-name="Grupo 162315" transform="translate(136.488 188.349)" style="mix-blend-mode: overlay;isolation: isolate">
            <path id="Trazado_143614" data-name="Trazado 143614" d="M301.286,276.254c-11.947,12.225-24.293,24-36.874,35.568,5.44-12.3,11.3-24.4,16.47-36.83,5.854-14.089,12.661-33.294,5.279-48.072-16.822-33.686-59.345-.632-74.993,16.323-1.666,1.808-3.258,3.695-4.87,5.559,5.592-13.692,10.625-27.762,9.3-42.555-1.827-20.34-20.474-25.22-36.527-15.768-17.238,10.147-31.084,27.7-42.644,43.651-9.819,13.544,12.649,26.438,22.391,13.087a176.121,176.121,0,0,1,17.5-20.474q-1.395,2.555-2.819,5.1c-6.281,11.22-12.485,22.485-17.6,34.3-9.8,22.612-24.293,53.917-11.964,77.7,6.214,11.986,20.784,13.2,31.754,8.327,14.746-6.556,24.96-21.03,34.806-33.279,10.278-12.79,19.331-26.371,28.845-39.716a193.293,193.293,0,0,1,12.5-16.36c.1-.119.213-.228.317-.345l-.114.36c-2.527,7.855-5.775,15.393-9.066,22.951-6.12,14.062-14.015,28.863-16.256,44.162-1.981,13.529,3.5,28.692,19.767,27.71,15.3-.922,27.556-15.656,37.782-25.5,12.383-11.917,24.546-24.07,36.711-36.21C333.679,283.269,313.835,263.417,301.286,276.254Z" transform="translate(-131.483 -183.357)" fill="#3c384f"/>
            <path id="Trazado_143615" data-name="Trazado 143615" d="M246.525,361.658a19.438,19.438,0,0,1-14.806-6.144c-5.153-5.611-7.379-14.751-5.958-24.449,1.852-12.644,7.367-24.754,12.7-36.463,1.277-2.8,2.542-5.582,3.737-8.329,1.133-2.606,2.326-5.344,3.509-8.175q-1.086,1.514-2.15,3.01l-.7.989c-2.472,3.466-4.912,6.948-7.35,10.429-6.846,9.77-13.926,19.874-21.583,29.4-1.118,1.391-2.242,2.812-3.377,4.248-8.78,11.1-18.731,23.688-32.354,29.743-12.145,5.393-28.052,3.883-34.96-9.45-12.415-23.951.989-54.77,10.779-77.272l1.111-2.559c2.879-6.648,6.107-13.137,9.532-19.6q-1.19,1.551-2.336,3.124c-6.023,8.252-16.571,8.128-23.294,3.238-5.559-4.044-8.679-11.562-3.109-19.244,12.341-17.022,26.14-34.176,43.4-44.333,9.576-5.636,20.058-6.551,28.044-2.447,7.032,3.613,11.369,10.761,12.21,20.132.987,10.99-1.386,21.508-4.825,31.543,12.733-12.44,36.282-30.083,55.174-27.41,8.679,1.232,15.4,6.5,19.966,15.651,7.518,15.051,1.587,33.79-5.207,50.133-3.233,7.781-6.789,15.542-10.228,23.051l-1.217,2.656c10.233-9.6,19.388-18.535,27.789-27.129v0c4.153-4.253,9.43-5.815,14.843-4.409a18.27,18.27,0,0,1,12.641,12.549,15.033,15.033,0,0,1-4.27,15.036l-1.384,1.379c-11.518,11.5-23.427,23.383-35.359,34.861-1.47,1.416-2.98,2.931-4.538,4.493-9.264,9.286-20.792,20.846-34.814,21.692C247.589,361.643,247.053,361.658,246.525,361.658Zm7.114-100.08a2.341,2.341,0,0,1,1.2.32,2.412,2.412,0,0,1,1.17,2.814l-.117.362c-2.648,8.237-6.1,16.175-9.15,23.177-1.208,2.775-2.485,5.577-3.771,8.4-5.187,11.4-10.553,23.179-12.3,35.129-1.188,8.113.615,15.922,4.7,20.375,3.033,3.3,7.218,4.8,12.458,4.5,12.14-.734,22.48-11.1,31.6-20.246,1.582-1.585,3.117-3.124,4.61-4.563,11.9-11.448,23.794-23.318,35.3-34.8l1.381-1.379a10.085,10.085,0,0,0,2.988-10.226,13.348,13.348,0,0,0-9.1-9.048c-2.566-.67-6.388-.674-10.047,3.072v0c-10.853,11.1-22.946,22.765-36.974,35.657a2.48,2.48,0,0,1-3.945-2.829c2.056-4.649,4.173-9.269,6.291-13.888,3.419-7.469,6.958-15.19,10.156-22.889,6.365-15.309,11.977-32.748,5.351-46.012-3.851-7.717-9.16-11.954-16.229-12.956-17.613-2.495-42.382,16.48-54.723,29.855-1.317,1.423-2.584,2.9-3.853,4.379l-.96,1.118a2.48,2.48,0,0,1-4.173-2.556c5.324-13.043,10.414-26.983,9.12-41.4-.694-7.724-3.992-13.313-9.537-16.162-6.467-3.323-15.163-2.457-23.264,2.309-16.47,9.7-29.869,26.383-41.9,42.972-3.8,5.242-1.453,9.8,2.011,12.324,4.691,3.409,12.021,3.811,16.37-2.152a179.573,179.573,0,0,1,17.749-20.764,2.481,2.481,0,0,1,3.935,2.938q-1.4,2.566-2.834,5.123c-6.358,11.362-12.482,22.517-17.489,34.07l-1.113,2.564c-9.393,21.59-22.252,51.159-10.925,73.012,5.5,10.615,18.525,11.652,28.545,7.2,12.5-5.557,21.642-17.112,30.477-28.287,1.143-1.443,2.276-2.876,3.4-4.277,7.553-9.4,14.583-19.435,21.384-29.14q3.667-5.237,7.372-10.461l.7-.987a184.479,184.479,0,0,1,11.962-15.582l.221-.241A2.707,2.707,0,0,1,253.639,261.578Zm49.146,16.16h0Z" transform="translate(-132.979 -184.841)" fill="#3c384f"/>
            <path id="Trazado_143616" data-name="Trazado 143616" d="M148.9,224.026c-9.135,18.359-14.29,39.882-6.264,59.615,1.185,2.919,5.983,1.641,4.781-1.319-7.533-18.528-2.827-38.526,5.765-55.794C154.6,223.682,150.327,221.165,148.9,224.026Z" transform="translate(-124.572 -128.727)" fill="#3c384f"/>
            <path id="Trazado_143617" data-name="Trazado 143617" d="M150.374,252.394c-.042,0-.082-.017-.121-.025-.069-.134-.131-.28-.154-.32l-.012-.015c0-.02,0,0,0-.035-.32-1.108-.548-2.229-.791-3.357q-.841-3.924-1.684-7.848a2.5,2.5,0,0,0-3.05-1.731,2.538,2.538,0,0,0-1.733,3.05q.952,4.437,1.907,8.877c.528,2.462,1.374,5.693,4.324,6.187a2.54,2.54,0,0,0,3.05-1.733A2.508,2.508,0,0,0,150.374,252.394Z" transform="translate(-118.512 -104.757)" fill="#3c384f"/>
            <path id="Trazado_143618" data-name="Trazado 143618" d="M194.2,201.911c-2.814-1.5-5.321,2.777-2.5,4.282,3.893,2.078,5.081,6.308,5.234,10.464a71.716,71.716,0,0,1-1.118,14.216,94.346,94.346,0,0,1-8.607,26.636c-1.416,2.849,2.859,5.363,4.282,2.5a99.237,99.237,0,0,0,9.626-31.37C202.281,219.7,203.68,206.972,194.2,201.911Z" transform="translate(-53.166 -160.049)" fill="#3c384f"/>
          </g>
          <g id="Grupo_162318" data-name="Grupo 162318" transform="translate(130.608 182.47)">
            <g id="Grupo_162317" data-name="Grupo 162317">
              <g id="Grupo_162316" data-name="Grupo 162316">
                <path id="Trazado_143619" data-name="Trazado 143619" d="M298.916,273.883c-11.947,12.224-24.293,24-36.877,35.565,5.44-12.3,11.307-24.4,16.472-36.827,5.854-14.089,12.659-33.294,5.279-48.072-16.822-33.686-59.345-.635-74.993,16.323-1.669,1.805-3.258,3.692-4.87,5.559,5.589-13.692,10.623-27.762,9.3-42.555-1.827-20.34-20.474-25.22-36.527-15.77-17.241,10.149-31.084,27.707-42.647,43.654C124.23,245.3,146.7,258.2,156.442,244.847a176.349,176.349,0,0,1,17.5-20.477q-1.395,2.555-2.817,5.1c-6.281,11.22-12.485,22.485-17.6,34.293-9.8,22.614-24.293,53.917-11.964,77.7,6.214,11.986,20.782,13.2,31.754,8.327,14.746-6.556,24.96-21.03,34.806-33.279,10.278-12.79,19.329-26.371,28.843-39.716a194.791,194.791,0,0,1,12.5-16.363c.1-.117.216-.226.32-.345l-.114.362c-2.527,7.855-5.778,15.393-9.065,22.951-6.122,14.059-14.015,28.86-16.256,44.162-1.984,13.529,3.5,28.692,19.768,27.71,15.294-.922,27.553-15.656,37.779-25.5,12.386-11.917,24.548-24.072,36.713-36.212C331.307,280.9,311.463,261.047,298.916,273.883Z" transform="translate(-129.113 -180.986)" fill="#6b8dff"/>
                <path id="Trazado_143620" data-name="Trazado 143620" d="M244.151,359.284a19.43,19.43,0,0,1-14.8-6.142c-5.153-5.611-7.379-14.751-5.959-24.452,1.85-12.641,7.364-24.751,12.7-36.463,1.275-2.8,2.539-5.579,3.737-8.326,1.133-2.606,2.326-5.344,3.509-8.175-.724,1.007-1.441,2.013-2.15,3.01l-.7.987c-2.472,3.467-4.912,6.95-7.352,10.429-6.844,9.772-13.923,19.877-21.58,29.4q-1.677,2.09-3.377,4.25c-8.78,11.1-18.731,23.685-32.354,29.743-12.148,5.393-28.052,3.881-34.96-9.452-12.415-23.948.989-54.767,10.776-77.272l1.113-2.557c2.879-6.648,6.107-13.137,9.529-19.6q-1.187,1.551-2.336,3.122c-6.02,8.255-16.569,8.131-23.291,3.241-5.559-4.044-8.679-11.562-3.109-19.244,12.341-17.023,26.14-34.176,43.393-44.335,9.579-5.634,20.058-6.549,28.047-2.445,7.032,3.613,11.367,10.759,12.21,20.13.987,10.99-1.386,21.511-4.828,31.543,12.735-12.438,36.282-30.08,55.174-27.407,8.679,1.232,15.4,6.5,19.968,15.651,7.516,15.051,1.584,33.787-5.207,50.133-3.233,7.779-6.789,15.542-10.228,23.048l-1.217,2.656c10.233-9.594,19.388-18.533,27.789-27.127h0c4.153-4.253,9.43-5.812,14.843-4.406a18.262,18.262,0,0,1,12.639,12.549,15.022,15.022,0,0,1-4.267,15.034l-1.384,1.381c-11.518,11.5-23.427,23.38-35.359,34.861-1.47,1.416-2.98,2.931-4.54,4.493-9.261,9.286-20.789,20.846-34.811,21.692C245.215,359.27,244.682,359.284,244.151,359.284Zm7.114-100.08a2.337,2.337,0,0,1,1.2.322,2.409,2.409,0,0,1,1.173,2.814l-.117.362c-2.648,8.235-6.1,16.175-9.15,23.177-1.208,2.772-2.485,5.574-3.772,8.4-5.19,11.4-10.556,23.179-12.306,35.126-1.188,8.113.615,15.922,4.706,20.377,3.03,3.3,7.218,4.8,12.458,4.5,12.14-.734,22.48-11.1,31.6-20.246,1.582-1.587,3.119-3.127,4.612-4.562,11.9-11.448,23.794-23.318,35.3-34.8l1.381-1.381a10.08,10.08,0,0,0,2.985-10.226,13.34,13.34,0,0,0-9.1-9.046c-2.564-.67-6.385-.674-10.045,3.072h0c-10.853,11.1-22.946,22.765-36.973,35.659a2.48,2.48,0,0,1-3.945-2.829c2.056-4.649,4.173-9.269,6.288-13.891,3.422-7.466,6.958-15.188,10.159-22.887,6.363-15.309,11.977-32.748,5.351-46.014-3.853-7.714-9.162-11.952-16.229-12.956-17.613-2.492-42.384,16.482-54.725,29.855-1.314,1.426-2.581,2.9-3.851,4.379l-.962,1.121a2.48,2.48,0,0,1-4.173-2.559c5.326-13.04,10.417-26.983,9.122-41.4-.694-7.726-3.992-13.316-9.537-16.165-6.469-3.32-15.163-2.455-23.264,2.311-16.472,9.7-29.869,26.383-41.9,42.972-3.8,5.242-1.453,9.8,2.011,12.321,4.691,3.412,12.021,3.814,16.37-2.15a179.125,179.125,0,0,1,17.749-20.764,2.479,2.479,0,0,1,3.933,2.936q-1.4,2.57-2.832,5.125c-6.36,11.362-12.482,22.517-17.491,34.07L156.18,268.8c-9.39,21.59-22.25,51.159-10.923,73.01,5.5,10.618,18.525,11.654,28.545,7.2,12.5-5.557,21.642-17.114,30.477-28.287q1.715-2.168,3.4-4.28c7.555-9.4,14.585-19.433,21.387-29.138,2.445-3.491,4.892-6.985,7.372-10.464l.7-.984A184.562,184.562,0,0,1,249.1,260.278l.223-.241A2.7,2.7,0,0,1,251.265,259.2Zm49.146,16.162h0Z" transform="translate(-130.608 -182.47)"/>
              </g>
              <path id="Trazado_143621" data-name="Trazado 143621" d="M146.533,221.656c-9.137,18.359-14.29,39.88-6.266,59.615,1.188,2.916,5.986,1.641,4.783-1.319-7.536-18.53-2.829-38.526,5.765-55.794C152.231,221.309,147.957,218.794,146.533,221.656Z" transform="translate(-122.202 -126.356)"/>
              <path id="Trazado_143622" data-name="Trazado 143622" d="M148,250.023c-.042,0-.082-.017-.121-.025-.069-.136-.134-.28-.156-.32l-.01-.015c0-.02,0-.007,0-.037-.32-1.106-.55-2.229-.791-3.355q-.844-3.924-1.684-7.848a2.5,2.5,0,0,0-3.052-1.731,2.537,2.537,0,0,0-1.731,3.05l1.9,8.875c.531,2.465,1.376,5.7,4.327,6.189a2.542,2.542,0,0,0,3.05-1.733A2.51,2.51,0,0,0,148,250.023Z" transform="translate(-116.141 -102.385)"/>
              <path id="Trazado_143623" data-name="Trazado 143623" d="M191.827,199.54c-2.814-1.5-5.324,2.777-2.5,4.282,3.893,2.078,5.078,6.308,5.234,10.462a71.739,71.739,0,0,1-1.118,14.218,94.347,94.347,0,0,1-8.607,26.636c-1.418,2.849,2.859,5.363,4.282,2.5a99.34,99.34,0,0,0,9.626-31.37C199.911,217.331,201.309,204.6,191.827,199.54Z" transform="translate(-50.795 -157.678)"/>
            </g>
          </g>
        </g>
      </g>
    </g>
  </g>
</svg>
