<svg xmlns="http://www.w3.org/2000/svg" xmlns:xlink="http://www.w3.org/1999/xlink" width="105" height="105" viewBox="0 0 105 105">
  <defs>
    <clipPath id="clip-path">
      <rect id="Rectángulo_42901" data-name="Rectángulo 42901" width="84" height="42.696" fill="none"/>
    </clipPath>
  </defs>
  <g id="Grupo_170104" data-name="Grupo 170104" transform="translate(-536 -2853)">
    <path id="Trazado_164412" data-name="Trazado 164412" d="M52.5,0A52.5,52.5,0,1,1,0,52.5,52.5,52.5,0,0,1,52.5,0Z" transform="translate(536 2853)" fill="#e1e8ff"/>
    <g id="Grupo_170103" data-name="Grupo 170103" transform="translate(547 2884)">
      <g id="Grupo_170102" data-name="Grupo 170102" transform="translate(0 0)" clip-path="url(#clip-path)">
        <path id="Trazado_164733" data-name="Trazado 164733" d="M8.534,41.213,1.611,22.735C1.149,21.5.681,20.278.226,19.046c-.382-1.037-.132-1.375,1.022-1.375,3.4,0,6.807-.015,10.209.012a1.715,1.715,0,0,0,1.353-.564c3.475-3.505,6.982-6.979,10.452-10.487a2.141,2.141,0,0,1,1.756-.75c1.254.059,2.515-.021,3.77.032.6.026.7-.181.689-.723-.037-1.378,0-2.758-.019-4.137C29.446.313,29.757,0,30.5,0c1.778.021,3.556.018,5.335,0,.7-.006,1,.311.992,1-.014,1.441.01,2.882-.013,4.322-.007.423.085.592.549.577,1.1-.034,2.208-.046,3.31,0,.552.025.576-.23.571-.648-.017-1.349-.009-2.7-.005-4.047,0-1.062.148-1.2,1.239-1.2q2.438,0,4.875,0c1.122,0,1.241.127,1.243,1.292,0,1.318.027,2.636-.012,3.954-.015.531.153.669.665.65,1.041-.038,2.085-.042,3.126,0,.535.022.661-.159.648-.667-.034-1.378.01-2.759-.02-4.137-.017-.78.291-1.115,1.084-1.1,1.747.027,3.495.024,5.242,0,.744-.01,1.058.3,1.046,1.043-.021,1.379.018,2.76-.018,4.138-.014.532.075.764.685.727a25.431,25.431,0,0,1,2.941,0c.62.034.849-.105.819-.781-.059-1.346,0-2.7-.025-4.045-.018-.8.325-1.1,1.1-1.083,1.716.027,3.434.034,5.15,0,.849-.018,1.142.345,1.122,1.159-.035,1.378.011,2.759-.021,4.138-.011.482.132.7.608.6,1.75-.376,2.412.562,2.972,2.08,1.48,4.011,3.151,7.951,4.721,11.929.207.526.452.8,1.054.721.483-.059.98,0,1.47-.014.782-.019,1.036.391.934,1.11q-.568,3.955-1.135,7.91-.782,5.408-1.579,10.815c-.08.538-.045.877.644.778a8.321,8.321,0,0,1,1.194-.01c.87,0,1.143.382.9,1.217-.052.182-.126.253-.3.253-.215,0-.43,0-.644,0q-41.019,0-82.038.012c-.658,0-.987-.077-.929-.861.04-.541.2-.637.691-.634,2.574.022,5.149.011,7.837.011" transform="translate(0 0)"/>
        <path id="Trazado_164734" data-name="Trazado 164734" d="M10.375,46.27q-1.649-4.376-3.3-8.752c-.174-.459-.366-.813.46-.812q36.252.032,72.5.023c.061,0,.122.012.183.018a1.231,1.231,0,0,1,.2,1.129c-.254,1.851-.492,3.7-.8,5.547a3.312,3.312,0,0,1-3.706,3.152c-6.555.018-13.111.007-19.666.007q-22.054,0-44.109,0a2.529,2.529,0,0,1-1.768-.308" transform="translate(-1.651 -8.754)" fill="#425b72"/>
        <path id="Trazado_164735" data-name="Trazado 164735" d="M20.314,18.86c.985-1,1.985-1.994,2.947-3.019a1.173,1.173,0,0,1,1.007-.282c3.341,0,6.681-.016,10.022.012.586,0,.775-.129.768-.744-.006-.592-.151-.764-.758-.756-2.727.035-5.456.015-8.183.015H25c1.52-1.508,2.885-2.85,4.234-4.208.315-.316.687-.2,1.036-.2q21.744-.009,43.489,0c.52,0,1.04.018,1.561.027a1.531,1.531,0,0,1,.755.993c.542,1.334,1.09,2.667,1.6,4.015,1,2.653-.452,4.8-3.3,4.81-6.988.027-13.976.009-20.964.009H22.139a6.117,6.117,0,0,1-1.283-.051c-.308-.067-.734-.085-.542-.615" transform="translate(-4.833 -2.303)" fill="#eceaf0"/>
        <path id="Trazado_164736" data-name="Trazado 164736" d="M79.527,32.46c-.367.009-.735.027-1.1.027q-36.046,0-72.093.022a1.376,1.376,0,0,1-1.571-1.084c-.706-2.077-1.519-4.118-2.288-6.168a1.723,1.723,0,0,1,.969-.123c4.812-.005,9.624.006,14.436-.016a1.548,1.548,0,0,1,1.435.6c1.394,2,3.287,2.422,5.686,2.408,17.931-.105,35.862-.058,53.794-.056.429,0,.857.018,1.286.027a.919.919,0,0,1,.126.873,13.058,13.058,0,0,1-.678,3.486" transform="translate(-0.59 -5.99)" fill="#425b72"/>
        <path id="Trazado_164737" data-name="Trazado 164737" d="M11.456,46.274q5.513.008,11.025.016c17.946,0,35.893-.023,53.839.029,2.376.008,3.923-.639,4.175-3.336.194-2.085.68-4.135.807-6.231.8-.008,1.593-.01,2.389-.027.4-.009.5.105.436.541-.509,3.407-.981,6.82-1.465,10.23a9.933,9.933,0,0,0-.22,1.63c.019.707-.262.857-.923.857q-33.925-.024-67.851,0a1.013,1.013,0,0,1-1.142-.781c-.326-.986-.71-1.953-1.07-2.928" transform="translate(-2.732 -8.758)" fill="#2e4456"/>
        <path id="Trazado_164738" data-name="Trazado 164738" d="M19.964,18.833a.376.376,0,0,0,.427.374c.244,0,.49,0,.734,0,17.606,0,35.212-.034,52.817.04,2.334.009,4.3-2.009,3.052-4.674-.748-1.6-1.356-3.266-2.026-4.9,1.071,0,2.3-.335,3.171.079.9.426.942,1.817,1.342,2.787,1.305,3.163,2.55,6.352,3.816,9.531.1.248.184.5.3.817h-.978q-27.765,0-55.529.014a1.705,1.705,0,0,1-1.586-.666,5.153,5.153,0,0,0-5.52-2.3,8.072,8.072,0,0,1-1.186.008l1.167-1.112" transform="translate(-4.482 -2.276)" fill="#cbcad2"/>
        <path id="Trazado_164739" data-name="Trazado 164739" d="M42.824,1.975c2.212-.116,2.23-.115,2.2,2.083-.009.748.35,1.741-.171,2.174-.439.365-1.394.123-2.121.125-2.2.007-2.2,0-2.084-2.21a.547.547,0,0,1,.308-.175,1.57,1.57,0,0,0,1.689-1.689.55.55,0,0,1,.176-.308" transform="translate(-9.685 -0.462)" fill="#d74561"/>
        <path id="Trazado_164740" data-name="Trazado 164740" d="M58.283,1.975c2.212-.116,2.23-.115,2.2,2.083-.009.748.35,1.741-.171,2.174-.439.365-1.394.123-2.121.125-2.2.007-2.2,0-2.084-2.21a.547.547,0,0,1,.308-.175,1.57,1.57,0,0,0,1.689-1.689.55.55,0,0,1,.176-.308" transform="translate(-13.371 -0.462)" fill="#d74561"/>
        <path id="Trazado_164741" data-name="Trazado 164741" d="M73.742,1.975c2.212-.116,2.23-.115,2.2,2.083-.009.748.35,1.741-.171,2.174-.439.365-1.394.123-2.121.125-2.2.007-2.2,0-2.084-2.21a.547.547,0,0,1,.308-.175,1.57,1.57,0,0,0,1.689-1.689.55.55,0,0,1,.176-.308" transform="translate(-17.058 -0.462)" fill="#d74561"/>
        <path id="Trazado_164742" data-name="Trazado 164742" d="M89.2,1.975c2.212-.116,2.23-.115,2.2,2.083-.009.748.35,1.741-.171,2.174-.439.365-1.394.123-2.121.125-2.2.007-2.2,0-2.084-2.21a.547.547,0,0,1,.308-.175,1.57,1.57,0,0,0,1.689-1.689.55.55,0,0,1,.176-.308" transform="translate(-20.744 -0.462)" fill="#d74561"/>
        <path id="Trazado_164743" data-name="Trazado 164743" d="M103.656,33.382c.04-1.471.375-2.905.552-4.36.7-.008,1.406.005,2.106-.034.527-.029.738.171.656.689-.166,1.05-.35,2.1-.485,3.154-.06.471-.277.608-.722.586-.7-.035-1.4-.025-2.106-.034" transform="translate(-24.719 -6.912)" fill="#2e4456"/>
        <path id="Trazado_164744" data-name="Trazado 164744" d="M42.824,1.974c.014,1.812-.361,2.186-2.173,2.172-.12-2.291-.12-2.291,2.173-2.172" transform="translate(-9.684 -0.461)" fill="#f16573"/>
        <path id="Trazado_164745" data-name="Trazado 164745" d="M58.283,1.974c.014,1.812-.361,2.186-2.173,2.172-.12-2.291-.12-2.291,2.173-2.172" transform="translate(-13.371 -0.461)" fill="#f16573"/>
        <path id="Trazado_164746" data-name="Trazado 164746" d="M73.742,1.974c.014,1.812-.361,2.186-2.173,2.172-.12-2.291-.12-2.291,2.173-2.172" transform="translate(-17.057 -0.461)" fill="#f16573"/>
        <path id="Trazado_164747" data-name="Trazado 164747" d="M89.2,1.974c.014,1.812-.361,2.186-2.173,2.172-.12-2.291-.12-2.291,2.173-2.172" transform="translate(-20.744 -0.461)" fill="#f16573"/>
        <path id="Trazado_164748" data-name="Trazado 164748" d="M44.922,16.936a5.467,5.467,0,0,0-.642,0c-.546.065-.794-.056-.8-.711,0-.673.212-.843.831-.774a5.844,5.844,0,0,0,1.375,0c.673-.086.787.195.793.81s-.2.745-.736.679a6.629,6.629,0,0,0-.826-.006" transform="translate(-10.37 -3.682)"/>
        <path id="Trazado_164749" data-name="Trazado 164749" d="M52.656,16.936a5.82,5.82,0,0,0-.642,0c-.538.061-.8-.042-.8-.707s.2-.851.826-.779a5.764,5.764,0,0,0,1.375,0c.666-.084.8.181.8.806,0,.593-.187.755-.73.683a6.346,6.346,0,0,0-.826-.006" transform="translate(-12.213 -3.682)"/>
        <path id="Trazado_164750" data-name="Trazado 164750" d="M60.45,15.465a4.877,4.877,0,0,0,.642,0c.59-.081.838.056.848.754.009.75-.334.768-.877.727-.4-.029-.8,0-1.193-.005-.944,0-1.055-.158-.916-1.119.041-.279.137-.362.394-.354.367.011.735,0,1.1,0" transform="translate(-14.047 -3.682)"/>
        <path id="Trazado_164751" data-name="Trazado 164751" d="M68.265,15.465a4.3,4.3,0,0,0,.642-.005c.592-.088.769.131.765.738s-.152.815-.758.749a7.1,7.1,0,0,0-1.467,0c-.595.061-.769-.136-.765-.742s.153-.833.758-.746a5.737,5.737,0,0,0,.826.007" transform="translate(-15.901 -3.682)"/>
        <path id="Trazado_164752" data-name="Trazado 164752" d="M75.863,16.938a4.01,4.01,0,0,0-.642.005c-.637.1-.809-.131-.818-.781-.01-.681.282-.737.808-.7a8.824,8.824,0,0,0,1.467,0c.56-.057.714.118.722.695.008.638-.152.9-.8.794a4.709,4.709,0,0,0-.733-.006" transform="translate(-17.743 -3.683)"/>
        <path id="Trazado_164753" data-name="Trazado 164753" d="M83.6,16.939a4.2,4.2,0,0,0-.642.005c-.624.1-.822-.11-.826-.774s.263-.752.8-.709c.426.034.856.006,1.285.007.842,0,1.134.425.891,1.231-.076.253-.23.237-.407.238-.367,0-.735,0-1.1,0" transform="translate(-19.586 -3.685)"/>
        <path id="Trazado_164754" data-name="Trazado 164754" d="M91.288,16.937a4.749,4.749,0,0,0-.642,0c-.571.078-.794-.1-.776-.726.017-.57.117-.835.747-.761a7.152,7.152,0,0,0,1.467,0c.573-.053.8.1.777.73-.017.57-.12.854-.747.757a5.424,5.424,0,0,0-.826-.007" transform="translate(-21.431 -3.683)"/>
      </g>
    </g>
  </g>
</svg>
