<svg xmlns="http://www.w3.org/2000/svg" xmlns:xlink="http://www.w3.org/1999/xlink" width="85" height="85" viewBox="0 0 85 85">
  <defs>
    <clipPath id="clip-path">
      <rect id="Rectángulo_42672" data-name="Rectángulo 42672" width="51" height="61.946" fill="none"/>
    </clipPath>
  </defs>
  <g id="Grupo_169610" data-name="Grupo 169610" transform="translate(-495 -3896)">
    <circle id="Elipse_4855" data-name="Elipse 4855" cx="42.5" cy="42.5" r="42.5" transform="translate(495 3896)" fill="#6b8dfc"/>
    <g id="Grupo_169609" data-name="Grupo 169609" transform="translate(512 3908)">
      <g id="Grupo_169608" data-name="Grupo 169608" transform="translate(0 0)" clip-path="url(#clip-path)">
        <path id="Trazado_161593" data-name="Trazado 161593" d="M39.676,6.442a1.08,1.08,0,0,1-1.018-.2A23.64,23.64,0,0,0,5.585,15.46,24.193,24.193,0,0,0,2.821,26.767c0,3.545-.017,7.092,0,10.637a23.669,23.669,0,1,0,47.339-.021c.019-3.586.039-7.172,0-10.758a23.542,23.542,0,0,0-7.7-17.548c-.074-.069-.149-.135-.221-.206-.471-.475-.519-.976-.133-1.377a.956.956,0,0,1,.17-.141A24.034,24.034,0,0,1,40.23,5.367a.891.891,0,0,1-.554,1.075m6.54,16.716a19.848,19.848,0,0,1,.3,3.485c-.021,4.069.206,8.146-.089,12.2A19.139,19.139,0,0,1,36.618,54.7a19.951,19.951,0,0,1-29.5-12.225,20.715,20.715,0,0,1-.647-5.257c-.008-1.732,0-3.465,0-5.622.045-1.871-.1-4.17.076-6.462a19.557,19.557,0,0,1,7.322-14.095,19.361,19.361,0,0,1,13.052-4.51,20.019,20.019,0,0,1,19.3,16.631" transform="translate(-0.995 -1.008)" fill="#612d2d"/>
        <path id="Trazado_161594" data-name="Trazado 161594" d="M50.979,25.544A25.373,25.373,0,0,0,44.258,8.3c-.565-.627-1.186-1.206-1.807-1.779a.9.9,0,0,0-1.168-.176c.058.051.113.107.172.156-.459.23-.528.753-.127,1.209.491.559,1.068,1.03,1.578,1.575a23.56,23.56,0,0,1,6.2,13.049,25.323,25.323,0,0,1,.25,3.731c-.013,3.344,0,6.688,0,10.033A23.941,23.941,0,0,1,33.293,58.974a22.451,22.451,0,0,1-8.786,1.306,23.969,23.969,0,0,1-22-17.548,23.906,23.906,0,0,1-.855-6.205q-.029-5.348,0-10.7A23.447,23.447,0,0,1,6.649,11,23.39,23.39,0,0,1,22.227,1.939,23.433,23.433,0,0,1,37.515,4.953a3.748,3.748,0,0,0,.429.222c.469.193.861.093,1.044-.281a.641.641,0,0,0-.092-.759l.15.027c.061.069.128.131.19.2a1.2,1.2,0,0,0-.635-.686A24.872,24.872,0,0,0,16.727,1.639,25.34,25.34,0,0,0,.02,25.546q-.042,5.439,0,10.879A24.989,24.989,0,0,0,5.453,52.142,25.121,25.121,0,0,0,20.814,61.5a17.085,17.085,0,0,1,2.512.442h4.109c.056-.161.2-.1.305-.111a19.173,19.173,0,0,0,2.924-.416A25.526,25.526,0,0,0,50.986,36.181c.007-3.545.032-7.092-.006-10.637" transform="translate(0 0)"/>
        <path id="Trazado_161595" data-name="Trazado 161595" d="M39.792,5.061a.641.641,0,0,1,.092.759c-.182.374-.576.474-1.044.281a3.687,3.687,0,0,1-.429-.222A23.435,23.435,0,0,0,23.123,2.865,23.39,23.39,0,0,0,7.546,11.924a23.446,23.446,0,0,0-5,14.832q-.018,5.348,0,10.7a23.934,23.934,0,0,0,.855,6.205,23.97,23.97,0,0,0,22,17.548A22.456,22.456,0,0,0,34.19,59.9,23.941,23.941,0,0,0,50.248,37.025c0-3.344-.008-6.689.005-10.033A25.324,25.324,0,0,0,50,23.262a23.555,23.555,0,0,0-6.2-13.049c-.51-.545-1.088-1.017-1.579-1.575-.4-.457-.332-.979.127-1.209-.059-.05-.114-.105-.173-.156a1.041,1.041,0,0,0-.17.141c-.386.4-.338.9.133,1.377.071.072.147.138.221.206a23.543,23.543,0,0,1,7.7,17.548c.043,3.586.023,7.172,0,10.758a23.669,23.669,0,1,1-47.338.021c-.021-3.545,0-7.091,0-10.637A24.184,24.184,0,0,1,5.487,15.379,23.639,23.639,0,0,1,38.56,6.157a1.081,1.081,0,0,0,1.019.2.891.891,0,0,0,.553-1.075c-.062-.067-.129-.13-.19-.2l-.15-.027" transform="translate(-0.897 -0.926)"/>
        <path id="Trazado_161596" data-name="Trazado 161596" d="M15.856,13.042A19.561,19.561,0,0,0,8.534,27.137c-.176,2.292-.031,4.591-.076,6.462,0,2.157-.006,3.889,0,5.622a20.657,20.657,0,0,0,.647,5.257A19.951,19.951,0,0,0,38.608,56.7a19.138,19.138,0,0,0,9.806-15.85c.3-4.058.068-8.135.09-12.2A20.081,20.081,0,0,0,28.909,8.533a19.364,19.364,0,0,0-13.052,4.51m29.554,8.8A19.564,19.564,0,0,1,46.7,29.582c-.006.327-.116.411-.422.4-.845-.016-1.691-.005-2.537-.006-.786,0-1.571.014-2.356,0a2.8,2.8,0,0,1-2.867-2.411,2.736,2.736,0,0,1,2.242-3.093,1.129,1.129,0,0,0,.878-1.011,2.739,2.739,0,0,1,3.087-2.169.743.743,0,0,1,.686.546m-1.353-2.711c.047.082.083.171.145.3a4.641,4.641,0,0,0-4.209,3.128.575.575,0,0,1-.36.352,4.6,4.6,0,0,0,1.86,8.883q2.356.02,4.713,0c.337,0,.508.038.5.449-.057,2.92.081,5.842-.091,8.761a16.635,16.635,0,0,1-.524,3.1c-.272-.021-.407-.244-.581-.4Q39.847,38.7,34.19,33.7a9.135,9.135,0,0,0-6.337-2.382c-1.853.016-3.706.009-5.558,0a4.041,4.041,0,0,0-3.88,2.288A4.087,4.087,0,0,0,18.8,38.1c.657.929,1.311,1.86,2,2.838a3.292,3.292,0,0,0-3.1,2.521,6.628,6.628,0,0,0,0,3.114,3.237,3.237,0,0,0,3.291,2.49c1.692.019,3.384.014,5.075,0a.8.8,0,0,1,.791.4c.3.478.64.927.972,1.382s.733.638,1.118.506L27.6,49.5l1.346,1.847a.98.98,0,0,0,.264-.135c.455-.328.495-.855.084-1.436q-4.181-5.913-8.37-11.821c-.256-.361-.519-.718-.76-1.088a2.3,2.3,0,0,1-.131-2.462,2.248,2.248,0,0,1,2.1-1.273c1.994,0,3.988-.007,5.982,0a7.3,7.3,0,0,1,4.927,1.966q3.958,3.5,7.923,7c1.343,1.187,2.675,2.387,4.037,3.552a.679.679,0,0,1,.233.951,18.373,18.373,0,0,1-10.573,10c-.368.141-.524.039-.718-.247-.6-.881-1.227-1.745-1.843-2.615-.508-.717-.984-.894-1.484-.553a.962.962,0,0,0-.2.182L32.262,55.9l-1.839-2.524c-.285.338-.226.808.186,1.393l1.74,2.467a14.211,14.211,0,0,1-3.3.439A18.275,18.275,0,0,1,10.855,44.032a19.058,19.058,0,0,1-.582-4.783c-.007-3.485-.014-6.971,0-10.456a18.208,18.208,0,0,1,33.785-9.665M20.879,42.791c.321-.019.643,0,.965-.01a.487.487,0,0,1,.449.239c.969,1.38,1.942,2.756,2.983,4.23-1.547,0-2.971.028-4.393-.01a1.457,1.457,0,0,1-1.489-1.558c-.014-.462-.016-.926,0-1.388a1.471,1.471,0,0,1,1.483-1.5" transform="translate(-2.984 -3.014)"/>
        <path id="Trazado_161597" data-name="Trazado 161597" d="M25.64,11.735A18.206,18.206,0,0,0,11.268,29.773q-.019,5.228,0,10.456a19.088,19.088,0,0,0,.583,4.783A18.276,18.276,0,0,0,30.038,58.659a14.2,14.2,0,0,0,3.3-.44c-.605-.858-1.173-1.662-1.739-2.466-.413-.586-.471-1.056-.186-1.394L29.94,52.331c-.384.131-.776-.037-1.118-.506s-.676-.9-.971-1.382a.8.8,0,0,0-.792-.4c-1.692.016-3.384.022-5.075,0a3.238,3.238,0,0,1-3.291-2.491,6.617,6.617,0,0,1,0-3.114,3.292,3.292,0,0,1,3.1-2.522c-.69-.978-1.344-1.909-2-2.837a4.09,4.09,0,0,1-.39-4.493,4.041,4.041,0,0,1,3.88-2.288c1.853.008,3.706.015,5.559,0a9.138,9.138,0,0,1,6.337,2.382q5.658,5,11.321,10c.174.153.31.377.581.4a16.591,16.591,0,0,0,.524-3.1c.173-2.919.035-5.841.091-8.761.008-.411-.163-.452-.5-.449q-2.356.02-4.713,0a4.6,4.6,0,0,1-1.861-8.882.572.572,0,0,0,.36-.352A4.643,4.643,0,0,1,45.2,20.409c-.061-.129-.1-.219-.145-.3A18.228,18.228,0,0,0,25.64,11.735m5.41,10.908a4.108,4.108,0,0,1-3.98,3.245c-.885.028-1.771,0-2.886,0a29.043,29.043,0,0,1-3.028-.066,4.075,4.075,0,0,1-1.126-7.743,1.164,1.164,0,0,0,.628-.648,4.079,4.079,0,0,1,7.494.026,1.015,1.015,0,0,0,.528.59,4.024,4.024,0,0,1,2.37,4.591" transform="translate(-3.979 -3.994)" fill="#a3d3fe"/>
        <path id="Trazado_161598" data-name="Trazado 161598" d="M36.792,66.643c.5-.341.976-.164,1.484.554.616.87,1.243,1.733,1.842,2.614.2.286.351.388.719.247a18.374,18.374,0,0,0,10.573-10,.68.68,0,0,0-.233-.952c-1.362-1.165-2.694-2.365-4.037-3.551q-3.962-3.5-7.923-7a7.307,7.307,0,0,0-4.928-1.966c-1.994-.01-3.988-.006-5.981,0a2.247,2.247,0,0,0-2.1,1.273,2.3,2.3,0,0,0,.131,2.461c.241.371.5.727.76,1.088q4.185,5.91,8.37,11.822c.411.58.371,1.106-.084,1.435a.974.974,0,0,1-.264.134l1.478,2.028a.984.984,0,0,1,.2-.182" transform="translate(-9.155 -16.46)" fill="#9c9c9c"/>
        <path id="Trazado_161599" data-name="Trazado 161599" d="M58.06,30.427a1.129,1.129,0,0,1-.878,1.011,2.736,2.736,0,0,0-2.242,3.093,2.8,2.8,0,0,0,2.867,2.411c.784.017,1.57,0,2.356,0,.846,0,1.692-.01,2.537.006.307.006.416-.078.422-.4A19.564,19.564,0,0,0,61.833,28.8a.743.743,0,0,0-.686-.546,2.739,2.739,0,0,0-3.087,2.169" transform="translate(-19.406 -9.979)" fill="#fefefe"/>
        <path id="Trazado_161600" data-name="Trazado 161600" d="M25.372,64.4a1.457,1.457,0,0,0,1.489,1.558c1.422.039,2.846.01,4.393.01-1.041-1.474-2.014-2.85-2.984-4.23a.485.485,0,0,0-.448-.239c-.321.012-.644-.009-.965.01a1.471,1.471,0,0,0-1.483,1.5c-.019.462-.017.925,0,1.388" transform="translate(-8.962 -21.731)" fill="#5c5c5c"/>
        <path id="Trazado_161601" data-name="Trazado 161601" d="M31.637,19.473a4.079,4.079,0,0,0-7.493-.026,1.166,1.166,0,0,1-.628.648,4.075,4.075,0,0,0,1.126,7.742,29.237,29.237,0,0,0,3.028.067c1.115,0,2,.023,2.886-.005a4.107,4.107,0,0,0,3.98-3.245,4.024,4.024,0,0,0-2.37-4.591,1.015,1.015,0,0,1-.529-.59M32.814,24a2.314,2.314,0,0,1-2.391,2.087c-.844.014-1.688,0-2.533,0-.824,0-1.648.006-2.472,0a2.328,2.328,0,0,1-2.458-2.014,2.3,2.3,0,0,1,1.851-2.513,1.021,1.021,0,0,0,.821-.837,2.275,2.275,0,0,1,4.5-.014,1.067,1.067,0,0,0,.871.864A2.281,2.281,0,0,1,32.814,24" transform="translate(-7.465 -6.005)"/>
        <path id="Trazado_161602" data-name="Trazado 161602" d="M31.991,22.557a1.066,1.066,0,0,1-.871-.864,2.275,2.275,0,0,0-4.5.014,1.022,1.022,0,0,1-.821.837,2.3,2.3,0,0,0-1.851,2.513,2.329,2.329,0,0,0,2.458,2.014c.824.007,1.648,0,2.472,0,.845,0,1.688.011,2.532,0a2.315,2.315,0,0,0,2.392-2.087,2.281,2.281,0,0,0-1.815-2.426" transform="translate(-8.456 -6.987)" fill="#fefefe"/>
      </g>
    </g>
  </g>
</svg>
