<svg xmlns="http://www.w3.org/2000/svg" xmlns:xlink="http://www.w3.org/1999/xlink" width="190" height="163" viewBox="0 0 190 163">
  <defs>
    <clipPath id="clip-path">
      <rect id="Rect치ngulo_42774" data-name="Rect치ngulo 42774" width="92.58" height="131.109" fill="none"/>
    </clipPath>
  </defs>
  <g id="Grupo_169845" data-name="Grupo 169845" transform="translate(-3860 10025)">
    <rect id="Rect치ngulo_42586" data-name="Rect치ngulo 42586" width="190" height="163" rx="18" transform="translate(3860 -10025)" fill="#ffbfc1"/>
    <g id="Grupo_169844" data-name="Grupo 169844" transform="translate(3909 -10009)">
      <g id="Grupo_169843" data-name="Grupo 169843" clip-path="url(#clip-path)">
        <path id="Trazado_162890" data-name="Trazado 162890" d="M74.268,138.369H18.993c-.583-.667-.4-1.484-.4-2.246q-.02-19.021-.01-38.04a11.846,11.846,0,0,0-.057-1.821c-.079-.52-.176-1.11-.852-1.122-.7-.011-.769.581-.832,1.108A12.228,12.228,0,0,0,16.8,97.68c-.017,4.868.383,4.367-4.451,4.37a12.843,12.843,0,0,1-3.882-.2c-.576-.363-.522-.966-.524-1.516C7.929,95,7.884,89.656,7.959,84.316a7.954,7.954,0,0,1,6.156-7.231q6.308-1.61,12.659-3.06a8.857,8.857,0,0,0,1.5-.424c.5-.214.977-.526.833-1.151-.156-.677-.749-.623-1.275-.549-.6.084-1.19.248-1.781.39C22,73.263,17.941,74.2,13.9,75.228a9.854,9.854,0,0,0-7.62,7.566,19.924,19.924,0,0,0-.466,4.784c-.007,4.082,0,8.163-.008,12.245a3,3,0,0,1-.311,1.891c-2.058.733-2.771.273-2.777-1.844q-.022-7.491,0-14.983a13.113,13.113,0,0,1,9.459-12.64c6.9-1.917,13.922-3.392,20.876-5.118,1.271-.315,1.57-.029,1.993,1.369,1.445,4.777,4.53,7.8,9.486,8.8a11.866,11.866,0,0,0,13.463-8.112c.086-.292.148-.59.241-.88.394-1.223.753-1.453,2.025-1.167,2.033.458,4.055.968,6.079,1.462,4.682,1.145,9.4,2.17,14.046,3.442A13.326,13.326,0,0,1,90.2,81.714a9.071,9.071,0,0,1,.351,2.571c0,5.168.005,10.336-.005,15.5,0,2.029-.208,2.228-2.247,2.234-3.257.01-6.514.017-9.771,0-1.785-.01-2-.248-2.029-2.05-.017-1.216.027-2.432-.024-3.647-.024-.584-.13-1.222-.853-1.255-.741-.035-.86.61-.935,1.184a13.17,13.17,0,0,0-.039,1.692q0,19.152-.01,38.3c0,.717.187,1.49-.367,2.121" transform="translate(-0.343 -8.482)" fill="#72c1e8"/>
        <path id="Trazado_162891" data-name="Trazado 162891" d="M73.925,129.887q.022-8.532.042-17.062.012-12.247,0-24.493a9.85,9.85,0,0,1,.014-1.041c.084-.792.514-1.338,1.331-1.312a1.225,1.225,0,0,1,1.255,1.368c0,1.65.038,3.3-.009,4.951-.021.741.215.974.958.968q5.732-.047,11.465,0c.716.005.982-.184.976-.942-.035-5.3.075-10.6-.062-15.893A12.824,12.824,0,0,0,79.869,63.9c-6.757-1.729-13.563-3.262-20.331-4.953-.922-.231-1.074.045-1.248.811a12.289,12.289,0,0,1-23.978.156c-.221-1-.508-1.174-1.511-.924-6.6,1.643-13.228,3.172-19.831,4.8a13.02,13.02,0,0,0-10.3,12.74c-.12,5.252-.021,10.509-.05,15.764,0,.724.2,1.048.949.962.514-.059,1.034-.06,1.552-.087a2.55,2.55,0,0,1,2.826,0c2.427.026,4.854.039,7.28.09.662.014.793-.29.784-.868-.025-1.605.008-3.212-.013-4.816-.014-.921.335-1.591,1.3-1.591s1.313.706,1.315,1.6c0,2.343,0,4.687,0,7.03q.021,17.638.043,35.276c-.236.679-.6,1.254-1.41,1.22a1.319,1.319,0,0,1-1.277-1.19,3.577,3.577,0,0,1-.328-2.15q-.012-14.322-.005-28.645c0-.39.006-.781,0-1.171-.038-1.561-.188-1.715-1.717-1.756-3.081-.085-6.162-.045-9.243-.052-.48,0-.966-.031-1.3.419a4.482,4.482,0,0,0-.191,1.929q-.009,14.516,0,29.033a3.708,3.708,0,0,1-.584,2.6,1.264,1.264,0,0,1-1.618.915c-.777-.2-.946-.81-.954-1.509,0-.217,0-.434,0-.651q0-25.66-.012-51.32a16.187,16.187,0,0,1,6.016-13.24,18.432,18.432,0,0,1,7.769-3.425c6.323-1.493,12.633-3.033,18.959-4.509.969-.226,1.4-.617,1.243-1.647a7.086,7.086,0,0,1,0-1.819,1.768,1.768,0,0,0-.854-1.862,1.482,1.482,0,0,1-.624-2.021c.879-.969,1.521-1.014,2.771-.014A18.966,18.966,0,0,0,40.435,52,16.842,16.842,0,0,0,63.122,36.378c0-1.086-.008-2.171,0-3.257a1.63,1.63,0,0,0-1.05-1.621,6.94,6.94,0,0,1-4.17-6.906c.036-1.605-.014-3.213.012-4.819.016-.928-.34-1.329-1.3-1.328q-10.355.022-20.711,0c-.887,0-1.253.353-1.244,1.238.019,1.823.027,3.647,0,5.47a6.662,6.662,0,0,1-3.849,6.178,2.123,2.123,0,0,0-1.373,2.218,36.519,36.519,0,0,0,.391,6.745c.272,1.209-.07,1.608-1.253,1.984a1.531,1.531,0,0,1-1.628-1.507c-.135-.987-.389-1.963-.446-2.952-.038-.663-.2-.939-.884-1.12-4.238-1.127-6.787-4.318-6.8-8.408A8.5,8.5,0,0,1,25.6,19.884c.721-.187.834-.531.829-1.175-.027-3.041.078-6.086-.029-9.123C26.205,4.13,30.686-1.183,38.473.231a5.929,5.929,0,0,1,3.423,2c.369.42.564.488.979.027A6.776,6.776,0,0,1,48.354.051C51.177.107,54,.044,56.825.069a9.018,9.018,0,0,1,9.326,9.257c.037,3.084.028,6.169,0,9.254-.008.742.118,1.131.959,1.332a8.6,8.6,0,0,1,.1,16.72,1.244,1.244,0,0,0-1.146,1.323A18.93,18.93,0,0,1,59.686,50.8a2.969,2.969,0,0,0-1.1,2.55c.059,2.7.022,2.69,2.689,3.335,6.4,1.547,12.81,3.079,19.2,4.664A15.4,15.4,0,0,1,92.451,75.812c.218,9.205.084,18.419.116,27.629a1.584,1.584,0,0,1-1.262,1.673c-1.227-.011-1.708-.466-1.821-1.908-.133-1.712-.025-3.432-.055-5.148a2.471,2.471,0,0,0-.286-1.61c-.434-.415-.979-.3-1.488-.3-2.909,0-5.816-.029-8.724.042-1.861.046-1.98.134-1.982,2.018q-.013,14.78-.01,29.561a3.57,3.57,0,0,1-.328,2.15,1.327,1.327,0,0,1-1.279,1.191c-.808.033-1.175-.541-1.409-1.221" transform="translate(0 0)"/>
        <path id="Trazado_162892" data-name="Trazado 162892" d="M32.718,44.9a1.571,1.571,0,0,0,.91-2.123c-.7-2.6-.381-5.264-.472-7.9-.02-.594.351-.69.768-.853a6.568,6.568,0,0,0,4.559-6.69c.011-1.867.031-3.735-.011-5.6-.017-.737.1-1.072.97-1.067q11.008.055,22.015.005c.761,0,.949.246.934.968-.044,2-.031,3.994-.009,5.992A6.564,6.564,0,0,0,66.841,34c.387.15.861.151.859.776-.011,3.251.124,6.5-.963,9.659a17.271,17.271,0,0,1-27.5,7.5c-.843-.709-1.613-1.206-2.589-.285-.147-.986-.947-1.472-1.591-2.077-.008-.043-.035-.093-.022-.126.728-1.857.244-1.782-1.269-2.214A9.126,9.126,0,0,0,32.718,44.9" transform="translate(-4.141 -2.615)" fill="#fdb59e"/>
        <path id="Trazado_162893" data-name="Trazado 162893" d="M100.941,109.923a62,62,0,0,1,.126,7.218c.017,1,.348,1.66,1.371,1.867.193.852-.178,1.767.29,2.588-1.5,1.149-1.508,1.211-.288,2.627.186.852-.177,1.765.288,2.586-1.221.882-1.411,2.119-1.39,3.535.06,3.849.028,7.7.015,11.55a2.615,2.615,0,0,1-.36,1.864l-13.041.052c.2-.867.939-.609,1.476-.653,1.667-.14,1.716-.144,1.718-1.857q.013-14.453.005-28.905c0-2.595.006-2.625,2.522-2.586a72.292,72.292,0,0,1,7.267.114" transform="translate(-11.132 -13.894)" fill="#fdb59e"/>
        <path id="Trazado_162894" data-name="Trazado 162894" d="M2.963,144.018q.02-15.3.05-30.607a13.8,13.8,0,0,1,.13-3.488,4.921,4.921,0,0,1,2.406.009,3.194,3.194,0,0,1,.328,2.016q.017,8.595.007,17.19a8.559,8.559,0,0,0,.238,2.453c.127.429.285.876.829.849.459-.023.618-.419.732-.808a8.557,8.557,0,0,0,.249-2.453c0-5.773-.006-11.547.008-17.32a2.683,2.683,0,0,1,.395-1.988c1.168-.148,2.341-.01,3.509-.079.677-.038.941.307,1.025.9a12.946,12.946,0,0,1,.064,1.821q0,14,0,28.006c0,.434.02.869,0,1.3-.034.934.394,1.3,1.328,1.336.651.027,1.518-.324,1.867.652q-5.83-.007-11.659-.013a2.615,2.615,0,0,0-1.51.219" transform="translate(-0.375 -13.895)" fill="#fdb59e"/>
        <path id="Trazado_162895" data-name="Trazado 162895" d="M16.159,143.8c-.709-.509-1.522-.256-2.265-.214-1.1.062-1.381-.333-1.377-1.4.038-9.858.023-19.718.023-29.577,0-2.67,0-2.673-2.652-2.666-.521,0-1.04.035-1.561.053a3.035,3.035,0,0,1-2.786,0l-2.371-.082c.132-.233.36-.2.57-.2,3.908.007,7.816.032,11.725.012.752,0,.953.261.95.985q-.046,16.546-.051,33.091l-.1.032Z" transform="translate(-0.401 -13.887)" fill="#e88e7b"/>
        <path id="Trazado_162896" data-name="Trazado 162896" d="M100.9,109.918c-2.646.009-5.293.075-7.937,0-1.134-.032-1.466.266-1.46,1.435.048,10.151.028,20.3.027,30.452,0,1.756,0,1.729-1.746,1.771-.624.015-1.3-.252-1.873.23l-.1.031-.1-.031q-.018-16.546-.044-33.091c0-.593.052-.986.814-.983,4.039.019,8.077,0,12.115,0,.1,0,.207.12.31.183" transform="translate(-11.096 -13.889)" fill="#e88e7b"/>
        <path id="Trazado_162897" data-name="Trazado 162897" d="M14.143,59.976c-.484-.011-.908-.392-1.1-1.124a12.594,12.594,0,0,0-.893-2.7,5.485,5.485,0,0,0-3.323-2.527c-.7-.249-1.237-.676-1.178-1.51a1.434,1.434,0,0,1,1.233-1.324c2.229-.582,3.332-2.187,3.9-4.282.113-.417.2-.845.35-1.249a1.284,1.284,0,0,1,1.325-.859,1.262,1.262,0,0,1,1.214.832c.166.445.265.914.392,1.373A5.358,5.358,0,0,0,19.9,50.78a1.441,1.441,0,0,1,1.261,1.436A1.386,1.386,0,0,1,20,53.6c-2.475.631-3.532,2.446-4.069,4.737-.19.812-.415,1.646-1.786,1.642" transform="translate(-0.967 -5.619)"/>
        <path id="Trazado_162898" data-name="Trazado 162898" d="M89.67,59.979a1.257,1.257,0,0,1-1.321-.848,6.065,6.065,0,0,1-.273-1A5.408,5.408,0,0,0,84.2,53.674c-.747-.236-1.373-.632-1.333-1.529.037-.815.6-1.18,1.329-1.388A5.081,5.081,0,0,0,87.86,46.9c.136-.5.3-.993.443-1.493a1.375,1.375,0,0,1,2.66.036c.073.293.173.581.248.874.557,2.195,1.67,3.885,4.013,4.491a1.381,1.381,0,0,1,1.166,1.375,1.364,1.364,0,0,1-1.137,1.4c-2.47.629-3.549,2.427-4.092,4.721-.19.805-.39,1.654-1.49,1.673" transform="translate(-10.489 -5.62)"/>
        <path id="Trazado_162899" data-name="Trazado 162899" d="M102.883,146.227c.028-5.02.066-10.038.077-15.058,0-1.15.273-1.991,1.658-1.891.849.3.976.99.974,1.776q-.012,7.321,0,14.643c0,.777-.1,1.507-1.011,1.721-.984.232-1.388-.425-1.7-1.19" transform="translate(-13.022 -16.362)" fill="#040303"/>
        <path id="Trazado_162900" data-name="Trazado 162900" d="M33.831,51.057a1.3,1.3,0,0,1,1.812.448c.514.8.066,1.376-.521,1.892a1.358,1.358,0,0,1-1.693-.6,1.332,1.332,0,0,1,.4-1.742" transform="translate(-4.209 -6.439)" fill="#060505"/>
        <path id="Trazado_162901" data-name="Trazado 162901" d="M104.349,125.936c-.806-.21-1.439-.589-1.3-1.56.133-.9.784-1.115,1.584-1.067a1.323,1.323,0,0,1,.935,1.371c-.017.81-.683.967-1.223,1.256" transform="translate(-13.041 -15.607)" fill="#030303"/>
        <path id="Trazado_162902" data-name="Trazado 162902" d="M8.684,102.283a9.817,9.817,0,0,1-2.826,0c0-4.905-.052-9.811.032-14.715a15.328,15.328,0,0,1,.769-5.489,10.45,10.45,0,0,1,7.618-6.623c4.569-1.127,9.152-2.2,13.728-3.3.845-.2,1.755-.333,2.019.754.258,1.062-.441,1.535-1.418,1.767-4.62,1.1-9.223,2.278-13.853,3.336a8.106,8.106,0,0,0-6.11,7.731c.136,5.51.038,11.024.039,16.537" transform="translate(-0.74 -9.116)" fill="#c4e4fd"/>
        <path id="Trazado_162903" data-name="Trazado 162903" d="M50.186,6.658a3.742,3.742,0,0,1,3.523-3.55c3.472-.079,6.951-.12,10.419.01A6.243,6.243,0,0,1,69.815,8.8c.121,2.078.029,4.167.066,6.251.012.642-.257.8-.851.8q-9.12-.022-18.239,0c-.661,0-.808-.273-.787-.857.033-.91-.007-1.824.013-2.735A4.1,4.1,0,0,1,54.232,8.07c3.778-.033,7.556-.019,11.334-.007.866,0,1.514-.35,1.551-1.215.039-.928-.594-1.384-1.521-1.394h-.131c-3.865,0-7.73,0-11.595.012a7.833,7.833,0,0,0-3.685,1.192" transform="translate(-6.329 -0.384)" fill="#868686"/>
        <path id="Trazado_162904" data-name="Trazado 162904" d="M61.233,63.979c.5,5.98-3.808,10.9-9.579,10.927-5.828.031-10.19-4.882-9.7-10.928.458-.2.843.054,1.235.214a21.72,21.72,0,0,0,16.692.051c.431-.169.846-.472,1.356-.263" transform="translate(-5.305 -8.089)" fill="#fdb59e"/>
        <path id="Trazado_162905" data-name="Trazado 162905" d="M45.189,6.778c-2.562-1.812-5.318-1.26-7.979-1.289a1.192,1.192,0,0,0-1.224,1.274A1.22,1.22,0,0,0,37.321,8.05c1.258.021,2.517-.009,3.775.019a4.055,4.055,0,0,1,4.17,4.207c0,1.153.512,2.638-.238,3.371-.685.67-2.147.18-3.266.191-2.474.026-4.948-.02-7.421.024-.815.014-1.157-.176-1.124-1.07.068-1.82-.01-3.646.037-5.467a6.387,6.387,0,0,1,6.233-6.252c.607-.019,1.216-.022,1.823,0,2.067.088,3.474,1.371,3.88,3.7" transform="translate(-4.204 -0.387)" fill="#868686"/>
        <path id="Trazado_162906" data-name="Trazado 162906" d="M29.52,31.616c0,1.69-.024,3.38.012,5.07.013.662-.133.806-.806.612a6.063,6.063,0,0,1-.19-11.469c.7-.224,1.025-.132,1,.717-.052,1.688-.015,3.379-.015,5.069" transform="translate(-3.106 -3.256)" fill="#fcb49e"/>
        <path id="Trazado_162907" data-name="Trazado 162907" d="M75.749,37.427c0-3.722.01-7.357-.006-10.992-.005-1.2.694-.692,1.2-.5a6,6,0,0,1-1.19,11.494" transform="translate(-9.587 -3.248)" fill="#fcb49e"/>
        <path id="Trazado_162908" data-name="Trazado 162908" d="M61.23,63.663a21.339,21.339,0,0,1-19.283,0c-.022-.562-.05-1.124-.059-1.686a3.636,3.636,0,0,1,.092-.572,20.229,20.229,0,0,0,19.222,0,6.777,6.777,0,0,1,.028,2.257" transform="translate(-5.302 -7.772)" fill="#e98e7b"/>
        <path id="Trazado_162909" data-name="Trazado 162909" d="M33.235,26c0-1.43.069-2.865-.024-4.289-.07-1.082.523-1.1,1.274-1.028.65.061,1.522-.348,1.47.957-.082,2.077-.014,4.159-.038,6.239a3.824,3.824,0,0,1-1.853,3.243c-.552.375-.848.32-.837-.443.023-1.56.007-3.12.006-4.68" transform="translate(-4.203 -2.615)" fill="#868686"/>
        <path id="Trazado_162910" data-name="Trazado 162910" d="M72.36,26.106c0,1.43.013,2.86-.01,4.29-.005.313.2.762-.219.915-.348.127-.639-.2-.9-.406a3.679,3.679,0,0,1-1.543-2.878c-.032-2.166.015-4.334-.038-6.5-.031-1.258.862-.79,1.442-.832.6-.043,1.34-.255,1.288.861-.071,1.514-.017,3.033-.017,4.55" transform="translate(-8.815 -2.613)" fill="#868686"/>
        <path id="Trazado_162911" data-name="Trazado 162911" d="M51.912,50.742a7.669,7.669,0,0,1-7.651-7.061c-.053-.882-.01-1.74,1.107-1.859,1.086-.116,1.371.631,1.492,1.551.38,2.9,2.4,4.782,5.068,4.761a5.045,5.045,0,0,0,4.983-4.713c.114-.906.356-1.687,1.448-1.605,1.11.083,1.208.915,1.16,1.816a7.671,7.671,0,0,1-7.607,7.11" transform="translate(-5.601 -5.292)"/>
        <path id="Trazado_162912" data-name="Trazado 162912" d="M51.505,33.6q0-1.949,0-3.9c0-.878.45-1.453,1.31-1.447s1.294.59,1.294,1.466q0,3.963,0,7.925c0,.845-.328,1.466-1.248,1.494-.99.029-1.358-.6-1.356-1.512V33.6" transform="translate(-6.519 -3.576)"/>
        <path id="Trazado_162913" data-name="Trazado 162913" d="M63.735,30.828a3.475,3.475,0,0,1-.074.849,1.261,1.261,0,0,1-2.445-.077,9.7,9.7,0,0,1-.079-1.932c.027-.85.474-1.447,1.347-1.423s1.273.627,1.252,1.494c-.006.259,0,.519,0,1.088" transform="translate(-7.737 -3.575)" fill="#050303"/>
        <path id="Trazado_162914" data-name="Trazado 162914" d="M45.7,30.716a2.917,2.917,0,0,1-.053.807,1.235,1.235,0,0,1-1.407,1.059,1.182,1.182,0,0,1-1.132-1.2c-.027-.561-.01-1.124-.016-1.686-.011-.881.426-1.451,1.294-1.446s1.273.62,1.312,1.466c.01.215,0,.431,0,1" transform="translate(-5.455 -3.576)" fill="#040302"/>
        <path id="Trazado_162915" data-name="Trazado 162915" d="M5.881,110.026a11.147,11.147,0,0,1,2.787,0q.01,10.165.011,20.33a11.061,11.061,0,0,1-.239,1.8,1.084,1.084,0,0,1-1.229.919,1.066,1.066,0,0,1-1.106-.918,13.057,13.057,0,0,1-.236-1.8q-.014-10.165.011-20.33" transform="translate(-0.743 -13.915)" fill="#f9dedf"/>
        <path id="Trazado_162916" data-name="Trazado 162916" d="M6.034,141.375a6.453,6.453,0,0,1,.115-1.022,1.067,1.067,0,0,1,1.143-.861,1.064,1.064,0,0,1,1.149.855,5.748,5.748,0,0,1-.015,2.446,1.05,1.05,0,0,1-1.191.8,1.068,1.068,0,0,1-1.1-.917c-.045-.343-.053-.691-.1-1.3" transform="translate(-0.764 -17.656)" fill="#f9dfe0"/>
        <path id="Trazado_162917" data-name="Trazado 162917" d="M17.064,53.139a7.7,7.7,0,0,0-1.934,2.19,9.556,9.556,0,0,0-2.05-2.177c.061-.109.09-.246.171-.293.82-.478,1.162-1.949,1.942-1.8.717.134,1.237,1.325,1.871,2.084" transform="translate(-1.656 -6.461)" fill="#ecbc1f"/>
        <path id="Trazado_162918" data-name="Trazado 162918" d="M90.372,55.273a10.493,10.493,0,0,0-2.106-2.152,2.018,2.018,0,0,1,.174-.252q.977-1,1.958-1.986L92.277,53.1a8.236,8.236,0,0,0-1.9,2.173" transform="translate(-11.172 -6.441)" fill="#ebbc1f"/>
      </g>
    </g>
  </g>
</svg>
