<svg xmlns="http://www.w3.org/2000/svg" xmlns:xlink="http://www.w3.org/1999/xlink" width="85" height="85" viewBox="0 0 85 85">
  <defs>
    <clipPath id="clip-path">
      <rect id="Rectángulo_42675" data-name="Rectángulo 42675" width="44.925" height="55.777" fill="none"/>
    </clipPath>
  </defs>
  <g id="Grupo_169619" data-name="Grupo 169619" transform="translate(-180 -3896)">
    <circle id="Elipse_4854" data-name="Elipse 4854" cx="42.5" cy="42.5" r="42.5" transform="translate(180 3896)" fill="#6b8dfc"/>
    <g id="Grupo_169618" data-name="Grupo 169618" transform="translate(200 3911)">
      <g id="Grupo_169617" data-name="Grupo 169617" clip-path="url(#clip-path)">
        <path id="Trazado_161631" data-name="Trazado 161631" d="M77.683,71.506a.119.119,0,0,1,.019.015l.008-.015Z" transform="translate(-50.244 -46.249)"/>
        <path id="Trazado_161632" data-name="Trazado 161632" d="M44.913,54.474q-.392-4.938-.809-9.873c-.135-1.609-.2-3.231-.452-4.821a9.946,9.946,0,0,0-9.016-8.3c-2.293-.214-4.574-.545-6.866-.777-.6-.06-.45-.5-.575-.813-.132-.332-.01-.518.293-.693a9.432,9.432,0,0,0,3.547-3.6.733.733,0,0,1,.77-.422c.943.021,1.888.008,2.832.007,1.061,0,1.326-.262,1.327-1.305,0-.69.006-1.38,0-2.069a.465.465,0,0,1,.279-.51,2.628,2.628,0,0,0,1.51-2.507c.007-1.125,0-2.251,0-3.376a2.653,2.653,0,0,0-1.542-2.543.5.5,0,0,1-.322-.5,9.677,9.677,0,0,0-.369-2.249A13.319,13.319,0,0,0,25.8.442C25.133.254,24.446.146,23.77,0h-.327c-.073.148-.146.126-.218,0H21.7c-.073.126-.145.148-.218,0h-.436A3.755,3.755,0,0,1,19.81.262,13.485,13.485,0,0,0,9.04,12.375a.523.523,0,0,1-.323.495,2.624,2.624,0,0,0-1.536,2.49c-.007,1.162-.024,2.324,0,3.486A2.656,2.656,0,0,0,10,21.581c.744.01,1.489.016,2.233,0,.3-.008.392.095.435.39a9.644,9.644,0,0,0,4.774,7.215c.561.337.215.705.219,1.073,0,.384-.279.406-.555.438-2.288.265-4.573.565-6.865.788A10.016,10.016,0,0,0,1.557,38.5a20.779,20.779,0,0,0-.59,4.465q-.485,5.749-.955,11.5c-.081,1,.223,1.308,1.235,1.308H43.671c1.013,0,1.321-.306,1.242-1.3m-17.6-20.256a1.294,1.294,0,0,0,.475-1.4c-.071-.245-.053-.382.266-.3.4.1.982-.069,1.183.224s-.124.771-.222,1.168c-.52,2.106-1.046,4.211-1.6,6.437-.941-1.131-1.815-2.187-2.7-3.237-.194-.231.015-.321.129-.436.817-.824,1.623-1.659,2.466-2.455m-2.755.2c-.61.619-1.236,1.222-1.839,1.848-.194.2-.319.227-.513,0-.3-.339-.621-.653-.934-.978-.711-.7-1.418-1.4-2.137-2.092A.519.519,0,0,1,19,32.658c.146-.71.283-1.422.43-2.131.038-.185.034-.424.354-.325a10.424,10.424,0,0,0,4.094.307c.23-.048.46-.093.688-.144.856-.2.863-.2,1.026.64a4.607,4.607,0,0,1,.292,1.951c-.172.569-.855.986-1.323,1.462m9.593-11.287c-.024.21-.091.283-.3.274-.271-.012-.542,0-.813,0-1.03,0-1.029,0-.847-1.013a2.324,2.324,0,0,0,.066-.427c0-.309.139-.424.434-.379a.694.694,0,0,0,.108,0c1.5-.01,1.522.019,1.348,1.547m.75-8.739a.957.957,0,0,1,1.056,1.046q.028,1.656,0,3.312A.958.958,0,0,1,34.912,19.8c-.723.022-1.448,0-2.172.01-.285.006-.38-.1-.375-.379.013-.778,0-1.557,0-2.335,0-.76.013-1.521-.006-2.281-.008-.321.079-.452.423-.441.705.024,1.412-.006,2.118.012M12.157,19.815c-.706-.017-1.413.009-2.118-.01a.972.972,0,0,1-1.075-1.085q-.022-1.629,0-3.258a.97.97,0,0,1,1.085-1.073c.706-.015,1.412.01,2.118-.01.319-.009.4.117.394.414-.015.778,0,1.557,0,2.335,0,.76-.012,1.521.005,2.281.007.307-.1.414-.4.406m.508-7.617c-.025.281-.1.4-.418.415-1.523.048-1.522.059-1.235-1.458A11.739,11.739,0,0,1,20.7,1.943c.6-.083,1.192-.084,1.739-.134A11.688,11.688,0,0,1,34.024,11.852c.018.125.045.25.071.374.056.267,0,.405-.324.385a4.091,4.091,0,0,1-1.291-.047c-.425-.189-.245-.765-.337-1.168a9.9,9.9,0,0,0-19.11-.893,7.647,7.647,0,0,0-.368,1.7M26.947,6.8A6.43,6.43,0,0,1,28.688,8.34a7.927,7.927,0,0,1,1.765,3.916c.032.2.076.369-.214.36a35.7,35.7,0,0,1-5.59-.193.337.337,0,0,1-.3-.176,8.155,8.155,0,0,0,2.6-5.448m-7.539,5.758c-.853.071-1.7.031-2.424.058-.8,0-1.475-.015-2.145.006-.344.011-.414-.072-.36-.432a8.06,8.06,0,0,1,8.065-6.768,8.87,8.87,0,0,1,2.2.3.493.493,0,0,1,.438.56,6.334,6.334,0,0,1-5.773,6.273m-2.155,14.3a7.677,7.677,0,0,1-2.862-5.987c-.032-2.033-.005-4.067-.02-6.1,0-.313.1-.4.4-.392,1.289.015,2.578-.006,3.867.01a8.3,8.3,0,0,0,3.541-.715.557.557,0,0,1,.514-.038,8.306,8.306,0,0,0,3.258.76c1.415,0,2.83,0,4.244-.017.3,0,.36.112.359.381-.016,2.213-.021,4.426-.029,6.64,0,.018,0,.036,0,.054a3.669,3.669,0,0,1-.4,1.728c-.371.515-1.07.182-1.618.2a10.8,10.8,0,0,1-2.584-.059,3.008,3.008,0,0,0-3.146-1.747,13.442,13.442,0,0,0-1.681.066,2.68,2.68,0,0,0,.045,5.29,10.584,10.584,0,0,0,2.441.03,2.775,2.775,0,0,0,2.332-1.709,8.659,8.659,0,0,1,2.032-.073c.373-.018.749,0,1.256,0a7.894,7.894,0,0,1-4.989,3.374,7.666,7.666,0,0,1-6.957-1.693M23.5,25.149a16.683,16.683,0,0,1-2.063,0,.8.8,0,0,1-.73-.913.79.79,0,0,1,.781-.813c.323-.03.652-.006.978-.006s.655-.024.978.006a.871.871,0,0,1,.057,1.727m-7.2,7.434c.269-.033.611-.169.792-.055.226.143-.016.483-.011.74a1.129,1.129,0,0,0,.4.8c.863.855,1.716,1.721,2.581,2.574.184.182.305.307.078.57-.83.96-1.633,1.943-2.448,2.915a1.006,1.006,0,0,1-.152.125c-.034-.028-.053-.035-.056-.047-.624-2.491-1.247-4.982-1.882-7.519.242-.037.47-.077.7-.106M42.4,53.965c-.979-.006-1.958-.017-2.937-.026-1.052.01-2.1.005-3.155.036-.437.012-.339-.271-.339-.505q0-4.765,0-9.529c0-.77,0-.77-.783-.77-1.035,0-1.035,0-1.035,1.018,0,3.067-.013,6.135.013,9.2,0,.5-.143.59-.607.588q-11.108-.022-22.216,0c-.457,0-.569-.124-.566-.573.019-3.231,0-6.462.019-9.692,0-.417-.093-.562-.538-.555-1.288.021-1.289,0-1.289,1.31,0,2.977-.009,5.953.01,8.93,0,.434-.079.588-.553.582-2.014-.029-4.029-.022-6.044,0-.393,0-.538-.069-.5-.5.325-3.668.629-7.337.94-11.007a14.233,14.233,0,0,1,.473-3.439,7.964,7.964,0,0,1,6.812-5.7c1.076-.16,2.161-.253,3.238-.41.379-.055.487.076.572.423.73,2.972,1.484,5.939,2.222,8.909.1.41.249.772.7.883a1.024,1.024,0,0,0,1.081-.458c1.133-1.37,2.278-2.731,3.411-4.1.191-.232.32-.371.618-.1a.76.76,0,0,0,1.089-.025c.249-.229.361-.143.538.072,1.12,1.358,2.255,2.7,3.376,4.06.3.368.627.677,1.148.551.5-.122.62-.544.729-.983.728-2.936,1.475-5.866,2.192-8.8.1-.39.243-.5.624-.421.5.1,1,.143,1.508.211A9.208,9.208,0,0,1,39.579,35.6a8.106,8.106,0,0,1,2.392,5.168q.523,6.235,1.055,12.468c.062.726.072.729-.629.725" transform="translate(0)"/>
        <path id="Trazado_161633" data-name="Trazado 161633" d="M61.037,0h-.218a.141.141,0,0,0,.218,0" transform="translate(-39.337)" fill="#696969"/>
        <path id="Trazado_161634" data-name="Trazado 161634" d="M61.037,0a.141.141,0,0,1-.218,0c.073.148.145.126.218,0" transform="translate(-39.337)" fill="#696969"/>
        <path id="Trazado_161635" data-name="Trazado 161635" d="M65.972,0h-.218a.141.141,0,0,0,.218,0" transform="translate(-42.529)" fill="#696969"/>
        <path id="Trazado_161636" data-name="Trazado 161636" d="M65.972,0a.141.141,0,0,1-.218,0c.073.126.145.148.218,0" transform="translate(-42.529)" fill="#696969"/>
        <path id="Trazado_161637" data-name="Trazado 161637" d="M42.237,106.432c-.136-1.744-.3-3.486-.425-5.229a9.207,9.207,0,0,0-1.968-5.188,9.045,9.045,0,0,0-2.908-2.4c-.127-.067-.249-.145-.373-.217-.5-.068-1.01-.114-1.508-.211-.38-.075-.528.031-.623.421-.717,2.938-1.464,5.869-2.192,8.8-.109.439-.224.861-.728.983-.521.126-.844-.183-1.148-.551-1.121-1.357-2.257-2.7-3.376-4.06-.177-.215-.289-.3-.538-.072a.759.759,0,0,1-1.089.025c-.3-.274-.427-.136-.618.1-1.133,1.371-2.278,2.732-3.411,4.1a1.025,1.025,0,0,1-1.081.458c-.449-.111-.6-.474-.7-.883-.739-2.97-1.493-5.936-2.223-8.909-.085-.347-.192-.479-.572-.423-1.076.157-2.162.251-3.238.41a7.963,7.963,0,0,0-6.811,5.7,14.216,14.216,0,0,0-.473,3.439c-.311,3.669-.614,7.339-.939,11.007-.039.434.106.507.5.5,2.014-.019,4.029-.025,6.044,0,.474.007.556-.148.553-.582-.019-2.977-.01-5.953-.01-8.93,0-1.31,0-1.289,1.289-1.31.445-.007.54.137.538.555-.016,3.23,0,6.461-.019,9.692,0,.449.109.574.567.573q11.108-.022,22.216,0c.464,0,.611-.093.608-.588-.025-3.067-.013-6.135-.013-9.2,0-1.018,0-1.018,1.035-1.018.783,0,.783,0,.783.77q0,4.765,0,9.529c0,.235-.1.518.339.505,1.051-.03,2.1-.026,3.155-.036-.142-1.652-.3-3.3-.418-4.957-.067-.936-.154-1.87-.227-2.8m-16.308,6c-.933,0-.933,0-.933-.924,0-.888,0-.888.873-.888.906,0,.906,0,.906.964,0,.848,0,.848-.846.848m-.068-3.6c-.865,0-.865,0-.865-.886,0-.928,0-.928.942-.928.837,0,.837,0,.837.816v.108c0,.89,0,.89-.914.89m.048-3.6c-.913,0-.913,0-.913-.894,0-.923,0-.923.893-.923s.886,0,.886.93c0,.887,0,.887-.866.887" transform="translate(-3.423 -60.255)" fill="#6b9de2"/>
        <path id="Trazado_161638" data-name="Trazado 161638" d="M50.524,53.441a10.384,10.384,0,0,0,3.054-2.912c.056-.084.1-.179.194-.371a.142.142,0,0,0-.019-.015H52.225a2.775,2.775,0,0,1-2.332,1.709,10.584,10.584,0,0,1-2.441-.03,2.68,2.68,0,0,1-.045-5.29,13.442,13.442,0,0,1,1.681-.066,3.008,3.008,0,0,1,3.146,1.747c.631-.006,1.263-.035,1.893-.011.4.016.607-.084.7-.524A12.623,12.623,0,0,0,55,43.409a1.791,1.791,0,0,1-1.674,1.26,1.7,1.7,0,0,1-1.617-.917,1.789,1.789,0,0,1,3.08-1.82c.077.123.137.255.205.383a12.888,12.888,0,0,0,.076-2.749c0-.226-.23-.187-.385-.188-.635,0-1.271,0-1.906,0-.176,0-.366.055-.52-.089a8.3,8.3,0,0,1-3.258-.76.559.559,0,0,0-.514.038,8.3,8.3,0,0,1-3.54.715c-1.289-.016-2.578,0-3.867-.01-.3,0-.4.079-.4.392.015,2.033-.012,4.067.02,6.1a8.047,8.047,0,0,0,9.819,7.681M42.476,42.9a1.794,1.794,0,0,1,1.78-1.807,1.763,1.763,0,0,1,1.808,1.76A1.794,1.794,0,0,1,44.3,44.681,1.839,1.839,0,0,1,42.476,42.9" transform="translate(-26.314 -24.887)" fill="#f1c5b1"/>
        <path id="Trazado_161639" data-name="Trazado 161639" d="M102.656,101.454a8.1,8.1,0,0,0-2.392-5.168,9.209,9.209,0,0,0-6.439-2.466,6.936,6.936,0,0,1,3.4,2.524,9.09,9.09,0,0,1,2,5.089c.264,3.105.507,6.213.77,9.318.089,1.047.144,2.1.281,3.14a.887.887,0,0,1-.124.728c.979.009,1.958.021,2.937.026.7,0,.692,0,.629-.725q-.532-6.234-1.055-12.468" transform="translate(-60.685 -60.682)" fill="#598ad2"/>
        <path id="Trazado_161640" data-name="Trazado 161640" d="M100.27,113.893c-.137-1.043-.193-2.093-.281-3.14-.263-3.105-.505-6.213-.77-9.318a9.088,9.088,0,0,0-2-5.089,6.932,6.932,0,0,0-3.4-2.524c.124.072.245.15.372.217a9.046,9.046,0,0,1,2.908,2.4,9.206,9.206,0,0,1,1.968,5.188c.127,1.743.288,3.486.425,5.229.073.935.16,1.869.227,2.8.118,1.654.277,3.305.419,4.957a.887.887,0,0,0,.124-.728" transform="translate(-60.686 -60.683)" fill="#598ad2"/>
        <path id="Trazado_161641" data-name="Trazado 161641" d="M51.226,15.65a8.871,8.871,0,0,0-2.2-.3,8.06,8.06,0,0,0-8.065,6.768c-.054.36.016.442.36.432.671-.02,1.343-.006,2.145-.006.721-.027,1.571.012,2.424-.058a6.334,6.334,0,0,0,5.773-6.273.493.493,0,0,0-.438-.56" transform="translate(-26.483 -9.927)" fill="#8b5656"/>
        <path id="Trazado_161642" data-name="Trazado 161642" d="M69.235,24.873a35.7,35.7,0,0,0,5.59.193c.29.009.246-.157.214-.36a7.93,7.93,0,0,0-1.765-3.916,6.44,6.44,0,0,0-1.741-1.541,8.158,8.158,0,0,1-2.6,5.448.337.337,0,0,0,.3.176" transform="translate(-44.585 -12.45)" fill="#7c4e4e"/>
        <path id="Trazado_161643" data-name="Trazado 161643" d="M28.951,43.461c0-.778-.01-1.557.005-2.335.006-.3-.075-.422-.394-.413-.705.019-1.412-.006-2.118.009a.97.97,0,0,0-1.085,1.073q-.024,1.629,0,3.258a.971.971,0,0,0,1.075,1.085c.706.019,1.412-.007,2.118.01.308.007.411-.1.4-.406-.017-.76-.006-1.521-.006-2.281" transform="translate(-16.395 -26.332)" fill="#656665"/>
        <path id="Trazado_161644" data-name="Trazado 161644" d="M92.046,40.709c-.344-.011-.431.12-.423.441.019.76.006,1.52.006,2.281,0,.778.008,1.557,0,2.335,0,.28.091.384.375.379.724-.014,1.449.012,2.172-.01a.958.958,0,0,0,1.048-1.055q.026-1.656,0-3.313a.957.957,0,0,0-1.056-1.046c-.705-.018-1.412.012-2.118-.011" transform="translate(-59.26 -26.329)" fill="#656665"/>
        <path id="Trazado_161645" data-name="Trazado 161645" d="M58.947,87.249c-.094-.5-.21-.987-.317-1.48a10.424,10.424,0,0,1-4.094-.307c-.32-.1-.315.141-.354.325-.147.71-.284,1.421-.43,2.131a.519.519,0,0,0,.138.541c.719.69,1.426,1.393,2.137,2.092.918-.9,1.834-1.806,2.757-2.7a.615.615,0,0,0,.163-.6" transform="translate(-34.752 -55.261)" fill="#f1c5b1"/>
        <path id="Trazado_161646" data-name="Trazado 161646" d="M75.915,40.767c.248,0,.453.046.464.327a9.783,9.783,0,0,1-.064,2.6.364.364,0,0,1-.164.085,2.5,2.5,0,0,1,.007,1.067.174.174,0,0,1,.133.057,8.917,8.917,0,0,1,.085,2.738,6.464,6.464,0,0,1-.248,1.546.6.6,0,0,1-.693.522c-.682-.044-1.368.045-2.05-.045a10.8,10.8,0,0,0,2.584.059c.547-.017,1.247.316,1.617-.2a3.665,3.665,0,0,0,.4-1.728c0-.018,0-.036,0-.054.008-2.213.013-4.426.029-6.64,0-.269-.058-.385-.359-.381-1.415.018-2.829.013-4.244.017.832.083,1.666.022,2.5.033" transform="translate(-47.465 -26.335)" fill="#dab19d"/>
        <path id="Trazado_161647" data-name="Trazado 161647" d="M73.988,40.854c.635.006,1.271,0,1.906,0,.156,0,.388-.038.385.188a12.888,12.888,0,0,1-.076,2.749l0,.012a.367.367,0,0,0,.164-.086,9.768,9.768,0,0,0,.064-2.6c-.011-.281-.216-.324-.464-.327-.833-.011-1.668.051-2.5-.033.154.144.344.087.52.089" transform="translate(-47.518 -26.366)" fill="#dab19d"/>
        <path id="Trazado_161648" data-name="Trazado 161648" d="M75.436,57.26a.6.6,0,0,0,.693-.522,6.461,6.461,0,0,0,.248-1.546,8.917,8.917,0,0,0-.085-2.738.174.174,0,0,0-.133-.057s0,.01,0,.014a12.6,12.6,0,0,1-.177,4.269c-.093.44-.3.539-.7.524-.63-.024-1.262,0-1.893.011.682.09,1.368,0,2.05.045" transform="translate(-47.465 -33.889)" fill="#dab19d"/>
        <path id="Trazado_161649" data-name="Trazado 161649" d="M46.088,99.737a1.026,1.026,0,0,0,.152-.125c.815-.973,1.618-1.956,2.448-2.916.227-.263.107-.388-.078-.57-.865-.854-1.718-1.719-2.581-2.574a1.13,1.13,0,0,1-.4-.8c0-.257.237-.6.011-.74-.18-.114-.522.022-.792.055-.23.028-.458.069-.7.106.634,2.537,1.257,5.028,1.882,7.519,0,.012.022.019.056.047" transform="translate(-28.556 -59.483)" fill="#eeeced"/>
        <path id="Trazado_161650" data-name="Trazado 161650" d="M69.972,96.179c-.114.115-.323.205-.129.437.883,1.049,1.757,2.106,2.7,3.237.554-2.227,1.079-4.331,1.6-6.438.1-.4.413-.889.222-1.168s-.781-.126-1.183-.224c-.319-.077-.337.059-.266.3a1.294,1.294,0,0,1-.475,1.4c-.843.8-1.649,1.632-2.466,2.455" transform="translate(-45.122 -59.505)" fill="#d8d6d7"/>
        <path id="Trazado_161651" data-name="Trazado 161651" d="M64.843,88.358a4.609,4.609,0,0,0-.292-1.952c-.164-.837-.17-.835-1.026-.64-.229.052-.458.1-.688.145a1.917,1.917,0,0,1-.146,2.569c-.639.64-1.274,1.282-1.92,1.915-.148.145-.274.353-.538.3.313.325.638.639.934.978.194.222.319.2.513,0,.6-.626,1.229-1.229,1.839-1.848.468-.475,1.152-.893,1.323-1.462" transform="translate(-38.958 -55.403)" fill="#dab19d"/>
        <path id="Trazado_161652" data-name="Trazado 161652" d="M60.771,90.857c.645-.633,1.281-1.275,1.92-1.914a1.917,1.917,0,0,0,.146-2.569c.107.493.223.984.317,1.48a.615.615,0,0,1-.163.6c-.924.9-1.839,1.8-2.757,2.7.264.053.39-.155.538-.3" transform="translate(-38.958 -55.865)" fill="#dab19d"/>
        <path id="Trazado_161653" data-name="Trazado 161653" d="M61.345,66.284c-.324-.03-.652-.006-.978-.006s-.655-.024-.978.006a.791.791,0,0,0-.781.813.8.8,0,0,0,.73.914,16.688,16.688,0,0,0,2.063,0,.871.871,0,0,0-.057-1.727" transform="translate(-37.906 -42.862)" fill="#656665"/>
        <path id="Trazado_161654" data-name="Trazado 161654" d="M71.536,71.287a.408.408,0,0,1,.235.037H71.8l-.008.015c.079.071.042.2-.031.352a3.218,3.218,0,0,1-.495.707,6.985,6.985,0,0,1-2.722,2.224,7.9,7.9,0,0,0,4.989-3.375c-.507,0-.882-.014-1.256,0a8.656,8.656,0,0,0-2.032.074,10.455,10.455,0,0,1,1.292-.037" transform="translate(-44.333 -46.067)" fill="#d9b19d"/>
        <path id="Trazado_161655" data-name="Trazado 161655" d="M74.886,71.434a.408.408,0,0,0-.235-.037,10.454,10.454,0,0,0-1.292.037h1.527Z" transform="translate(-47.447 -46.177)" fill="#d9b19d"/>
        <path id="Trazado_161656" data-name="Trazado 161656" d="M71.264,72.607a3.206,3.206,0,0,0,.495-.707c.073-.149.111-.282.031-.352-.1.191-.138.287-.194.371a10.384,10.384,0,0,1-3.054,2.912,6.988,6.988,0,0,0,2.722-2.224" transform="translate(-44.332 -46.276)" fill="#d9b19d"/>
        <path id="Trazado_161657" data-name="Trazado 161657" d="M61.97,122.221c-.893,0-.893,0-.893.923,0,.894,0,.894.913.894.866,0,.866,0,.866-.887,0-.93,0-.93-.886-.93" transform="translate(-39.504 -79.051)" fill="#010101"/>
        <path id="Trazado_161658" data-name="Trazado 161658" d="M62.019,132.41c-.942,0-.942,0-.942.929,0,.886,0,.886.865.886.914,0,.914,0,.914-.89v-.108c0-.816,0-.816-.837-.816" transform="translate(-39.504 -85.641)" fill="#010101"/>
        <path id="Trazado_161659" data-name="Trazado 161659" d="M61.949,142.6c-.874,0-.874,0-.874.888,0,.924,0,.924.933.924.846,0,.846,0,.846-.848,0-.964,0-.964-.906-.964" transform="translate(-39.503 -92.232)" fill="#010101"/>
        <path id="Trazado_161660" data-name="Trazado 161660" d="M49.344,47.651a1.763,1.763,0,0,0-1.809-1.76A1.794,1.794,0,0,0,45.756,47.7a1.838,1.838,0,0,0,1.827,1.778,1.794,1.794,0,0,0,1.761-1.825" transform="translate(-29.594 -29.681)"/>
        <path id="Trazado_161661" data-name="Trazado 161661" d="M75.06,47.423c-.162.022-.228-.187-.3-.3a1.575,1.575,0,0,0-1.305-.762,1.6,1.6,0,0,0-1.664,1.127,1.624,1.624,0,0,0,2.736,1.607c.139-.144.239-.319.372-.468.052-.058.1-.125.172-.135a1.416,1.416,0,0,1-.007-1.066" transform="translate(-46.381 -29.982)"/>
        <path id="Trazado_161662" data-name="Trazado 161662" d="M74.6,48.309c-.133.148-.232.324-.372.468a1.624,1.624,0,0,1-2.736-1.607,1.6,1.6,0,0,1,1.664-1.127,1.575,1.575,0,0,1,1.305.762c.076.116.141.325.3.3,0,0,0-.008,0-.013-.068-.128-.129-.26-.205-.383a1.789,1.789,0,0,0-3.08,1.82,1.7,1.7,0,0,0,1.617.917,1.791,1.791,0,0,0,1.674-1.26l0-.015c-.067.01-.12.078-.172.135" transform="translate(-46.088 -29.667)"/>
        <path id="Trazado_161663" data-name="Trazado 161663" d="M81.015,50.442h.007a2.489,2.489,0,0,0-.007-1.067h-.007a1.416,1.416,0,0,0,.007,1.066" transform="translate(-52.329 -31.935)"/>
        <path id="Trazado_161664" data-name="Trazado 161664" d="M81.214,52.4l0,.015,0-.014h-.007" transform="translate(-52.528 -33.889)"/>
        <path id="Trazado_161665" data-name="Trazado 161665" d="M81.2,49.355l0-.011,0,.012H81.2" transform="translate(-52.516 -31.915)"/>
      </g>
    </g>
  </g>
</svg>
