<svg xmlns="http://www.w3.org/2000/svg" xmlns:xlink="http://www.w3.org/1999/xlink" width="190" height="163" viewBox="0 0 190 163">
  <defs>
    <clipPath id="clip-path">
      <rect id="Rect치ngulo_42777" data-name="Rect치ngulo 42777" width="126.836" height="126.879" fill="none"/>
    </clipPath>
  </defs>
  <g id="Grupo_169854" data-name="Grupo 169854" transform="translate(-3860 9452)">
    <rect id="Rect치ngulo_42592" data-name="Rect치ngulo 42592" width="190" height="163" rx="18" transform="translate(3860 -9452)" fill="#ffbfc1"/>
    <g id="Grupo_169853" data-name="Grupo 169853" transform="translate(3892 -9434)">
      <g id="Grupo_169852" data-name="Grupo 169852" clip-path="url(#clip-path)">
        <path id="Trazado_162978" data-name="Trazado 162978" d="M126.836,68.343a24.267,24.267,0,0,0-.7,4.434c-4.488,25.045-18.612,42.36-42.577,50.633A62.724,62.724,0,0,1,6.372,90.965,63.352,63.352,0,0,1,46.327,2.322,59.292,59.292,0,0,1,57.865.244c.228-.019.51.07.629-.244h6.19a6.18,6.18,0,0,0,2.724,0h.743c1.376.224,2.78.116,4.153.3A62.374,62.374,0,0,1,101.2,12.063c1.826,1.341,2.047,2.125,1.284,3.844-1.254.987-2.069,1.013-3.433-.014a58.556,58.556,0,0,0-10.474-6.3A57.327,57.327,0,0,0,70.939,4.525,58.908,58.908,0,0,0,40.1,8.811,59.374,59.374,0,0,0,19.519,23.494a51.8,51.8,0,0,0-6.909,9.319A56.619,56.619,0,0,0,5.667,49.806,57.843,57.843,0,0,0,4.132,65.888a59.846,59.846,0,0,0,4.7,20.764A58.691,58.691,0,0,0,23.6,107.34a58.008,58.008,0,0,0,32.663,14.936A59,59,0,0,0,91.347,115.8a25.938,25.938,0,0,0,2.667-1.561A58.972,58.972,0,0,0,117,89a58.187,58.187,0,0,0,5.6-21.018,58.878,58.878,0,0,0-2.323-21.741,57.615,57.615,0,0,0-11.659-21.327c-1.215-1.408-2.558-2.686-3.806-4.056a2.369,2.369,0,0,1-.162-3.429c1.273-.8,1.793-.842,2.878.1a49.092,49.092,0,0,1,7.89,8.993,62.806,62.806,0,0,1,11.081,27.763c.2,1.46.082,2.943.343,4.4Z" transform="translate(0)"/>
        <path id="Trazado_162979" data-name="Trazado 162979" d="M82.869,0a3.281,3.281,0,0,1-2.724,0Z" transform="translate(-15.461)" fill="#434343"/>
        <path id="Trazado_162980" data-name="Trazado 162980" d="M103.808,16.7c1.073.261,1.471,1.485,2.527,1.771-.86,1.366-.786,1.988.466,3.223a56.907,56.907,0,0,1,16.221,28.739c4.737,21.786-.793,40.741-16.471,56.645a47.95,47.95,0,0,1-10.746,8.246A52.224,52.224,0,0,1,74.814,121a60.855,60.855,0,0,1-30.607-5.439,61.773,61.773,0,0,1-33.19-37.39A61.438,61.438,0,0,1,8.288,54.718a51.935,51.935,0,0,1,5.681-21.237A56.312,56.312,0,0,1,27.606,17.8,57.528,57.528,0,0,1,56.583,5.213,58.765,58.765,0,0,1,99.895,15.866c.3.215.619.416.9.659a2.164,2.164,0,0,0,3.017.175" transform="translate(-1.569 -0.89)" fill="#c0e3f9"/>
        <path id="Trazado_162981" data-name="Trazado 162981" d="M13.279,40.382c-.673,1.8-1.358,3.6-2.018,5.408A62.428,62.428,0,0,0,8.322,57.953a66.513,66.513,0,0,0-.4,12.81,53.96,53.96,0,0,0,2.507,13.5A61.781,61.781,0,0,0,58.276,126.8a63.934,63.934,0,0,0,16.82.633,57.516,57.516,0,0,0,13.452-2.773c1.831-.6,3.612-1.36,5.412-2.053.379-.146.708-.437,1.154-.379a52.947,52.947,0,0,1-15.455,6.635A59.57,59.57,0,0,1,7.281,88.635C2.225,72,4.252,55.985,12.9,40.856a3.937,3.937,0,0,1,.376-.474" transform="translate(-0.878 -7.79)" fill="#90b4f8"/>
        <path id="Trazado_162982" data-name="Trazado 162982" d="M46.168,22.548c-.267-1.616.137-2.248,1.708-2.72a13.745,13.745,0,0,1,5.259-.516,1.728,1.728,0,0,0,1.52-.538A15.085,15.085,0,0,1,73.09,16.51a1.641,1.641,0,0,0,1.483.128,15.1,15.1,0,0,1,17.493,5.97,1.859,1.859,0,0,0,1.368.867c7.224,1.215,11.871,5.892,13.112,13.181a1.383,1.383,0,0,0,.617,1.107c6.278,4.029,8.249,11.648,5.588,18.911a2.757,2.757,0,0,0-.035,2.2,7.318,7.318,0,0,1,.42,4.6c-.178.7.111.9.669,1.159a8.889,8.889,0,0,1,.063,16.332c-.605.285-.858.479-.722,1.24A8.652,8.652,0,0,1,104.006,92.4c-.968-.061-1.454.107-1.824,1.048a7.323,7.323,0,0,1-2.839,3.347c-.478.322-.63.548-.388,1.158a8.446,8.446,0,0,1-1.884,9.687c-2.726,2.755-6.06,3.311-9.683,1.964-.537-.2-.8-.195-1.182.311-3.5,4.635-9.231,5.159-13.448,1.25-.343-.318-.556-.469-1.028-.187a8.359,8.359,0,0,1-6.293,1.065c-.8-.179-.752.435-.931.826a8.9,8.9,0,0,1-12.381,4.261,8.511,8.511,0,0,1-3.973-4.408c-.238-.6-.471-.738-1.158-.613a8.744,8.744,0,0,1-9.436-4.8,1.8,1.8,0,0,0-1.418-1.111,13.448,13.448,0,0,1-8.484-6.132,23.627,23.627,0,0,1-2.89-6.651,2.041,2.041,0,0,1,1.15-2.45,1.772,1.772,0,0,1,2.512.933,18.042,18.042,0,0,1,.852,2.32,14.92,14.92,0,0,0,2.992,5.221,9.2,9.2,0,0,0,13.708-.017,15.547,15.547,0,0,0,3.2-5.946c.956-3.6,2.873-6.741,4.75-9.9A55.469,55.469,0,0,0,58.2,75.2a28,28,0,0,0,1.429-5.625,1.976,1.976,0,0,0-.418-1.622,9.627,9.627,0,0,1-1.738-8.193,2.393,2.393,0,0,0-.552-1.943,20.084,20.084,0,0,0-10.334-7.714,22.791,22.791,0,0,0-16.451.608,19.038,19.038,0,0,0-7.8,5.925,16.741,16.741,0,0,0-3.408,14.037c.811,4.516,2.949,8.442,5.168,12.35.446.788.935,1.555,1.331,2.368a1.838,1.838,0,0,1-.981,2.788,1.892,1.892,0,0,1-2.412-.68c-2.774-4.674-5.566-9.344-6.8-14.732C12.9,62.54,17.029,53.23,26.2,48.2a1.542,1.542,0,0,0,.955-1.788,15.072,15.072,0,0,1,9.5-15.862,1.6,1.6,0,0,0,1.023-1.087,14.381,14.381,0,0,1,2.8-4.9c1.069-1.246,1.763-1.349,3.207-.5a1.67,1.67,0,0,1,.324,2.455c-.523.927-1.364,1.634-1.818,2.611a10.484,10.484,0,0,0-.961,2.536,3.126,3.126,0,0,1-2.391,2.389,10.943,10.943,0,0,0-7.117,6.882,9.855,9.855,0,0,0-.564,3.764c.017.735.294.969,1,.756.472-.144.954-.261,1.439-.366a26.832,26.832,0,0,1,21.787,4.844,20.458,20.458,0,0,1,4.2,4.169c.573.759,1.076.991,1.94.4a8.421,8.421,0,0,1,5.685-1.267,1.455,1.455,0,0,0,1.659-.9,9.263,9.263,0,0,1,16.485-.087,1.583,1.583,0,0,0,1.752.968,8.736,8.736,0,0,1,8.127,3.54c.636.829,1.035.678,1.6,0a10.535,10.535,0,0,1,6.953-3.884,7.754,7.754,0,0,1,4.44.748c.812.39,1.227.249,1.362-.668.72-4.887-.253-9.26-5.357-12.243a2.886,2.886,0,0,1-1.635-2.562A11.258,11.258,0,0,0,91.747,27.366a2.777,2.777,0,0,1-2.463-1.573,11.083,11.083,0,0,0-14.126-5.056,3.662,3.662,0,0,1-3.7-.457,11.161,11.161,0,0,0-14.587,2,3.164,3.164,0,0,1-2.929,1.208,14.785,14.785,0,0,0-5.164.249c-1.493.373-2.24-.027-2.609-1.19" transform="translate(-2.815 -2.771)"/>
        <path id="Trazado_162983" data-name="Trazado 162983" d="M46.435,29.892a5.5,5.5,0,0,1,1.336-2.04,2.2,2.2,0,0,0,.361-2.906,7.868,7.868,0,0,1,2.479-1.512,2.125,2.125,0,0,0,2.686.86,10.526,10.526,0,0,1,5.142-.281,2.459,2.459,0,0,0,2.509-.888,11.376,11.376,0,0,1,15.57-1.96,2.571,2.571,0,0,0,2.657.287,11.376,11.376,0,0,1,14.839,5.091,2.485,2.485,0,0,0,2.269,1.4,11.4,11.4,0,0,1,11.061,10.992,2.745,2.745,0,0,0,1.671,2.493c5.537,3.025,6.594,9.509,4.887,14-5.616-3.032-9.856-.837-13.542,3.705a9.15,9.15,0,0,0-5.9-4.542,8.263,8.263,0,0,0-3.559-.094c-.721.146-.884-.107-1.14-.659a8.9,8.9,0,0,0-16.382.061c-.229.5-.384.728-1.054.613a8.634,8.634,0,0,0-6.9,1.615c-.37.278-.588.453-.972-.044-6.694-8.679-15.6-11.49-26.185-9.833a1.157,1.157,0,0,1-.246-.015,3.363,3.363,0,0,1-.254-2.633,10.831,10.831,0,0,1,6.73-8.687,1.812,1.812,0,0,0,1.374-2.01,9.5,9.5,0,0,1,.564-3.01" transform="translate(-7.258 -3.655)" fill="#feefae"/>
        <path id="Trazado_162984" data-name="Trazado 162984" d="M25.323,98.237c1.18-1.112,1.264-1.686.435-3.124-2.241-3.889-4.564-7.735-5.78-12.114-1.521-5.478-1.1-10.679,2.177-15.477.253-.37.573-.693.861-1.039.349.306.215.688.132,1.036-1.384,5.885-.033,11.356,2.511,16.645,1.27,2.64,2.787,5.144,4.254,7.677a32.288,32.288,0,0,1,3.05,6.874c1,3.318,2.493,6.373,5.369,8.537a9.6,9.6,0,0,0,6.2,2.082,3.722,3.722,0,0,1,2.516.3,9.41,9.41,0,0,1-13.628.611A16.615,16.615,0,0,1,29.3,102.78c-.461-1.491-.924-1.8-2.508-1.765l-1.466-2.779" transform="translate(-3.691 -12.826)" fill="#b0705b"/>
        <path id="Trazado_162985" data-name="Trazado 162985" d="M47.793,107.757c-1.959-.074-3.93.249-5.862-.447a11.489,11.489,0,0,1-7.374-7.457c-2.046-6.565-5.917-12.168-8.841-18.261a25.711,25.711,0,0,1-2.63-13.5,32.048,32.048,0,0,1,.676-3.487,19.3,19.3,0,0,1,11.606-7.2c8.269-1.786,15.6.053,21.658,6.164a14.116,14.116,0,0,1,1.192,1.418c.868,1.144,1.52,2.181,1.072,3.882a7.97,7.97,0,0,0,1.8,7.058,2.4,2.4,0,0,1,.475,2.036,32.4,32.4,0,0,1-4.254,11.376c-.927,1.65-1.884,3.286-2.851,4.914a32.063,32.063,0,0,0-3.317,7.411,13.774,13.774,0,0,1-3.353,6.1" transform="translate(-4.436 -10.948)" fill="#c28678"/>
        <path id="Trazado_162986" data-name="Trazado 162986" d="M103.077,88.873a20.955,20.955,0,0,1,6.219-8.335c2.32-2,4.165-4.218,4.516-7.392a1.007,1.007,0,0,1,.257-.541c1.3-1.378,2.543-2.828,3.951-4.09a4.99,4.99,0,0,1,6.664-.461c2.01,1.588,2.491,4.128,1.261,6.68-.8,1.659-.13,2.891,1.663,3.06a5.193,5.193,0,0,1,5,5.131,5.254,5.254,0,0,1-4.92,5.237c-1.981.212-2.558,1.322-1.655,3.182a5.2,5.2,0,0,1-1.2,6.4,5.03,5.03,0,0,1-6.392.025,13.874,13.874,0,0,1-2.279-2.259,28.1,28.1,0,0,0-7.1-5.908,2.093,2.093,0,0,0-2.979.328,2.676,2.676,0,0,1-3.008-1.061" transform="translate(-19.885 -12.923)" fill="#97c990"/>
        <path id="Trazado_162987" data-name="Trazado 162987" d="M94.018,85.166a43.843,43.843,0,0,0-1.654,4.851A4,4,0,0,1,90.55,92.53a6.441,6.441,0,0,0-2,2.27c-1.318.572-2.146.41-2.774-.543A2.149,2.149,0,0,0,85.2,91.78a4,4,0,0,1-1.107-2.035,26.006,26.006,0,0,0-8.833-13.682,9.1,9.1,0,0,1-2.31-2.711,4.8,4.8,0,0,1,.7-5.724,5.222,5.222,0,0,1,5.8-1.243c.152.065.3.143.446.215,1.918.943,3.023.339,3.2-1.751a5.182,5.182,0,0,1,9.485-2.5,5.563,5.563,0,0,1,.9,2.663c.169,1.844,1.349,2.507,3,1.7,2.573-1.253,5.073-.8,6.689,1.222,1.546,1.929,1.389,4.473-.419,6.68-.235.286-.505.542-.752.819-.627.7-1.065.969-1.78-.079a5.28,5.28,0,0,0-5.947-1.917,5.582,5.582,0,0,0-3.963,5c-.023.33-.025.659-.037.989a8.158,8.158,0,0,0-.154,1.589,3.327,3.327,0,0,0,2.813,3.515c.414.088,1.046-.119,1.094.633" transform="translate(-13.951 -11.582)" fill="#c1e3a0"/>
        <path id="Trazado_162988" data-name="Trazado 162988" d="M108.645,108.057a4.293,4.293,0,0,1-2.122,1.169,1.866,1.866,0,0,0-.89,3.2c1.955,2.487,1.927,5.233-.071,7.244-1.973,1.984-4.8,2.026-7.248.107-1.458-1.144-2.691-.7-3.336,1.191a5.137,5.137,0,0,1-7.678,2.9c-.91-.606-1.426-1.172-.836-2.488,1.613-3.6.038-8.556-3.234-10.8a2.014,2.014,0,0,0-2.6.224c-.739-.426-1.508-.827-1.541-1.843a2.246,2.246,0,0,0-.215-2.922,19.121,19.121,0,0,1-3.533-7.253,8.131,8.131,0,0,0-2.748-4.561.808.808,0,0,1-.267-1.148c.425-.932.776-1.9,1.157-2.85.617-.07.837.437,1.136.8A21.762,21.762,0,0,1,78.666,99c1.059,3.76,3.658,5.51,7.572,5.071.814-.091,1.448-.028,1.6,1.014.429,2.993,1.3,3.7,4.3,3.571a1.547,1.547,0,0,0,.841-.1c3.32-.127,5.319-1.516,6.043-4.223a5.827,5.827,0,0,0-.866-4.7c.462-.407.471-.424,1.008-.131a15.844,15.844,0,0,1,3.291,2.395A31.817,31.817,0,0,1,106.3,105.9c.646.87,1.771,1.21,2.345,2.152" transform="translate(-13.927 -17.406)" fill="#97c990"/>
        <path id="Trazado_162989" data-name="Trazado 162989" d="M74.405,110.64l1.541,1.843a2.159,2.159,0,0,0,.57,2.965,7.384,7.384,0,0,1,1.276,1.5,4.939,4.939,0,0,1-.315,6.173,5.2,5.2,0,0,1-6.217,1.158c-.149-.071-.287-.161-.437-.231a1.849,1.849,0,0,0-2.844,1.579c-.345,3.176-2.362,5.156-5.24,5.144-2.813-.013-4.838-2.016-5.153-5.1-.174-1.7-1.429-2.336-3.034-1.546a5.146,5.146,0,0,1-6.351-.882.591.591,0,0,1-.247-.611c4.167-.739,7.1-3.295,9.4-6.733a12.971,12.971,0,0,0,3.766-.051c3.919-.228,6.275-2.509,6.127-5.934-.111-2.586-1.816-4.435-4.958-5.308l3.319-5.706a4.041,4.041,0,0,1,1.437,2.5,23.955,23.955,0,0,0,4.127,8.491c1.094,1.437,1.638,1.564,3.236.742" transform="translate(-9.248 -19.081)" fill="#c1e3a0"/>
        <path id="Trazado_162990" data-name="Trazado 162990" d="M93.281,107.682a3.554,3.554,0,0,1-5.437-3.041c.079-1.019-.283-1.33-1.268-1.156a6.647,6.647,0,0,1-7.792-4.8,22.621,22.621,0,0,0-4.459-8.834,4.483,4.483,0,0,0-.54-.5c.345-1.219.689-2.437,1.037-3.664.458-.055.631.34.86.591a20.705,20.705,0,0,1,5,9.063,8.506,8.506,0,0,0,1.95,3.791c1.207,1.32,2.132,1.335,3.423.069.826.687,1.816.532,2.774.543a5.7,5.7,0,0,0,4.451,7.934" transform="translate(-14.235 -16.531)" fill="#68b080"/>
        <path id="Trazado_162991" data-name="Trazado 162991" d="M114.309,108.806a10.678,10.678,0,0,1-2.9-2.372,27.544,27.544,0,0,0-6.974-6.1c-.247-.14-.43-.22-.617.049-.292-.282-.534-.685-.884-.827-1.935-.786-1.433-2.14-.891-3.525.25-.641.5-1.284.743-1.927a6.613,6.613,0,0,0,3.007,1.061,1.928,1.928,0,0,0,.849,2.73,25.877,25.877,0,0,1,7.174,6.127,13.445,13.445,0,0,0,1.023,1.069c1.329,1.27,1.356,1.751.118,3.161a5.841,5.841,0,0,1-.645.554" transform="translate(-19.591 -18.154)" fill="#68b080"/>
        <path id="Trazado_162992" data-name="Trazado 162992" d="M45.84,32.508c.077,1.4-.4,2.762-.26,4.168.049.492-.29.682-.73.835a10.646,10.646,0,0,0-7.308,8.39,18.775,18.775,0,0,0-.116,2.948c-2.943.989-3.164.881-2.708-2.183a11.065,11.065,0,0,1,7.846-9.4,2.883,2.883,0,0,0,2.243-2.294,5.65,5.65,0,0,1,1.033-2.467" transform="translate(-6.662 -6.271)" fill="#fedf7c"/>
        <path id="Trazado_162993" data-name="Trazado 162993" d="M98.308,103.7a1.854,1.854,0,0,1,0,3.709,1.854,1.854,0,1,1,0-3.709" transform="translate(-18.607 -20.007)" fill="#fbbf4f"/>
        <path id="Trazado_162994" data-name="Trazado 162994" d="M101.112,84.651a1.907,1.907,0,0,1-1.909-1.87,1.834,1.834,0,0,1,1.806-1.815,1.794,1.794,0,0,1,1.883,1.713,1.863,1.863,0,0,1-1.78,1.973" transform="translate(-19.138 -15.62)" fill="#fbbf4f"/>
        <path id="Trazado_162995" data-name="Trazado 162995" d="M66.376,112.549a1.86,1.86,0,0,1-1.812,1.819,1.893,1.893,0,0,1-1.884-1.885,1.838,1.838,0,0,1,1.949-1.788,1.8,1.8,0,0,1,1.747,1.853" transform="translate(-12.092 -21.355)" fill="#fcc04f"/>
        <path id="Trazado_162996" data-name="Trazado 162996" d="M98.18,89.8c-.293-.414-.735-.257-1.126-.29a3.623,3.623,0,0,1-2.627-5.447,6.05,6.05,0,0,0,3.829,4.622c.871.333,0,.74-.076,1.115" transform="translate(-18.112 -16.218)" fill="#97c890"/>
        <path id="Trazado_162997" data-name="Trazado 162997" d="M63.368,119.649a3.489,3.489,0,0,1-3.766.051c.305-1.188.861-1.462,1.938-.69a6.786,6.786,0,0,0,1.828.639" transform="translate(-11.498 -22.875)" fill="#95c68e"/>
        <path id="Trazado_162998" data-name="Trazado 162998" d="M73.083,56.625a5.491,5.491,0,0,1-5.534-5.589,5.556,5.556,0,0,1,5.5-5.529,5.619,5.619,0,0,1,5.627,5.56,5.56,5.56,0,0,1-5.6,5.558" transform="translate(-13.031 -8.779)"/>
        <path id="Trazado_162999" data-name="Trazado 162999" d="M118.986,53.227a5.485,5.485,0,0,1-5.545,5.576,5.555,5.555,0,1,1,5.545-5.576" transform="translate(-20.809 -9.201)"/>
        <path id="Trazado_163000" data-name="Trazado 163000" d="M41.6,88.769q-6.066,0-12.133,0c-1.557,0-2.414-.679-2.4-1.853s.875-1.855,2.433-1.855q12.133-.01,24.266,0c1.825,0,2.855,1.219,2.238,2.611a1.938,1.938,0,0,1-2.026,1.1c-4.127-.015-8.254-.007-12.381-.006" transform="translate(-5.222 -16.408)"/>
        <path id="Trazado_163001" data-name="Trazado 163001" d="M41.824,72.859q-5.255,0-10.511,0a1.818,1.818,0,0,1-1.952-1.374,1.733,1.733,0,0,1,.819-2.019,2.224,2.224,0,0,1,1.3-.315c6.925,0,13.85-.015,20.773.006,1.477,0,2.26.719,2.249,1.892s-.776,1.8-2.295,1.808c-3.462.011-6.925,0-10.387,0" transform="translate(-5.649 -13.339)" fill="#010000"/>
        <path id="Trazado_163002" data-name="Trazado 163002" d="M44.086,101.808c1.814,0,3.628-.014,5.441,0,1.4.014,2.143.669,2.138,1.834,0,1.135-.783,1.858-2.148,1.867q-5.5.035-11.007,0a1.947,1.947,0,0,1-2.171-1.876c0-1.088.845-1.814,2.182-1.824,1.855-.015,3.71,0,5.565,0" transform="translate(-7.011 -19.64)"/>
        <path id="Trazado_163003" data-name="Trazado 163003" d="M74.018,53.8a1.788,1.788,0,0,1-1.862-1.731,1.852,1.852,0,0,1,1.8-1.944,1.9,1.9,0,0,1,1.89,1.885,1.847,1.847,0,0,1-1.83,1.79" transform="translate(-13.92 -9.669)" fill="#fcbf4f"/>
        <path id="Trazado_163004" data-name="Trazado 163004" d="M114.371,55.968a1.83,1.83,0,0,1-1.891-1.843,1.862,1.862,0,0,1,1.811-1.822,1.815,1.815,0,0,1,1.863,1.863,1.77,1.77,0,0,1-1.783,1.8" transform="translate(-21.699 -10.09)" fill="#fcc04f"/>
      </g>
    </g>
  </g>
</svg>
