<svg xmlns="http://www.w3.org/2000/svg" xmlns:xlink="http://www.w3.org/1999/xlink" width="85" height="85" viewBox="0 0 85 85">
  <defs>
    <clipPath id="clip-path">
      <rect id="Rectángulo_42673" data-name="Rectángulo 42673" width="51.342" height="63.619" fill="none"/>
    </clipPath>
  </defs>
  <g id="Grupo_169613" data-name="Grupo 169613" transform="translate(-810 -3896)">
    <circle id="Elipse_4856" data-name="Elipse 4856" cx="42.5" cy="42.5" r="42.5" transform="translate(810 3896)" fill="#6b8dfc"/>
    <g id="Grupo_169612" data-name="Grupo 169612" transform="translate(827 3907)">
      <g id="Grupo_169611" data-name="Grupo 169611" clip-path="url(#clip-path)">
        <path id="Trazado_161603" data-name="Trazado 161603" d="M47.1,27.254c-.728-.18-.937-.418-.944-1.154-.011-1.263-.025-2.527.009-3.79a.74.74,0,0,0-.5-.8c-.747-.35-1.475-.741-2.208-1.12a2.577,2.577,0,0,1-1.336-3.52,2.611,2.611,0,0,1,3.608-1.092c.075.034.152.063.327.134,0-.5-.005-.962,0-1.424a3.174,3.174,0,0,1,3.4-3.367A5.371,5.371,0,0,1,51,11.248a3.227,3.227,0,0,1,2.379,3.246c.011,2.941,0,5.882,0,8.824q0,8.015,0,16.031c0,2.06-.741,2.94-2.746,3.312-2.866.533-5.73,1.08-8.6,1.613-.4.074-.614.156-.547.684.507,4.024.968,8.053,1.445,12.081.29,2.445.573,4.891.879,7.334a1.277,1.277,0,0,1-.561,1.142h-.746a1.129,1.129,0,0,1-.627-.648c-.041-.159-.1-.314-.132-.476-.707-5.937-1.393-11.875-2.118-17.81-.075-.616-.154-1.232-.207-1.85A2.129,2.129,0,0,1,41.1,42.386c.542-.134,1.094-.228,1.645-.321.861-.145.892-.195.771-1.106-.123-.8-.274-1.592-.385-2.391-.066-.475-.285-.644-.748-.578-2.521.36-5.05.654-7.574.99a1.2,1.2,0,0,0-.9.673,6.171,6.171,0,0,1-4.515,3.168,5.961,5.961,0,0,1-6.039-2.594,1.487,1.487,0,0,0-1.333-.808,2.158,2.158,0,0,1-1.411-.575c-1.364-1.144-2.67-2.353-4.005-3.53-.5-.442-.529-.451-.979.054-.5.556-1.062,1.045-1.518,1.64-.39.508-.407.564.088,1,.683.6,1.372,1.2,2.05,1.806a4.606,4.606,0,0,1,1.533,3.095c.319,3.191.691,6.377,1.035,9.566.308,2.859.635,5.716.943,8.575.126,1.172.295,2.34.348,3.519a1,1,0,0,1-.72.947h-.622a1.281,1.281,0,0,1-.708-1.148q-.507-4.786-1.033-9.57-.64-5.9-1.281-11.792a2.768,2.768,0,0,0-1.021-1.844c-3.173-2.789-6.316-5.615-9.5-8.389A4.9,4.9,0,0,1,3.686,26.98c1.8-5.276,3.531-10.574,5.28-15.867.2-.606.485-1.052,1.2-1.015a.923.923,0,0,1,.864,1.164,4.23,4.23,0,0,1-.2.654C9.107,17.126,7.381,22.336,5.627,27.537a3.1,3.1,0,0,0,.942,3.739c1.7,1.415,3.312,2.939,4.993,4.381.324.278.544.283.82-.054.525-.64,1.158-1.181,1.681-1.828.247-.3.289-.49-.033-.762-1.2-1.016-2.359-2.081-3.551-3.107a2.9,2.9,0,0,1-1.016-3.694c1.31-3.951,2.65-7.893,3.939-11.851A2.373,2.373,0,0,1,15.6,12.5c.781-.071,1.55-.269,2.331-.364a1.507,1.507,0,0,0,.3-.065c.28-.095.489-.258.439-.585a.528.528,0,0,0-.624-.471c-.391.031-.776.125-1.166.18a1.467,1.467,0,0,1-1.735-2.047c.218-.691.477-1.37.671-2.068A1.193,1.193,0,0,0,15,5.41a4.476,4.476,0,0,0-.649-.212,1.185,1.185,0,0,0-1.53.8c-.167.424-.265.874-.464,1.285a.927.927,0,0,1-1.3.544c-.657-.471-.743-.715-.5-1.462.127-.393.246-.789.391-1.175a3.172,3.172,0,0,1,3.917-1.97c.337.1.672.2,1,.328a3.156,3.156,0,0,1,1.95,3.971c-.147.49-.31.976-.482,1.513a4.88,4.88,0,0,1,1.4-.013,2.553,2.553,0,0,1,2.05,2.595,2.518,2.518,0,0,1-2.148,2.441c-.936.17-1.874.333-2.816.468a.486.486,0,0,0-.458.4q-2.022,6.114-4.071,12.219a.822.822,0,0,0,.264.988q5.1,4.507,10.182,9.027a1.432,1.432,0,0,0,1.106.236c1.567.01,1.545,0,1.579-1.537a1.049,1.049,0,0,0-.646-1.153,5.793,5.793,0,0,1-2.621-2.727.592.592,0,0,0-.656-.4c-.537.027-1.077.017-1.615,0a2.121,2.121,0,0,1-2.155-1.917,6.818,6.818,0,0,1,.039-2.9,15,15,0,0,0,.369-4.9,10.446,10.446,0,0,1,9.931-10.163,13.584,13.584,0,0,1,6.228.775,10.291,10.291,0,0,1,6.444,9.438c.042.785.007,1.574.011,2.362a7.938,7.938,0,0,0,.283,2.112,8.278,8.278,0,0,1,.035,3.633,2.04,2.04,0,0,1-2.007,1.555q-.869.028-1.74,0a.521.521,0,0,0-.569.342A6.3,6.3,0,0,1,32.783,34.9a.515.515,0,0,0-.333.573,7.829,7.829,0,0,1,0,1.118c-.05.505.129.656.632.585,1.7-.241,3.405-.448,5.108-.671,2.421-.317,4.84-.651,7.264-.943.521-.063.742-.193.718-.778-.053-1.283-.021-2.568-.014-3.853,0-.78.185-1,.948-1.226.644-.042,1,.279,1.04.983.041.764.012,1.531.014,2.3,0,.786.01,1.573,0,2.359a1.994,1.994,0,0,1-1.711,2.111c-1.209.286-1.207.286-1.013,1.5.085.531.2,1.057.256,1.593.222.905.224.92,1.106.752,1.159-.222,2.321-.419,3.476-.662.875-.183.993-.311.994-1.2q.01-5.277,0-10.554,0-6.985,0-13.968c0-1.445-.62-1.963-2.069-1.738-.85.281-1.032.516-1.045,1.38-.01.683.024,1.368-.012,2.05a1.564,1.564,0,0,1-2.506,1.419,4.755,4.755,0,0,0-.889-.437c-.308-.086-.593-.065-.73.271a.519.519,0,0,0,.293.673c.552.329,1.142.585,1.713.879a10.868,10.868,0,0,1,1.252.685,1.846,1.846,0,0,1,.872,1.561c.013,1.533.026,3.065-.005,4.6-.016.791-.37,1.1-1.037,1" transform="translate(-2.038 -1.898)"/>
        <path id="Trazado_161604" data-name="Trazado 161604" d="M14,10.8a1.05,1.05,0,0,0,1.27-.891,8.7,8.7,0,0,1,.324-.936,2.267,2.267,0,0,1,.234-.5c.468-.668,1.245-.716,2.421-.165a1.262,1.262,0,0,1,.73,1.585c-.228.793-.512,1.569-.759,2.357a1.276,1.276,0,0,0,1.468,1.774c.41-.05.813-.152,1.223-.207.461-.061.846.069.928.584.076.479-.2.732-.656.807-.918.152-1.833.322-2.756.44A2.05,2.05,0,0,0,16.557,17.2q-1.989,6.093-4.056,12.16a2.748,2.748,0,0,0,.888,3.273c1.414,1.213,2.794,2.465,4.214,3.722-.828.9-1.647,1.769-2.446,2.66-.2.222-.318.156-.5,0C12.773,37.326,10.869,35.667,9,33.97a2.812,2.812,0,0,1-.666-3.246q2.7-8.045,5.369-16.1c.285-.854.162-1.164-.6-1.553A13.071,13.071,0,0,0,14,10.8" transform="translate(-4.974 -4.87)" fill="#fecdbe"/>
        <path id="Trazado_161605" data-name="Trazado 161605" d="M109.752,56.282c-.146-.9-.277-1.794-.446-2.685-.058-.3.012-.415.315-.428,2.179-.093,2.735-.969,2.635-3.07-.053-1.133-.029-2.272,0-3.407a1.062,1.062,0,0,0-.921-1.244q0-1.224,0-2.448a.977.977,0,0,0,.919-1.106q-.012-2.171,0-4.343a1.778,1.778,0,0,0-1.036-1.7c-.879-.456-1.763-.9-2.643-1.355-.561-.289-.771-.681-.535-1.069.3-.5.73-.447,1.182-.194.324.181.654.35.989.51a1.271,1.271,0,0,0,1.939-1.182c.025-.826-.01-1.655.017-2.481a1.209,1.209,0,0,1,1.137-1.3c.545-.165.813.122.971.593a3.063,3.063,0,0,1,.121.982q0,11.748,0,23.494c0,1.4-.42,1.9-1.782,2.181-.71.148-1.42.293-2.134.419-.255.046-.542.144-.719-.173" transform="translate(-66.267 -17.644)" fill="#fecdbe"/>
        <path id="Trazado_161606" data-name="Trazado 161606" d="M95.423,2c0,1.942.008,3.819,0,5.7a3.043,3.043,0,0,1-5.369,2.05,3.03,3.03,0,0,1,2.784-4.956c.222.036.441.088.723.146,0-1.133,0-2.242,0-3.351.007-1.235.736-1.8,1.947-1.515A4.312,4.312,0,0,1,98.476,2.4a.958.958,0,0,1-.291,1.4.94.94,0,0,1-1.332-.5A2.6,2.6,0,0,0,95.423,2" transform="translate(-54.844 0)"/>
        <path id="Trazado_161607" data-name="Trazado 161607" d="M6.07,113.089c0,.952.047,1.907-.012,2.855a2.914,2.914,0,0,1-2.127,2.62,3,3,0,0,1-3.2-.944,2.943,2.943,0,0,1-.4-3.311,2.982,2.982,0,0,1,3.492-1.582c.374.083.415,0,.41-.324-.013-.952-.01-1.9,0-2.857.01-1.347.745-1.92,2.057-1.58a4.31,4.31,0,0,1,2.887,2.347.942.942,0,0,1-.352,1.377.915.915,0,0,1-1.281-.5,2.96,2.96,0,0,0-1.03-1.131c-.308-.195-.429-.15-.422.237.015.931,0,1.863,0,2.795H6.07" transform="translate(0 -66.226)"/>
        <path id="Trazado_161608" data-name="Trazado 161608" d="M58.159,115.2c-.189-.309-.5-.24-.78-.24L37,114.957c-.29,0-.579-.013-.869-.02-.765-6.991-1.576-13.977-2.264-20.976a5.736,5.736,0,0,0-2.3-4.381c-.612-.455-1.145-1.016-1.73-1.51-.221-.187-.249-.3-.031-.525.719-.744,1.425-1.5,2.106-2.281.252-.289.4-.289.682-.033,1.318,1.2,2.67,2.354,3.985,3.554a2.6,2.6,0,0,0,2.074.786c.37-.036.53.136.707.432A6.04,6.04,0,0,0,50.01,89.7a.843.843,0,0,1,.719-.536q4.031-.511,8.057-1.064c.463-.064.6.071.65.526.085.862.242,1.717.369,2.575-.007.453-.388.43-.667.49-1.234.262-2.473.5-3.71.751-1.068.215-1.283.515-1.142,1.643.247,1.97.5,3.939.735,5.91.555,4.578,1.134,9.152,1.7,13.729.1.813.1.815.951.946a.857.857,0,0,1,.4.161.475.475,0,0,1,.093.374" transform="translate(-18.204 -52.211)" fill="#d7ebfd"/>
        <path id="Trazado_161609" data-name="Trazado 161609" d="M52.528,54.822c0-1.262.012-2.524-.007-3.786-.006-.418.051-.546.5-.356a27.52,27.52,0,0,0,7.247,2.04,15.174,15.174,0,0,0,4.02.093c.386-.053.489.039.483.435-.024,1.717.008,3.435-.02,5.152a4.57,4.57,0,0,1-4.39,4.447,19.588,19.588,0,0,1-4.147-.1,4.491,4.491,0,0,1-3.664-4.267c-.049-1.218-.009-2.441-.009-3.661h-.015" transform="translate(-32.244 -31.062)" fill="#fecdbe"/>
        <path id="Trazado_161610" data-name="Trazado 161610" d="M43.927,39.327a8.44,8.44,0,0,1,2.585-6.749A8.016,8.016,0,0,1,51.707,30.2a12.643,12.643,0,0,1,5.637.537A8.581,8.581,0,0,1,62.8,38.5c.02.808-.015,1.617.015,2.424.016.412-.117.571-.525.518a2.649,2.649,0,0,0-.559,0c-.295.025-.4-.091-.394-.389.017-.6.014-1.2,0-1.8-.014-.726-.392-1.133-1.088-1.018-4.729.779-9.049-.577-13.271-2.479a1.118,1.118,0,0,0-1.227-.017,1.04,1.04,0,0,0-.369.939c0,1.388-.036,2.777.017,4.163.025.665-.335.606-.766.607-.411,0-.791.055-.713-.576a14.149,14.149,0,0,0,.01-1.543" transform="translate(-26.956 -18.493)" fill="#7ca0b0"/>
        <path id="Trazado_161611" data-name="Trazado 161611" d="M112.634,56.239a7.837,7.837,0,0,0,2.164-.307c.3-.03.6-.135.9-.191a1.419,1.419,0,0,0,1.371-1.6q.008-12.089,0-24.177c0-.819-.253-1.133-.893-1.218a3.068,3.068,0,0,1,1.349,0,1.3,1.3,0,0,1,1.081,1.2,5.5,5.5,0,0,1,.014.559q0,12.244,0,24.487c0,1.219-.082,1.328-1.267,1.559-1.279.248-2.571.434-3.838.733-.625.147-.839-.007-.822-.613a2.432,2.432,0,0,0-.063-.426" transform="translate(-69.15 -17.6)" fill="#feaf9d"/>
        <path id="Trazado_161612" data-name="Trazado 161612" d="M96.891,124.616c-1.295.028-1.331.033-1.521-1.242-.238-1.6-.405-3.215-.61-4.823-.231-1.811-.476-3.621-.7-5.432-.189-1.507-.355-3.017-.54-4.524s-.37-3.014-.576-4.518a4.507,4.507,0,0,1-.029-1.111.94.94,0,0,1,.857-.844c1.471-.285,2.94-.585,4.412-.864a.537.537,0,0,0,.448-.273c.138.2.061.45.14.657.153.4,0,.544-.4.6-.694.1-1.381.247-2.071.376a1.872,1.872,0,0,0-1.689,2.3q1.046,8.895,2.1,17.789c.075.635.116,1.273.173,1.91" transform="translate(-57.028 -61.998)" fill="#b2d9fd"/>
        <path id="Trazado_161613" data-name="Trazado 161613" d="M65.718,90.036a3.051,3.051,0,0,0,.825.531,4.147,4.147,0,0,1-6.683.461c-.105-.139-.28-.263,0-.427A2.247,2.247,0,0,0,60.9,88.371c-.025-1.174,0-1.177,1.188-1.174.745,0,1.489.013,2.233.02a1.051,1.051,0,0,1,.166.887,1.608,1.608,0,0,0,1.232,1.932" transform="translate(-36.658 -53.533)" fill="#fecdbe"/>
        <path id="Trazado_161614" data-name="Trazado 161614" d="M44.676,65.772a1.894,1.894,0,0,1,0,.248c-.052.383.207.985-.072,1.106a3.726,3.726,0,0,1-1.523.062c-.26-.009-.31-.24-.312-.459,0-.683,0-1.365,0-2.047,0-.326.141-.471.483-.5,1.428-.108,1.427-.118,1.427,1.587" transform="translate(-26.255 -39.381)" fill="#fcae9c"/>
        <path id="Trazado_161615" data-name="Trazado 161615" d="M89.061,65.706v-.186c0-1.341,0-1.329,1.337-1.29.391.011.566.135.554.541-.018.661-.014,1.322,0,1.982.007.377-.163.492-.525.505-1.364.051-1.364.062-1.364-1.305v-.248" transform="translate(-54.678 -39.426)" fill="#feaf9d"/>
        <path id="Trazado_161616" data-name="Trazado 161616" d="M73.048,90a1.236,1.236,0,0,1-1.394-1.339c-.009-.493,0-.986,0-1.479a3.2,3.2,0,0,0,.432-.027c.414-.081.481.124.463.48a3.3,3.3,0,0,0,.5,2.366" transform="translate(-43.988 -53.494)" fill="#feb09e"/>
        <path id="Trazado_161617" data-name="Trazado 161617" d="M94.189,18.288a1.172,1.172,0,0,1,1.179-1.179,1.213,1.213,0,0,1,1.167,1.208,1.173,1.173,0,0,1-1.164,1.13,1.141,1.141,0,0,1-1.182-1.159" transform="translate(-57.826 -10.504)" fill="#8278bf"/>
        <path id="Trazado_161618" data-name="Trazado 161618" d="M6.052,125.011A1.16,1.16,0,0,1,7.219,126.2a1.163,1.163,0,0,1-2.325.008,1.159,1.159,0,0,1,1.158-1.192" transform="translate(-3.004 -76.749)" fill="#fc75a7"/>
      </g>
    </g>
  </g>
</svg>
