<svg xmlns="http://www.w3.org/2000/svg" xmlns:xlink="http://www.w3.org/1999/xlink" width="190" height="163" viewBox="0 0 190 163">
  <defs>
    <clipPath id="clip-path">
      <rect id="Rect치ngulo_42775" data-name="Rect치ngulo 42775" width="104.1" height="104.105" transform="translate(0 0)" fill="none"/>
    </clipPath>
  </defs>
  <g id="Grupo_169848" data-name="Grupo 169848" transform="translate(-2120 9492)">
    <rect id="Rect치ngulo_42595" data-name="Rect치ngulo 42595" width="190" height="163" rx="18" transform="translate(2120 -9492)" fill="#ffbfc1"/>
    <g id="Grupo_169847" data-name="Grupo 169847" transform="translate(2163 -9462)">
      <g id="Grupo_169846" data-name="Grupo 169846" clip-path="url(#clip-path)">
        <path id="Trazado_162919" data-name="Trazado 162919" d="M.048,73.805V1.118A1.358,1.358,0,0,1,1.61,0c.271.009.542,0,.812,0h99.171c.3,0,.609-.012.913,0,1.1.056,1.519.466,1.583,1.555.016.27,0,.541,0,.812V72.622c0,2.037-.455,2.512-2.5,2.521q-5.734.024-11.47,0c-2.019-.01-2.723-.69-2.677-2.69a48.162,48.162,0,0,1,.489-5.556c.2-1.435.16-1.491-1.308-1.492q-16.5,0-32.99,0H17.7c-1.814,0-1.8,0-1.573,1.8a44.492,44.492,0,0,1,.476,5.354c.01,1.874-.7,2.574-2.585,2.584-3.925.022-7.85.012-11.774,0-1,0-1.909-.165-2.2-1.339"/>
        <path id="Trazado_162920" data-name="Trazado 162920" d="M102.98,104.057H1.063a1.26,1.26,0,0,1-1.015-1.015V90.86a3.781,3.781,0,0,1,3.594-3.27c.795-.106.982-.468,1-1.191.159-5.2,3.7-8.6,8.9-8.624.737,0,1.6.279,2.18-.172s.228-1.339.311-2.028a8.47,8.47,0,0,1,8.437-7.534c3.111-.019,6.222.02,9.333-.012A8.523,8.523,0,0,1,39.9,70.363c.575.533.92.541,1.5,0a8.6,8.6,0,0,1,6.192-2.342q4.463.066,8.927,0a8.568,8.568,0,0,1,6.1,2.315c.558.511.907.592,1.5.037a8.591,8.591,0,0,1,6.188-2.352c3.043.04,6.087,0,9.13.012a8.427,8.427,0,0,1,8.6,8.424c.028,1.269.065,1.33,1.321,1.313a10.811,10.811,0,0,1,5.428.945A8.312,8.312,0,0,1,99.4,86.075c.073,1.288.037,1.29,1.29,1.545a3.883,3.883,0,0,1,3.4,4.025c.028,3.585,0,7.17.014,10.754,0,.834-.226,1.457-1.12,1.658"/>
        <path id="Trazado_162921" data-name="Trazado 162921" d="M.048,103.042l1.015,1.015q-1.288.273-1.015-1.015" fill="#f7f7f7"/>
        <path id="Trazado_162922" data-name="Trazado 162922" d="M86.328,61.789c-.27.012-.54.035-.809.035H18.525c-.27,0-.54-.023-.81-.035a6.32,6.32,0,0,1-.954-1.887,16.874,16.874,0,0,0-3.46-4.845A6.772,6.772,0,0,1,12.028,47.2a7.419,7.419,0,0,1,1.351-1.635A51.3,51.3,0,0,0,20.417,37.6,50.25,50.25,0,0,0,27.79,18.524a21.342,21.342,0,0,1,.594-2.672,6.511,6.511,0,0,1,6.33-4.649c6.224-.02,12.448-.006,18.671-.006q7.763,0,15.525,0a6.593,6.593,0,0,1,6.978,5.537c.59,2.6,1.009,5.245,1.76,7.816a44.653,44.653,0,0,0,8.614,16.523,43,43,0,0,0,4.494,4.54,6.5,6.5,0,0,1,.314,9.054,20,20,0,0,0-4.433,6.723,1.171,1.171,0,0,1-.309.4" fill="#97dde9"/>
        <path id="Trazado_162923" data-name="Trazado 162923" d="M86.328,61.789a14.7,14.7,0,0,1,3.492-6.183,20.261,20.261,0,0,0,1.672-1.894,6.452,6.452,0,0,0-.821-7.809A42.429,42.429,0,0,1,82.584,36.5,50.489,50.489,0,0,1,76.393,20.66c-.3-1.412-.511-2.845-.85-4.248a6.307,6.307,0,0,0-6.334-4.939c-11.295,0-22.591.051-33.886-.03A6.627,6.627,0,0,0,28.288,17.3,56.487,56.487,0,0,1,25,29.452a43.131,43.131,0,0,1-6.542,11.232,45.888,45.888,0,0,1-5.09,5.218c-2.4,2.14-2.368,6.582,0,8.83a17.549,17.549,0,0,1,3.858,5.525,4.141,4.141,0,0,1,.483,1.532,7.606,7.606,0,0,1-2.805-.048c-.79-.333-.751-1.545-1.123-2.351a18.73,18.73,0,0,0-8.572-9.015,3.573,3.573,0,0,1,1.127-.859c8.586-5.906,13.85-14.146,16.829-23.98a65.891,65.891,0,0,0,2.645-14.823c.055-.837.407-.877,1.063-.876q18,.023,36.008.01c1.4,0,1.8-.305,2.157-1.617a3.6,3.6,0,0,1,3.19,0c.345,1.28.756,1.612,2.054,1.616,2.3.007,4.6.041,6.9-.019.812-.022.983.246,1.043,1.009.645,8.318,2.422,16.348,6.328,23.8A40.5,40.5,0,0,0,98.387,49.965c.138.091.269.193.5.358a24.054,24.054,0,0,0-3.294,2.151A18.283,18.283,0,0,0,89.622,61.1c-.176.53-.367.79-.965.74-.773-.065-1.552-.037-2.329-.049" fill="#81cfd7"/>
        <path id="Trazado_162924" data-name="Trazado 162924" d="M100.713,11.476q.017,7.052.032,14.1.009,8.371,0,16.76c-.347,0-.316-.294-.4-.465a39.124,39.124,0,0,1-3.86-15.11c-.146-1.818-.392-3.628-.6-5.442-.131-1.158-.856-1.833-1.829-1.712a1.634,1.634,0,0,0-1.4,2c.76,5.781.859,11.672,2.824,17.256.115.208.127.419-.157.443-.243.021-.432-.17-.608-.33A39.718,39.718,0,0,1,83.2,21.387c-.039-.123-.006-.268-.112-.373a43.941,43.941,0,0,1-1.452-8.867c-.214-.619.095-.878.66-.961a6.276,6.276,0,0,1,.909-.044q7.988,0,15.975,0a2.008,2.008,0,0,1,1.537.33" fill="#f86464"/>
        <path id="Trazado_162925" data-name="Trazado 162925" d="M68.234,8.231h-3.19C64.692,6.884,64.307,6.6,62.8,6.6q-29.12,0-58.239.027c-1.1,0-1.328-.318-1.286-1.335.08-1.939.023-1.942,1.969-1.942q47.128,0,94.257-.022c.99,0,1.328.184,1.276,1.244-.1,2.023-.027,2.027-2.091,2.027q-14.154,0-28.308,0c-1.4,0-1.8.315-2.142,1.63" fill="#8d959a"/>
        <path id="Trazado_162926" data-name="Trazado 162926" d="M22.409,12.141A52.925,52.925,0,0,1,16.7,32.793a27.4,27.4,0,0,1-6.557,6.46,2.923,2.923,0,0,1-1.293.535c-.234.033-.579.128-.51-.339,2.165-5.737,2.26-11.83,3.042-17.8a1.645,1.645,0,0,0-1.46-2.039c-.97-.08-1.615.6-1.773,1.779C7.59,25.6,7.417,29.863,6.536,34.034a15.84,15.84,0,0,1-1.194,3.842c-.588-.076-.6-.573-.686-.984a6.563,6.563,0,0,1-.067-1.416q0-11.061,0-22.121c0-.2,0-.406,0-.609.041-1.352.259-1.593,1.624-1.6,4.972-.017,9.944-.023,14.916.011.6,0,1.508-.192,1.276.982" fill="#f86464"/>
        <path id="Trazado_162927" data-name="Trazado 162927" d="M22.409,12.141c0-.511-.249-.679-.761-.678q-8,.024-16,0c-.6,0-.733.258-.732.8q.015,12.154.009,24.309a1.869,1.869,0,0,0,.419,1.308A20.431,20.431,0,0,1,3.3,42.349v-.761c0-10.24.011-20.481-.022-30.721,0-.862.236-1.045,1.063-1.039,5.711.038,11.423.049,17.133-.007,1.027-.01,1.319.284,1.112,1.233-.078.357.031.747-.174,1.087" fill="#e95050"/>
        <path id="Trazado_162928" data-name="Trazado 162928" d="M83.084,21.014c.969,1.955,1.666,4.027,2.659,5.977a42.086,42.086,0,0,0,9.23,11.894c.145.133.366.578.506-.021,1.019,2.335,2.037,4.671,3.168,7.263a24.464,24.464,0,0,1-3.5-2.826c-6.393-6.025-10.038-13.562-12.065-21.985a1.323,1.323,0,0,1,0-.3" fill="#e95050"/>
        <path id="Trazado_162929" data-name="Trazado 162929" d="M12.814,69.944c.188,1.627.188,1.627-1.47,1.627q-3.646,0-7.293,0c-.342,0-.761.137-.76-.49.013-4.443.007-8.885.09-13.349a13.3,13.3,0,0,1,1.7,3.7c.1,1.865,0,3.768,1.086,5.434.115.452.244.9.343,1.357.372,1.711,1.3,2.13,2.854,1.273a10.946,10.946,0,0,1,3.455.447" fill="#e95050"/>
        <path id="Trazado_162930" data-name="Trazado 162930" d="M12.814,69.944c-1.166-.037-2.366.179-3.455-.447a2.384,2.384,0,0,0,.3-2.015c-.413-1.839-.753-3.7-1.1-5.55a19.629,19.629,0,0,0-2.054-5.463c-.275-.526-.536-1.059-.842-1.666,3.476.906,7.162,8.837,7.151,15.141" fill="#f86363"/>
        <path id="Trazado_162931" data-name="Trazado 162931" d="M100.713,69.943a.861.861,0,0,1,.015.1c.06,1.528.06,1.528-1.42,1.528-2.33,0-4.661-.044-6.989.021-.971.027-1.3-.11-1.188-1.232a31.307,31.307,0,0,1,2.108-9.639,4.581,4.581,0,0,1,.769-1.408c.312.283.191.636.095.939a8.535,8.535,0,0,0,.343,6.649,4.213,4.213,0,0,1-.079.7,1.677,1.677,0,0,0,2.879,1.673,25.058,25.058,0,0,1,3.467.672" fill="#e95050"/>
        <path id="Trazado_162932" data-name="Trazado 162932" d="M100.713,11.476l-18.021,0c-.5,0-1.075-.13-1.06.675-.54-2.282-.527-2.3,1.746-2.3H99.2c1.595,0,1.595,0,1.51,1.628" fill="#e95050"/>
        <path id="Trazado_162933" data-name="Trazado 162933" d="M100.713,69.943a5.475,5.475,0,0,1-3.467-.672c.656-2.239.981-4.549,1.451-6.827a18.1,18.1,0,0,1,2.016-4.983Z" fill="#f86464"/>
        <path id="Trazado_162934" data-name="Trazado 162934" d="M8.342,39.449c.863.366,1.443-.239,2.029-.657a46.106,46.106,0,0,0,6.331-6A36.027,36.027,0,0,1,8.136,43.979,16.223,16.223,0,0,1,5.389,46.1l2.953-6.656" fill="#e95050"/>
        <path id="Trazado_162935" data-name="Trazado 162935" d="M94.446,66.9a5.013,5.013,0,0,1-1.119-4.178c.131-1.147.447-2.274.68-3.41A12.924,12.924,0,0,1,98.1,54.686l.244.169c-.212.436-.391.891-.64,1.3-1.853,3.069-2.374,6.54-3.044,9.968-.051.262-.139.517-.209.775" fill="#f76363"/>
        <path id="Trazado_162936" data-name="Trazado 162936" d="M6.162,66.868c-.84-.313-.849-1.126-1.027-1.8a7.408,7.408,0,0,1-.059-3.636,54.03,54.03,0,0,1,1.086,5.435" fill="#f26161"/>
        <path id="Trazado_162937" data-name="Trazado 162937" d="M79.608,81.668a3.547,3.547,0,0,1,1.857-.351c3.106,0,6.212-.01,9.318,0a4.852,4.852,0,0,1,5.087,5.1c.007,3.713-.018,7.426-.029,11.139a1.48,1.48,0,0,1-1.141.307c-2.872.009-5.744.053-8.614-.011a6.749,6.749,0,0,1-6.745-6.713c-.067-2.769-.017-5.54-.014-8.31a1.881,1.881,0,0,1,.281-1.161" fill="#f86464"/>
        <path id="Trazado_162938" data-name="Trazado 162938" d="M56.869,81.668a3.547,3.547,0,0,1,1.857-.351c3.106,0,6.212-.01,9.318,0a4.852,4.852,0,0,1,5.087,5.1c.007,3.713-.018,7.426-.029,11.139a1.48,1.48,0,0,1-1.141.307c-2.872.009-5.744.053-8.614-.011A6.749,6.749,0,0,1,56.6,91.139c-.067-2.769-.017-5.54-.014-8.31a1.881,1.881,0,0,1,.281-1.161" fill="#f86464"/>
        <path id="Trazado_162939" data-name="Trazado 162939" d="M34.131,81.668a3.547,3.547,0,0,1,1.857-.351c3.106,0,6.212-.01,9.318,0a4.852,4.852,0,0,1,5.087,5.1c.007,3.713-.018,7.426-.029,11.139a1.48,1.48,0,0,1-1.141.307c-2.871.009-5.744.053-8.614-.011a6.749,6.749,0,0,1-6.745-6.713c-.068-2.769-.017-5.54-.014-8.31a1.881,1.881,0,0,1,.281-1.161" fill="#f86464"/>
        <path id="Trazado_162940" data-name="Trazado 162940" d="M11.392,81.668a3.547,3.547,0,0,1,1.857-.351c3.106,0,6.213-.01,9.318,0a4.851,4.851,0,0,1,5.087,5.1c.007,3.713-.018,7.426-.029,11.139a1.48,1.48,0,0,1-1.141.307c-2.872.009-5.744.053-8.614-.011a6.749,6.749,0,0,1-6.745-6.713c-.068-2.769-.017-5.54-.014-8.31a1.881,1.881,0,0,1,.281-1.161" fill="#f86464"/>
        <path id="Trazado_162941" data-name="Trazado 162941" d="M79.608,81.668q.012,4.5.024,9.009a6.506,6.506,0,0,0,6.9,6.883q4.656,0,9.313,0c.035,1.042.433,2.363-.127,3.042-.534.65-1.9.2-2.9.2-5.166.021-10.332-.006-15.5.027-.746.005-.961-.166-.954-.938.04-4.558.008-9.117.026-13.675a4.683,4.683,0,0,1,3.217-4.545" fill="#e95050"/>
        <path id="Trazado_162942" data-name="Trazado 162942" d="M56.869,81.668q.012,4.5.024,9.009a6.506,6.506,0,0,0,6.9,6.883q4.656,0,9.313,0c.035,1.042.433,2.363-.127,3.042-.534.65-1.9.2-2.9.2-5.166.021-10.332-.006-15.5.027-.746.005-.961-.166-.954-.938.04-4.558.008-9.117.026-13.675a4.683,4.683,0,0,1,3.217-4.545" fill="#e95050"/>
        <path id="Trazado_162943" data-name="Trazado 162943" d="M34.131,81.668q.012,4.5.024,9.009a6.506,6.506,0,0,0,6.9,6.883q4.656,0,9.313,0c.035,1.042.433,2.363-.127,3.042-.534.65-1.9.2-2.9.2-5.166.021-10.332-.006-15.5.027-.745.005-.961-.166-.954-.938.04-4.558.008-9.117.026-13.675a4.683,4.683,0,0,1,3.217-4.545" fill="#e95050"/>
        <path id="Trazado_162944" data-name="Trazado 162944" d="M11.392,81.668q.012,4.5.024,9.009a6.506,6.506,0,0,0,6.9,6.883q4.656,0,9.312,0c.035,1.042.434,2.363-.126,3.042-.535.65-1.9.2-2.9.2-5.166.021-10.332-.006-15.5.027-.745.005-.961-.166-.954-.938.04-4.558.008-9.117.026-13.675a4.683,4.683,0,0,1,3.217-4.545" fill="#e95050"/>
        <path id="Trazado_162945" data-name="Trazado 162945" d="M65.05,76.44a4.763,4.763,0,0,1,4.587-4.846q5.121-.1,10.244,0a4.763,4.763,0,0,1,4.588,4.847,1.9,1.9,0,0,1-1.546.278,8.514,8.514,0,0,0-6.234,1.831,2.972,2.972,0,0,1-3.859,0,8.511,8.511,0,0,0-6.233-1.83,1.907,1.907,0,0,1-1.547-.278" fill="#f86464"/>
        <path id="Trazado_162946" data-name="Trazado 162946" d="M19.573,76.44a4.763,4.763,0,0,1,4.587-4.846q5.121-.1,10.244,0a4.763,4.763,0,0,1,4.588,4.847,1.9,1.9,0,0,1-1.546.278,8.514,8.514,0,0,0-6.234,1.831,2.972,2.972,0,0,1-3.859,0,8.511,8.511,0,0,0-6.233-1.83,1.907,1.907,0,0,1-1.547-.278" fill="#f86464"/>
        <path id="Trazado_162947" data-name="Trazado 162947" d="M42.312,76.44A4.763,4.763,0,0,1,46.9,71.594q5.121-.1,10.244,0a4.763,4.763,0,0,1,4.588,4.847,1.9,1.9,0,0,1-1.546.278,8.514,8.514,0,0,0-6.234,1.831,2.972,2.972,0,0,1-3.859,0,8.511,8.511,0,0,0-6.233-1.83,1.907,1.907,0,0,1-1.547-.278" fill="#f86464"/>
        <path id="Trazado_162948" data-name="Trazado 162948" d="M19.573,76.44c1.451.027,2.912-.04,4.352.107a6.7,6.7,0,0,1,3.4,1.678,3,3,0,0,0,3.756.117,7.945,7.945,0,0,1,6.089-1.906c.6.05,1.217.005,1.826,0,.011.1.03.2.032.3.031,1.326.028,1.367-1.337,1.317-2.517-.091-4.944.114-6.977,1.831-.506.427-.961,1.193-1.484,1.234-.42.034-.88-.829-1.372-1.232a7.951,7.951,0,0,0-5.047-1.82c-.575-.009-1.15,0-1.725,0-1.6,0-1.6,0-1.509-1.628" fill="#e95050"/>
        <path id="Trazado_162949" data-name="Trazado 162949" d="M42.312,76.44c1.451.027,2.912-.04,4.352.107a6.7,6.7,0,0,1,3.4,1.678,3,3,0,0,0,3.756.117A7.945,7.945,0,0,1,59.9,76.436c.6.05,1.217.005,1.826,0,.011.1.03.2.032.3.031,1.326.028,1.367-1.337,1.317-2.517-.091-4.944.114-6.977,1.831-.506.427-.961,1.193-1.484,1.234-.42.034-.88-.829-1.372-1.232a7.951,7.951,0,0,0-5.047-1.82c-.575-.009-1.15,0-1.725,0-1.6,0-1.6,0-1.509-1.628" fill="#e95050"/>
        <path id="Trazado_162950" data-name="Trazado 162950" d="M65.05,76.44c1.451.027,2.912-.04,4.352.107a6.7,6.7,0,0,1,3.4,1.678,3,3,0,0,0,3.756.117,7.945,7.945,0,0,1,6.089-1.906c.605.05,1.217.005,1.826,0,.011.1.03.2.032.3.031,1.326.028,1.367-1.337,1.317-2.517-.091-4.944.114-6.977,1.831-.506.427-.961,1.193-1.484,1.234-.42.034-.88-.829-1.372-1.232a7.951,7.951,0,0,0-5.047-1.82c-.575-.009-1.15,0-1.725,0-1.6,0-1.6,0-1.509-1.628" fill="#e95050"/>
        <path id="Trazado_162951" data-name="Trazado 162951" d="M4.92,96.24c0,1.316-.037,2.634.015,3.948.028.718-.4.617-.835.625-.46.009-.829.052-.819-.642.038-2.7.019-5.4.013-8.1,0-.546.191-.961.773-.981.642-.023.859.4.855,1-.008,1.384,0,2.767,0,4.151" fill="#f86464"/>
        <path id="Trazado_162952" data-name="Trazado 162952" d="M100.746,96.151c0,1.282-.04,2.566.016,3.846.03.683-.207.819-.848.838-.719.021-.811-.269-.8-.879.028-2.53.016-5.061.009-7.592,0-.6-.01-1.252.785-1.267.873-.017.848.678.844,1.308-.007,1.249,0,2.5,0,3.746" fill="#f86464"/>
        <path id="Trazado_162953" data-name="Trazado 162953" d="M58.516,30.928a1.953,1.953,0,0,1-.67,1.388Q47.487,42.672,37.128,53.028a1.644,1.644,0,1,1-2.314-2.275Q45.163,40.386,55.522,30.031a1.683,1.683,0,0,1,2-.546,1.582,1.582,0,0,1,1,1.443"/>
        <path id="Trazado_162954" data-name="Trazado 162954" d="M69.872,35.8a1.957,1.957,0,0,1-.641,1.374Q61.264,45.135,53.3,53.094a1.629,1.629,0,1,1-2.31-2.269q7.988-8.013,16-16a1.582,1.582,0,0,1,1.837-.466A1.646,1.646,0,0,1,69.872,35.8"/>
        <path id="Trazado_162955" data-name="Trazado 162955" d="M61.76,27.722a1.547,1.547,0,0,1-1.5-1,1.587,1.587,0,0,1,.421-1.846q2.645-2.652,5.3-5.3c.382-.381.744-.787,1.153-1.136a1.575,1.575,0,0,1,2.271.05,1.512,1.512,0,0,1,.031,2.192c-2.189,2.246-4.425,4.448-6.654,6.656a1.333,1.333,0,0,1-1.02.38"/>
      </g>
    </g>
  </g>
</svg>
