<svg xmlns="http://www.w3.org/2000/svg" xmlns:xlink="http://www.w3.org/1999/xlink" width="105" height="105" viewBox="0 0 105 105">
  <defs>
    <clipPath id="clip-path">
      <rect id="Rectángulo_42903" data-name="Rectángulo 42903" width="85.77" height="56.298" transform="translate(0 0)" fill="none"/>
    </clipPath>
  </defs>
  <g id="Grupo_170113" data-name="Grupo 170113" transform="translate(-5562 8847)">
    <path id="Trazado_164417" data-name="Trazado 164417" d="M52.5,0A52.5,52.5,0,1,1,0,52.5,52.5,52.5,0,0,1,52.5,0Z" transform="translate(5562 -8847)" fill="#e1e8ff"/>
    <g id="Grupo_170109" data-name="Grupo 170109" transform="translate(5572 -8823)">
      <g id="Grupo_170108" data-name="Grupo 170108" clip-path="url(#clip-path)">
        <path id="Trazado_164775" data-name="Trazado 164775" d="M85.77,33.845a16.593,16.593,0,0,0-1.316,2.93Q80.531,46.129,76.663,55.5a1.043,1.043,0,0,1-1.128.794q-30.752-.033-61.5-.013c-.459,0-.794-.011-1.048-.544Q6.6,42.367.163,29.018c-.048-.1-.076-.209-.163-.453.983,0,1.918-.046,2.846.015.689.045.888-.154.884-.862C3.7,22.635,3.725,17.552,3.7,12.469c0-.675.145-.917.862-.888,1.45.057,2.905-.01,4.356.03.566.016.692-.172.685-.7-.027-2.29.008-4.581-.024-6.87-.009-.619.1-.855.806-.852q11.4.044,22.791,0c.619,0,.805.139.793.779-.041,2.317,0,4.636-.029,6.953-.007.546.138.7.689.691,1.507-.039,3.016.012,4.524-.026.567-.015.694.173.687.712-.029,2.318.03,4.637-.035,6.953-.022.807.248.961.971.924,1.114-.058,2.235.017,3.35-.028.581-.024.752.14.748.736-.027,3.937.013,7.876-.036,11.813-.009.8.245.992.976.93a14.335,14.335,0,0,1,2.093,0c.518.032.662-.136.656-.655-.028-2.4.007-4.8-.026-7.2-.008-.583.145-.78.737-.739.751.051,1.509-.014,2.261.021.452.022.552-.141.551-.568-.013-5.417-.009-10.833-.009-16.385a32.856,32.856,0,0,1-3.405,1.43,2.182,2.182,0,0,0-1.825,2.743c.15,1.04-.005,2.12.042,3.179.024.544-.171.636-.665.637-1.867,0-1.867.023-1.867-1.844,0-1.648.021-3.3-.013-4.943a.784.784,0,0,1,.57-.863c2.993-1.282,5.982-2.572,8.954-3.9.7-.312.737-.085.736.538-.019,6.339.007,12.679-.035,19.019-.006.839.234,1,1.01.969,1.529-.065,1.531-.019,1.531-1.512,0-4.245.012-8.491-.013-12.736,0-.584.144-.743.734-.738,3.156.031,6.313,0,9.469.03.6.006.735-.157.726-.736-.027-1.792,0-1.793-1.764-1.793-1.732,0-3.464-.015-5.2.011-.458.007-.622-.091-.616-.586.029-2.123.024-4.245,0-6.368,0-.448.078-.627.584-.625q8.211.027,16.423,0c.548,0,.637.184.631.67-.023,2.094-.031,4.189.005,6.283.009.546-.176.634-.664.628-2.067-.025-4.134,0-6.2-.021-.515-.006-.722.089-.72.674.009,1.85-.019,1.85,1.867,1.85,2.765,0,5.53.022,8.295-.017.637-.009.782.164.78.787-.024,7.29,0,14.579-.035,21.868,0,.761.2.933.926.91a21.681,21.681,0,0,1,3.428.045Z"/>
        <path id="Trazado_164776" data-name="Trazado 164776" d="M21.061,34.858c.076,1.277.087,1.387,1.406,1.253A7.484,7.484,0,0,1,28.18,37.83C29.5,38.889,31.006,39.725,32.4,40.7a2.7,2.7,0,0,0,1.634.489q22.374-.02,44.746-.01H79.9c-1.5,3.561-2.943,7-4.388,10.434a2.49,2.49,0,0,1-1.62.273q-21.159.006-42.32,0-8.129,0-16.258,0a2.077,2.077,0,0,1-1.449-.268Q11.274,46.28,8.688,40.948c-.668-1.378-1.3-2.772-2-4.137-.3-.588-.129-.736.454-.678.166.016.335,0,.5,0,1.321,0,1.321,0,1.382-1.276a4.8,4.8,0,0,1,2.8-.168c.444.226.173.525.046.769a4.053,4.053,0,0,0-.479,2.007,3.355,3.355,0,0,0,2.177,3.181,3.449,3.449,0,0,0,3.836-.857,3.513,3.513,0,0,0,.718-3.8,8.415,8.415,0,0,1-.426-.907.3.3,0,0,1,.206-.393,5.882,5.882,0,0,1,3.154.164" fill="#ec593b"/>
        <path id="Trazado_164777" data-name="Trazado 164777" d="M12.016,34.881l-2.987-.022c-.06-1.243-.06-1.243-1.321-1.243H7.121c-2.142,0-2.454-.253-3.036-2.521h.842q10.682,0,21.362-.009a2.474,2.474,0,0,1,1.481.436c2.051,1.4,4.129,2.756,6.18,4.153a2.61,2.61,0,0,0,1.554.473q22.618-.02,45.237-.011c.195,0,.392.015.586,0,.48-.043.641.052.431.587-.754,1.921-.735,1.929-2.806,1.929q-22.074,0-44.148.009a2.72,2.72,0,0,1-1.632-.481c-2.1-1.432-4.223-2.815-6.326-4.235a1.8,1.8,0,0,0-1.088-.333c-1.117.015-2.234.005-3.351.005-1.269,0-1.269,0-1.346,1.242l-3.32.022a.46.46,0,0,1-.46-.115,3.64,3.64,0,0,0-4.805-.014.509.509,0,0,1-.46.13" fill="#55a2f8"/>
        <path id="Trazado_164778" data-name="Trazado 164778" d="M13.863,51.613l61.646,0c-.758,2.155-.758,2.155-3.033,2.155q-28.173,0-56.348.023c-.97,0-1.588-.2-1.85-1.179a7.867,7.867,0,0,0-.415-1" fill="#e13423"/>
        <path id="Trazado_164779" data-name="Trazado 164779" d="M59.649,31.492c-.009-2.149.011-4.3-.044-6.445-.017-.665.27-.691.786-.69,5.444.014,10.887,0,16.33.016.715,0,1.668-.32,2.078.157.351.408.116,1.332.115,2.027,0,1.646-.019,3.292-.03,4.938a1.462,1.462,0,0,1-1.1.273q-8.516.01-17.03,0a1.416,1.416,0,0,1-1.1-.276" fill="#d7d6d9"/>
        <path id="Trazado_164780" data-name="Trazado 164780" d="M21.4,26.472c-.015-1.059,0-2.12-.055-3.177-.027-.564.237-.628.7-.625,2.288.017,4.577.007,6.867.007,4.216,0,8.431.012,12.646-.012.615-.005.807.147.8.787-.048,2.678-.037,5.357-.046,8.036a2.972,2.972,0,0,1-2.5.06,1.839,1.839,0,0,1-.229-1.2q-.016-2.007,0-4.015c.006-.673-.272-.947-.949-.942-2.147.017-4.294-.008-6.441.013-.847.009-.959.148-.969.985-.01.877.153,1.11.947,1.144,1.364.06,2.731,0,4.1.027,1.127.02,1.316.2,1.312,1.329a9.356,9.356,0,0,1-.11,2.495c-.7.634-1.408.348-2.059-.058A33.5,33.5,0,0,1,31.66,28.8a8.8,8.8,0,0,0-7.045-2.111,17.049,17.049,0,0,1-2.261.012,1.318,1.318,0,0,1-.952-.229" fill="#7fcac3"/>
        <path id="Trazado_164781" data-name="Trazado 164781" d="M39.82,31.475l2.492.014c.13,2.137.13,2.145-1.978,2.135-1.643-.008-3.388.3-4.9-.153a12.415,12.415,0,0,1-4.058-2.592,9.36,9.36,0,0,0-7.7-2.293,2.48,2.48,0,0,1-.334,0c-2.086,0-2.086,0-1.942-2.115,2.143,0,4.287.008,6.429-.009a2.08,2.08,0,0,1,1.244.373c1.979,1.336,3.993,2.621,5.949,3.989a3.057,3.057,0,0,0,2.32.66,2.961,2.961,0,0,1,2.477-.011" fill="#26a599"/>
        <path id="Trazado_164782" data-name="Trazado 164782" d="M69.2,15.124c-2.93,0-5.861-.015-8.791.013-.583.005-.821-.076-.8-.753.047-1.779.007-1.78,1.782-1.78,5.554,0,11.108.013,16.661-.016.676,0,.911.133.89.852-.049,1.683-.011,1.684-1.7,1.684H69.2" fill="#d7d6d9"/>
        <path id="Trazado_164783" data-name="Trazado 164783" d="M16.363,18.092c-.015-1.168-.027-2.336-.046-3.5,0-.3.082-.473.42-.471q5.138.017,10.276.027c.042,0,.083.066.125.1.106,1.141.011,2.285.053,3.426.015.435-.211.6-.591.654a4.512,4.512,0,0,1-.668.038q-4.186,0-8.372,0a1.708,1.708,0,0,1-1.2-.27" fill="#54a2f7"/>
        <path id="Trazado_164784" data-name="Trazado 164784" d="M59.649,31.492l19.235,0c.135,2.122.135,2.122-1.977,2.122H60.872c-1.251,0-1.252,0-1.249-1.292,0-.277.017-.555.026-.833" fill="#abaab0"/>
        <path id="Trazado_164785" data-name="Trazado 164785" d="M6.326,22.8c.146-.192.358-.12.542-.12q5.7-.007,11.394,0c.16,0,.339-.05.461.114a27.948,27.948,0,0,1,.084,3.325.477.477,0,0,1-.484.558,20.162,20.162,0,0,1-4.735-.1c-.41-.366-.294-.866-.312-1.322-.019-.477-.216-.709-.7-.708-1.051,0-2.1-.006-3.153,0-.448,0-.637.224-.662.662-.026.458.09.953-.279,1.344a1.367,1.367,0,0,1-.634.168c-1.455.129-1.62-.006-1.6-1.461A11.738,11.738,0,0,1,6.326,22.8" fill="#fad534"/>
        <path id="Trazado_164786" data-name="Trazado 164786" d="M12.167,9.545c-.016-1.112-.027-2.225-.053-3.337-.008-.351.121-.494.485-.492,2.841.014,5.682.014,8.523.023.043,0,.085.063.128.1.154,1.106.026,2.218.072,3.326.017.389-.195.55-.537.607a8.022,8.022,0,0,1-1.333.048q-3,0-6.008,0a1.848,1.848,0,0,1-1.277-.27" fill="#fbd634"/>
        <path id="Trazado_164787" data-name="Trazado 164787" d="M6.317,14.25c.111-.172.289-.135.449-.135q3.242,0,6.483,0c.161,0,.338-.034.454.13a33.25,33.25,0,0,1,.075,3.487c.018.453-.29.585-.642.6q-3.124.095-6.25,0c-.35-.01-.663-.137-.645-.592a31.931,31.931,0,0,1,.076-3.486" fill="#ea583a"/>
        <path id="Trazado_164788" data-name="Trazado 164788" d="M29.794,18.091a28.007,28.007,0,0,1,.03-3.854,41.541,41.541,0,0,1,4.336-.077c.836-.022,1.675.013,2.511-.011.433-.013.593.131.58.575-.027.976-.021,1.953,0,2.929.007.422-.181.65-.574.664-2.146.077-4.294.087-6.44-.006a.718.718,0,0,1-.442-.22" fill="#fcd735"/>
        <path id="Trazado_164789" data-name="Trazado 164789" d="M23.92,9.543a28.3,28.3,0,0,1,.02-3.7c2-.163,4.014-.041,6.021-.069,1.416-.02,1.416,0,1.416,1.4,0,.642-.016,1.285,0,1.927.015.421-.177.652-.57.666-2.149.077-4.3.088-6.448-.007a.751.751,0,0,1-.444-.219" fill="#eb583a"/>
        <path id="Trazado_164790" data-name="Trazado 164790" d="M13.559,26.473c1.474,0,2.949-.027,4.422.01.6.015.768-.2.747-.77-.037-.972-.007-1.946-.005-2.92a18.411,18.411,0,0,1,.106,3.8c.024,1.981,0,1.981-1.992,1.981-3.257,0-6.514-.014-9.771.013-.621.005-.9-.106-.858-.812.108-1.654-.136-3.318.117-4.971,0,.969.03,1.94-.006,2.909-.021.561.135.824.739.768.468-.042.942-.007,1.413-.006a10.87,10.87,0,0,0,5.088,0" fill="#f8be2d"/>
        <path id="Trazado_164791" data-name="Trazado 164791" d="M51.1,31.5c-.01-1.14-.005-2.28-.038-3.42-.012-.409.129-.524.525-.52q2.5.027,5.008,0c.392,0,.537.107.525.519-.034,1.139-.027,2.279-.036,3.42a1.009,1.009,0,0,1-.773.258q-2.219.031-4.438,0A1.029,1.029,0,0,1,51.1,31.5" fill="#fbd735"/>
        <path id="Trazado_164792" data-name="Trazado 164792" d="M16.363,18.092c3.283,0,6.566-.025,9.849.017.758.01.957-.226.917-.946-.054-.97,0-1.946.009-2.919a52.907,52.907,0,0,1,.089,5.575c.008.376-.3.34-.542.34-3.265,0-6.53-.005-9.794.009-.435,0-.609-.133-.576-.574.037-.5.034-1,.048-1.5" fill="#0f91f3"/>
        <path id="Trazado_164793" data-name="Trazado 164793" d="M12.167,9.545c2.757,0,5.514-.018,8.271.011.618.007.837-.165.808-.8-.044-.972,0-1.948,0-2.923a30.567,30.567,0,0,1,.1,4.488c.029,1.273.005,1.274-1.281,1.274-2.4,0-4.8-.017-7.206.013-.568.007-.83-.12-.754-.731.055-.44.04-.889.056-1.334" fill="#fabf2d"/>
        <path id="Trazado_164794" data-name="Trazado 164794" d="M29.794,18.091c2.2,0,4.4-.016,6.606.011.572.007.8-.151.77-.751a18.643,18.643,0,0,1,0-2.34c.046-.659-.228-.788-.824-.78-2.174.029-4.348.008-6.523.006.168-.228.412-.119.617-.12,2.035-.009,4.073.022,6.108-.021.648-.014.794.194.777.805-.045,1.533-.037,3.068-.01,4.6.01.5-.126.679-.649.672-2.091-.026-4.185-.029-6.275,0-.531.007-.691-.164-.643-.668.045-.47.032-.945.045-1.418" fill="#fabf2d"/>
        <path id="Trazado_164795" data-name="Trazado 164795" d="M23.92,9.543c2.207,0,4.413-.017,6.62.011.578.008.8-.161.766-.756a13.8,13.8,0,0,1,0-2.093c.067-.742-.258-.873-.917-.862-2.15.033-4.3.008-6.452.005.131-.217.347-.135.528-.135,2.087-.006,4.175.012,6.262-.014.528-.007.74.117.725.689-.039,1.53-.034,3.062-.012,4.592.007.477-.153.624-.623.62-2.115-.02-4.231-.016-6.346,0-.41,0-.629-.094-.6-.554.037-.5.029-1,.041-1.5" fill="#e13423"/>
        <path id="Trazado_164796" data-name="Trazado 164796" d="M6.317,14.25c0,1.061.028,2.122,0,3.182-.014.518.177.673.68.668q3.015-.031,6.03,0c.51.006.688-.163.675-.674-.027-1.06,0-2.121,0-3.181a21.217,21.217,0,0,1,.1,3.984c.014,1.925-.011,1.925-1.9,1.925q-2.514,0-5.027,0c-.3,0-.668.077-.656-.407a48.673,48.673,0,0,1,.1-5.5" fill="#e13423"/>
        <path id="Trazado_164797" data-name="Trazado 164797" d="M51.1,31.5H57.08c.113,2.119.113,2.119-1.987,2.119-1.116,0-2.234-.03-3.348.013-.565.021-.741-.172-.687-.712.047-.47.028-.946.038-1.42" fill="#f8be2d"/>
        <path id="Trazado_164798" data-name="Trazado 164798" d="M62.488,17.79a28.5,28.5,0,0,1,.078,3.65c.013.279-.121.41-.4.4-.195-.006-.39,0-.585,0-2.038,0-2.038,0-1.929-2.075.454-.371,1-.226,1.5-.241.991-.029.991-.017,1.077-.984a.952.952,0,0,1,.257-.75" fill="#40c3fe"/>
        <path id="Trazado_164799" data-name="Trazado 164799" d="M73.389,17.767a25.2,25.2,0,0,1,.092,3.706c.017.369-.254.367-.514.367-.637,0-1.275-.027-1.91.008-.468.025-.564-.183-.537-.59.033-.5.024-.995.034-1.493.511-.4,1.113-.236,1.674-.236.611,0,.939-.179.9-.847a1,1,0,0,1,.262-.915" fill="#41c3fd"/>
        <path id="Trazado_164800" data-name="Trazado 164800" d="M76.047,19.767c-.172-2.125-.171-2.087,1.875-2.143.776-.021,1.143.137,1.005.979a8.815,8.815,0,0,0-.044,1.163,3.419,3.419,0,0,1-2.836,0" fill="#7ed5fc"/>
        <path id="Trazado_164801" data-name="Trazado 164801" d="M62.488,17.79c-.08,1.978-.08,1.978-2.092,1.977l-.746,0c-.111-2.123-.111-2.13,1.977-2.112.286,0,.613-.145.861.137" fill="#7fd7fe"/>
        <path id="Trazado_164802" data-name="Trazado 164802" d="M65.138,19.768c-.2-2.126-.2-2.088,1.875-2.143.775-.021,1.143.132,1,.976a8.493,8.493,0,0,0-.039,1.164,3.421,3.421,0,0,1-2.84,0" fill="#7ed5fc"/>
        <path id="Trazado_164803" data-name="Trazado 164803" d="M76.047,19.767h2.836c.133,2.075.131,2.021-1.834,2.1-.907.036-1.172-.268-1.049-1.1a9.4,9.4,0,0,0,.047-.995" fill="#40c3fe"/>
        <path id="Trazado_164804" data-name="Trazado 164804" d="M65.138,19.768l2.84,0c.112,2.078.111,2.033-1.921,2.1-.833.027-1.091-.234-.972-1.015a9.931,9.931,0,0,0,.053-1.079" fill="#40c3fe"/>
        <path id="Trazado_164805" data-name="Trazado 164805" d="M73.389,17.767c-.07,2-.07,2-2.086,2l-.749,0a8.99,8.99,0,0,1,.033-2.028,13.039,13.039,0,0,1,2.765,0Z" fill="#7bd0f6"/>
        <path id="Trazado_164806" data-name="Trazado 164806" d="M75.526,3.84c.079,1.21.079,1.21-1.118,1.21-1.347,0-1.361,0-1.376-1.34-.017-1.491-.12-1.186,1.168-1.186.438,0,.922-.2,1.326.154-.434.351-.953.184-1.436.239-.24.028-.562,0-.561.341s.321.314.562.342c.482.056,1-.112,1.435.24" fill="#abaaaf"/>
        <path id="Trazado_164807" data-name="Trazado 164807" d="M63,3.838c-.073-1.308-.073-1.308,1.188-1.308h.083c1.265,0,1.265,0,1.188,1.309a2.675,2.675,0,0,1-2.459,0" fill="#d3d2d5"/>
        <path id="Trazado_164808" data-name="Trazado 164808" d="M68.036,3.837c-.075-1.307-.075-1.307,1.189-1.307h.084c1.265,0,1.265,0,1.185,1.309a2.67,2.67,0,0,1-2.458,0" fill="#d3d2d5"/>
        <path id="Trazado_164809" data-name="Trazado 164809" d="M68.036,3.837l2.458,0c.07,1.211.07,1.211-1.105,1.211H69.14c-1.173,0-1.173,0-1.1-1.213" fill="#abaab0"/>
        <path id="Trazado_164810" data-name="Trazado 164810" d="M63,3.838h2.459c.065,1.211.065,1.211-1.106,1.211h-.249c-1.17,0-1.17,0-1.1-1.212" fill="#abaab0"/>
        <path id="Trazado_164811" data-name="Trazado 164811" d="M75.526,3.84c-.614,0-1.228-.012-1.842.005-.434.012-.5-.236-.5-.588s.064-.6.5-.583c.613.018,1.228,0,1.842,0V3.84" fill="#d7d6d9"/>
        <path id="Trazado_164812" data-name="Trazado 164812" d="M73.353,17.733l-2.765,0a7.9,7.9,0,0,1,2.765,0" fill="#41c3fd"/>
        <path id="Trazado_164813" data-name="Trazado 164813" d="M12.016,34.881c1.983-1.719,3.744-1.719,5.725,0a3.779,3.779,0,1,1-6.2.781c.139-.27.317-.52.478-.78"/>
        <path id="Trazado_164814" data-name="Trazado 164814" d="M19.458,51.246c-.809,0-1.62-.031-2.427.012a.8.8,0,0,1-.877-.565q-1.422-3.024-2.9-6.02c-.208-.419-.146-.589.282-.8,1.734-.855,1.725-.873,2.541.83.553,1.155,1.121,2.3,1.654,3.468a.828.828,0,0,0,.889.567c1.143-.033,2.288,0,3.431-.016.377-.006.526.09.552.507.127,2.018.142,2.017-1.889,2.017H19.458" fill="#fefefe"/>
        <path id="Trazado_164815" data-name="Trazado 164815" d="M57.027,51.246c-1.478,0-2.956-.015-4.434.009-.47.007-.619-.148-.637-.62-.076-1.909-.092-1.909,1.838-1.909,2.51,0,5.021.016,7.53-.012.569-.006.769.138.767.739-.007,1.793.019,1.793-1.8,1.793H57.027" fill="#fefdfd"/>
        <path id="Trazado_164816" data-name="Trazado 164816" d="M52.583,43.69c1.473.025,1.269-.21,1.282,1.277.01,1.251,0,1.258-1.485,1.248-1.253-.009-1.067.178-1.072-1.493,0-1.225-.113-1.011,1.275-1.032" fill="#fdf8f7"/>
        <path id="Trazado_164817" data-name="Trazado 164817" d="M31.4,48.726c1.267,0,1.267,0,1.266,1.354,0,1.167,0,1.167-1.459,1.167-1.063,0-1.071,0-1.059-1.482.009-1.2-.176-1.021,1.252-1.039" fill="#fefcfc"/>
        <path id="Trazado_164818" data-name="Trazado 164818" d="M27.627,49.982c0,1.265,0,1.265-1.444,1.265-1.077,0-1.077,0-1.076-1.468,0-1.054,0-1.064,1.488-1.05,1.211.012,1.01-.186,1.032,1.253" fill="#fefcfc"/>
        <path id="Trazado_164819" data-name="Trazado 164819" d="M72.719,46.215c-1.233,0-1.233,0-1.232-1.417,0-1.106,0-1.118,1.453-1.1,1.279.014,1.057-.2,1.064,1.494.005,1.222.129,1-1.285,1.025" fill="#fefcfb"/>
        <path id="Trazado_164820" data-name="Trazado 164820" d="M72.151,50.029c-.023,1.437.186,1.209-1.439,1.213-1.273,0-1.07.181-1.083-1.391-.01-1.127,0-1.134,1.514-1.124,1.185.008.989-.137,1.008,1.3" fill="#fefcfb"/>
        <path id="Trazado_164821" data-name="Trazado 164821" d="M67.114,49.935c-.019,1.538.175,1.307-1.346,1.309-1.376,0-1.168.2-1.182-1.383-.01-1.139,0-1.144,1.508-1.136,1.173.007,1-.131,1.02,1.21" fill="#fdf9f8"/>
        <path id="Trazado_164822" data-name="Trazado 164822" d="M68.971,44.961c-.026,1.451.215,1.237-1.4,1.252-1.118.01-1.118,0-1.117-1.442,0-1.08,0-1.088,1.476-1.077,1.212.009,1.025-.147,1.042,1.267" fill="#fefcfb"/>
        <path id="Trazado_164823" data-name="Trazado 164823" d="M61.412,44.936c0-1.246,0-1.256,1.4-1.242,1.332.014,1.12-.2,1.122,1.438,0,1.284.177,1.075-1.486,1.082-1.2,0-1.02.14-1.037-1.278" fill="#fdf8f7"/>
        <path id="Trazado_164824" data-name="Trazado 164824" d="M57.689,43.688c1.413.024,1.208-.2,1.211,1.355,0,1.394.151,1.17-1.4,1.172-1.321,0-1.118.2-1.12-1.442,0-1.27-.165-1.063,1.309-1.085" fill="#fdf5f3"/>
        <path id="Trazado_164825" data-name="Trazado 164825" d="M48.8,44.96c-.024,1.475.2,1.25-1.4,1.255-1.318.005-1.128.174-1.13-1.443,0-1.286-.157-1.077,1.4-1.079,1.3,0,1.11-.17,1.13,1.267" fill="#fdf5f3"/>
        <path id="Trazado_164826" data-name="Trazado 164826" d="M43.759,44.956c-.022,1.464.188,1.255-1.31,1.256-1.418,0-1.212.2-1.215-1.437,0-1.283-.166-1.079,1.4-1.08,1.3,0,1.11-.18,1.13,1.261" fill="#fdf8f7"/>
        <path id="Trazado_164827" data-name="Trazado 164827" d="M37.489,43.692c1.229,0,1.238,0,1.225,1.413-.012,1.309.184,1.1-1.368,1.1-1.377,0-1.138.19-1.148-1.5-.007-1.194-.138-1,1.291-1.018" fill="#fefcfb"/>
        <path id="Trazado_164828" data-name="Trazado 164828" d="M66.915,26.815c1.394,0,2.787.013,4.181-.006.52-.007.769.163.762.719-.031,2.323.232,1.93-1.865,1.947-2.4.019-4.794-.009-7.191.012-.728.006-1.066-.219-1.022-1.014.081-1.5-.385-1.688,1.707-1.661,1.142.015,2.285,0,3.428,0" fill="#fefefe"/>
        <path id="Trazado_164829" data-name="Trazado 164829" d="M76.882,28.225c0,1.255,0,1.255-1.211,1.254-1.306,0-1.306,0-1.305-1.452,0-1.214,0-1.214,1.378-1.212,1.139,0,1.139,0,1.138,1.41" fill="#fdfdfd"/>
        <path id="Trazado_164830" data-name="Trazado 164830" d="M39.82,31.475l-2.477.011c-.009-1-.045-2.006-.017-3.008.015-.547-.168-.725-.719-.713-1.5.033-3.009.018-4.514.009-1.111-.007-1.128-.024-1.118-1.113.016-1.675-.241-1.489,1.527-1.495,2.174-.009,4.347.014,6.521-.013.6-.007.837.167.823.805-.041,1.838-.022,3.678-.026,5.517" fill="#fefefe"/>
        <path id="Trazado_164831" data-name="Trazado 164831" d="M13.559,26.473c0,.364-.2.452-.539.448q-2.006-.021-4.011,0c-.336,0-.538-.083-.538-.448.009-.222.025-.445.026-.667.009-1.466.008-1.466,1.514-1.466.92,0,1.842.043,2.758-.014.657-.041.829.208.772.812a11.673,11.673,0,0,0,.018,1.335" fill="#fefdfc"/>
        <path id="Trazado_164832" data-name="Trazado 164832" d="M14.891,38.609a1.226,1.226,0,1,1,1.216-1.22,1.2,1.2,0,0,1-1.216,1.22" fill="#aebcc3"/>
      </g>
    </g>
  </g>
</svg>
