<svg xmlns="http://www.w3.org/2000/svg" xmlns:xlink="http://www.w3.org/1999/xlink" width="105" height="105" viewBox="0 0 105 105">
  <defs>
    <clipPath id="clip-path">
      <rect id="Rectángulo_42905" data-name="Rectángulo 42905" width="75.336" height="44.796" fill="none"/>
    </clipPath>
  </defs>
  <g id="Grupo_170116" data-name="Grupo 170116" transform="translate(-4724 8847)">
    <path id="Trazado_164420" data-name="Trazado 164420" d="M52.5,0A52.5,52.5,0,1,1,0,52.5,52.5,52.5,0,0,1,52.5,0Z" transform="translate(4724 -8847)" fill="#e1e8ff"/>
    <g id="Grupo_170115" data-name="Grupo 170115" transform="translate(4739 -8817)">
      <g id="Grupo_170114" data-name="Grupo 170114" transform="translate(0 0)" clip-path="url(#clip-path)">
        <path id="Trazado_164878" data-name="Trazado 164878" d="M75.336,13.268a2.013,2.013,0,0,1-2.091,1.4c-.427-.026-.534.252-.681.533q-2.292,4.426-4.588,8.852A18.623,18.623,0,0,1,53.31,34.405c-.629.089-1.271.076-1.907.114a1.189,1.189,0,0,1-1.394-1.089c-.247-.551.154-.814.507-1.063A2.018,2.018,0,0,1,51.7,32.05a16.61,16.61,0,0,0,2.185-.17A16.157,16.157,0,0,0,61.675,28.2c-1.084.066-2-.145-2.927-.145q-19.028-.025-38.057-.011a1.4,1.4,0,0,0-.849.162c-1.374,1.167-2.565,2.513-3.887,3.786a1.528,1.528,0,0,0,1.039.179q14.069.008,28.139.005a4.791,4.791,0,0,1,1.243.075.9.9,0,0,1,.734,1.183c-.25.926-.5,1.105-1.6,1.106H18.516a5.316,5.316,0,0,1-.662,0c-.58-.072-.9.033-.814.754a2.524,2.524,0,0,1-.525,1.575c-1.153,1.847-2.282,3.708-3.453,5.544a4.768,4.768,0,0,1-7.615.882c-.952-.919-1.891-1.854-2.806-2.809a4.746,4.746,0,0,1,.82-7.428c.958-.635,1.946-1.224,2.922-1.832.188-.116.408-.2.208-.487-1.223-1.747-1.414-3.83-1.873-5.82-.738-3.193-1.439-6.395-2.134-9.6-.1-.438-.22-.641-.73-.669A1.811,1.811,0,0,1,.008,12.627c-.007-.883-.014-1.766,0-2.648A1.819,1.819,0,0,1,1.887,8.06c.636-.026,1.275-.005,1.911-.005q14.636,0,29.272.016c.657,0,.8-.166.792-.8a3.288,3.288,0,0,1,3.575-3.627h.147c1.076-.016,2.273.256,3.2-.129s1.573-1.427,2.341-2.183c.332-.327.648-.671.994-.982A1.1,1.1,0,0,1,45.692.325,1.062,1.062,0,0,1,45.663,1.9c-.742.782-1.517,1.534-2.285,2.292-.186.183-.324.3-.069.576a3.21,3.21,0,0,1,.825,2.578c-.055.587.147.721.719.72,9.365-.018,18.73,0,28.095-.028a2.242,2.242,0,0,1,2.387,1.4Z" transform="translate(0 0)"/>
        <path id="Trazado_164879" data-name="Trazado 164879" d="M48.541,36.021c-.242-.929-.463-1.092-1.524-1.092q-14.635,0-29.269-.006a1.25,1.25,0,0,1-.916-.151c1.45-1.409,2.787-2.9,4.3-4.213a1.9,1.9,0,0,1,.8-.056q19.053-.005,38.105,0c.277,0,.694-.154.8.123.143.356-.236.6-.49.827a15.085,15.085,0,0,1-5.061,3.2,11.568,11.568,0,0,1-2.472.238,1.238,1.238,0,0,0-1.375,1.126h-2.9" transform="translate(-1.431 -2.589)" fill="#d0996e"/>
        <path id="Trazado_164880" data-name="Trazado 164880" d="M11.155,14.788c.221.92.5,1.125,1.584,1.126q5.807.007,11.615,0,2.464,0,4.925,0c.235,0,.469.021.7.032l.128.185a29.743,29.743,0,0,0-2.657,2.578,4.5,4.5,0,0,1-4,1.659c-5.512-.109-11.026-.05-16.54-.027-.591,0-.872-.13-.975-.748-.178-1.06-.414-2.113-.686-3.153-.123-.472.025-.556.437-.533.367.022.736-.005,1.1.005a1.27,1.27,0,0,0,1.466-1.123,4.1,4.1,0,0,1,2.9-.006" transform="translate(-0.443 -1.235)" fill="#d0996e"/>
        <path id="Trazado_164881" data-name="Trazado 164881" d="M49.675,27.66H24.118c-.042-.261.179-.342.3-.468,1.171-1.184,2.358-2.353,3.525-3.542a1.157,1.157,0,0,1,.9-.377q9,.015,18,0c.434,0,.624.091.722.572a7.578,7.578,0,0,0,2.1,3.815" transform="translate(-2.05 -1.978)" fill="#d0996d"/>
        <path id="Trazado_164882" data-name="Trazado 164882" d="M10.917,14.506l-2.9.006a1.257,1.257,0,0,0-1.471-1.1c-1.2.031-2.4-.008-3.6.016-.412.008-.533-.106-.539-.53-.023-1.686-.039-1.686,1.641-1.686H34.394c-.8.792-1.448,1.462-2.126,2.105-.21.2-.52.1-.783.1q-9.519.007-19.039,0c-1.06,0-1.295.171-1.529,1.083" transform="translate(-0.204 -0.953)" fill="#f9f1f2"/>
        <path id="Trazado_164883" data-name="Trazado 164883" d="M38.621,13.343a11.6,11.6,0,0,1,1.928-2.04c.107-.109.371-.085.562-.085q15.815-.005,31.63,0a4.108,4.108,0,0,1,.436.045,2.4,2.4,0,0,1,.185,1.71.461.461,0,0,1-.563.439c-.145-.011-.294,0-.441,0q-16.507,0-33.013,0a1.461,1.461,0,0,1-.723-.064" transform="translate(-3.283 -0.953)" fill="#f8f0f1"/>
        <path id="Trazado_164884" data-name="Trazado 164884" d="M31.123,20.456c1.048-1.045,2.038-1.889,2.848-2.879A4.185,4.185,0,0,1,37.712,16c3.869.125,7.744.039,11.617.046a1.3,1.3,0,0,1,.821.106,7.865,7.865,0,0,0-2.044,3.992c-.077.447-.445.3-.709.306-2.083.01-4.167.005-6.25.005H31.123Z" transform="translate(-2.646 -1.36)" fill="#d0996d"/>
        <path id="Trazado_164885" data-name="Trazado 164885" d="M23.592,23.414c-1.38,1.378-2.717,2.707-4.042,4.045a.925.925,0,0,1-.737.236c-3.5,0-7.005-.008-10.508.007-.456,0-.632-.138-.715-.6-.189-1.058-.417-2.112-.7-3.148-.156-.573-.03-.694.547-.691,3.65.024,7.3.012,10.949.012,1.469,0,2.939,0,4.408,0a1.22,1.22,0,0,1,.8.13" transform="translate(-0.581 -1.978)" fill="#d0996d"/>
        <path id="Trazado_164886" data-name="Trazado 164886" d="M6.157,43.406c-.576-.562-1.178-1.1-1.72-1.692a2.483,2.483,0,0,1,.429-3.829c1.916-1.258,3.883-2.438,5.831-3.647a.819.819,0,0,1,1.125.122c.389.4.774.807,1.16,1.211.186.294-.02.516-.155.733-1.189,1.928-2.366,3.865-3.612,5.756a2.923,2.923,0,0,1-3.059,1.346" transform="translate(-0.317 -2.896)" fill="#fec169"/>
        <path id="Trazado_164887" data-name="Trazado 164887" d="M6.383,43.546A3.523,3.523,0,0,0,9.53,41.757c1.186-1.932,2.4-3.845,3.6-5.769a1.084,1.084,0,0,0,.082-.277c.63.612,1.262,1.223,1.889,1.837a.822.822,0,0,1,.124,1.128c-1.2,1.928-2.378,3.876-3.621,5.778a2.517,2.517,0,0,1-3.891.457c-.467-.429-.886-.909-1.327-1.365" transform="translate(-0.543 -3.036)" fill="#fea85f"/>
        <path id="Trazado_164888" data-name="Trazado 164888" d="M66.218,20.372a9.646,9.646,0,0,0-2.061-4.112c0-.328.259-.224.421-.224,2.517-.007,5.034,0,7.55-.01.513,0,.63.231.416.63-.6,1.122-1.133,2.275-1.738,3.391a.613.613,0,0,1-.57.392c-1.339-.04-2.681.087-4.018-.067" transform="translate(-5.455 -1.362)" fill="#d0996d"/>
        <path id="Trazado_164889" data-name="Trazado 164889" d="M66.209,20.37c1.176,0,2.353-.041,3.527,0a.94.94,0,0,0,1-.633,31.813,31.813,0,0,1,1.616-3.13c.175-.275.23-.5-.24-.5-2.548.008-5.1,0-7.645.011a.958.958,0,0,0-.322.137c-.147-.1-.135-.2.032-.234a3.377,3.377,0,0,1,.586-.017c3.428.013,6.856.038,10.283.03.576,0,.757.067.427.654-.61,1.087-1.164,2.205-1.735,3.313-.127.249-.245.46-.584.459-2.277-.011-4.554-.008-6.83-.014-.039,0-.079-.052-.118-.08" transform="translate(-5.445 -1.36)" fill="#bb835e"/>
        <path id="Trazado_164890" data-name="Trazado 164890" d="M55.685,34.657c.182-.3.513-.366.791-.506a20.25,20.25,0,0,0,4.873-3.568h-.94q-18.965,0-37.929,0c-.318,0-.636-.016-.954-.024a1.463,1.463,0,0,1,.791-.079q19.146-.005,38.291,0h3.364c.016.067.032.134.048.2a15.844,15.844,0,0,1-8.337,3.98" transform="translate(-1.83 -2.59)" fill="#bb835d"/>
        <path id="Trazado_164891" data-name="Trazado 164891" d="M69.17,23.322c.881-.012,1.762-.022,2.643-.037.328-.005.541.031.321.447A31.323,31.323,0,0,1,70.106,27.3a.806.806,0,0,1-.721.4c-1.642-.008-3.284.006-4.925,0-.127,0-.485.157-.307-.256a7.673,7.673,0,0,1,1.613-.023,1.387,1.387,0,0,0,1.51-.9c.392-.845.92-1.618,1.312-2.463a1.608,1.608,0,0,1,.582-.737" transform="translate(-5.45 -1.979)" fill="#ba835d"/>
        <path id="Trazado_164892" data-name="Trazado 164892" d="M38.618,13.343q4.817-.008,9.634-.017,11.989,0,23.977,0c.942,0,.942,0,.942-.96,0-.368,0-.736,0-1.1.952-.016,1.906-.024,2.858-.051.282-.007.416.08.378.372a.989.989,0,0,0,0,.147c.049,1.692.049,1.691-1.634,1.692l-35.917.007c-.074,0-.147,0-.221,0s-.071-.025-.019-.083" transform="translate(-3.28 -0.953)" fill="#efe4df"/>
        <path id="Trazado_164893" data-name="Trazado 164893" d="M8.44,30.562H17.2c-.91.909-1.707,1.713-2.513,2.505-.27.264-.388-.059-.511-.188a3.675,3.675,0,0,0-1.932-1.253,2.925,2.925,0,0,0-2.373.481c-.441.328-.673.21-.886-.231a4.779,4.779,0,0,1-.544-1.316" transform="translate(-0.718 -2.598)" fill="#d0996d"/>
        <path id="Trazado_164894" data-name="Trazado 164894" d="M69.175,23.321c-.669,1.245-1.349,2.484-2,3.739a.905.905,0,0,1-1.012.535c-.666-.08-1.356.164-2.006-.147a8.045,8.045,0,0,0,1.9-3.751c.057-.3.174-.424.473-.417.88.019,1.761.028,2.642.041" transform="translate(-5.455 -1.979)" fill="#d0996d"/>
        <path id="Trazado_164895" data-name="Trazado 164895" d="M52.941,18.592c.473.515.875.975,1.3,1.409a.517.517,0,0,1,.113.644,2.775,2.775,0,0,0-.063,2.007.664.664,0,0,1-.236.874,4.978,4.978,0,0,0-.469.463c-.855.856-.866.86-1.282-.27a5.539,5.539,0,0,1,.634-5.128" transform="translate(-4.416 -1.58)" fill="#fdfdfd"/>
        <path id="Trazado_164896" data-name="Trazado 164896" d="M62.84,18.688a5.567,5.567,0,0,1,.33,5.607c-.188.4-.368.464-.651.094a2.294,2.294,0,0,0-.361-.363c-.581-.482-1.056-.976-.629-1.829a.991.991,0,0,0,0-.788c-.565-1.067.111-1.649.8-2.245.165-.142.317-.3.5-.476" transform="translate(-5.214 -1.588)" fill="#f8f0f1"/>
        <path id="Trazado_164897" data-name="Trazado 164897" d="M57.181,27.784a4.549,4.549,0,0,1-2.219-.651c-.312-.157-.317-.318-.058-.533a3.08,3.08,0,0,0,.363-.361c.5-.579.971-1.069,1.887-.674a2.889,2.889,0,0,0,1.935-.178c-.021,1.036-.806,1.557-1.466,2.158-.122.112-.312.128-.443.24" transform="translate(-4.652 -2.158)" fill="#fa8c93"/>
        <path id="Trazado_164898" data-name="Trazado 164898" d="M59.079,18.437a4.709,4.709,0,0,0-2.57.021.363.363,0,0,1-.39-.122c-.484-.434-.979-.857-1.533-1.34a4.8,4.8,0,0,1,2.584-.887,4.515,4.515,0,0,1,1.691,1.585.811.811,0,0,1,.218.743" transform="translate(-4.641 -1.369)" fill="#fa8c93"/>
        <path id="Trazado_164899" data-name="Trazado 164899" d="M57.41,27.784a6.749,6.749,0,0,0,1.909-2.4c.663.272,1.019.893,1.516,1.352.264.243-.07.328-.2.4a4.934,4.934,0,0,1-3.22.644" transform="translate(-4.881 -2.158)" fill="#f86e7b"/>
        <path id="Trazado_164900" data-name="Trazado 164900" d="M59.319,18.432A8.334,8.334,0,0,0,57.41,16.1a5.04,5.04,0,0,1,3.1.569c.344.17.358.324.081.572-.432.386-.848.791-1.271,1.187" transform="translate(-4.881 -1.364)" fill="#f76e7b"/>
        <path id="Trazado_164901" data-name="Trazado 164901" d="M57.84,20.88a1.079,1.079,0,1,1-1.069,1.074A1.084,1.084,0,0,1,57.84,20.88" transform="translate(-4.827 -1.775)" fill="#cf986d"/>
        <path id="Trazado_164902" data-name="Trazado 164902" d="M43.24,8.421q.882-.8,1.767-1.6c.05-.046.146-.11.185-.091a.794.794,0,0,1,.407.922c-.063.332.37.909-.344.97-.621.052-1.25.011-1.875.011l-.14-.209" transform="translate(-3.676 -0.571)" fill="#f6f6f6"/>
        <path id="Trazado_164903" data-name="Trazado 164903" d="M41.92,6.462c-.726.713-1.35,1.322-1.97,1.932-.125.124-.261.251-.445.171s-.094-.253-.1-.388c-.094-1.584.391-1.943,2.516-1.716" transform="translate(-3.349 -0.544)" fill="#fdfdfd"/>
      </g>
    </g>
  </g>
</svg>
