<svg xmlns="http://www.w3.org/2000/svg" xmlns:xlink="http://www.w3.org/1999/xlink" width="190" height="163" viewBox="0 0 190 163">
  <defs>
    <clipPath id="clip-path">
      <rect id="Rect치ngulo_42776" data-name="Rect치ngulo 42776" width="116.418" height="116.434" fill="none"/>
    </clipPath>
  </defs>
  <g id="Grupo_169851" data-name="Grupo 169851" transform="translate(-2990 9469)">
    <rect id="Rect치ngulo_42593" data-name="Rect치ngulo 42593" width="190" height="163" rx="18" transform="translate(2990 -9469)" fill="#ffbfc1"/>
    <g id="Grupo_169850" data-name="Grupo 169850" transform="translate(3027 -9446)">
      <g id="Grupo_169849" data-name="Grupo 169849" clip-path="url(#clip-path)">
        <path id="Trazado_162956" data-name="Trazado 162956" d="M.071,115.245V88.454c.841-7.893,2.541-15.652,3.7-23.5a27.962,27.962,0,0,0-.237-6.332,18.181,18.181,0,0,1,.178-4.393c.357-2.2.751-4.4,1.09-6.605A11.107,11.107,0,0,1,6.915,42.55q4.664-6.218,9.329-12.435a2.706,2.706,0,0,1,1.5-1.153,6.548,6.548,0,0,1,3.644.578,8.189,8.189,0,0,1,2.743,1.829A8.343,8.343,0,0,1,24.95,42.53a2.124,2.124,0,0,1-.2.272c-2.476,2.523-3.31,5.7-3.573,9.085a6.58,6.58,0,0,0,2.468,5.933A9.95,9.95,0,0,1,27.624,66.3c-.051,2,.011,4.009-.018,6.013a2.938,2.938,0,0,0,.894,2.245,42.5,42.5,0,0,0,15.435,9.908c.8.292,1.305.1,1.5-.794a8.186,8.186,0,0,1,1.71-3.3c3.425-2.981,6.944-3.249,10.307-.79a8.291,8.291,0,0,1,2.56,3.675c.2.482.685.567,1.08.76a7.783,7.783,0,0,1,2.746,1.956,1.3,1.3,0,0,0,1.412.435,43.34,43.34,0,0,0,7.32-1.974c-1.386-1.178-2.8-2.216-4.179-3.294-2.707-2.119-5.433-4.214-8.135-6.339a9.184,9.184,0,0,1-3.477-5.16A3.933,3.933,0,0,0,55.6,67.751c-3.293-3.279-6.563-6.582-9.866-9.851a10.084,10.084,0,0,1-3.276-8.128,13,13,0,0,1,.786-3.057,12.839,12.839,0,0,1,2.278-3.091Q51.8,37.384,58.043,31.1a10.8,10.8,0,0,1,5.043-2.906c.272-.073.69,0,.755-.368.057-.324-.3-.5-.51-.7A4.093,4.093,0,0,0,61.021,26a3.811,3.811,0,0,0-2.129.04,4.7,4.7,0,0,0-2.52,1.432,2.688,2.688,0,0,1-3.455.694A4.627,4.627,0,0,0,47.4,29.187a4.627,4.627,0,0,0-1.138,5.589,2.75,2.75,0,0,1-.655,3.47,5.309,5.309,0,0,0-1.659,3.619,2.092,2.092,0,0,1-1.833,2.121c-1.68-.1-2.412-.856-2.364-2.507a8.432,8.432,0,0,1,1.563-4.671,2.7,2.7,0,0,0,.438-2.234A9.311,9.311,0,0,1,52.594,23.633a3.119,3.119,0,0,0,2.348-.464,9.257,9.257,0,0,1,12,1.531,8.388,8.388,0,0,1,1.809,3.117,2.64,2.64,0,0,0,1.247,1.532c1.956,1.146,3.361,2.921,4.935,4.495,1.061,1.061,2.049,1.979,3.737,2a4.748,4.748,0,0,1,3.141,1.668c1.786,1.8,3.574,3.6,5.383,5.372,4.1,3.369,6.713,7.829,9.132,12.434.423.8.957,1.544,1.314,2.383a.412.412,0,0,1-.006.3C101.909,46.223,100.1,28.452,87.2,15.815a31.476,31.476,0,0,0-5.811-4.7A40.338,40.338,0,0,0,62.293,4.252,41.281,41.281,0,0,0,24.347,21.56a28.344,28.344,0,0,0-2.357,3.727,9.027,9.027,0,0,1-.956,1.536c-.76.89-1.491,1-2.73.42-1.067-1.089-1.194-1.637-.511-3.034a41.994,41.994,0,0,1,5.83-8.628A43.874,43.874,0,0,1,38.27,4.33,40.348,40.348,0,0,1,56.419,0C60.92.059,65.4-.017,69.807,1.22a47,47,0,0,1,18.48,9.8,44.526,44.526,0,0,1,13.076,19.319,44.607,44.607,0,0,1-.275,30.89,2.8,2.8,0,0,0,.308,2.85,43.984,43.984,0,0,0,4.3,5.264c3.368,3.577,6.7,7.187,10.078,10.756a2.4,2.4,0,0,1,.661,1.747q-.008,16.4,0,32.8a1.543,1.543,0,0,1-1.251,1.74h-12.26c-1.316-.366-1.907-1.563-2.7-2.473q-7.572-8.664-15.135-17.337c-1.841-2.1-3.681-4.211-5.5-6.336a27.3,27.3,0,0,0-2.6-2.356,1.117,1.117,0,0,0-1.276-.119A46.98,46.98,0,0,1,66.7,90.442a1.034,1.034,0,0,0-.968,1.036c-.485,4.613-4.11,7.211-8.343,7.06-2.682-.1-5.369,0-8.054-.023a7.5,7.5,0,0,1-7.594-9.073,1.242,1.242,0,0,0-.9-1.638,18.429,18.429,0,0,1-2.386-1.048c-.571-.311-.993-.258-1.258.407-1.245,3.127-2.443,6.217-2.352,9.721.15,5.706.039,11.419.042,17.129,0,1.094-.2,2.043-1.441,2.368H1.206a1.41,1.41,0,0,1-1.135-1.135" transform="translate(-0.017 0)"/>
        <path id="Trazado_162957" data-name="Trazado 162957" d="M.054,152.454l1.135,1.135q-1.441.305-1.135-1.135" transform="translate(0 -37.209)" fill="#f7f7f7"/>
        <path id="Trazado_162958" data-name="Trazado 162958" d="M80.136,77.16c.135-.881.476-.408.773-.113q2.853,2.845,5.7,5.7c.215.214.424.432.644.64.975.92,2.024.975,2.8.151a1.809,1.809,0,0,0-.224-2.711C87.564,78.54,85.283,76.273,83.009,74c-1.445-1.445-2.9-2.882-4.332-4.335-.983-1-1.047-1.95-.216-2.762a1.861,1.861,0,0,1,2.8.216c1.513,1.484,3,3,4.5,4.489,1.093,1.087,2.127,1.208,2.956.358.8-.823.658-1.863-.429-2.953-1.869-1.876-3.748-3.743-5.616-5.62-1.053-1.059-1.179-2.051-.389-2.874.773-.805,1.961-.678,3,.348,1.906,1.892,3.8,3.8,5.7,5.694,1.012,1.006,2.075,1.12,2.876.333.827-.812.735-1.838-.289-2.873-1.516-1.534-3.053-3.046-4.567-4.582-.931-.946-1.021-2.054-.265-2.8a1.977,1.977,0,0,1,2.831.258c1.995,1.965,3.958,3.96,5.956,5.921,1.105,1.085,2.519.934,3.1-.3a1.833,1.833,0,0,0-.519-2.249q-2.335-2.32-4.652-4.657c-.948-.959-1.06-2.024-.324-2.795a1.992,1.992,0,0,1,2.913.266q4.75,4.719,9.467,9.472a5.267,5.267,0,0,1,.773,1.108c2.707,4.712,5.425,9.42,8.1,14.15,2.3,4.073,5.722,7.21,8.823,10.614,1.936,2.126,3.92,4.207,5.881,6.309a1.592,1.592,0,0,1,.6,1.151q-.048,12.993-.051,25.987c-1.344.649-2.686.185-3.974-.124a15.583,15.583,0,0,1-8.292-5.225q-5.821-6.731-11.706-13.41c-1.771-2.015-3.545-4.028-5.27-6.085a33.489,33.489,0,0,0-5.309-4.767q-7.622-5.911-15.219-11.853c-1-.785-2.172-1.631-1.735-3.252" transform="translate(-19.009 -12.764)" fill="#fed2b5"/>
        <path id="Trazado_162959" data-name="Trazado 162959" d="M23.639,45.227a4.337,4.337,0,0,1,.788,5.372,5.592,5.592,0,0,1-.774,1.113c-3.054,3.21-3.955,7.237-4.195,11.442a9.969,9.969,0,0,0,3.861,8.663,6.442,6.442,0,0,1,2.613,5.7c-.114,2.339-.079,4.685-.153,7.027a3.117,3.117,0,0,0,.847,2.361,43.8,43.8,0,0,0,8.937,7.629c.755.475.729.88.458,1.612-1.016,2.75-2.393,5.389-2.7,8.366-.073.712-.125,1.43-.129,2.146-.023,4.5-.03,8.993-.043,13.49a6.179,6.179,0,0,1-3.663.243,21.942,21.942,0,0,1-17.726-11.83A21.129,21.129,0,0,1,9.26,99.1a37.225,37.225,0,0,1,.725-8.793c.059-.3.113-.594.19-.887.174-.664.5-.827,1.008-.288.338.356.647.742,1.015,1.068a9.665,9.665,0,0,0,7.676,2.3,12.284,12.284,0,0,0-1.475-.982A9.719,9.719,0,0,1,14.04,83.7c-.283-3.953-.552-7.907-.858-11.859a24.016,24.016,0,0,1,.141-7.1c.47-2.139.733-4.323,1.112-6.483a7.1,7.1,0,0,1,1.193-2.914c2.289-3.245,4.736-6.373,7.114-9.551.217-.29.426-.653.9-.564" transform="translate(-2.253 -11.035)" fill="#fed2b5"/>
        <path id="Trazado_162960" data-name="Trazado 162960" d="M94.083,16.724a38.971,38.971,0,0,1,9.839,14.735,41.02,41.02,0,0,1,1.07,27.305c-.082.274-.192.542-.33.931-1.6-2.792-3.21-5.431-4.642-8.165a19.8,19.8,0,0,0-4.061-5.107c-.735-.7-1.412-1.462-2.116-2.2a32.8,32.8,0,0,1-.875-4.616.619.619,0,0,1,.154-.416c1.22-.968,1-2.083.489-3.35A30.3,30.3,0,0,0,89.892,29a1.817,1.817,0,0,1-.237-1.987,4.816,4.816,0,0,0-1.25-5.868,4.725,4.725,0,0,0-5.752-.73,2.172,2.172,0,0,1-2.328-.147,27.786,27.786,0,0,0-4.381-2.111c-1.3-.529-2.478-.634-3.483.55a1.253,1.253,0,0,1-1.45-.534c-.133-.532.192-.946.378-1.39a6.984,6.984,0,0,0-1.659-7.907,6.746,6.746,0,0,0-8.389-.681,4.435,4.435,0,0,1-3.065.747,6.446,6.446,0,0,0-6.291,3.051,6.632,6.632,0,0,0-.324,7.2c.226.428.6.794.584,1.329-.358.863-1.2,1.035-1.937,1.349-1.427-1.058-2.589-.476-3.825.475A31.291,31.291,0,0,0,35.895,37.231c-.144.415-.142.916-.634,1.14-.4-.035-.466-.364-.526-.647A6.8,6.8,0,0,0,31.122,32.9a1.822,1.822,0,0,1-.359-.277,12.767,12.767,0,0,0-2.522-1.636c-.413-.488-.171-1.007-.037-1.5a27.053,27.053,0,0,1,2.741-6.868A36.828,36.828,0,0,1,43.809,10.708c14.876-8.238,29.635-7.85,44.152,1.031a4.956,4.956,0,0,1,.519.419.405.405,0,0,1-.249.218,1.9,1.9,0,0,0-1.693,1.463c-.16.934.612,1.42,1.228,1.891,1.082.828,2.125,1.7,3.17,2.575,1.343,1.123,2.469.739,2.87-.98a.9.9,0,0,1,.277-.6" transform="translate(-6.836 -1.17)" fill="#e5e5e5"/>
        <path id="Trazado_162961" data-name="Trazado 162961" d="M74.148,22.343a1.887,1.887,0,0,0,1.33.492c.221,1.646,1.425,2.206,2.815,2.641a21.307,21.307,0,0,1,3.366,1.617,2.094,2.094,0,0,1,1.229,2.077,5.19,5.19,0,0,0,3.873,5.009,3.532,3.532,0,0,0,1.792.11,1.782,1.782,0,0,1,2,.91,24.042,24.042,0,0,1,3.093,5.78c.477,1.314,1.07,2.392,2.535,2.726a16.89,16.89,0,0,1,.685,4.8c-1.778-1.747-3.57-3.48-5.329-5.244a5.719,5.719,0,0,0-4.453-1.872,1.525,1.525,0,0,1-1.252-.6,46.133,46.133,0,0,0-4.7-4.592,12.92,12.92,0,0,1-3.579-4.386A8.8,8.8,0,0,0,64.7,29.042a2.117,2.117,0,0,1-1.933.423,9.008,9.008,0,0,0-10.771,11,1.549,1.549,0,0,1-.3,1.532,8.541,8.541,0,0,0-1.8,4.81c-.106,1.561.433,2.176,2.023,2.406a5.315,5.315,0,0,1,1.414,3.014c-1.649,4.348-.637,8,2.712,11.187,3.393,3.232,6.642,6.614,9.962,9.922a2.527,2.527,0,0,1,.794,1.315,9.278,9.278,0,0,0,3.653,5.547c4.157,3.2,8.29,6.438,12.555,9.754A42.343,42.343,0,0,1,75.516,92.1a2.042,2.042,0,0,1-2.393-.8A5.821,5.821,0,0,0,70.4,89.535c-.3-.111-.838-.024-.77-.624.358-.352.774-.164,1.179-.137a41.213,41.213,0,0,0,5.787-.026A21.4,21.4,0,0,0,74.735,87.2c-2.65-2-5.24-4.084-7.862-6.124a2.562,2.562,0,0,1-.8-.793c-.166-1.4-1.027-1.857-2.355-2.112-11.015-2.107-18.625-8.4-21.956-19.127-3.16-10.178-.709-19.325,6.5-27.177A15.688,15.688,0,0,1,51.3,29.154a3.485,3.485,0,0,0,2-3.14c.545-.516,1.363-.615,1.851-1.218.462.006.732.356,1.058.6,2.82,2.1,5.55,2.266,8.5.409a3.981,3.981,0,0,1,2.758-.6,6.846,6.846,0,0,0,5.715-2.17c.285-.281.463-.714.966-.69" transform="translate(-9.863 -5.453)" fill="#cdcdcd"/>
        <path id="Trazado_162962" data-name="Trazado 162962" d="M22.569,44.85q-2.941,3.848-5.883,7.7c-.457.6-.873,1.229-1.363,1.8-1.792,2.083-1.8,4.722-2.269,7.213-.326,1.732-.6,3.475-.846,5.22-.23,1.619.217,3.22.221,4.841,0,1.5.277,2.988.38,4.486.178,2.59.2,5.2.5,7.769a9.41,9.41,0,0,0,5.577,7.829c.211.1.549.046.619.389-3.41,1.176-6.932-.053-9.99-3.525-1.312,6.164-1.777,12.236.819,18.159a21.494,21.494,0,0,0,8.76,9.933,22.326,22.326,0,0,0,12.987,3.108c-.006,1.166.417,2.65-.142,3.408-.533.722-2.114.216-3.231.218-7.6.02-15.2,0-22.8.032-.846,0-1.057-.2-1.052-1.048.038-7.072-.028-14.144.043-21.216.034-3.372.936-6.648,1.463-9.964C7.172,86.053,8.1,80.926,8.922,75.78a24.282,24.282,0,0,0-.275-6.442c-.3-2.783.625-5.386.825-8.082a14.179,14.179,0,0,1,3.56-8.131c2.208-2.681,4.2-5.539,6.286-8.321,1.051-1.4,1.365-1.455,2.781-.424a4.122,4.122,0,0,1,.47.47" transform="translate(-1.183 -10.659)" fill="#f8b894"/>
        <path id="Trazado_162963" data-name="Trazado 162963" d="M63.585,87.905l10.828,8.346-.1.313a27.2,27.2,0,0,1-7.317-.032c-1.658-3.674-4.03-5.35-7.4-5.217a7.762,7.762,0,0,0-5.028,2.3,2.354,2.354,0,0,1-1.611-.4,43.929,43.929,0,0,1-16-12.173,3.873,3.873,0,0,1-.931-2.471,6.8,6.8,0,0,0-2.526-5.36,9.7,9.7,0,0,1-3.808-9.367,16.409,16.409,0,0,1,4.141-9.6c.291-.315.631-1.245,1.169-.158.156,1.476-.213,2.923-.2,4.4A30.67,30.67,0,0,0,61.083,88.912c1.128.168,1.737-.507,2.5-1.007" transform="translate(-7.224 -13.075)" fill="#e5e5e5"/>
        <path id="Trazado_162964" data-name="Trazado 162964" d="M80.605,85.187A3.656,3.656,0,0,0,82.32,88.1c3.8,3,7.685,5.907,11.485,8.914,3,2.379,6.235,4.505,8.823,7.37,2.368,2.622,4.622,5.346,6.939,8.014,1.7,1.959,3.428,3.9,5.134,5.852,1.928,2.21,3.822,4.449,5.773,6.639a14.973,14.973,0,0,0,8.379,4.79,13.774,13.774,0,0,0,3.258.223c-.006,1.166.418,2.648-.141,3.406-.533.723-2.112.166-3.229.225a14.3,14.3,0,0,0-1.811.022c-2.277.424-3.689-.646-5.122-2.331-6.243-7.339-12.623-14.561-18.958-21.821a34.4,34.4,0,0,0-4.87-4.568q-7.925-6.145-15.831-12.313a5.424,5.424,0,0,1-1.544-7.336" transform="translate(-19.478 -20.791)" fill="#f8b894"/>
        <path id="Trazado_162965" data-name="Trazado 162965" d="M34.283,51.207c-.082-.164-.1-.565-.388-.2-2.112,2.636-3.993,5.349-4.228,8.922A16.984,16.984,0,0,0,29.55,64.6a8.9,8.9,0,0,0,3.437,5.3,7.037,7.037,0,0,1,2.816,5.65,3.855,3.855,0,0,0,.985,2.532A43.5,43.5,0,0,0,53.357,90.345c.243.1.474.234.711.352a8.714,8.714,0,0,0-1.748,3.631c-.139.788-.606,1-1.415.714A41.972,41.972,0,0,1,34.456,84.3a1.705,1.705,0,0,1-.468-1.321c.028-2.345.035-4.69.038-7.035a9.029,9.029,0,0,0-3.495-7.412,7.458,7.458,0,0,1-2.875-7.305,15.434,15.434,0,0,1,3.205-8.061c3.216-3.974,3.034-7.636-.206-11.562a5.933,5.933,0,0,1,4.1,4.535c.1.383.063.835.384,1.151a5.38,5.38,0,0,1-.859,3.913" transform="translate(-6.728 -10.155)" fill="#cdcdcd"/>
        <path id="Trazado_162966" data-name="Trazado 162966" d="M82.453,42.249a4.636,4.636,0,0,1,3.439,1.47c1.309,1.256,2.559,2.574,3.865,3.833.4.383.367.622.148,1.132a2.084,2.084,0,0,1-2.3,1.42,4.833,4.833,0,0,0-4.558,3.178c-.228.517-.405.718-1.047.653a5.32,5.32,0,0,0-5.818,5.707.952.952,0,0,1-.683,1.15,5.332,5.332,0,0,0-1.683,8.691A16.575,16.575,0,0,0,75.1,70.764c.453.394.553.774.128,1.234-.509.158-.757-.246-1.045-.514a14.682,14.682,0,0,1-1.132-19.932c2.637-3.075,5.66-5.77,8.463-8.681a3.789,3.789,0,0,1,.941-.622" transform="translate(-17.007 -10.311)" fill="#f7c360"/>
        <path id="Trazado_162967" data-name="Trazado 162967" d="M57.05,55.094c-.4-1.038-1.2-1.891-1.414-3.014a2.083,2.083,0,0,0,1.616-2.158,5.162,5.162,0,0,1,1.676-3.594c1.193-1.162,1.256-1.494.622-2.956a5.4,5.4,0,0,1,7.124-7.177c1.5.645,1.834.575,2.969-.574a4.355,4.355,0,0,1,2.808-1.508c.144.455-.237.764-.323,1.157a1.461,1.461,0,0,0,.6,1.676,1.423,1.423,0,0,0,1.69,0,1.469,1.469,0,0,0,.6-1.68c-.087-.392-.471-.7-.321-1.156,1.563.143,2.566,1.1,3.605,2.482-3.8.107-6.031,2.529-8.336,4.877-3.338,3.4-6.72,6.754-10.1,10.108a15.437,15.437,0,0,0-2.812,3.519" transform="translate(-13.579 -8.325)" fill="#a6cfe0"/>
        <path id="Trazado_162968" data-name="Trazado 162968" d="M68.309,121.017c-1.436,0-2.871.011-4.307,0a3.656,3.656,0,0,1-3.8-2.91,3.586,3.586,0,0,1,2.186-4.035,2.142,2.142,0,0,0,1.4-2.2,3.576,3.576,0,0,1,3.4-3.565,3.681,3.681,0,0,1,3.828,3.269c.2,1.665.534,2,2.14,2.183a3.632,3.632,0,0,1-.321,7.251c-1.51.029-3.022.006-4.533.006" transform="translate(-14.675 -26.433)" fill="#a6cfe0"/>
        <path id="Trazado_162969" data-name="Trazado 162969" d="M80.392,42.237c-2.6,2.629-5.183,5.27-7.8,7.884a14.663,14.663,0,0,0-4.671,11.435,13.454,13.454,0,0,0,5.241,10.43c-.759,2.354-.758,2.354-2.474.637-2.541-2.542-5.093-5.075-7.623-7.628A5.419,5.419,0,0,1,63.1,56.85q6.45-6.472,12.92-12.926a5.065,5.065,0,0,1,4.375-1.687" transform="translate(-14.946 -10.299)" fill="#e9ab47"/>
        <path id="Trazado_162970" data-name="Trazado 162970" d="M112.863,19.1c.061,1.079-.08,2.072-1.3,2.448a1.857,1.857,0,0,1-1.872-.48A41.451,41.451,0,0,0,106.3,18.31c-1.633-1.183-1.751-2.269-.521-3.379.459-.414.976-.307,1.479-.395a28.27,28.27,0,0,1,5.6,4.566" transform="translate(-25.616 -3.548)" fill="#fefefe"/>
        <path id="Trazado_162971" data-name="Trazado 162971" d="M29.844,28.375a67.3,67.3,0,0,0-2.587,7.487c-.063.288-.079.587-.118.88a9.294,9.294,0,0,0-3.642-.626c.085-.733.733-1.278.69-2.054,1.459.447,2.029.22,2.779-1.108a29.407,29.407,0,0,1,2.878-4.579" transform="translate(-5.735 -6.925)" fill="#cdcdcd"/>
        <path id="Trazado_162972" data-name="Trazado 162972" d="M79.895,34.028c.146.218.311.426.435.657a1.73,1.73,0,0,1-.413,2.34,1.674,1.674,0,0,1-2.285,0,1.727,1.727,0,0,1-.418-2.34,7.584,7.584,0,0,1,.436-.655,2.66,2.66,0,0,1,2.246,0" transform="translate(-18.777 -8.245)" fill="#fdfdfe"/>
        <path id="Trazado_162973" data-name="Trazado 162973" d="M36.369,47.409l.859-3.913a31.687,31.687,0,0,1,8.3-13.788,30.252,30.252,0,0,1,3.661-3.021c1.3-.909,1.889-.863,3.066.233a2.083,2.083,0,0,1-.922,2.717,26.826,26.826,0,0,0-11.57,23.253c.2,12.4,9.92,23.674,22.142,25.79.409.07.818.147,1.228.21,1.553.237,1.985.72,2.046,2.3a2.132,2.132,0,0,1-2.572,1.3A30.869,30.869,0,0,1,36.7,57.908a33.4,33.4,0,0,1-.335-10.5" transform="translate(-8.814 -6.357)"/>
        <path id="Trazado_162974" data-name="Trazado 162974" d="M78.375,18.692c-1.99,2.507-4.492,3.7-7.729,3.015a1,1,0,0,0-.838.175c-4.034,2.708-6.994,2.492-10.432-.737-2.117-3.312-2.214-6.411-.171-9.032a6.957,6.957,0,0,1,7.2-2.744,1.394,1.394,0,0,0,1.239-.279,7.239,7.239,0,0,1,10.849,9.286,2.5,2.5,0,0,0-.119.315" transform="translate(-14.09 -1.803)"/>
        <path id="Trazado_162975" data-name="Trazado 162975" d="M107.5,43.476c-1.472.005-1.937-.295-2.423-1.684a27.393,27.393,0,0,0-3.657-6.973,1.017,1.017,0,0,0-1.191-.522,5.329,5.329,0,0,1-6.307-5.471,1.535,1.535,0,0,0-.954-1.649,34.042,34.042,0,0,0-4.717-2.15c-1.295-.466-1.582-1-1.457-2.422.787-1.234,1.374-1.439,2.739-.971a27.469,27.469,0,0,1,5.709,2.7,1.074,1.074,0,0,0,1.308.008,5.4,5.4,0,0,1,7.633,7.052,1.05,1.05,0,0,0,.141,1.287,29.166,29.166,0,0,1,4.161,7.866c.529,1.529.359,2.043-.983,2.93" transform="translate(-21.177 -5.224)"/>
        <path id="Trazado_162976" data-name="Trazado 162976" d="M62.544,17.665a3.608,3.608,0,0,1,4.874-3.42c1.916.706,1.916.706,3.343-.85a3.621,3.621,0,1,1,1.33,5.778c-1.746-.686-1.885-.652-3.16.8a3.623,3.623,0,0,1-6.388-2.312" transform="translate(-15.265 -2.975)" fill="#a6cfe0"/>
        <path id="Trazado_162977" data-name="Trazado 162977" d="M102.86,29.01a1.815,1.815,0,1,1-1.868,1.731,1.841,1.841,0,0,1,1.868-1.731" transform="translate(-24.648 -7.08)" fill="#a5cdde"/>
      </g>
    </g>
  </g>
</svg>
