<svg xmlns="http://www.w3.org/2000/svg" xmlns:xlink="http://www.w3.org/1999/xlink" width="105" height="105" viewBox="0 0 105 105">
  <defs>
    <clipPath id="clip-path">
      <rect id="Rectángulo_42902" data-name="Rectángulo 42902" width="64.076" height="64.071" fill="none"/>
    </clipPath>
  </defs>
  <g id="Grupo_170107" data-name="Grupo 170107" transform="translate(-4931 8847)">
    <path id="Trazado_164419" data-name="Trazado 164419" d="M52.5,0A52.5,52.5,0,1,1,0,52.5,52.5,52.5,0,0,1,52.5,0Z" transform="translate(4931 -8847)" fill="#e1e8ff"/>
    <g id="Grupo_170106" data-name="Grupo 170106" transform="translate(4951 -8827)">
      <g id="Grupo_170105" data-name="Grupo 170105" transform="translate(0 0)" clip-path="url(#clip-path)">
        <path id="Trazado_164755" data-name="Trazado 164755" d="M18.8,22.424a1.078,1.078,0,0,1-.655-1.1,7.128,7.128,0,0,1,1.47-4.6c.238-.316.295-.479-.058-.78a5.787,5.787,0,0,1-2.088-4.434c-.017-.646-.034-1.295,0-1.938.026-.452-.079-.608-.57-.594-1.333.04-2.668.032-4,.009a2.831,2.831,0,0,1-2.836-2.557A2.863,2.863,0,0,1,12.144,3.45a3.329,3.329,0,0,1,.929-.088c1.251,0,2.5-.013,3.752.006A.786.786,0,0,0,17.54,3,6.866,6.866,0,0,1,24.848.187a6.9,6.9,0,0,1,5.5,5.5,6.717,6.717,0,0,1,.166,1.424,1.566,1.566,0,0,1-.8,1.526c-.472.239-.506.558-.5.993.017,1.147,0,2.294.007,3.44a4.087,4.087,0,0,1-1.759,3.539c-.234.169-.275.288-.156.544a10.935,10.935,0,0,1,.979,5.224.864.864,0,0,0,.179.635c.56.7,1.114,1.4,1.648,2.122a.369.369,0,0,0,.559.14c.668-.336,1.344-.657,2.03-.954.286-.123.355-.24.258-.558-.272-.895-.494-1.8-.73-2.709-.179-.692.062-1.187.642-1.336.54-.139.984.174,1.168.838.25.9.511,1.8.722,2.711a.573.573,0,0,0,.53.5,2.895,2.895,0,0,1,1.359,5,.617.617,0,0,0-.227.739c.231.777.436,1.562.631,2.348a.731.731,0,0,0,.5.564c1.084.421,2.156.874,3.236,1.306a2.385,2.385,0,0,1,1.634,1.954c.049.357.215.314.465.277a8.8,8.8,0,0,0,6.144-3.68,4.021,4.021,0,0,1,3.7-1.87c1.208.051,2.418,0,3.628.013a1.675,1.675,0,0,1,1.708,2.27c-1,3.345-1.984,6.695-3.041,10.022a11.508,11.508,0,0,1-4.069,5.71c-.145.111-.288.226-.517.405a11.723,11.723,0,0,0,7.708-1.06,12.429,12.429,0,0,1,4.612-.971,1.309,1.309,0,0,1,1.31.631v.626a1,1,0,0,1-1.114.791A12.8,12.8,0,0,0,57.844,50.1a13.046,13.046,0,0,1-9.813.144c-.919-.333-1.792-.789-2.738-1.056-.426-.12-.594-.063-.579.441A1.711,1.711,0,0,1,43.357,51.6a38.106,38.106,0,0,1-3.862,1.035,1.857,1.857,0,0,1-2.108-1.358c-.387-1.08-.379-1.054-1.468-.737a13.239,13.239,0,0,1-9.337-.6,11.721,11.721,0,0,0-3.027-.965,11.988,11.988,0,0,0-6.768.948A12.945,12.945,0,0,1,6,49.994,12.31,12.31,0,0,0,1.05,48.828c-.377,0-.758-.087-.885-.54-.319-.978.05-1.5,1.06-1.491a11.477,11.477,0,0,1,4.962,1.069,11.908,11.908,0,0,0,6.989,1.055c.082-.011.166-.019.247-.038a.425.425,0,0,0,.108-.065c.022-.19-.154-.217-.255-.294a11.977,11.977,0,0,1-4.353-6.237q-1.437-4.709-2.855-9.421A1.736,1.736,0,0,1,7.917,30.41c.6,0,1.208.016,1.812,0a3.7,3.7,0,0,1,3.334,1.71A9.092,9.092,0,0,0,19.692,36c-.654-3.227-.711-6.492-1.1-9.719-.1-.81.045-1.057.818-1.386.591-.121.985.151,1.131.813a19.759,19.759,0,0,1,.276,2.354c.126,1.283.239,2.567.369,3.85.039.376.142.47.506.3,1.136-.518,2.288-1,3.421-1.528.578-.267.6-.334.21-.866-1.278-1.749-2.6-3.462-3.867-5.222-.551-.768-.552-1.108-.024-1.783a1.2,1.2,0,0,1,1.737.42c1.325,1.794,2.658,3.582,3.983,5.376a2.671,2.671,0,0,0,3.579.9c1.351-.606,2.668-1.279,3.991-1.942.763-.383.99-.778.771-1.28-.251-.574-.7-.662-1.536-.316-1,.417-1.947.953-2.953,1.359a1.687,1.687,0,0,1-2.171-.542q-2.479-3.181-4.938-6.377c-.5-.649-.489-.948-.028-1.631.775-.532,1.152-.42,2.022.6.082-.1.009-.183-.015-.261-.487-1.566-.488-1.572-2.139-1.565a7.025,7.025,0,0,1-1.486-.155.809.809,0,0,0-.9.383A5.334,5.334,0,0,0,20.2,21.088a1.733,1.733,0,0,1-.213.96.918.918,0,0,1-1.189.375" transform="translate(-0.011 0)"/>
        <path id="Trazado_164756" data-name="Trazado 164756" d="M.155,61.035a1.242,1.242,0,0,0,.823.383,13.061,13.061,0,0,1,5.413,1.291,12.352,12.352,0,0,0,9.954-.053,12.7,12.7,0,0,1,7.845-.989,17.359,17.359,0,0,1,2.925,1.06,12.963,12.963,0,0,0,9.564.107c.432-.159.582-.092.634.345a4.2,4.2,0,0,0,.18.661,1.71,1.71,0,0,0,2.287,1.314c1.129-.284,2.252-.588,3.372-.9a1.723,1.723,0,0,0,1.356-2.275l-.085-.387a13.491,13.491,0,0,1,3.392,1.122,12.8,12.8,0,0,0,10.022-.058,12.476,12.476,0,0,1,5.235-1.234c.483.014.733-.307.992-.628V69.55c-1.627-.883-3.226-.273-4.819.115a10.629,10.629,0,0,0-1.687.658,11.466,11.466,0,0,1-9.742-.066,13.089,13.089,0,0,0-8.852-.721,19.369,19.369,0,0,0-2.512.949,11.058,11.058,0,0,1-8.811-.014A14.638,14.638,0,0,0,21.289,69.1a11.837,11.837,0,0,0-4.494.949,12.847,12.847,0,0,1-5.543,1.317A11.971,11.971,0,0,1,6.7,70.4a13.3,13.3,0,0,0-4.053-1.208,3.54,3.54,0,0,0-2.623.373q-.006-4.009-.01-8.019c0-.181-.044-.38.141-.513" transform="translate(-0.002 -12.746)" fill="#c3e1fe"/>
        <path id="Trazado_164757" data-name="Trazado 164757" d="M.637,79.29A1.378,1.378,0,0,1,0,77.981C.035,76.2.02,74.422.024,72.642a3.686,3.686,0,0,0,2,.5,12.825,12.825,0,0,1,4.246,1.205,12.56,12.56,0,0,0,10.14-.034A13.129,13.129,0,0,1,22.037,73.1a10.864,10.864,0,0,1,4.3.973A13.442,13.442,0,0,0,37.992,74a10.735,10.735,0,0,1,8.514-.134,18.062,18.062,0,0,0,4.832,1.423,12.429,12.429,0,0,0,6.072-.775A13.559,13.559,0,0,1,63,73.1c.435.01.665-.409,1.068-.442,0,2.044-.016,4.088.013,6.131.006.429-.085.512-.514.512Q33.7,79.282,3.827,79.29Z" transform="translate(0 -15.231)" fill="#c3e1fe"/>
        <path id="Trazado_164758" data-name="Trazado 164758" d="M64.069,72.318a1.315,1.315,0,0,1-1.248.639A10.491,10.491,0,0,0,58.3,74a13.038,13.038,0,0,1-11.06,0,11.333,11.333,0,0,0-9.609-.022,13.246,13.246,0,0,1-11.236-.022,10.959,10.959,0,0,0-9.312-.031,13.582,13.582,0,0,1-9.5.758,17.987,17.987,0,0,1-2.321-.9,9.789,9.789,0,0,0-4-.824A1.236,1.236,0,0,1,.03,72.3q0-.3,0-.59a1.221,1.221,0,0,1,1.234-.648A12.611,12.611,0,0,1,6.339,72.2a11.4,11.4,0,0,0,9.839.055,11.726,11.726,0,0,1,2.4-.847,12.7,12.7,0,0,1,8.073.646,12.443,12.443,0,0,0,7.9,1.019,17.029,17.029,0,0,0,2.867-1.035,12.531,12.531,0,0,1,9.9,0,13.306,13.306,0,0,0,7.224,1.171,13.581,13.581,0,0,0,3.544-1.151,12.608,12.608,0,0,1,4.668-.994,1.312,1.312,0,0,1,1.31.632Z" transform="translate(-0.006 -14.89)"/>
        <path id="Trazado_164759" data-name="Trazado 164759" d="M23.777,26.973c.929.02,1.25-.272,1.22-1.205a5.823,5.823,0,0,1,1.446-3.876c.116-.146.224-.236.415-.181a10.4,10.4,0,0,0,3.033.194.561.561,0,0,1,.616.376,8.381,8.381,0,0,1,.7,2.256c-.752-.583-1.039-1.954-2.32-1.094-.232.1-.448-.022-.671-.054a2.017,2.017,0,0,0-2.147.943,1.949,1.949,0,0,0,.055,2.282c.168.251.441.458.39.815-.492.652-.5.889-.012,1.547q2.021,2.731,4.05,5.456c.134.181.266.364.428.586-1.559.7-3.073,1.366-4.576,2.057-.438.2-.365-.092-.388-.331-.2-2.069-.409-4.137-.586-6.208a1.052,1.052,0,0,0-1.039-1.091c-.064-.628-.134-1.253-.187-1.882a.66.66,0,0,0-.423-.59" transform="translate(-4.986 -4.549)" fill="#fecdbe"/>
        <path id="Trazado_164760" data-name="Trazado 164760" d="M31.493,45.231c-.034.943.248,1.243,1.184,1.245,1.875,0,3.751.014,5.626-.009.4,0,.59.092.688.495.329,1.332.689,2.655,1.05,3.979.066.239.086.39-.159.573a3.653,3.653,0,0,0-1.335,4.272c.241.861.241.89-.567,1.17a10.807,10.807,0,0,1-8.046-.167,15,15,0,0,0-6.706-1.431,12.158,12.158,0,0,0-4.6,1.036.914.914,0,0,1-.925-.043,9.891,9.891,0,0,1-4.813-5.819c-.962-3.053-1.851-6.128-2.8-9.185-.144-.465-.008-.548.4-.5a.941.941,0,0,0,.125,0c2.606-.006,2.143-.082,3.6,1.671a10.675,10.675,0,0,0,8.3,3.95c1.749.04,3.5.012,5.25.007.825,0,1.1-.274,1.152-1.118a5.855,5.855,0,0,0,2.577-.126" transform="translate(-2.105 -8.562)" fill="#c49090"/>
        <path id="Trazado_164761" data-name="Trazado 164761" d="M56.933,55.989a13.673,13.673,0,0,0-2.5-.526c-.266-.013-.33-.184-.386-.406q-.193-.787-.428-1.563A3.513,3.513,0,0,0,50.6,50.881a.606.606,0,0,1-.6-.538c-.288-1.129-.585-2.255-.91-3.372-.125-.432.006-.5.417-.507a22.838,22.838,0,0,0,4.609-.213,10.355,10.355,0,0,0,6.512-4.082,2.8,2.8,0,0,1,2.966-1.307c.346.228.152.536.076.785-.59,1.949-1.17,3.9-1.771,5.848-.374,1.212-.716,2.433-1.121,3.635a11.051,11.051,0,0,1-3.059,4.634.681.681,0,0,1-.78.225" transform="translate(-10.282 -8.558)" fill="#c49090"/>
        <path id="Trazado_164762" data-name="Trazado 164762" d="M26.98,27.832c-.1-.155-.2-.314-.314-.465a2.124,2.124,0,0,1-.078-2.98,2.264,2.264,0,0,1,2.764-.541,1.079,1.079,0,0,0,.1,1.422c1.657,2.115,3.293,4.246,4.944,6.365a1.5,1.5,0,0,0,2.041.5c1.024-.458,2.035-.945,3.055-1.413.726-.333,1.334-.178,1.605.4s.011,1.144-.707,1.5c-1.343.661-2.684,1.323-4.035,1.968a2.876,2.876,0,0,1-3.937-.993q-1.97-2.661-3.942-5.32c-.476-.639-.737-.71-1.5-.432" transform="translate(-5.455 -4.951)" fill="#feaf9d"/>
        <path id="Trazado_164763" data-name="Trazado 164763" d="M59.027,56c.842-.194,1.237-.931,1.756-1.5,1.562-1.7,2.093-3.884,2.746-6,.671-2.18,1.321-4.366,1.973-6.551a1.768,1.768,0,0,0,.18-1.076c.833-.006,1.666,0,2.5-.024.371-.01.4.107.3.437-.958,3.119-1.866,6.254-2.855,9.363a9.92,9.92,0,0,1-4.276,5.43,1.5,1.5,0,0,1-1.819.156,3.541,3.541,0,0,0-.5-.236" transform="translate(-12.377 -8.564)" fill="#b87f7f"/>
        <path id="Trazado_164764" data-name="Trazado 164764" d="M35.05,45.19a.562.562,0,0,1-.618.375,11.94,11.94,0,0,0-1.366,0,.611.611,0,0,1-.593-.243,1.04,1.04,0,0,0-1.142-.76c-1.124.013-2.248.007-3.372,0-.424,0-1.1-1.011-.926-1.378a.492.492,0,0,1,.244-.171q2.646-1.168,5.3-2.33a1.261,1.261,0,0,1,.835.092c1.463.522,2.933,1.023,4.391,1.558a4.919,4.919,0,0,1,2.092,1.408c.187.218.481.432.308.8-1.326.007-2.652.027-3.978.015a1.142,1.142,0,0,0-1.172.636" transform="translate(-5.662 -8.521)" fill="#f48996"/>
        <path id="Trazado_164765" data-name="Trazado 164765" d="M22.929,6.987A5.118,5.118,0,0,1,27.3,2.508a1.3,1.3,0,0,1,1.268.324,6.314,6.314,0,0,1,2.15,3.906c.106.719-.013.849-.726.85-2.184,0-4.369-.011-6.553.009-.481,0-.665-.134-.508-.609" transform="translate(-4.796 -0.515)" fill="#f48996"/>
        <path id="Trazado_164766" data-name="Trazado 164766" d="M49.959,55.886a1.651,1.651,0,0,1,1.632,1.13c.408,1.352.744,2.726,1.127,4.086.071.254-.024.341-.239.4-.9.236-1.811.466-2.71.721-.281.08-.389-.041-.45-.27-.345-1.284-.742-2.558-1.014-3.858a1.706,1.706,0,0,1,1.654-2.207" transform="translate(-10.118 -11.718)" fill="#305971"/>
        <path id="Trazado_164767" data-name="Trazado 164767" d="M28.113,17.792a3.8,3.8,0,0,1-2.974-1.9c-.189-.289-.174-.456.165-.616.543-.254,1.064-.559,1.594-.839a2.29,2.29,0,0,0,1.367-2.315c-.048-.626.134-.872.766-.763a5.687,5.687,0,0,0,.744.034,1.042,1.042,0,0,1,.19.765c0,1.14,0,2.282,0,3.423a3.474,3.474,0,0,1-.233,1.216c-.356.97-.565,1.1-1.622.993" transform="translate(-5.246 -2.377)" fill="#fecdbe"/>
        <path id="Trazado_164768" data-name="Trazado 164768" d="M28.934,17.8c1.1-.077,1.65-.741,1.66-2.041.012-1.452,0-2.9,0-4.355.812-.009,1.623-.007,2.434-.034.322-.011.379.129.375.408-.013,1.312.017,2.625-.018,3.937a2.09,2.09,0,0,1-1.853,2.1,8.1,8.1,0,0,1-2.6-.018" transform="translate(-6.067 -2.383)" fill="#feaf9d"/>
        <path id="Trazado_164769" data-name="Trazado 164769" d="M22.916,6.968c-.03.435.175.551.6.546,2.165-.02,4.332-.024,6.5,0,.514.006.612-.214.549-.636a6.419,6.419,0,0,0-2.2-4.006,1.4,1.4,0,0,0-1.08-.385,5.217,5.217,0,0,1,5.762,3.247,7.909,7.909,0,0,1,.345,1.39c.079.41-.079.492-.456.491Q28.119,7.6,23.3,7.624c-.592,0-.544-.27-.387-.657" transform="translate(-4.783 -0.495)" fill="#ef7280"/>
        <path id="Trazado_164770" data-name="Trazado 164770" d="M41.678,44.449a3.837,3.837,0,0,0-2.4-2.034c-1.722-.661-3.484-1.223-5.229-1.826a2.785,2.785,0,0,1,1.743-.373c2.327.086,4.356,1.173,6.533,1.747a.676.676,0,0,1,.542.586c.1.488.243.969.389,1.446.1.323.092.515-.333.481s-.832-.02-1.249-.027" transform="translate(-7.14 -8.431)" fill="#ef7180"/>
        <path id="Trazado_164771" data-name="Trazado 164771" d="M17.643,6.627c.5,0,1,.018,1.5-.006.386-.019.492.111.345.465a1.028,1.028,0,0,0-.047.244C19.263,8.5,19.263,8.5,18.047,8.5c-.6,0-1.208.006-1.812,0-.707-.011-1.155-.394-1.146-.962.009-.545.439-.9,1.117-.911.479-.007.959,0,1.438,0" transform="translate(-3.164 -1.388)" fill="#ee7180"/>
        <path id="Trazado_164772" data-name="Trazado 164772" d="M24.423,12.454c0-1.08,0-1.093,1.094-1.069.251.006.667-.2.729.214s.194.933-.377,1.194a6.5,6.5,0,0,0-.875.476c-.518.344-.625.121-.574-.379a4.225,4.225,0,0,0,0-.436" transform="translate(-5.118 -2.377)" fill="#345d7d"/>
        <path id="Trazado_164773" data-name="Trazado 164773" d="M47.832,43.7c.812.329,1.56.628,2.3.935.209.087.484.191.413.462-.055.213-.322.08-.493.1a4.209,4.209,0,0,1-.5,0c-1.38,0-1.38,0-1.724-1.5" transform="translate(-10.029 -9.163)" fill="#fbad9b"/>
        <path id="Trazado_164774" data-name="Trazado 164774" d="M41.519,38.78c.258-.133.381-.2.507-.261,1.351-.662,1.351-.662,1.668.955l-2.175-.694" transform="translate(-8.706 -7.989)" fill="#f5f5f5"/>
      </g>
    </g>
  </g>
</svg>
