<svg xmlns="http://www.w3.org/2000/svg" xmlns:xlink="http://www.w3.org/1999/xlink" width="105" height="105" viewBox="0 0 105 105">
  <defs>
    <clipPath id="clip-path">
      <rect id="Rectángulo_42898" data-name="Rectángulo 42898" width="66.522" height="59.661" fill="none"/>
    </clipPath>
  </defs>
  <g id="Grupo_170095" data-name="Grupo 170095" transform="translate(-748 -2853)">
    <path id="Trazado_164413" data-name="Trazado 164413" d="M52.5,0A52.5,52.5,0,1,1,0,52.5,52.5,52.5,0,0,1,52.5,0Z" transform="translate(748 2853)" fill="#e1e8ff"/>
    <g id="Grupo_170094" data-name="Grupo 170094" transform="translate(767 2876)">
      <g id="Grupo_170093" data-name="Grupo 170093" clip-path="url(#clip-path)">
        <path id="Trazado_164559" data-name="Trazado 164559" d="M65.734,42.05c-.537-.209-.52-.582-.516-1.025a3.907,3.907,0,0,0-2.045-3.789,1.515,1.515,0,0,1-.944-1.8,2.674,2.674,0,0,0-.008-.584,1.806,1.806,0,0,0-1.579-1.639,3.879,3.879,0,0,0-.906-.033c-.458.048-.581-.136-.609-.575q-.582-9.238-1.193-18.473a1.746,1.746,0,0,0-1.984-1.881c-1.039-.012-2.079-.01-3.118,0-1.361.012-1.948.594-2.024,1.975q-.084,1.524-.187,3.047-.493,7.388-.986,14.777c-.07,1.085-.047,1.087-1.109,1.124a1.882,1.882,0,0,0-2.016,2.1c0,.368-.007.737,0,1.1a.375.375,0,0,1-.267.434,4.292,4.292,0,0,0-2.858,4.47c0,.156.089.371-.147.443-.575.175-.8.7-1.127,1.119-.591.774-1.161,1.564-1.841,2.484,0-1.1,0-2,0-2.91,0-.411-.06-.881-.466-.985-.659-.168-.591-.6-.578-1.07.012-.455,0-.91,0-1.364a1.039,1.039,0,0,0-.645-1.09c-1.063,0-1.3.231-1.3,1.282,0,.455-.015.91,0,1.364.015.352-.027.561-.476.55-.406-.01-.443-.189-.443-.517q.011-6.5,0-12.991c0-.309,0-.527.427-.531s.5.158.494.534c-.015,2.316,0,4.633-.014,6.95a1.288,1.288,0,0,0,.662,1.3c.97.014,1.291-.29,1.292-1.253,0-2.729,0-5.458.008-8.186a1.673,1.673,0,0,0-.429-1.179q-7.009-8.062-14-16.142a1.628,1.628,0,0,0-1.35-.613c-1.234.017-2.468,0-3.7.008a.7.7,0,0,1-.7-.327,2.253,2.253,0,0,0-2.53-1.021,2.216,2.216,0,0,0-1.8,1.9,2.249,2.249,0,0,0,1.06,2.4.6.6,0,0,1,.326.569c-.011,3.357-.007,6.713-.008,10.07,0,.164.039.326-.2.4a1.92,1.92,0,0,0-1.348,2.17c.019.36-.081.485-.46.472-.822-.028-1.646-.034-2.468,0A1.858,1.858,0,0,0,9.737,27.09c-.012.91,0,1.819,0,2.729,0,.494.141,1.124-.1,1.44-.185.238-.886.075-1.357.091a1.9,1.9,0,0,0-2.043,2.08c-.006,1.234-.009,2.469,0,3.7,0,.308-.048.439-.407.482a1.855,1.855,0,0,0-1.807,2.1c0,1.624-.036,3.249.017,4.872.02.607-.182.715-.719.681-.712-.044-1.429-.024-2.143-.005-.884.022-1.267.461-1.155,1.327S.237,48.3.4,49.154A15.254,15.254,0,0,0,3.43,56.429,5.281,5.281,0,0,1,4.958,60.7,1.72,1.72,0,0,0,6.63,62.51a7.833,7.833,0,0,0,.842.03H61.39c.217,0,.433.006.649,0A4.363,4.363,0,0,0,66.323,59.4c.039-.11.03-.269.2-.3V43.111c-.23-.382-.353-.892-.788-1.061M52.745,14.482c.011-.23.13-.3.328-.294a23.066,23.066,0,0,1,2.832.054,10.649,10.649,0,0,1,.186,2.745,22.308,22.308,0,0,1-3.2.08c-.231.011-.294-.123-.281-.329.049-.752.1-1.5.136-2.257m-.709,10.775q.2-2.874.372-5.749c.022-.374.139-.543.543-.5.448.045.9.034,1.353.047,1.994-.2,1.987-.2,2.1,1.728.085,1.459.194,2.917.285,4.376.008.134.123.294-.054.407a5.872,5.872,0,0,1-.844.072c-1.155.057-2.312-.043-3.467-.006-.272.008-.3-.135-.287-.372m-.185,2.587c.043-.183.125-.27.3-.266,1.229.024,2.461-.053,3.69,0a7.658,7.658,0,0,1,.945.064,1.445,1.445,0,0,1,.086,1.045h0a25.985,25.985,0,0,1-3.333.074c-.323.009-.646,0-.97,0-.745,0-.882-.188-.712-.916m-.3,4.982c0-.021,0-.043,0-.065.05-.646-.112-1.441.208-1.895s1.161-.157,1.768-.16A21.723,21.723,0,0,1,57,30.768a6.741,6.741,0,0,1,.161,1.946c.083.273.065.458-.3.456q-2.5-.012-4.99,0c-.248,0-.364-.086-.321-.342m-2.507,2.281c3.55.025,7.1,0,10.65,0,.184,0,.39-.082.553.083a4.124,4.124,0,0,1,0,1.291h0c-.163.165-.369.083-.553.083-3.55,0-7.1-.031-10.65,0-.674.006-.571-.35-.588-.758-.017-.433-.008-.7.588-.693M37.22,43.165q.213.007.426.021c.212.015.423.034.635.06a9.042,9.042,0,0,1,0,1.94,7.718,7.718,0,0,1-1.683.091c-.224,0-.448-.008-.671-.015s-.444-.005-.666.005a3.883,3.883,0,0,1-.648-.014c-.483-.056-1.189.234-1.4-.134-.243-.429-.075-1.09-.088-1.65,0-.176.047-.289.252-.285,1.28.026,2.563-.071,3.842-.02M22.93,10.487a.51.51,0,0,1,.675.178q6.178,7.145,12.36,14.288c.012.014.009.042.013.067-.106.158-.271.079-.409.09-.831.067-1.13.389-1.144,1.244C34.4,27.71,34.4,27.71,33.047,27.71c-.78,0-1.559-.011-2.338.005a.5.5,0,0,1-.54-.343q-3.61-8.38-7.231-16.756a.42.42,0,0,1-.008-.129m-4.885,1.585a.59.59,0,0,1,.333-.623,1.556,1.556,0,0,0,.684-.677c.155-.308.388-.32.683-.358.726-.094,1.076.174,1.373.873,2.457,5.777,4.978,11.525,7.443,17.3a1.527,1.527,0,0,0,1.669,1.089c1.232-.053,2.468,0,3.7-.022.392-.008.51.086.5.495-.025,1.775-.011,3.551-.011,5.326,0,1.753-.013,3.507.009,5.261.005.4-.092.527-.5.5a15,15,0,0,0-1.688,0,.991.991,0,0,0-1.069,1.111c-.016.757-.014,1.515,0,2.273.007.391.036.675-.543.661-.537-.013-.508-.263-.506-.633.011-1.645.008-3.291,0-4.936a1.856,1.856,0,0,0-1.809-2.1c-.362-.043-.408-.177-.4-.483.014-1.234.01-2.468,0-3.7a1.892,1.892,0,0,0-2.043-2.077c-.649-.017-1.3-.021-1.948,0-.336.012-.439-.088-.433-.432.021-1.234.012-2.468.007-3.7a1.907,1.907,0,0,0-2.079-2.11c-.086,0-.173,0-.26,0a3.853,3.853,0,0,1-1.351-.035c-.5-.2-.118-.794-.255-1.2a1.834,1.834,0,0,0-1.127-1.314c-.329-.111-.395-.288-.394-.611q.02-4.937,0-9.873M16.1,33.789c0-.282-.005-.49.391-.489,3.092.006,6.185-.008,9.278-.011a.207.207,0,0,1,.1.04c.021.012.043.027.064.038a39.648,39.648,0,0,1,0,4.152c-.165.158-.371.081-.555.08h-.227c-.082,0-.163,0-.245,0q-2.111,0-4.223-.009c-.339,0-.677,0-1.016,0-.017,0-.027,0-.043,0-.98,0-1.961,0-2.941,0-.427,0-.611-.074-.595-.556.037-1.08.016-2.162.009-3.244m1.95,6.238c0-.271-.028-.494.379-.493.864,0,1.728,0,2.592,0,.018,0,.034,0,.053,0,.311,0,.623,0,.934,0H27.97a.5.5,0,0,1,.17.071q.116,2.793,0,5.584c-.143.134-.318.078-.479.074s-.3.006-.452,0l-4.386,0c-.54,0-1.08,0-1.62.009-.031,0-.05-.007-.079-.007-.833,0-1.668,0-2.5,0-.438,0-.594-.09-.584-.561.031-1.557.014-3.116.009-4.674m-1-30.995a.426.426,0,0,1,.475.386c-.03.3-.185.455-.461.454a.42.42,0,1,1-.015-.84m.193,15.27c.132,0,.439-.078.435.419,0,.43-.233.448-.536.418-.286-.028-.668.147-.669-.418,0-.5.313-.412.77-.419M11.682,27.55c0-.276-.017-.492.385-.491,1.029,0,2.059,0,3.088,0h.214l5.977,0c.056,0,.112.048.169.074a38.107,38.107,0,0,1,0,4.153c-.146.142-.329.076-.493.076h-.247c-.157,0-.314,0-.471,0l-3.7-.006c-.414,0-.829,0-1.242.009-.039,0-.064-.008-.1-.009-1,0-2,0-3,0-.433,0-.606-.082-.59-.559.037-1.08.015-2.163.009-3.244M8.174,33.726c0-.233,0-.421.326-.42,1.2,0,2.4,0,3.6-.006.349-.007.7-.01,1.047,0h.855c.034,0,.068.045.1.069a38.429,38.429,0,0,1,0,4.154h0a10.453,10.453,0,0,1-2.3.077c-1.058.018-2.116-.02-3.173-.014-.313,0-.468-.06-.462-.423.02-1.144.009-2.289.006-3.433M5.962,40.059c0-.316.012-.52.433-.52,3.159.006,6.318-.012,9.477-.019a.554.554,0,0,1,.175.065q.137,2.811,0,5.622h0c-.2.135-.42.065-.629.065-2.943,0-5.885-.03-8.828-.014-.524,0-.645-.158-.635-.654.031-1.514.017-3.03.008-4.544M63.941,56.8q-5.193,0-10.387,0c-1.947,0-3.894.03-5.841.027a1.192,1.192,0,0,0-1.2.706c.045.859.275,1.116,1.1,1.2a9.337,9.337,0,0,0,.97.059q7.6.005,15.2.007c.2,0,.48-.117.586.112.094.2-.1.414-.22.58a2.278,2.278,0,0,1-1.91,1.052c-.259,0-.519.006-.779.006H7.741c-.971,0-.855.1-.865-.871,0-.173.013-.347,0-.519-.033-.35.083-.537.467-.5a5.06,5.06,0,0,0,.519,0q17.476,0,34.951,0c.345,0,.69-.05,1.035-.054a1.013,1.013,0,0,0,1.109-1.081,1.084,1.084,0,0,0-.793-.813h0c-12.233,0-24.467-.017-36.7.022a2.662,2.662,0,0,1-2.327-1.178A16.715,16.715,0,0,1,2.091,47.6c-.049-.316.055-.446.372-.423.173.012.347,0,.52,0l48.588-.009c.816-.361.961-.8.529-1.6a2.6,2.6,0,0,0-1.807-.33c-2.207-.029-4.414-.011-6.622-.011h-.719a1.911,1.911,0,0,1,1.962-1.6q5.811,0,11.621,0c.855,0,1.1-.21,1.293-1.04a1.133,1.133,0,0,0-1.285-.914c-2.434.009-4.868-.008-7.3-.015l-3.507.021c-.2,0-.355.011-.4-.279A2.4,2.4,0,0,1,47.6,38.527c4.395-.125,8.791-.036,13.186-.054a.649.649,0,0,1,.2.04c.038.009.075.021.112.033a2.406,2.406,0,0,1,2.183,2.905c-.059.258-.211.227-.376.228-.623,0-1.247.018-1.871,0a1.114,1.114,0,0,0-1.281.912c.188.831.438,1.036,1.292,1.041,1.017,0,2.034.014,3.05-.006.356-.007.516.085.485.468-.033.408-.021.82-.028,1.231.007,3.678.006,7.357.031,11.036,0,.545-.331.445-.64.445" transform="translate(0 -2.882)"/>
        <path id="Trazado_164560" data-name="Trazado 164560" d="M37.053,78.133v0l0,0h0" transform="translate(-15.119 -31.881)"/>
        <path id="Trazado_164561" data-name="Trazado 164561" d="M18.86,85.881c-.008.007-.015.014-.023.02.011.01.017.02.028.03,0-.017,0-.033,0-.049" transform="translate(-7.686 -35.044)"/>
        <path id="Trazado_164562" data-name="Trazado 164562" d="M62.519,78.134v0l0,0h0" transform="translate(-25.51 -31.881)"/>
        <path id="Trazado_164563" data-name="Trazado 164563" d="M49.786,78.134v0l0,0h0" transform="translate(-20.314 -31.881)"/>
        <path id="Trazado_164564" data-name="Trazado 164564" d="M22.165,85.89l-.01,0V85.9s.006-.007.01-.01" transform="translate(-9.04 -35.046)"/>
        <path id="Trazado_164565" data-name="Trazado 164565" d="M104.635,2.215a2.911,2.911,0,0,0-2.82-2.178c-1.771-.048-3.548-.058-5.316.025a2.961,2.961,0,0,0-2.774,2.966A2.988,2.988,0,0,0,96.5,6.064a51.672,51.672,0,0,0,5.509,0,2.717,2.717,0,0,0,.818-.172,3.534,3.534,0,0,0,1.942-2.186V2.41c-.1-.025-.1-.115-.133-.2m-1.943,1.236a.894.894,0,0,1-.908.682c-1.7.065-3.407.084-5.108-.009a1.046,1.046,0,0,1-1-1.073,1.03,1.03,0,0,1,.949-1.045,41.128,41.128,0,0,1,5.161.006.994.994,0,0,1,.9,1.439" transform="translate(-38.244 0)"/>
        <path id="Trazado_164566" data-name="Trazado 164566" d="M66.1,14.155c.925.072,1.859.013,2.789.013v0c.952,0,1.908.057,2.855-.013a3.012,3.012,0,0,0,.02-6,41.962,41.962,0,0,0-5.644,0,3.013,3.013,0,0,0-.02,5.989m.233-4.047a42.028,42.028,0,0,1,5.159.005.993.993,0,0,1,.9,1.438.881.881,0,0,1-.907.68c-1.7.017-3.406.026-5.108-.01a1.061,1.061,0,0,1-.046-2.113" transform="translate(-25.883 -3.293)"/>
        <path id="Trazado_164567" data-name="Trazado 164567" d="M62.326,48.986a6.226,6.226,0,0,1-.04-1.23c0-1.838,0-3.677-.007-5.515,0-.26.1-.708-.231-.709-.407,0-.261.463-.262.726q-.019,5.872,0,11.744c0,.273-.128.756.255.751s.207-.484.239-.759c.03-.256,0-.519.01-.778.036-1.107.387-1.4,1.5-1.247-.646-.074-.745-.482-.671-1.038a8.886,8.886,0,0,0,.022-1.021c-.589-.026-.725-.47-.816-.923" transform="translate(-25.202 -16.947)" fill="#909095"/>
        <path id="Trazado_164568" data-name="Trazado 164568" d="M62.348,48.328c.017-2.317,0-4.634.014-6.951,0-.375-.07-.537-.493-.534s-.427.223-.427.532q.007,6.5,0,12.991c0,.327.037.507.443.517.448.011.491-.2.476-.55-.02-.454-.006-.909,0-1.364,0-1.051.242-1.284,1.3-1.282-1.115-.15-1.466.14-1.5,1.247-.008.259.02.522-.01.778-.032.275.139.755-.239.759s-.253-.478-.255-.751q-.017-5.872,0-11.744c0-.263-.146-.727.262-.726.33,0,.23.449.231.709.011,1.838,0,3.677.007,5.515a6.271,6.271,0,0,0,.04,1.23c.092.452.227.9.816.923a1.288,1.288,0,0,1-.663-1.3" transform="translate(-25.071 -16.666)" fill="#909095"/>
        <path id="Trazado_164569" data-name="Trazado 164569" d="M56.127,71.685c-.227,0-.548-.147-.637.247.432.8.288,1.238-.529,1.6-.208.173-.456.1-.685.1-1.446.007-2.892.015-4.337,0a.933.933,0,0,0-.967.458,4.756,4.756,0,0,1-1.279,1.341,3.475,3.475,0,0,1,1.742,1.057,3.027,3.027,0,0,1-.491,4.377,3.041,3.041,0,1,1-3.427-5.015c.24-.144.5-.262.745-.391-.123-.168-.306-.135-.475-.135q-2.436,0-4.871,0c-.189,0-.395-.035-.519.17v0a3.055,3.055,0,0,1,.314,5.77,3.065,3.065,0,0,1-3.892-1.517A3.026,3.026,0,0,1,38.1,75.782c.207-.115.42-.219.63-.328-.124-.168-.306-.135-.476-.135q-2.435,0-4.87,0c-.189,0-.4-.035-.519.17v0a3.054,3.054,0,0,1,.314,5.77,3.065,3.065,0,0,1-3.891-1.517,3.025,3.025,0,0,1,1.275-3.964c.207-.115.42-.219.629-.328-.123-.168-.306-.135-.475-.135q-2.436,0-4.871,0c-.189,0-.395-.035-.519.17v0a3.055,3.055,0,0,1,.315,5.77,3.065,3.065,0,0,1-3.892-1.517,3.026,3.026,0,0,1,1.275-3.964c.207-.115.42-.219.63-.328-.1-.144-.257-.136-.407-.136H17.828c-.15,0-.3-.012-.413.125a2.052,2.052,0,0,1-.7,2.379.5.5,0,0,0-.218.436c.008.572,0,1.145,0,1.822l.01,0a1.786,1.786,0,0,0,.645-1.229c.1-.716.5-1.044,1.125-.955.553.079.852.527.8,1.2a3.57,3.57,0,0,1-7.115,0c-.05-.678.248-1.125.8-1.2.625-.089,1.029.239,1.125.955A1.931,1.931,0,0,0,14.54,80.1l.022-.02c-.136-.957.345-1.831-.541-2.581a1.853,1.853,0,0,1-.379-2.054c-.151-.178-.358-.123-.546-.123-1.363,0-2.727.018-4.089-.012-.553-.012-.75.2-.691.726a19.8,19.8,0,0,0,1.8,6.7.378.378,0,0,0,.4.248c.173,0,.346,0,.519,0q17.852,0,35.7,0c.272,0,.564-.092.817.1a1.083,1.083,0,0,1,.793.812l1.558,0a1.193,1.193,0,0,1,1.2-.706c1.947,0,3.894-.024,5.841-.027q5.193-.008,10.387,0c.309,0,.644.1.64-.445-.024-3.678-.023-7.357-.031-11.036q-5.906,0-11.813,0M54.65,81.461a3.025,3.025,0,1,1,3.044-3.049,3.034,3.034,0,0,1-3.044,3.049m7.5,0a3.025,3.025,0,1,1,3.076-3.016,3.035,3.035,0,0,1-3.076,3.016" transform="translate(-3.389 -29.24)" fill="#6c7c97"/>
        <path id="Trazado_164570" data-name="Trazado 164570" d="M49.691,92.328a1.014,1.014,0,0,1-1.109,1.081c-.345,0-.69.054-1.035.054q-17.475,0-34.951,0a5.063,5.063,0,0,1-.519,0c-.384-.04-.5.146-.468.5.016.172,0,.346,0,.519.01.969-.106.871.865.871q26.863,0,53.726,0c.259,0,.519-.008.779-.005a2.28,2.28,0,0,0,1.91-1.052c.123-.166.313-.378.22-.581-.106-.23-.386-.112-.586-.112q-7.6-.009-15.2-.007a9.324,9.324,0,0,1-.97-.059c-.829-.088-1.059-.345-1.1-1.2a1.489,1.489,0,0,1-1.558,0" transform="translate(-4.735 -37.675)" fill="#485a76"/>
        <path id="Trazado_164571" data-name="Trazado 164571" d="M77.5,92.331l-1.558,0a1.491,1.491,0,0,0,1.558,0" transform="translate(-30.99 -37.675)" fill="#485a76"/>
        <path id="Trazado_164572" data-name="Trazado 164572" d="M44.821,84.342q-17.956,0-35.911.014a1.1,1.1,0,0,1-1.176-.749A20.282,20.282,0,0,1,6.18,77.529c-.092-.831.182-1.106,1.023-1.119,1.256-.02,2.511-.011,3.767,0a1.208,1.208,0,0,1,.687.149.43.43,0,0,1,.075.1,2.059,2.059,0,0,1,3.685,0,.435.435,0,0,1,.047-.085,1.051,1.051,0,0,1,.677-.168q2.422-.015,4.844,0a1.256,1.256,0,0,1,.626.123.412.412,0,0,1,.095.213,7.478,7.478,0,0,1,1.659.039l0,0a.548.548,0,0,1,.051-.218,1.032,1.032,0,0,1,.622-.151q2.274-.017,4.547,0a1.111,1.111,0,0,1,.564.123.411.411,0,0,1,.088.21,7.5,7.5,0,0,1,1.662.039l0,0a.559.559,0,0,1,.052-.218,1.033,1.033,0,0,1,.622-.151q2.274-.017,4.548,0a1.108,1.108,0,0,1,.564.123.408.408,0,0,1,.088.21,7.494,7.494,0,0,1,1.661.039h0l0,0a.548.548,0,0,1,.051-.218,1.03,1.03,0,0,1,.622-.151q2.273-.017,4.546,0a1.13,1.13,0,0,1,.564.121.47.47,0,0,1,.086.213l1.422-.028a.433.433,0,0,1-.029-.083c.394-.568.941-1,1.344-1.564.189-.263.5-.211.777-.214,1.727-.02,3.453.043,5.18-.033l-48.588.009c-.173,0-.347.011-.52,0-.317-.022-.421.107-.372.423a16.718,16.718,0,0,0,3.044,7.963A2.664,2.664,0,0,0,8.9,84.4c12.233-.04,24.467-.024,36.7-.022a3.156,3.156,0,0,0-.776-.031" transform="translate(-1.434 -30.532)" fill="#5d718d"/>
        <path id="Trazado_164573" data-name="Trazado 164573" d="M55.572,77.624a1.109,1.109,0,0,0-.564-.123q-2.274-.018-4.548,0a1.028,1.028,0,0,0-.622.151.556.556,0,0,0-.051.218c.123-.205.329-.17.519-.17q2.436,0,4.871,0c.169,0,.352-.033.475.135h.009a.408.408,0,0,0-.088-.21" transform="translate(-20.316 -31.621)" fill="#5d718d"/>
        <path id="Trazado_164574" data-name="Trazado 164574" d="M68.3,77.622a1.116,1.116,0,0,0-.564-.121q-2.272-.018-4.546,0a1.023,1.023,0,0,0-.622.151.556.556,0,0,0-.051.218c.123-.206.329-.17.519-.17q2.436,0,4.871,0c.169,0,.352-.033.475.136h0a.458.458,0,0,0-.086-.212" transform="translate(-25.511 -31.621)" fill="#5d718d"/>
        <path id="Trazado_164575" data-name="Trazado 164575" d="M29.817,77.619a1.254,1.254,0,0,0-.626-.122q-2.422-.012-4.844,0a1.056,1.056,0,0,0-.678.168.453.453,0,0,0-.047.085c.014.024.03.046.043.07.109-.137.263-.124.413-.124h5.416c.15,0,.3-.008.407.136h.01a.412.412,0,0,0-.095-.214" transform="translate(-9.639 -31.62)" fill="#5d718d"/>
        <path id="Trazado_164576" data-name="Trazado 164576" d="M42.84,77.624a1.111,1.111,0,0,0-.564-.123q-2.274-.018-4.548,0a1.028,1.028,0,0,0-.622.151.557.557,0,0,0-.052.218c.123-.205.329-.17.519-.17q2.435,0,4.871,0c.169,0,.352-.033.475.135h.008a.411.411,0,0,0-.088-.21" transform="translate(-15.12 -31.621)" fill="#5d718d"/>
        <path id="Trazado_164577" data-name="Trazado 164577" d="M46.607,85.36q-17.852-.008-35.7,0c-.173,0-.346,0-.519,0a.377.377,0,0,1-.4-.248,19.8,19.8,0,0,1-1.8-6.7c-.059-.524.138-.738.691-.726,1.363.03,2.726.008,4.089.012.188,0,.4-.055.546.123.014-.026.03-.049.044-.074a.4.4,0,0,0-.075-.1,1.207,1.207,0,0,0-.687-.149c-1.256-.009-2.511-.018-3.766,0-.842.014-1.115.288-1.023,1.119a20.256,20.256,0,0,0,1.554,6.078,1.1,1.1,0,0,0,1.176.749q17.956-.032,35.911-.014a3.21,3.21,0,0,1,.775.031c-.253-.189-.545-.1-.817-.1" transform="translate(-3.26 -31.617)" fill="#5d718d"/>
        <path id="Trazado_164578" data-name="Trazado 164578" d="M76.91,74.857c-.28,0-.589-.049-.777.214-.4.561-.95,1-1.344,1.564a.446.446,0,0,0,.028.083h0A4.762,4.762,0,0,0,76.1,75.377a.932.932,0,0,1,.967-.458c1.446.019,2.891.011,4.337,0,.23,0,.478.076.685-.1-1.726.076-3.453.013-5.18.033" transform="translate(-30.517 -30.532)" fill="#5d718d"/>
        <path id="Trazado_164579" data-name="Trazado 164579" d="M94.974,63.38c.623.021,1.247.006,1.871,0,.165,0,.317.029.375-.228a2.4,2.4,0,0,0-2.183-2.905q-4.929.012-9.858.025a1.8,1.8,0,0,0-2,1.986c-.014.367,0,.735,0,1.1,2.434.007,4.868.024,7.3.015a1.133,1.133,0,0,1,1.285.915h1.922a1.115,1.115,0,0,1,1.282-.913" transform="translate(-33.941 -24.585)" fill="#909095"/>
        <path id="Trazado_164580" data-name="Trazado 164580" d="M103.024,60.193c.037.012.074.024.111.033-.037-.012-.073-.024-.111-.033" transform="translate(-42.039 -24.562)" fill="#909095"/>
        <path id="Trazado_164581" data-name="Trazado 164581" d="M35.492,62.029c-.484,0-.634.136-.624.623q.044,2.174,0,4.347c-.01.488.14.627.624.623,2.293-.021,4.585-.007,6.878,0h0q.115-2.793,0-5.584c-2.293,0-4.585.017-6.878,0" transform="translate(-14.228 -25.311)" fill="#fde14c"/>
        <path id="Trazado_164582" data-name="Trazado 164582" d="M35.767,71.593c.54-.009,1.08-.008,1.619-.009-.566,0-1.132,0-1.7,0,.029,0,.049.008.079.007" transform="translate(-14.563 -29.21)" fill="#fde14c"/>
        <path id="Trazado_164583" data-name="Trazado 164583" d="M45.967,71.592c.151.007.3.008.452,0h-.452" transform="translate(-18.757 -29.213)" fill="#fde14c"/>
        <path id="Trazado_164584" data-name="Trazado 164584" d="M35.566,61.911c-.02,0-.035,0-.053,0H36.5c-.311,0-.622,0-.934,0" transform="translate(-14.491 -25.263)" fill="#fde14c"/>
        <path id="Trazado_164585" data-name="Trazado 164585" d="M27.11,71.5Z" transform="translate(-11.062 -29.176)" fill="#4fcbd5"/>
        <path id="Trazado_164586" data-name="Trazado 164586" d="M16,62.011c-.545-.007-.7.157-.687.694.035,1.428.031,2.857,0,4.286-.009.483.132.631.621.627,2.12-.019,4.241,0,6.362.008q.137-2.811,0-5.622c-2.1.007-4.2.031-6.3.007" transform="translate(-6.248 -25.301)" fill="#4fcbd5"/>
        <path id="Trazado_164587" data-name="Trazado 164587" d="M82.035,69.647a2.732,2.732,0,0,1,.709-.047q5.216,0,10.432,0a1.288,1.288,0,0,1,.985.211c.007-.411-.005-.823.028-1.231.031-.382-.129-.474-.485-.468-1.016.02-2.033.011-3.05.006-.855,0-1.1-.21-1.293-1.04a2.1,2.1,0,0,1-1.923,0c-.188.83-.438,1.039-1.293,1.04q-5.811,0-11.621,0a1.911,1.911,0,0,0-1.962,1.6h.719c2.207,0,4.415-.018,6.622.012a2.592,2.592,0,0,1,1.807.329c-.126-.32.123-.363.324-.418" transform="translate(-29.61 -27.372)" fill="#5e728d"/>
        <path id="Trazado_164588" data-name="Trazado 164588" d="M88.629,71.552q5.906-.012,11.814,0a1.287,1.287,0,0,0-.984-.211q-5.217-.008-10.432,0a2.682,2.682,0,0,0-.709.047c-.2.054-.45.1-.324.418.088-.4.41-.247.637-.248" transform="translate(-35.892 -29.107)" fill="#5e728d"/>
        <path id="Trazado_164589" data-name="Trazado 164589" d="M99.616,67.08H97.693a2.1,2.1,0,0,0,1.923,0" transform="translate(-39.864 -27.372)" fill="#5e728d"/>
        <path id="Trazado_164590" data-name="Trazado 164590" d="M25.61,40.841h0" transform="translate(-10.447 -16.665)" fill="#96e0bd"/>
        <path id="Trazado_164591" data-name="Trazado 164591" d="M25.613,40.953c-.482-.005-.643.132-.625.622.036.972.036,1.947,0,2.919-.018.49.143.627.625.622,2.033-.022,4.065-.007,6.1,0a38.106,38.106,0,0,0,0-4.153c-2.033,0-4.065.018-6.1,0" transform="translate(-10.196 -16.711)" fill="#96e0bd"/>
        <path id="Trazado_164592" data-name="Trazado 164592" d="M34.772,48.1H34.3c.157,0,.314,0,.471,0" transform="translate(-13.997 -19.629)" fill="#96e0bd"/>
        <path id="Trazado_164593" data-name="Trazado 164593" d="M25.876,48.1c.414-.011.829-.008,1.243-.009H25.777c.036,0,.061.009.1.008" transform="translate(-10.518 -19.624)" fill="#96e0bd"/>
        <path id="Trazado_164594" data-name="Trazado 164594" d="M42.323,58.649h-.245c.082,0,.163,0,.245,0" transform="translate(-17.17 -23.931)" fill="#f0c240"/>
        <path id="Trazado_164595" data-name="Trazado 164595" d="M33.2,58.638c.339-.005.677,0,1.016,0H33.157c.016,0,.026,0,.043,0" transform="translate(-13.53 -23.925)" fill="#f0c240"/>
        <path id="Trazado_164596" data-name="Trazado 164596" d="M33.076,51.494c-.481-.005-.644.128-.626.62.036.994.028,1.99,0,2.985-.011.43.139.555.559.552,2.055-.015,4.11,0,6.165,0a39.637,39.637,0,0,0,0-4.151c-2.033,0-4.066.018-6.1,0" transform="translate(-13.241 -21.012)" fill="#f0c240"/>
        <path id="Trazado_164597" data-name="Trazado 164597" d="M43.705,51.436a.724.724,0,0,0,.064.038c-.021-.011-.043-.025-.064-.038" transform="translate(-17.834 -20.989)" fill="#f0c240"/>
        <line id="Línea_632" data-name="Línea 632" transform="translate(16.048 42.325)" fill="#06c0b6"/>
        <path id="Trazado_164598" data-name="Trazado 164598" d="M10.695,67.632c2.943-.017,5.885.009,8.828.014.209,0,.432.071.629-.064-1.661.1-3.324.02-4.985.045-.453.007-.907,0-1.361,0-.711,0-.806-.069-.817-.749q-.036-2.107,0-4.215c.011-.666.111-.748.752-.749q2.983,0,5.964,0a1,1,0,0,1,.448.045.569.569,0,0,0-.175-.065c-3.159.007-6.318.025-9.477.02-.42,0-.434.2-.433.519.009,1.515.024,3.03-.008,4.544-.01.5.111.657.635.654" transform="translate(-4.105 -25.256)" fill="#06c0b6"/>
        <path id="Trazado_164599" data-name="Trazado 164599" d="M21.712,61.925q-2.983,0-5.965,0c-.64,0-.741.083-.752.749q-.035,2.107,0,4.215c.012.681.107.748.817.75.454,0,.907.006,1.361,0,1.662-.025,3.324.058,4.985-.045h0c-2.12-.007-4.241-.027-6.362-.008-.489,0-.63-.143-.62-.627.029-1.428.033-2.857,0-4.285-.013-.537.141-.7.687-.694,2.1.024,4.2,0,6.3-.007a.988.988,0,0,0-.447-.046" transform="translate(-6.112 -25.267)" fill="#06c0b6"/>
        <path id="Trazado_164600" data-name="Trazado 164600" d="M31.06,67.645c.833,0,1.668,0,2.5,0-.473-.013-.678-.2-.681-.686-.008-1.451-.014-2.9,0-4.352,0-.389.095-.671.573-.687-.864,0-1.728,0-2.592,0-.408,0-.38.223-.379.493,0,1.558.021,3.117-.01,4.674-.009.471.146.563.584.561" transform="translate(-12.436 -25.265)" fill="#f8cb4e"/>
        <path id="Trazado_164601" data-name="Trazado 164601" d="M43.067,61.922a.433.433,0,0,1,.246.065.5.5,0,0,0-.17-.071H37.18c1.962.011,3.925,0,5.887.005" transform="translate(-15.171 -25.265)" fill="#f8cb4e"/>
        <path id="Trazado_164602" data-name="Trazado 164602" d="M38.558,71.58l4.386,0c-.14-.007-.279-.013-.419-.012-1.322.008-2.645,0-3.967.008" transform="translate(-15.734 -29.205)" fill="#f8cb4e"/>
        <path id="Trazado_164603" data-name="Trazado 164603" d="M47.21,71.47a1.846,1.846,0,0,1-.478.074c.16,0,.336.059.478-.074" transform="translate(-19.069 -29.164)" fill="#f8cb4e"/>
        <path id="Trazado_164604" data-name="Trazado 164604" d="M34.537,62.6c-.018,1.451-.012,2.9,0,4.353,0,.487.208.673.681.685.566,0,1.132,0,1.7,0,1.322,0,2.645,0,3.967-.008.139,0,.279.006.419.012h.452a1.871,1.871,0,0,0,.478-.074h0c-2.293,0-4.585-.017-6.878,0-.484,0-.634-.136-.624-.623q.044-2.173,0-4.347c-.01-.487.14-.627.624-.623,2.293.021,4.585.007,6.878,0a.433.433,0,0,0-.246-.066c-1.962,0-3.925.006-5.887-.005H35.11c-.478.017-.568.3-.573.687" transform="translate(-14.088 -25.265)" fill="#f8cb4e"/>
        <path id="Trazado_164605" data-name="Trazado 164605" d="M95.094,38.316c-.281.037-.563.058-.845.072a5.873,5.873,0,0,0,.845-.072" transform="translate(-38.459 -15.635)" fill="#f6f2e1"/>
        <path id="Trazado_164606" data-name="Trazado 164606" d="M92.212,33.757c.519,0,1.038.008,1.556.012.176-.114.063-.273.054-.407-.091-1.459-.2-2.917-.285-4.376-.112-1.925-.1-1.926-2.1-1.728-.124,1.714-.211,3.432-.386,5.14-.129,1.264-.1,1.357,1.16,1.359" transform="translate(-37.133 -11.089)" fill="#f6f2e1"/>
        <path id="Trazado_164607" data-name="Trazado 164607" d="M34.944,58.627l4.223.008c-.257-.007-.515-.02-.771-.018-1.151.012-2.3,0-3.452.009" transform="translate(-14.259 -23.919)" fill="#e1ad2b"/>
        <path id="Trazado_164608" data-name="Trazado 164608" d="M27.777,55.668c.98,0,1.961,0,2.941,0-.418-.007-.593-.191-.6-.593-.025-1.036-.031-2.072,0-3.108.011-.316.081-.595.513-.592,2.093.012,4.186-.006,6.279.013a.108.108,0,0,1,.051.019.207.207,0,0,0-.1-.04c-3.092,0-6.185.017-9.278.011-.4,0-.393.207-.391.489.007,1.081.028,2.164-.009,3.244-.016.482.168.558.595.556" transform="translate(-11.091 -20.961)" fill="#e1ad2b"/>
        <path id="Trazado_164609" data-name="Trazado 164609" d="M42.719,58.595c.185,0,.39.078.555-.081a3.3,3.3,0,0,1-.782.08h.227" transform="translate(-17.339 -23.877)" fill="#e1ad2b"/>
        <path id="Trazado_164610" data-name="Trazado 164610" d="M32.64,51.382c-.431,0-.5.276-.512.593-.034,1.035-.028,2.071,0,3.107.01.4.185.585.6.593h1.058c1.15,0,2.3,0,3.452-.009.256,0,.514.011.771.018h.245a3.361,3.361,0,0,0,.782-.08c-2.055,0-4.11-.014-6.165,0-.42,0-.57-.122-.559-.552.026-.994.033-1.991,0-2.985-.018-.492.146-.625.626-.62,2.033.022,4.066.006,6.1,0-.021-.011-.043-.025-.064-.038a.1.1,0,0,0-.051-.019c-2.093-.019-4.187,0-6.28-.013" transform="translate(-13.1 -20.967)" fill="#e1ad2b"/>
        <path id="Trazado_164611" data-name="Trazado 164611" d="M35.343,48.052c.165,0,.347.066.493-.076a3.68,3.68,0,0,1-.74.076h.247" transform="translate(-14.321 -19.577)" fill="#83dab0"/>
        <path id="Trazado_164612" data-name="Trazado 164612" d="M32.11,40.91c-.056-.026-.112-.074-.169-.074l-5.977,0c1.988.013,3.977,0,5.965.008a.433.433,0,0,1,.181.063" transform="translate(-10.595 -16.663)" fill="#83dab0"/>
        <path id="Trazado_164613" data-name="Trazado 164613" d="M20.308,45.137c1,0,2,0,3,0-.457-.015-.658-.2-.661-.684-.006-.975-.018-1.949.005-2.924.009-.355.047-.686.552-.685-1.029,0-2.058,0-3.088,0-.4,0-.387.214-.385.491.006,1.081.028,2.164-.009,3.244-.017.477.157.56.589.558" transform="translate(-8.046 -16.666)" fill="#83dab0"/>
        <path id="Trazado_164614" data-name="Trazado 164614" d="M28.044,48.087l3.7.006c-.242-.007-.483-.017-.724-.014-.993.011-1.987,0-2.979.008" transform="translate(-11.443 -19.619)" fill="#83dab0"/>
        <path id="Trazado_164615" data-name="Trazado 164615" d="M24.659,41.527c-.024.974-.012,1.949-.006,2.924,0,.48.2.669.662.684h1.342c.993,0,1.987,0,2.98-.008.241,0,.482.007.724.014h.471a3.679,3.679,0,0,0,.739-.075c-2.033,0-4.065-.018-6.1,0-.482.005-.642-.132-.625-.622.035-.972.035-1.947,0-2.919-.018-.49.142-.627.625-.622,2.033.022,4.065.006,6.1,0a.442.442,0,0,0-.181-.063c-1.989-.007-3.977.006-5.966-.007h-.214c-.506,0-.543.331-.552.685" transform="translate(-10.056 -16.666)" fill="#83dab0"/>
        <path id="Trazado_164616" data-name="Trazado 164616" d="M18.679,51.5c-.365-.006-.494.124-.488.489q.025,1.588,0,3.177c-.006.365.123.495.488.489.951-.015,1.9,0,2.853,0a38.582,38.582,0,0,0,0-4.154c-.951,0-1.9.015-2.853,0" transform="translate(-7.423 -21.014)" fill="#fd715a"/>
        <path id="Trazado_164617" data-name="Trazado 164617" d="M20.448,51.382l1.046,0c-.349-.008-.7-.005-1.046,0" transform="translate(-8.344 -20.964)" fill="#fd715a"/>
        <path id="Trazado_164618" data-name="Trazado 164618" d="M23.834,58.516h0" transform="translate(-9.725 -23.877)" fill="#fd715a"/>
        <path id="Trazado_164619" data-name="Trazado 164619" d="M81.074,60.308a.783.783,0,0,1,.542-.166q5.259,0,10.518,0a.3.3,0,0,1,.076.012.657.657,0,0,0-.2-.04c-4.4.018-8.792-.071-13.187.054a2.4,2.4,0,0,0-2.266,2.874c.047.289.2.281.4.279l3.507-.021a2.936,2.936,0,0,1,.6-3" transform="translate(-31.226 -24.525)" fill="#7b7b81"/>
        <path id="Trazado_164620" data-name="Trazado 164620" d="M83.06,62.228a1.8,1.8,0,0,1,2-1.986q4.929-.011,9.858-.025c-.037-.009-.074-.022-.111-.034a.321.321,0,0,0-.076-.012q-5.259-.007-10.518,0a.779.779,0,0,0-.542.166,2.936,2.936,0,0,0-.6,3c0-.368-.015-.736,0-1.1" transform="translate(-33.818 -24.552)" fill="#7b7b81"/>
        <path id="Trazado_164621" data-name="Trazado 164621" d="M88.192,33.857c1.155-.037,2.312.063,3.467.006-.554.015-1.109-.02-1.663-.015-.4,0-.378-.352-.4-.622a15.131,15.131,0,0,1,.133-2.126c.057-1.031.073-2.066.207-3.093a1.314,1.314,0,0,1,.239-.726c-.452-.013-.906,0-1.354-.047-.4-.04-.52.128-.542.5q-.169,2.875-.372,5.748c-.017.237.015.38.287.372" transform="translate(-35.869 -11.111)" fill="#e9e0c2"/>
        <path id="Trazado_164622" data-name="Trazado 164622" d="M90.885,31.136a15.046,15.046,0,0,0-.133,2.126c.023.27.005.625.4.622.553,0,1.109.03,1.663.016.282-.014.563-.035.844-.072-.519,0-1.037-.011-1.556-.012-1.256,0-1.289-.1-1.159-1.359.175-1.708.261-3.426.385-5.14a1.318,1.318,0,0,0-.239.726c-.133,1.026-.15,2.062-.207,3.093" transform="translate(-37.026 -11.147)" fill="#e9e0c2"/>
        <path id="Trazado_164623" data-name="Trazado 164623" d="M14.262,55.67c1.058-.005,2.116.033,3.173.014a10.451,10.451,0,0,0,2.3-.077,27.839,27.839,0,0,1-3.1.061c-.319.008-.4-.239-.41-.482q-.078-1.655,0-3.311c.011-.243.091-.49.41-.482.366.009.733,0,1.1-.005-1.2,0-2.4.008-3.6.006-.324,0-.327.188-.327.42,0,1.144.015,2.289-.005,3.433-.007.363.149.425.462.423" transform="translate(-5.631 -20.969)" fill="#f35a4a"/>
        <path id="Trazado_164624" data-name="Trazado 164624" d="M23.834,58.515" transform="translate(-9.726 -23.877)" fill="#f35a4a"/>
        <path id="Trazado_164625" data-name="Trazado 164625" d="M23.071,51.382h-.855a8.53,8.53,0,0,1,.958.068c-.034-.024-.068-.069-.1-.069" transform="translate(-9.065 -20.967)" fill="#f35a4a"/>
        <path id="Trazado_164626" data-name="Trazado 164626" d="M18.28,51.391c-.32-.008-.4.239-.41.482q-.078,1.655,0,3.311c.011.244.091.491.41.482a27.557,27.557,0,0,0,3.1-.061h0c-.951,0-1.9-.015-2.852,0-.365.006-.494-.124-.488-.489q.025-1.588,0-3.177c-.006-.365.123-.495.488-.489.951.015,1.9,0,2.853,0a8.53,8.53,0,0,0-.958-.068l-1.047,0c-.367.008-.733.015-1.1.005" transform="translate(-7.276 -20.967)" fill="#f35a4a"/>
        <path id="Trazado_164627" data-name="Trazado 164627" d="M87.366,54.568c-.531,0-.7.135-.7.682-.009.578.255.614.7.613,2.747-.011,5.494,0,8.241,0a4.106,4.106,0,0,0,0-1.291c-2.747,0-5.494.018-8.241,0" transform="translate(-35.362 -22.267)" fill="#aec2da"/>
        <path id="Trazado_164628" data-name="Trazado 164628" d="M91.165,47.1c-.652-.04-.856.2-.759.8a2.354,2.354,0,0,1,0,.323.748.748,0,0,0,.851.823h2.783a6.744,6.744,0,0,0-.161-1.946c-.906,0-1.814.054-2.716,0" transform="translate(-36.881 -19.218)" fill="#f6f2e1"/>
        <path id="Trazado_164629" data-name="Trazado 164629" d="M60.692,71.594c.224.007.448.012.671.015-.224-.006-.448-.011-.671-.015" transform="translate(-24.766 -29.214)" fill="#b2c6df"/>
        <path id="Trazado_164630" data-name="Trazado 164630" d="M59.286,68.191c-.358,0-.481.113-.495.481-.056,1.448-.069,1.447,1.4,1.448.691,0,1.382.005,2.072.008a9.081,9.081,0,0,0,0-1.94c-.993,0-1.985.017-2.978,0" transform="translate(-23.983 -27.824)" fill="#b2c6df"/>
        <path id="Trazado_164631" data-name="Trazado 164631" d="M62.879,68.051c.142.006.284.011.426.021-.142-.01-.284-.017-.426-.021" transform="translate(-25.658 -27.768)" fill="#b2c6df"/>
        <path id="Trazado_164632" data-name="Trazado 164632" d="M87.4,49.4q2.5-.008,4.99,0c.366,0,.384-.183.3-.456a.9.9,0,0,1-.664.192c-.668,0-1.336.017-2,0a1.336,1.336,0,0,1-1.076-1.991.369.369,0,0,1,.366-.207A30.693,30.693,0,0,1,92.528,47a21.793,21.793,0,0,0-3.472-.061c-.607,0-1.444-.295-1.768.161S87.13,48.351,87.08,49c0,.022,0,.044,0,.065-.043.255.073.342.321.342" transform="translate(-35.528 -19.117)" fill="#e9e0c2"/>
        <path id="Trazado_164633" data-name="Trazado 164633" d="M90.488,46.993a.37.37,0,0,0-.366.207A1.336,1.336,0,0,0,91.2,49.191c.668.021,1.336.005,2,0A.9.9,0,0,0,93.866,49H91.083a.748.748,0,0,1-.851-.824,2.45,2.45,0,0,0,0-.323c-.1-.6.107-.842.759-.8.9.056,1.811.007,2.716,0a30.691,30.691,0,0,0-3.217-.063" transform="translate(-36.704 -19.171)" fill="#e9e0c2"/>
        <path id="Trazado_164634" data-name="Trazado 164634" d="M82.439,55.876c3.55-.03,7.1,0,10.65,0,.184,0,.39.082.553-.083a.942.942,0,0,1-.568.065q-3.887.006-7.774,0c-.694,0-1.005-.508-.722-1.16a.39.39,0,0,1,.4-.265c2.869.022,5.739-.047,8.608.038.02,0,.038.019.057.029-.163-.165-.369-.083-.553-.083-3.55,0-7.1.028-10.65,0-.6,0-.6.261-.588.693.017.408-.086.765.588.759" transform="translate(-33.398 -22.198)" fill="#93aecd"/>
        <path id="Trazado_164635" data-name="Trazado 164635" d="M86.788,54.458a.39.39,0,0,0-.4.265c-.284.652.027,1.16.721,1.16q3.887,0,7.774,0a.948.948,0,0,0,.568-.065c-2.747,0-5.494-.011-8.241,0-.45,0-.714-.034-.705-.613.009-.547.173-.686.705-.682,2.747.022,5.494.007,8.241,0-.02-.01-.038-.028-.058-.029-2.869-.085-5.739-.016-8.608-.038" transform="translate(-35.209 -22.219)" fill="#93aecd"/>
        <path id="Trazado_164636" data-name="Trazado 164636" d="M89.155,21.966a22.3,22.3,0,0,0,3.2-.08c-.408,0-.817-.02-1.224,0-.352.015-.491-.162-.421-.468a8.958,8.958,0,0,0,.124-1.919c0-.255.141-.33.37-.33.322,0,.644-.017.966-.025a23.068,23.068,0,0,0-2.832-.054c-.2-.007-.317.064-.328.294-.037.752-.087,1.5-.136,2.257-.013.206.05.34.281.329" transform="translate(-36.265 -7.78)" fill="#ef5849"/>
        <path id="Trazado_164637" data-name="Trazado 164637" d="M56.182,68.06c-.2,0-.256.109-.252.285.012.56-.156,1.222.088,1.65.209.368.915.078,1.4.134a3.948,3.948,0,0,0,.648.013c.222-.011.444-.009.667-.005l-.857-.029c-.653-.02-.446-.64-.446-1.017s-.208-1,.445-1.017c.716-.022,1.434-.056,2.152-.034-1.28-.052-2.563.046-3.843.019" transform="translate(-22.804 -27.758)" fill="#9ab4d0"/>
        <path id="Trazado_164638" data-name="Trazado 164638" d="M61.826,71.556a7.677,7.677,0,0,0,1.683-.091,11.208,11.208,0,0,1-1.683.091" transform="translate(-25.228 -29.161)" fill="#9ab4d0"/>
        <path id="Trazado_164639" data-name="Trazado 164639" d="M63.6,68.087c.212.014.423.03.635.06-.211-.026-.423-.045-.635-.06" transform="translate(-25.951 -27.783)" fill="#9ab4d0"/>
        <path id="Trazado_164640" data-name="Trazado 164640" d="M58.915,68.08c-.653.021-.445.64-.445,1.018s-.208,1,.445,1.017l.857.029q.336.005.671.014a11.29,11.29,0,0,0,1.683-.091c-.69,0-1.381-.008-2.071-.008-1.47,0-1.457,0-1.4-1.449.014-.368.137-.486.495-.481.993.014,1.985,0,2.978,0-.211-.03-.423-.046-.635-.06-.141-.01-.284-.015-.426-.021-.717-.022-1.436.011-2.151.034" transform="translate(-23.846 -27.763)" fill="#9ab4d0"/>
        <path id="Trazado_164641" data-name="Trazado 164641" d="M92.425,20.111c.007.086-.006-.021,0,.064.043.452-.23.937-.046,1.331.228.49.832.117,1.225.319a.631.631,0,0,1,.154.112,10.649,10.649,0,0,0-.186-2.745.563.563,0,0,1-.521.193c-.532-.026-.668.267-.629.726" transform="translate(-37.67 -7.831)" fill="#fc7059"/>
        <path id="Trazado_164642" data-name="Trazado 164642" d="M92.458,19.218c-.228,0-.367.076-.37.33a8.964,8.964,0,0,1-.124,1.92c-.07.305.069.482.421.467.407-.017.816,0,1.225,0a.636.636,0,0,0-.155-.113c-.392-.2-1,.171-1.225-.318-.184-.394.089-.88.046-1.331-.008-.086,0,.022,0-.064-.038-.459.1-.752.63-.726a.564.564,0,0,0,.521-.192c-.322.009-.644.024-.966.025" transform="translate(-37.519 -7.832)" fill="#fc7059"/>
        <path id="Trazado_164643" data-name="Trazado 164643" d="M96.068,43.592h0" transform="translate(-39.199 -17.788)" fill="#ef6a54"/>
        <path id="Trazado_164644" data-name="Trazado 164644" d="M94.328,41.719c.315.014.63.029.945.065a7.668,7.668,0,0,0-.945-.065" transform="translate(-38.491 -17.024)" fill="#ef6a54"/>
        <path id="Trazado_164645" data-name="Trazado 164645" d="M90.626,42.386c-.012.574.351.483.69.484l2.532,0a1.437,1.437,0,0,0-.086-1.044c-.8,0-1.6.01-2.4,0-.4,0-.721,0-.733.556" transform="translate(-36.98 -17.068)" fill="#ef6a54"/>
        <path id="Trazado_164646" data-name="Trazado 164646" d="M88.26,42.889c.323,0,.646.009.97,0a25.986,25.986,0,0,0,3.333-.074,25.484,25.484,0,0,1-2.969.057c-.362.008-.406-.271-.405-.54,0-.334.121-.619.512-.613.611.01,1.224-.024,1.834-.012-1.229-.053-2.46.025-3.69,0-.17,0-.253.083-.3.267-.17.727-.034.914.712.915" transform="translate(-35.698 -17.011)" fill="#f35a4a"/>
        <path id="Trazado_164647" data-name="Trazado 164647" d="M96.07,43.592" transform="translate(-39.202 -17.788)" fill="#f35a4a"/>
        <path id="Trazado_164648" data-name="Trazado 164648" d="M90.875,41.73c-.391-.006-.511.278-.512.613,0,.269.044.549.405.54a25.484,25.484,0,0,0,2.969-.057h0l-2.532,0c-.339,0-.7.09-.69-.484.012-.555.335-.561.733-.556.8.008,1.6,0,2.4,0-.314-.036-.63-.051-.945-.065-.611-.011-1.223.022-1.834.012" transform="translate(-36.873 -17.022)" fill="#f35a4a"/>
        <path id="Trazado_164649" data-name="Trazado 164649" d="M28.505,37.019c.3.03.532.012.536-.417,0-.5-.3-.423-.434-.42-.458.007-.77-.081-.77.42,0,.565.382.389.668.417" transform="translate(-11.359 -14.762)" fill="#5c6c84"/>
        <path id="Trazado_164650" data-name="Trazado 164650" d="M28.536,11.228c.275,0,.431-.15.461-.454a.427.427,0,0,0-.476-.386.42.42,0,1,0,.015.84" transform="translate(-11.467 -4.239)" fill="#667690"/>
        <path id="Trazado_164651" data-name="Trazado 164651" d="M101.314,4.771a2.167,2.167,0,0,1-1.874-.963c-.258-.4-.143-.463.257-.461,1.146.007,2.293,0,3.439-.005a41.128,41.128,0,0,0-5.161-.006,1.031,1.031,0,0,0-.95,1.045,1.046,1.046,0,0,0,1,1.073c1.7.093,3.406.074,5.109.009a.894.894,0,0,0,.908-.682c-.909,0-1.818.027-2.725-.009" transform="translate(-39.592 -1.329)" fill="#48d8bd"/>
        <path id="Trazado_164652" data-name="Trazado 164652" d="M104.969,3.4h0c-.221.238-.517.188-.791.192-.779.012-1.558,0-2.336.009-.125,0-.283-.011-.319.15-.025.108.065.2.143.278a2.214,2.214,0,0,0,1.529.613c.627.023,1.255,0,1.882.012.275.006.57-.044.8.185a.994.994,0,0,0-.9-1.439" transform="translate(-41.425 -1.387)" fill="#4dc9d2"/>
        <path id="Trazado_164653" data-name="Trazado 164653" d="M104.813,4.653c-.627-.013-1.255.011-1.882-.012a2.211,2.211,0,0,1-1.529-.613c-.078-.076-.168-.169-.143-.278.036-.161.195-.149.32-.15.778-.012,1.557,0,2.336-.009.275,0,.57.046.791-.192-1.146,0-2.292.012-3.439.006-.4,0-.515.064-.257.461a2.162,2.162,0,0,0,1.873.963c.907.036,1.817.009,2.725.009-.226-.229-.52-.179-.8-.185" transform="translate(-41.161 -1.387)" fill="#4dc9d2"/>
        <path id="Trazado_164654" data-name="Trazado 164654" d="M67.728,13.574c1.7.036,3.4.027,5.107.009a.88.88,0,0,0,.908-.679c-.908,0-1.817.027-2.724-.009a2.164,2.164,0,0,1-1.873-.963c-.257-.4-.146-.464.257-.462,1.146.007,2.292,0,3.437,0a41.9,41.9,0,0,0-5.159-.005,1.06,1.06,0,0,0,.046,2.113" transform="translate(-27.23 -4.645)" fill="#49dabe"/>
        <path id="Trazado_164655" data-name="Trazado 164655" d="M73.882,11.715c-.778.012-1.557,0-2.336.009-.125,0-.284-.011-.319.15-.024.108.065.2.143.278a2.211,2.211,0,0,0,1.529.613c.627.023,1.254,0,1.882.012.275.006.569-.044.8.185a.994.994,0,0,0-.9-1.438c-.221.237-.517.188-.791.192" transform="translate(-29.063 -4.702)" fill="#4ec9d2"/>
        <path id="Trazado_164656" data-name="Trazado 164656" d="M70.716,11.989a2.164,2.164,0,0,0,1.873.963c.907.036,1.816.009,2.724.009-.226-.228-.52-.179-.8-.185-.627-.013-1.255.011-1.882-.012a2.209,2.209,0,0,1-1.528-.613c-.078-.076-.167-.169-.143-.278.036-.161.194-.149.319-.15.778-.012,1.557,0,2.336-.009.275,0,.57.046.791-.192-1.145,0-2.291.012-3.437,0-.4,0-.514.066-.257.462" transform="translate(-28.799 -4.702)" fill="#4ec9d2"/>
        <path id="Trazado_164657" data-name="Trazado 164657" d="M18.995,81.577c0-.82-.22-1.672.573-2.339a1.516,1.516,0,0,0,.422-1.379,1.209,1.209,0,0,1-.014-.524c-.131-.005-.192-.128-.268-.218a1.828,1.828,0,0,0-3.067,0c-.077.091-.139.215-.272.218a.953.953,0,0,1,0,.423,1.977,1.977,0,0,0,.636,1.755,3.293,3.293,0,0,1,.286,2.344.422.422,0,0,1-.085.107c0,.017,0,.033,0,.049-.011-.01-.017-.02-.027-.03-.123.085-.244-.024-.351-.134a2.342,2.342,0,0,1-.482-1.116c-.154-.588-.488-.823-.964-.711a.868.868,0,0,0-.581,1.086A3.188,3.188,0,0,0,16.8,83.794a3.358,3.358,0,0,0,4.718-2.522,1.394,1.394,0,0,0,.02-.579.742.742,0,0,0-.67-.684.718.718,0,0,0-.829.564,3.463,3.463,0,0,1-.418,1.15c-.1.139-.216.312-.4.277a.2.2,0,0,1-.057-.028l-.01.01v-.015c-.136-.072-.156-.246-.155-.39" transform="translate(-6.035 -31.128)"/>
        <path id="Trazado_164658" data-name="Trazado 164658" d="M18.231,82.578a3.294,3.294,0,0,0-.286-2.344,1.976,1.976,0,0,1-.636-1.755.953.953,0,0,0,0-.423.213.213,0,0,1-.081-.005A1.852,1.852,0,0,0,17.6,80.1c.886.75.406,1.624.542,2.581a.4.4,0,0,0,.085-.107" transform="translate(-6.973 -31.849)"/>
        <path id="Trazado_164659" data-name="Trazado 164659" d="M22.87,78.58a1.516,1.516,0,0,1-.422,1.379c-.793.667-.568,1.519-.573,2.339,0,.143.02.318.155.39,0-.678,0-1.25,0-1.822a.5.5,0,0,1,.218-.437,2.051,2.051,0,0,0,.7-2.379.212.212,0,0,1-.085.006,1.215,1.215,0,0,0,.014.524" transform="translate(-8.916 -31.849)"/>
        <path id="Trazado_164660" data-name="Trazado 164660" d="M19.5,84.129a3.478,3.478,0,0,0,.419-1.15.717.717,0,0,1,.828-.564.741.741,0,0,1,.67.684,1.4,1.4,0,0,1-.02.58A3.358,3.358,0,0,1,16.677,86.2a3.192,3.192,0,0,1-1.992-2.686.869.869,0,0,1,.582-1.086c.476-.111.809.124.963.712a2.346,2.346,0,0,0,.482,1.115c.107.111.228.22.351.135a1.934,1.934,0,0,1-.642-1.242c-.1-.716-.5-1.043-1.125-.954-.553.079-.852.527-.8,1.2a3.57,3.57,0,0,0,7.115,0c.05-.678-.248-1.126-.8-1.2-.624-.089-1.029.239-1.125.954a1.785,1.785,0,0,1-.645,1.229.221.221,0,0,0,.057.028c.188.035.3-.139.4-.277" transform="translate(-5.912 -33.534)"/>
        <path id="Trazado_164661" data-name="Trazado 164661" d="M17.7,77a1.829,1.829,0,0,1,3.067,0c.076.091.137.214.268.219a.512.512,0,0,1,.042-.076,2.06,2.06,0,0,0-3.686,0,.4.4,0,0,1,.037.079c.133,0,.195-.127.272-.218" transform="translate(-7.098 -31.013)"/>
        <path id="Trazado_164662" data-name="Trazado 164662" d="M17.365,77.926c-.014.025-.031.048-.044.074a.213.213,0,0,0,.081.005.431.431,0,0,0-.036-.079" transform="translate(-7.068 -31.798)"/>
        <path id="Trazado_164663" data-name="Trazado 164663" d="M23.551,78.007A.213.213,0,0,0,23.636,78c-.013-.025-.029-.046-.043-.07a.512.512,0,0,0-.042.076" transform="translate(-9.61 -31.8)"/>
        <path id="Trazado_164664" data-name="Trazado 164664" d="M71.043,78.054c.022.226-.271.283-.426.375a3.2,3.2,0,0,0-1.32,1.387,2.857,2.857,0,1,0,5.175,2.423,2.89,2.89,0,0,0-1.343-3.8c-.233-.113-.549-.126-.665-.413a1.246,1.246,0,0,1-1.422.028m1.934,2.98c0,.623-.443,1.019-1.17,1.048a1.048,1.048,0,0,1,0-2.1c.727.028,1.17.425,1.17,1.048" transform="translate(-28.165 -31.839)"/>
        <path id="Trazado_164665" data-name="Trazado 164665" d="M73,78.437a2.874,2.874,0,1,1-2.56,5.148,2.854,2.854,0,0,1-1.273-3.77,3.211,3.211,0,0,1,1.32-1.387c.156-.092.449-.15.426-.375l-.005,0c-.249.13-.5.247-.745.391a3.041,3.041,0,1,0,3.918.638,3.48,3.48,0,0,0-1.742-1.057l0,0c.115.287.432.3.665.413" transform="translate(-28.038 -31.837)"/>
        <path id="Trazado_164666" data-name="Trazado 164666" d="M73.857,78.024v0l-1.422.028v0a1.247,1.247,0,0,0,1.422-.028" transform="translate(-29.557 -31.837)"/>
        <path id="Trazado_164667" data-name="Trazado 164667" d="M72.432,78.069h0l.005,0v0" transform="translate(-29.554 -31.856)"/>
        <path id="Trazado_164668" data-name="Trazado 164668" d="M74.838,78.025l0,0h0v0" transform="translate(-30.537 -31.837)"/>
        <path id="Trazado_164669" data-name="Trazado 164669" d="M59.972,78.111a1.878,1.878,0,0,1-1.66-.034c.009.189-.231.261-.375.344a3.268,3.268,0,0,0-1.222,1.131,2.859,2.859,0,0,0,.94,3.964,2.881,2.881,0,1,0,2.873-4.994c-.186-.109-.556-.118-.553-.409h0m-.9,3.993h0a1.048,1.048,0,0,1,0-2.1c.727.028,1.17.425,1.17,1.048s-.443,1.019-1.17,1.048" transform="translate(-22.966 -31.86)"/>
        <path id="Trazado_164670" data-name="Trazado 164670" d="M60.4,78.518a2.881,2.881,0,1,1-2.873,4.995,2.86,2.86,0,0,1-.94-3.965,3.268,3.268,0,0,1,1.222-1.131c.144-.083.384-.154.375-.344l-.009,0c-.21.109-.423.213-.629.328a3.025,3.025,0,0,0-1.275,3.964,3.064,3.064,0,0,0,3.891,1.517,3.054,3.054,0,0,0-.314-5.77c0,.291.366.3.553.409" transform="translate(-22.838 -31.857)"/>
        <path id="Trazado_164671" data-name="Trazado 164671" d="M61.371,78.089h0a7.463,7.463,0,0,0-1.662-.038v0a1.878,1.878,0,0,0,1.66.034" transform="translate(-24.364 -31.837)"/>
        <path id="Trazado_164672" data-name="Trazado 164672" d="M59.7,78.069h-.009l.009,0v0" transform="translate(-24.358 -31.856)"/>
        <path id="Trazado_164673" data-name="Trazado 164673" d="M47.239,78.111a1.878,1.878,0,0,1-1.66-.034c.009.189-.23.261-.375.344a3.268,3.268,0,0,0-1.222,1.131,2.859,2.859,0,0,0,.94,3.964A2.881,2.881,0,1,0,47.8,78.522c-.186-.109-.556-.118-.553-.409Zm-.9,3.993h0a1.048,1.048,0,0,1,0-2.1c.727.028,1.17.425,1.17,1.048s-.443,1.019-1.17,1.048" transform="translate(-17.77 -31.86)"/>
        <path id="Trazado_164674" data-name="Trazado 164674" d="M47.667,78.518a2.881,2.881,0,1,1-2.873,4.995,2.859,2.859,0,0,1-.941-3.965,3.266,3.266,0,0,1,1.222-1.13c.144-.083.384-.154.375-.345l-.009,0c-.21.109-.423.213-.629.328a3.025,3.025,0,0,0-1.275,3.964,3.065,3.065,0,0,0,3.891,1.517,3.054,3.054,0,0,0-.314-5.77c0,.291.366.3.553.409" transform="translate(-17.642 -31.857)"/>
        <path id="Trazado_164675" data-name="Trazado 164675" d="M48.638,78.089h0a7.464,7.464,0,0,0-1.662-.038v0a1.878,1.878,0,0,0,1.66.034" transform="translate(-19.169 -31.837)"/>
        <path id="Trazado_164676" data-name="Trazado 164676" d="M46.97,78.069h-.008l.009,0v0" transform="translate(-19.163 -31.856)"/>
        <path id="Trazado_164677" data-name="Trazado 164677" d="M34.507,78.112a1.876,1.876,0,0,1-1.658-.034c.009.186-.23.259-.373.34a3.288,3.288,0,0,0-1.224,1.129,2.858,2.858,0,0,0,.935,3.967,2.881,2.881,0,1,0,2.876-4.992c-.186-.109-.556-.118-.553-.409Zm-.9,3.993h0a1.048,1.048,0,0,1,0-2.1c.727.028,1.17.425,1.17,1.048s-.443,1.019-1.17,1.048" transform="translate(-12.575 -31.86)"/>
        <path id="Trazado_164678" data-name="Trazado 164678" d="M34.934,78.518a2.881,2.881,0,1,1-2.876,4.992,2.858,2.858,0,0,1-.935-3.967,3.288,3.288,0,0,1,1.224-1.129c.143-.082.382-.154.373-.34l-.012,0c-.21.109-.423.213-.63.328A3.026,3.026,0,0,0,30.8,82.361,3.066,3.066,0,0,0,34.7,83.879a3.055,3.055,0,0,0-.315-5.77c0,.291.367.3.553.409" transform="translate(-12.446 -31.856)"/>
        <path id="Trazado_164679" data-name="Trazado 164679" d="M35.907,78.089h0a7.443,7.443,0,0,0-1.659-.038v0a1.876,1.876,0,0,0,1.658.034" transform="translate(-13.975 -31.837)"/>
        <path id="Trazado_164680" data-name="Trazado 164680" d="M34.24,78.069h-.011l.012,0v0" transform="translate(-13.967 -31.856)"/>
        <path id="Trazado_164681" data-name="Trazado 164681" d="M97.27,78a3.025,3.025,0,1,0,2.995,3.033A3.035,3.035,0,0,0,97.27,78m-.131,4.072h0a1.048,1.048,0,0,1,0-2.1c.727.028,1.17.425,1.17,1.048s-.443,1.019-1.17,1.048" transform="translate(-38.423 -31.828)"/>
        <path id="Trazado_164682" data-name="Trazado 164682" d="M84.506,78a3.025,3.025,0,1,0,3.027,3,3.035,3.035,0,0,0-3.027-3m-.1,4.073h0a1.048,1.048,0,0,1,0-2.1c.727.028,1.17.425,1.17,1.048s-.443,1.019-1.17,1.048" transform="translate(-33.228 -31.828)"/>
        <path id="Trazado_164683" data-name="Trazado 164683" d="M73.535,83.435c.728-.028,1.17-.426,1.17-1.048s-.443-1.019-1.17-1.048a2.111,2.111,0,0,0,0,2.1" transform="translate(-29.893 -33.191)" fill="#4ecad3"/>
        <path id="Trazado_164684" data-name="Trazado 164684" d="M72,82.355a1.065,1.065,0,0,0,1.023,1.08,1.436,1.436,0,0,1,0-2.1A1.062,1.062,0,0,0,72,82.355" transform="translate(-29.379 -33.191)" fill="#07bcb3"/>
        <path id="Trazado_164685" data-name="Trazado 164685" d="M73.414,83.435h0a2.112,2.112,0,0,1,0-2.1,1.436,1.436,0,0,0,0,2.1" transform="translate(-29.771 -33.191)" fill="#07bcb3"/>
        <path id="Trazado_164686" data-name="Trazado 164686" d="M60.8,81.339a2.112,2.112,0,0,0,0,2.1c.728-.028,1.171-.425,1.171-1.048s-.444-1.019-1.171-1.048" transform="translate(-24.697 -33.191)" fill="#4ecad3"/>
        <path id="Trazado_164687" data-name="Trazado 164687" d="M60.288,81.339a1.048,1.048,0,0,0,0,2.1,1.437,1.437,0,0,1,0-2.1" transform="translate(-24.183 -33.191)" fill="#07bcb3"/>
        <path id="Trazado_164688" data-name="Trazado 164688" d="M60.681,81.339a1.437,1.437,0,0,0,0,2.1,2.112,2.112,0,0,1,0-2.1" transform="translate(-24.576 -33.191)" fill="#07bcb3"/>
        <path id="Trazado_164689" data-name="Trazado 164689" d="M48.07,81.339a2.11,2.11,0,0,0,0,2.1c.727-.028,1.17-.425,1.17-1.048s-.443-1.019-1.17-1.048" transform="translate(-19.501 -33.191)" fill="#4ecad3"/>
        <path id="Trazado_164690" data-name="Trazado 164690" d="M47.556,81.339a1.048,1.048,0,0,0,0,2.1h0a1.436,1.436,0,0,1,0-2.1" transform="translate(-18.988 -33.191)" fill="#07bcb3"/>
        <path id="Trazado_164691" data-name="Trazado 164691" d="M47.949,81.339a1.436,1.436,0,0,0,0,2.1,2.11,2.11,0,0,1,0-2.1" transform="translate(-19.38 -33.191)" fill="#07bcb3"/>
        <path id="Trazado_164692" data-name="Trazado 164692" d="M35.337,81.339a2.112,2.112,0,0,0,0,2.1c.728-.028,1.171-.425,1.171-1.048s-.443-1.019-1.171-1.048" transform="translate(-14.306 -33.191)" fill="#4ecad3"/>
        <path id="Trazado_164693" data-name="Trazado 164693" d="M34.823,81.339a1.048,1.048,0,0,0,0,2.1,1.437,1.437,0,0,1,0-2.1" transform="translate(-13.792 -33.191)" fill="#07bcb3"/>
        <path id="Trazado_164694" data-name="Trazado 164694" d="M35.216,81.339a1.437,1.437,0,0,0,0,2.1,2.112,2.112,0,0,1,0-2.1" transform="translate(-14.185 -33.191)" fill="#07bcb3"/>
        <path id="Trazado_164695" data-name="Trazado 164695" d="M99,81.339a2.112,2.112,0,0,0,0,2.1c.728-.028,1.171-.425,1.17-1.048s-.443-1.019-1.17-1.048" transform="translate(-40.284 -33.191)" fill="#4ecad3"/>
        <path id="Trazado_164696" data-name="Trazado 164696" d="M98.486,81.339a1.048,1.048,0,0,0,0,2.1,1.436,1.436,0,0,1,0-2.1" transform="translate(-39.77 -33.191)" fill="#07bcb3"/>
        <path id="Trazado_164697" data-name="Trazado 164697" d="M98.879,81.339a1.436,1.436,0,0,0,0,2.1,2.112,2.112,0,0,1,0-2.1" transform="translate(-40.163 -33.191)" fill="#07bcb3"/>
        <path id="Trazado_164698" data-name="Trazado 164698" d="M86.267,81.339a2.112,2.112,0,0,0,0,2.1c.728-.028,1.171-.425,1.171-1.048s-.443-1.019-1.171-1.048" transform="translate(-35.088 -33.191)" fill="#4ecad3"/>
        <path id="Trazado_164699" data-name="Trazado 164699" d="M85.753,81.339a1.048,1.048,0,0,0,0,2.1,1.437,1.437,0,0,1,0-2.1" transform="translate(-34.574 -33.191)" fill="#07bcb3"/>
        <path id="Trazado_164700" data-name="Trazado 164700" d="M86.146,81.339a1.437,1.437,0,0,0,0,2.1,2.112,2.112,0,0,1,0-2.1" transform="translate(-34.967 -33.191)" fill="#07bcb3"/>
      </g>
    </g>
  </g>
</svg>
