<svg xmlns="http://www.w3.org/2000/svg" xmlns:xlink="http://www.w3.org/1999/xlink" width="58.863" height="58.865" viewBox="0 0 58.863 58.865">
  <defs>
    <clipPath id="clip-path">
      <rect id="Rectángulo_42381" data-name="Rectángulo 42381" width="58.863" height="58.865" fill="none"/>
    </clipPath>
  </defs>
  <g id="Grupo_169124" data-name="Grupo 169124" transform="translate(0 0)">
    <g id="Grupo_169125" data-name="Grupo 169125" transform="translate(0 0)" clip-path="url(#clip-path)">
      <path id="Trazado_159174" data-name="Trazado 159174" d="M0,27.478a.838.838,0,0,0,.113-.18,3.7,3.7,0,0,1,3.813-2.779q8.737-.007,17.472.011c.53,0,.693-.089.691-.664-.025-6.629-.016-13.258-.016-19.887A3.691,3.691,0,0,1,26.044,0H54.9a3.692,3.692,0,0,1,3.967,3.984q0,10.747,0,21.5a3.693,3.693,0,0,1-3.942,3.952c-.594,0-1.189.02-1.782-.008-.339-.016-.412.1-.4.421.027.8.026,1.609.018,2.414a6.516,6.516,0,0,1-.083,1.028,1.1,1.1,0,0,1-1.733.858c-.7-.385-1.372-.833-2.041-1.277q-2.389-1.588-4.76-3.2a1.324,1.324,0,0,0-.8-.238c-2.011.011-4.023.02-6.035-.006-.429-.006-.53.1-.53.529.016,6.667-.026,13.334.032,20a3.876,3.876,0,0,1-4.025,4.019c-5.727-.064-11.456-.018-17.184-.026a1.515,1.515,0,0,0-.9.271Q11.725,56.22,8.737,58.2c-.341.227-.689.442-1.034.662h-.69c-.785-.264-1.028-.591-1.071-1.539-.038-.841-.006-1.683-.012-2.525-.006-.679-.037-.71-.713-.716-.536,0-1.071,0-1.607,0A3.749,3.749,0,0,1,.37,52.236a4.213,4.213,0,0,1-.37-1.3V27.478" transform="translate(0 0)"/>
      <path id="Trazado_159175" data-name="Trazado 159175" d="M71.626,4.006a1.116,1.116,0,0,1,.964,1.055,3.245,3.245,0,0,1,.019.573q0,10.576,0,21.153c0,1.279-.408,1.688-1.68,1.69-1,0-1.993.011-2.989,0a1.621,1.621,0,0,0-1.166.378.632.632,0,0,1-.748-.1A9.191,9.191,0,0,0,60.6,27.41c-4.885.044-9.77.011-14.655.019a2.833,2.833,0,0,1-2.064-.7,2.725,2.725,0,0,1-.861-2.112c.008-2.989,0-5.977,0-8.966V5.19c0-.21,0-.421.006-.632,0-.412.149-.607.617-.606q13.821.018,27.644.009a.649.649,0,0,1,.337.045" transform="translate(-16.189 -1.487)" fill="#81bbf3"/>
      <path id="Trazado_159176" data-name="Trazado 159176" d="M37.145,66.795a1.136,1.136,0,0,1-1.2.992c-1.868.007-3.736-.007-5.6-.014a6.041,6.041,0,0,1-.964-.367,7.8,7.8,0,0,0-3.518-.694q-7.695-.015-15.388,0a2.744,2.744,0,0,1-1.743-.45A2.642,2.642,0,0,1,7.625,63.99c.014-5.053.006-10.106.006-15.159,0-1.569,0-3.139,0-4.708a1.146,1.146,0,0,1,.18-.821c.438-.009.876-.027,1.315-.027q6.961,0,13.923,0c.21,0,.418.017.627.027a1.106,1.106,0,0,1,.183.763A2.5,2.5,0,0,0,26.685,46.8c3.081.011,6.162,0,9.242,0,.211,0,.421,0,.632.006.428.007.639.143.638.648q-.027,9.473-.012,18.945a.928.928,0,0,1-.04.4" transform="translate(-2.869 -16.285)" fill="#eceaf1"/>
      <path id="Trazado_159177" data-name="Trazado 159177" d="M70.229,3.982c-.9.006-1.8.016-2.7.016Q55.037,4,42.544,4c-.734,0-.735,0-.735.753q0,9.966,0,19.931a2.394,2.394,0,0,0,2.561,2.533c5.208,0,10.416.016,15.624-.009a8.289,8.289,0,0,1,4.749,1.39,1.015,1.015,0,0,0,.634.229,1.937,1.937,0,0,0-.321,1.194c.014.7,0,1.408,0,2.114-.288.043-.424-.152-.588-.259q-2.3-1.516-4.588-3.053a2.2,2.2,0,0,0-1.29-.376q-8.792.017-17.583.007c-1.307,0-1.7-.4-1.7-1.724q0-10.573,0-21.146c0-1.271.41-1.677,1.691-1.678q14.251,0,28.5,0a1.256,1.256,0,0,1,.729.08" transform="translate(-14.793 -1.463)" fill="#6faae5"/>
      <path id="Trazado_159178" data-name="Trazado 159178" d="M6.417,43.3c0,6.929.027,13.857-.026,20.786a2.625,2.625,0,0,0,2.455,2.464c5.339-.059,10.68-.043,16.02-.014a6.581,6.581,0,0,1,4.084,1.235c-4.078.006-8.157.024-12.235.006a2.786,2.786,0,0,0-1.656.505c-1.471,1-2.955,1.98-4.434,2.967l-.557.37c0-.825,0-1.56,0-2.295-.006-1.084-.455-1.534-1.532-1.535s-2.145,0-3.217,0a1.249,1.249,0,0,1-1.4-1.38q-.01-10.887,0-21.774a1.224,1.224,0,0,1,1.35-1.358c.382-.006.764.016,1.146.025" transform="translate(-1.473 -16.286)" fill="#d9d6e4"/>
      <path id="Trazado_159179" data-name="Trazado 159179" d="M46.831,66.777c-.008-.248-.022-.5-.022-.745q0-9.217.01-18.433c0-.5-.115-.65-.633-.647-3.311.024-6.623.012-9.934.012a2.64,2.64,0,0,1-2.886-2.875q0-.4,0-.8c.133-.009.268-.009.4-.03a1.307,1.307,0,0,1,1.525.787A3.339,3.339,0,0,0,38.377,45.7c2.663.007,5.327.011,7.989-.007.415,0,.549.077.548.526q-.022,10-.007,20a.919.919,0,0,1-.075.559" transform="translate(-12.556 -16.267)" fill="#d9d6e4"/>
      <path id="Trazado_159180" data-name="Trazado 159180" d="M55.079,25.248a1.59,1.59,0,0,1,.177-.688q2.339-5.848,4.677-11.7c.237-.6.561-1.058,1.264-1.058s1.025.468,1.264,1.061q2.341,5.818,4.7,11.628a1.8,1.8,0,0,1,.21.882,1.259,1.259,0,0,1-1.078,1.11,1.226,1.226,0,0,1-1.282-.772q-.506-1.215-.955-2.455a.593.593,0,0,0-.674-.445c-1.435.022-2.871.019-4.307,0a.53.53,0,0,0-.592.391c-.343.87-.7,1.734-1.088,2.586a1.2,1.2,0,0,1-1.37.7,1.235,1.235,0,0,1-.946-1.242" transform="translate(-20.726 -4.443)"/>
      <path id="Trazado_159181" data-name="Trazado 159181" d="M28.108,56.028c-2.387,0-4.722,0-7.058,0a1.262,1.262,0,0,1-1.333-.872A1.2,1.2,0,0,1,20.857,53.6c.937-.031,1.877-.011,2.815-.012.884,0,.881,0,.89-.861a3.071,3.071,0,0,1,.065-.682,1.2,1.2,0,0,1,1.17-.922,1.236,1.236,0,0,1,1.174.923,2.7,2.7,0,0,1,.053.97c-.036.431.075.6.554.583.955-.042,1.914-.016,2.871-.011a1.269,1.269,0,0,1,1.424,1.042A1.219,1.219,0,0,1,30.854,56c-.256.069-.285.214-.321.392a10.7,10.7,0,0,1-2.683,5.237c-.213.231-.254.352.042.555.647.443,1.3.869,1.986,1.253a1.244,1.244,0,1,1-1.209,2.135,16.713,16.713,0,0,1-2.482-1.647.5.5,0,0,0-.772-.006,15.173,15.173,0,0,1-2.578,1.706A1.222,1.222,0,1,1,21.643,63.5q.99-.58,1.934-1.23c.314-.215.426-.352.1-.663a6.671,6.671,0,0,1-.753-.938A1.237,1.237,0,1,1,24.886,59.2c.218.266.451.521.657.8s.329.206.526-.016a9,9,0,0,0,2.04-3.951" transform="translate(-7.401 -19.238)"/>
      <path id="Trazado_159182" data-name="Trazado 159182" d="M62.313,23.092l1.6-4.025,1.61,4.025Z" transform="translate(-23.45 -7.175)" fill="#81baf2"/>
    </g>
  </g>
</svg>
