<svg id="Grupo_169123" data-name="Grupo 169123" xmlns="http://www.w3.org/2000/svg" xmlns:xlink="http://www.w3.org/1999/xlink" width="59.514" height="53.196" viewBox="0 0 59.514 53.196">
  <defs>
    <clipPath id="clip-path">
      <rect id="Rectángulo_42380" data-name="Rectángulo 42380" width="59.514" height="53.196" fill="none"/>
    </clipPath>
  </defs>
  <g id="Grupo_169123-2" data-name="Grupo 169123" clip-path="url(#clip-path)">
    <path id="Trazado_159160" data-name="Trazado 159160" d="M14.808,49.566c-.194.842-.706,1.067-1.5.659A30.8,30.8,0,0,1,1.641,39.516c-.428-.643-.836-1.3-1.221-1.97a2.993,2.993,0,0,1,.368-3.555q3.192-3.615,6.651-6.976c.586-.569,1.023-.538,1.549.092.342.241.221.541.087.825a2.434,2.434,0,0,1-.558.663c-1.81,1.776-3.556,3.612-5.323,5.575,1.384-.3,2.678-.575,3.969-.861,3.763-.832,7.512-1.729,11.293-2.474a62.752,62.752,0,0,1,7.016-.933c1.352-.11,2.711-.137,4.056-.156,1.478-.021,2.973.055,4.461.158a59.281,59.281,0,0,1,8.557,1.227Q49.017,32.546,55.478,34a4.421,4.421,0,0,0,.829.14c-.648-.676-1.2-1.283-1.763-1.865a97.115,97.115,0,0,0-8.688-8.13c-.317-.255-.66-.478-.967-.743a.733.733,0,0,0-1.04,0c-1.015.744-2.038,1.478-3.06,2.213-.173.125-.348.245-.522.368a2.04,2.04,0,0,1-2.249.182,2.089,2.089,0,0,1-1.081-1.931c-.03-.948-.006-1.9-.008-2.847a4.737,4.737,0,0,0-.014-.581.713.713,0,0,0-.966-.7,7.9,7.9,0,0,0-4.662,2.742,2.214,2.214,0,0,1-1.2.96,1.771,1.771,0,0,1-1.885-.726,7.29,7.29,0,0,0-2.5-2.124,7.755,7.755,0,0,0-8.06.261A46.137,46.137,0,0,0,12.36,25.1a2.748,2.748,0,0,1-.654.477c-.313.135-.633.212-.893-.115-.557-.518-.627-.991-.13-1.422A33.421,33.421,0,0,1,17.808,19a9.734,9.734,0,0,1,11.563,2.484c.232.277.336.343.565.011a5.087,5.087,0,0,1,1.051-1.078c.375-.3.764-.579,1.147-.867-.077-.153-.252-.161-.384-.232A3.851,3.851,0,0,1,29.581,15.8c-.032-1.432-.014-2.864-.005-4.3,0-.69.193-.906.878-1.083.6-.082.937.21.969.889.038.792.009,1.586.013,2.379,0,.6-.018,1.2.007,1.8a2.178,2.178,0,0,0,2.424,2.343c.677,0,1.354,0,2.032,0a3.032,3.032,0,0,1,3.089,3.087c.009.871,0,1.741,0,2.612,0,.206-.087.486.11.6s.379-.126.544-.245c2.44-1.743,4.862-3.513,7.291-5.27a3.946,3.946,0,0,1,2.485-.795c1.973.038,3.947.013,5.92.011a2.072,2.072,0,0,0,1.882-.939,2.641,2.641,0,0,0,.365-1.444c0-3.736,0-7.471,0-11.207a2.114,2.114,0,0,0-2.246-2.329c-.425-.018-.852-.006-1.277-.006q-9.959,0-19.917,0a3.309,3.309,0,0,0-1.785.407,2.195,2.195,0,0,0-.907,1.963c-.041.946.009,1.895-.019,2.841-.024.83-.386,1.094-1.2.917a.881.881,0,0,1-.659-.916c0-1.123-.047-2.249.022-3.369A3.886,3.886,0,0,1,33.677.006Q43.06,0,52.442,0c1.046,0,2.091-.013,3.137,0A3.926,3.926,0,0,1,59.4,2.993c.025.09.01.2.118.245V16.487a3.9,3.9,0,0,1-4.147,3.4c-1.917.006-3.834.014-5.751-.006a2.461,2.461,0,0,0-1.622.5c-.474.367-.951.732-1.455,1.06-.3.193-.355.371-.037.615a93.181,93.181,0,0,1,9.42,8.7c1.02,1.033,1.978,2.124,2.953,3.2a2.084,2.084,0,0,1,.579,1.59,7.315,7.315,0,0,1-.032,1.075,1.724,1.724,0,0,1-.266.819A31.863,31.863,0,0,1,46.067,50.31a27.269,27.269,0,0,1-10.9,2.876,15.9,15.9,0,0,1-3.828-.571,7.859,7.859,0,0,0-3.736.122,14.225,14.225,0,0,1-6.549.078,25.033,25.033,0,0,1-2.991-.686c-.891-.26-1.089-.753-.64-1.562.275-.483.71-.4,1.122-.282a27,27,0,0,0,4.262.858,10.14,10.14,0,0,0,4.132-.21A8.84,8.84,0,0,1,31.82,50.8a15.223,15.223,0,0,0,7.734-.147A25.454,25.454,0,0,0,50.86,44.758a33.3,33.3,0,0,0,5.848-6.946,1.184,1.184,0,0,1,.242-.286c-1.428.59-2.8,1.106-4.18,1.591a63.442,63.442,0,0,1-6.288,1.854,2.453,2.453,0,0,1-.459.068c-.773.034-1.118-.285-1.175-1.084.093-.629.57-.836,1.094-.97,1.5-.382,3-.752,4.472-1.245.2-.067.4-.139.6-.21,1.358-.433,2.7-.9,4.112-1.5-4.169-.916-8.236-1.827-12.31-2.707a63.742,63.742,0,0,0-8.883-1.34c-1.41-.118-2.827-.154-4.228-.156A46.2,46.2,0,0,0,25.073,32a65.074,65.074,0,0,0-8.36,1.313c-4.07.881-8.137,1.779-12.332,2.716,1.463.59,2.816,1.087,4.2,1.513a66.293,66.293,0,0,0,12.6,2.823c2.205.277,4.421.4,6.644.491A68.452,68.452,0,0,0,40.93,40a5.955,5.955,0,0,1,.806-.088.952.952,0,0,1,.994.553c.189.9-.075,1.339-.963,1.492a67.938,67.938,0,0,1-7.144.855c-1.622.1-3.248.211-4.867.2A71.689,71.689,0,0,1,9.382,39.991c-2.244-.683-4.447-1.474-6.627-2.378-.074.13.051.2.1.275a30.678,30.678,0,0,0,8.1,8.7c1.048.738,2.169,1.35,3.267,2,.357.213.787.414.581.976" transform="translate(0 0)" fill="#060102"/>
    <path id="Trazado_159161" data-name="Trazado 159161" d="M157.687,93.99a.671.671,0,0,1,.1.019v1.162l-.092.03q-.005-.605-.009-1.211" transform="translate(-98.275 -58.577)" fill="#515151"/>
    <path id="Trazado_159162" data-name="Trazado 159162" d="M48.812,101.645c.13.826.518,1.055,1.413.84a71.651,71.651,0,0,0,10.288-3.367l.539-.219c-.16.281-.258.473-.373.653a29.492,29.492,0,0,1-11.8,10.958,25.441,25.441,0,0,1-9.979,2.568,7.838,7.838,0,0,1-2.459-.346,9.65,9.65,0,0,0-5.22-.084,14.288,14.288,0,0,1-6.766-.063,21.081,21.081,0,0,1-2.078-.521,1.243,1.243,0,0,0-1.1.139l-2.617-1c-.032-.5-.374-.716-.771-.922A29.642,29.642,0,0,1,6.329,99.222c-.041-.065-.07-.137-.151-.3.869.339,1.662.653,2.459.958a69.439,69.439,0,0,0,16.5,4.064,71.714,71.714,0,0,0,14.079.3c2.14-.161,4.268-.449,6.386-.8.755-.125.981-.443.9-1.258.012-.037.021-.089.049-.1a4.535,4.535,0,0,1,2.256-.446" transform="translate(-3.85 -61.636)" fill="#d72f3c"/>
    <path id="Trazado_159163" data-name="Trazado 159163" d="M15.435,58.121c.533.252.92-.016,1.3-.348A38.981,38.981,0,0,1,21.31,54.3a12.645,12.645,0,0,1,3.818-1.782,7.346,7.346,0,0,1,3.557.3,7.486,7.486,0,0,1,4.365,2.944,1.49,1.49,0,0,0,2.513-.061,7.982,7.982,0,0,1,4.953-3.084c.754-.17,1.18.155,1.2.944.021,1.064.018,2.13,0,3.195a1.942,1.942,0,0,0,3.235,1.667c1.183-.873,2.394-1.709,3.565-2.6a.676.676,0,0,1,.989.023,89.368,89.368,0,0,1,10.1,9.334c.535.56,1.054,1.134,1.578,1.7.022.024.018.071.042.173-1.34-.3-2.648-.6-3.961-.875-4.346-.922-8.652-2.032-13.031-2.791A59.555,59.555,0,0,0,30.348,62.7a90.14,90.14,0,0,0-14.04,2.411l-8.54,1.9c-.074.016-.151.015-.352.035.453-.5.836-.94,1.23-1.365q2.251-2.428,4.624-4.738a.965.965,0,0,0,.34-1.179l1.824-1.639" transform="translate(-4.622 -32.654)" fill="#db4955"/>
    <path id="Trazado_159164" data-name="Trazado 159164" d="M80.251,11.705c.81,0,1.072-.255,1.079-1.069.008-.967,0-1.934.006-2.9a2.077,2.077,0,0,1,.884-1.846c.237.262.162.586.163.888q.008,5.927,0,11.854c0,.232-.007.465.008.7a1.163,1.163,0,0,0,1.293,1.241,21.957,21.957,0,0,1,2.61.074A3.985,3.985,0,0,1,89.934,24.7c.013.271,0,.543.011.813.008.17-.03.384.147.473s.33-.056.469-.158c.952-.7,1.933-1.359,2.877-2.069,1.022-.769,2.078-1.489,3.1-2.259a4.832,4.832,0,0,1,2.945-.921c2.382-.023,4.765-.009,7.147,0,.246,0,.511-.038.709.173a2.075,2.075,0,0,1-1.885.918c-2.031,0-4.062.02-6.093-.009a3.676,3.676,0,0,0-2.313.759q-3.767,2.756-7.564,5.471c-.159.115-.307.376-.536.246-.185-.1-.085-.354-.086-.537-.008-.967,0-1.934-.005-2.9a2.881,2.881,0,0,0-3.018-3.028c-.735,0-1.47.005-2.205,0a2.184,2.184,0,0,1-2.3-2.3c-.018-1.393,0-2.785-.008-4.178,0-.714-.165-.905-.862-1.089,0-.616,0-1.233.01-1.849a.55.55,0,0,0-.226-.541" transform="translate(-50.015 -3.671)" fill="#94cbd3"/>
    <path id="Trazado_159165" data-name="Trazado 159165" d="M110.588,19.969c-2.671,0-5.343-.029-8.014.006a4.726,4.726,0,0,0-2.842.986c-1.985,1.494-4.009,2.936-6.022,4.393-.15.109-.323.248-.53.127s-.157-.336-.157-.525a6.212,6.212,0,0,0-.352-2.673,3.892,3.892,0,0,0-3.751-2.318c-.677-.021-1.355,0-2.032,0a1.268,1.268,0,0,1-1.418-1.434q-.007-4.008,0-8.015,0-2.7,0-5.4a1.961,1.961,0,0,1,1.394-.466q10.945-.005,21.89,0a2.174,2.174,0,0,1,2.279,2.315q.007,5.806,0,11.613a1.944,1.944,0,0,1-.446,1.394" transform="translate(-53.265 -2.893)" fill="#a9d7dd"/>
    <path id="Trazado_159166" data-name="Trazado 159166" d="M15.127,91.131a27.638,27.638,0,0,1-4.423-1.7q2.091-.469,4.182-.937,4.008-.891,8.017-1.775a2.9,2.9,0,0,1,.344-.035,52.984,52.984,0,0,1,6.323-.709c.945-.052,1.888-.153,2.835-.152,2.337,0,4.674-.034,7.011,0a73.534,73.534,0,0,1,9.4.717c.263.038.524.109.789.148,2.053.439,4.108.871,6.16,1.319,2.127.465,4.25.945,6.534,1.454a35.683,35.683,0,0,1-4.566,1.674c-1.336.3-2.657.66-4,.916-2.8.53-5.614.906-8.442,1.188a89.966,89.966,0,0,1-12.339.355,91.23,91.23,0,0,1-15.3-1.838c-.85-.179-1.671-.466-2.527-.621" transform="translate(-6.671 -53.475)" fill="#f9f7f7"/>
    <path id="Trazado_159167" data-name="Trazado 159167" d="M22.442,99.92a15.671,15.671,0,0,1,2.831.516c2.023.366,4.049.7,6.085.992,2.191.308,4.393.508,6.6.665,3.107.221,6.225.178,9.338.119,1.711-.032,3.423-.17,5.126-.345s3.4-.378,5.089-.628q3.568-.527,7.084-1.316a2.151,2.151,0,0,1,.462,0,43.147,43.147,0,0,1-5.146,1.5c-.482.12-.878.3-.958.856l-2.306.547c-.312-.553-.807-.554-1.346-.459a65.923,65.923,0,0,1-6.967.827,67.848,67.848,0,0,1-11.364-.173,67.255,67.255,0,0,1-14.158-2.939c-.125-.041-.243-.1-.365-.156" transform="translate(-13.986 -62.265)" fill="#efe8e5"/>
    <path id="Trazado_159168" data-name="Trazado 159168" d="M70.356,85.558c-.995-.082-2-.115-2.981-.263-.611-.092-1.228-.112-1.834-.159-2.556-.2-5.118-.313-7.685-.265-1.73.032-3.465-.067-5.191.027-1.877.1-3.756.211-5.631.4a19.638,19.638,0,0,1-3.041.255,39.7,39.7,0,0,1,5.225-1,56.757,56.757,0,0,1,10.77-.484,59.24,59.24,0,0,1,10.271,1.425c.035.008.063.041.095.063" transform="translate(-27.418 -52.351)" fill="#efe8e5"/>
    <path id="Trazado_159169" data-name="Trazado 159169" d="M107.766,22.631a3.963,3.963,0,0,1-2.619.474,3.622,3.622,0,0,1-2.991-2.728,3.545,3.545,0,0,1,1.156-3.828,3.636,3.636,0,0,1,4.007-.6c.261.107.48.333.591-.193a.733.733,0,0,1,.874-.509.786.786,0,0,1,.732.641,2.3,2.3,0,0,1,.05.516c0,1.992,0,3.984,0,5.977a1.191,1.191,0,0,1-.271.917c-.538.54-1.253.239-1.532-.664" transform="translate(-63.57 -9.497)"/>
    <path id="Trazado_159170" data-name="Trazado 159170" d="M94.058,10.082c.251,0,.5-.01.754,0a.849.849,0,0,1,.9.856.794.794,0,0,1-.827.856c-.78-.089-.76.322-.755.873q.027,3.684,0,7.368c0,.4.1.532.514.519.706-.022,1.07.293,1.074.84,0,.569-.385.884-1.111.892-.406,0-.813.012-1.218,0-.641-.022-.985-.331-.987-.965q-.019-5.134,0-10.269c0-.68.326-.955,1.025-.971.213,0,.425,0,.638,0Z" transform="translate(-57.578 -6.281)"/>
    <path id="Trazado_159171" data-name="Trazado 159171" d="M138.5,16.194c0,1.646,0,3.291,0,4.937,0,.849-.306,1.149-1.157,1.157-.426,0-.853.018-1.277-.006a.893.893,0,0,1-.907-.928.841.841,0,0,1,.954-.794c.55.041.662-.156.656-.673-.027-2.516-.02-5.033,0-7.55,0-.391-.078-.538-.5-.526-.705.02-1.123-.357-1.1-.9.022-.523.421-.822,1.113-.829.387,0,.775-.005,1.162,0,.749.012,1.056.309,1.06,1.061.008,1.684,0,3.369,0,5.053" transform="translate(-84.236 -6.28)"/>
    <path id="Trazado_159172" data-name="Trazado 159172" d="M126.965,9.892a.875.875,0,0,1,.824,1.136c-.248.792-.525,1.575-.824,2.35a.848.848,0,0,1-1.132.527.877.877,0,0,1-.482-1.153c.241-.734.5-1.46.757-2.189a.931.931,0,0,1,.857-.671" transform="translate(-78.086 -6.165)" fill="#000101"/>
    <path id="Trazado_159173" data-name="Trazado 159173" d="M108.716,20.9a2.027,2.027,0,0,1,2.016,2.041,2.067,2.067,0,0,1-2.058,2.018,2.032,2.032,0,0,1-2-2.059,1.991,1.991,0,0,1,2.041-2" transform="translate(-66.483 -13.025)" fill="#a9d7dd"/>
  </g>
</svg>
