<svg xmlns="http://www.w3.org/2000/svg" xmlns:xlink="http://www.w3.org/1999/xlink" width="105" height="105" viewBox="0 0 105 105">
  <defs>
    <clipPath id="clip-path">
      <rect id="Rectángulo_42907" data-name="Rectángulo 42907" width="81.04" height="49.693" transform="translate(0 0)" fill="none"/>
    </clipPath>
  </defs>
  <g id="Grupo_170124" data-name="Grupo 170124" transform="translate(-4093 8847)">
    <path id="Trazado_164423" data-name="Trazado 164423" d="M52.5,0A52.5,52.5,0,1,1,0,52.5,52.5,52.5,0,0,1,52.5,0Z" transform="translate(4093 -8847)" fill="#e1e8ff"/>
    <g id="Grupo_170123" data-name="Grupo 170123" transform="translate(4105 -8819)">
      <g id="Grupo_170122" data-name="Grupo 170122" clip-path="url(#clip-path)">
        <path id="Trazado_164928" data-name="Trazado 164928" d="M55.884,37.609a9.064,9.064,0,0,0,11.55-2.469,3.187,3.187,0,0,1,2.484-1.464,2.75,2.75,0,0,1,2.4,1.127A9.271,9.271,0,0,0,79.8,38.724a1.459,1.459,0,0,1,1.236.834v.791a1.289,1.289,0,0,1-1.269.977A11.867,11.867,0,0,1,70.8,37.014c-.688-.821-.862-.839-1.561.008a11.334,11.334,0,0,1-8.82,4.278,11.554,11.554,0,0,1-9.307-4.28c-.743-.866-.756-.882-1.527.007a11.74,11.74,0,0,1-8.761,4.28,11.363,11.363,0,0,1-7.867-2.794,15.417,15.417,0,0,1-1.663-1.688c-.533-.614-.687-.61-1.222.028a11.914,11.914,0,0,1-6.575,4.125A11.531,11.531,0,0,1,13.409,38.6,10.2,10.2,0,0,1,11.781,37c-.665-.81-.868-.808-1.5-.016a11.424,11.424,0,0,1-1.744,1.711,12.076,12.076,0,0,1-6.747,2.619.736.736,0,0,1-.66-.179c-.7-.2-1.222-.588-1.1-1.39s.7-.991,1.445-1.029a9.082,9.082,0,0,0,7.035-3.661,4.188,4.188,0,0,1,1.508-1.245,4.306,4.306,0,0,1-2.063-2.485,4.115,4.115,0,0,1,3.074-5.2c.633-.149,1.532-.045,1.822-.508.246-.394-.162-1.186-.257-1.806a2.778,2.778,0,0,1,.6-2.218c.231-.289.2-.434,0-.721a4.526,4.526,0,0,1,.745-6.247,1.2,1.2,0,0,1,1.455-.2,1.091,1.091,0,0,1,.623,1.583,6.739,6.739,0,0,1-.669.978,2.137,2.137,0,0,0,.142,2.631.992.992,0,0,0,1.086.241c1.834-.37,3.661-.778,5.492-1.166q7.464-1.581,14.927-3.166c.723-.153,1.438-.333,2.157-.5A5.467,5.467,0,0,0,43.4,12.337c.116-.093-.06-.177.016-.1.029.029.031.054,0,.072a10.1,10.1,0,0,1-2.469.66c-4.952,1.024-9.9,2.046-14.864,3.028-.569.113-1.126.278-1.7.368a1.6,1.6,0,0,1-1.913-1.1c-.139-.712.378-1.365,1.289-1.63a7.319,7.319,0,0,0,.765-.193c-.557-.431-1.183-.672-1.712-1.059-.425-.312-.851-.622-1.263-.95-.926-.736-.941-.738-1.74.187a2.931,2.931,0,0,1-.727.717,1.08,1.08,0,0,1-1.51-.278,1.3,1.3,0,0,1,.05-1.846c2.106-2.608,3.116-2.713,5.721-.651a11.709,11.709,0,0,0,10.257,2.3c3.779-.824,7.575-1.569,11.364-2.345.256-.052.51-.053.682-.32.949-1.479,1.911-2.95,2.922-4.5-1.822-.519-3.552-1.01-5.281-1.507-.27-.077-.445.07-.637.216-.819.621-1.638,1.241-2.465,1.85-.734.54-1.437.493-1.87-.106a1.223,1.223,0,0,1,.428-1.769c1.045-.8,2.1-1.586,3.151-2.385A1.46,1.46,0,0,1,43.3.734c1.994.579,4.005,1.1,6,1.68.438.128.679.123.967-.3A4.314,4.314,0,0,1,55.926.442q4.4,1.838,8.784,3.714a2.505,2.505,0,0,1,1.6,2.558A2.469,2.469,0,0,1,64.3,8.87c-.459.113-.919.217-1.511.356,3.37,1.255,6.616,2.461,9.861,3.672.465.173.883-.068,1.311-.144a4.118,4.118,0,0,1,4.807,3.189,4.031,4.031,0,0,1-3,4.77,1.58,1.58,0,0,0-1.253,1.167A26.734,26.734,0,0,1,61.176,36.829a1.419,1.419,0,0,1-1.965-.289,1.148,1.148,0,0,1,.269-1.695,6.662,6.662,0,0,1,1.235-.7,24.042,24.042,0,0,0,10.728-11.5c.087-.19.162-.388.233-.586.019-.055.013-.1-.074-.227-1.177.3-2.413.507-3.635.785-9.563,2.059-19.137,4.068-28.7,6.111q-9.475,2.023-18.957,4.021c-.722.152-1.435.354-2.165.463-.624.093-.857.37-.711,1.023.236,1.054.483,2.107.675,3.171a1.016,1.016,0,0,0,.877.884,9.07,9.07,0,0,0,8.9-3.208,3.534,3.534,0,0,1,2.367-1.581,3.214,3.214,0,0,1,3.086,1.379,9.089,9.089,0,0,0,3.473,2.8,8.918,8.918,0,0,0,10.807-2.68,3.4,3.4,0,0,1,2.472-1.521A3.247,3.247,0,0,1,53,34.917,9.973,9.973,0,0,0,54.912,36.8c.3.3.77.4.972.811"/>
        <path id="Trazado_164929" data-name="Trazado 164929" d="M81.04,48.9a1.755,1.755,0,0,1-1.66.8q-38.871-.022-77.741-.012H1.481C.626,49.668.118,49.315.016,48.662s.275-1.109,1.112-1.376a1.884,1.884,0,0,1,1.293-.229q7.632-.009,15.263,0h60.5a12.511,12.511,0,0,1,1.5.034A1.32,1.32,0,0,1,81.04,48.1Z"/>
        <path id="Trazado_164930" data-name="Trazado 164930" d="M79.8,41.146q0,2.685-.008,5.369a1.68,1.68,0,0,0,.12.771c-.157.007-.315.02-.473.02H1.6c-.157,0-.315-.013-.472-.02V41.133a11.782,11.782,0,0,0,9.328-4.7c.438-.57.714-.524,1.228.12a11.319,11.319,0,0,0,8.054,4.462A11.258,11.258,0,0,0,29.855,36.76c.826-.979.854-1,1.666.016a11.56,11.56,0,0,0,18.029-.045c.759-.955.839-.954,1.614.015A11.556,11.556,0,0,0,69.242,36.7c.718-.9.819-.9,1.567.019a11.582,11.582,0,0,0,8.522,4.372c.156.011.312.038.468.057" fill="#98e5fb"/>
        <path id="Trazado_164931" data-name="Trazado 164931" d="M17.577,12.052a1.258,1.258,0,0,0,1.914-.364c1.111-1.293,1.115-1.3,2.414-.248a18.117,18.117,0,0,0,3.359,2.068c-.631.142-1.1.234-1.558.353-.785.2-1.2.77-1.048,1.412a1.249,1.249,0,0,0,1.535.886c3.3-.655,6.6-1.337,9.9-2,2.293-.462,4.59-.909,6.886-1.362.618-.112.351.274.231.472a4.323,4.323,0,0,1-1.956,1.918c-1.706.536-3.475.8-5.217,1.179C28.122,17.637,22.2,18.872,16.29,20.152a.811.811,0,0,1-.978-.383,2.241,2.241,0,0,1,.12-3.254c.731-.892.722-1.349-.039-2.09a9.094,9.094,0,0,0,2.184-2.373" fill="#d68777"/>
        <path id="Trazado_164932" data-name="Trazado 164932" d="M68.056,22.445l4.007-.925A16.424,16.424,0,0,1,70.456,25a24.168,24.168,0,0,1-10.316,9.68c-1.007.5-1.164.835-.929,1.861l-3.327,1.07a2.676,2.676,0,0,1-.937-.591c.119-.365.462-.491.741-.674a38.442,38.442,0,0,0,8.472-7.519,23.625,23.625,0,0,0,3.467-5.635,2.185,2.185,0,0,1,.429-.745" fill="#c7eefd"/>
        <path id="Trazado_164933" data-name="Trazado 164933" d="M68.056,22.445a17.085,17.085,0,0,1-2.634,4.981,35.729,35.729,0,0,1-10.475,9.592A7.5,7.5,0,0,1,52.84,35.03a2.93,2.93,0,0,0-4.986.009,9.139,9.139,0,0,1-14.7-.032A2.924,2.924,0,0,0,28.219,35a9.066,9.066,0,0,1-9.527,3.46.818.818,0,0,1-.755-.738q-.363-1.938-.824-3.858c-.125-.517.068-.676.53-.773q9.422-1.982,18.839-3.983,15.438-3.279,30.873-6.565c.23-.049.467-.065.7-.1" fill="#e9f5fe"/>
        <path id="Trazado_164934" data-name="Trazado 164934" d="M57.046,17.556c.473.9.776,1.039,1.773.83l13.675-2.862a.925.925,0,0,1,.491.907A2.628,2.628,0,0,1,71.7,19.137c-2.593.572-5.183,1.16-7.78,1.713q-13.623,2.9-27.251,5.785-12.042,2.559-24.083,5.128a1.8,1.8,0,0,1-2.3-1,1.666,1.666,0,0,1,.676-2.065,3.245,3.245,0,0,1,.961-.339q19.57-4.155,39.142-8.3c.438-.093.87-.215,1.31-.289a1.344,1.344,0,0,0,1.276-1.438.426.426,0,0,1,.273-.263,9.742,9.742,0,0,1,3.12-.515" fill="#7ca0b0"/>
        <path id="Trazado_164935" data-name="Trazado 164935" d="M52.973,17.423a13.763,13.763,0,0,0-4.109.668q-16.456,3.465-32.9,7.006c-.555.119-.79,0-.812-.564a4.329,4.329,0,0,0-.126-.617c-.162-.863-.025-1.081.824-1.261,3.553-.753,7.108-1.493,10.66-2.251,4.581-.978,9.163-1.951,13.738-2.961a7.352,7.352,0,0,0,5.38-3.878,1.86,1.86,0,0,1,1.442-1.048c3.251-.651,6.49-1.364,9.734-2.052a4.081,4.081,0,0,1,.471-.044,2.057,2.057,0,0,1,1.311.1c2.7.976,5.379,1.99,8.063,3,.242.091.512.162.621.44.05.129-.059.18-.151.23l-8.388,1.793a3.318,3.318,0,0,0-1.4.486,1.764,1.764,0,0,1-.912.424c-1.159.13-2.248.712-3.454.529" fill="#fd646f"/>
        <path id="Trazado_164936" data-name="Trazado 164936" d="M59.838,7.387,48.011,9.921c1.214-1.871,2.312-3.566,3.413-5.258.316-.486.626-.976.97-1.44a1.322,1.322,0,0,1,.733-.57,3.353,3.353,0,0,1,2.746,1.265c-.279.066-.558.137-.839.2-.969.207-1.426.72-1.288,1.452.145.771.779,1.091,1.79.881,1.306-.271,2.608-.56,3.912-.836.177-.038.36-.047.541-.07.7.7.65,1.258-.151,1.845" fill="#fd646e"/>
        <path id="Trazado_164937" data-name="Trazado 164937" d="M71.7,19.137c.945-1.055,1.509-2.194.792-3.613.636-.149,1.268-.319,1.909-.442a1.764,1.764,0,0,1,2.015,1.237,1.654,1.654,0,0,1-1.119,2.06,22.2,22.2,0,0,1-3.6.758" fill="#668c97"/>
        <path id="Trazado_164938" data-name="Trazado 164938" d="M67.122,14.191c.15-.267-.077-.317-.235-.376q-4.455-1.645-8.917-3.276a3.823,3.823,0,0,0-.691-.118,2.342,2.342,0,0,1,1.882-.018c3.039,1.163,6.1,2.277,9.2,3.426a3.063,3.063,0,0,1-1.237.362" fill="#f94755"/>
        <path id="Trazado_164939" data-name="Trazado 164939" d="M39.254,15.187a8.875,8.875,0,0,0,1.771-1.964c.071-.141.4-.333-.047-.426l2.636-.6c-.857,2-2.481,2.683-4.36,2.989" fill="#c76c58"/>
        <path id="Trazado_164940" data-name="Trazado 164940" d="M59.838,7.387a1.38,1.38,0,0,0,.151-1.845,2.222,2.222,0,0,1,2.1.069,16.932,16.932,0,0,1,1.793.935l-4.041.841" fill="#f94654"/>
        <path id="Trazado_164941" data-name="Trazado 164941" d="M52.973,17.423l4.366-.953a1.82,1.82,0,0,0-.293,1.086l-3.393.778a2.077,2.077,0,0,0-.68-.911" fill="#fa4856"/>
        <path id="Trazado_164942" data-name="Trazado 164942" d="M15.322,36.807a16,16,0,0,1-2.516-2.568c.054-.05.085-.1.127-.114,1.753-.485,1.753-.484,2.109,1.3.086.429.174.857.28,1.378" fill="#fafafa"/>
        <path id="Trazado_164943" data-name="Trazado 164943" d="M55.873,3.918a9.441,9.441,0,0,0-2.746-1.265,1.473,1.473,0,0,1,1.482-.16c.848.323,1.686.675,2.6,1.045a3.157,3.157,0,0,1-1.337.38" fill="#f74654"/>
      </g>
    </g>
  </g>
</svg>
