<svg xmlns="http://www.w3.org/2000/svg" xmlns:xlink="http://www.w3.org/1999/xlink" width="261" height="225" viewBox="0 0 261 225">
  <defs>
    <clipPath id="clip-path">
      <rect id="Rectángulo_42792" data-name="Rectángulo 42792" width="145.314" height="190.558" fill="none"/>
    </clipPath>
  </defs>
  <g id="Grupo_169993" data-name="Grupo 169993" transform="translate(-1090 -452)">
    <g id="Grupo_169862" data-name="Grupo 169862" transform="translate(1148 478)">
      <g id="Grupo_169861" data-name="Grupo 169861" clip-path="url(#clip-path)">
        <path id="Trazado_163348" data-name="Trazado 163348" d="M52.588,25.319,43.5,26.414a2.047,2.047,0,0,1-2.277-1.787L38.666,3.385a2.046,2.046,0,0,1,1.787-2.276L49.541.015A2.046,2.046,0,0,1,51.817,1.8l2.557,21.242a2.046,2.046,0,0,1-1.786,2.276" transform="translate(-19.595 0)" fill="#2f3f4f"/>
        <path id="Trazado_163349" data-name="Trazado 163349" d="M83.154,102.443s-2.464,1.258-5.91,2.981c-1.542.758-3.274,1.62-5.075,2.5-.586.284-1.171.569-1.757.862-3.912,1.9-7.935,3.791-10.8,5.006-9.15,3.877-16.37,2.731-16.37,2.731l3.016-28.147L62.1,78.9l1.439-.862,15.215-9.1.621-.371.129-.077.68-.414h.009c.112-.069.224-.138.345-.207l.017.207.06.862.689,9.1.069.862.689,9.1.069.862.689,9.1.06.861Z" transform="translate(-21.92 -34.407)" fill="#2f3f4f"/>
        <path id="Trazado_163350" data-name="Trazado 163350" d="M236.084,91.447a7.314,7.314,0,0,1-.1.861c-.052.457-.129.9-.224,1.353a15.723,15.723,0,0,1-3.9,7.754,10.056,10.056,0,0,1-.956.861A8.725,8.725,0,0,1,227,104.052c-.008,0-1.482-.836-3.17-1.775-.5-.284-1.025-.577-1.534-.861-1.749-.983-3.317-1.87-3.317-1.87l-5.669-4.6-3.249-2.637L209,91.447l-11.209-9.1-1.06-.861-5.066-4.11-3.7-3s.077-.767.267-1.99c.035-.267.086-.551.138-.861a43.123,43.123,0,0,1,2.525-9.1c.12-.293.249-.577.379-.861.026-.035.043-.078.069-.121a.012.012,0,0,0,0-.017c1.852-3.9,4.653-7,8.814-6.3.034.008.061.008.086.017.31.06.612.138.9.215,4.11.965,7.935,3.464,11.381,6.2.362.284.715.568,1.06.861,1.2.982,2.352,1.981,3.446,2.93,2.3,1.99,4.532,4.058,6.729,6.169.3.284.595.568.9.861,1.7,1.637,3.377,3.283,5.075,4.92a32.635,32.635,0,0,1,3.963,4.178,8.275,8.275,0,0,1,.577.861,10.806,10.806,0,0,1,.9,1.844,16.469,16.469,0,0,1,.9,7.254" transform="translate(-95.294 -27.9)" fill="#2f3f4f"/>
        <path id="Trazado_163351" data-name="Trazado 163351" d="M133.437,134.571c0,.112-20.678,0-20.678,0s-.017-.534-.035-1.508c-.008-.258-.017-.543-.026-.862-.043-2.007-.121-5.187-.207-9.1,0-.284-.008-.568-.017-.862-.06-2.748-.12-5.833-.181-9.1,0-.284-.008-.577-.017-.862-.043-2.929-.095-6-.138-9.1-.009-.284-.009-.577-.009-.862-.017-.836-.026-1.663-.043-2.5-.026-2.214-.052-4.428-.069-6.608,0-.284-.008-.577-.008-.861-.026-3.145-.043-6.212-.043-9.1v-.862c0-3.36.026-6.453.078-9.1.008-.293.008-.577.017-.862.112-4.885.327-8.09.7-8.4.276-.233.586-.465.913-.7.173-.121.354-.241.543-.371l.129-.077.681-.414h.008c.112-.069.224-.138.345-.207,5.376-3.05,13.82-5.445,13.82-5.445s.112,2.12.31,5.652c.017.276.026.569.043.862.138,2.5.31,5.6.5,9.1.017.284.035.569.043.862.155,2.826.327,5.893.5,9.1.017.284.035.569.052.862.155,2.955.327,6.014.491,9.1.017.284.035.577.052.861.164,3.033.327,6.1.491,9.107.017.284.035.577.052.862.164,3.127.336,6.186.491,9.1.017.293.035.577.052.862.172,3.283.345,6.358.491,9.1.017.293.035.577.043.862.224,3.928.4,7.091.5,9.1.017.319.035.6.052.862.052.965.077,1.5.077,1.508" transform="translate(-56.764 -28.808)" fill="#2f3f4f"/>
        <path id="Trazado_163352" data-name="Trazado 163352" d="M176.733,69.149H115.269l.621-.37.129-.078.68-.413h58.974c.361.284.715.568,1.06.861" transform="translate(-58.438 -34.62)" fill="#fff"/>
        <path id="Trazado_163353" data-name="Trazado 163353" d="M170.68,89.35H81.491l1.439-.861h86.855c.3.284.594.568.9.861" transform="translate(-41.314 -44.862)" fill="#fff"/>
        <path id="Trazado_163354" data-name="Trazado 163354" d="M167.839,109.551H56.921v-.862h110.34a8.279,8.279,0,0,1,.577.862" transform="translate(-28.857 -55.102)" fill="#fff"/>
        <path id="Trazado_163355" data-name="Trazado 163355" d="M169.648,128.891a7.314,7.314,0,0,1-.1.861H56.921v-.861Z" transform="translate(-28.857 -65.344)" fill="#fff"/>
        <path id="Trazado_163356" data-name="Trazado 163356" d="M56.921,149.109H79.106c-.586.284-1.171.568-1.758.861H56.921Z" transform="translate(-28.857 -75.594)" fill="#fff"/>
        <path id="Trazado_163357" data-name="Trazado 163357" d="M193.493,149.109a9.991,9.991,0,0,1-.956.861H112.307c-.008-.284-.008-.577-.008-.861Z" transform="translate(-56.933 -75.594)" fill="#fff"/>
        <path id="Trazado_163358" data-name="Trazado 163358" d="M177.584,170.172H112.613c0-.284-.008-.577-.017-.861h64.859c.043.284.086.577.129.861" transform="translate(-57.083 -85.836)" fill="#fff"/>
        <path id="Trazado_163359" data-name="Trazado 163359" d="M179.21,190.373H113.016c0-.284-.009-.568-.017-.862h66.09c.035.284.078.577.121.862" transform="translate(-57.287 -96.077)" fill="#fff"/>
        <path id="Trazado_163360" data-name="Trazado 163360" d="M180.862,210.574H113.479c-.008-.258-.017-.543-.026-.861h67.288c.035.284.078.577.121.861" transform="translate(-57.518 -106.319)" fill="#fff"/>
        <path id="Trazado_163361" data-name="Trazado 163361" d="M229.477,230.793H206.611c-.026-.276-.051-.568-.069-.861h22.814c.035.293.078.586.121.861" transform="translate(-104.711 -116.569)" fill="#fff"/>
        <path id="Trazado_163362" data-name="Trazado 163362" d="M19.641,317.507s.629,18.7.577,18.825a.027.027,0,0,0-.017.008c-.46.32-11.494,7.335-16.538,10.712a1.188,1.188,0,0,1-.182.311c-.711.862-1.819,2.789-1.27,3.93a2.077,2.077,0,0,0,.948.228H32.634a4.171,4.171,0,0,0,4.041-3.274l.439-6.987,1.37-21.514Z" transform="translate(-1.046 -160.967)" fill="#f9b3a2"/>
        <path id="Trazado_163363" data-name="Trazado 163363" d="M36.067,360.618l-.439,6.987a3.822,3.822,0,0,1-.25.767,4.454,4.454,0,0,1-.362.664,4.116,4.116,0,0,1-3.429,1.843H2.113a2.119,2.119,0,0,1-1.7-.87,1.856,1.856,0,0,1-.336-1.637.956.956,0,0,1,.31-.413c.241-.19.491-.362.741-.534.87-.612,1.749-1.2,2.636-1.775,1.206-.8,2.43-1.594,3.644-2.386.181-.121.371-.241.552-.354,1.154-.758,2.3-1.5,3.455-2.24,1.24-.793,2.481-1.594,3.722-2.387.931-.6,1.861-1.2,2.792-1.792.414-.267.827-.517,1.241-.8l.12.138a13.74,13.74,0,0,0,10.425,4.79Z" transform="translate(0 -180.325)" fill="#ffcfa6"/>
        <path id="Trazado_163364" data-name="Trazado 163364" d="M35.378,381.413a4.454,4.454,0,0,1-.362.663,4.116,4.116,0,0,1-3.429,1.844H2.113a2.118,2.118,0,0,1-1.7-.87,1.855,1.855,0,0,1-.336-1.637Z" transform="translate(0 -193.366)" fill="#fff"/>
        <path id="Trazado_163365" data-name="Trazado 163365" d="M7.963,370.334V378.3H2.114a2.118,2.118,0,0,1-1.7-.87A1.854,1.854,0,0,1,.08,375.8a.964.964,0,0,1,.31-.414c.242-.189.492-.362.741-.534.87-.612,1.749-1.2,2.637-1.775,1.206-.8,2.43-1.594,3.644-2.386.181-.121.37-.242.551-.354" transform="translate(0 -187.749)" fill="#fff"/>
        <path id="Trazado_163366" data-name="Trazado 163366" d="M88.131,204.7c-11.361,1.533-22.8,2.377-34.157,3.991a75.5,75.5,0,0,0-9.919,1.6,14.453,14.453,0,0,0-6.6,3.612c-4.446,4.643-4.844,12.537-5.66,18.555-.031.226-.062.453-.093.678-1.005,7.18-2.441,43.653-2.441,43.653H51.946l3.733-42.217,22.545-1.436s20.821-24.7,20.821-25.56S88.131,204.7,88.131,204.7" transform="translate(-14.833 -103.776)" fill="#a66353"/>
        <path id="Trazado_163367" data-name="Trazado 163367" d="M177.35,208.8s1.286,13.472,0,17.743c-2.118,7.036-9.909,10.123-9.909,10.123l-52.556-5.708,17.375-27.139Z" transform="translate(-58.244 -103.333)" fill="#a66353"/>
        <path id="Trazado_163368" data-name="Trazado 163368" d="M200.235,266.241v47.42a3.877,3.877,0,0,1-3.877,3.877H112.209a3.872,3.872,0,0,1-3.877-3.877v-47.42a3.872,3.872,0,0,1,3.877-3.877h84.149a3.878,3.878,0,0,1,3.877,3.877" transform="translate(-54.921 -133.011)" fill="#3a5394"/>
        <rect id="Rectángulo_42789" data-name="Rectángulo 42789" width="0.861" height="55.175" transform="translate(125.352 129.353)" fill="#0f0a1c"/>
        <rect id="Rectángulo_42790" data-name="Rectángulo 42790" width="15.221" height="6.462" transform="matrix(0.936, -0.352, 0.352, 0.936, 106.823, 138.69)" fill="#fff"/>
        <rect id="Rectángulo_42791" data-name="Rectángulo 42791" width="10.811" height="2.986" transform="translate(109.498 139.542) rotate(-20.588)" fill="#f57c64"/>
        <path id="Trazado_163369" data-name="Trazado 163369" d="M243.326,294.8a2.585,2.585,0,1,0-2.585,2.584,2.585,2.585,0,0,0,2.585-2.584" transform="translate(-120.739 -148.146)" fill="#ffcfa6"/>
        <path id="Trazado_163370" data-name="Trazado 163370" d="M214.783,316.535a2.585,2.585,0,1,0-2.584,2.584,2.585,2.585,0,0,0,2.584-2.584" transform="translate(-106.269 -159.164)" fill="#8db6e0"/>
        <path id="Trazado_163371" data-name="Trazado 163371" d="M134.4,65.2a10.079,10.079,0,0,1,8.935-10.843c2.928-.327,6.447-.638,10.462-.844,12.475-.637,20.381,1.148,20.381,1.148l13.049,77.87s-29.73,2.229-39.92.189c-2.856-.572-6.349-1.726-7.708-4.571-.388-.812-2.055-24.736-2.962-35.76q-1.061-12.9-2.121-25.793-.058-.7-.115-1.4" transform="translate(-68.119 -27.06)" fill="#ffe7cf"/>
        <path id="Trazado_163372" data-name="Trazado 163372" d="M178.726,32.466a3.253,3.253,0,1,0-3.244,3,3.13,3.13,0,0,0,3.244-3" transform="translate(-87.32 -14.937)" fill="#2f3f4f"/>
        <path id="Trazado_163373" data-name="Trazado 163373" d="M179.659,26.474a1.9,1.9,0,1,0-1.9,1.9,1.9,1.9,0,0,0,1.9-1.9" transform="translate(-89.159 -12.46)" fill="#2f3f4f"/>
        <path id="Trazado_163374" data-name="Trazado 163374" d="M177.363,21.006a1.9,1.9,0,1,0-1.9,1.9,1.9,1.9,0,0,0,1.9-1.9" transform="translate(-87.995 -9.688)" fill="#2f3f4f"/>
        <path id="Trazado_163375" data-name="Trazado 163375" d="M156.51,18.295a3.705,3.705,0,0,1-.327.3,1.4,1.4,0,0,1-.164.146,1.771,1.771,0,0,1-.189.164,9.979,9.979,0,0,1-3.369,1.8,9.62,9.62,0,0,1-1.671.353,9.853,9.853,0,0,1-10.615-6.9,10.231,10.231,0,0,1-.422-2.438v-.069a9.829,9.829,0,0,1,.577-3.687l-.008-.009a10.419,10.419,0,0,1,.526-1.189s.026-.051.077-.138A9.834,9.834,0,0,1,159,8.43c1.1,3.619-.586,7.9-2.49,9.865" transform="translate(-70.848 -0.733)" fill="#f9b3a2"/>
        <path id="Trazado_163376" data-name="Trazado 163376" d="M139.747,19.8s-.511,7.221.429,11.338c1.165,5.1,6.482,5.141,10.863,2.319a15.646,15.646,0,0,0,5.874-7.883s-8.58-3.972-9.676-3.962a73.022,73.022,0,0,1-7.491-1.812" transform="translate(-70.778 -10.038)" fill="#f9b3a2"/>
        <path id="Trazado_163377" data-name="Trazado 163377" d="M169.69,45.79l-6.5,3.627-6.5.3-1.309-5.169-.1-.4h-.008l-.629-2.516v-.009l-.81-3.179,3.343-2.3,6.527-3.391Z" transform="translate(-77.996 -16.607)" fill="#f9b3a2"/>
        <path id="Trazado_163378" data-name="Trazado 163378" d="M162.1,9.814a4.619,4.619,0,0,0-.112-.586c-.026-.121-.052-.241-.086-.362-.035-.146-.077-.293-.121-.439A9.846,9.846,0,0,0,149.506,1.87a9.707,9.707,0,0,0-4.2,2.568c-.025.025-.051.053-.076.08a8.791,8.791,0,0,1,1.672.612.9.9,0,0,1,.406.406,21.276,21.276,0,0,1,3.365.332,10.639,10.639,0,0,1,1.611.43l.052.017a3.3,3.3,0,0,1,1.129.637,1.483,1.483,0,0,1,.267.345c.069.1-.052-.12,0,0,.663,1.49.379,4.394.732,6.341.095.483,2.5.043,3.524.887a8.107,8.107,0,0,1,1.774,3.264A9.67,9.67,0,0,0,162.1,9.814" transform="translate(-73.63 -0.732)" fill="#2f3f4f"/>
        <path id="Trazado_163379" data-name="Trazado 163379" d="M161.909,9.229,153.655,7.3,146.2,5.55l-.974-.224s-.06-.284-.155-.724c.052-.052.1-.112.155-.164a9.71,9.71,0,0,1,4.2-2.568A9.847,9.847,0,0,1,161.7,8.427c.043.146.086.293.12.439.035.121.061.241.086.362" transform="translate(-73.549 -0.732)" fill="#f57c64"/>
        <path id="Trazado_163380" data-name="Trazado 163380" d="M171.867,22.592c0,1.923-1.21,3.483-2.7,3.483s-2.693-1.249-2.693-3.172,1.2-3.793,2.693-3.793,2.7,1.56,2.7,3.483" transform="translate(-84.396 -9.688)" fill="#f9b3a2"/>
        <path id="Trazado_163381" data-name="Trazado 163381" d="M145.649,37.5a3.383,3.383,0,0,1-2.292-.834.431.431,0,0,1,.605-.613,2.521,2.521,0,0,0,1.687.586,3.24,3.24,0,0,0,1.877-.613.431.431,0,1,1,.543.669,4.115,4.115,0,0,1-2.42.805" transform="translate(-72.614 -18.213)" fill="#2f3f4f"/>
        <path id="Trazado_163382" data-name="Trazado 163382" d="M170.994,14.978a.433.433,0,0,1-.414.319.522.522,0,0,1-.112-.017l-8.934-2.387L153.349,10.7l-7.738-2.068-1.5-.4a8.283,8.283,0,0,1,.628-.724l5.368,1.43,1.611.43.052.017,9.563,2.55,9.357,2.5a.437.437,0,0,1,.3.534" transform="translate(-73.061 -3.811)" fill="#f57c64"/>
        <path id="Trazado_163383" data-name="Trazado 163383" d="M150.482,56.737s.537,1.874,5.637,1.683,9.8-4.1,9.8-4.1,5.948,1.927,5.948,2.058S160.113,68.813,159.774,68.94s-11.453-1.02-12.3-1.339-2.573-4.718-1.489-6.758,4.5-4.106,4.5-4.106" transform="translate(-73.833 -27.538)" fill="#ffe7cf"/>
        <path id="Trazado_163384" data-name="Trazado 163384" d="M140.188,30.042a4.456,4.456,0,0,0,4.29,3.849c3.912.111,5.312-1.127,6.138-3.138s1.138-9.908,1.138-9.908l1.477,1.365s.6,9.639-1.914,12.833-7.129,2.423-8.72,1.49c-2.276-1.336-2.408-6.491-2.408-6.491" transform="translate(-71.072 -10.568)" fill="#2f3f4f"/>
        <path id="Trazado_163385" data-name="Trazado 163385" d="M120.632,317.507s6.66,18.7,6.608,18.825a.028.028,0,0,0-.017.008c-.46.32-11.494,7.335-16.538,10.712a1.2,1.2,0,0,1-.182.311c-.711.862-1.82,2.789-1.27,3.93a2.081,2.081,0,0,0,.948.228h31.2a4.117,4.117,0,0,0,3.429-1.844,4.161,4.161,0,0,0,.611-1.43l-1.283-6.987-4.661-21.514Z" transform="translate(-55.303 -160.967)" fill="#f9b3a2"/>
        <path id="Trazado_163386" data-name="Trazado 163386" d="M144.669,368.381a2.581,2.581,0,0,1-2.576,2.507H109.13a2.118,2.118,0,0,1-1.7-.87,1.854,1.854,0,0,1-.336-1.637,1.032,1.032,0,0,1,.31-.422c.241-.181.491-.353.741-.526,1.5-1.06,3.024-2.033,4.566-3.015.44-.311,1.189-.8,1.637-1.094.207-.138.423-.284.629-.4,1.155-.758,2.3-1.5,3.455-2.24,1.24-.792,2.481-1.593,3.722-2.386.93-.6,1.861-1.2,2.792-1.792.414-.267.827-.517,1.24-.8l.121.138a14.036,14.036,0,0,0,10.554,4.791h6.221l1.533,7.125a2.621,2.621,0,0,1,.052.629" transform="translate(-54.255 -180.33)" fill="#ffcfa6"/>
        <path id="Trazado_163387" data-name="Trazado 163387" d="M144.669,381.422a2.581,2.581,0,0,1-2.576,2.507H109.13a2.118,2.118,0,0,1-1.7-.87,1.854,1.854,0,0,1-.336-1.637Z" transform="translate(-54.255 -193.371)" fill="#fff"/>
        <path id="Trazado_163388" data-name="Trazado 163388" d="M114.984,370.334V378.3h-5.85a2.118,2.118,0,0,1-1.7-.87,1.854,1.854,0,0,1-.336-1.637.964.964,0,0,1,.31-.414c.242-.189.492-.362.741-.534.87-.612,1.749-1.2,2.637-1.775,1.206-.8,2.43-1.594,3.644-2.386.181-.121.37-.242.551-.354" transform="translate(-54.257 -187.749)" fill="#fff"/>
        <path id="Trazado_163389" data-name="Trazado 163389" d="M109.643,246.2l12.708,51.625H146.6L136.782,246.2Z" transform="translate(-55.586 -124.817)" fill="#a66353"/>
        <path id="Trazado_163390" data-name="Trazado 163390" d="M224.178,148.7H200.916s-.233-2.723-.621-7.16c-.026-.276-.052-.568-.069-.861-.224-2.585-.492-5.678-.793-9.107-.026-.284-.043-.569-.069-.862-.25-2.843-.508-5.91-.784-9.1-.026-.284-.052-.577-.078-.862-.249-2.955-.517-6.013-.784-9.1-.017-.284-.043-.577-.069-.861-.259-3.041-.517-6.091-.776-9.1-.026-.284-.052-.577-.069-.861-.276-3.127-.534-6.195-.784-9.107-.026-.284-.043-.577-.069-.862-.284-3.274-.543-6.341-.767-9.1-.026-.293-.052-.577-.078-.862-.12-1.473-.241-2.852-.345-4.109-.164-1.99-.3-3.679-.4-4.988-.026-.31-.052-.595-.069-.862q-.026-.349-.052-.646a45.6,45.6,0,0,1,.086-8.452c.035-.293.069-.586.1-.862a.7.7,0,0,0,.017-.121.012.012,0,0,0,0-.017,20.578,20.578,0,0,1,1.981-6.961,42.633,42.633,0,0,1,6.832.663c.035.009.06.009.086.017.31.06.612.138.9.215a9.668,9.668,0,0,1,6.815,6.2c.1.284.2.568.276.862.474,1.62.672,3.317.991,4.937.095.474.319,1.939.655,4.161.043.276.086.56.129.862.362,2.386.818,5.5,1.344,9.1.043.284.086.569.121.862.414,2.8.853,5.867,1.327,9.1.035.284.077.569.121.862.129.87.249,1.749.388,2.636.3,2.111.612,4.282.922,6.47.043.284.086.568.129.861.431,3.007.87,6.066,1.3,9.1.043.284.086.577.129.861.439,3.085.879,6.143,1.3,9.1.035.284.078.577.121.862.457,3.187.887,6.255,1.3,9.1.035.284.077.577.121.862.491,3.437.93,6.531,1.3,9.107.035.293.078.586.121.861.629,4.446,1.017,7.16,1.017,7.16" transform="translate(-98.396 -27.32)" fill="#2f3f4f"/>
        <path id="Trazado_163391" data-name="Trazado 163391" d="M211.588,69.149H194.572c.034-.293.069-.586.1-.861h16.637c.1.284.2.568.276.861" transform="translate(-98.643 -34.62)" fill="#fff"/>
        <path id="Trazado_163392" data-name="Trazado 163392" d="M213.326,89.35H194.57c-.026-.31-.052-.595-.069-.861h18.7c.043.276.086.56.129.861" transform="translate(-98.607 -44.862)" fill="#fff"/>
        <path id="Trazado_163393" data-name="Trazado 163393" d="M215.633,109.551H196.239c-.026-.293-.052-.577-.077-.862h19.35c.043.284.086.569.121.862" transform="translate(-99.449 -55.102)" fill="#fff"/>
        <path id="Trazado_163394" data-name="Trazado 163394" d="M217.949,129.752H197.943c-.026-.284-.043-.577-.069-.861h19.954c.035.284.078.568.121.861" transform="translate(-100.317 -65.344)" fill="#fff"/>
        <path id="Trazado_163395" data-name="Trazado 163395" d="M56.921,149.109H79.106c-.586.284-1.171.568-1.758.861H56.921Z" transform="translate(-28.857 -75.594)" fill="#fff"/>
        <path id="Trazado_163396" data-name="Trazado 163396" d="M220.264,149.971H199.673c-.026-.284-.052-.577-.069-.861h20.531c.043.284.086.568.129.861" transform="translate(-101.194 -75.595)" fill="#fff"/>
        <path id="Trazado_163397" data-name="Trazado 163397" d="M222.563,170.172H201.386c-.017-.284-.043-.577-.069-.861h21.117c.043.284.086.577.129.861" transform="translate(-102.062 -85.836)" fill="#fff"/>
        <path id="Trazado_163398" data-name="Trazado 163398" d="M224.861,190.373H203.124c-.026-.284-.051-.577-.078-.862H224.74c.035.284.078.577.121.862" transform="translate(-102.939 -96.077)" fill="#fff"/>
        <path id="Trazado_163399" data-name="Trazado 163399" d="M227.169,210.574H204.863c-.026-.284-.043-.568-.069-.861h22.254c.035.284.078.577.121.861" transform="translate(-103.825 -106.319)" fill="#fff"/>
        <path id="Trazado_163400" data-name="Trazado 163400" d="M229.477,230.793H206.611c-.026-.276-.051-.568-.069-.861h22.814c.035.293.078.586.121.861" transform="translate(-104.711 -116.569)" fill="#fff"/>
        <path id="Trazado_163401" data-name="Trazado 163401" d="M19.1,101.344c-.213-1.959-.184-3.964-.343-5.91L16.319,65.613q-.155-1.9-.311-3.809L33.72,60.175q1.852,10.932,3.456,21.905c.722,4.947,1.431,9.9,1.917,14.881.491,5.028,1.219,9.6-2.552,13.575a8.831,8.831,0,0,1-11.584.979,13.965,13.965,0,0,1-5.068-6.579,15.1,15.1,0,0,1-.787-3.591" transform="translate(-8.116 -30.507)" fill="#f9b3a2"/>
        <path id="Trazado_163402" data-name="Trazado 163402" d="M39.745,25.08a27.182,27.182,0,0,1-3.808,7.1S34.86,35.454,33.5,39.693s-4.455,6.677-5.463,6.746-12.053-7.59-12.053-7.59-.508-11.063,2.8-14.914,9.616-9.348,13.57-9.029a3.734,3.734,0,0,1,1.421.474,8.594,8.594,0,0,1,.767.483,13.379,13.379,0,0,1,2.318,2.2c.181.224.362.448.543.68a15.259,15.259,0,0,1,1.689,2.749,6.759,6.759,0,0,1,.353.827,4.393,4.393,0,0,1,.3,2.766" transform="translate(-8.089 -7.55)" fill="#f9b3a2"/>
        <path id="Trazado_163403" data-name="Trazado 163403" d="M44,16.362l-8.667,7.5a.441.441,0,0,1-.612-.043.425.425,0,0,1,.043-.6l8.469-7.332a8.664,8.664,0,0,1,.767.483" transform="translate(-17.551 -8.05)" fill="#2f3f4f"/>
        <path id="Trazado_163404" data-name="Trazado 163404" d="M50.168,21.995l-8.314,7.194a.447.447,0,0,1-.284.1.434.434,0,0,1-.284-.758l8.34-7.22c.181.224.362.448.543.681" transform="translate(-20.855 -10.806)" fill="#2f3f4f"/>
        <path id="Trazado_163405" data-name="Trazado 163405" d="M55.518,29.1l-7.142,6.186a.427.427,0,0,1-.284.1.445.445,0,0,1-.327-.146.436.436,0,0,1,.051-.612l7.35-6.359a6.876,6.876,0,0,1,.353.827" transform="translate(-24.163 -14.332)" fill="#2f3f4f"/>
        <path id="Trazado_163406" data-name="Trazado 163406" d="M233.786,132.348c-1.155,1.6-2.519,3.066-3.706,4.617L211.91,160.736l-2.321,3.036-14.24-10.659q5.95-9.355,12.112-18.576c2.778-4.156,5.573-8.31,8.547-12.33,3-4.061,5.525-7.94,10.991-8.367a8.831,8.831,0,0,1,9.255,7.035,13.962,13.962,0,0,1-.645,8.28,15.089,15.089,0,0,1-1.822,3.193" transform="translate(-99.037 -57.7)" fill="#f9b3a2"/>
        <path id="Trazado_163407" data-name="Trazado 163407" d="M191.479,204.18s-1.363,3.641-7.466,3.21-12.492-1.667-16.729-1.587-6.1,1.085-6.892.51-1.364-1.867.359-4.021,16.488-8.772,16.488-8.772,5.912-.012,6.2,0,8.04,10.659,8.04,10.659" transform="translate(-80.927 -98.107)" fill="#f9b3a2"/>
        <path id="Trazado_163408" data-name="Trazado 163408" d="M162.791,210.188a.431.431,0,0,1-.2-.812,25.634,25.634,0,0,1,5.705-2.049,21.691,21.691,0,0,1,4.7-.58.431.431,0,0,1,.425.436.4.4,0,0,1-.436.425,21.442,21.442,0,0,0-4.494.558,25.269,25.269,0,0,0-5.495,1.971.427.427,0,0,1-.2.05" transform="translate(-82.312 -104.815)" fill="#2f3f4f"/>
        <path id="Trazado_163409" data-name="Trazado 163409" d="M111.225,238.4a.431.431,0,0,1-.417-.325l-1.306-5.2a14.565,14.565,0,0,1,13.3-18.088l9.423-.535a.426.426,0,0,1,.455.406.431.431,0,0,1-.406.454l-9.423.535a13.7,13.7,0,0,0-12.515,17.018l1.306,5.2a.43.43,0,0,1-.313.523.446.446,0,0,1-.105.013" transform="translate(-55.291 -108.617)" fill="#2f3f4f"/>
        <path id="Trazado_163410" data-name="Trazado 163410" d="M165.527,254.3a.431.431,0,0,1-.42-.334l-1.446-6.273a.431.431,0,1,1,.84-.194l1.446,6.273a.431.431,0,0,1-.323.517.437.437,0,0,1-.1.011" transform="translate(-82.966 -125.305)" fill="#2f3f4f"/>
        <path id="Trazado_163411" data-name="Trazado 163411" d="M111.834,119.771a.431.431,0,0,1-.431-.424l-.31-19.062a.432.432,0,0,1,.424-.437.412.412,0,0,1,.438.424l.31,19.062a.431.431,0,0,1-.424.437Z" transform="translate(-56.321 -50.62)" fill="#0f0a1c"/>
        <path id="Trazado_163412" data-name="Trazado 163412" d="M224.723,124.227a.43.43,0,0,1-.266-.092l-8.739-6.869a.431.431,0,0,1,.532-.678l8.739,6.869a.431.431,0,0,1-.267.77" transform="translate(-109.28 -59.06)" fill="#0f0a1c"/>
        <path id="Trazado_163413" data-name="Trazado 163413" d="M267.051,377.29a3.016,3.016,0,1,1-3.015-3.015,3.015,3.015,0,0,1,3.015,3.015" transform="translate(-132.33 -189.747)" fill="#0f0a1c"/>
      </g>
    </g>
    <rect id="Rectángulo_42861" data-name="Rectángulo 42861" width="261" height="225" transform="translate(1090 452)" fill="none"/>
  </g>
</svg>
