<svg xmlns="http://www.w3.org/2000/svg" width="236" height="63" viewBox="0 0 236 63">
  <g id="Grupo_170193" data-name="Grupo 170193" transform="translate(-1116 -4625)">
    <rect id="Rectángulo_42474" data-name="Rectángulo 42474" width="236" height="63" transform="translate(1116 4625)" fill="#c4d1ff"/>
    <path id="Trazado_165151" data-name="Trazado 165151" d="M10.617,14.729a4.786,4.786,0,0,1-.905,2.351,4.922,4.922,0,0,1-1.969,1.573,6,6,0,0,1-2.619.523,4.428,4.428,0,0,1-2.206-.584,3.874,3.874,0,0,1-1.481-1.617,5.976,5.976,0,0,1-.611-2.439,11.963,11.963,0,0,1,.224-2.689A8.526,8.526,0,0,1,2.07,8.989,6.374,6.374,0,0,1,3.814,7.012a5.264,5.264,0,0,1,3.252-.984,4.318,4.318,0,0,1,3.151,1.226A4.932,4.932,0,0,1,11.5,10.563L8.93,10.554a2.69,2.69,0,0,0-.483-1.775,1.972,1.972,0,0,0-1.5-.6,2.608,2.608,0,0,0-2.167.94A5.656,5.656,0,0,0,3.639,12a15.925,15.925,0,0,0-.246,2.751,2.738,2.738,0,0,0,.519,1.709,1.736,1.736,0,0,0,1.327.576,2.65,2.65,0,0,0,1.885-.558,2.953,2.953,0,0,0,.936-1.727ZM16.98,9.314a3.814,3.814,0,0,1,2.167.646,3.638,3.638,0,0,1,1.336,1.731,5.357,5.357,0,0,1,.3,2.448,5.786,5.786,0,0,1-1.578,3.669,4.455,4.455,0,0,1-3.4,1.367,3.8,3.8,0,0,1-2.145-.637,3.624,3.624,0,0,1-1.336-1.718,5.239,5.239,0,0,1-.308-2.426,5.957,5.957,0,0,1,1.6-3.744A4.363,4.363,0,0,1,16.98,9.314Zm-2.5,5.979a2.194,2.194,0,0,0,.4,1.33,1.314,1.314,0,0,0,1.063.5,1.926,1.926,0,0,0,1.793-1.049,5.227,5.227,0,0,0,.606-2.848,2.387,2.387,0,0,0-.409-1.347,1.293,1.293,0,0,0-1.068-.522,1.929,1.929,0,0,0-1.771,1.04A5.173,5.173,0,0,0,14.476,15.294ZM30.63,14.271a7.854,7.854,0,0,1-.782,2.654,4.3,4.3,0,0,1-1.485,1.723,3.44,3.44,0,0,1-1.969.536,2.745,2.745,0,0,1-2.18-1.028l-.87,4.5H20.865L23.142,9.49l2.285-.009-.167.958a3.036,3.036,0,0,1,2.426-1.125,2.7,2.7,0,0,1,2.171,1.015,4.412,4.412,0,0,1,.826,2.659A10.274,10.274,0,0,1,30.63,14.271Zm-2.461-.18.053-.845a2.351,2.351,0,0,0-.312-1.356,1.12,1.12,0,0,0-.962-.519,2.046,2.046,0,0,0-1.784.915l-.712,3.926a1.387,1.387,0,0,0,1.4.924,1.789,1.789,0,0,0,1.494-.7A4.763,4.763,0,0,0,28.169,14.091Zm7.277,1.288L38.162,9.49h2.76L35.358,20.433a4.76,4.76,0,0,1-1.4,1.846,3.063,3.063,0,0,1-1.859.589,5.665,5.665,0,0,1-1.2-.185l.185-1.934.343.018a1.858,1.858,0,0,0,1.775-.888l.545-1.011L32.194,9.49h2.566Zm10.3-1.547A14.853,14.853,0,0,1,47.624,8.22a8.072,8.072,0,0,1,3.652-3.45L51.7,6.186q-3.006,2.294-3.806,7.374a21.8,21.8,0,0,0-.29,3.094q-.044,3.612,1.652,5.019L48.7,23a5.771,5.771,0,0,1-2.654-3.647,12.229,12.229,0,0,1-.448-3.727,14.761,14.761,0,0,1,.114-1.582Zm10.749.712H51.68l.352-2.048h4.825Zm5.309.835L64.521,9.49h2.76L61.717,20.433a4.76,4.76,0,0,1-1.4,1.846,3.063,3.063,0,0,1-1.859.589,5.665,5.665,0,0,1-1.2-.185l.185-1.934.343.018a1.858,1.858,0,0,0,1.775-.888l.545-1.011L58.553,9.49h2.566Zm15.486-3.542h3.076l-.4,2.294H76.9l-.624,3.586H73.907l.624-3.586H71.438l.4-2.294h3.085l.6-3.437h2.364ZM87.732,19h-2.5l1.652-9.51h2.5ZM87.179,7.073a1.238,1.238,0,0,1,.387-.976,1.488,1.488,0,0,1,1.951-.044,1.233,1.233,0,0,1,.431.932,1.273,1.273,0,0,1-.365.949,1.367,1.367,0,0,1-1,.422,1.39,1.39,0,0,1-.971-.334A1.227,1.227,0,0,1,87.179,7.073Zm2.136,15.952-.422-1.389q3.015-2.329,3.806-7.453a21.685,21.685,0,0,0,.272-3.032q.044-3.612-1.635-5.027L91.89,4.8a5.136,5.136,0,0,1,1.78,1.639,7.566,7.566,0,0,1,1.1,2.6,13.051,13.051,0,0,1,.338,3.129,15.6,15.6,0,0,1-.844,4.75,12.419,12.419,0,0,1-2.07,3.872A7.515,7.515,0,0,1,89.314,23.025Zm17.429-11.188h3.076l-.4,2.294h-3.067l-.624,3.586h-2.364l.624-3.586H100.89l.4-2.294h3.085l.6-3.437h2.364Zm12.34,7.339a4.137,4.137,0,0,1-2.21-.611,3.7,3.7,0,0,1-1.437-1.652,4.605,4.605,0,0,1-.369-2.316l.026-.352A6.148,6.148,0,0,1,115.9,11.7a4.884,4.884,0,0,1,1.74-1.789A4.306,4.306,0,0,1,120,9.314a3.29,3.29,0,0,1,2.782,1.351A4.631,4.631,0,0,1,123.5,14l-.141,1.083h-5.827a2.041,2.041,0,0,0,.448,1.477,1.711,1.711,0,0,0,1.318.571,3.041,3.041,0,0,0,2.373-1.055l1.134,1.406a3.527,3.527,0,0,1-1.547,1.261A5.059,5.059,0,0,1,119.083,19.176Zm.791-7.813a1.761,1.761,0,0,0-1.217.431,3.784,3.784,0,0,0-.954,1.556h3.41l.053-.229a2.33,2.33,0,0,0,.009-.668,1.276,1.276,0,0,0-.431-.8A1.35,1.35,0,0,0,119.874,11.362Zm8.938-2.057a2.706,2.706,0,0,1,2.145,1.063l.932-4.869h2.487L132.038,19h-2.215l.141-1.02a3.078,3.078,0,0,1-2.479,1.2,2.738,2.738,0,0,1-1.556-.466A2.933,2.933,0,0,1,124.9,17.4a5.292,5.292,0,0,1-.4-1.912,7.2,7.2,0,0,1,.026-1.072l.053-.4a7.613,7.613,0,0,1,.813-2.566,4.237,4.237,0,0,1,1.477-1.644A3.481,3.481,0,0,1,128.813,9.306Zm-1.8,5.115a7.118,7.118,0,0,0-.044,1.125q.088,1.547,1.248,1.573a2.121,2.121,0,0,0,1.819-.984l.677-3.779a1.4,1.4,0,0,0-1.371-.984,1.806,1.806,0,0,0-1.507.7A4.7,4.7,0,0,0,127.011,14.421Zm20.426-1.978H139.8l.369-2.074h7.638Zm-.659,3.806H139.14l.369-2.074h7.638Zm10.362.888a1.628,1.628,0,0,0,1.143-.374,1.836,1.836,0,0,0,.6-1.042l2.329-.009a3.416,3.416,0,0,1-.628,1.8,3.818,3.818,0,0,1-1.512,1.248,4.327,4.327,0,0,1-1.991.422,3.514,3.514,0,0,1-2.742-1.2,4.461,4.461,0,0,1-.976-3.111l.026-.483.009-.1a5.945,5.945,0,0,1,1.564-3.678,4.231,4.231,0,0,1,3.278-1.305,3.428,3.428,0,0,1,2.553,1.05,3.71,3.71,0,0,1,.927,2.676h-2.312a1.947,1.947,0,0,0-.334-1.2,1.269,1.269,0,0,0-1-.475q-1.775-.053-2.153,2.593a8.755,8.755,0,0,0-.1,1.617Q155.909,17.11,157.14,17.137Zm10.468-7.822a3.814,3.814,0,0,1,2.167.646,3.638,3.638,0,0,1,1.336,1.731,5.357,5.357,0,0,1,.3,2.448,5.786,5.786,0,0,1-1.578,3.669,4.455,4.455,0,0,1-3.4,1.367,3.8,3.8,0,0,1-2.145-.637,3.624,3.624,0,0,1-1.336-1.718,5.239,5.239,0,0,1-.308-2.426,5.957,5.957,0,0,1,1.6-3.744A4.363,4.363,0,0,1,167.607,9.314Zm-2.5,5.979a2.194,2.194,0,0,0,.4,1.33,1.314,1.314,0,0,0,1.063.5,1.926,1.926,0,0,0,1.793-1.049,5.227,5.227,0,0,0,.606-2.848,2.387,2.387,0,0,0-.409-1.347,1.293,1.293,0,0,0-1.068-.522,1.929,1.929,0,0,0-1.771,1.04A5.173,5.173,0,0,0,165.1,15.294Zm16.154-1.022a7.854,7.854,0,0,1-.782,2.654,4.3,4.3,0,0,1-1.485,1.723,3.44,3.44,0,0,1-1.969.536,2.745,2.745,0,0,1-2.18-1.028l-.87,4.5h-2.479L173.769,9.49l2.285-.009-.167.958a3.036,3.036,0,0,1,2.426-1.125,2.7,2.7,0,0,1,2.171,1.015,4.412,4.412,0,0,1,.826,2.659A10.274,10.274,0,0,1,181.257,14.271Zm-2.461-.18.053-.845a2.351,2.351,0,0,0-.312-1.356,1.12,1.12,0,0,0-.962-.519,2.046,2.046,0,0,0-1.784.915l-.712,3.926a1.387,1.387,0,0,0,1.4.924,1.789,1.789,0,0,0,1.494-.7A4.763,4.763,0,0,0,178.8,14.091ZM184.658,19h-2.5l1.652-9.51h2.5ZM184.1,7.073a1.238,1.238,0,0,1,.387-.976,1.488,1.488,0,0,1,1.951-.044,1.233,1.233,0,0,1,.431.932,1.273,1.273,0,0,1-.365.949,1.367,1.367,0,0,1-1,.422,1.39,1.39,0,0,1-.971-.334A1.227,1.227,0,0,1,184.1,7.073Zm7.172,12.1a4.137,4.137,0,0,1-2.21-.611,3.7,3.7,0,0,1-1.437-1.652,4.605,4.605,0,0,1-.369-2.316l.026-.352a6.148,6.148,0,0,1,.809-2.549,4.884,4.884,0,0,1,1.74-1.789,4.306,4.306,0,0,1,2.355-.593,3.29,3.29,0,0,1,2.782,1.351A4.631,4.631,0,0,1,195.688,14l-.141,1.083h-5.827a2.041,2.041,0,0,0,.448,1.477,1.711,1.711,0,0,0,1.318.571,3.041,3.041,0,0,0,2.373-1.055l1.134,1.406a3.527,3.527,0,0,1-1.547,1.261A5.059,5.059,0,0,1,191.276,19.176Zm.791-7.813a1.761,1.761,0,0,0-1.217.431,3.784,3.784,0,0,0-.954,1.556h3.41l.053-.229a2.33,2.33,0,0,0,.009-.668,1.276,1.276,0,0,0-.431-.8A1.35,1.35,0,0,0,192.067,11.362Zm8.938-2.057a2.706,2.706,0,0,1,2.145,1.063l.932-4.869h2.487L204.231,19h-2.215l.141-1.02a3.078,3.078,0,0,1-2.479,1.2,2.738,2.738,0,0,1-1.556-.466A2.933,2.933,0,0,1,197.09,17.4a5.292,5.292,0,0,1-.4-1.912,7.2,7.2,0,0,1,.026-1.072l.053-.4a7.613,7.613,0,0,1,.813-2.566,4.237,4.237,0,0,1,1.477-1.644A3.481,3.481,0,0,1,201.006,9.306Zm-1.8,5.115a7.118,7.118,0,0,0-.044,1.125q.088,1.547,1.248,1.573a2.121,2.121,0,0,0,1.819-.984l.677-3.779a1.4,1.4,0,0,0-1.371-.984,1.806,1.806,0,0,0-1.507.7A4.7,4.7,0,0,0,199.2,14.421ZM10.9,38.939a4.708,4.708,0,0,1-1.5,3.133,4.911,4.911,0,0,1-3.353,1.1A4.509,4.509,0,0,1,2.413,41.55,6.542,6.542,0,0,1,1.046,37.2v-1.23a7.291,7.291,0,0,1,.637-3.138,4.76,4.76,0,0,1,1.806-2.079A5.029,5.029,0,0,1,6.2,30.027a4.624,4.624,0,0,1,3.27,1.138A4.765,4.765,0,0,1,10.9,34.316H9.2a3.677,3.677,0,0,0-.954-2.222A2.885,2.885,0,0,0,6.2,31.407a3.019,3.019,0,0,0-2.536,1.2,5.492,5.492,0,0,0-.918,3.4v1.24a5.645,5.645,0,0,0,.87,3.316A2.812,2.812,0,0,0,6.047,41.8,3.247,3.247,0,0,0,8.2,41.159a3.536,3.536,0,0,0,1-2.219Zm1.617-.782a5.617,5.617,0,0,1,.549-2.514,4.1,4.1,0,0,1,1.529-1.723,4.163,4.163,0,0,1,2.237-.606,4.01,4.01,0,0,1,3.142,1.345,5.174,5.174,0,0,1,1.2,3.577v.114a5.666,5.666,0,0,1-.532,2.492,4.038,4.038,0,0,1-1.521,1.718,4.211,4.211,0,0,1-2.272.615,4,4,0,0,1-3.133-1.345,5.147,5.147,0,0,1-1.2-3.56Zm1.635.193a4.068,4.068,0,0,0,.734,2.54,2.487,2.487,0,0,0,3.933-.013,4.449,4.449,0,0,0,.729-2.72,4.061,4.061,0,0,0-.743-2.536,2.361,2.361,0,0,0-1.973-.971,2.335,2.335,0,0,0-1.942.958A4.416,4.416,0,0,0,14.15,38.351Zm17.095,0a5.694,5.694,0,0,1-.993,3.5,3.183,3.183,0,0,1-2.689,1.327,3.488,3.488,0,0,1-2.725-1.1v4.579H23.212V33.49H24.7l.079,1.055a3.35,3.35,0,0,1,2.76-1.23,3.243,3.243,0,0,1,2.711,1.292,5.756,5.756,0,0,1,1,3.595Zm-1.626-.185a4.2,4.2,0,0,0-.686-2.54,2.208,2.208,0,0,0-1.881-.932A2.39,2.39,0,0,0,24.838,36v4.544a2.4,2.4,0,0,0,2.232,1.3,2.2,2.2,0,0,0,1.859-.927A4.587,4.587,0,0,0,29.619,38.166ZM35.077,43H33.451V33.49h1.626ZM33.319,30.968a.971.971,0,0,1,.242-.668.907.907,0,0,1,.716-.272A.922.922,0,0,1,35,30.3a.96.96,0,0,1,.246.668.929.929,0,0,1-.246.659.938.938,0,0,1-.721.264.924.924,0,0,1-.716-.264A.938.938,0,0,1,33.319,30.968ZM43.55,43a3.416,3.416,0,0,1-.229-1,3.628,3.628,0,0,1-2.707,1.178,3.357,3.357,0,0,1-2.307-.8,2.573,2.573,0,0,1-.9-2.017,2.688,2.688,0,0,1,1.129-2.307,5.325,5.325,0,0,1,3.177-.822h1.582v-.747a1.826,1.826,0,0,0-.51-1.358,2.049,2.049,0,0,0-1.5-.505,2.371,2.371,0,0,0-1.459.439,1.3,1.3,0,0,0-.589,1.063H37.6a2.244,2.244,0,0,1,.505-1.375,3.449,3.449,0,0,1,1.371-1.05,4.613,4.613,0,0,1,1.9-.387,3.759,3.759,0,0,1,2.575.822,2.964,2.964,0,0,1,.967,2.263v4.377a5.351,5.351,0,0,0,.334,2.083V43Zm-2.7-1.239a2.858,2.858,0,0,0,1.45-.4,2.392,2.392,0,0,0,.993-1.028V38.386H42.021q-2.988,0-2.988,1.749a1.48,1.48,0,0,0,.51,1.2A1.959,1.959,0,0,0,40.852,41.761Zm11.215-6.812a4.873,4.873,0,0,0-.8-.062A2.143,2.143,0,0,0,49.1,36.25V43H47.47V33.49h1.582l.026,1.1a2.532,2.532,0,0,1,2.268-1.274,1.661,1.661,0,0,1,.721.123Zm11.206,2.215H73.731L72.65,36.109v-1.3l2.813,2.918v.035L72.65,40.68v-1.3l1.063-1.037H63.272Zm27.457,4.685a2.342,2.342,0,0,0,1.521-.527A1.855,1.855,0,0,0,92.971,40h1.538a2.949,2.949,0,0,1-.562,1.556,3.7,3.7,0,0,1-1.384,1.178,3.994,3.994,0,0,1-1.833.439,3.918,3.918,0,0,1-3.089-1.3,5.163,5.163,0,0,1-1.147-3.546v-.272a5.725,5.725,0,0,1,.51-2.47,3.883,3.883,0,0,1,1.463-1.679,4.157,4.157,0,0,1,2.254-.6,3.814,3.814,0,0,1,2.659.958,3.424,3.424,0,0,1,1.129,2.487H92.971a2.241,2.241,0,0,0-.7-1.516,2.174,2.174,0,0,0-1.551-.593,2.276,2.276,0,0,0-1.92.892,4.19,4.19,0,0,0-.681,2.58v.308a4.106,4.106,0,0,0,.677,2.531A2.287,2.287,0,0,0,90.729,41.849Zm5.177-3.691a5.617,5.617,0,0,1,.549-2.514,4.1,4.1,0,0,1,1.529-1.723,4.163,4.163,0,0,1,2.237-.606,4.01,4.01,0,0,1,3.142,1.345,5.174,5.174,0,0,1,1.2,3.577v.114a5.666,5.666,0,0,1-.532,2.492,4.038,4.038,0,0,1-1.521,1.718,4.211,4.211,0,0,1-2.272.615,4,4,0,0,1-3.133-1.345,5.147,5.147,0,0,1-1.2-3.56Zm1.635.193a4.068,4.068,0,0,0,.734,2.54,2.487,2.487,0,0,0,3.933-.013,4.449,4.449,0,0,0,.729-2.72,4.061,4.061,0,0,0-.743-2.536,2.361,2.361,0,0,0-1.973-.971,2.335,2.335,0,0,0-1.942.958A4.416,4.416,0,0,0,97.541,38.351Zm17.095,0a5.694,5.694,0,0,1-.993,3.5,3.183,3.183,0,0,1-2.689,1.327,3.488,3.488,0,0,1-2.725-1.1v4.579H106.6V33.49h1.485l.079,1.055a3.35,3.35,0,0,1,2.76-1.23,3.243,3.243,0,0,1,2.711,1.292,5.756,5.756,0,0,1,1,3.595Zm-1.626-.185a4.2,4.2,0,0,0-.686-2.54,2.208,2.208,0,0,0-1.881-.932A2.39,2.39,0,0,0,108.229,36v4.544a2.4,2.4,0,0,0,2.232,1.3,2.2,2.2,0,0,0,1.859-.927A4.587,4.587,0,0,0,113.01,38.166ZM118.468,43h-1.626V33.49h1.626ZM116.71,30.968a.971.971,0,0,1,.242-.668.907.907,0,0,1,.716-.272.922.922,0,0,1,.721.272.96.96,0,0,1,.246.668.929.929,0,0,1-.246.659.938.938,0,0,1-.721.264.924.924,0,0,1-.716-.264A.938.938,0,0,1,116.71,30.968ZM126.94,43a3.416,3.416,0,0,1-.229-1A3.628,3.628,0,0,1,124,43.176a3.357,3.357,0,0,1-2.307-.8,2.573,2.573,0,0,1-.9-2.017,2.688,2.688,0,0,1,1.129-2.307,5.325,5.325,0,0,1,3.177-.822h1.582v-.747a1.826,1.826,0,0,0-.51-1.358,2.049,2.049,0,0,0-1.5-.505,2.371,2.371,0,0,0-1.459.439,1.3,1.3,0,0,0-.589,1.063H120.99a2.244,2.244,0,0,1,.505-1.375,3.449,3.449,0,0,1,1.371-1.05,4.613,4.613,0,0,1,1.9-.387,3.759,3.759,0,0,1,2.575.822,2.964,2.964,0,0,1,.967,2.263v4.377a5.351,5.351,0,0,0,.334,2.083V43Zm-2.7-1.239a2.858,2.858,0,0,0,1.45-.4,2.392,2.392,0,0,0,.993-1.028V38.386h-1.274q-2.988,0-2.988,1.749a1.48,1.48,0,0,0,.51,1.2A1.959,1.959,0,0,0,124.242,41.761Zm6.223-3.595a5.571,5.571,0,0,1,1.037-3.52,3.529,3.529,0,0,1,5.361-.189V29.5h1.626V43H137l-.079-1.02a3.311,3.311,0,0,1-2.716,1.2,3.248,3.248,0,0,1-2.694-1.354,5.634,5.634,0,0,1-1.042-3.533Zm1.626.185a4.218,4.218,0,0,0,.668,2.531,2.159,2.159,0,0,0,1.846.914,2.372,2.372,0,0,0,2.259-1.389V36.039a2.39,2.39,0,0,0-2.241-1.345,2.17,2.17,0,0,0-1.863.923A4.644,4.644,0,0,0,132.091,38.351Zm8.49-.193a5.617,5.617,0,0,1,.549-2.514,4.1,4.1,0,0,1,1.529-1.723,4.163,4.163,0,0,1,2.237-.606,4.01,4.01,0,0,1,3.142,1.345,5.174,5.174,0,0,1,1.2,3.577v.114a5.666,5.666,0,0,1-.532,2.492,4.038,4.038,0,0,1-1.521,1.718,4.211,4.211,0,0,1-2.272.615,4,4,0,0,1-3.133-1.345,5.147,5.147,0,0,1-1.2-3.56Zm1.635.193a4.068,4.068,0,0,0,.734,2.54,2.487,2.487,0,0,0,3.933-.013,4.449,4.449,0,0,0,.729-2.72,4.061,4.061,0,0,0-.743-2.536,2.361,2.361,0,0,0-1.973-.971,2.335,2.335,0,0,0-1.942.958A4.416,4.416,0,0,0,142.216,38.351Z" transform="translate(1128 4634)" fill="#12263f"/>
  </g>
</svg>
