<svg xmlns="http://www.w3.org/2000/svg" xmlns:xlink="http://www.w3.org/1999/xlink" width="105" height="105" viewBox="0 0 105 105">
  <defs>
    <clipPath id="clip-path">
      <rect id="Rectángulo_42908" data-name="Rectángulo 42908" width="83.524" height="53.917" fill="none"/>
    </clipPath>
  </defs>
  <g id="Grupo_170127" data-name="Grupo 170127" transform="translate(-4513 8847)">
    <path id="Trazado_164421" data-name="Trazado 164421" d="M52.5,0A52.5,52.5,0,1,1,0,52.5,52.5,52.5,0,0,1,52.5,0Z" transform="translate(4513 -8847)" fill="#e1e8ff"/>
    <g id="Grupo_170126" data-name="Grupo 170126" transform="translate(4523 -8821)">
      <g id="Grupo_170125" data-name="Grupo 170125" transform="translate(0 0)" clip-path="url(#clip-path)">
        <path id="Trazado_164944" data-name="Trazado 164944" d="M8.646,29.579A1.266,1.266,0,0,1,7.466,28.1c.046-.532-.182-.622-.658-.626-1.372-.012-1.79-.454-1.8-1.813Q5,23.383,5.013,21.1c.005-1.113.242-1.453,1.3-1.731a.537.537,0,0,0,.438-.476c.179-.681.369-1.359.559-2.038a1.806,1.806,0,0,1,2.1-1.6c1.44-.007,2.881-.019,4.321.007.506.009.75-.067.825-.669.248-2.019.57-4.03.9-6.038.076-.468-.018-.66-.5-.778-1.553-.379-3.091-.815-4.635-1.23A2.2,2.2,0,0,1,8.552,3.492c.145-.55.288-1.1.438-1.65A2.17,2.17,0,0,1,12.021.149c2.2.583,4.4,1.158,6.6,1.763a3.39,3.39,0,0,0,1.9-.01c2.19-.618,4.395-1.186,6.6-1.767a2.134,2.134,0,0,1,2.967,1.671q.271.937.509,1.883A2.124,2.124,0,0,1,28.972,6.5q-2.348.659-4.717,1.243c-.509.126-.721.336-.6.878a1.279,1.279,0,0,1-1.006,1.648c-.646.213-1.166-.06-1.47-.8a7.6,7.6,0,0,1-.352-1.752c-.115-.751-.21-1.505-.33-2.256a.645.645,0,0,0-.63-.618,57.935,57.935,0,0,1-6.8-1.654c-.317-.074-.628-.173-.945-.251a.572.572,0,0,0-.779.483c-.123.447.069.65.478.767,1.332.382,2.676.714,4.012,1.077,1.89.514,2.548,1.461,2.286,3.405q-.37,2.744-.81,5.478c-.1.6.068.856.7.84,1.058-.027,2.118-.014,3.177,0a.767.767,0,0,0,.848-.578c.174-.5.48-.922,1.126-.825a1.343,1.343,0,0,1,1.422,1.279c.041.382.237.408.543.407q5.87-.01,11.741,0c.391,0,.58-.106.669-.512.168-.767.4-1.52.613-2.276a1.482,1.482,0,0,1,1.694-1.294c.951-.012,1.9-.017,2.854,0,.383.008.515-.106.519-.506a1.641,1.641,0,0,0-.779-1.736,3.129,3.129,0,0,1-1.168-3.679A3.321,3.321,0,1,1,46.32,9.042a1.947,1.947,0,0,0-.666,1.928c.088.28.284.205.453.205,1.957.006,3.914-.013,5.871.014.573.008.5-.329.5-.687q0-3.954,0-7.908A1.412,1.412,0,0,1,52.869,1.4a1.17,1.17,0,0,1,1.286-.227,1.19,1.19,0,0,1,.763,1.151c.024.951.01,1.9.01,2.853,0,1.767.041,3.535-.02,5.3-.024.694.274.72.8.715s.909,0,.867-.754c-.073-1.3-.03-2.608-.016-3.913.009-.884.493-1.428,1.219-1.42S58.989,5.664,59,6.548c.018,1.3.032,2.61-.007,3.913-.017.551.1.762.7.732,1.03-.051,2.067.03,3.1-.026a2.089,2.089,0,0,1,2.166,1.223c1.13,2.07,2.378,4.074,3.506,6.144a1.344,1.344,0,0,0,1.461.817c.92-.061,1.847-.026,2.771-.012,1.178.018,1.691.532,1.7,1.7.007,1.6-.007,3.207.006,4.81a1.41,1.41,0,0,1-.4,1.192c-.352.285-.334.485-.118.85q1.881,3.186,3.7,6.409a.851.851,0,0,0,.9.49c1.06-.027,2.122.032,3.179-.022a1.82,1.82,0,0,1,1.874.992v.816C81.569,39.946,79.6,43.316,77.661,46.7A13.435,13.435,0,0,1,65.24,53.917q-28.011-.007-56.024,0c-2.627,0-4-1.064-4.684-3.607-.361-1.334-.742-2.663-1.076-4-.1-.4-.23-.579-.687-.59C.594,45.66,0,45.026,0,42.844Q0,39.623,0,36.4C0,35.18.4,34.78,1.592,34.778c1.712,0,3.425-.02,5.137.011.532.009.784-.074.744-.689-.049-.78.438-1.178,1.172-1.308a.613.613,0,0,1,.616-.053,1.628,1.628,0,0,1,.863,1.127.81.81,0,0,0,.9.643c.325,0,.652,0,.978,0H64.3a11.3,11.3,0,0,1,1.3.03,1.555,1.555,0,0,1,1.509,1.34,1.522,1.522,0,0,1-1.526,1.571,12.445,12.445,0,0,1-1.385.028H4.28c-1.57,0-1.571,0-1.571,1.555,0,1.033.015,2.066,0,3.1-.012.627.253.868.871.865q3.546-.016,7.092,0a1.039,1.039,0,0,0,1.176-.867,13.129,13.129,0,0,1,.586-1.779,2.358,2.358,0,0,1,2.173-1.58c.353-.023.706-.018,1.06-.018H63.515c.326,0,.652,0,.978.014a2.376,2.376,0,0,1,2.3,1.641c.233.61.4,1.242.612,1.858a.951.951,0,0,0,.946.737,1.908,1.908,0,0,1,1.275.466,1.426,1.426,0,0,1,.288,1.658,1.465,1.465,0,0,1-1.47.828c-.462.02-.923-.026-1.385-.026q-29.8.005-59.607.006a2.262,2.262,0,0,0-1.039.095c-.255.223-.151.491-.075.741.279.917.468,1.859.757,2.775.512,1.471.715,1.618,2.307,1.618q28.373,0,56.746-.016a9.74,9.74,0,0,0,8-4.049,76.669,76.669,0,0,0,4.4-7.335c.417-.7.837-1.4,1.268-2.282-2.236-.036-4.386,0-6.536-.018-.564-.018-1.127.022-1.69-.014-1-.065-1.393-.429-1.6-1.459.214-1.038.609-1.4,1.633-1.46.759-.043,1.52-.012,2.281-.016.473,0,.553-.175.353-.6A2.1,2.1,0,0,0,72.1,32.563q-21.794-.01-43.589,0c-.38,0-.761.012-1.141-.015a1.274,1.274,0,0,1-1.084-1.332,1.361,1.361,0,0,1,.89-1.339,3.884,3.884,0,0,1,1.84-.252q17.574,0,35.147,0c1.223,0,2.446-.03,3.669.02.978-.039,1.956,0,2.934-.019.847-.014.861-.078.527-.815a1.843,1.843,0,0,0-1.936-1.129c-13.533-.043-27.068.006-40.6-.014-.462,0-.924.018-1.386-.024a1.377,1.377,0,0,1-1.088-1.435,1.555,1.555,0,0,1,1.229-1.357,3.958,3.958,0,0,1,1.131-.121q18.38-.007,36.76,0c.217,0,.434.028.651.024,1.547-.05,3.1,0,4.644-.025.885-.013.955-.093.98-.993.048-1.742.047-1.733-1.717-1.744-8.175-.053-16.35-.019-24.525-.03a6.992,6.992,0,0,1-1.058-.039c-.8-.358-1.111-.815-1.036-1.542a1.473,1.473,0,0,1,1.3-1.273,6.292,6.292,0,0,1,1.381-.081q9.3,0,18.6,0c.19,0,.38.008.57,0,.342-.016.345-.192.2-.428a1.186,1.186,0,0,0-.882-.651,9.887,9.887,0,0,0-1.059-.035h-17.7a7.008,7.008,0,0,1-1.221-.051,1.307,1.307,0,0,1-1.168-1.181,1.358,1.358,0,0,1,.847-1.513,2.624,2.624,0,0,1,1.113-.211c5,0,10-.03,15.006.011.731-.031,1.464,0,2.2-.016.187,0,.426.035.514-.16.1-.221-.078-.4-.206-.58a1.059,1.059,0,0,0-.942-.376c-.868-.007-1.736-.027-2.6-.028q-8.75-.008-17.5,0c-.371,0-.767-.087-1.087.2a1.915,1.915,0,0,0-.4.882c-.5,1.722-.93,3.462-1.408,5.188-.458,1.65-.769,1.9-2.516,1.9q-13.44,0-26.882,0c-1.849,0-1.739-.173-1.731,1.788,0,.882.086.96,1,.967,1.683.012,3.367,0,5.05,0a4.492,4.492,0,0,1,1.214.106,1.463,1.463,0,0,1,1.171,1.545,1.323,1.323,0,0,1-1.42,1.273c-1.112.064-2.227.047-3.339.013-.737-.023-1.209.1-1.393.959a1.053,1.053,0,0,1-1.4.943" transform="translate(0 0)"/>
        <path id="Trazado_164945" data-name="Trazado 164945" d="M12.165,36.1a1.31,1.31,0,0,0,1.249-1.511c-.024-.48.156-.6.608-.587,1.331.026,2.663.017,3.995.007.995-.008,1.5-.425,1.505-1.2S19,31.577,18.036,31.572c-2.12-.012-4.24-.025-6.359.011-.577.009-.769-.148-.708-.721.089-.826-.347-1.907.181-2.422.487-.474,1.553-.128,2.363-.129q13.209-.013,26.417-.006c1.579,0,1.817-.208,2.248-1.748.588-2.1,1.022-4.252,1.769-6.311a1.069,1.069,0,0,1,.56-.066q9.049,0,18.1,0a1.167,1.167,0,0,1,1.274,1.556c-2.416.014-4.832.035-7.248.041-2.635.007-5.269,0-7.9.006a3.1,3.1,0,0,0-.882.095,1.093,1.093,0,0,0-.809,1.25,1.08,1.08,0,0,0,.955,1.055,5.173,5.173,0,0,0,.894.041c6.084,0,12.169.044,18.252-.033,1.279-.016,2.033.345,2.388,1.627-.272.012-.552.037-.832.037q-9.778,0-19.557,0c-.217,0-.434,0-.652,0a1.246,1.246,0,0,0-1.4.866,1.212,1.212,0,0,0,.811,1.561,2.842,2.842,0,0,0,.888.047q10.371,0,20.742.009c.272,0,.639-.152.784.229a.763.763,0,0,1-.3.938.944.944,0,0,0-.386,1.475.471.471,0,0,1-.033.539c-.324.015-.649.043-.973.043q-18.139,0-36.279,0c-.272,0-.544,0-.815,0-.721-.013-1.309.207-1.474.986A1.2,1.2,0,0,0,30.932,34a3.694,3.694,0,0,0,.973.043q19.064,0,38.127,0c1.555,0,2.062.89,1.352,2.371-.352.015-.7.044-1.055.044q-19.156,0-38.311,0a6.075,6.075,0,0,0-.975.039,1.12,1.12,0,0,0-1.021,1.1,1.164,1.164,0,0,0,.911,1.3,3.812,3.812,0,0,0,.973.041q17.685,0,35.37,0a3.652,3.652,0,0,1,.973.049c.022.38-.271.373-.482.413a7.013,7.013,0,0,1-1.3.045q-26.4.01-52.81.009a4.048,4.048,0,0,1-1.049-.091l-.441-.048V36.1" transform="translate(-3.52 -6.525)" fill="#f0f3f5"/>
        <path id="Trazado_164946" data-name="Trazado 164946" d="M28.415,14.79c-.587.242-1.056.582-1.016,1.3.021.374-.219.371-.475.371-1.412,0-2.825-.016-4.237.009-.52.009-.491-.267-.437-.622.292-1.93.558-3.865.872-5.791.331-2.034-.177-2.86-2.169-3.4-1.439-.388-2.876-.786-4.322-1.145-.392-.1-.462-.225-.349-.61.431-1.473.131-1.23,1.5-.884q3.27.826,6.527,1.706c.5.133,1.2-.137,1.459.249A4.505,4.505,0,0,1,26.129,7.7c.125.8.235,1.61.345,2.416A1.353,1.353,0,0,0,27.9,11.483q.259,1.654.517,3.308" transform="translate(-5.25 -1.217)" fill="#dc636e"/>
        <path id="Trazado_164947" data-name="Trazado 164947" d="M76.066,55.054h6.919c.051.29-.147.471-.262.671q-2.208,3.849-4.434,7.688a10.943,10.943,0,0,1-10.1,5.854q-28.088-.009-56.175,0c-1.553,0-2.007-.4-2.321-2a.923.923,0,0,1,.744-.244c1.695,0,3.391-.06,5.085.029a2.819,2.819,0,0,0,2.266.015,35.112,35.112,0,0,1,3.774-.009A2.471,2.471,0,0,0,23.8,67c1.233.042,2.465.036,3.7,0a2.484,2.484,0,0,0,2.368,0c1.232.041,2.464.037,3.695,0a2.5,2.5,0,0,0,2.228.055,35.978,35.978,0,0,1,3.763,0,2.644,2.644,0,0,0,2.206.009c1.218-.1,2.439,0,3.656-.066a.491.491,0,0,1,.318.039c.7.53,1.388.174,2.077-.034,1.225.037,2.449.03,3.673,0A2.729,2.729,0,0,0,53.869,67c1.216.063,2.434-.035,3.648.06a2.575,2.575,0,0,0,2.179.005c1.209-.111,2.427.034,3.634-.122a.786.786,0,0,1,.239.032c1.316.474,1.315.474,2.185-.672a.332.332,0,0,1,.216-.1,9.289,9.289,0,0,0,3.875-2.139,2.434,2.434,0,0,0-1.144-.13q-29.2-.005-58.394-.009c-.529,0-1.1.141-1.568-.254.227-.3.551-.139.821-.139q30.715-.012,61.431,0c.612,0,1.221.016,1.554-.629a1.33,1.33,0,0,0-.213-1.514,18.089,18.089,0,0,1,1.5-2.782c.576-1.045,1.206-2.06,1.786-3.1a.914.914,0,0,1,.451-.449" transform="translate(-2.826 -17.804)" fill="#d94a54"/>
        <path id="Trazado_164948" data-name="Trazado 164948" d="M74.4,54.36q-1.723,3.03-3.45,6.057a1.443,1.443,0,0,1-.286.277,1.862,1.862,0,0,0-1.321-.3c-.62.1-.855-.2-.984-.752-.142-.606-.358-1.194-.551-1.788a2.07,2.07,0,0,0-2.325-1.715c-1.522,0-3.045,0-4.568,0H16.3c-1.679,0-2.136.337-2.653,1.93-.242.746-.3,1.724-.807,2.164-.558.48-1.56.138-2.367.147-2.066.022-4.133-.01-6.2.019-.531.007-.693-.14-.681-.677.035-1.6.03-3.208,0-4.811-.008-.472.142-.641.6-.583a4.453,4.453,0,0,0,.57,0H66.349c1.206,0,1.539-.241,1.74-1.241a5.819,5.819,0,0,1,3.226.088,1.462,1.462,0,0,0,1.733,1.16c.449-.032.9.011,1.357.02" transform="translate(-1.164 -17.11)" fill="#dc626d"/>
        <path id="Trazado_164949" data-name="Trazado 164949" d="M15.775,71.358,9.7,71.377a32.7,32.7,0,0,1-.959-3.589H70.469a4.741,4.741,0,0,1-1.574,1.465,14.252,14.252,0,0,1-2.3,1.225c-.25.124-.549.288-.774-.073-.195-.066-.273-.246-.382-.4a.955.955,0,0,0-1.182-.422,1.012,1.012,0,0,0-.661,1.079c0,.183.074.373-.056.543a18.065,18.065,0,0,1-4,.155c-.156-.291.016-.585-.008-.879a.924.924,0,1,0-1.846,0c-.024.293.148.588-.01.879-1.108,0-2.216.012-3.324.014-.237,0-.5.05-.662-.2-.146-.2-.042-.423-.068-.634a1.1,1.1,0,0,0-1.071-1.026,1.037,1.037,0,0,0-.9,1.082c-.015.211.092.434-.059.631a10.123,10.123,0,0,1-3.918-.016c-.139-.229-.027-.476-.055-.714a.994.994,0,1,0-1.986.066c-.008.21.1.429-.059.625-.4.361-.878.16-1.316.175-.89.029-1.782,0-2.673-.009-.133-.266.015-.528.01-.792a1.008,1.008,0,0,0-.906-1.045,1.1,1.1,0,0,0-1.025,1.05c-.011.267.156.521.058.794l-4.139,0c-.106-.247.035-.475.053-.712a1.036,1.036,0,0,0-.917-1.131.993.993,0,0,0-1.02,1.014c-.014.235.118.482-.055.7a10.3,10.3,0,0,1-3.92-.039c-.171-.188-.064-.407-.069-.613a.988.988,0,1,0-1.964,0c-.006.207.1.425-.067.614-.566.367-1.2.156-1.79.157a5.309,5.309,0,0,1-2.132-.114c-.175-.222-.041-.469-.055-.7a.993.993,0,0,0-1.018-1.017,1.036,1.036,0,0,0-.919,1.129c.018.237.158.465.058.712l-4.142,0c-.094-.249.049-.475.068-.713a1.125,1.125,0,0,0-.943-1.129,1,1,0,0,0-1,1.037c-.005.267.141.529.014.8" transform="translate(-2.825 -21.922)" fill="#dc636e"/>
        <path id="Trazado_164950" data-name="Trazado 164950" d="M74.494,51.538a21.581,21.581,0,0,1-3.226-.089c-.221-.986-.523-1.2-1.679-1.2H16.555c-.38,0-.762-.021-1.14,0-.705.047-1.328.078-1.231-.959.044-.468-.394-.735-.754-.982a4.356,4.356,0,0,1,1.442-.188q26.582.008,53.165,0h1.028a1.6,1.6,0,0,0-.978-.146q-17.695-.008-35.389-.009c-.315,0-.655.109-.942-.129q22.589.006,45.177-.009a1.481,1.481,0,0,1,1.628.963,14.75,14.75,0,0,0,.806,1.451c-1.149,0-2.193,0-3.237,0-1.086,0-1.344.21-1.635,1.293" transform="translate(-4.343 -15.468)" fill="#dee9ee"/>
        <path id="Trazado_164951" data-name="Trazado 164951" d="M87.281,35.4a1.973,1.973,0,0,0-.459-.934c-.307-.474-.183-.815.334-1.021.075-.03.155-.047.231-.074a.747.747,0,0,0,.488-.844c-.048-.369-.441-.218-.683-.218Q79.1,32.3,71,32.3c-1.519,0-3.037,0-4.556,0-.288,0-.6.1-.857-.135q13.324.01,26.647,0c.723,0,1.017.148.934.917-.082.749.241,1.764-.141,2.2-.44.5-1.474.14-2.248.152-1.166.018-2.332-.021-3.5-.036" transform="translate(-21.211 -10.402)" fill="#dee9ee"/>
        <path id="Trazado_164952" data-name="Trazado 164952" d="M80.966,43.021c0-2.28,0-2.28-2.238-2.28q-18.6,0-37.19-.005c-.342,0-.71.118-1.024-.129q21.181.007,42.363,0c.77,0,1.277.145,1.578.9a13.24,13.24,0,0,0,.854,1.519Z" transform="translate(-13.102 -13.131)" fill="#dee9ee"/>
        <path id="Trazado_164953" data-name="Trazado 164953" d="M33.981,5.369c-.054-.325.147-.429.407-.5C35.694,4.529,37,4.189,38.3,3.833c.238-.065.378-.078.509.189.5,1.027.361,1.37-.721,1.659-1.017.271-2.047.5-3.045.834-.635.21-.968.156-.966-.589a3.091,3.091,0,0,0-.1-.558" transform="translate(-10.986 -1.227)" fill="#d84953"/>
        <path id="Trazado_164954" data-name="Trazado 164954" d="M79.684,21.708c-.242-1.2-.549-1.466-1.69-1.468l-18.243-.024c.267-.2.576-.1.863-.1,6.7-.005,13.406.038,20.109-.035a1.932,1.932,0,0,1,2.227,1.623Z" transform="translate(-19.323 -6.495)" fill="#dee9ee"/>
        <path id="Trazado_164955" data-name="Trazado 164955" d="M84.288,63.088a5.737,5.737,0,0,0-.89.007c-.784.123-1.015-.173-.983-.961.026-.644.145-.921.845-.861a18.384,18.384,0,0,0,2.185.007c.415-.014.555.126.57.552.045,1.256.065,1.256-1.727,1.256" transform="translate(-26.652 -19.813)" fill="#3f6f92"/>
        <path id="Trazado_164956" data-name="Trazado 164956" d="M75.261,63.1h-.567c-1.21,0-1.343-.173-1.158-1.415.04-.266.129-.386.4-.386.918,0,1.836.008,2.754,0,.319,0,.43.141.418.441a5.99,5.99,0,0,0,0,.81c.039.422-.124.586-.551.558s-.863-.006-1.3-.006" transform="translate(-23.759 -19.822)" fill="#3f6f91"/>
        <path id="Trazado_164957" data-name="Trazado 164957" d="M57.71,61.279a5.015,5.015,0,0,0,.813-.007c.817-.138,1.009.221.974.986-.028.6-.123.9-.809.836a19.356,19.356,0,0,0-2.2-.008c-.4.011-.57-.092-.585-.538-.045-1.27-.068-1.269,1.234-1.269h.57" transform="translate(-18.075 -19.806)" fill="#3f6f91"/>
        <path id="Trazado_164958" data-name="Trazado 164958" d="M48.867,63.087a6.551,6.551,0,0,0-.972.008c-.738.112-.886-.2-.9-.9-.012-.755.214-.993.952-.926a11.692,11.692,0,0,0,2.024,0c.707-.059.661.385.612.817-.045.4.3,1.065-.585,1-.376-.027-.756,0-1.135,0" transform="translate(-15.199 -19.812)" fill="#3f6f92"/>
        <path id="Trazado_164959" data-name="Trazado 164959" d="M31.182,61.282a5.479,5.479,0,0,0,.81-.006c.758-.116.976.206.967.941-.007.635-.12.943-.838.88a17.873,17.873,0,0,0-2.187-.007c-.424.015-.549-.139-.562-.559-.041-1.25-.06-1.25,1.162-1.25h.648" transform="translate(-9.495 -19.809)" fill="#3f6f91"/>
        <path id="Trazado_164960" data-name="Trazado 164960" d="M66.537,63.085a5.727,5.727,0,0,0-.889.007c-.749.118-.868-.229-.888-.9-.022-.771.244-.986.963-.915a7.9,7.9,0,0,0,1.7,0c.758-.092.884.237.88.911s-.11,1.036-.874.911a5.645,5.645,0,0,0-.889-.007" transform="translate(-20.943 -19.81)" fill="#406f92"/>
        <path id="Trazado_164961" data-name="Trazado 164961" d="M40.029,63.088a5.461,5.461,0,0,0-.809.006c-.77.118-1.033-.157-1-.959.026-.653.164-.92.859-.862a20.82,20.82,0,0,0,2.185.009c.344-.007.455.125.484.469.113,1.338.127,1.336-1.719,1.336" transform="translate(-12.36 -19.813)" fill="#406f92"/>
        <path id="Trazado_164962" data-name="Trazado 164962" d="M21.314,62.946a.218.218,0,0,1-.015-.08c.356-1.621,1.114-2.067,2.731-1.643.3.079.281.267.3.482.115,1.319.115,1.321-1.17,1.32q-.853,0-1.705-.016a.4.4,0,0,1-.141-.063" transform="translate(-6.888 -19.751)" fill="#3f6f91"/>
        <path id="Trazado_164963" data-name="Trazado 164963" d="M92.811,63.084a3.538,3.538,0,0,0-.568,0c-.755.124-.945-.194-.947-.93s.2-.982.915-.886a6.139,6.139,0,0,0,1.137.005c.353-.018.515.124.641.464.5,1.347.512,1.341-1.178,1.341" transform="translate(-29.524 -19.809)" fill="#3f6f92"/>
        <path id="Trazado_164964" data-name="Trazado 164964" d="M37.011,27.76h-.325c-1.084,0-1.377-.23-.981-1.259.326-.848,1.313-.231,1.989-.367.288-.058.635-.119.683.415.108,1.214.136,1.211-1.365,1.211" transform="translate(-11.492 -8.423)" fill="#c4daf6"/>
        <path id="Trazado_164965" data-name="Trazado 164965" d="M21.848,27.784h-.326c-1.012,0-1.223-.292-1.01-1.317.062-.3.225-.326.457-.325a10.473,10.473,0,0,0,1.383-.01c.72-.092.962.156.892.885-.087.907.167.752-1.4.767" transform="translate(-6.609 -8.445)" fill="#c2d9f4"/>
        <path id="Trazado_164966" data-name="Trazado 164966" d="M44.563,27.783H44.24c-.89,0-1.271-.572-.957-1.407.091-.242.268-.225.453-.227a10.835,10.835,0,0,0,1.293-.011c.727-.092,1,.148.928.907-.073.733-.019.738-1.393.738" transform="translate(-13.962 -8.447)" fill="#c7defa"/>
        <path id="Trazado_164967" data-name="Trazado 164967" d="M29.374,27.759h-.162c-1.166,0-1.438-.187-1.044-1.247.332-.894,1.351-.2,2.039-.378.294-.077.548-.036.58.421.083,1.206.11,1.2-1.413,1.2" transform="translate(-9.055 -8.423)" fill="#c7defa"/>
        <path id="Trazado_164968" data-name="Trazado 164968" d="M52,26.14c1.194,0,1.413.355.788,1.384-.342.562-.986.144-1.484.243-.158.032-.43.081-.432-.2,0-.45-.187-.98.093-1.328.221-.272.716-.048,1.034-.1" transform="translate(-16.43 -8.44)" fill="#c6dcf8"/>
        <path id="Trazado_164969" data-name="Trazado 164969" d="M14.7,27.8c-.272-.221-.909.38-.982-.311-.1-.955.332-1.307,1.272-1.348.633-.028.917.046.951.836.047,1.113-.66.753-1.241.823" transform="translate(-4.431 -8.453)" fill="#c6ddf9"/>
        <path id="Trazado_164970" data-name="Trazado 164970" d="M65.22,9.827a.863.863,0,0,1-.838-.894.8.8,0,0,1,.863-.86.811.811,0,0,1,.863.871c0,.528-.351.812-.888.882" transform="translate(-20.821 -2.611)" fill="#d6606b"/>
        <path id="Trazado_164971" data-name="Trazado 164971" d="M36.6,71.925c-.3-.957-.06-1.6.7-1.851a1.226,1.226,0,0,1,1.505.755,1.525,1.525,0,0,1-.1,1.1c-.858.713-1.248.712-2.1,0" transform="translate(-11.797 -22.643)" fill="#020101"/>
        <path id="Trazado_164972" data-name="Trazado 164972" d="M63.136,71.91c-.273-.907-.093-1.5.565-1.782a1.143,1.143,0,0,1,1.537.491,1.328,1.328,0,0,1,0,1.315c-.869.7-1.253.7-2.1-.023" transform="translate(-20.378 -22.639)" fill="#020101"/>
        <path id="Trazado_164973" data-name="Trazado 164973" d="M89.681,71.924c-.291-.983-.062-1.594.694-1.847.726-.244,1.271.115,1.587,1.043a1.226,1.226,0,0,1-.755,1.226,1.335,1.335,0,0,1-1.526-.422" transform="translate(-28.963 -22.639)" fill="#020101"/>
        <path id="Trazado_164974" data-name="Trazado 164974" d="M19.021,72.08c-.415-.911-.307-1.53.333-1.9a1.21,1.21,0,0,1,1.623.4,1.329,1.329,0,0,1-.095,1.507,1.392,1.392,0,0,1-1.861-.009" transform="translate(-6.072 -22.644)" fill="#020101"/>
        <path id="Trazado_164975" data-name="Trazado 164975" d="M27.866,72.079a1.241,1.241,0,0,1,.179-1.805,1.1,1.1,0,0,1,1.489,0,1.277,1.277,0,0,1,.267,1.685,1.344,1.344,0,0,1-1.934.122" transform="translate(-8.914 -22.633)" fill="#020101"/>
        <path id="Trazado_164976" data-name="Trazado 164976" d="M45.47,71.955a1.269,1.269,0,0,1,.335-1.732,1.107,1.107,0,0,1,1.487.1,1.252,1.252,0,0,1,.116,1.755,1.349,1.349,0,0,1-1.938-.125" transform="translate(-14.643 -22.632)" fill="#020101"/>
        <path id="Trazado_164977" data-name="Trazado 164977" d="M54.42,72.079c-.409-.855-.338-1.467.244-1.851a1.125,1.125,0,0,1,1.588.2,1.313,1.313,0,0,1,.032,1.639,1.394,1.394,0,0,1-1.863.007" transform="translate(-17.515 -22.635)" fill="#020101"/>
        <path id="Trazado_164978" data-name="Trazado 164978" d="M72.02,71.952c-.334-.98-.071-1.672.721-1.9a1.238,1.238,0,0,1,1.5.9,1.792,1.792,0,0,1-.12.945c-.837.732-1.219.742-2.1.053" transform="translate(-23.245 -22.642)" fill="#020101"/>
        <path id="Trazado_164979" data-name="Trazado 164979" d="M80.959,72.077c-.407-.88-.324-1.5.278-1.871a1.127,1.127,0,0,1,1.545.214,1.312,1.312,0,0,1,.041,1.656,1.4,1.4,0,0,1-1.864,0" transform="translate(-26.1 -22.635)" fill="#020101"/>
      </g>
    </g>
  </g>
</svg>
