<svg xmlns="http://www.w3.org/2000/svg" xmlns:xlink="http://www.w3.org/1999/xlink" width="254" height="145" viewBox="0 0 254 145">
  <defs>
    <clipPath id="clip-path">
      <rect id="Rect치ngulo_42679" data-name="Rect치ngulo 42679" width="136.902" height="137" fill="none"/>
    </clipPath>
  </defs>
  <g id="Grupo_169631" data-name="Grupo 169631" transform="translate(-674 -7465)">
    <rect id="Rect치ngulo_42534" data-name="Rect치ngulo 42534" width="254" height="145" rx="12" transform="translate(674 7465)" fill="#6b8dfc"/>
    <g id="Grupo_169630" data-name="Grupo 169630" transform="translate(733 7469)">
      <g id="Grupo_169629" data-name="Grupo 169629" transform="translate(0 0)" clip-path="url(#clip-path)">
        <path id="Trazado_161730" data-name="Trazado 161730" d="M133.072,69.624q.029,16.566.074,33.134c0,.857-.268,1.2-1.116,1.1a7.424,7.424,0,0,0-.889,0q-63.6,0-127.208.037c-1.613,0-2.045-.388-2.03-2.02.1-10.747.078-21.5.1-32.243.907-.8,2.024-.57,3.068-.571q21.388-.024,42.774-.01,40.9,0,81.8.013c1.157,0,2.4-.3,3.424.568" transform="translate(0.913 33.114)" fill="#f9b300"/>
        <path id="Trazado_161731" data-name="Trazado 161731" d="M68.629,31.04q18.6.029,37.208.058c3.738.006,4.426.7,4.426,4.475q0,14.422,0,28.843c0,2.8-.943,3.751-3.716,3.757q-8.813.016-17.627.018c-.718-.651-.553-1.529-.559-2.338-.027-3.327-.009-6.653-.012-9.98,0-.595.013-1.19-.019-1.782-.17-3.09-2.313-5.311-5.122-5.317a5.232,5.232,0,0,0-5.187,5.249c-.071,1.246-.024,2.5-.027,3.743,0,2.732.013,5.465-.009,8.2a3.217,3.217,0,0,1-.527,2.371c-1.391.661-2.864.318-4.3.364-3.72.056-7.441.077-11.161-.006q-1.325.033-2.649-.006a3.555,3.555,0,0,1-3.646-2.513,9.568,9.568,0,0,1-.189-2.473q-.007-14.034,0-28.069a9.425,9.425,0,0,1,.192-2.471,2.868,2.868,0,0,1,2.371-2.381c3.519-.317,7.063-.7,10.56.26" transform="translate(26.633 14.602)" fill="#009fc7"/>
        <path id="Trazado_161732" data-name="Trazado 161732" d="M81.42,32.685c-3.145.021-6.289.016-9.434.068a2.823,2.823,0,0,0-3.106,3.1q-.013,16.025.036,32.051c.127.636.376,1.243.471,1.884a2.607,2.607,0,0,0,2.81,2.375c.907.053,1.925-.212,2.628.684.385,1.911.681,3.817-.24,5.672A4.452,4.452,0,0,1,72,78.95q-14.555.016-29.107,0a4.35,4.35,0,0,1-2.581-.448,2.845,2.845,0,0,1-.527-2.016c0-6.872-.075-13.743.033-20.613.012-3.012.022-6.026-.007-9.042,0-.548.232-1.428-.463-1.529-.86-.124-1.1.775-1.211,1.467a40.887,40.887,0,0,0-.123,4.781,11.955,11.955,0,0,1-.275,3.87,1.077,1.077,0,0,1-.477.435c-2.776.252-5.561.762-8.283-.329.064-4.74-.487-9.513.272-14.214A16.934,16.934,0,0,1,45.873,27.045c1.008-.015,2.016.025,3.025.04a1.077,1.077,0,0,1,.34.469,47.3,47.3,0,0,1,.16,6.023c.095,2.538,1.16,3.417,3.629,2.967a2.689,2.689,0,0,1,1.9,0,1.022,1.022,0,0,1,.306.818c-.132.9-.123,1.816-.188,2.724-.605,5.953-1.184,11.908-1.684,17.869-.327,3.9-.9,7.771-.9,11.686,0,1.033-.546,2.149.272,3.078a16.987,16.987,0,0,0,4.114,3.871c.778.441,1.5-.009,2.093-.545,1.014-.91,1.93-1.922,2.908-2.868,1.074-1.04.7-2.291.614-3.515-.009-3.922-.586-7.794-.907-11.688-.493-5.961-1.067-11.913-1.686-17.862-.07-.906-.046-1.819-.188-2.72a1.08,1.08,0,0,1,.271-.832c.694-.405,1.385-.107,2.076.016,2.258.4,3.367-.491,3.481-2.8a57.084,57.084,0,0,1,.164-6.223,1.053,1.053,0,0,1,.348-.469c5.7-.428,10.827.863,14.972,5.048a5.1,5.1,0,0,1,.426.558" transform="translate(13.842 12.957)" fill="#c70a50"/>
        <path id="Trazado_161733" data-name="Trazado 161733" d="M54.19,61.849H88.414c.9-.66,1.93-.437,2.926-.459,1.913-.065,3.828-.052,5.743-.009,7.852-.114,15.7-.033,23.555-.041a2.96,2.96,0,0,1,2.014.522c3.6.015,7.194.022,10.791.049,2.409.018,3.421,1.039,3.451,3.448.007.589.01,1.179,0,1.77-.038,2.058-.657,2.791-2.85,3.393-1,.746-2.167.516-3.273.516q-36.68.02-73.361.01-25.73,0-51.459-.009c-1.051,0-2.155.2-3.094-.518C.6,69.9.025,69.18,0,66.929c0-.534-.007-1.067,0-1.6.033-2.4,1.057-3.392,3.507-3.42q2.044-.024,4.087-.056a3.3,3.3,0,0,1,2.366-.512q12.853-.022,25.705,0a3.3,3.3,0,0,1,2.366.514l4.737,0c.926-.693,2.008-.488,3.038-.494,1.8-.012,3.609-.065,5.412.031,1.009.021,2.058-.213,2.966.462" transform="translate(0 29.425)" fill="#0a5078"/>
        <path id="Trazado_161734" data-name="Trazado 161734" d="M104.552,19.587A17.763,17.763,0,0,1,95.081,34.68c-6.187,3.463-12.492,3.3-18.6-.3-1.145-.673-1.792-.672-2.6.333a9.736,9.736,0,0,1-1.925,1.839A2.813,2.813,0,0,1,68.061,32.6a11.464,11.464,0,0,1,1.85-1.919c.886-.744,1.064-1.293.371-2.451-3.751-6.281-3.892-12.767-.17-19.056C73.793,2.95,79.492-.085,86.724.076,96.6.3,104.576,8.665,104.552,19.587" transform="translate(32.34 0.033)" fill="#0a5078"/>
        <path id="Trazado_161735" data-name="Trazado 161735" d="M67.137,21.337a14.558,14.558,0,0,1-5.779,11.349c-1.357,1.974-3.5,2.514-5.631,3a13.682,13.682,0,0,1-9.948-1.539,3.2,3.2,0,0,1-1.489-1.461,14.541,14.541,0,0,1-5.782-11.349c.056-.086.114-.173.17-.26a3.924,3.924,0,0,0,2.242-4.218c-.1-1.711-.049-3.432-.007-5.147.019-.753-.07-1.569.681-2.1A4.2,4.2,0,0,1,43.512,9.3q9.348-.018,18.7,0a4.474,4.474,0,0,1,1.748.257c.881.516.75,1.407.768,2.212q.067,2.837.007,5.678a3.308,3.308,0,0,0,2.008,3.424,1.127,1.127,0,0,1,.4.46" transform="translate(18.479 4.459)" fill="#efc79f"/>
        <path id="Trazado_161736" data-name="Trazado 161736" d="M1.93,67.557c.474-.019.947-.056,1.421-.056q64.174,0,128.349,0c.472,0,.946.037,1.419.056q-.029,1.4-.059,2.791H1.989q-.029-1.4-.059-2.791" transform="translate(0.926 32.39)" fill="#db9500"/>
        <path id="Trazado_161737" data-name="Trazado 161737" d="M70.47,62.424q.022-6.926.046-13.85c.015-3.586,2.383-6.128,5.7-6.128s5.689,2.545,5.7,6.128q.029,6.926.046,13.85-.016,1.4-.033,2.8a.9.9,0,0,1-.565.4c-3.612.231-7.229.589-10.825-.2a2.411,2.411,0,0,1-.074-2.994" transform="translate(33.584 20.368)" fill="#0a5078"/>
        <path id="Trazado_161738" data-name="Trazado 161738" d="M38.584,8.583C38,2.3,40.6-.457,46.905.062a18.533,18.533,0,0,0,2.312,0,5.808,5.808,0,0,1,5.857,3.214c.292.548.477,1.156,1.132.158C58.161.465,60.351-.486,62.993.33c2.761.854,4.037,2.878,4.095,6.494,0,.237.034.472.052.709a.921.921,0,0,1-.157,1.283,4.16,4.16,0,0,1-2.246.383q-11.818.018-23.636,0a3.27,3.27,0,0,1-2.516-.614" transform="translate(18.476 0)" fill="#0a5078"/>
        <path id="Trazado_161739" data-name="Trazado 161739" d="M37.456,69.067H28.9q.022-11.4.047-22.791l8.518.1a3.026,3.026,0,0,1,.565,2.353q.029,8.992,0,17.986a3.021,3.021,0,0,1-.579,2.35" transform="translate(13.87 22.206)" fill="#efc79f"/>
        <path id="Trazado_161740" data-name="Trazado 161740" d="M4.75,52.436c-.59-.405-1.264-.191-1.9-.246A2.847,2.847,0,0,1,2.807,46.5c.648-.052,1.3-.047,1.95-.07a3.337,3.337,0,0,1,2.371-.508q11.356-.022,22.711,0c.866,0,1.8-.144,2.489.625,2.538,1.817,2.562,3.595.075,5.613a2.611,2.611,0,0,1-2.152.59c-7.928.025-15.855.012-23.783.007a3.04,3.04,0,0,1-1.72-.321" transform="translate(0.003 22.029)" fill="#009fc7"/>
        <path id="Trazado_161741" data-name="Trazado 161741" d="M3.756,40.6c-2.489-2.019-2.464-3.8.078-5.612.63-.725,1.5-.622,2.312-.625q11.534-.031,23.067,0a3.059,3.059,0,0,1,2.193.506c.65.021,1.3.018,1.949.07a2.847,2.847,0,0,1-.044,5.693c-.636.056-1.308-.16-1.9.247a3.388,3.388,0,0,1-1.9.323Q17.8,41.2,6.084,41.189A2.842,2.842,0,0,1,3.756,40.6" transform="translate(0.916 16.481)" fill="#009fc7"/>
        <path id="Trazado_161742" data-name="Trazado 161742" d="M36.2,63.7H5.76c-2.568-1.856-2.569-3.74,0-5.6.633-.719,1.505-.616,2.316-.619q10.122-.031,20.243,0a3.016,3.016,0,0,1,2.19.514c1.3.018,2.6.086,3.9.04,1.622-.058,2.97.339,3.528,2.019.568,1.717-.405,2.784-1.733,3.643" transform="translate(1.839 27.578)" fill="#c70a50"/>
        <path id="Trazado_161743" data-name="Trazado 161743" d="M32.342,59.846q-11.041.027-22.081.055c-.889,0-1.78.034-2.67.052-1.474-.018-2.949-.019-4.423-.058C1.252,59.843.006,58.707.007,57.046S1.241,54.27,3.169,54.2l1.591-.061a3.342,3.342,0,0,1,2.371-.509q11.354-.02,22.711,0c.866,0,1.8-.145,2.489.623q3.845,2.764.01,5.592" transform="translate(0.003 25.728)" fill="#f9b300"/>
        <path id="Trazado_161744" data-name="Trazado 161744" d="M31.419,48.4q-12.275-.029-24.549-.061c-1.008,0-2.016-.038-3.022-.058-2.582-1.825-2.591-3.725-.022-5.589.633-.721,1.5-.617,2.316-.62q11.538-.031,23.077,0a3.037,3.037,0,0,1,2.193.511c.647.019,1.3.013,1.94.065a2.843,2.843,0,0,1,.007,5.686c-.644.053-1.293.047-1.94.068" transform="translate(0.914 20.179)" fill="#c70a50"/>
        <path id="Trazado_161745" data-name="Trazado 161745" d="M32.319,36.713q-12.007.031-24.015.062c-1.185,0-2.371.038-3.556.058-.706-.024-1.418-.006-2.119-.083A2.859,2.859,0,0,1,.006,33.908,2.8,2.8,0,0,1,2.652,31.1c1.647-.108,3.3-.068,4.955-.092A3.331,3.331,0,0,1,9.976,30.5q9.931-.022,19.866,0c.864,0,1.8-.145,2.486.625,2.572,1.838,2.569,3.756-.009,5.584" transform="translate(0.003 14.631)" fill="#f9b300"/>
        <path id="Trazado_161746" data-name="Trazado 161746" d="M7.694,21.114c-1.361-.845-2.317-1.928-1.745-3.651.564-1.69,1.934-2.014,3.559-2.008,8.964.031,17.929.012,26.892.018,2.255,0,3.566,1.033,3.6,2.794.037,1.819-1.322,2.889-3.675,2.908-1.305.01-2.61.038-3.916.058a3.328,3.328,0,0,1-2.368.509q-9.934.022-19.864,0c-.866,0-1.8.145-2.488-.623" transform="translate(2.773 7.416)" fill="#0a5078"/>
        <path id="Trazado_161747" data-name="Trazado 161747" d="M9.539,19.279q10.939.029,21.877.062c.949,0,1.9.037,2.843.056q3.845,2.764.012,5.592c-.636.718-1.507.616-2.319.617q-11.545.031-23.09,0A3.028,3.028,0,0,1,6.67,25.1c-.707-.024-1.421,0-2.122-.08a2.857,2.857,0,0,1-2.613-2.847,2.8,2.8,0,0,1,2.652-2.8c1.646-.105,3.3-.067,4.953-.09" transform="translate(0.928 9.251)" fill="#f9b300"/>
        <path id="Trazado_161748" data-name="Trazado 161748" d="M5.759,23.246q12.287-.027,24.576-.058c1.008,0,2.017-.033,3.025-.05a9.054,9.054,0,0,0,1.058.046c1.714-.112,3.1.417,3.568,2.19.459,1.724-.574,2.764-1.984,3.518a2.988,2.988,0,0,1-2.343.564q-12.679.024-25.362,0a2.986,2.986,0,0,1-2.341-.564c-2.763-1.742-2.834-3.744-.2-5.646" transform="translate(1.838 11.103)" fill="#c70a50"/>
        <path id="Trazado_161749" data-name="Trazado 161749" d="M5.958,27.025H36c1.41.759,2.446,1.805,1.982,3.534-.478,1.78-1.875,2.255-3.59,2.187-1.3-.05-2.6.027-3.9.046q-10.939-.029-21.878-.062c-.949,0-1.9-.038-2.844-.058-2.65-1.882-2.585-3.891.186-5.647" transform="translate(1.838 12.968)" fill="#009fc7"/>
        <path id="Trazado_161750" data-name="Trazado 161750" d="M31.421,55.927Q19.057,55.9,6.694,55.866c-.949,0-1.9-.038-2.846-.058-2.587-1.819-2.593-4-.01-5.4a5.41,5.41,0,0,1,2.273-.244q12.693-.02,25.383-.034c.592.012,1.187,0,1.779.038a2.848,2.848,0,1,1-.074,5.695c-.592.034-1.185.041-1.777.062" transform="translate(0.914 24.056)" fill="#0a5078"/>
        <path id="Trazado_161751" data-name="Trazado 161751" d="M32.322,44.249q-12.282.029-24.563.059c-1.008,0-2.016.034-3.023.052-.592-.019-1.185-.024-1.776-.058a2.848,2.848,0,1,1-.07-5.695c.59-.038,1.185-.027,1.779-.038l25.387.033a5.42,5.42,0,0,1,2.272.246c2.576,1.4,2.575,3.562-.006,5.4" transform="translate(0.003 18.508)" fill="#0a5078"/>
        <path id="Trazado_161752" data-name="Trazado 161752" d="M38.574,5.8l28.492.01c.764.849.488,1.888.524,2.872a4.931,4.931,0,0,1-.432,2.948,2.528,2.528,0,0,1-2.911-.046H41.384a2.769,2.769,0,0,1-2.457.256.755.755,0,0,1-.4-.383L38.574,5.8" transform="translate(18.487 2.783)" fill="#efefef"/>
        <path id="Trazado_161753" data-name="Trazado 161753" d="M72.825,58.006h11.43q1.774.02,3.549.037c2.55.024,3.543,1.006,3.569,3.529q.011,1.066.016,2.13H65.7c-1.122-2.528-.509-4.614,1.742-5.942a4.018,4.018,0,0,1,1.268-.209c1.385.05,2.822-.379,4.12.454" transform="translate(31.262 27.585)" fill="#009fc7"/>
        <path id="Trazado_161754" data-name="Trazado 161754" d="M13.5,7.735c0-1-.055-2.014.015-3.013a2.833,2.833,0,0,1,2.9-2.744,2.8,2.8,0,0,1,2.751,2.713c.086,1.948.078,3.9.009,5.851a2.815,2.815,0,0,1-2.818,2.834,2.844,2.844,0,0,1-2.852-2.8c-.059-.943-.01-1.891-.009-2.837" transform="translate(6.47 0.949)" fill="#c70a50"/>
        <path id="Trazado_161755" data-name="Trazado 161755" d="M10.828,16.7c-1.8-.053-6.918-5.132-6.963-6.775a2.679,2.679,0,0,1,1.543-2.6,2.557,2.557,0,0,1,3.009.263C10,9.012,11.51,10.532,12.95,12.108a2.581,2.581,0,0,1,.294,3.007,2.707,2.707,0,0,1-2.417,1.58" transform="translate(1.854 3.337)" fill="#f9b300"/>
        <path id="Trazado_161756" data-name="Trazado 161756" d="M30.144,9.623c-.061,1.915-5.128,7.016-6.784,7.057a2.67,2.67,0,0,1-2.6-1.545,2.565,2.565,0,0,1,.268-3.01c1.438-1.578,2.958-3.088,4.533-4.53a2.591,2.591,0,0,1,3.009-.3,2.737,2.737,0,0,1,1.578,2.323" transform="translate(9.788 3.339)" fill="#00a0c7"/>
        <path id="Trazado_161757" data-name="Trazado 161757" d="M40.34,21.179c-3.478-.479-5.618-2.636-5.647-5.692-.033-3.133,2.06-5.295,5.672-5.865l.043.144a1.25,1.25,0,0,1,.416.768,72.453,72.453,0,0,1,.009,9.769,1.336,1.336,0,0,1-.4.778Z" transform="translate(16.648 4.618)" fill="#efc7a0"/>
        <path id="Trazado_161758" data-name="Trazado 161758" d="M42.43,25.1c5.495,3.837,11.547,3.837,17.067,0l.027,2.89a.44.44,0,0,1-.041.309,3.042,3.042,0,0,1-.818.768,14.493,14.493,0,0,1-14.728.42,3.409,3.409,0,0,1-1.5-1.191A.406.406,0,0,1,42.4,28q.013-1.447.03-2.895" transform="translate(20.34 12.045)" fill="#d1aa82"/>
        <path id="Trazado_161759" data-name="Trazado 161759" d="M63.37,12.345c1.311,2.886-.854,7.3-5.3,7.553l-.093-.1c-.937-2.273-.454-4.616-.339-6.938.194-.564.568-.778,1.024-.323,1.657,1.656,3.2,1.212,4.71-.2" transform="translate(27.548 5.899)" fill="#efc7a0"/>
        <path id="Trazado_161760" data-name="Trazado 161760" d="M57.848,9.626q-.018-1.454-.037-2.908c.022-.354.043-.707.065-1.061.693-.952,1.434-1.826,2.776-1.743.971,1.728.518,3.549.351,5.351a1.238,1.238,0,0,1-.388.516,2.65,2.65,0,0,1-2.767-.155" transform="translate(27.741 1.875)" fill="#d1d1d1"/>
        <path id="Trazado_161761" data-name="Trazado 161761" d="M63.333,13.271c-1.144,2.44-3.455,2.448-5.3.018a2.41,2.41,0,0,1-.358-2.536c.371-.687.772-.317,1.126,0a3.011,3.011,0,0,0,2.039.965c.6.037,1.219-.321,1.794.1a2.457,2.457,0,0,1,.7,1.453" transform="translate(27.585 4.973)" fill="#d2aa82"/>
        <path id="Trazado_161762" data-name="Trazado 161762" d="M59.777,9.575q-.022-2.832-.047-5.663A2.625,2.625,0,0,1,62.5,5.955,2.742,2.742,0,0,1,61.416,9.1c-.3.222-.568.419-.579.823-.478.266-.8.04-1.06-.348" transform="translate(28.662 1.876)" fill="#f0f0f0"/>
        <path id="Trazado_161763" data-name="Trazado 161763" d="M59.976,7.738l1.06.349c2.1,1.086,2.316,2.588.721,4.99l-1.792.363a6.666,6.666,0,0,1-.04-5.65Z" transform="translate(28.464 3.713)" fill="#d2d2d1"/>
        <path id="Trazado_161764" data-name="Trazado 161764" d="M71.319,58.71l-.937.095a13.218,13.218,0,0,1-5.228.5c-1.361-.031-1.887.537-1.869,1.885.015,1.088.286,2.255-.514,3.228H59.91l-.058-5.655a2.266,2.266,0,0,1,.056-2.784H71.319a2.127,2.127,0,0,1,0,2.735" transform="translate(28.505 26.86)" fill="#d1a982"/>
        <path id="Trazado_161765" data-name="Trazado 161765" d="M65.587,42.45c1.3,0,2.6-.013,3.9,0,.963.013,1.635.481,1.6,1.483a1.377,1.377,0,0,1-1.555,1.351q-4.076.02-8.151,0c-.962,0-1.637-.479-1.6-1.481a1.385,1.385,0,0,1,1.557-1.353c1.418-.016,2.835,0,4.253,0" transform="translate(28.684 20.368)" fill="#0a5078"/>
        <path id="Trazado_161766" data-name="Trazado 161766" d="M86.577,42.447c1.3,0,2.6.009,3.9,0,1.018-.01,1.817.354,1.807,1.462-.01,1-.746,1.391-1.7,1.391-2.659,0-5.317,0-7.975-.006-.96,0-1.657-.453-1.632-1.453s.749-1.393,1.7-1.391q1.951,0,3.9,0" transform="translate(38.858 20.367)" fill="#0a5078"/>
        <path id="Trazado_161767" data-name="Trazado 161767" d="M65.291,49.149c-1.3,0-2.6.01-3.9,0-.962-.012-1.64-.471-1.616-1.472a1.374,1.374,0,0,1,1.545-1.363q4.076-.022,8.153,0c.962,0,1.65.474,1.612,1.472s-.77,1.376-1.72,1.373c-1.359-.006-2.717,0-4.076,0" transform="translate(28.685 22.217)" fill="#0a5078"/>
        <path id="Trazado_161768" data-name="Trazado 161768" d="M86.686,49.15c-1.3,0-2.6-.009-3.9,0-1.017.009-1.82-.351-1.81-1.461.01-1,.746-1.393,1.7-1.393,2.658,0,5.316,0,7.974.006.962,0,1.657.453,1.634,1.452s-.746,1.394-1.7,1.393c-1.3,0-2.6,0-3.9,0" transform="translate(38.858 22.218)" fill="#0a5078"/>
        <path id="Trazado_161769" data-name="Trazado 161769" d="M65.363,53h-3.9c-.955,0-1.674-.405-1.687-1.4s.688-1.438,1.647-1.44c2.658-.007,5.316,0,7.974,0,.956,0,1.672.407,1.687,1.4S70.4,53,69.439,53c-1.359.009-2.717,0-4.076,0" transform="translate(28.685 24.067)" fill="#0a5078"/>
        <path id="Trazado_161770" data-name="Trazado 161770" d="M86.785,50.158c1.3,0,2.6-.013,3.9,0,.963.013,1.635.481,1.6,1.483A1.377,1.377,0,0,1,90.731,53q-4.076.02-8.151,0c-.962-.006-1.637-.481-1.6-1.483a1.385,1.385,0,0,1,1.557-1.353c1.418-.016,2.835,0,4.253,0" transform="translate(38.857 24.066)" fill="#0a5078"/>
        <path id="Trazado_161771" data-name="Trazado 161771" d="M61.586,56.616q-.029,1.392-.056,2.784c-.355,0-.71.009-1.066.009-4.071.007-4.709-.663-4.533-4.768a3.541,3.541,0,0,0,3.747,1.928,16.139,16.139,0,0,1,1.908.047" transform="translate(26.827 26.22)" fill="#9f0028"/>
        <path id="Trazado_161772" data-name="Trazado 161772" d="M67.455,58.723V55.988l4.231-.041q.016,1.4.033,2.8l-4.263-.021" transform="translate(32.369 26.847)" fill="#fefefe"/>
        <path id="Trazado_161773" data-name="Trazado 161773" d="M44.675,67.44c-.644-1.878-.055-3.759.093-5.612.611-7.586,1.354-15.161,2.066-22.738.061-.641.241-1.271.366-1.906.388-.817,1.489-1.515.422-2.571-.08-.244-.161-.488-.241-.733a3.372,3.372,0,0,1,5.248,0c-.08.244-.158.488-.238.733-1.076,1.058.047,1.755.42,2.576a87.118,87.118,0,0,1,1.066,9.662c.639,6.1,1.122,12.221,1.709,18.328a7.674,7.674,0,0,1-.243,2.267,12.3,12.3,0,0,1-3.858,4.09,2.235,2.235,0,0,1-2.829.123,13.21,13.21,0,0,1-3.979-4.219" transform="translate(21.296 15.657)" fill="#0a5078"/>
        <path id="Trazado_161774" data-name="Trazado 161774" d="M53.579,36.456a4.656,4.656,0,0,0-5.248,0l-2.051.549a2.831,2.831,0,0,1-3.864-2.815c-.052-2.309.007-4.619.018-6.93.605-.022.881.537,1.348.759,2.31,1.39,3.96,3.507,5.823,5.378,1.052,1.058,1.736.992,2.735-.04,2-2.066,3.9-4.265,6.421-5.751l.718-.342c.012,2.131.04,4.262.03,6.394-.012,2.886-1.623,4.05-4.4,3.21-.506-.152-1.023-.277-1.535-.414" transform="translate(20.344 13.081)" fill="#efefef"/>
        <path id="Trazado_161775" data-name="Trazado 161775" d="M34.683,69.223,34.7,46.533l-.009-.142a2.316,2.316,0,0,1,2.843.1q.007,11.365.016,22.731H34.683" transform="translate(16.643 22.051)" fill="#d1a981"/>
        <path id="Trazado_161776" data-name="Trazado 161776" d="M44.7,56.152c1.092,1.088,2.158,2.2,3.285,3.257a2.663,2.663,0,0,0,4.095,0c1.131-1.046,2.193-2.167,3.287-3.254a1.926,1.926,0,0,1,.3,1.7,12.283,12.283,0,0,1-5.218,5.348c-.664.38-1.422-.077-1.943-.564C47.3,61.509,46.106,60.35,45,59.119a2.388,2.388,0,0,1-.293-2.967" transform="translate(21.268 26.945)" fill="#9f0129"/>
        <path id="Trazado_161777" data-name="Trazado 161777" d="M37.528,49.992l-2.841-.1c0-2.659.013-5.317,0-7.975a3.5,3.5,0,0,1,.432-2.042c.478-.721,1.147-1.4,2-1.172.792.207.4,1.126.408,1.72.031,3.189.006,6.38,0,9.569" transform="translate(16.645 18.551)" fill="#9f0028"/>
        <path id="Trazado_161778" data-name="Trazado 161778" d="M46.731,33.97c.477.324.839.809,1.555.9-.746.627-1.361,1.148-1.977,1.666.084-.866-.42-1.829.422-2.571" transform="translate(22.186 16.301)" fill="#960730"/>
        <path id="Trazado_161779" data-name="Trazado 161779" d="M50.672,36.545l-1.838-1.557,1.418-1.018c.845.743.34,1.706.42,2.575" transform="translate(23.434 16.301)" fill="#960730"/>
        <path id="Trazado_161780" data-name="Trazado 161780" d="M61.687,63.511c0-1.475.028-2.954-.022-4.428-.031-.932.355-1.249,1.256-1.228,2.125.047,4.25.034,6.377.046-2.485,1.243-1.838,3.559-1.93,5.622l-5.681-.012" transform="translate(29.59 27.762)" fill="#efc79f"/>
        <path id="Trazado_161781" data-name="Trazado 161781" d="M71.509,19.289c-.805-5.569.938-10.128,5.674-13.237a11.947,11.947,0,0,1,13.6-.2c4.938,3.059,6.793,7.7,5.968,13.433-.405,4.958-3.451,7.886-7.7,9.752-7.112,3.123-16.25-1.464-17.493-8.691a4.471,4.471,0,0,1-.05-1.06" transform="translate(34.224 1.836)" fill="#f9b300"/>
        <path id="Trazado_161782" data-name="Trazado 161782" d="M71.483,14.275a12.871,12.871,0,0,0,19.87,8.059,13.024,13.024,0,0,0,5.376-8.061,9.817,9.817,0,0,1-2.562,8.187c-4.678,5.521-10.563,6.449-16.869,3-3.632-1.984-6.522-7.543-5.816-11.188" transform="translate(34.251 6.849)" fill="#01325a"/>
        <path id="Trazado_161783" data-name="Trazado 161783" d="M57.618,25.025c.07.943-.244,1.717-1.245,1.838s-1.438-.512-1.616-1.478c-.5-2.716-2.013-4.161-4.249-4.172s-3.806,1.472-4.274,4.145c-.169.965-.595,1.615-1.589,1.509s-1.3-.861-1.283-1.814a7.143,7.143,0,0,1,14.256-.028" transform="translate(20.808 8.809)" fill="#0b5078"/>
        <path id="Trazado_161784" data-name="Trazado 161784" d="M58.8,10.778v2.83q-.047,3.72-.095,7.439c-2.05-.411-2.788-1.208-2.806-3.176-.024-2.719.009-5.439.016-8.157l2.821-.019a.768.768,0,0,1,.064,1.083" transform="translate(26.819 4.652)" fill="#0a5078"/>
        <path id="Trazado_161785" data-name="Trazado 161785" d="M38.579,21.04q-.013-5.658-.025-11.315l2.815-.016c.009,2.719.041,5.437.016,8.154-.019,1.97-.758,2.766-2.806,3.177" transform="translate(18.501 4.659)" fill="#0a5078"/>
        <path id="Trazado_161786" data-name="Trazado 161786" d="M50.069,15.834c0,.888,0,1.776,0,2.662-.009.974-.463,1.64-1.468,1.617a1.365,1.365,0,0,1-1.375-1.532c-.013-1.776-.009-3.55,0-5.326,0-.972.472-1.649,1.468-1.617s1.391.752,1.382,1.711c-.009.827,0,1.656,0,2.485" transform="translate(22.657 5.584)" fill="#0b5078"/>
        <path id="Trazado_161787" data-name="Trazado 161787" d="M54.9,12.681c-.1.882-.482,1.453-1.311,1.512a1.3,1.3,0,0,1-1.529-1.332,1.328,1.328,0,0,1,1.44-1.444c.817,0,1.208.605,1.4,1.264" transform="translate(24.98 5.478)" fill="#135479"/>
        <path id="Trazado_161788" data-name="Trazado 161788" d="M45.248,12.911c-.2.839-.673,1.39-1.6,1.277a1.273,1.273,0,0,1-1.227-1.452,1.328,1.328,0,0,1,1.564-1.307,1.415,1.415,0,0,1,1.262,1.481" transform="translate(20.353 5.478)" fill="#125479"/>
        <path id="Trazado_161789" data-name="Trazado 161789" d="M57.876,11.7c-.021-.361-.043-.722-.064-1.083q.018-1.423.034-2.847l2.8,0,.04,5.652c-1.367.127-2.109-.765-2.81-1.724" transform="translate(27.742 3.729)" fill="#b3b3b3"/>
        <path id="Trazado_161790" data-name="Trazado 161790" d="M58.312,27.5q-3.589,3.547-7.174,7.1c-.514.512-.912.36-1.348-.09q-3.221-3.307-6.457-6.6c2.155.712,4.218,1.671,6.565,1.776,3.059.136,5.737-.972,8.415-2.187" transform="translate(20.794 13.194)" fill="#efc79f"/>
        <path id="Trazado_161791" data-name="Trazado 161791" d="M81.884,12.575A5.83,5.83,0,0,1,87.5,17.543c.118.963-.015,1.879-1.116,2.091s-1.582-.468-1.718-1.52a2.714,2.714,0,0,0-2.8-2.653,2.686,2.686,0,0,0-2.858,2.587c-.141,1.036-.565,1.776-1.662,1.6-1.209-.2-1.323-1.188-1.172-2.211a5.786,5.786,0,0,1,5.711-4.858" transform="translate(36.528 6.034)" fill="#0b5077"/>
        <path id="Trazado_161792" data-name="Trazado 161792" d="M85.722,11.121c-.147.854-.617,1.435-1.529,1.379a1.294,1.294,0,0,1-1.305-1.4,1.326,1.326,0,0,1,1.493-1.4c.817.038,1.236.6,1.341,1.421" transform="translate(39.775 4.654)" fill="#125373"/>
        <path id="Trazado_161793" data-name="Trazado 161793" d="M78.014,11.159c-.17.849-.656,1.424-1.563,1.341a1.3,1.3,0,0,1-1.271-1.437A1.328,1.328,0,0,1,76.71,9.7a1.4,1.4,0,0,1,1.3,1.455" transform="translate(36.075 4.653)" fill="#125373"/>
      </g>
    </g>
  </g>
</svg>
