<svg xmlns="http://www.w3.org/2000/svg" xmlns:xlink="http://www.w3.org/1999/xlink" width="254" height="157" viewBox="0 0 254 157">
  <defs>
    <clipPath id="clip-path">
      <rect id="Rect치ngulo_42680" data-name="Rect치ngulo 42680" width="155.136" height="155" fill="none"/>
    </clipPath>
  </defs>
  <g id="Grupo_169634" data-name="Grupo 169634" transform="translate(-989 -7465)">
    <rect id="Rect치ngulo_42535" data-name="Rect치ngulo 42535" width="254" height="157" rx="12" transform="translate(989 7465)" fill="#6b8dfc"/>
    <g id="Grupo_169633" data-name="Grupo 169633" transform="translate(1038 7466)">
      <g id="Grupo_169632" data-name="Grupo 169632" transform="translate(0 0)" clip-path="url(#clip-path)">
        <path id="Trazado_161794" data-name="Trazado 161794" d="M62.191,59.43c3.407.023,6.846-.381,10.185.66a12.3,12.3,0,0,1,4.27,2.044c-.692.715-1.6.523-2.442.566-2.5.126-3.171.806-3.183,3.458-.04,8.117.012,16.234-.022,24.348-.583,2.422.65,3.949,2.549,5.15.241,2.729.68,5.463-.288,8.148a4.279,4.279,0,0,1-2.506.426q-16.883.016-33.768,0a4.3,4.3,0,0,1-2.508-.426,2.691,2.691,0,0,1-.523-1.951c0-4.831-.074-9.664.029-14.492.008-2.92.018-5.843-.006-8.768,0-.537.2-1.385-.455-1.478-.835-.117-1.067.758-1.172,1.427a39.835,39.835,0,0,0-.118,4.636,11.629,11.629,0,0,1-.266,3.752,1.037,1.037,0,0,1-.46.423c-2.691.255-5.391.721-8.034-.3.062-4.713-.477-9.455.3-14.135A16.468,16.468,0,0,1,39.334,59.424c2.07-.065,4.145,0,6.218.011a1.139,1.139,0,0,1,.355.489c.371,2.473.02,4.97.255,7.445a4.772,4.772,0,0,1-.034.512c-.328,3.247.889,4.333,3.995,3.358,2.271-.712,4.362-1.305,6.795-.252,3.6,1.558,5.04.318,4.659-3.609.246-2.483-.129-4.985.251-7.462a1.074,1.074,0,0,1,.363-.486" transform="translate(12.553 31.92)" fill="#009fc7"/>
        <path id="Trazado_161795" data-name="Trazado 161795" d="M47.054,88.326H85.786c.87-.64,1.873-.427,2.84-.447,1.857-.063,3.716-.051,5.574-.008,7.668-.108,15.333-.037,23-.037a2.635,2.635,0,0,1,1.8.491q16.113.028,32.226.057c2.328,0,3.466.755,3.73,2.457.566,3.647-.151,5.188-2.746,5.9-.912.7-1.984.5-3,.506q-22.55.018-45.1.008-48.991,0-97.981-.011c-1.13,0-2.322.249-3.349-.5-2.182-.6-2.743-1.3-2.763-3.478,0-.517-.006-1.033,0-1.55.032-2.333,1.016-3.32,3.384-3.324q10.933-.016,21.863,0c.46,0,.918-.028,1.376-.042.855-.744,1.908-.312,2.858-.489,3.39,0,6.781-.065,10.171.032.972-.04,1.945-.052,2.918-.015,1.488.181,3.058-.427,4.473.46" transform="translate(0.002 47.209)" fill="#c70a50"/>
        <path id="Trazado_161796" data-name="Trazado 161796" d="M151.2,95.59c.018,2.419.008,4.839.072,7.256.023.847-.286,1.144-1.093,1.053a9.315,9.315,0,0,0-1.036-.006q-72.6,0-145.2.042c-1.7,0-2.322-.338-2.156-2.13.191-2.057.078-4.142.1-6.215.766-.71,1.727-.554,2.631-.555,6.63-.018,13.259-.009,19.888-.009q61.649,0,123.3.014c1.176,0,2.439-.315,3.5.55" transform="translate(0.948 51.066)" fill="#f9b300"/>
        <path id="Trazado_161797" data-name="Trazado 161797" d="M54.029,89.874Q54.01,77.092,54,64.311c0-2.059,1.024-3.063,3.06-3.111,1.035-.025,2.071-.023,3.106-.032q18.475.014,36.948.029c3.081,0,3.919.821,3.919,3.844q0,11.481,0,22.964c0,2.7-.923,3.623-3.618,3.629q-7.166.012-14.331.012c-.649-.581-.509-1.37-.521-2.1-.032-1.956.034-3.915-.026-5.871-.094-3.112-2.151-5.317-4.937-5.352-2.878-.035-5.01,2.177-5.11,5.362-.063,2.013,0,4.029-.028,6.043a2.575,2.575,0,0,1-.555,2.1c-1.336.572-2.735.275-4.112.314-3.543.058-7.085.054-10.627,0-1.524-.1-2.791-.552-3.141-2.273" transform="translate(29.032 32.885)" fill="#0a5078"/>
        <path id="Trazado_161798" data-name="Trazado 161798" d="M.007,45.4A22.114,22.114,0,0,1,44,42.253,21.569,21.569,0,0,1,40.355,58c-.669.979-.461,1.452.269,2.119.975.895,1.92,1.83,2.809,2.809A2.758,2.758,0,1,1,39.5,66.785a35.11,35.11,0,0,1-2.8-2.818c-.715-.823-1.216-.769-2.127-.168A22.091,22.091,0,0,1,1.6,53.82,20.753,20.753,0,0,1,.007,45.4" transform="translate(0 12.572)" fill="#f9b300"/>
        <path id="Trazado_161799" data-name="Trazado 161799" d="M51.062,0a22.12,22.12,0,0,1,4.064,43.85c-1.215.229-1.447.657-1.43,1.753.042,2.874-.827,4.153-2.682,4.2-1.907.046-2.851-1.285-2.8-4.245.02-1.156-.328-1.488-1.482-1.708A22.124,22.124,0,0,1,51.062,0" transform="translate(15.471 0)" fill="#f9b300"/>
        <path id="Trazado_161800" data-name="Trazado 161800" d="M101.867,46.986C101.5,54.21,97.791,60.914,90.15,65c-7.7,4.118-15.405,3.581-22.735-1.149-1.081-.7-1.622-.618-2.389.277a29.741,29.741,0,0,1-2.683,2.691,2.757,2.757,0,1,1-3.855-3.939,24.561,24.561,0,0,1,2.451-2.433c1.066-.876,1.176-1.528.334-2.8a22.037,22.037,0,0,1,7.416-31.3c14.772-8.488,33.211,2.211,33.179,20.636" transform="translate(30.964 12.578)" fill="#f9b300"/>
        <path id="Trazado_161801" data-name="Trazado 161801" d="M39.756,66.491A13.746,13.746,0,0,1,34.205,55.4c1.956-1.129,2.354-2.9,2.25-5.007-.115-2.3-.069-4.61-.008-6.915.052-1.959.438-2.391,2.337-2.408q9.249-.078,18.5,0c1.9.017,2.285.449,2.337,2.408.062,2.3.108,4.616-.008,6.915-.1,2.108.294,3.878,2.25,5.007a13.765,13.765,0,0,1-5.546,11.092C55,68.406,52.923,68.93,50.851,69.4A13.274,13.274,0,0,1,41.2,67.907a3.093,3.093,0,0,1-1.444-1.416" transform="translate(18.389 22.059)" fill="#efc79f"/>
        <path id="Trazado_161802" data-name="Trazado 161802" d="M151.178,96.345H1.865L1.8,93.634c.575-.018,1.15-.052,1.725-.052q72.992,0,145.984,0c.575,0,1.15.034,1.724.052l-.06,2.711" transform="translate(0.97 50.311)" fill="#db9500"/>
        <path id="Trazado_161803" data-name="Trazado 161803" d="M62.094,59.082c-2.071-.423-2.743-1.19-2.757-3.255-.015-3.106-.038-6.214.017-9.32.02-.975-.264-1.267-1.25-1.261q-9.837.062-19.675,0c-.986-.006-1.27.281-1.253,1.259.058,3.106.034,6.212.017,9.32-.012,2.062-.689,2.834-2.755,3.257l.015.017c-.069-.089-.191-.172-.2-.271a27.49,27.49,0,0,1,.126-10.8q.025-3.974.057-7.948A5.534,5.534,0,0,1,40.252,34.2c1.5-.015,3,.043,4.494-.012a5.624,5.624,0,0,1,5.688,3.123c.44.849.678.853,1.192,0C53.209,34.7,55.491,33.7,57.975,34.4c2.679.753,4.112,2.854,4.127,6.031.014,2.534.037,5.068.054,7.6a2.43,2.43,0,0,1,.481,1.61q.055,3.854,0,7.711a2.423,2.423,0,0,1-.563,1.75Z" transform="translate(18.158 18.376)" fill="#0a5078"/>
        <path id="Trazado_161804" data-name="Trazado 161804" d="M65.876,85.831c.012-2.709.015-5.417.04-8.126a5.534,5.534,0,1,1,11.062,0c.025,2.709.028,5.417.04,8.126q-.009,2.74-.02,5.48a1.686,1.686,0,0,1-1.388.555c-2.863.068-5.726.092-8.589-.012a2.073,2.073,0,0,1-1.129-.372,6.986,6.986,0,0,1-.015-5.651" transform="translate(35.1 38.701)" fill="#009fc7"/>
        <path id="Trazado_161805" data-name="Trazado 161805" d="M33.9,93.933l-2.829-.009c-1.678-1.682-1.865-2.915-.514-4.859.63-.909.412-1.433-.348-2.008-2.125-1.61-7.517-1.189-9.356.744a3.8,3.8,0,0,0-.255,5.517,1.093,1.093,0,0,1,.269.618l-2.886.012c-1.784-1.435-2.369-4.4-1.424-7.213a5.422,5.422,0,0,1,5.169-3.807c1.378-.028,2.759-.065,4.132.012,1.1.063,1.561-.269,1.493-1.436-.078-1.372.008-2.752.023-4.13l8.26.072c.929,2.157.449,4.39.3,6.592-.051.74-.644.724-1.129.3a7.241,7.241,0,0,0-3.221-1.213c.032.017.166.5.171.264,0-.1.051-.1.166-.054,1.2.437,1.381,1.5,1.376,2.523a2.975,2.975,0,0,0,1.481,2.863,2.846,2.846,0,0,1,1.222,3.026,2.387,2.387,0,0,1-2.1,2.186" transform="translate(8.658 41.598)" fill="#efc79f"/>
        <path id="Trazado_161806" data-name="Trazado 161806" d="M68.293,84.73h11.1c1.146.014,2.291.032,3.437.043,2.471.023,3.441.976,3.464,3.415.008.687,0,1.375,0,2.063h-24.9c-1.365-2.943-.177-5.426,2.848-5.955,1.362.04,2.774-.372,4.055.434" transform="translate(32.703 45.282)" fill="#0a5078"/>
        <path id="Trazado_161807" data-name="Trazado 161807" d="M36.078,43.186q.039,5.535.08,11.071c-3.24-.211-5.5-2.413-5.557-5.406-.055-3.1,2.13-5.363,5.477-5.665" transform="translate(16.452 23.218)" fill="#efc7a0"/>
        <path id="Trazado_161808" data-name="Trazado 161808" d="M52.181,54.257q.039-5.535.08-11.071c3.28.3,5.534,2.634,5.475,5.672-.057,2.986-2.323,5.188-5.555,5.4" transform="translate(28.054 23.218)" fill="#efc7a0"/>
        <path id="Trazado_161809" data-name="Trazado 161809" d="M37.829,57.589a13.67,13.67,0,0,0,16.56,0q.018,1.4.038,2.8a.5.5,0,0,1-.066.24,2.359,2.359,0,0,1-.755.793,14.072,14.072,0,0,1-14.34.415,2.774,2.774,0,0,1-1.415-1.216.427.427,0,0,1-.063-.228q.021-1.4.04-2.8" transform="translate(20.316 30.961)" fill="#d1aa82"/>
        <path id="Trazado_161810" data-name="Trazado 161810" d="M37.857,59.56l1.293.806c2.242,1.348,3.843,3.4,5.649,5.219,1.023,1.027,1.684.963,2.652-.038,1.94-2.005,3.781-4.139,6.232-5.58l.683-.4a52.37,52.37,0,0,1-.16,8.054c-.557,1.6-1.759,2.546-3.22,1.916a12.151,12.151,0,0,0-9.744.006c-1.491.584-2.666-.317-3.229-1.921a53.294,53.294,0,0,1-.157-8.065" transform="translate(20.312 32.021)" fill="#efefef"/>
        <path id="Trazado_161811" data-name="Trazado 161811" d="M28.591,94.1c2.519-1.885,2.428-3.955-.354-5.4-.9-.469-.675-1.11-.664-1.73.025-1.425-.037-2.778-1.6-3.7a3.587,3.587,0,0,1,4.355,1.59V77.615l-.012-.123a2.215,2.215,0,0,1,2.755.1q.012,8.257.025,16.514-2.251,0-4.5,0" transform="translate(13.963 41.429)" fill="#d1a982"/>
        <path id="Trazado_161812" data-name="Trazado 161812" d="M55.992,81l11.056.023a2.348,2.348,0,0,1,.051,2.8c-1.156.707-2.442.411-3.676.432-4.727.081-4.073-.527-4.165,4.253-.022,1.167.317,2.411-.507,3.47H55.965q-.028-4.124-.054-8.246A2.2,2.2,0,0,1,55.992,81" transform="translate(29.824 43.549)" fill="#d1a981"/>
        <path id="Trazado_161813" data-name="Trazado 161813" d="M37.987,64.806a2.907,2.907,0,0,0,3.947,1.353c.054-.022.115-.022.166-.046a8.352,8.352,0,0,1,7.979-.026,2.871,2.871,0,0,0,4.1-1.282,3.1,3.1,0,0,1-4.37,4.021c-2.631-1.439-5.05-.861-7.685.018-3.263,1.087-4.825-.57-4.138-4.038" transform="translate(20.337 34.84)" fill="#0182aa"/>
        <path id="Trazado_161814" data-name="Trazado 161814" d="M31.55,81.253l-2.754-.1c0-2.58.014-5.162,0-7.742a3.376,3.376,0,0,1,.415-1.984c.464-.7,1.11-1.356,1.942-1.136.767.2.392,1.093.4,1.67.028,3.1,0,6.194,0,9.29" transform="translate(15.481 37.768)" fill="#0082a9"/>
        <path id="Trazado_161815" data-name="Trazado 161815" d="M56.78,81.629Q56.738,83,56.7,84.366c-2.354-.457-2.785-1.187-2.674-4.528a3.267,3.267,0,0,0,2.755,1.791" transform="translate(29.036 42.923)" fill="#0082aa"/>
        <path id="Trazado_161816" data-name="Trazado 161816" d="M19.826,91.069c-2.6-1.867-2.339-5.259.554-7.259,2.389-1.654,7.574-1.405,9.6.461.718.663,1.333,1.167.058,2.068-1.221.864-1.29,2.223-.5,3.55.215.364.775.59.494,1.167l-10.2.012" transform="translate(9.695 44.465)" fill="#0a5078"/>
        <path id="Trazado_161817" data-name="Trazado 161817" d="M57.615,91.036c0-2.294.032-4.588-.031-6.881-.029-1.055.346-1.408,1.39-1.384,2.293.054,4.587.006,6.881,0a2.042,2.042,0,0,1,.055,2.729c-2.183.583-2.752,1.292-2.774,3.469-.006.689,0,1.378,0,2.067H57.615" transform="translate(30.958 44.499)" fill="#efc79f"/>
        <path id="Trazado_161818" data-name="Trazado 161818" d="M63.018,86.457l-.055-2.729q.028-1.347.057-2.694,2.053-.023,4.105-.043.009,2.738.02,5.479l-4.127-.012" transform="translate(33.85 43.543)" fill="#fefefe"/>
        <path id="Trazado_161819" data-name="Trazado 161819" d="M59.464,77.5c-.089,1,.4,2.648-1.41,2.615-1.781-.031-1.273-1.668-1.353-2.794-.02-.284,0-.572,0-.858-.022-.984.335-1.765,1.412-1.745s1.388.832,1.356,1.8c-.009.286,0,.572,0,.979" transform="translate(30.479 40.17)" fill="#00325a"/>
        <path id="Trazado_161820" data-name="Trazado 161820" d="M60.3,77.425c0-.4-.008-.8,0-1.2.025-.855.435-1.475,1.305-1.51.972-.04,1.422.6,1.448,1.533.02.686-.009,1.373.011,2.059.029.961-.238,1.805-1.313,1.845-1.192.045-1.492-.835-1.458-1.868.009-.286,0-.572,0-.858" transform="translate(32.415 40.168)" fill="#00325a"/>
        <path id="Trazado_161821" data-name="Trazado 161821" d="M79.254,77.587a11.549,11.549,0,0,1-.008,1.2,1.332,1.332,0,0,1-1.435,1.376,1.3,1.3,0,0,1-1.3-1.338c-.054-.8-.014-1.6-.022-2.4-.008-.992.374-1.745,1.45-1.71.966.032,1.33.753,1.318,1.67-.006.4,0,.8,0,1.2Z" transform="translate(41.121 40.169)" fill="#00325a"/>
        <path id="Trazado_161822" data-name="Trazado 161822" d="M82.857,77.452c0,.4.008.8,0,1.2-.026.855-.44,1.472-1.312,1.5-.972.034-1.418-.609-1.442-1.542-.017-.684.011-1.372-.009-2.057-.029-.963.248-1.8,1.321-1.837,1.19-.038,1.485.844,1.45,1.876-.009.286,0,.572,0,.858" transform="translate(43.057 40.17)" fill="#00325a"/>
        <path id="Trazado_161823" data-name="Trazado 161823" d="M29.254,32.527q.023,12.888.045,25.778a2.6,2.6,0,0,1-2.886,2.379c-5.412.083-10.825.075-16.237,0a2.64,2.64,0,0,1-2.934-2.334Q7.22,44.2,7.21,30.045c0-1.881,1.01-3.023,2.789-3.035,4.6-.029,9.2.037,13.8.065.6.73.427,1.619.51,2.457A2.361,2.361,0,0,0,26.8,32.016c.84.085,1.727-.083,2.459.51" transform="translate(3.876 14.517)" fill="#efefef"/>
        <path id="Trazado_161824" data-name="Trazado 161824" d="M7.244,47.409a3.625,3.625,0,0,0,3.561,1.867q7.482-.106,14.966,0A3.6,3.6,0,0,0,29.3,47.36c.014.63.063,1.264.034,1.893A2.594,2.594,0,0,1,26.649,52q-8.349.062-16.7,0a2.6,2.6,0,0,1-2.732-2.7c-.032-.629.017-1.262.029-1.893" transform="translate(3.873 25.462)" fill="#db9500"/>
        <path id="Trazado_161825" data-name="Trazado 161825" d="M23.452,32.5c-5.309-.018-5.429-.137-5.452-5.452A41.707,41.707,0,0,1,23.452,32.5" transform="translate(9.677 14.542)" fill="#d2d1cf"/>
        <path id="Trazado_161826" data-name="Trazado 161826" d="M64.569,7.657A2.452,2.452,0,0,1,65.6,9.879q-.021,8.677-.054,17.352c-.209,1.6-1.259,2.225-2.731,2.349-1.035.089-2.071.049-3.108.049-7.828,0-15.656.018-23.484-.009-2.566-.009-3.171-.429-3.772-2.385q-.028-8.679-.051-17.358a2.435,2.435,0,0,1,1.033-2.22c2.336,1.092,4.019,3.04,5.983,4.613,2.379,1.907,4.711,3.876,7.025,5.865,2.05,1.759,3.06,1.753,5.117,0,3.724-3.172,7.528-6.25,11.255-9.419a3.817,3.817,0,0,1,1.751-1.059" transform="translate(17.421 4.117)" fill="#0081a9"/>
        <path id="Trazado_161827" data-name="Trazado 161827" d="M64.207,7.9c-2.379,2.048-4.747,4.109-7.139,6.141-1.828,1.556-3.723,3.037-5.525,4.622-2.142,1.887-3.472,1.968-5.552.229Q39.805,13.728,33.609,8.57a4.2,4.2,0,0,1-.534-.666c.491-.727,1.239-.707,1.993-.707q13.573,0,27.147,0c.753,0,1.5-.017,1.993.707" transform="translate(17.782 3.869)" fill="#009fc7"/>
        <path id="Trazado_161828" data-name="Trazado 161828" d="M32.455,20.392a3.619,3.619,0,0,0,3.553,1.877Q49,22.191,62,22.269a3.608,3.608,0,0,0,3.549-1.882c.018.63.08,1.264.048,1.893A2.594,2.594,0,0,1,62.878,25q-13.873.046-27.745,0a2.592,2.592,0,0,1-2.723-2.711c-.032-.629.026-1.262.045-1.893" transform="translate(17.419 10.961)" fill="#db9500"/>
        <path id="Trazado_161829" data-name="Trazado 161829" d="M94.067,46.388c-1.232,6.764-5.231,11.1-11.717,13.134-8.7,2.728-18.444-2.754-20.706-12.15A16.51,16.51,0,0,1,74.841,27.3c.956-.169,1.937-.208,2.906-.308.744.672.6,1.582.6,2.425.017,4.087.029,8.176,0,12.261-.166,3.387.518,4.141,3.815,4.155,3.212.014,6.424-.011,9.636.014.786.006,1.628-.128,2.266.538" transform="translate(32.896 14.513)" fill="#efedea"/>
        <path id="Trazado_161830" data-name="Trazado 161830" d="M72.072,42.627q-.058-7.381-.115-14.76c.8-2.219,1.439-2.645,3.675-2.459,8.8.726,16.308,9.327,15.359,17.6a2.9,2.9,0,0,1-2.762,1.94c-4.3.1-8.606.074-12.907.023-2.1-.026-2.694-.52-3.251-2.346" transform="translate(38.686 13.639)" fill="#c70a50"/>
        <path id="Trazado_161831" data-name="Trazado 161831" d="M72.045,36.593a3.591,3.591,0,0,0,3.578,1.868c4.319-.058,8.641.009,12.961.028a1.79,1.79,0,0,1,.017,2.365l-.351.372q-5.916-.012-11.832-.025c-3.956,0-4.585-.663-4.373-4.608" transform="translate(38.714 19.673)" fill="#d1d1d1"/>
        <path id="Trazado_161832" data-name="Trazado 161832" d="M82.8,40.72q-.009-1.183-.015-2.365a4.29,4.29,0,0,0,2.379-1.513c.134,3.014-.155,3.487-2.363,3.878" transform="translate(44.509 19.807)" fill="#dc9501"/>
        <path id="Trazado_161833" data-name="Trazado 161833" d="M45.652,58.454a6.924,6.924,0,0,1-6.882-5.82c-.161-1.01-.2-2.125,1.052-2.373,1.3-.255,1.539.737,1.708,1.813a4.125,4.125,0,0,0,8.176.062c.169-1.059.371-2.1,1.659-1.884,1.37.234,1.279,1.428,1.086,2.489a6.917,6.917,0,0,1-6.8,5.712" transform="translate(20.8 27)" fill="#0b5078"/>
        <path id="Trazado_161834" data-name="Trazado 161834" d="M42.3,49.77c0-.86-.015-1.719,0-2.579a1.344,1.344,0,0,1,1.352-1.473,1.309,1.309,0,0,1,1.4,1.419c.034,1.778.026,3.553,0,5.331a1.374,1.374,0,1,1-2.745.052c-.038-.915-.009-1.834-.009-2.751" transform="translate(22.738 24.579)" fill="#0b5078"/>
        <path id="Trazado_161835" data-name="Trazado 161835" d="M48.146,44.769c.9.229,1.478.68,1.375,1.565a1.359,1.359,0,0,1-2.708-.123c-.014-.9.632-1.255,1.333-1.442" transform="translate(25.168 24.069)" fill="#135479"/>
        <path id="Trazado_161836" data-name="Trazado 161836" d="M40.564,46.149c-.111.764-.48,1.313-1.292,1.355a1.253,1.253,0,0,1-1.455-1.321,1.283,1.283,0,0,1,1.422-1.372,1.381,1.381,0,0,1,1.324,1.338" transform="translate(20.332 24.091)" fill="#135479"/>
        <path id="Trazado_161837" data-name="Trazado 161837" d="M53.2,59.824q-3.483,3.444-6.962,6.89c-.5.5-.883.348-1.307-.088q-3.125-3.208-6.264-6.4c2.09.69,4.092,1.621,6.369,1.722,2.969.132,5.568-.944,8.165-2.122" transform="translate(20.791 32.163)" fill="#efc79f"/>
        <path id="Trazado_161838" data-name="Trazado 161838" d="M17.232,39.667c-1.9,0-3.8.006-5.7,0-1.072,0-2.474.241-2.492-1.336-.02-1.718,1.464-1.419,2.579-1.424q5.609-.018,11.217,0c1.1.006,2.642-.34,2.66,1.336.02,1.828-1.607,1.393-2.746,1.415-1.839.038-3.681.011-5.522.011" transform="translate(4.862 19.827)" fill="#0a5078"/>
        <path id="Trazado_161839" data-name="Trazado 161839" d="M13.051,43.248c-.918,0-1.841.049-2.755-.015A1.267,1.267,0,0,1,9.021,41.88a1.254,1.254,0,0,1,1.273-1.355q2.839-.081,5.683,0a1.358,1.358,0,0,1,0,2.711c-.972.062-1.951.014-2.928.014" transform="translate(4.85 21.766)" fill="#0b5078"/>
        <path id="Trazado_161840" data-name="Trazado 161840" d="M18.422,36.061c-.861,0-1.724.028-2.583-.008a1.305,1.305,0,0,1-1.416-1.4A1.32,1.32,0,0,1,15.889,33.3c1.779-.018,3.561-.026,5.34,0a1.3,1.3,0,0,1,1.416,1.4,1.325,1.325,0,0,1-1.467,1.352c-.919.017-1.837,0-2.757,0" transform="translate(7.753 17.896)" fill="#0b5078"/>
        <path id="Trazado_161841" data-name="Trazado 161841" d="M18.955,40.492c.4,0,.8,0,1.2,0A1.343,1.343,0,0,1,21.675,41.8c.043.964-.578,1.441-1.53,1.458-.746.012-1.491-.008-2.237.006-.923.015-1.644-.331-1.682-1.309-.042-1.079.69-1.482,1.7-1.464.344.006.689,0,1.033,0" transform="translate(8.722 21.768)" fill="#0c5179"/>
        <path id="Trazado_161842" data-name="Trazado 161842" d="M11.652,36.049a10.781,10.781,0,0,1-1.375-.011,1.361,1.361,0,0,1,.029-2.717c.855-.063,1.719-.02,2.58-.025.947-.006,1.6.438,1.591,1.4s-.68,1.384-1.622,1.37c-.4,0-.8,0-1.2,0v-.015" transform="translate(4.849 17.896)" fill="#0c5179"/>
      </g>
    </g>
  </g>
</svg>
