<svg xmlns="http://www.w3.org/2000/svg" xmlns:xlink="http://www.w3.org/1999/xlink" width="254" height="133" viewBox="0 0 254 133">
  <defs>
    <clipPath id="clip-path">
      <rect id="Rect치ngulo_42682" data-name="Rect치ngulo 42682" width="124.429" height="119.047" fill="none"/>
    </clipPath>
  </defs>
  <g id="Grupo_169638" data-name="Grupo 169638" transform="translate(-359 -7788)">
    <rect id="Rect치ngulo_42536" data-name="Rect치ngulo 42536" width="254" height="133" rx="12" transform="translate(359 7788)" fill="#6b8dfc"/>
    <g id="Grupo_169637" data-name="Grupo 169637" transform="translate(424 7795)">
      <g id="Grupo_169636" data-name="Grupo 169636" clip-path="url(#clip-path)">
        <path id="Trazado_161888" data-name="Trazado 161888" d="M0,55.253c.517-.782.638-1.816,1.65-2.281,1.767-.813,3.309-.313,4.656,1.807V44.6c.86-.694,1.863-.316,2.808-.385a14.406,14.406,0,0,0,5.906-.863c.366-.147.763-.3,1.129.038a6.389,6.389,0,0,1,.251,2.825c.036,1.155.008,2.312.033,3.466,0,.119.033.262-.032.354-1.373,1.92-1.013,3.862-.082,5.814a4.887,4.887,0,0,1-.1,2.169c-.425.506-.813.06-1.175-.086a4.482,4.482,0,0,0-3.742.078c-1.175.554-1.277,1.6-.21,2.332a3.724,3.724,0,0,0,3,.5c.685-.14,1.28-.724,2.053-.441a3.526,3.526,0,0,1,.356,1.4,14.181,14.181,0,0,0,9.557,11.433c.462.177,1.249.246,1.1.877-.111.469-.855.207-1.306.2-2.137-.032-4.279.145-6.414-.095A13.8,13.8,0,0,1,10.013,69.4a13.112,13.112,0,0,1-3.22-5.994.755.755,0,0,0-.762-.631A6.728,6.728,0,0,1,0,57.683Z" transform="translate(0 -4.272)" fill="#fecabd"/>
        <path id="Trazado_161889" data-name="Trazado 161889" d="M127.611,20.119c.019,4.389.032,8.778.066,13.167,0,.464-.171.97.195,1.39.48.423.116.95.178,1.425-.046,1.006,0,2.015-.033,3.022a5.95,5.95,0,0,1-.581,3.44,16.13,16.13,0,0,1-4.323,7.557,14.423,14.423,0,0,1-10.057,4.064c-1.289.006-2.58-.017-3.87-.027-6.347-.609-11.448-6.518-12.308-11.9a36.942,36.942,0,0,1-.128-5.8.9.9,0,0,1,.4-.835,2.072,2.072,0,0,0,2.247-1.6,3.669,3.669,0,0,0-.639-3.64A1.323,1.323,0,0,0,97.648,30c-.379,0-.739-.017-.862-.478-.272-2.818-.087-5.64-.111-8.458a27.166,27.166,0,0,1,.111-4.7c.255-.66.737-.495,1.2-.3a6.62,6.62,0,0,1,1.631,1.036q1.312,1.075,2.7,2.05a8.583,8.583,0,0,0,10.084.134c1.252-.82,2.413-1.761,3.6-2.664a7.208,7.208,0,0,1,8.967.3,6.407,6.407,0,0,1,2.646,3.2" transform="translate(-9.56 -1.503)" fill="#c28859"/>
        <path id="Trazado_161890" data-name="Trazado 161890" d="M21.187,73.775h7.564c-6.5-2.448-10.428-6.807-10.964-13.872a14.6,14.6,0,0,0,0-2.165l.027-2.5c1.779-.1,2.344-.586,2.56-2.179a2.921,2.921,0,0,0-2.315-3.586c-.493-.506-.236-1.137-.25-1.708-.041-1.632-.022-3.265-.026-4.9-.023-.448.356-.592.629-.8a15.692,15.692,0,0,0,2.8-2.779c.237-.3.4-.743.936-.515a10.546,10.546,0,0,0,7.16,3.3c2.01.023,4.021.005,6.033.005,2.7-.03,5.411.129,8.068-.585a27.652,27.652,0,0,0,3.773-1.306c.387-.167.761-.518,1.234-.2,0,4.356,0,8.711.011,13.066,0,.423-.167.9.223,1.258.5.5.1,1.083.15,1.626-.051,1,0,2-.035,3-.036,1.161.225,2.375-.593,3.4a16.631,16.631,0,0,1-3.25,6.385,13.829,13.829,0,0,1-8.943,5c-4.685.635-9.42.2-14.131.283a.774.774,0,0,1-.66-.23" transform="translate(-1.757 -3.83)" fill="#fedccd"/>
        <path id="Trazado_161891" data-name="Trazado 161891" d="M70.539,73.793c5.367-.088,10.755-.377,15.724,2.3a21.577,21.577,0,0,1,9.724,10.3,19.943,19.943,0,0,1,1.839,8.217c.012,3.115,0,6.231.006,9.346-1.049.558-2.217.881-2.97,1.959-.422.6-.674.005-.718-.38-.126-1.124-.02-2.256-.062-3.383a4.086,4.086,0,0,0-.176-1.9,1.418,1.418,0,0,0-.582-.425c-3.961-1.561-6.56-4.61-8.783-8.06-.8-1.234-.77-1.247-1.963-.357-4.029,3-8.676,4.648-13.425,6.042-1.55.455-3.115.875-4.7,1.193a2.279,2.279,0,0,1-1.309.1.586.586,0,0,1-.256-.27,19.351,19.351,0,0,1,.178-6.155A46.63,46.63,0,0,1,66.4,80.182a15.2,15.2,0,0,1,3.99-5.862.414.414,0,0,0,.153-.526" transform="translate(-6.204 -7.295)" fill="#dc636e"/>
        <path id="Trazado_161892" data-name="Trazado 161892" d="M49.516,37.613C45.4,39.838,40.954,40.263,36.385,40c-4.02-1.342-6.665-3.977-7.226-8.255a33.849,33.849,0,0,1,.005-8.707,9.493,9.493,0,0,1,5.17-7.345,2.754,2.754,0,0,1,1.239-.446,45.835,45.835,0,0,1-5.077.078,1.068,1.068,0,0,1-.98-.36,41.925,41.925,0,0,1,7.608-.14c6.59.2,13.179.035,19.768.1,2.1.021,2.107,0,2.1,2.1-.012,3.147.176,6.3-.736,9.386a19.465,19.465,0,0,1-8.738,11.194" transform="translate(-2.857 -1.457)" fill="#a97a63"/>
        <path id="Trazado_161893" data-name="Trazado 161893" d="M127.57,18.616a12.5,12.5,0,0,0-4.057-3.743,6.427,6.427,0,0,0-7.187.373c-1.179.846-2.306,1.771-3.5,2.594-3.728,2.57-7.6,2.427-11.217-.269-1.477-1.1-2.756-2.513-4.588-3.092a.757.757,0,0,1-.245-.331c-.11-2.777-.514-5.578.759-8.235,1.34-2.8,3.347-4.813,5.827-5.475A41.894,41.894,0,0,1,96.6.424a.556.556,0,0,1-.387-.269A3.086,3.086,0,0,1,96.907,0c7.111.033,14.226-.061,21.332.164a9.773,9.773,0,0,1,9.381,9.968c.014,2.828-.031,5.655-.05,8.483" transform="translate(-9.519 0)" fill="#365e7d"/>
        <path id="Trazado_161894" data-name="Trazado 161894" d="M95.317,15.79a1.128,1.128,0,0,1,.022.19q0,6.973,0,13.947a1.172,1.172,0,0,1-.188.8,4.211,4.211,0,0,0,.279,4.331.593.593,0,0,1,.125.663c-.416,3.085-.551,6.16.7,9.1a14.484,14.484,0,0,0,10.234,8.914,6.535,6.535,0,0,1,.982.421c-3.267-.022-6.564.4-9.793-.205-5.879-1.1-9.673-4.686-11.544-10.314a1.331,1.331,0,0,0-1.369-1.13,6.251,6.251,0,0,1-5.4-7.4,2.991,2.991,0,0,1,2.3-2.536,3.112,3.112,0,0,1,3.462,1.41c.106.152.207.308.487.727V20.149c1.209-2.607,4.919-5.542,8.644-4.869a1.866,1.866,0,0,1,1.066.511" transform="translate(-7.839 -1.502)" fill="#b07a4a"/>
        <path id="Trazado_161895" data-name="Trazado 161895" d="M69.086,73.8c.153.163,1.116-.046.389.5-2.565,1.918-3.813,4.693-4.857,7.512a42.764,42.764,0,0,0-2.99,16.765c-.362.537-.955.549-1.5.651a66.933,66.933,0,0,1-6.963.932c-.9.072-1.186.443-1.167,1.288.027,1.252.041,2.506-.018,3.757-.016.348,0,.8-.417.915-.366.1-.561-.282-.733-.533-.677-.981-1.9-1.008-2.776-1.624.064-3.711-.206-7.427.174-11.135A21.4,21.4,0,0,1,63.376,74.592a17.3,17.3,0,0,1,5.71-.795" transform="translate(-4.751 -7.3)" fill="#ca5769"/>
        <path id="Trazado_161896" data-name="Trazado 161896" d="M47.734,106.682a3.957,3.957,0,0,1,3.569,1.924c0-1.688.01-3.375-.005-5.062-.006-.586.038-.974.816-1a57.57,57.57,0,0,0,9.2-1.247l-.035.094a4.776,4.776,0,0,1,.34,2.109c-.019.8.087,1.435,1.061,1.528a.425.425,0,0,1,.372.409c-.4.469-.955.326-1.462.359a6.986,6.986,0,0,0-1.438.1.818.818,0,0,0-.667.622.628.628,0,0,0,.452.757c.808.259.962.874.98,1.6a10.83,10.83,0,0,0,.767,2.648,3.113,3.113,0,0,1-.3,1.512c-.609.452-1.32.269-1.991.3-1.444.067-2.516.709-2.556,1.565-.043.908,1.07,1.615,2.568,1.675a10.131,10.131,0,0,1,2.167.032,3.327,3.327,0,0,1,.531,1.341A14.476,14.476,0,0,0,73.3,128.281a24.073,24.073,0,0,0,6.049.14,5.54,5.54,0,0,1,1.21-.034c3.744.107,7.485-.012,11.225.029.925.011,1.852-.008,2.777.007a2.077,2.077,0,0,1,1.484.376c-.208.36-.562.257-.869.257q-16.164,0-32.327-.005a3.25,3.25,0,0,1-.36-.042c-.024-.111.125-.235-.141-.31a14.937,14.937,0,0,1-10.529-9.85,2.145,2.145,0,0,0-1.931-1.679,3.256,3.256,0,0,1-2.167-.973c-1.287-1.371-2.627-2.7-2.847-4.728-.244-2.251.418-4.267,2.864-4.786" transform="translate(-4.435 -10.022)" fill="#fecabd"/>
        <path id="Trazado_161897" data-name="Trazado 161897" d="M28.588,15c1.171.016,2.343.039,3.514.048,1.11.008,2.22,0,3.349.075a10.747,10.747,0,0,0-5.186,3.76A8.67,8.67,0,0,0,28.524,23.2a44.31,44.31,0,0,0,.068,8.7c.49,3.647,2.671,6.016,5.956,7.487.326.146.864.08.91.65-2.13.008-4.264.1-6.389,0A9.645,9.645,0,0,1,22.078,36.5a4.69,4.69,0,0,1-1.932-3.109,28.962,28.962,0,0,1-.305-10.469A2.128,2.128,0,0,1,20.367,22a9.256,9.256,0,0,1,8.221-7" transform="translate(-1.931 -1.484)" fill="#976b54"/>
        <path id="Trazado_161898" data-name="Trazado 161898" d="M19.409,22.718c-.593,4.972-1.289,9.954,1.712,14.5A14.048,14.048,0,0,1,17,41.244a13.383,13.383,0,0,1-6.8,1.207,1.806,1.806,0,0,1-.346-1.372c-.009-3.76-.068-7.52.018-11.28A7.448,7.448,0,0,1,13.888,22.9c-.851.025-1.8.037-2.758.01a1.454,1.454,0,0,1-1.226-.38,6.729,6.729,0,0,1,2.868-.2,26.1,26.1,0,0,1,6.637.386" transform="translate(-0.972 -2.204)" fill="#a97a63"/>
        <path id="Trazado_161899" data-name="Trazado 161899" d="M96,14.305c-4.4-1.14-7.209,1.264-9.71,4.358-.008-3.7-.483-7.431.282-11.079A9.69,9.69,0,0,1,95.215.172h8.05a12.64,12.64,0,0,0-5.339,4.04A9.583,9.583,0,0,0,96,9.821c.02,1.495,0,2.99,0,4.485" transform="translate(-8.522 -0.017)" fill="#2b4d66"/>
        <path id="Trazado_161900" data-name="Trazado 161900" d="M125.044,63.089a52.36,52.36,0,0,1-11.589,31.3,10.658,10.658,0,0,1-.921,1.12,1.8,1.8,0,0,1-2.655-2.418,51.8,51.8,0,0,0,6.715-10.48A47.649,47.649,0,0,0,121.2,65.424c.086-1.207.183-2.411.208-3.622a1.839,1.839,0,0,1,1.83-1.984,1.877,1.877,0,0,1,1.806,2.02c.013.364,0,.728,0,1.251" transform="translate(-10.829 -5.918)" fill="#9cc5fa"/>
        <path id="Trazado_161901" data-name="Trazado 161901" d="M39.069,106.853c0,1.519-1.4,2.24-2.864,1.4a43.994,43.994,0,0,1-5.577-3.862A52.777,52.777,0,0,1,18.144,90a53.423,53.423,0,0,1-4.128-8.762,1.867,1.867,0,0,1,.875-2.464,1.845,1.845,0,0,1,2.527,1.2,49.7,49.7,0,0,0,6,11.465,49,49,0,0,0,14.289,13.456c1.1.676,1.362,1.041,1.363,1.962" transform="translate(-1.372 -7.777)" fill="#9cc5fa"/>
        <path id="Trazado_161902" data-name="Trazado 161902" d="M79.225,6.632A1.945,1.945,0,0,1,76.673,8.5a48.268,48.268,0,0,0-28.738,2.467,8.254,8.254,0,0,1-1.365.495A1.787,1.787,0,0,1,45.4,8.09a47.136,47.136,0,0,1,8.236-2.828A53.314,53.314,0,0,1,67.31,3.727,56.512,56.512,0,0,1,77.623,4.96a1.848,1.848,0,0,1,1.6,1.671" transform="translate(-4.375 -0.368)" fill="#9cc5fa"/>
        <path id="Trazado_161903" data-name="Trazado 161903" d="M9.271,22.56h4.692c.04.523-.324.536-.542.653a7.143,7.143,0,0,0-3.832,6.659c-.059,4.2-.02,8.4-.023,12.606l-2.92.077c-2.485-.747-3.21-1.684-3.209-4.252,0-3.226-.047-6.454.076-9.677A6.683,6.683,0,0,1,9.271,22.56" transform="translate(-0.339 -2.232)" fill="#976b54"/>
        <path id="Trazado_161904" data-name="Trazado 161904" d="M48.034,117.831a16.173,16.173,0,0,0,3.353.906c.537.031.619.44.734.821a15.262,15.262,0,0,0,10.766,10.626c.15.046.469-.126.418.2-.017.11-.328.174-.5.26-4.564,0-9.127-.015-13.69.024-.843.007-1.107-.231-1.1-1.086.041-3.916.019-7.834.02-11.751" transform="translate(-4.75 -11.658)" fill="#ca5769"/>
        <path id="Trazado_161905" data-name="Trazado 161905" d="M99.939,130.43q-7.419.014-14.838.024c-.312,0-.653.071-.894-.229,1.152-.763,2.559-.87,3.775-1.526a14.978,14.978,0,0,0,7.379-8.423,3.677,3.677,0,0,1,.733-1.635c1.3-.217,2.481-.961,3.852-.841l-.008,12.629" transform="translate(-8.331 -11.653)" fill="#dc636e"/>
        <path id="Trazado_161906" data-name="Trazado 161906" d="M101.23,116.31a11.065,11.065,0,0,1-3.875,1,2.281,2.281,0,0,1-.092-1.535,26.326,26.326,0,0,0,.023-6.143,54.9,54.9,0,0,1-.054-5.916,1.246,1.246,0,0,1,.351-.995c.493.9.173,1.871.223,2.807.058,1.066.014,2.137.014,3.444a3.594,3.594,0,0,1,3.424-2.144,3.233,3.233,0,0,1,2.924,3.378,6.751,6.751,0,0,1-2.937,6.1" transform="translate(-9.614 -10.163)" fill="#fecabd"/>
        <path id="Trazado_161907" data-name="Trazado 161907" d="M130.818,44.465c-.038-1.159.391-2.285.235-3.452a7.525,7.525,0,0,1,2.636-1.659c.587-.181,1.025-.552.848-1.248-.167-.653-.741-.612-1.27-.669-.789-.085-1.413.6-2.208.432.006-.439.342-.828.2-1.29a2.829,2.829,0,0,1,2.946-2.168,2.86,2.86,0,0,1,2.944,2.212,6.253,6.253,0,0,1-6.325,7.842" transform="translate(-12.942 -3.404)" fill="#b07a4a"/>
        <path id="Trazado_161908" data-name="Trazado 161908" d="M51.764,57.265a4.424,4.424,0,0,0,.224-1.481,3.094,3.094,0,0,1,3.217-2.161,3.137,3.137,0,0,1,2.865,3.071,6.374,6.374,0,0,1-6.559,7.117,16.89,16.89,0,0,0,.254-3.41c1.006-.762,1.817-1.867,3.336-1.673a.837.837,0,0,0,.885-.83,1,1,0,0,0-.637-1.065,2.924,2.924,0,0,0-2.238.008c-.447.147-.812.564-1.347.424" transform="translate(-5.096 -5.303)" fill="#fecabd"/>
        <path id="Trazado_161909" data-name="Trazado 161909" d="M17.124,59.719a1.588,1.588,0,0,1,0,2.165c-1.918,1.272-4.164,1.277-5.469.011a1.443,1.443,0,0,1,.367-2.538,4.509,4.509,0,0,1,5.1.362" transform="translate(-1.094 -5.811)" fill="#e9a598"/>
        <path id="Trazado_161910" data-name="Trazado 161910" d="M17.962,50.642l.348-.089c1-.259,1.483.377,1.864,1.123a4.448,4.448,0,0,1-.41,4.551,1.436,1.436,0,0,1-2.048.18,4.424,4.424,0,0,1,.246-5.765" transform="translate(-1.659 -4.996)" fill="#2c4d66"/>
        <path id="Trazado_161911" data-name="Trazado 161911" d="M6.5,58.9a3.063,3.063,0,0,1,0,.423c-.093.444.278,1.09-.289,1.3-.526.194-.809-.424-1.135-.748a1.358,1.358,0,0,0-1.59-.487A1.224,1.224,0,0,1,2,58.642a1.163,1.163,0,0,1,.407-1.5c.968-.852,2-.6,3.061-.234A1.6,1.6,0,0,1,6.5,58.9" transform="translate(-0.184 -5.597)" fill="#e9ac9d"/>
        <path id="Trazado_161912" data-name="Trazado 161912" d="M108.208,48.873a4.384,4.384,0,0,1-3.272-1.049c-.662-.5-1.08-1.117-.523-1.964a1.262,1.262,0,0,1,1.995-.293,2.711,2.711,0,0,0,3.642-.037,1.186,1.186,0,0,1,1.825.136,1.437,1.437,0,0,1-.219,2.065,4.421,4.421,0,0,1-3.448,1.142" transform="translate(-10.305 -4.469)" fill="#dc636d"/>
        <path id="Trazado_161913" data-name="Trazado 161913" d="M117.048,34.4a3.9,3.9,0,0,1,.787-2.586,1.367,1.367,0,0,1,2.272-.006,4.54,4.54,0,0,1,.087,4.908c-.851,1.117-1.9,1.045-2.586-.2a4.093,4.093,0,0,1-.559-2.114" transform="translate(-11.58 -3.088)" fill="#2c4d66"/>
        <path id="Trazado_161914" data-name="Trazado 161914" d="M97.21,37.309a4.368,4.368,0,0,1-.217-5.79c1.251-.5,1.883-.272,2.436.9a4.286,4.286,0,0,1-.01,3.862c-.433.884-1.057,1.58-2.209,1.031" transform="translate(-9.498 -3.093)" fill="#2c4d66"/>
        <path id="Trazado_161915" data-name="Trazado 161915" d="M131.085,38.164a4.249,4.249,0,0,1,2.854-.742,1.01,1.01,0,0,1,.973.759c.108.463.214,1.067-.264,1.336-1.158.652-2.374,1.2-3.567,1.791q0-1.572,0-3.145" transform="translate(-12.969 -3.7)" fill="#8f6239"/>
        <path id="Trazado_161916" data-name="Trazado 161916" d="M29,68.313a5.337,5.337,0,0,1-3.556-1.45,1.224,1.224,0,0,1-.189-1.823,1.179,1.179,0,0,1,1.808-.24,2.675,2.675,0,0,0,3.819-.007,1.2,1.2,0,0,1,1.823.186,1.253,1.253,0,0,1-.167,1.837A5.212,5.212,0,0,1,29,68.313" transform="translate(-2.466 -6.377)" fill="#dc636e"/>
        <path id="Trazado_161917" data-name="Trazado 161917" d="M43.941,58.74a5.494,5.494,0,0,1,2.5.816,1.526,1.526,0,0,1,.026,2.475,4.87,4.87,0,0,1-5.233-.014,1.5,1.5,0,0,1,.277-2.653,4.891,4.891,0,0,1,2.436-.624" transform="translate(-4.012 -5.811)" fill="#e9a598"/>
        <path id="Trazado_161918" data-name="Trazado 161918" d="M37.788,53.609a4.253,4.253,0,0,1,.785-2.494,1.333,1.333,0,0,1,2.256-.037,4.469,4.469,0,0,1,0,5.1,1.35,1.35,0,0,1-2.263-.058,4.265,4.265,0,0,1-.775-2.508" transform="translate(-3.739 -4.994)" fill="#2c4e66"/>
        <path id="Trazado_161919" data-name="Trazado 161919" d="M51.792,57.559a3.7,3.7,0,0,1,3.7-.759,1.313,1.313,0,0,1,.866,1.635,1.147,1.147,0,0,1-1.324.976,1.978,1.978,0,0,0-2.181.841,1.149,1.149,0,0,1-1.058.443q0-1.569,0-3.137" transform="translate(-5.124 -5.597)" fill="#e9ac9d"/>
        <path id="Trazado_161920" data-name="Trazado 161920" d="M94.19,101.665c-.173,3.759.259,7.5.249,11.26a14.428,14.428,0,0,1-.477,3.329c-1.07,5.647-6.416,10.794-11.863,11.423-5.814.846-11.107-.044-15.239-4.658a13.008,13.008,0,0,1-3.521-7.267.469.469,0,0,1,.052-.109c1.508-1.653,1.507-1.652-.225-3.216a.292.292,0,0,1-.084-.325c.09-.492-.2-1.054.268-1.479.864-.023,1.808.144,2.223-.939a4.679,4.679,0,0,0-.107-4.057c-.2-.381-.643-.619-.677-1.107-1.662-.041-1.938-1.043-1.708-2.427.089-.536-.447-1.076-.014-1.623a69.345,69.345,0,0,0,14.18-4.46,22.837,22.837,0,0,0,5.861-3.618c.6-.545.846-.469,1.226.206a22.813,22.813,0,0,0,6.1,7.141,16.341,16.341,0,0,0,3.757,1.924" transform="translate(-6.223 -9.105)" fill="#fedccd"/>
        <path id="Trazado_161921" data-name="Trazado 161921" d="M85.9,39.669c0,.281,0,.562,0,.843s-.058.579-.362.7c-.27.106-.458-.1-.615-.275a3.84,3.84,0,0,0-1.73-1.05,1.211,1.211,0,0,1-.872-1.5,1.132,1.132,0,0,1,1.289-.978c1.7,0,2.3.552,2.292,2.259" transform="translate(-8.141 -3.701)" fill="#8f6239"/>
        <path id="Trazado_161922" data-name="Trazado 161922" d="M64.558,105.892c1.9.884,1.864,4.421.861,5.724a1.51,1.51,0,0,1-2.3.379,4.6,4.6,0,0,1-.966-3.046c.021-.462-.045-.745-.615-.8a1.013,1.013,0,0,1-.952-1.284,1.128,1.128,0,0,1,1.307-.982c.888.012,1.777,0,2.665.005" transform="translate(-5.992 -10.476)" fill="#2b4d66"/>
        <path id="Trazado_161923" data-name="Trazado 161923" d="M62.569,114.3a1.3,1.3,0,0,0,.285.207,2.014,2.014,0,0,1,1.537,1.679c.023.893-.7,1.471-1.565,1.763a6.028,6.028,0,0,1-3.1.173,2.126,2.126,0,0,1-2-2.044,2.435,2.435,0,0,1,2.309-1.777c.844-.051,1.694,0,2.541,0" transform="translate(-5.71 -11.307)" fill="#e9a497"/>
        <path id="Trazado_161924" data-name="Trazado 161924" d="M86.3,105.894c.4,0,.807-.014,1.21,0a1.061,1.061,0,0,1,1.131,1.025c.062.653-.251,1.181-.9,1.2-.838.029-.84.475-.834,1.1a3.94,3.94,0,0,1-.715,2.394,1.44,1.44,0,0,1-2.512.039,4.941,4.941,0,0,1-.033-5.042c.709-.97,1.712-.706,2.656-.719" transform="translate(-8.209 -10.474)" fill="#2c4d66"/>
        <path id="Trazado_161925" data-name="Trazado 161925" d="M74.547,122.408A5.591,5.591,0,0,1,70.87,120.9a1.342,1.342,0,0,1-.138-1.958,1.264,1.264,0,0,1,1.927-.273,2.5,2.5,0,0,0,3.59.026,1.27,1.27,0,0,1,1.931.235A1.372,1.372,0,0,1,78,120.976a5.68,5.68,0,0,1-3.458,1.433" transform="translate(-6.962 -11.707)" fill="#dc636e"/>
        <path id="Trazado_161926" data-name="Trazado 161926" d="M87.935,114.3a3.377,3.377,0,0,1,3.174,1.161,1.1,1.1,0,0,1,.05,1.515c-1.116,1.692-4.8,1.5-5.873.462a1.543,1.543,0,0,1,.146-2.5,3.339,3.339,0,0,1,2.5-.637" transform="translate(-8.382 -11.305)" fill="#e9a498"/>
      </g>
    </g>
  </g>
</svg>
