<svg xmlns="http://www.w3.org/2000/svg" xmlns:xlink="http://www.w3.org/1999/xlink" width="254" height="133" viewBox="0 0 254 133">
  <defs>
    <clipPath id="clip-path">
      <rect id="Rect치ngulo_42683" data-name="Rect치ngulo 42683" width="117.985" height="119" fill="none"/>
    </clipPath>
  </defs>
  <g id="Grupo_169641" data-name="Grupo 169641" transform="translate(-674 -7788)">
    <rect id="Rect치ngulo_42537" data-name="Rect치ngulo 42537" width="254" height="133" rx="12" transform="translate(674 7788)" fill="#6b8dfc"/>
    <g id="Grupo_169640" data-name="Grupo 169640" transform="translate(742 7795)">
      <g id="Grupo_169639" data-name="Grupo 169639" clip-path="url(#clip-path)">
        <path id="Trazado_161927" data-name="Trazado 161927" d="M36.515,127.985a15.709,15.709,0,0,1-3.635-4.917,3.224,3.224,0,0,1-.385-1.791c.2-1.342.2-2.7.331-4.044a41.962,41.962,0,0,1,2.008-9.4c-.436-1.278-1.492-2.1-2.313-3.083-.448-.537-.783-1.262-1.614-1.366a2.206,2.206,0,0,0-1.362.809c-.5.489-.775.3-.988-.274-1.244-3.367-2.416-6.759-3.657-10.127a.808.808,0,0,1,.275-1.094c-.1-.029-.213-.053-.316-.084a9.535,9.535,0,0,1-5.8,2.111c-.1.254-.2.5-.317.749l.377-.2a11.587,11.587,0,0,0-1.465,5.054c-.4,3.926-.774,7.855-1.078,11.79-.239,3.081-.462,6.169-.523,9.259-.029,1.507-.013,3-.188,4.512a4.717,4.717,0,0,0,.27,3.171H20.55c.834-.634.711-1.6.756-2.45a50.458,50.458,0,0,1,.742-5.872c.331-1.936.716-3.862,1.228-5.763a25.368,25.368,0,0,0,.209,3.82,71.906,71.906,0,0,0,.8,8.081,3.817,3.817,0,0,0,.685,2.184H37.278c.049-.571-.447-.779-.763-1.079" transform="translate(-1.709 -10.064)" fill="#fefefe"/>
        <path id="Trazado_161928" data-name="Trazado 161928" d="M59.1,97.062a29.013,29.013,0,0,0-6.7-3.4,1.216,1.216,0,0,1-.031.174c-1.144,3.4-2.481,6.726-3.62,10.126-.183.544-.495.639-.946.242-.4-.349-.7-.838-1.3-.911-1.192.546-1.748,1.721-2.541,2.645-.537.625-1.344,1.1-1.448,2.041a37.327,37.327,0,0,1,2.1,10.279c.135,1.933.564,3.943-.52,5.773a14.976,14.976,0,0,1-3.324,4.124c-.319.259-.722.492-.612,1.02H60.378a1.889,1.889,0,0,0,.366-1.194c.463-4.1,1.01-8.194,1.551-12.287a6.854,6.854,0,0,1,1.956-4.176A44.046,44.046,0,0,0,59.1,97.062" transform="translate(-4.362 -10.178)" fill="#f8f5f5"/>
        <path id="Trazado_161929" data-name="Trazado 161929" d="M105.846,107.99a47.606,47.606,0,0,1,8.762,4.136,5.593,5.593,0,0,1,2.76,4.086c.706,4.825,1.4,9.653,1.739,14.523H97.5a1.111,1.111,0,0,1-.548-.946,35.782,35.782,0,0,0-1.691-6.544.831.831,0,0,1,.186-.648,42.862,42.862,0,0,1,3.712-4.245c.577.007.883.448,1.22.8.536.564.878.672,1.185-.216,1.038-3,2.137-5.976,3.214-8.96.255-.705.331-1.532,1.068-1.989" transform="translate(-10.35 -11.734)" fill="#9cc5fa"/>
        <path id="Trazado_161930" data-name="Trazado 161930" d="M72.067,110.021a32.854,32.854,0,0,1,4.905-2.07,45.059,45.059,0,0,1,2.305,5.926c.624,1.626,1.161,3.286,1.791,4.91.4,1.029.421,1.018,1.205.3.339-.309.619-.707,1.131-.763a15.623,15.623,0,0,1,3.942,4.9,41.694,41.694,0,0,0-1.669,6.667,1.532,1.532,0,0,1-.339.837H69.075a3.409,3.409,0,0,1-.088-2.039c.324-5,.744-9.987,1.385-14.954a6.051,6.051,0,0,1,1.7-3.716" transform="translate(-7.483 -11.73)" fill="#9cc5fa"/>
        <path id="Trazado_161931" data-name="Trazado 161931" d="M9.665,129.318a84.368,84.368,0,0,1,.253-9.484c.373-4.163.721-8.331,1.325-12.474.254-1.744.554-3.491.71-5.244a6.523,6.523,0,0,1,3.755-5.56c1.061-.55,2.137-1.071,3.194-1.6.237.226.085.416-.012.543a8.274,8.274,0,0,0-1.518,4.547c-.29,3.792-.736,7.568-1.006,11.364-.246,3.443-.621,6.891-.6,10.333.019,2.539-.537,5.04-.3,7.575Z" transform="translate(-1.047 -10.318)" fill="#e6ebf5"/>
        <path id="Trazado_161932" data-name="Trazado 161932" d="M42.061,109.469c1.84,4.556,2.3,9.343,2.411,14.194A3.621,3.621,0,0,1,44,125.314a18.093,18.093,0,0,1-4.486,5.536h-.233a17.115,17.115,0,0,1-4.536-5.508,4.487,4.487,0,0,1-.543-2.333c.313-4.6.667-9.181,2.449-13.509a.939.939,0,0,1,.808-.359c1.535.07,3.11-.4,4.6.328" transform="translate(-3.716 -11.85)" fill="#dc636e"/>
        <path id="Trazado_161933" data-name="Trazado 161933" d="M71.412,110.273c.028.1.111.243.076.283a7.672,7.672,0,0,0-1.638,4.721c-.3,3.789-.767,7.562-1.026,11.357a16.861,16.861,0,0,1-.4,4.349H62.844c.067-2.316.431-4.6.715-6.894.33-2.673.708-5.343,1.161-8a5.471,5.471,0,0,1,2.781-3.813,24.52,24.52,0,0,1,3.911-2" transform="translate(-6.829 -11.982)" fill="#80b3fa"/>
        <path id="Trazado_161934" data-name="Trazado 161934" d="M87.346,132.518a22.894,22.894,0,0,1,1.881-7.671,8.224,8.224,0,0,1,5.336,0,24.993,24.993,0,0,1,1.842,6.665c.062.338.155.67.234,1Z" transform="translate(-9.491 -13.518)" fill="#dc636e"/>
        <path id="Trazado_161935" data-name="Trazado 161935" d="M21.138,131.65c.614-1.73.414-3.565.68-5.343a67.08,67.08,0,0,1,2.123-9.887,139.589,139.589,0,0,0,1.612,15.229Z" transform="translate(-2.297 -12.65)" fill="#e6ebf5"/>
        <path id="Trazado_161936" data-name="Trazado 161936" d="M61.293,131.65c-.614-1.73-.414-3.565-.68-5.343a67.081,67.081,0,0,0-2.123-9.887,139.589,139.589,0,0,1-1.612,15.229h4.415" transform="translate(-6.18 -12.65)" fill="#e6ebf5"/>
        <path id="Trazado_161937" data-name="Trazado 161937" d="M119.163,78.492c-1.742-.114-1.988,1.121-2.465,2.427-2.631,7.2-7.8,11.524-15.293,13.065a8.823,8.823,0,0,1-1.27.078,1.091,1.091,0,0,1-1.081-.169c-1.186-.705-1.431-.64-2.252.495a8.041,8.041,0,0,1-4.343-.2A19.839,19.839,0,0,1,76.4,76.858a26.376,26.376,0,0,1,.092-7.615c.271-.277.57-.1.862-.053,1.216.208,1.678,0,2.23-1.095a5.6,5.6,0,0,0-.007-5.316A1.742,1.742,0,0,0,77.424,61.7c-.39.1-.846.318-1.062-.29-.026-.155-.027.041-.031-.113-.193-5.868-.089-11.736-.053-17.6a1.373,1.373,0,0,1,.189-.66c.552-.579,1.067-.19,1.562.088A43.038,43.038,0,0,1,82.6,46.491c2.532,1.9,5.262,3.261,8.542,3.091a11.236,11.236,0,0,0,5.592-1.71c1.468-.939,2.845-2,4.22-3.072,1.97-1.53,4.006-2.927,6.671-2.89a10.934,10.934,0,0,1,7.325,3.059,8.409,8.409,0,0,1,2.775,3.5q.028,9.195.064,18.39c0,.447-.158.924.148,1.342a.948.948,0,0,1,.283.948c-.427,2.711.072,5.448-.231,8.158-.105.939.856.721,1.173,1.185" transform="translate(-8.277 -4.554)" fill="#c28859"/>
        <path id="Trazado_161938" data-name="Trazado 161938" d="M50.762.056,75.144.018c1.277,0,2.555,0,3.832,0,.408,0,.784-.011.771.576-.111,4.669.376,9.37-.776,13.983a28.048,28.048,0,0,1-1.451,4.273c-.55.491-1.225.271-1.85.312a17.971,17.971,0,0,0-2.6.1A13.332,13.332,0,0,0,65.181,21.9a12.849,12.849,0,0,0-5.272,10.129,1.923,1.923,0,0,1-.3,1.325,1.2,1.2,0,0,1-.353.189c-2.8.79-5.656.521-8.5.431a29.423,29.423,0,0,1-3.509-1.194,12.5,12.5,0,0,1-7.475-10.561,46.393,46.393,0,0,1,.06-11.349,12.357,12.357,0,0,1,6.446-9.421,10.144,10.144,0,0,1,4.488-1.4" transform="translate(-4.287 -0.002)" fill="#a97a63"/>
        <path id="Trazado_161939" data-name="Trazado 161939" d="M76.814,21.348c1.552-.4,3.137-.059,4.7-.205,3.206.057,6.412.143,9.618.164,4.253.029,8.507-.015,12.76.013,8.185.055,13.878,5.786,13.9,13.99.01,3.634-.038,7.267-.06,10.9a20,20,0,0,0-3.646-3.86c-4.549-3.4-8.548-3.2-13.118.543-2.088,1.713-4.184,3.462-6.838,4.249-4.425,1.312-8.262.015-11.785-2.714-1.759-1.362-3.356-2.975-5.506-3.772a.718.718,0,0,1-.424-.4c-.193-2.974-.435-5.967.337-8.887a13.565,13.565,0,0,1,8.7-9.567,3.5,3.5,0,0,1,.443-.14c.376-.091.767-.037.961-.109-2.867.286-5.926.091-8.98.129a1.221,1.221,0,0,1-1.066-.338" transform="translate(-8.282 -2.297)" fill="#365e7d"/>
        <path id="Trazado_161940" data-name="Trazado 161940" d="M29.06,84.837c0-1.2-.015-2.4.012-3.6.013-.574-.163-.807-.78-.849A22.259,22.259,0,0,1,19.4,78.178,19.52,19.52,0,0,1,9.271,65.872a1.468,1.468,0,0,0-1.644-1.281C2.677,64.469-1.307,58.483.4,53.871a3.835,3.835,0,0,1,3.176-2.7A4.137,4.137,0,0,1,7.965,53.1c.08.127.167.251.419.63V40.245c.77-.637,1.687-.312,2.542-.378a8.593,8.593,0,0,1,1.491.017,18.147,18.147,0,0,0,8.251-1.26.865.865,0,0,1,.882-.011,1.427,1.427,0,0,1,.422,1.159c.008,2.545.088,5.09-.04,7.632a2.31,2.31,0,0,1-.3.871,5.884,5.884,0,0,0,.2,6.652.983.983,0,0,1,.152.434,13.97,13.97,0,0,1-.2,3.079c-.475.462-.848,0-1.223-.168a6.589,6.589,0,0,0-5.055-.189c-.884.3-1.771.824-1.807,1.884-.038,1.141.887,1.628,1.8,2a6,6,0,0,0,5.233-.325c.3-.154.554-.447.946-.275a22.534,22.534,0,0,1,.623,3.4A19.687,19.687,0,0,0,38.96,79.843c.694.071,1.392.036,2.088.038.783,0,1.257.238,1.149,1.153a16.9,16.9,0,0,1-.124,2.641A1.93,1.93,0,0,1,40.649,84c-1.848.01-3.7-.01-5.543.009-1.2.012-1.4.263-1.258,1.469a5.966,5.966,0,0,0,2.5,4.125c.419.324.95.539,1.135,1.106-.209.648-.842.546-1.308.741-.333.011-.668.006-1,.009a7.039,7.039,0,0,1-5.527-3.677,3.72,3.72,0,0,1-.587-2.942" transform="translate(0 -4.183)" fill="#fecabd"/>
        <path id="Trazado_161941" data-name="Trazado 161941" d="M49.406.054a15.633,15.633,0,0,0-6.283,3,12.491,12.491,0,0,0-4.413,8.353,70.466,70.466,0,0,0-.185,8.9,13.353,13.353,0,0,0,4.089,9.966A13.054,13.054,0,0,0,47.9,33.224a3.716,3.716,0,0,1,1.281.463c-.389.437-.919.351-1.409.352-2.824.014-5.653.111-8.47-.02a12.684,12.684,0,0,1-9.638-5.082,13.55,13.55,0,0,1-2.683-8.449c.1-2.816.014-5.639.024-8.458a3.354,3.354,0,0,1,.774-2.577C28.617,5.131,32.962,1.082,37.6.237A41.505,41.505,0,0,1,44.191.026c1.737-.038,3.477.015,5.215.029" transform="translate(-2.931 0)" fill="#976b54"/>
        <path id="Trazado_161942" data-name="Trazado 161942" d="M26.338,10.556a10.249,10.249,0,0,0-.444,3.191c.035,2.711.077,5.423-.007,8.131a12.809,12.809,0,0,0,2.166,7.32c.163.261.289.546.431.818.25.488-.13.8-.348,1.131a14.8,14.8,0,0,1-4.372,4.181,1.055,1.055,0,0,1-.862.227A16.722,16.722,0,0,1,14.049,37.1a1.892,1.892,0,0,1-.329-1.427c-.008-5.33-.054-10.66.013-15.99a9.711,9.711,0,0,1,4.7-8.424,9.449,9.449,0,0,1,3.04-1.043,18.675,18.675,0,0,1,4.86.337" transform="translate(-1.488 -1.103)" fill="#a97a63"/>
        <path id="Trazado_161943" data-name="Trazado 161943" d="M20.5,10.223c-1.361.766-2.871,1.185-4.111,2.268a9.1,9.1,0,0,0-3.286,6.975c-.085,5.879-.029,11.76-.032,17.641L8.9,37.169c-2.9-.69-4.178-2.3-4.179-5.244q0-6.15,0-12.3a9.393,9.393,0,0,1,9.4-9.437c2.127,0,4.253.022,6.379.035" transform="translate(-0.512 -1.107)" fill="#976b54"/>
        <path id="Trazado_161944" data-name="Trazado 161944" d="M31.828,90.486a6.709,6.709,0,0,0,4.137,5.781c.7.288,1.435.48,2.154.715a.677.677,0,0,1-.323.8c-2.083,1.662-3.769,3.741-5.763,5.494a4.582,4.582,0,0,0-1.529,1.21c-.414.428-.749.537-1-.16-1.3-3.619-2.615-7.233-3.917-10.852-.226-.628-.2-1.093.611-1.352a32.7,32.7,0,0,1,5.628-1.631" transform="translate(-2.767 -9.832)" fill="#e6ebf5"/>
        <path id="Trazado_161945" data-name="Trazado 161945" d="M105.568,107.731q-2.059,5.645-4.115,11.292c-.425,1.171-.423,1.177-1.293.334-.415-.4-.84-.8-1.26-1.194-.974-.31-1.438-1.243-2.206-1.811a35.364,35.364,0,0,1-3.586-3.445.949.949,0,0,1-.39-.913c.339-.515.94-.386,1.41-.581a5.937,5.937,0,0,0,4.41-4.8c.083-.372-.086-.89.508-1.011a40.694,40.694,0,0,1,6.522,2.127" transform="translate(-10.072 -11.475)" fill="#80b3fa"/>
        <path id="Trazado_161946" data-name="Trazado 161946" d="M32.834,104.05c-.008-.537.426-.785.743-1.1q2.662-2.606,5.342-5.194a.52.52,0,0,1,.656.019c1.074.423,1.671,1.431,2.549,2.1a32.291,32.291,0,0,1,3.209,3.138c.209.212.449.439.332.8l-3.753,4.409-5.405.031a49.215,49.215,0,0,0-3.673-4.211" transform="translate(-3.568 -10.611)" fill="#ca5769"/>
        <path id="Trazado_161947" data-name="Trazado 161947" d="M124.2,81.311c-.346-.009-.693-.03-1.038-.023-.529.011-.7-.3-.606-.741a32.853,32.853,0,0,0,.177-6.558,23.378,23.378,0,0,0,.243-2.97,4.2,4.2,0,0,1,4.278-3.15,4.065,4.065,0,0,1,3.918,3.711c.826,4.67-2.481,9.286-6.972,9.731" transform="translate(-13.314 -7.374)" fill="#b07a4a"/>
        <path id="Trazado_161948" data-name="Trazado 161948" d="M98.709,104.922a6.838,6.838,0,0,1-3.148,5.379,3.349,3.349,0,0,1-1.694.676,6.45,6.45,0,0,1-4.266-5.672c-.044-1.262.248-1.6,1.517-1.629,1.855-.039,3.711,0,5.566-.016,1.4-.01,1.476-.1,1.493-1.538a5.3,5.3,0,0,1,.1-1.612c-.034-.48.009-.921.576-1.079a1.755,1.755,0,0,1,1.711.3c.313.274.539.636,1.028.57a1.752,1.752,0,0,1-1,.186c-1.863.1-1.861.094-1.865,2.019,0,.806-.012,1.611-.018,2.416" transform="translate(-9.736 -10.794)" fill="#c28859"/>
        <path id="Trazado_161949" data-name="Trazado 161949" d="M24.025,37.977a14.248,14.248,0,0,0,5.582-5.54A14.139,14.139,0,0,0,36.4,36.814a11.686,11.686,0,0,0,2.96.431c3.168-.029,6.336-.025,9.5-.034a42.493,42.493,0,0,0,8.825-.4c.434.44.328,1,.33,1.532.013,2.619,0,5.238.007,7.856a4.075,4.075,0,0,0,.158,1.484A70.313,70.313,0,0,1,58.2,56c-.208.9-.885,1.08-1.679,1.066a5.531,5.531,0,0,0-3.14.6c-.633.391-1.279.827-1.288,1.661a1.959,1.959,0,0,0,1.327,1.748,6.1,6.1,0,0,0,3.366.664c.444-.045.926-.24,1.29.223a9.05,9.05,0,0,1,.105,3.424c-.113.37-.2.759-.595.954-.448-.032-.605-.436-.88-.691a4.118,4.118,0,0,0-4.139-1.14,3.684,3.684,0,0,0-2.67,3.18,8,8,0,0,0,4.057,8.6c.379.213.916.291.956.884A15.737,15.737,0,0,1,49.107,79.3a12.7,12.7,0,0,1-3.34.226c-.663-.025-.848.25-.877.887-.041.867.278,1.771-.206,2.6,0-.851-.035-1.7.009-2.553.036-.7-.21-.967-.927-.94a17.9,17.9,0,0,1-11.446-3.686,19.352,19.352,0,0,1-7.854-12.376,12.741,12.741,0,0,1-.228-2.756,8.165,8.165,0,0,0-.007-2.774c.118-1.082-.207-2.19.187-3.256.251-.217.512-.062.764-.008a1.6,1.6,0,0,0,1.7-.71,5.839,5.839,0,0,0-.016-6.305c-.741-1-1.673-.684-2.605-.584q-.011-3.873-.023-7.745a2.356,2.356,0,0,0-.214-1.347" transform="translate(-2.611 -3.525)" fill="#fedccd"/>
        <path id="Trazado_161950" data-name="Trazado 161950" d="M58.011,78.208a8.836,8.836,0,0,1-5.229-5.953,8.364,8.364,0,0,1-.054-3.9A3.99,3.99,0,0,1,56.21,65.1a4.3,4.3,0,0,1,4.358,2.216.829.829,0,0,1,.3.739,5.078,5.078,0,0,1,.122-1.442q-.009-1.837-.021-3.676a10.548,10.548,0,0,1,.021-5.619q-.005-4.3-.011-8.592A.376.376,0,0,1,61,48.379c2.425-3.757,5.656-6.248,10.3-6.445a4.093,4.093,0,0,1,2.732.734l.234.246c-.35.307-.223.72-.224,1.092q-.007,8.884,0,17.77a8.524,8.524,0,0,0,0,7.354c.089,2.855-.25,5.72.218,8.565A19.819,19.819,0,0,0,90,93.9a15.982,15.982,0,0,0,4.245.375c.492.99.179,2.04.188,3.059,0,.554-.553.422-.912.424-2.163.012-4.328.051-6.49-.015-.929-.028-1.236.268-1.161,1.18a6.407,6.407,0,0,0,3.072,5.131c.318.2.734.28.893.69l-1.512.452a.6.6,0,0,1-.5.139,6.648,6.648,0,0,1-6.008-4.171,3.36,3.36,0,0,1-.3-2.465c0-1.157-.043-2.317.018-3.471.039-.765-.221-.967-.973-.972a19.228,19.228,0,0,1-14.123-6.108,18.73,18.73,0,0,1-4.8-8.575,1.014,1.014,0,0,0-1.142-.928,17.441,17.441,0,0,1-2.495-.432" transform="translate(-5.707 -4.556)" fill="#b07a4a"/>
        <path id="Trazado_161951" data-name="Trazado 161951" d="M46.487,103.013c-1.6-1.842-3.472-3.413-5.2-5.123-.3-.3-.59-.611-.885-.917a2.335,2.335,0,0,1,1.411-.481c.128-.315.417-.429.692-.57a6.286,6.286,0,0,0,3.654-4.858,1.113,1.113,0,0,1,.323-.834c1.8.559,3.6,1.122,5.4,1.675.889.273,1.184.714.818,1.688-1.272,3.392-2.474,6.813-3.666,10.234-.331.949-.721.969-1.357.285-.366-.393-.79-.734-1.187-1.1" transform="translate(-4.39 -9.804)" fill="#e6ebf5"/>
        <path id="Trazado_161952" data-name="Trazado 161952" d="M84.288,105.614a6.681,6.681,0,0,0,4.241,5.936,15.862,15.862,0,0,0,2.2.558c-.053.419-.376.657-.642.924q-2.189,2.206-4.393,4.394c-.35.347-.682.745-1.247.739-.535.5-1.069,1-1.6,1.5-.281.259-.525.5-.734-.1-1.377-3.958-2.994-7.831-4.152-11.866a41.642,41.642,0,0,1,6.327-2.083" transform="translate(-8.471 -11.476)" fill="#80b3fa"/>
        <path id="Trazado_161953" data-name="Trazado 161953" d="M46.165,90.113c-.056,3.039-1.58,5.084-4.667,6.263-.642-.776-1.6-1.156-2.286-1.9a6.276,6.276,0,0,1-1.67-4.174c-.034-.844.2-1.154,1.093-1.135,2.506.055,5.012.019,7.518.018,0,.311.008.622.012.933" transform="translate(-4.079 -9.688)" fill="#fedccd"/>
        <path id="Trazado_161954" data-name="Trazado 161954" d="M85.241,118.957l6.282-6.058.36,0,6.206,6.051c-1.095,1.675-2.576,3.038-3.754,4.645L89,123.6l-3.757-4.639" transform="translate(-9.262 -12.268)" fill="#cb5769"/>
        <path id="Trazado_161955" data-name="Trazado 161955" d="M91.847,87.776A7.428,7.428,0,0,1,87,85.784a1.762,1.762,0,0,1-.263-2.484,1.873,1.873,0,0,1,2.6-.238,3.878,3.878,0,0,0,2.033,1,3.459,3.459,0,0,0,2.578-.779c1.117-.893,2.142-.871,2.842,0,.732.917.553,1.85-.551,2.8a7.753,7.753,0,0,1-4.392,1.693" transform="translate(-9.381 -8.977)" fill="#dc636e"/>
        <path id="Trazado_161956" data-name="Trazado 161956" d="M76.522,71.486a6.142,6.142,0,0,1,0-7.355c1.486-.9,2.5-.641,3.27.908a5.938,5.938,0,0,1,0,5.534c-.775,1.561-1.762,1.819-3.268.913" transform="translate(-8.182 -6.912)" fill="#2b4d66"/>
        <path id="Trazado_161957" data-name="Trazado 161957" d="M108.914,67.906a4.787,4.787,0,0,1-.968,3.264,1.758,1.758,0,0,1-2.946.119,5.775,5.775,0,0,1,.077-7.05,1.705,1.705,0,0,1,2.786.1,4.91,4.91,0,0,1,1.051,3.566" transform="translate(-11.283 -6.907)" fill="#2b4d66"/>
        <path id="Trazado_161958" data-name="Trazado 161958" d="M75.053,40.433c-5.565-1.489-9.311,1.292-12.521,5.334-.143.18-.3.349-.447.523-.059-.1-.144-.174-.143-.306.016-3.472-.072-6.944.048-10.415a13.464,13.464,0,0,1,2.736-8.875,12.84,12.84,0,0,1,10.535-5.322H85.939a20.839,20.839,0,0,0-4.763,2.186,13.19,13.19,0,0,0-5.883,8.892c-.468,2.649-.128,5.323-.24,7.983" transform="translate(-6.729 -2.322)" fill="#2b4d66"/>
        <path id="Trazado_161959" data-name="Trazado 161959" d="M61.976,37.3l.094,10.721a2.08,2.08,0,0,1-.083.2c-.292-.374-.165-.813-.168-1.222-.018-3.22-.021-6.44-.027-9.659a.761.761,0,0,1,.184-.041" transform="translate(-6.714 -4.053)" fill="#e9a598"/>
        <path id="Trazado_161960" data-name="Trazado 161960" d="M23.241,60.892a2.11,2.11,0,0,1,.008,2.774,6.027,6.027,0,0,1-7.271.327c-1.339-.951-1.377-1.991-.257-3.16,1.307-1.361,5.538-1.733,7.519.059" transform="translate(-1.622 -6.485)" fill="#e9a497"/>
        <path id="Trazado_161961" data-name="Trazado 161961" d="M24.133,48.8c1.407-.787,2.406-.562,3.134.837a6.014,6.014,0,0,1-.021,5.852c-.7,1.317-1.6,1.552-2.958.92a5.949,5.949,0,0,1-.155-7.608" transform="translate(-2.481 -5.253)" fill="#2b4d66"/>
        <path id="Trazado_161962" data-name="Trazado 161962" d="M8.672,59.846c0,.553.019.979-.006,1.4-.018.285.158.7-.234.808a.816.816,0,0,1-.8-.37,3.434,3.434,0,0,0-3.43-1.4,1.477,1.477,0,0,1-1.531-1.313,1.621,1.621,0,0,1,.944-1.927,4.491,4.491,0,0,1,4.515.349c1.01.638.35,1.717.547,2.449" transform="translate(-0.284 -6.15)" fill="#e9ab9c"/>
        <path id="Trazado_161963" data-name="Trazado 161963" d="M123.047,74.871c.185-.641-.414-1.574.425-2.156a4.306,4.306,0,0,1,3.427-.691,1.546,1.546,0,0,1,1.263,1.587,1.627,1.627,0,0,1-1.365,1.767A4.42,4.42,0,0,0,124.04,76.9c-.2.219-.429.5-.787.314-.3-.157-.2-.474-.2-.731-.015-.5,0-1,0-1.616" transform="translate(-13.366 -7.815)" fill="#8f6239"/>
        <path id="Trazado_161964" data-name="Trazado 161964" d="M39.233,72.419a6.668,6.668,0,0,1-4.7-1.933,1.78,1.78,0,0,1,2.289-2.726c2.073,1.475,2.934,1.482,5,.04a1.653,1.653,0,0,1,2.469.181,1.619,1.619,0,0,1-.143,2.463,6.519,6.519,0,0,1-4.918,1.975" transform="translate(-3.684 -7.317)" fill="#dc636e"/>
        <path id="Trazado_161965" data-name="Trazado 161965" d="M56.505,52.505a5.158,5.158,0,0,1-1.067,3.474,1.746,1.746,0,0,1-2.957.005,6.037,6.037,0,0,1,.037-6.937,1.725,1.725,0,0,1,2.879,0,5.065,5.065,0,0,1,1.108,3.458" transform="translate(-5.586 -5.245)" fill="#2b4d66"/>
        <path id="Trazado_161966" data-name="Trazado 161966" d="M61.264,59.192l-.021,5.619a6.357,6.357,0,0,1-5.174-.909,1.775,1.775,0,0,1-.218-3.087,5.035,5.035,0,0,1,3.868-1.173c.549.021,1.184.218,1.546-.45" transform="translate(-5.982 -6.432)" fill="#e9a598"/>
        <path id="Trazado_161967" data-name="Trazado 161967" d="M61.97,69.621V71.2l-.141.06q-.14-.468-.28-.937c.324-.124.176-.532.421-.7" transform="translate(-6.688 -7.565)" fill="#e9a598"/>
        <path id="Trazado_161968" data-name="Trazado 161968" d="M61.466,75.3c-.19.578.433,1.552-.332,1.915-.743.353-1.076-.68-1.629-1.042a5.827,5.827,0,0,0-1.182-.7c-1.407-.495-1.993-1.272-1.642-2.285a2.132,2.132,0,0,1,2.883-1.12c1.741.592,1.9.856,1.9,3.227" transform="translate(-6.148 -7.814)" fill="#8f6239"/>
      </g>
    </g>
  </g>
</svg>
