<svg xmlns="http://www.w3.org/2000/svg" xmlns:xlink="http://www.w3.org/1999/xlink" width="254" height="133" viewBox="0 0 254 133">
  <defs>
    <clipPath id="clip-path">
      <rect id="Rect치ngulo_42684" data-name="Rect치ngulo 42684" width="110.433" height="110.488" fill="none"/>
    </clipPath>
  </defs>
  <g id="Grupo_169644" data-name="Grupo 169644" transform="translate(-989 -7788)">
    <rect id="Rect치ngulo_42538" data-name="Rect치ngulo 42538" width="254" height="133" rx="12" transform="translate(989 7788)" fill="#6b8dfc"/>
    <g id="Grupo_169643" data-name="Grupo 169643" transform="translate(1061 7799)">
      <g id="Grupo_169642" data-name="Grupo 169642" clip-path="url(#clip-path)">
        <path id="Trazado_161969" data-name="Trazado 161969" d="M42.405,97.675c-7.452-.639-14.92-.509-22.386-.427-2.577.028-5.154.233-7.727.413-2.379.166-3.753,1.845-4,4.535a122.468,122.468,0,0,0-.412,13.87,54.288,54.288,0,0,0,.6,7.7c.389,2.353,1.808,3.52,4.213,3.645,5.232.272,10.463.537,15.7.439a2.875,2.875,0,0,1,2.526,1.331,32.128,32.128,0,0,0,6.64,6.392,1.7,1.7,0,0,0,2.009.182,1.73,1.73,0,0,0,.9-1.7c-.017-1.258-.006-2.516,0-3.773.006-1.931.754-2.737,2.653-2.864a.831.831,0,0,0,.6-.2c1.421-2,1.539-4.341,1.675-6.661a89.529,89.529,0,0,0,.189-12.357c-.184-2.321-.248-4.652-.5-6.97a3.947,3.947,0,0,0-2.672-3.564" transform="translate(-2.193 -27.174)" fill="#f8f5f5"/>
        <path id="Trazado_161970" data-name="Trazado 161970" d="M129.368,96.781q.021,7.9.048,15.794c0,.379-.135.791.152,1.137.494.447.115.987.163,1.481-.048,1.176.01,2.353-.034,3.53-.017,1.323.181,2.673-.527,3.9a29.831,29.831,0,0,1-1.925,4.773,16.739,16.739,0,0,1-12.272,8.4,2.314,2.314,0,0,0-.478.192h-5.61a15.03,15.03,0,0,1-9.094-3.948A16.47,16.47,0,0,1,93.93,119.9c-.048-1.327-.012-2.657,0-3.986a2.266,2.266,0,0,1,.2-1.258.651.651,0,0,1,.6-.13,1.738,1.738,0,0,0,2.192-1.314,5.622,5.622,0,0,0-.117-3.978,1.509,1.509,0,0,0-1.928-1.078c-.347.091-.72.2-.879-.3a4.782,4.782,0,0,1-.115-1.39q0-6.294,0-12.589a3.224,3.224,0,0,1,.218-1.579c.51-.522,1-.18,1.465.067a19.8,19.8,0,0,1,3.054,2.211,15.781,15.781,0,0,0,3.515,2.289c4.066,1.8,7.716.874,11.083-1.754,1.106-.863,2.182-1.761,3.348-2.544a7.248,7.248,0,0,1,6.589-.949,10.7,10.7,0,0,1,6.225,5.169" transform="translate(-26.248 -25.505)" fill="#c28859"/>
        <path id="Trazado_161971" data-name="Trazado 161971" d="M87.213,114.573c.089,3.064-.341,6.146.585,9.175a16.913,16.913,0,0,0,8.056,10.132,25.118,25.118,0,0,0,6.013,2.131H90.648c-1.376-.466-2.825-.663-4.174-1.253a16.775,16.775,0,0,1-9.842-11.123c-.188-.641-.39-.978-1.189-1.016a7.208,7.208,0,0,1-6.506-8.667,3.485,3.485,0,0,1,3.184-2.9,4.129,4.129,0,0,1,3.9,2.256V96.95a10.4,10.4,0,0,1,9.3-5.662,5.026,5.026,0,0,1,1.859.484.513.513,0,0,1,.285.4c-.367.251-.269.637-.269.983q0,7.531.006,15.062c.073.539-.3.936-.457,1.4a4.942,4.942,0,0,0,.2,3.946,1.477,1.477,0,0,1,.265,1.011" transform="translate(-19.231 -25.524)" fill="#b07a4a"/>
        <path id="Trazado_161972" data-name="Trazado 161972" d="M0,54.962c.375-.9.408-1.932,1.3-2.608,2.142-1.619,4.376-1.069,6.017,1.771V42.269c.349-.433.846-.318,1.3-.332,1.72-.052,3.44.04,5.16-.182a15.055,15.055,0,0,0,3.539-.881c.352-.136.714-.387,1.113-.1a2.489,2.489,0,0,1,.243,1.45c.011,2.029,0,4.057.014,6.084a1.386,1.386,0,0,1-.217.813,5.251,5.251,0,0,0-.034,5.311,1.7,1.7,0,0,1,.181.613,8.031,8.031,0,0,1-.1,2.546c-.355.5-.71.1-1.034-.03a5.441,5.441,0,0,0-4.395-.042c-.668.3-1.312.668-1.323,1.533s.6,1.252,1.273,1.566a5.082,5.082,0,0,0,4.28.018c.349-.147.666-.464,1.1-.285a1.723,1.723,0,0,1,.426,1.185A16.435,16.435,0,0,0,30.6,75.422a3.649,3.649,0,0,1,1.8.75c-.177.346-.421.251-.614.251q-4.148.011-8.3.005a.643.643,0,0,1-.408-.1,15.636,15.636,0,0,1-10.1-4.175,16.554,16.554,0,0,1-5.177-8.379c-.109-.409-.237-.586-.683-.64C3.423,62.7.966,60.812.14,57.06.127,57,.048,56.956,0,56.9V54.962" transform="translate(0 -11.365)" fill="#fecabd"/>
        <path id="Trazado_161973" data-name="Trazado 161973" d="M25.453,56.014q.019-1.449.038-2.9a.361.361,0,0,1,.206-.043c1.706.34,2.327-.071,2.768-1.813a4.91,4.91,0,0,0,.117-2.013c-.308-1.892-.974-2.464-2.876-2.5-.36-.258-.247-.643-.248-.985-.006-2.248,0-4.5,0-6.746.055-.419.413-.574.707-.756a11.462,11.462,0,0,0,3.24-3.116c.262-.365.483-.833,1.069-.771a16.283,16.283,0,0,1,1.78,1.534,11.164,11.164,0,0,0,5.714,2.245c3.512.189,7.023.088,10.533.043a26.283,26.283,0,0,0,7.75-1,30.27,30.27,0,0,0,3.5-1.382c.343-.159.667-.457,1.1-.249q-.006,7.723-.009,15.445c0,.308-.1.654.208.9.361.594-.014,1.232.112,1.841,0,1.206.029,2.411-.015,3.615a10.284,10.284,0,0,1-.219,2.223c-.117.749.014,1.328.79,1.619-1.182.091-1.508.906-1.861,1.9-2.314,6.535-6.96,10.538-13.8,11.356a111.338,111.338,0,0,1-15.494.3c-.126,0-.249-.12-.373-.184h9.05a22.324,22.324,0,0,1-6.823-3.2,16.3,16.3,0,0,1-6.755-11.716c-.038-.353-.137-.7-.208-1.048a3.917,3.917,0,0,0,0-2.593" transform="translate(-7.114 -9.611)" fill="#fedccd"/>
        <path id="Trazado_161974" data-name="Trazado 161974" d="M101.716,5.859c7.452-.639,14.92-.509,22.386-.427,2.577.028,5.154.233,7.727.413,2.379.166,3.753,1.845,4,4.535a122.472,122.472,0,0,1,.412,13.87,54.288,54.288,0,0,1-.6,7.7c-.389,2.353-1.808,3.52-4.213,3.645-5.232.272-10.463.537-15.7.439A2.875,2.875,0,0,0,113.2,37.37a32.127,32.127,0,0,1-6.64,6.392,1.7,1.7,0,0,1-2.009.182,1.73,1.73,0,0,1-.9-1.7c.017-1.258.006-2.516,0-3.773-.006-1.931-.754-2.737-2.653-2.864a.831.831,0,0,1-.6-.2c-1.421-2-1.539-4.341-1.675-6.661a89.529,89.529,0,0,1-.189-12.357c.184-2.321.248-4.652.5-6.97a3.947,3.947,0,0,1,2.672-3.564" transform="translate(-27.513 -1.5)" fill="#9cc5fa"/>
        <path id="Trazado_161975" data-name="Trazado 161975" d="M65.4,25.956a23.061,23.061,0,0,1-11.756,2.923c-3.341,0-6.681.028-10.023.029a2.317,2.317,0,0,1-1.364-.171.994.994,0,0,1,.88-.31c2.222,0,4.444-.082,6.292.032a10.156,10.156,0,0,1-5.269-3.785,10.318,10.318,0,0,1-2.276-5.849,46.921,46.921,0,0,1,.17-9.791c.688-4.1,3.175-6.811,6.883-8.506A11.822,11.822,0,0,1,51.351.049Q63.41.032,75.468.011c.394,0,.705.022.692.553-.109,4.111.36,8.254-.761,12.308a21.652,21.652,0,0,1-10,13.084" transform="translate(-11.664 -0.003)" fill="#a97a63"/>
        <path id="Trazado_161976" data-name="Trazado 161976" d="M94.494,86.063l-.277-.211a.659.659,0,0,1-.21-.368c-.166-3.84-.465-7.7,1.972-11.081a10.824,10.824,0,0,1,7.947-4.9c4.991,0,9.989-.164,14.971.044a11.3,11.3,0,0,1,10.488,10.913c.073,3.41,0,6.822-.009,10.234a21.845,21.845,0,0,0-3.312-3.357c-3.724-2.654-6.925-2.593-10.531.2-1.218.942-2.4,1.945-3.7,2.766-3.956,2.5-8.3,2.222-12.233-.708-1.235-.921-2.449-1.871-3.686-2.789a3.909,3.909,0,0,0-1.421-.74" transform="translate(-26.257 -19.417)" fill="#365e7d"/>
        <path id="Trazado_161977" data-name="Trazado 161977" d="M47.593.047a12.948,12.948,0,0,0-6.181,3.417,11.011,11.011,0,0,0-3.062,7.453c-.107,2.255-.042,4.521-.017,6.782a11.064,11.064,0,0,0,7.629,10.574,1.447,1.447,0,0,1,.75.462H38.5a10.341,10.341,0,0,1-7.289-3.916c-.532-.143-.787-.574-1.076-.991-1.484-2.137-1.725-4.6-1.81-7.079a45.361,45.361,0,0,1,.206-7.186,2.285,2.285,0,0,1,.509-1.381A10.891,10.891,0,0,1,38.024.12a16.8,16.8,0,0,1,3-.105c2.188,0,4.377.019,6.565.032" transform="translate(-7.906 0)" fill="#976b54"/>
        <path id="Trazado_161978" data-name="Trazado 161978" d="M23.787,11.192a44.512,44.512,0,0,0-.4,8.875c.081,2.822.626,5.535,2.571,7.761-.372.067-.478.4-.65.661A12.853,12.853,0,0,1,21,32.417c-2.767,1.444-5.769,1.472-8.778,1.463-.75,0-1.5.022-2.251.034L9.493,33.7c.681-.6,1.509-.309,2.273-.344,1.261-.058,1.352-.1,1.355-1.358q.014-6.527,0-13.052a8.147,8.147,0,0,1,4.037-7.284,7.81,7.81,0,0,1,2.531-.847,10.1,10.1,0,0,1,4.1.38" transform="translate(-2.655 -3.01)" fill="#a97a63"/>
        <path id="Trazado_161979" data-name="Trazado 161979" d="M99.68,69.515a15.478,15.478,0,0,0-5.035,2.271,11.356,11.356,0,0,0-4.655,8.8c-.081,1.756-.017,3.519-.019,5.279-4.234-1.426-8.054,1.026-10.54,4.272-.193.252-.418.479-.627.718.03-3.945-.318-7.9.185-11.833A11.386,11.386,0,0,1,89.768,69.51c3.3-.046,6.608,0,9.912.005" transform="translate(-22.01 -19.431)" fill="#2b4d66"/>
        <path id="Trazado_161980" data-name="Trazado 161980" d="M18.4,10.819c-.888.522-1.91.754-2.767,1.365a7.662,7.662,0,0,0-3.479,6.522c-.009,4.587-.026,9.174.017,13.761.009.913-.186,1.31-1.178,1.222A27.769,27.769,0,0,0,8.2,33.7a3.648,3.648,0,0,1-3.179-3.417,123.192,123.192,0,0,1,.049-12.719c.254-3.542,3.859-6.715,7.4-6.766,1.976-.029,3.953.009,5.929.017" transform="translate(-1.366 -3.018)" fill="#976b54"/>
        <path id="Trazado_161981" data-name="Trazado 161981" d="M28.145,113.2q6.578,0,13.158,0a4.449,4.449,0,0,1,.967.034,1.563,1.563,0,0,1,1.318,1.613,1.524,1.524,0,0,1-1.307,1.611,6.8,6.8,0,0,1-1.289.056q-12.836,0-25.669,0a8.421,8.421,0,0,1-1.184-.037,1.561,1.561,0,0,1-1.428-1.619,1.611,1.611,0,0,1,1.522-1.647c.321-.031.647-.013.97-.013H28.145" transform="translate(-3.553 -31.653)" fill="#2b4d66"/>
        <path id="Trazado_161982" data-name="Trazado 161982" d="M28.157,106.6q-6.578,0-13.158,0a4.648,4.648,0,0,1-.967-.039,1.545,1.545,0,0,1-1.313-1.61,1.524,1.524,0,0,1,1.308-1.609,6.794,6.794,0,0,1,1.289-.053q12.834,0,25.668,0c.287,0,.576-.009.862.007a1.654,1.654,0,1,1,.006,3.3c-.287.013-.575,0-.862,0H28.157" transform="translate(-3.557 -28.882)" fill="#2b4d66"/>
        <path id="Trazado_161983" data-name="Trazado 161983" d="M11.956,97.806c-.042.323-.318.458-.522.643a4.2,4.2,0,0,0-1.462,2.774,27.806,27.806,0,0,0-.343,5.1,25.259,25.259,0,0,1-.328,2.747c-.048,1.37.313,2.7.243,4.069a23.17,23.17,0,0,0-.213,4.067c.323,2.572.188,5.188.674,7.738a4.534,4.534,0,0,0,1.792,2.745c-1.566.475-3.433-.849-3.983-2.691a15.684,15.684,0,0,1-.389-3.182,131.153,131.153,0,0,1-.208-15.145,29.363,29.363,0,0,1,.617-5.951c.4-1.689,2.294-3.331,4.121-2.916" transform="translate(-1.986 -27.331)" fill="#e6ebf5"/>
        <path id="Trazado_161984" data-name="Trazado 161984" d="M101.013,6.051c-.887.855-2.022,1.507-2.283,2.867a13.012,13.012,0,0,0-.228,2.011c-.04,1.253-.215,2.49-.3,3.736a86.674,86.674,0,0,0-.171,8.906c.115,3.026.377,6.048.661,9.064a3.655,3.655,0,0,0,1.271,2.424c.543.473.152.523-.266.545a4.017,4.017,0,0,1-3.19-3.474c-.161-1.529-.31-3.061-.42-4.595a103.812,103.812,0,0,1,.416-17.917,4.216,4.216,0,0,1,4.505-3.567" transform="translate(-26.809 -1.691)" fill="#80b3fa"/>
        <path id="Trazado_161985" data-name="Trazado 161985" d="M142.873,130.313a36.473,36.473,0,0,0,.223-3.906,6.488,6.488,0,0,0,1.54-1.154,2.409,2.409,0,0,1,1.431-.665c.9-.2,1.346-.766,1.24-1.481-.1-.689-.725-1.077-1.653-1.011a4.162,4.162,0,0,0-1.447.39c-.348.16-.679.431-1.109.275.046-.455.32-.882.171-1.362a3.555,3.555,0,0,1,6.926.115,7.185,7.185,0,0,1-7.323,8.8" transform="translate(-39.951 -33.193)" fill="#b07a4a"/>
        <path id="Trazado_161986" data-name="Trazado 161986" d="M75.332,67.168c-.855.082-1.416-.02-1.12-1.158a15.485,15.485,0,0,0,.247-2.527c.441-.472.993-.816,1.448-1.273a1.974,1.974,0,0,1,1.851-.614,1.179,1.179,0,0,0,1.522-.979c.173-.831-.378-1.265-1.086-1.474a3.856,3.856,0,0,0-2.521.181c-.388.148-.745.46-1.212.29a4.6,4.6,0,0,1,.2-1.742,3.537,3.537,0,0,1,3.8-2.148,3.338,3.338,0,0,1,3.019,2.9,7.084,7.084,0,0,1-6.151,8.55" transform="translate(-20.729 -15.576)" fill="#fecabd"/>
        <path id="Trazado_161987" data-name="Trazado 161987" d="M19.286,123.108c1.541,0,3.082-.009,4.623,0,1.235.01,1.933.622,1.933,1.662,0,1.01-.655,1.64-1.834,1.648q-4.73.034-9.46,0a1.665,1.665,0,1,1,.008-3.307c1.576-.018,3.153,0,4.73-.005" transform="translate(-3.55 -34.423)" fill="#2b4d66"/>
        <path id="Trazado_161988" data-name="Trazado 161988" d="M109.166,138.511a4.47,4.47,0,0,1-3.625-1.23c-1.011-.863-1.241-1.6-.684-2.374s1.553-.8,2.552-.073a2.832,2.832,0,0,0,3.722.006c.114-.086.207-.2.323-.285a1.524,1.524,0,0,1,1.972,2.292,5.036,5.036,0,0,1-4.261,1.663" transform="translate(-29.238 -37.535)" fill="#dc636e"/>
        <path id="Trazado_161989" data-name="Trazado 161989" d="M127.432,117.77a4.255,4.255,0,0,1-.807,2.845,1.543,1.543,0,0,1-2.693.013,5.269,5.269,0,0,1,.006-5.69,1.509,1.509,0,0,1,2.613-.082,3.964,3.964,0,0,1,.881,2.915" transform="translate(-34.422 -31.917)" fill="#2b4d66"/>
        <path id="Trazado_161990" data-name="Trazado 161990" d="M93.951,120.98a5.216,5.216,0,0,1-.009-6.358c1.335-.772,2.18-.532,2.815.872a5.436,5.436,0,0,1,.064,4.461c-.6,1.452-1.475,1.73-2.87,1.026" transform="translate(-25.968 -31.93)" fill="#2b4d66"/>
        <path id="Trazado_161991" data-name="Trazado 161991" d="M143.185,123.959a5.013,5.013,0,0,1,3.111-.942c.839.122,1.387.486,1.418,1.437a1.411,1.411,0,0,1-1.311,1.571,2.767,2.767,0,0,0-1.98,1.1,1.26,1.26,0,0,1-1.239.475q0-1.823,0-3.646" transform="translate(-40.038 -34.39)" fill="#8f6239"/>
        <path id="Trazado_161992" data-name="Trazado 161992" d="M77.187,125.825c0,.321.016.644-.005.964-.018.268.129.627-.2.767a.777.777,0,0,1-.929-.358,3.282,3.282,0,0,0-1.914-1.256,1.389,1.389,0,0,1-1.012-1.659,1.339,1.339,0,0,1,1.431-1.173c1.929-.113,2.632.6,2.632,2.715" transform="translate(-20.442 -34.422)" fill="#8f6239"/>
        <path id="Trazado_161993" data-name="Trazado 161993" d="M22.769,64.026a1.7,1.7,0,0,1,0,2.593,5.28,5.28,0,0,1-5.936.256,1.651,1.651,0,0,1-.169-2.943,5.344,5.344,0,0,1,6.1.094" transform="translate(-4.43 -17.623)" fill="#e9a497"/>
        <path id="Trazado_161994" data-name="Trazado 161994" d="M25.346,51.439c1.26-.576,2.009-.351,2.634.881a5.168,5.168,0,0,1,.07,4.669c-.658,1.436-1.589,1.67-2.919.815a5.2,5.2,0,0,1,.215-6.366" transform="translate(-6.753 -14.299)" fill="#2b4d66"/>
        <path id="Trazado_161995" data-name="Trazado 161995" d="M8.1,62.933c-.116.51.289,1.316-.206,1.572-.663.341-.917-.6-1.4-.9-.559-.359-1.009-.81-1.836-.529a1.43,1.43,0,0,1-1.849-1.055c-.31-.883.254-1.453.933-1.833a4.015,4.015,0,0,1,3.868.479c.7.618.417,1.465.489,2.269" transform="translate(-0.762 -16.745)" fill="#e9ac9d"/>
        <path id="Trazado_161996" data-name="Trazado 161996" d="M40.577,75.6a6.079,6.079,0,0,1-4.2-1.769,1.43,1.43,0,0,1-.137-2.036,1.363,1.363,0,0,1,2.016-.285c1.552,1.253,2.973,1.338,4.522-.009a1.339,1.339,0,0,1,1.936.223,1.356,1.356,0,0,1,.034,2.022A6.016,6.016,0,0,1,40.577,75.6" transform="translate(-10.031 -19.905)" fill="#dc636e"/>
        <path id="Trazado_161997" data-name="Trazado 161997" d="M62,67.708a5.332,5.332,0,0,1-3.1-1.132,1.7,1.7,0,0,1,0-2.484,5.365,5.365,0,0,1,6.114-.222c1.332,1.016,1.171,2.331-.357,3.157a6.623,6.623,0,0,1-2.65.681" transform="translate(-16.318 -17.622)" fill="#e9a598"/>
        <path id="Trazado_161998" data-name="Trazado 161998" d="M58.772,54.661a4.875,4.875,0,0,1-.966,3,1.5,1.5,0,0,1-2.49.013,5.261,5.261,0,0,1,0-5.942,1.5,1.5,0,0,1,2.489,0,4.766,4.766,0,0,1,.972,2.925" transform="translate(-15.21 -14.282)" fill="#2b4d66"/>
        <path id="Trazado_161999" data-name="Trazado 161999" d="M74.588,60.777a4.545,4.545,0,0,1,4.063-.66,1.488,1.488,0,0,1,1.058,1.929c-.366.773-.932,1.365-1.957.972-.681-.261-1.15.168-1.595.6s-.858.974-1.57,1.029q0-1.935,0-3.87" transform="translate(-20.856 -16.741)" fill="#e9ab9c"/>
        <path id="Trazado_162000" data-name="Trazado 162000" d="M117.1,14.954c-4.525,0-9.05.01-13.575-.006-1.506-.005-2.356-1.236-1.708-2.419a1.834,1.834,0,0,1,1.83-.873c4.919.013,9.84.006,14.76.006,4.059,0,8.116-.007,12.175.006,1.28,0,1.967.7,1.874,1.811-.081.964-.7,1.47-1.887,1.472-4.489.01-8.978,0-13.467,0" transform="translate(-28.409 -3.259)" fill="#2b4d66"/>
        <path id="Trazado_162001" data-name="Trazado 162001" d="M117.014,24.857c-4.489,0-8.978-.007-13.467.007a1.753,1.753,0,0,1-1.725-.859,1.561,1.561,0,0,1,.1-1.73,1.838,1.838,0,0,1,1.7-.707q8.673.018,17.345.006,4.74,0,9.48,0c1.349,0,2.032.582,2.013,1.682-.019,1.067-.653,1.593-1.98,1.6q-6.733.011-13.467,0" transform="translate(-28.412 -6.031)" fill="#2b4d66"/>
        <path id="Trazado_162002" data-name="Trazado 162002" d="M108.095,34.767c-1.544,0-3.089.017-4.633-.006a1.682,1.682,0,0,1-1.861-1.65,1.709,1.709,0,0,1,1.886-1.643q4.687-.021,9.375,0c1.175.005,1.862.619,1.878,1.613.018,1.075-.628,1.667-1.9,1.683-1.58.02-3.161.005-4.741,0" transform="translate(-28.41 -8.797)" fill="#2b4d66"/>
      </g>
    </g>
  </g>
</svg>
