<svg xmlns="http://www.w3.org/2000/svg" width="190" height="180.264" viewBox="0 0 190 180.264">
  <g id="Grupo_169645" data-name="Grupo 169645" transform="translate(-184 -6741)">
    <rect id="Rectángulo_42525" data-name="Rectángulo 42525" width="190" height="166" rx="11" transform="translate(184 6741)" fill="#ffbfc1"/>
    <path id="Trazado_162003" data-name="Trazado 162003" d="M107.537,200.839c12.534-5.015,25.533-11.782,30.58-23.1,5.6-12.56-.262-26.625-.121-40.126.112-10.7,4.031-21.024,7.114-31.366s5.348-21.331,2.167-31.65a39.572,39.572,0,0,0-12.493-18.117A51,51,0,0,0,95.606,45.02c-14.077,2-26.867,11.1-30.983,23.17-5.831,17.1,5.559,35.362,3.138,53.1-.947,6.94-3.979,13.5-6.034,20.252a73.967,73.967,0,0,0-3.221,22.034c.077,11.385,3.339,23.531,12.943,31.112C81.136,202.333,95.552,205.635,107.537,200.839Z" transform="matrix(0.719, 0.695, -0.695, 0.719, 290.447, 6670.053)" fill="#fff0f1"/>
    <g id="Grupo_157454" data-name="Grupo 157454" transform="translate(198 6755)">
      <path id="Trazado_117051" data-name="Trazado 117051" d="M1884.749,1139.066c-16.648-7.3-21.386,5.923-20.991,33.955s1.777,52.993-14.411,39.229c0,0,1.974,10.321,14.016,11.111,0,0-7.5,5.725-14.016,1.185,0,0-2.567,16.78,15.793,25.664s46.984,3.751,51.13-16.385-11.074-83.086-11.074-83.086Z" transform="translate(-1820.527 -1135.295)" fill="#6a2810"/>
      <path id="Trazado_117052" data-name="Trazado 117052" d="M1939.929,1142.06c-4.886-6.959-11.845-3.109-13.918,4.293s5.717,15.1,5.717,15.1Z" transform="translate(-1870.887 -1136.167)" fill="#3cac96"/>
      <path id="Trazado_117053" data-name="Trazado 117053" d="M1938.117,1396.949l.621,25.031.831,33.6.008.407.358-.012.037-.4h57.287c2.941-10.792.5-21.4-4.458-32.331a66.207,66.207,0,0,1-5.725-28.078,21.613,21.613,0,0,0-5.194-1.18,94.975,94.975,0,0,0-18.121-.4,179.748,179.748,0,0,0-18.413,1.884A65.364,65.364,0,0,0,1938.117,1396.949Z" transform="translate(-1879.094 -1304.145)" fill="#955027"/>
      <path id="Trazado_117054" data-name="Trazado 117054" d="M1854.176,1459.655h30.089l.008.407.358-.012.037-.4,2.361-26.429,3.015-33.675a65.33,65.33,0,0,0-7.23,1.472s-9.871,0-13.621,8.884C1865.844,1417.833,1856.216,1452.306,1854.176,1459.655Z" transform="translate(-1823.79 -1308.22)" fill="#955027"/>
      <path id="Trazado_117055" data-name="Trazado 117055" d="M2066.4,1395.2l9.55,61.589h34.642c-5.446-9.908-20.149-36.769-25.573-47.774-6.712-13.622-13.424-12.635-13.424-12.635A21.607,21.607,0,0,0,2066.4,1395.2Z" transform="translate(-1963.61 -1305.353)" fill="#955027"/>
      <path id="Trazado_117056" data-name="Trazado 117056" d="M1939.937,1477.236l.831,33.6.008.407.358-.012.037-.4h6.346a61.691,61.691,0,0,0-3.985-26.429A38.033,38.033,0,0,0,1939.937,1477.236Z" transform="translate(-1880.292 -1359.401)" fill="#703316"/>
      <path id="Trazado_117057" data-name="Trazado 117057" d="M1682.736,1575.153h159.678c.252,0,.456-.276.456-.617s-.2-.617-.456-.617H1682.736c-.252,0-.456.276-.456.617S1682.485,1575.153,1682.736,1575.153Z" transform="translate(-1682.28 -1423.1)" fill="#6a2810"/>
      <path id="Trazado_117058" data-name="Trazado 117058" d="M1942.76,1381.339c0,6.46,10.841,15.4,24.214,15.4s24.213-8.938,24.213-15.4-10.841-8-24.213-8S1942.76,1374.878,1942.76,1381.339Z" transform="translate(-1882.152 -1290.953)" fill="#703316"/>
      <path id="Trazado_117059" data-name="Trazado 117059" d="M1942.76,1377.722c0,6.46,10.841,15.4,24.214,15.4s24.213-8.938,24.213-15.4-10.841-7.995-24.213-7.995S1942.76,1371.262,1942.76,1377.722Z" transform="translate(-1882.152 -1288.571)" fill="#955027"/>
      <path id="Trazado_117060" data-name="Trazado 117060" d="M1961.029,1388.984c0,4.8,17.981,11.435,17.981,11.435s17.981-6.638,17.981-11.435-8.05-5.937-17.981-5.937S1961.029,1384.187,1961.029,1388.984Z" transform="translate(-1894.189 -1297.346)" fill="#703316"/>
      <path id="Trazado_117061" data-name="Trazado 117061" d="M1979.165,1335.377c.181,6.885,11.8,12.659,11.8,12.659,10.891-6.017,10.624-13.807,10.624-13.807-1.188-.814-1.884-4.15-2.291-7.782-.572-5.112-.572-10.792-.572-10.792l-18.754-10.245c.222,3.023.391,5.741.51,8.184C1981.456,1333.93,1979.165,1335.377,1979.165,1335.377Z" transform="translate(-1906.138 -1246.197)" fill="#ffaf82"/>
      <path id="Trazado_117062" data-name="Trazado 117062" d="M1981.516,1305.412c.222,3.023.391,5.741.51,8.184,3.924,6.967,10.274,14.551,18.816,12.852-.572-5.112-.572-10.792-.572-10.792Z" transform="translate(-1907.687 -1246.197)" fill="#fe976a"/>
      <path id="Trazado_117063" data-name="Trazado 117063" d="M1873.812,1554.047c8.421.185,14.847,9.913,6.264,21.539a1.6,1.6,0,0,1-2.865-.829,9.128,9.128,0,0,1,.154-2.548s-2.172,2.468-3.553-.1c0,0-.888,2.171-3.356.3,0,0-.987,2.764-3.85,1.086s-5.627-11.055-2.764-15.695S1873.812,1554.047,1873.812,1554.047Z" transform="translate(-1829.363 -1409.963)" fill="#ffaf82"/>
      <path id="Trazado_117064" data-name="Trazado 117064" d="M1879.029,1588.927a.617.617,0,0,0,.52-.947c-2.443-3.854-2.667-9.213-2.669-9.267a.611.611,0,0,0-.639-.594.617.617,0,0,0-.594.639c.008.232.234,5.742,2.859,9.883A.618.618,0,0,0,1879.029,1588.927Z" transform="translate(-1837.936 -1425.866)" fill="#fe976a"/>
      <path id="Trazado_117065" data-name="Trazado 117065" d="M1892.951,1585.774a.6.6,0,0,0,.121-.012.617.617,0,0,0,.484-.726,35.568,35.568,0,0,1-.419-10.553.617.617,0,0,0-1.222-.171,36.236,36.236,0,0,0,.431,10.965A.617.617,0,0,0,1892.951,1585.774Z" transform="translate(-1848.503 -1423.009)" fill="#fe976a"/>
      <path id="Trazado_117066" data-name="Trazado 117066" d="M1904.618,1586.445a.617.617,0,0,0,.552-.342c1.744-3.487.792-10.619.75-10.921a.617.617,0,1,0-1.222.167c.009.07.941,7.056-.632,10.2a.617.617,0,0,0,.551.893Z" transform="translate(-1856.616 -1423.581)" fill="#fe976a"/>
      <path id="Trazado_117067" data-name="Trazado 117067" d="M2130.073,1554.047c-8.421.185-14.846,9.913-6.264,21.539a1.6,1.6,0,0,0,2.864-.829,9.126,9.126,0,0,0-.154-2.548s2.172,2.468,3.554-.1c0,0,.888,2.171,3.356.3,0,0,.987,2.764,3.85,1.086s5.626-11.055,2.763-15.695S2130.073,1554.047,2130.073,1554.047Z" transform="translate(-1998.759 -1409.963)" fill="#ffaf82"/>
      <path id="Trazado_117068" data-name="Trazado 117068" d="M2158.659,1588.931a.617.617,0,0,0,.522-.287c2.625-4.141,2.85-9.65,2.859-9.883a.617.617,0,0,0-1.233-.044c0,.054-.225,5.413-2.668,9.267a.617.617,0,0,0,.52.947Z" transform="translate(-2023.989 -1425.87)" fill="#fe976a"/>
      <path id="Trazado_117069" data-name="Trazado 117069" d="M2148.823,1585.774a.617.617,0,0,0,.6-.5,36.222,36.222,0,0,0,.431-10.965.617.617,0,1,0-1.222.17,35.677,35.677,0,0,1-.419,10.553.617.617,0,0,0,.484.726A.638.638,0,0,0,2148.823,1585.774Z" transform="translate(-2017.508 -1423.009)" fill="#fe976a"/>
      <path id="Trazado_117070" data-name="Trazado 117070" d="M2136.512,1586.445a.617.617,0,0,0,.552-.893c-1.573-3.146-.641-10.132-.632-10.2a.617.617,0,0,0-1.222-.167c-.041.3-.993,7.434.75,10.921A.617.617,0,0,0,2136.512,1586.445Z" transform="translate(-2008.75 -1423.581)" fill="#fe976a"/>
      <circle id="Elipse_4806" data-name="Elipse 4806" cx="1.566" cy="1.566" r="1.566" transform="translate(70.899 97.967)" fill="#703316"/>
      <circle id="Elipse_4807" data-name="Elipse 4807" cx="1.566" cy="1.566" r="1.566" transform="translate(94.982 98.526)" fill="#703316"/>
      <path id="Trazado_117071" data-name="Trazado 117071" d="M2045.978,1453.746a1.028,1.028,0,0,0,1.028-1.028v-27.835a1.029,1.029,0,0,0-2.057,0v27.835A1.028,1.028,0,0,0,2045.978,1453.746Z" transform="translate(-1949.479 -1324.231)" fill="#3cac96"/>
      <path id="Trazado_117072" data-name="Trazado 117072" d="M2043.625,1505.183c0,1.226.685,2.221,1.53,2.221s1.53-.995,1.53-2.221-.685-2.221-1.53-2.221S2043.625,1503.956,2043.625,1505.183Z" transform="translate(-1948.606 -1376.351)" fill="#fff"/>
      <path id="Trazado_117073" data-name="Trazado 117073" d="M1975.491,1452.107a1.028,1.028,0,0,0,1.029-1.028v-27.836a1.029,1.029,0,0,0-2.057,0v27.836A1.029,1.029,0,0,0,1975.491,1452.107Z" transform="translate(-1903.039 -1323.151)" fill="#3cac96"/>
      <path id="Trazado_117074" data-name="Trazado 117074" d="M1973.138,1503.543c0,1.227.685,2.221,1.53,2.221s1.53-.994,1.53-2.221-.685-2.221-1.53-2.221S1973.138,1502.317,1973.138,1503.543Z" transform="translate(-1902.167 -1375.27)" fill="#fff"/>
      <path id="Trazado_117075" data-name="Trazado 117075" d="M1989.393,1170.527c6.761-7.671,4.491-17.74,0-24.452s-12.98-6.12-12.98-6.12-9.081-12.437-28.427-6.515c-18.684,5.719-21.315,35.941-10.058,49.551S1989.393,1170.527,1989.393,1170.527Z" transform="translate(-1874.551 -1131.842)" fill="#6a2810"/>
      <path id="Trazado_117076" data-name="Trazado 117076" d="M1965.4,1209.594c1.2,14.9,9.9,25.665,27.948,25.665,17.257,0,20.832-18.812,18.433-35.526-1.054-7.377-3.274-14.348-5.994-19.109,0,0-32.87-12.879-38.643,10.662A58.093,58.093,0,0,0,1965.4,1209.594Z" transform="translate(-1896.973 -1161.665)" fill="#ffaf82"/>
      <path id="Trazado_117077" data-name="Trazado 117077" d="M1949.088,1278.162c-2.542,7.846-16.48,5.558-17.322-3.251-.817-8.546,8.91-12.193,15.3-6.569S1949.088,1278.162,1949.088,1278.162Z" transform="translate(-1874.877 -1219.998)" fill="#ffaf82"/>
      <path id="Trazado_117078" data-name="Trazado 117078" d="M1949.685,1285.465a.614.614,0,0,0,.5-.251c.122-.166,2.972-4.1,1.274-7.363a.617.617,0,0,0-1.095.57c1.343,2.58-1.147,6.027-1.173,6.062a.617.617,0,0,0,.5.982Z" transform="translate(-1886.309 -1227.82)" fill="#fe976a"/>
      <path id="Trazado_117079" data-name="Trazado 117079" d="M1956.625,1288.941a14.422,14.422,0,0,0,3.17-.37.617.617,0,0,0-.3-1.2,11.029,11.029,0,0,1-5.131.015.617.617,0,0,0-.4,1.168A8.357,8.357,0,0,0,1956.625,1288.941Z" transform="translate(-1889.26 -1234.301)" fill="#fe976a"/>
      <path id="Trazado_117080" data-name="Trazado 117080" d="M2044.084,1308.863a7.9,7.9,0,0,0,6.525-3.363.617.617,0,1,0-.981-.748c-4.272,5.608-10.791,1.4-11.066,1.213a.617.617,0,0,0-.683,1.028A12.685,12.685,0,0,0,2044.084,1308.863Z" transform="translate(-1944.639 -1245.602)" fill="#6a2810"/>
      <path id="Trazado_117081" data-name="Trazado 117081" d="M2005.432,1280.23a3.535,3.535,0,0,0,2.535-1.083,4.765,4.765,0,0,0,.639-5.639,4.487,4.487,0,0,0-4.327-2.562,4.275,4.275,0,0,0-3.721,2.837.617.617,0,0,0,1.165.408,3.041,3.041,0,0,1,2.649-2.015,3.256,3.256,0,0,1,3.145,1.909,3.541,3.541,0,0,1-.425,4.193,2.336,2.336,0,0,1-2.888.4,1.671,1.671,0,0,1-1.013-1.457,2.055,2.055,0,0,1,.834-1.727.519.519,0,0,1,.572-.068.617.617,0,0,0,.58-1.089,1.769,1.769,0,0,0-1.808.112,3.288,3.288,0,0,0-1.41,2.823,2.9,2.9,0,0,0,1.677,2.5A3.9,3.9,0,0,0,2005.432,1280.23Z" transform="translate(-1920.209 -1223.482)" fill="#fe976a"/>
      <path id="Trazado_117082" data-name="Trazado 117082" d="M2082.921,1269a3.539,3.539,0,0,0,2.535-1.083,4.768,4.768,0,0,0,.639-5.64,4.491,4.491,0,0,0-4.327-2.561,4.277,4.277,0,0,0-3.722,2.837.617.617,0,0,0,1.165.408,3.041,3.041,0,0,1,2.65-2.015,3.259,3.259,0,0,1,3.144,1.909,3.541,3.541,0,0,1-.425,4.193,2.337,2.337,0,0,1-2.888.4,1.673,1.673,0,0,1-1.012-1.457,2.055,2.055,0,0,1,.834-1.727.519.519,0,0,1,.572-.067.617.617,0,1,0,.58-1.089,1.767,1.767,0,0,0-1.809.111,3.289,3.289,0,0,0-1.41,2.823,2.9,2.9,0,0,0,1.678,2.5A3.9,3.9,0,0,0,2082.921,1269Z" transform="translate(-1971.262 -1216.081)" fill="#fe976a"/>
      <path id="Trazado_117083" data-name="Trazado 117083" d="M2057.316,1267.4a.617.617,0,0,0,.349-.109l5.384-3.707a.618.618,0,0,0,.158-.859l-5.384-7.8a.617.617,0,1,0-1.015.7l5.033,7.289-4.875,3.356a.617.617,0,0,0,.35,1.126Z" transform="translate(-1957.219 -1212.761)" fill="#6a2810"/>
      <path id="Trazado_117084" data-name="Trazado 117084" d="M2016.268,1247.783c0,1.659-.667,2.593-1.49,2.593s-1.491-.934-1.491-2.593.667-2.548,1.491-2.548S2016.268,1246.125,2016.268,1247.783Z" transform="translate(-1928.618 -1206.55)" fill="#6a2810"/>
      <path id="Trazado_117085" data-name="Trazado 117085" d="M1965.4,1209.594c13.887.515,19.62-22.444,19.62-22.444s17.508,17.164,26.761,12.582c-1.054-7.377-3.274-14.348-5.994-19.109,0,0-32.87-12.879-38.643,10.662A58.093,58.093,0,0,0,1965.4,1209.594Z" transform="translate(-1896.973 -1161.665)" fill="#fe976a"/>
      <path id="Trazado_117086" data-name="Trazado 117086" d="M2006.688,1190.25c-9.167,5.142-27.075-12.417-27.075-12.417s-5.874,23.513-20.125,22.417c0,0-6.27-5.242-.636-22.417s38.645-13.325,43.46-5.626S2006.688,1190.25,2006.688,1190.25Z" transform="translate(-1891.207 -1154.136)" fill="#6a2810"/>
      <path id="Trazado_117087" data-name="Trazado 117087" d="M2101.67,1512.718a.617.617,0,0,0,.595-.455c2.653-9.736,1.226-20.141-4.491-32.748a.617.617,0,1,0-1.124.51c5.592,12.33,7,22.471,4.425,31.914a.617.617,0,0,0,.6.779Z" transform="translate(-1983.505 -1360.665)" fill="#6a2810"/>
      <path id="Trazado_117088" data-name="Trazado 117088" d="M2075.346,1240.248c0,1.659-.667,2.593-1.491,2.593s-1.49-.934-1.49-2.593.667-2.549,1.49-2.549S2075.346,1238.589,2075.346,1240.248Z" transform="translate(-1967.541 -1201.585)" fill="#6a2810"/>
    </g>
  </g>
</svg>
