<svg xmlns="http://www.w3.org/2000/svg" xmlns:xlink="http://www.w3.org/1999/xlink" width="126" height="144" viewBox="0 0 126 144">
  <defs>
    <clipPath id="clip-path">
      <rect id="Rect치ngulo_42676" data-name="Rect치ngulo 42676" width="83" height="73.973" fill="none"/>
    </clipPath>
  </defs>
  <g id="Grupo_169622" data-name="Grupo 169622" transform="translate(-232 -6335)">
    <rect id="Rect치ngulo_42670" data-name="Rect치ngulo 42670" width="126" height="144" rx="13" transform="translate(232 6335)" fill="#ffd947"/>
    <g id="Grupo_169621" data-name="Grupo 169621" transform="translate(254 6370)">
      <g id="Grupo_169620" data-name="Grupo 169620" clip-path="url(#clip-path)">
        <path id="Trazado_161666" data-name="Trazado 161666" d="M23.548,79.762a1.245,1.245,0,0,1-1.506.791c-5.194-1.1-10.232-.312-15.215,1.211-.694.212-1.394.419-2.1.564A3.841,3.841,0,0,1,.3,80.032c-.073-.157-.061-.387-.3-.436V77.812c.355-2.709,1.362-5.265,1.865-7.94a23.685,23.685,0,0,0,.154-8.852,32.958,32.958,0,0,1,0-12.306,25.35,25.35,0,0,0-.789-11.531A38.08,38.08,0,0,1,0,31.921v-1.46a1.781,1.781,0,0,0,.142-.275,3.849,3.849,0,0,1,4.8-2.7c2.585.631,5.115,1.484,7.75,1.915a24.632,24.632,0,0,0,5.4.266,1.434,1.434,0,0,1,1.7,1.12c.17.847-.3,1.46-1.285,1.5a33.817,33.817,0,0,1-4.611-.043A49.567,49.567,0,0,1,5.84,30.471,12.455,12.455,0,0,0,4.264,30.1c-1.126-.148-1.728.463-1.5,1.571.187.926.467,1.831.729,2.739A36.931,36.931,0,0,1,5.264,45.4a39.979,39.979,0,0,1-.6,5.223A25.43,25.43,0,0,0,4.7,59.4a28.729,28.729,0,0,1-.306,12.523c-.56,2-1.087,4.015-1.611,6.028-.323,1.238.382,1.99,1.634,1.7,1.633-.372,3.241-.849,4.859-1.282a29.511,29.511,0,0,1,12.373-.59,4.159,4.159,0,0,1,1.252.32,1.189,1.189,0,0,1,.65,1.66" transform="translate(0 -13.746)"/>
        <path id="Trazado_161667" data-name="Trazado 161667" d="M6.686,73.5c.263-1.567.585-3.121.717-4.712a27.074,27.074,0,0,0-.337-7.017,28.635,28.635,0,0,1-.022-10.39,29.525,29.525,0,0,0-.873-13.765c-.393-1.372-.744-2.757-1.107-4.138-.406-1.552.466-2.394,2.042-1.99,2.323.595,4.613,1.312,6.97,1.772a29.255,29.255,0,0,0,6.935.42c.83-.037,1.176-.549,1.279-1.3l3.108-.495c.91.729,1.876.493,2.9.258A64.981,64.981,0,0,1,39.1,30.647c2.295-.136,4.585-.148,6.875-.117A61.954,61.954,0,0,1,59.7,32.136,58.169,58.169,0,0,0,67.009,33.5a7.364,7.364,0,0,0,2.074.11c.625.01.917.273.771.891a12.962,12.962,0,0,1-.6,2.884,1.475,1.475,0,0,1-1.076.238c-.783.021-1.569-.044-2.349.036-.713.073-1.171.47-1.1.952.094.632.591.779,1.132.831.242.023.486.013.729.013.945,0,1.891-.008,2.836,0,.342,0,.789-.1.965.247s-.178.649-.4.9c-1.318,1.537-2.612,3.1-3.926,4.636a21.631,21.631,0,0,0-1.489,1.815c-.616.9-.328,1.63.741,1.847a22.513,22.513,0,0,0,3.556.118c.4.017.82-.083,1.154.242A10.842,10.842,0,0,1,70.11,52.8c-.1,1.292-.4,2.559-.561,3.844A28.753,28.753,0,0,0,70.641,68.49c.424,1.422.831,2.852,1.131,4.307a2.8,2.8,0,0,1-3.047,3.6,5.062,5.062,0,0,1-1.2-.191c-1.353-.374-2.7-.756-4.064-1.1-.377-.1-.827-.134-.929-.646.033-.5.4-.812.651-1.189a8.963,8.963,0,0,0,1.678-5.237,4.643,4.643,0,0,0-1.619-3.576,1.8,1.8,0,0,1-.657-1.489c.01-2.216,0-4.431,0-6.647a13.4,13.4,0,0,0-13.488-13.5H39.054A13.483,13.483,0,0,0,25.645,54.256a7.179,7.179,0,0,0-.06,1.131c0,2.459-.006,4.918,0,7.376a1.752,1.752,0,0,1-.619,1.509,4.86,4.86,0,0,0-1.751,4.939c.476,2.74,1.648,5.089,4.353,6.337a.835.835,0,0,1,.539,1.041c-.2.493-.624.443-1.027.419a70.949,70.949,0,0,1-13.8-2.1,24.669,24.669,0,0,0-5.756-.792c-.373-.008-.968.135-.838-.62" transform="translate(-2.496 -15.34)" fill="#e4ebf0"/>
        <path id="Trazado_161668" data-name="Trazado 161668" d="M85.169,31.486c-3.1-.145-6.046-1.072-9.054-1.684a73.718,73.718,0,0,0-17.9-1.186,59.965,59.965,0,0,0-12.879,1.832,1.385,1.385,0,0,1-1.8-.784c.025-1.013.3-1.358,1.246-1.593a76.235,76.235,0,0,1,24.054-1.706,69.311,69.311,0,0,1,11.715,1.967,26.483,26.483,0,0,0,14.078-.381c1.4-.41,2.8-.793,4.216-1.129a3.832,3.832,0,0,1,4.676,4.646c-.6,2.543-1.379,5.046-1.928,7.6a24.946,24.946,0,0,0-.079,9.818,28.133,28.133,0,0,1,.037,10.394,28.3,28.3,0,0,0,.876,13.6q.59,1.975,1.066,3.982a3.856,3.856,0,0,1-4.865,4.77c-2.482-.623-4.916-1.441-7.448-1.859a26.917,26.917,0,0,0-11,.483c-1.673.417-3.363.765-5.052,1.115a1.3,1.3,0,0,0-.755.4,16.467,16.467,0,0,1-25.532-1.569.631.631,0,0,0-.12-.1,10.592,10.592,0,0,1-2.605-5.867c.064-.391-.138-.546-.486-.7a8.413,8.413,0,0,1-4.436-8.819,4.407,4.407,0,0,1,1.708-2.751,1.223,1.223,0,0,0,.542-1.147c-.007-2.593-.082-5.191.056-7.777a13.575,13.575,0,0,1,13.276-12.65q5.427-.051,10.857,0a13.637,13.637,0,0,1,13.328,13.3c.035,2.43.006,4.862.015,7.293,0,.281-.092.581.214.811,2.169,1.634,2.355,3.841,1.779,6.257a9.984,9.984,0,0,1-2.178,4.1,2.173,2.173,0,0,1-1.25,1.2,2,2,0,0,0-1.125,1.476A16.683,16.683,0,0,1,77.2,78.136a1.984,1.984,0,0,0,.99-.14,33.077,33.077,0,0,1,9.527-1.221,31.736,31.736,0,0,1,7.813,1.276c1.118.314,2.243.6,3.366.9,1.654.436,2.317-.268,1.9-1.913-.715-2.854-1.651-5.652-2.082-8.578a28.1,28.1,0,0,1,.192-9.428,27.694,27.694,0,0,0-.1-10.227A28.643,28.643,0,0,1,99.59,35.98c.434-1.59.86-3.182,1.269-4.778.323-1.263-.32-1.955-1.619-1.7-1.485.29-2.937.728-4.393,1.135a26.526,26.526,0,0,1-5.491,1c-1.388.086-2.79-.117-4.187-.149" transform="translate(-20.629 -13.12)"/>
        <path id="Trazado_161669" data-name="Trazado 161669" d="M27.96,119.887a20.1,20.1,0,0,0,2.606,5.867l-4.533-.955c.046-1.1-.221-1.422-1.319-1.636a30.788,30.788,0,0,0-15.1,1.051c-.9.275-1.813.519-2.73.735a1.454,1.454,0,0,1-1.86-1.939c.54-2.026,1.1-4.046,1.652-6.069.042.359.289.4.585.4a33.929,33.929,0,0,1,8.325,1.309,66.186,66.186,0,0,0,8.327,1.322,19.44,19.44,0,0,1,3.207.261c.285.079.736.194.84-.342" transform="translate(-2.484 -58.783)" fill="#d5e3e9"/>
        <path id="Trazado_161670" data-name="Trazado 161670" d="M136.645,16.132c1.273,0,2.343.006,3.414,0,.6-.005,1.115.112,1.127.838s-.475.887-1.086.886c-1.754,0-3.508,0-5.263,0-.444,0-.893-.033-1.1-.507a1.158,1.158,0,0,1,.332-1.321c1.315-1.423,2.627-2.849,4.061-4.4-1.065,0-1.991-.012-2.916,0-.633.011-1.186-.12-1.194-.869s.559-.891,1.182-.89q2.348,0,4.7,0c.48,0,.925.047,1.14.567a1.107,1.107,0,0,1-.339,1.242c-1.305,1.436-2.612,2.872-4.055,4.457" transform="translate(-67.179 -4.959)"/>
        <path id="Trazado_161671" data-name="Trazado 161671" d="M119.546,1.3H117.27c-.465,0-.815-.171-.794-.692.019-.48.369-.606.793-.606q1.781,0,3.561,0c.354,0,.7-.018.883.4a.829.829,0,0,1-.252.949c-.956,1.059-1.92,2.111-3.03,3.33.93,0,1.686,0,2.443,0,.437,0,.926-.03.95.593.026.658-.463.7-.945.7-1.241,0-2.482,0-3.723,0-.36,0-.713-.025-.887-.414a.874.874,0,0,1,.285-1.015L119.546,1.3" transform="translate(-58.409 0)" fill="#010101"/>
        <path id="Trazado_161672" data-name="Trazado 161672" d="M121.216,34.594c4.751.334,9.251-.921,13.753-2.173,1.76-.489,2.589.36,2.127,2.139-.651,2.5-1.439,4.972-1.914,7.518a27.362,27.362,0,0,0-.046,10.065,28,28,0,0,1,.014,10.31,29.462,29.462,0,0,0,.9,13.842c.384,1.319.717,2.653,1.064,3.982.432,1.653-.433,2.48-2.108,2.046-2.217-.574-4.4-1.266-6.654-1.706a29.938,29.938,0,0,0-14.017.717c-.485.136-.984.225-1.587.361a17.035,17.035,0,0,0,1.679-4.642.563.563,0,0,1,.4-.458,6.974,6.974,0,0,0,1.994-1.347c.017.379.351.386.586.451,1.606.443,3.212.889,4.83,1.285a2.667,2.667,0,0,0,3.582-2.157,3.124,3.124,0,0,0-.185-1.41c-.573-2.543-1.432-5.014-1.917-7.578a26.04,26.04,0,0,1-.262-7.789c.3-2.64.874-5.255.672-7.937.352-.288.773-.178,1.169-.2a7.943,7.943,0,0,0,1.933-.12c.469-.14.875-.37.817-.945s-.488-.741-.987-.753c-1.323-.033-2.647,0-3.97-.02-.44-.009-1.03.185-1.254-.307-.207-.456.319-.754.582-1.071,1.607-1.929,3.233-3.842,4.844-5.768.1-.124.217-.241.311-.373.317-.45.632-.912.338-1.489-.281-.552-.819-.548-1.339-.552-.783-.005-1.567.007-2.349-.006-.316-.005-.658.053-.908-.229.163-1,.306-2,.5-3,.1-.5-.108-.555-.541-.563a5.2,5.2,0,0,1-2.061-.128" transform="translate(-56.676 -16.228)" fill="#d5e3e9"/>
        <path id="Trazado_161673" data-name="Trazado 161673" d="M128.815,44.345q1.659.016,3.319.033c.6,0,1.236-.037,1.527.641a1.615,1.615,0,0,1-.431,1.777q-2.7,3.179-5.374,6.38c-.163.194-.416.343-.43.709h4.2c.324,0,.649-.008.972.013.8.052,1.248.449,1.254,1.088s-.423,1.063-1.231,1.117c-.7.047-1.4.013-2.106.024-.295,0-.59.031-.885.047-1.345-.016-2.691-.024-4.036-.054-.663-.014-1.413.092-1.771-.665-.369-.778.04-1.382.538-1.965,1.906-2.231,3.795-4.475,5.812-6.857-1.472,0-2.8,0-4.126,0a4.585,4.585,0,0,1-.966-.044,1.057,1.057,0,0,1-.948-1.044,1.03,1.03,0,0,1,.9-1.079,12.131,12.131,0,0,1,2.335-.085c.483-.021.968-.024,1.452-.035" transform="translate(-62.169 -22.291)"/>
        <path id="Trazado_161674" data-name="Trazado 161674" d="M72.042,77.336a1.306,1.306,0,0,0,1,1.166c1.519.164,1.8.4,1.839,2,.071,2.727.028,5.457.016,8.186a1.056,1.056,0,0,1-.295.89,2.364,2.364,0,0,0-1.7,1.2,1.506,1.506,0,0,1-2.533.085,5.624,5.624,0,0,0-.582-.775.849.849,0,0,0-.963-.222.941.941,0,0,0-.587.811,1.846,1.846,0,0,0,.389,1.289,3.6,3.6,0,0,0,4.885,1.028,3.525,3.525,0,0,1,1.038-.612c.319.129.3.421.317.684a15.727,15.727,0,0,1-10.605,16.324,5.546,5.546,0,0,1-3.081.4,13.6,13.6,0,0,1-8.611-6.473,12.844,12.844,0,0,1-1.76-4.994,1.34,1.34,0,0,0-1.358-1.328A2.365,2.365,0,0,1,47.9,96.2a6.485,6.485,0,0,1-1.933-4c-.23-2.129.787-3.3,2.948-3.493,1.531-.137,1.732-.354,1.732-1.88,0-1.377,0-2.754,0-4.131.007-2.66,1.557-4.2,4.242-4.2q6.075-.009,12.15,0c.758,0,1.331-.193,1.484-1.03.061-.089.124-.209.22-.226a5.828,5.828,0,0,1,3.3.094" transform="translate(-23.089 -38.731)" fill="#fecabd"/>
        <path id="Trazado_161675" data-name="Trazado 161675" d="M74.434,68.609a14.2,14.2,0,0,0-3.522.133c-.066-1-.456-1.4-1.465-1.4-4.21-.007-8.421-.066-12.629.023a6.068,6.068,0,0,0-5.778,3.964c-.093.216-.085.484-.3.643a11.265,11.265,0,0,1,9.234-12.121,14.4,14.4,0,0,1,2.578-.16q5.059.019,10.118.029a8.983,8.983,0,0,1,3.352,2.325A12.248,12.248,0,0,1,78.9,66.663c.172.519.169.52-.093.832a15.744,15.744,0,0,0-2.9-.157c-.925.034-1.272.338-1.474,1.271" transform="translate(-25.481 -30.004)" fill="#a54c31"/>
        <path id="Trazado_161676" data-name="Trazado 161676" d="M76.585,111.226a13.878,13.878,0,0,0,8.087-3.483,15.705,15.705,0,0,0,5.271-13.882c-.172-.24.046-.392.139-.563.587-1.086.562-1.283-.292-2.129a.216.216,0,0,1-.057-.217c.388-.063.328-.365.328-.628,0-2.806.01-5.613-.01-8.419a6.839,6.839,0,0,0-.232-1.18.683.683,0,0,0-.841-.648.547.547,0,0,1-.527-.131,12.83,12.83,0,0,1,2.585.083,3.7,3.7,0,0,1,3.12,3.612c.049,1.62.012,3.243.021,4.864.006,1.213.3,1.534,1.486,1.647,2.4.229,3.424,1.658,2.9,4.027a6.835,6.835,0,0,1-1.776,3.4,2.325,2.325,0,0,1-1.365.818c-.967.1-1.292.679-1.447,1.551a13.684,13.684,0,0,1-8.234,10.592,12.89,12.89,0,0,1-9.156.691" transform="translate(-38.497 -40.174)" fill="#fcac9c"/>
        <path id="Trazado_161677" data-name="Trazado 161677" d="M101.023,67.524a5.386,5.386,0,0,0-.933-2.656A12.184,12.184,0,0,0,95.1,59.982c-.089-.045-.145-.154-.216-.233a10.87,10.87,0,0,1,9.234,5.635,10.013,10.013,0,0,1,1.408,6.339,6.585,6.585,0,0,0-4.5-4.2" transform="translate(-47.695 -30.034)" fill="#893e25"/>
        <path id="Trazado_161678" data-name="Trazado 161678" d="M78.483,122.925a6.476,6.476,0,0,1-4.111-1.437,1.2,1.2,0,0,1-.349-1.761,1.238,1.238,0,0,1,1.794-.174,4.445,4.445,0,0,0,5.537.014,1.238,1.238,0,0,1,1.8.142,1.194,1.194,0,0,1-.317,1.768,6.5,6.5,0,0,1-4.352,1.447" transform="translate(-37.082 -59.946)"/>
        <path id="Trazado_161679" data-name="Trazado 161679" d="M96.58,102.1c1.03.571,1.2,1.114.666,2.159-.133.26-.3.5-.457.75a3.831,3.831,0,0,1-5.94-.149,3,3,0,0,1-.607-1.22,1.137,1.137,0,0,1,.741-1.431,1.109,1.109,0,0,1,1.487.605,1.9,1.9,0,0,0,.8.975,1.335,1.335,0,0,0,1.862-.753,1.424,1.424,0,0,1,1.451-.936" transform="translate(-45.344 -51.323)"/>
        <path id="Trazado_161680" data-name="Trazado 161680" d="M66.117,106.347a3.776,3.776,0,0,1-3.495-2.3,1.265,1.265,0,0,1,.513-1.8c.664-.318,1.277-.052,1.674.766a1.391,1.391,0,0,0,2.606,0c.393-.818,1.015-1.079,1.678-.76a1.268,1.268,0,0,1,.522,1.793,3.777,3.777,0,0,1-3.5,2.3" transform="translate(-31.397 -51.334)"/>
      </g>
    </g>
  </g>
</svg>
