<svg xmlns="http://www.w3.org/2000/svg" xmlns:xlink="http://www.w3.org/1999/xlink" width="105" height="105" viewBox="0 0 105 105">
  <defs>
    <clipPath id="clip-path">
      <rect id="Rectángulo_42760" data-name="Rectángulo 42760" width="73.204" height="73.21" fill="none"/>
    </clipPath>
  </defs>
  <g id="Grupo_169432" data-name="Grupo 169432" transform="translate(-4693 4891.223)">
    <path id="Trazado_160852" data-name="Trazado 160852" d="M52.5,0A52.5,52.5,0,1,1,0,52.5,52.5,52.5,0,0,1,52.5,0Z" transform="translate(4693 -4891.223)" fill="#6b8dfc"/>
    <g id="Grupo_169802" data-name="Grupo 169802" transform="translate(4709 -4875.223)">
      <g id="Grupo_169802-2" data-name="Grupo 169802" transform="translate(0 0)" clip-path="url(#clip-path)">
        <path id="Trazado_162544" data-name="Trazado 162544" d="M73.2,5.577c-.441,1.212-.7,2.482-1.205,3.677a37.949,37.949,0,0,1-8.061,11.67c-1.016,1.039-2.063,2.047-3.077,3.088A1.233,1.233,0,0,1,59.2,24.3c-.683-.49-.731-1.11-.088-1.788.868-.914,1.782-1.784,2.666-2.684a19.131,19.131,0,0,0,1.521-1.6c.254-.326.243-.485-.141-.7a11.277,11.277,0,0,1-2.051-1.538A29.807,29.807,0,0,1,55.649,10c-.182-.288-.308-.381-.595-.145s-.591.478-.862.749q-11.438,11.441-22.863,22.9c-1.5,1.517-3,3.058-4.349,4.721a2.861,2.861,0,0,1-.721.687c-.488.29-.977.392-1.391-.142-.532-.787-.521-1.1.128-1.82,1.148-1.275,2.288-2.557,3.476-3.794.422-.439.452-.6-.126-.919q-12.9-7.085-25.78-14.211a4.491,4.491,0,0,1-2.42-2.751,3.253,3.253,0,0,1,.8-3.3c1.087-1.136,2.205-2.243,3.333-3.34a3.4,3.4,0,0,1,3.629-.775c4.1,1.286,8.2,2.566,12.3,3.874a.872.872,0,0,0,1.1-.275A16.971,16.971,0,0,1,26.321,7.6a1.274,1.274,0,0,1,1.726.24c1.336,1.359,2.7,2.7,4.039,4.048a1.176,1.176,0,0,1,.236,1.77c-.292.512-.592,1.02-.91,1.566,3.7,1.166,7.348,2.308,10.986,3.468.4.127.567-.115.78-.328q4.095-4.093,8.186-8.19A45.4,45.4,0,0,1,57.1,5.14,27.3,27.3,0,0,1,67.486.131c.054-.011.1-.085.141-.131h2.145a3.618,3.618,0,0,1,3.144,2.145A10,10,0,0,1,73.2,3.432Z" transform="translate(0 0)"/>
        <path id="Trazado_162545" data-name="Trazado 162545" d="M52.785,68.3c-.936.212-1.179.1-1.693-.836Q46.339,58.85,41.6,50.231c-.292-.533-.44-.611-.914-.154a120.021,120.021,0,0,1-11.178,9.45c-.371.279-.455.457-.2.895,1.064,1.855,2.074,3.74,3.107,5.612a6.891,6.891,0,0,1-1.9,8.869c-1.516,1.066-2.74.942-3.889-.511-1.935-2.446-3.873-4.89-5.781-7.357-.328-.424-.553-.488-1-.18a7.151,7.151,0,0,1-3.8,1.272,4.631,4.631,0,0,1-4.951-5.452,7.646,7.646,0,0,1,1.294-3.434c.276-.391.192-.571-.15-.837q-3.719-2.9-7.414-5.825c-1.567-1.238-1.674-2.586-.334-4.073a7.883,7.883,0,0,1,9.256-1.536c1.71.88,3.365,1.868,5.023,2.846.446.264.652.2.948-.21.812-1.116,1.686-2.187,2.527-3.282a1.224,1.224,0,0,1,1.551-.5c.788.425.924,1.036.348,1.809-1.235,1.66-2.522,3.279-3.776,4.925-1.928,2.536-3.913,5.03-5.807,7.593a5.279,5.279,0,0,0-1.172,3.514,2.258,2.258,0,0,0,2.4,2.147,5.176,5.176,0,0,0,3.236-1.167c4.866-3.747,9.824-7.373,14.547-11.3,3.2-2.667,6.218-5.536,9.164-8.48q6.6-6.587,13.184-13.181a4.087,4.087,0,0,1,.688-.62,1,1,0,0,1,1.443.2c.445.872.411,1.124-.277,1.819q-1.181,1.192-2.374,2.374c-.187.186-.378.342-.275.665,1.16,3.658,2.312,7.318,3.483,11.035.573-.336,1.107-.639,1.631-.958a1.179,1.179,0,0,1,1.609.188q2.092,2.1,4.193,4.191a1.2,1.2,0,0,1,.221,1.606,16.656,16.656,0,0,1-3.828,5.014.963.963,0,0,0-.311,1.224c1.274,3.977,2.5,7.969,3.782,11.943a3.755,3.755,0,0,1-1.03,4.271c-.958.892-1.854,1.85-2.785,2.77a3.581,3.581,0,0,1-5.633-.43,51.074,51.074,0,0,1-2.913-5.138,1.07,1.07,0,0,1,.409-1.435c.353-.458.758-.284,1.144-.074a2.112,2.112,0,0,1,.762.923c.722,1.288,1.41,2.594,2.147,3.873a2.327,2.327,0,0,0,.82.876,1.132,1.132,0,0,0,1.5-.135c1.075-1.048,2.132-2.111,3.184-3.182a1.33,1.33,0,0,0,.207-1.467c-.471-1.5-.925-3-1.4-4.5-2.787-8.759-5.491-17.545-8.279-26.3-.258-.81-.471-1.633-.8-2.418-.272.06-.382.259-.528.406q-4.5,4.493-9,8.992c-.668.669-.656.665-.2,1.508,2.906,5.332,5.879,10.626,8.788,15.955.342.627.712,1.24,1.028,1.88a1.037,1.037,0,0,1-.541,1.57" transform="translate(-0.617 -5.358)"/>
        <path id="Trazado_162546" data-name="Trazado 162546" d="M15.244,60.321a4.925,4.925,0,0,1,1.068-3.459c2.4-3.191,4.835-6.353,7.261-9.522.781-1.02,1.58-2.023,2.361-3.042.59-.77.558-1.151-.12-1.851.815-.32,1.09-1.18,1.7-1.7.853.354,1.1.288,1.791-.464,8.99-9.76,18.63-18.877,27.959-28.3.05-.05.1-.1.156-.146.639-.6.606-.578,1.05.141a23.953,23.953,0,0,0,3.613,4.219c.568.573,1.165,1.117,1.749,1.675.058.439-.316.614-.553.852q-5.979,6-11.973,11.982c-4.077,4.077-8.123,8.185-12.239,12.221A122.071,122.071,0,0,1,26.657,53.33c-.2.148-.422.379-.638.007.016-.409.36-.592.591-.852a7.872,7.872,0,0,0,.675-.734.792.792,0,0,0-.086-1.1.813.813,0,0,0-1.1-.113,3.5,3.5,0,0,0-.585.521q-4.084,4.084-8.168,8.166a3.7,3.7,0,0,0-.742.951c-.515.644-1.03.7-1.358.145" transform="translate(-2.646 -1.981)" fill="#dff2fb"/>
        <path id="Trazado_162547" data-name="Trazado 162547" d="M61.078,69.709c.654-.675.689-.953.208-1.824q-4.906-8.9-9.831-17.8a.81.81,0,0,1,.17-1.186c3.151-3.113,6.273-6.255,9.406-9.388.166-.166.34-.325.579-.553.412,1.3.806,2.527,1.194,3.759q4.664,14.86,9.34,29.714a1.778,1.778,0,0,1-.51,2.1c-.914.834-1.76,1.742-2.637,2.617a1.567,1.567,0,0,1-2.745-.325c-.824-1.39-1.574-2.824-2.361-4.236-.483-.865-.781-1-1.659-.783l-1.154-2.1" transform="translate(-8.91 -6.771)" fill="#fe2c5c"/>
        <path id="Trazado_162548" data-name="Trazado 162548" d="M26.089,54.665c.112.169.227.112.353.012,2.763-2.2,5.589-4.313,8.249-6.642q3.437-3.008,6.653-6.242,10.979-11,21.975-21.987c.183-.184.347-.389.52-.584a11.546,11.546,0,0,0,2.569,1.742c.4.143.018.345-.085.451-1.286,1.33-2.584,2.647-3.881,3.968-.15.153-.3.3-.452.454-.64.666-.668,1.035-.136,1.8l-1.781,1.6c-.869-.411-1.108-.373-1.814.332-4.379,4.375-8.783,8.726-13.125,13.135A141.739,141.739,0,0,1,29.118,56.686c-2.532,1.9-5.024,3.847-7.536,5.771a6.09,6.09,0,0,1-3.834,1.51,2.341,2.341,0,0,1-2.5-2.289.781.781,0,0,0,1.238-.288c.143.078.153.227.2.361a.881.881,0,0,0,1.534.454,6.148,6.148,0,0,0,.568-.54q3.25-3.248,6.5-6.494c.222-.221.394-.559.8-.506" transform="translate(-2.65 -3.34)" fill="#c2d2da"/>
        <path id="Trazado_162549" data-name="Trazado 162549" d="M28.016,31.388q-4.191-2.294-8.382-4.589-7.782-4.286-15.555-8.586a3.836,3.836,0,0,1-.944-.635,1.459,1.459,0,0,1-.007-2.253c.955-.966,1.941-1.9,2.871-2.89a1.612,1.612,0,0,1,1.865-.445c3.825,1.223,7.659,2.422,11.49,3.625q9.149,2.874,18.3,5.745c.135.042.263.107.393.161.072.351-.212.509-.4.7q-4.386,4.4-8.788,8.789c-.224.223-.425.552-.839.377" transform="translate(-0.452 -2.063)" fill="#fe2c5c"/>
        <path id="Trazado_162550" data-name="Trazado 162550" d="M33.362,33.418a.8.8,0,0,0,.54-.311q4.686-4.69,9.372-9.379a1.078,1.078,0,0,0,.119-.176l3.326.989c0,.267-.191.359-.316.484-3.208,3.215-6.428,6.418-9.621,9.648a.687.687,0,0,1-1.02.127c-.785-.485-1.6-.925-2.4-1.382" transform="translate(-5.798 -4.093)" fill="#e52753"/>
        <path id="Trazado_162551" data-name="Trazado 162551" d="M77.285,11.468a13.62,13.62,0,0,0-6.06-4.5c.692-.449,1.317-.888,1.973-1.273a21.244,21.244,0,0,1,7.1-3,9.842,9.842,0,0,1,.99-.074c.273.3.138.628.059.942a24.946,24.946,0,0,1-3.409,7.458c-.146.227-.288.512-.653.442" transform="translate(-12.378 -0.456)" fill="#dff2fb"/>
        <path id="Trazado_162552" data-name="Trazado 162552" d="M78.56,11.468a5.507,5.507,0,0,0,1.376-1.945,22.729,22.729,0,0,0,2.55-6.2c.047-.228.052-.465.077-.7,1.476.026,2.147.671,2.14,2.133a11.272,11.272,0,0,1-1.055,4.179,30.249,30.249,0,0,1-1.8,3.544c-.443.78-.968,1.512-1.5,2.339a12.927,12.927,0,0,0-1.78-3.353" transform="translate(-13.652 -0.456)" fill="#c2d2da"/>
        <path id="Trazado_162553" data-name="Trazado 162553" d="M28.063,14.712a11.351,11.351,0,0,1,3.492-2.736c.256-.138.392,0,.548.158.89.894,1.764,1.805,2.684,2.667.377.353.115.58-.036.849-.563,1-.567,1-1.632.663l-5.056-1.6" transform="translate(-4.877 -2.071)" fill="#c2d2da"/>
        <path id="Trazado_162554" data-name="Trazado 162554" d="M76.671,16.441a.706.706,0,0,1-.306.639c-.252.189-.393-.064-.542-.183a33.65,33.65,0,0,1-5.5-5.493c-.129-.163-.419-.316-.169-.6a.65.65,0,0,1,.83-.2,11.294,11.294,0,0,1,2.3,1.433,11.711,11.711,0,0,1,3.209,3.965c.082.167.142.346.177.433" transform="translate(-12.175 -1.831)" fill="#51c3f4"/>
        <path id="Trazado_162555" data-name="Trazado 162555" d="M35.037,75.757a4.365,4.365,0,0,1-1.948,3.9c-.343.24-.551.235-.82-.111q-2.94-3.771-5.914-7.512c-.262-.329-.219-.487.1-.726q2.2-1.648,4.36-3.34c.293-.229.447-.314.671.1,1.009,1.885,2.066,3.744,3.085,5.622a4.211,4.211,0,0,1,.466,2.066" transform="translate(-4.55 -11.778)" fill="#fe2c5c"/>
        <path id="Trazado_162556" data-name="Trazado 162556" d="M11.662,58.5c-1.724-1.34-3.444-2.687-5.178-4.014-.391-.3-.269-.525-.006-.8a5.484,5.484,0,0,1,5.611-1.532,15.635,15.635,0,0,1,3.853,1.95c.195.278-.034.446-.186.6q-1.782,1.821-3.6,3.6c-.131.13-.273.27-.493.195" transform="translate(-1.083 -9.027)" fill="#fe2c5c"/>
        <path id="Trazado_162557" data-name="Trazado 162557" d="M12.8,58.951q2.072-2.041,4.141-4.086a.967.967,0,0,0,.139-.315c.7.39,1.4.791,2.116,1.165.3.16.356.3.132.587q-1.752,2.248-3.473,4.521c-.2.263-.348.327-.623.1-.8-.668-1.619-1.315-2.432-1.97" transform="translate(-2.225 -9.48)" fill="#e52753"/>
        <path id="Trazado_162558" data-name="Trazado 162558" d="M72.92,59.1c-.6-1.907-1.157-3.72-1.749-5.522-.149-.453-.155-.754.357-.93a2.611,2.611,0,0,0,.615-.356.434.434,0,0,1,.668.055c.874.908,1.775,1.791,2.67,2.679.179.178.3.323.151.607A12.063,12.063,0,0,1,72.92,59.1" transform="translate(-12.353 -9.064)" fill="#c2d2da"/>
        <path id="Trazado_162559" data-name="Trazado 162559" d="M26.347,61.457l-6.3,6.259c-.438.435-.882.863-1.306,1.31a1.188,1.188,0,0,1-1.4.4,1.077,1.077,0,0,1-.6-1.243,2.149,2.149,0,0,1,.541-.744q4.272-4.267,8.541-8.538a3.293,3.293,0,0,1,.368-.336.993.993,0,0,1,1.419.078.97.97,0,0,1,.05,1.416c-.413.488-.877.934-1.318,1.4" transform="translate(-2.908 -10.132)"/>
      </g>
    </g>
  </g>
</svg>
