<svg xmlns="http://www.w3.org/2000/svg" xmlns:xlink="http://www.w3.org/1999/xlink" width="675" height="175.347" viewBox="0 0 675 175.347">
  <defs>
    <clipPath id="clip-path">
      <path id="Trazado_159922" data-name="Trazado 159922" d="M0,0H675V175.347H0Z" fill="#ffe891"/>
    </clipPath>
    <clipPath id="clip-path-2">
      <rect id="Rectángulo_42428" data-name="Rectángulo 42428" width="668.779" height="390.208" fill="none"/>
    </clipPath>
  </defs>
  <g id="Grupo_169367" data-name="Grupo 169367" transform="translate(-561 -4550)">
    <path id="Trazado_156666" data-name="Trazado 156666" d="M0,0H675V175.347H0Z" transform="translate(561 4550)" fill="#ffd947"/>
    <g id="Grupo_216" data-name="Grupo 216" transform="translate(561 4550)" clip-path="url(#clip-path)">
      <g id="Grupo_169238" data-name="Grupo 169238" transform="translate(15.458 -127.467)">
        <g id="Grupo_169233" data-name="Grupo 169233">
          <g id="Grupo_169232" data-name="Grupo 169232" clip-path="url(#clip-path-2)">
            <path id="Trazado_160060" data-name="Trazado 160060" d="M358.583,127.591A180.275,180.275,0,0,0,186.636,361.613H530.529A180.275,180.275,0,0,0,358.583,127.591" transform="translate(-24.232 -17.327)" fill="#ffe891"/>
          </g>
        </g>
        <g id="Grupo_169235" data-name="Grupo 169235">
          <g id="Grupo_169369" data-name="Grupo 169369">
            <path id="Trazado_160061" data-name="Trazado 160061" d="M585.531,180.746a7.551,7.551,0,0,0-4.193,1.267,8.334,8.334,0,0,0-10.268-5.39c0-.113.009-.226.009-.339a10.988,10.988,0,0,0-21.386-3.552,10.389,10.389,0,0,0-14.606,9.5,10.454,10.454,0,0,0,.175,1.888H591.84A7.583,7.583,0,0,0,585.531,180.746Z" transform="translate(-72.665 -22.447)" fill="none" stroke="#fff" stroke-miterlimit="10" stroke-width="0.75"/>
            <path id="Trazado_160062" data-name="Trazado 160062" d="M379.121,45.938a19.047,19.047,0,0,1,23.026-8c-.029-.366-.048-.736-.048-1.11a13.778,13.778,0,0,1,20.722-11.9A29.059,29.059,0,0,1,477.8,17.015a8.679,8.679,0,0,1,10.985,11.1,15.464,15.464,0,0,1,19.339,17.821Z" transform="translate(-51.485 -0.051)" fill="none" stroke="#fff" stroke-miterlimit="10" stroke-width="0.75"/>
            <path id="Trazado_160063" data-name="Trazado 160063" d="M363.1,128.435a15.79,15.79,0,0,1,19.088-6.63c-.024-.3-.041-.61-.041-.92a11.421,11.421,0,0,1,17.178-9.866,24.088,24.088,0,0,1,45.575-6.56,7.2,7.2,0,0,1,9.106,9.2,12.818,12.818,0,0,1,16.031,14.773Z" transform="translate(-49.309 -12.312)" fill="#fff"/>
            <line id="Línea_552" data-name="Línea 552" x1="37.383" transform="translate(383.341 116.122)" fill="none" stroke="#000" stroke-miterlimit="10" stroke-width="0.75"/>
            <path id="Trazado_160064" data-name="Trazado 160064" d="M405.013,111.018a24.088,24.088,0,0,1,45.575-6.559,7.195,7.195,0,0,1,9.106,9.2" transform="translate(-55.001 -12.312)" fill="none" stroke="#000" stroke-miterlimit="10" stroke-width="0.75"/>
            <line id="Línea_553" data-name="Línea 553" x1="23.551" transform="translate(313.787 116.122)" fill="none" stroke="#000" stroke-miterlimit="10" stroke-width="0.75"/>
            <path id="Trazado_160065" data-name="Trazado 160065" d="M340.3,56.927a10.481,10.481,0,0,0-9.062-5.591,17.722,17.722,0,1,0-34.939-4.2c0,.049,0,.1,0,.148a13.843,13.843,0,0,0-16.863,9.646Z" transform="translate(-37.949 -3.994)" fill="#fff"/>
            <line id="Línea_554" data-name="Línea 554" x2="22.32" transform="translate(241.495 52.933)" fill="none" stroke="#000" stroke-miterlimit="10" stroke-width="0.75"/>
            <path id="Trazado_160066" data-name="Trazado 160066" d="M334.4,47.133a17.723,17.723,0,1,0-35.445,0c0,.049,0,.1,0,.148" transform="translate(-40.598 -3.994)" fill="none" stroke="#000" stroke-miterlimit="10" stroke-width="0.75"/>
            <path id="Trazado_160067" data-name="Trazado 160067" d="M89.079,354.588,66.646,374.019,47.366,315.411,69.8,295.979Z" transform="translate(-6.432 -40.194)" fill="#c5f4eb"/>
            <path id="Trazado_160068" data-name="Trazado 160068" d="M92.6,354.588l29.594,2.339-19.28-58.608-29.594-2.34Z" transform="translate(-9.958 -40.194)" fill="#aae0d6"/>
            <path id="Trazado_160069" data-name="Trazado 160069" d="M149.281,334.811l-22.432,19.431-19.279-58.608L130,276.2Z" transform="translate(-14.608 -37.509)" fill="#c5f4eb"/>
            <path id="Trazado_160070" data-name="Trazado 160070" d="M152.805,334.811l29.594,2.339-19.283-58.607L133.526,276.2Z" transform="translate(-18.133 -37.509)" fill="#aae0d6"/>
            <path id="Trazado_160071" data-name="Trazado 160071" d="M70.391,313.767c-.124,1.152-3.025,1.683-5.3,3.17s-1.293,4.384-2.308,5.086-6.419,1.558-7.586,2.069-2.215,1.472-2.26,2.484a3.173,3.173,0,0,0,3.714,2.781c2.267-.546,3.337-2.237,4.812-2.054s5.234,1.488,6.449,3.949,4.933,2.543,6.836,3.238,1.9,1.172,4.415,1.2c1.436.011,2.8.065,3.833.01l-.457-1.391a.484.484,0,0,0-.136.032c-.523.235-2.9.694-3.584-.243a1.848,1.848,0,0,1,1.079-2.959,3.706,3.706,0,0,0,1.346-.766l-2.13-6.477c-1.616.089-4.749-.626-4.762-1.668-.022-1.168,1.214-2,1.765-2.487s.524-1.353.781-2.209a.811.811,0,0,1,.069-.161L74.512,309.9a3.534,3.534,0,0,0-.482.239c-1.809,1.12-3.517,2.472-3.638,3.63" transform="translate(-7.189 -42.085)" fill="#fff"/>
            <path id="Trazado_160072" data-name="Trazado 160072" d="M111.705,316.36a3.075,3.075,0,0,1-.869,1.48c-.266.227.671.707.643,1.237,0,0-.02.318-.733.471s-1.456.372-1.152.709a5.768,5.768,0,0,1,.634,1.5s1.172-.18,1.251.1c0,0,1.095-.863,1.031-1.371s.476-.47.485-1.044a1.3,1.3,0,0,1,.62-.924l-1.058-3.215c-.317.317-.806.681-.853,1.053" transform="translate(-14.874 -42.819)" fill="#c5f4eb"/>
            <path id="Trazado_160073" data-name="Trazado 160073" d="M111.637,312.978c.065.338.492.627.871.886l-.531-1.616a1.351,1.351,0,0,0-.34.73" transform="translate(-15.16 -42.404)" fill="#c5f4eb"/>
            <path id="Trazado_160074" data-name="Trazado 160074" d="M107.466,316.284c-.48.169-.413,1.288.118,1.547s1.047-1.944-.118-1.547" transform="translate(-14.55 -42.945)" fill="#c5f4eb"/>
            <path id="Trazado_160075" data-name="Trazado 160075" d="M110.469,316.691c1-.453.4-1-.25-1.169s-1.741-1.378-2.029-1.067c-.355.369-.659.4-.073.681s1.08.314,1.083,1.165.259.84,1.269.391" transform="translate(-14.638 -42.696)" fill="#c5f4eb"/>
            <path id="Trazado_160076" data-name="Trazado 160076" d="M111.579,323.136a2.739,2.739,0,0,0-.734,1.666c.016.875-.862,1.619-.736,2.634a3.307,3.307,0,0,0,2.071,2.951,3.778,3.778,0,0,0,3.558-.03c.511-.254.954-.47,1.352-.624l-2.591-7.877a2.9,2.9,0,0,0-1.063.116c-.523.269-1.856,1.164-1.856,1.164" transform="translate(-14.951 -43.708)" fill="#c5f4eb"/>
            <path id="Trazado_160077" data-name="Trazado 160077" d="M104.517,338.583c-1.078-.4-3.165.079-4.158-.285a12.025,12.025,0,0,0-4.16-.921c-1.2.118-2,.04-3.258.186s-2.067,1.645-2.067,1.645c-.586.8-.006,2.7.709,3.871s3.458,1.871,4.277,2.47,1.733,3.818,2.078,4.933-.533,3.886,1.533,5.117,4.666-.307,2.961-.543-1.988-2.491-1.842-3.607,1.767-2.485,2.584-3.646-.214-2.573.714-3.476a3.87,3.87,0,0,0,1.239-3.542c-.33-1.244.467-1.807-.608-2.2" transform="translate(-12.308 -45.814)" fill="#c5f4eb"/>
            <path id="Trazado_160078" data-name="Trazado 160078" d="M87.925,327.938c.4-1.79,2.606-3.6,1.828-4.75A4.272,4.272,0,0,0,86.7,321.6c-.887-.118-3.434-.531-3.5-.044s1.862,3.48.547,3.815a2.784,2.784,0,0,1-.521.069l2.13,6.477a8.329,8.329,0,0,0,2.57-3.982" transform="translate(-11.298 -43.637)" fill="#c5f4eb"/>
            <path id="Trazado_160079" data-name="Trazado 160079" d="M89.3,339.161c.321-.253-1.436-1.095-2.108-1.022l.458,1.39a3.26,3.26,0,0,0,1.65-.368" transform="translate(-11.841 -45.919)" fill="#c5f4eb"/>
            <path id="Trazado_160080" data-name="Trazado 160080" d="M82.562,316.337c.487.48.316,1.363,1.734,1.584a1.378,1.378,0,0,0,1.455-2.086c-.658-.717-2.534-1.19-3.726-1.369s-2.887-.483-2.475-1.327,2.4-.935,3.829-1.317a3.22,3.22,0,0,1,3.522.738c1.158,1.07,2.407,3.289,3.994,3.743s1.55-1.238,2.026-2.221,2.379-1.878,3.2-2.863-.4-3.317-.285-4.016.81-2.81.509-3.241-4.929.756-6.27,1.034-4.714,2.27-6.06,3.025c-1.23.69-4.231.271-6.117,1.059l2.457,7.468a1.655,1.655,0,0,1,2.2-.211" transform="translate(-10.579 -41.266)" fill="#c5f4eb"/>
            <path id="Trazado_160081" data-name="Trazado 160081" d="M112.645,314.118l.338,1.028c.159-.159.276-.306.27-.436-.005-.181-.29-.375-.608-.592" transform="translate(-15.297 -42.658)" fill="#fff"/>
            <path id="Trazado_160082" data-name="Trazado 160082" d="M129.723,298.056c-1.561,2.173-2.906,1.841-3.761,2.752s-3.914,2.4-4.624,3.045a3.574,3.574,0,0,1-2.689.654c-.587-.149-3.09,1.064-3.614,1.771-.4.548-2.235,2.368-3,3.46l.531,1.616c.318.217.6.41.608.591.005.13-.111.277-.27.436l1.057,3.214a4.3,4.3,0,0,1,.636-.386c.511-.267,1.123-1.138,2.016-1.006s2.134,1.785,3.02,1.433.321-1.189.712-1.247.83,1.065,1.875.71,1.373.277,1.638,1.248,1.577,1.224,2.876,2.055,1.5,1.645,2.358,1.214,3.088-2.733,2.559-3.344-1.061-.162-1.289-.568-.331.555-.668.623-1.892-.989-1.7-1.139,1.981.465,3.058.187,2.645-.864,2.645-.864a13.9,13.9,0,0,1,1.859.907c.455.33,2.756,2.624,3.194,2.78s-.237-2.339.082-2.807,1.215-1.648,1.594-2.088a1.082,1.082,0,0,1,1.51-.277l-6.335-19.26c-1.056.474-4.459,2.323-5.877,4.289" transform="translate(-15.214 -39.894)" fill="#fff"/>
            <path id="Trazado_160083" data-name="Trazado 160083" d="M119.061,329.25c.678.111.951.852,1.579,1.338s2.349,1.445,2.313,2.209.659,1.757,1.837,2.894,1.916,2.254,2.531,2.221a4.152,4.152,0,0,0,2.47-2,8.3,8.3,0,0,0,.506-3.037c-.008-.974,1.468-2.139.492-3.3s-1.105-1.574-.387-2.8a1.834,1.834,0,0,0-.665-2.485c-.487-.395-2.467-1-3.16-1.51s-2.462-2.9-3.105-2.816a21.849,21.849,0,0,1-2.6.855c-.919.045-2.046,1.178-2.89,1.03a20.681,20.681,0,0,0-2.791-.247l2.591,7.877a2.5,2.5,0,0,1,1.28-.226" transform="translate(-15.643 -43.451)" fill="#fff"/>
            <path id="Trazado_160084" data-name="Trazado 160084" d="M145.81,312.535c.519.7,1.89,1.111,2.347,1.794s2.861-.5,3.012-1.475,0-2.158.826-3.016,1.973-2.66,1.587-4.025,1.013-2.956,1.717-4.21,1.025-2.558,2.2-3.577,3.227-2.3,3.491-3.709,3.109-2.351,3.586-3.527.522-1.677-.329-1.961-5.7.945-7.634,1.168a15.953,15.953,0,0,0-3.713.7c-.665.275-2.591,1.6-3.686,1.49a25.279,25.279,0,0,0-5.552,1.025c-.681.234-3.523-.422-4.113-.222-.054.018-.137.053-.245.1l6.336,19.26a1.116,1.116,0,0,1,.17.186" transform="translate(-18.918 -39.218)" fill="#c5f4eb"/>
            <path id="Trazado_160085" data-name="Trazado 160085" d="M151.183,277.324l-29.193-2.309a.736.736,0,0,0-.627-.025.722.722,0,0,0-.571.422q-10.758,9.319-21.519,18.639a2.626,2.626,0,0,1-.467.335l-1.123-.089-7.283-.576-18.058-1.428c-1.388-.11-2.7-.55-3.794.4l-7.266,6.294L46.63,311.678a1.078,1.078,0,0,0-.368,1.2l18.83,57.243q.223.683.449,1.365a1.017,1.017,0,0,0,1.526.552l21.816-18.9a2.575,2.575,0,0,1,.467-.334q.56.043,1.122.089l7.284.576,18.057,1.427c.739.058,2.647.6,3.3.029l3.314-2.872q7.038-6.093,14.072-12.188l4.607-3.989.193-.169,1.593.125,17.459,1.38,10.264.811c.672.053,1.065-.78.872-1.369q-9.416-28.622-18.834-57.242l-.449-1.365a1.08,1.08,0,0,0-1.022-.724m-9.5,56.332a2.264,2.264,0,0,0-2.047.74l-5.087,4.4-13.924,12.061-1.963,1.7-.506.438-4.121-.326-18.564-1.467-6.077-.48c-.951-.075-1.338.372-2.036.977q-6.4,5.542-12.793,11.081l-7.614,6.595Q57.78,341.487,48.6,313.6q-.111-.341-.225-.681L69.6,294.531a2.627,2.627,0,0,1,.467-.335l1.123.089,7.283.576,18.058,1.428c1.388.11,2.7.55,3.794-.4l7.266-6.293,14.429-12.5,28.506,2.255q9.289,28.236,18.58,56.469l-27.422-2.167" transform="translate(-6.275 -37.336)" fill="#fff"/>
            <line id="Línea_555" data-name="Línea 555" x2="18.084" y2="54.975" transform="translate(93.295 259.142)" fill="none" stroke="#000" stroke-miterlimit="10" stroke-width="0.75"/>
            <path id="Trazado_160086" data-name="Trazado 160086" d="M61.283,302.765,46.63,315.457a1.079,1.079,0,0,0-.368,1.2L65.092,373.9l.449,1.365" transform="translate(-6.275 -41.116)" fill="none" stroke="#000" stroke-miterlimit="10" stroke-width="0.75"/>
            <line id="Línea_556" data-name="Línea 556" x1="6.523" y1="19.83" transform="translate(127.852 276.57)" fill="none" stroke="#000" stroke-miterlimit="10" stroke-width="0.75"/>
            <line id="Línea_557" data-name="Línea 557" x2="16.003" y2="48.639" transform="translate(146.618 242.801)" fill="none" stroke="#000" stroke-miterlimit="10" stroke-width="0.75"/>
            <line id="Línea_558" data-name="Línea 558" x2="11.19" y2="34.24" transform="translate(63.794 256.86)" fill="none" stroke="#000" stroke-miterlimit="10" stroke-width="0.75"/>
            <path id="Trazado_160087" data-name="Trazado 160087" d="M159.45,277.324l-29.193-2.309a.734.734,0,0,0-.626-.025.72.72,0,0,0-.572.422l-21.518,18.639a2.625,2.625,0,0,1-.467.335" transform="translate(-14.541 -37.336)" fill="none" stroke="#000" stroke-miterlimit="10" stroke-width="0.75"/>
            <path id="Trazado_160088" data-name="Trazado 160088" d="M87.7,354.731q-6.4,5.542-12.793,11.081L67.3,372.407q-9.174-27.892-18.35-55.784c-.074-.227-.15-.455-.224-.681l21.221-18.383a2.625,2.625,0,0,1,.467-.335l1.123.089,7.283.576,18.058,1.428" transform="translate(-6.617 -40.363)" fill="none" stroke="#000" stroke-miterlimit="10" stroke-width="0.75"/>
            <path id="Trazado_160089" data-name="Trazado 160089" d="M.324,104.428a46.993,46.993,0,0,0,43.008,22.724,14.782,14.782,0,0,0,6.945-1.868c2.045-1.3,3.55-3.7,3.157-6.091-1.187-1.9-4.318-1.548-5.751.169s-1.566,4.161-1.365,6.389c1.24,13.819,12.948,25.265,26.341,28.892s27.9.48,40.279-5.783" transform="translate(-0.044 -14.181)" fill="none" stroke="#000" stroke-miterlimit="10" stroke-width="0.75" stroke-dasharray="3.571 3.571"/>
            <path id="Trazado_160090" data-name="Trazado 160090" d="M757.61,258.758c-.892,9.241-2.259,18.514-5.428,27.24s-8.253,16.937-15.566,22.657a10.992,10.992,0,0,1-5.7,2.691c-2.127.162-4.492-1.071-4.939-3.157a2.191,2.191,0,0,1,.115-1.416c.847-1.725,3.558-.608,4.656.97,3.885,5.583,1.75,13.721-3.051,18.539s-11.556,7.056-18.112,8.869c-11.528,3.188-23.472,5.635-33.839,11.6s-19.125,16.408-19.234,28.367c-.066,7.293,3.021,14.2,6.047,20.836" transform="translate(-89.154 -35.14)" fill="none" stroke="#000" stroke-miterlimit="10" stroke-width="0.75" stroke-dasharray="2.645 2.645"/>
            <path id="Trazado_160091" data-name="Trazado 160091" d="M683.678,393.805a14.629,14.629,0,0,0-17.684-6.143c.023-.282.037-.565.037-.852a10.582,10.582,0,0,0-15.915-9.142,22.317,22.317,0,0,0-42.224-6.077,6.665,6.665,0,0,0-8.436,8.527A11.877,11.877,0,0,0,584.6,393.805Z" transform="translate(-79.361 -48.727)" fill="#22ca94"/>
            <path id="Trazado_160092" data-name="Trazado 160092" d="M652.424,377.669a22.317,22.317,0,0,0-42.224-6.077,6.666,6.666,0,0,0-8.437,8.526" transform="translate(-81.669 -48.727)" fill="none" stroke="#000" stroke-miterlimit="10" stroke-width="0.75"/>
            <path id="Trazado_160093" data-name="Trazado 160093" d="M313.425,140.914l-.978,8.255,11.595,7.714,4.675-2.537-.625,5.233,14.259,9.486,4.8-3.265-2.173,5.017,11.79,7.844a53.055,53.055,0,0,0-68.19-45.369l16.808,11.183Z" transform="translate(-39.19 -17.773)" fill="#22ca94"/>
            <path id="Trazado_160094" data-name="Trazado 160094" d="M386.1,335.756c25.422-88.507-22.486-146.874-22.486-146.874s67.2,40.168,63,146.749" transform="translate(-49.379 -25.65)" fill="none" stroke="#000" stroke-miterlimit="10" stroke-width="0.75"/>
            <line id="Línea_559" data-name="Línea 559" y1="4.747" x2="8.672" transform="translate(329.567 184.907)" fill="none" stroke="#000" stroke-miterlimit="10" stroke-width="0.75"/>
            <line id="Línea_560" data-name="Línea 560" y1="6.71" x2="15.962" transform="translate(338.331 207.633)" fill="none" stroke="#000" stroke-miterlimit="10" stroke-width="0.75"/>
            <line id="Línea_561" data-name="Línea 561" y1="4.137" x2="24.152" transform="translate(343.22 236.539)" fill="none" stroke="#000" stroke-miterlimit="10" stroke-width="0.75"/>
            <line id="Línea_562" data-name="Línea 562" y1="0.096" x2="31.033" transform="translate(343.995 266.12)" fill="none" stroke="#000" stroke-miterlimit="10" stroke-width="0.75"/>
            <line id="Línea_563" data-name="Línea 563" y1="0.111" x2="35.911" transform="translate(341.26 290.564)" fill="none" stroke="#000" stroke-miterlimit="10" stroke-width="0.75"/>
            <path id="Trazado_160095" data-name="Trazado 160095" d="M283.34,193.612l7.1,5.385,36.121-7.934,3.8-5.062s3.52,1.281,6.593,2.779l11.631-2.555c-13.819-11.311-33.162-16.37-52.778-12.061s-35.059,17.009-42.865,33.069l24.015-5.275Z" transform="translate(-34.35 -23.444)" fill="#22ca94"/>
            <path id="Trazado_160096" data-name="Trazado 160096" d="M390.911,182.845l4.707,4.814,27.874-1.907,3.4-3.359s2.488,1.349,4.617,2.81l8.976-.614a47.922,47.922,0,0,0-73.806,5.05l18.532-1.268Z" transform="translate(-49.796 -23.03)" fill="#22ca94"/>
            <path id="Trazado_160097" data-name="Trazado 160097" d="M313.55,242.341l6.618,2.807,9.272-13.44-4.706-5.579,7.71,1.225,22.995-33.333a56.829,56.829,0,0,0-49.817,72.212l11.152-16.164Z" transform="translate(-41.189 -26.348)" fill="#22ca94"/>
            <path id="Trazado_160098" data-name="Trazado 160098" d="M400.838,128.184l4.466,5.633L394.814,146.33l-6.629-3.053,3.23,7.107L365.4,181.414a56.83,56.83,0,0,1,56.364-67.228l-12.616,15.049Z" transform="translate(-49.474 -15.504)" fill="#22ca94"/>
            <path id="Trazado_160099" data-name="Trazado 160099" d="M369.19,202.719a11.933,11.933,0,1,1-11.97-11.9,11.933,11.933,0,0,1,11.97,11.9" transform="translate(-46.895 -25.914)" fill="#fa6403"/>
            <path id="Trazado_160100" data-name="Trazado 160100" d="M349.02,197.809s2.205.8,3.688-2.516" transform="translate(-47.397 -26.521)" fill="none" stroke="#000" stroke-miterlimit="10" stroke-width="0.75"/>
            <path id="Trazado_160101" data-name="Trazado 160101" d="M381.292,189.843a11.933,11.933,0,1,1-4.238-16.334,11.934,11.934,0,0,1,4.238,16.334" transform="translate(-48.762 -23.339)" fill="#fa6403"/>
            <path id="Trazado_160102" data-name="Trazado 160102" d="M367.456,174.943s1.487,1.816,4.455-.285" transform="translate(-49.901 -23.719)" fill="none" stroke="#000" stroke-miterlimit="10" stroke-width="0.75"/>
            <path id="Trazado_160103" data-name="Trazado 160103" d="M377.459,195.664a11.936,11.936,0,0,1-18.385-10.332" transform="translate(-48.762 -25.168)" fill="none" stroke="#000" stroke-miterlimit="10" stroke-width="0.75"/>
            <path id="Trazado_160104" data-name="Trazado 160104" d="M410.211,351.138h-4.2v-7.819a1.756,1.756,0,0,0-1.754-1.755H363.8a1.756,1.756,0,0,0-1.755,1.755v7.819h-4.2v-7.819a5.961,5.961,0,0,1,5.954-5.954h40.458a5.961,5.961,0,0,1,5.953,5.954Z" transform="translate(-48.596 -45.814)"/>
            <path id="Trazado_160105" data-name="Trazado 160105" d="M400.6,335.217H370.157a2.391,2.391,0,0,0-2.391,2.391v2.682a2.391,2.391,0,0,0,2.391,2.391H400.6a2.391,2.391,0,0,0,2.391-2.391v-2.682a2.391,2.391,0,0,0-2.391-2.391" transform="translate(-49.943 -45.523)" fill="#753335"/>
            <path id="Trazado_160106" data-name="Trazado 160106" d="M421.514,348.623H339.156a8.509,8.509,0,0,0-8.509,8.509v71.911a8.509,8.509,0,0,0,8.509,8.509h82.358a8.508,8.508,0,0,0,8.508-8.509V357.132a8.509,8.509,0,0,0-8.508-8.509" transform="translate(-44.902 -47.343)" fill="#753335"/>
            <path id="Trazado_160107" data-name="Trazado 160107" d="M343.711,348.623s1.632,13.985-13.063,13.985" transform="translate(-44.902 -47.343)" fill="none" stroke="#000" stroke-miterlimit="10" stroke-width="0.75"/>
            <path id="Trazado_160108" data-name="Trazado 160108" d="M430.514,348.623s-1.633,13.985,13.063,13.985" transform="translate(-58.457 -47.343)" fill="none" stroke="#000" stroke-miterlimit="10" stroke-width="0.75"/>
            <rect id="Rectángulo_42429" data-name="Rectángulo 42429" width="12.48" height="17.786" transform="matrix(0.558, -0.83, 0.83, 0.558, 311.465, 325.026)" fill="#fff"/>
            <path id="Trazado_160109" data-name="Trazado 160109" d="M402.231,363.33a6.055,6.055,0,1,1-6.055-6.055,6.054,6.054,0,0,1,6.055,6.055" transform="translate(-52.979 -48.518)" fill="#fff"/>
            <rect id="Rectángulo_42430" data-name="Rectángulo 42430" width="10.943" height="10.943" transform="translate(344.855 331.744) rotate(-25.031)" fill="#fff"/>
            <rect id="Rectángulo_42431" data-name="Rectángulo 42431" width="7.647" height="10.897" transform="translate(315.671 324.94) rotate(-56.106)" fill="#ccedff"/>
            <path id="Trazado_160110" data-name="Trazado 160110" d="M400.649,363.624a4.178,4.178,0,1,1-4.178-4.178,4.179,4.179,0,0,1,4.178,4.178" transform="translate(-53.274 -48.813)" fill="#fa9394"/>
            <rect id="Rectángulo_42432" data-name="Rectángulo 42432" width="7.435" height="7.435" transform="matrix(0.906, -0.423, 0.423, 0.906, 347.187, 332.592)" fill="#fdd851"/>
            <rect id="Rectángulo_42433" data-name="Rectángulo 42433" width="8.048" height="44.465" transform="translate(304.64 301.279)" fill="#d98662"/>
            <path id="Trazado_160111" data-name="Trazado 160111" d="M350.326,389.528v-4.9a2.462,2.462,0,0,1,2.459-2.46h6.909a2.463,2.463,0,0,1,2.46,2.46v4.9a2.463,2.463,0,0,1-2.46,2.46h-6.909a2.462,2.462,0,0,1-2.459-2.46m10.427-4.9a1.061,1.061,0,0,0-1.06-1.06h-6.909a1.061,1.061,0,0,0-1.059,1.06v4.9a1.061,1.061,0,0,0,1.059,1.06h6.909a1.061,1.061,0,0,0,1.06-1.06Z" transform="translate(-47.575 -51.9)"/>
            <rect id="Rectángulo_42434" data-name="Rectángulo 42434" width="8.048" height="44.465" transform="translate(359.224 301.279)" fill="#d98662"/>
            <path id="Trazado_160112" data-name="Trazado 160112" d="M413.487,389.528v-4.9a2.462,2.462,0,0,1,2.459-2.46h6.909a2.463,2.463,0,0,1,2.46,2.46v4.9a2.463,2.463,0,0,1-2.46,2.46h-6.909a2.462,2.462,0,0,1-2.459-2.46m10.427-4.9a1.061,1.061,0,0,0-1.059-1.06h-6.909a1.061,1.061,0,0,0-1.06,1.06v4.9a1.061,1.061,0,0,0,1.06,1.06h6.909a1.061,1.061,0,0,0,1.059-1.06Z" transform="translate(-56.152 -51.9)"/>
            <path id="Trazado_160113" data-name="Trazado 160113" d="M453.632,248.735s-23.292,11.406-40.224,23.055c0,0-25.738-32.646-30.073-37.658,0,0-8.128,2.167-9.618,4.063,0,0,2.438,34.544,18.965,63.261,16.922,29.405,50.527-6.5,50.527-6.5Z" transform="translate(-50.751 -31.795)" fill="#fda69d"/>
            <path id="Trazado_160114" data-name="Trazado 160114" d="M360.873,222.553c.271-.333,1.314-.959,1.75-.487-.01-.011-.684-.749-.021-2.47s3.185-2.014,3.185-2.014-12.544-10.267-8.6-12.306,12.452,7.91,12.452,7.91c-.335-4.579-.656-14.773,2.8-15.413s3.849,15.774,3.849,15.774a3.8,3.8,0,0,1,1.019-.238,3.031,3.031,0,0,1,1.061.1c1.552.421,2.561,1.961,3.185,3.348a27.254,27.254,0,0,1,2.064,5.77,9.746,9.746,0,0,1,.01,4.019,4.807,4.807,0,0,1-.773,1.768c-.086.124-1.015,1.213-.945,1.319.57.857,1.09,1.76,1.633,2.638l-2.573,1.41q-1.843,1.011-3.69,2.019c-1.731.946,1.719,5.673-.122,6.432-.277.115-.778,18.331-1.04,18.185-.182-.1-5.323-22.263-5.414-22.448-.625-1.265-1.247-2.529-1.876-3.788-1.985-1.136-3.925-5.968-4.149-6.54a6.7,6.7,0,0,0-1.161-.394,4.86,4.86,0,0,1-1.683-1.193c-.954-.831-1.9-2.244-.965-3.4" transform="translate(-48.403 -26.855)" fill="#fda69d"/>
            <path id="Trazado_160115" data-name="Trazado 160115" d="M378.617,216.212s-3.888,6.156-2.389,8.931,6.186-2.4,7.5-6.676" transform="translate(-51.045 -29.362)" fill="none" stroke="#000" stroke-miterlimit="10" stroke-width="0.75"/>
            <path id="Trazado_160116" data-name="Trazado 160116" d="M367.259,220.7a74.845,74.845,0,0,1,7.16,3.776" transform="translate(-49.874 -29.971)" fill="none" stroke="#000" stroke-miterlimit="10" stroke-width="0.75"/>
            <path id="Trazado_160117" data-name="Trazado 160117" d="M363.6,225.887s9.556,6.588,12.061,1.346" transform="translate(-49.377 -30.676)" fill="none" stroke="#000" stroke-miterlimit="10" stroke-width="0.75"/>
            <path id="Trazado_160118" data-name="Trazado 160118" d="M362.257,229.9a11.289,11.289,0,0,0,3.882,2.135c1.289.421,3.046,1.049,4.2-.019a1.617,1.617,0,0,0,.529-.767,1.289,1.289,0,0,0,.009-.474,2.143,2.143,0,0,0-.67-1.266" transform="translate(-49.195 -31.168)" fill="none" stroke="#000" stroke-miterlimit="10" stroke-width="0.75"/>
            <path id="Trazado_160119" data-name="Trazado 160119" d="M537.425,369.639l4.064,26.28-99.43-2.439,2.167-30.344Z" transform="translate(-60.032 -49.314)" fill="#ff712d"/>
            <line id="Línea_564" data-name="Línea 564" x1="95.667" y1="3.248" transform="translate(383.255 326.966)" fill="none" stroke="#000" stroke-miterlimit="10" stroke-width="0.75"/>
            <line id="Línea_565" data-name="Línea 565" x1="0.725" y2="10.254" transform="translate(421.865 335.447)" fill="none" stroke="#000" stroke-miterlimit="10" stroke-width="0.75"/>
            <path id="Trazado_160120" data-name="Trazado 160120" d="M615.368,399.546c-4.3-23.548-21.258-61.828-27.766-80-6.5-18.144-16.183-35.539-29.067-49.933-6.291-7.029-12.3-12.9-21.566-15.384-1.111-.3-16.746-2.429-16.748-2.436l7.117,37.677s55.952,77.1,66.047,116.307Z" transform="translate(-70.647 -34.194)" fill="#fda69d"/>
            <path id="Trazado_160121" data-name="Trazado 160121" d="M504.88,247.684s11.757,2.235,17.86,5.238c0,0-2.86,34.092,13.665,63.894l8.037,42.9-104.577-2.439s9.482-85.612,23.3-107.828c0,0,14.9-3.793,23.57-3.251s18.145,1.49,18.145,1.49" transform="translate(-59.734 -33.426)" fill="#0a4dc8"/>
            <path id="Trazado_160122" data-name="Trazado 160122" d="M446.668,172.023c-3.312,8.238,18.013,24.567,47.631,36.473s56.31,14.881,59.622,6.643-18.013-24.567-47.631-36.473-56.31-14.881-59.622-6.643" transform="translate(-60.612 -22.728)"/>
            <path id="Trazado_160123" data-name="Trazado 160123" d="M517.526,195.45v-4.115s-21.874.531-28.665-14.1a13.793,13.793,0,0,1-11.52,6.093s2.071-28.309,28.054-25.872,27.609,24.213,25.712,41.1,11.108,23.114,5.689,38.828l-32.685-8.092Z" transform="translate(-64.824 -21.363)" fill="#8e6339"/>
            <path id="Trazado_160124" data-name="Trazado 160124" d="M491.933,185.966l1.749-4.9-16.538-2.832C472.125,199.113,465,208.277,464.479,229.2l28.322,2.523Z" transform="translate(-63.077 -24.204)" fill="#8e6339"/>
            <path id="Trazado_160125" data-name="Trazado 160125" d="M478.018,182.59s-8.626,21.315-2.645,35.305,27.23,12.456,35.007,4.934l3.465-3.732L518,187.915,487.3,177.44Z" transform="translate(-64.269 -24.097)" fill="#fda69d"/>
            <path id="Trazado_160126" data-name="Trazado 160126" d="M519.929,202.1s7.6-2.839,9.721,2.9-7.113,13.653-11.359,9.4Z" transform="translate(-70.385 -27.35)" fill="#fda69d"/>
            <path id="Trazado_160127" data-name="Trazado 160127" d="M492.345,202.406a18.855,18.855,0,0,0-1.226,2.42c-.162.4-.549,1.142-.421,1.59.263.921,2.3,1.141,3.084,1.368" transform="translate(-66.634 -27.487)" fill="none" stroke="#000" stroke-miterlimit="10" stroke-width="0.75"/>
            <path id="Trazado_160128" data-name="Trazado 160128" d="M488.577,213.2a3.9,3.9,0,0,0,5.278.7" transform="translate(-66.349 -28.953)" fill="none" stroke="#000" stroke-miterlimit="10" stroke-width="0.75"/>
            <path id="Trazado_160129" data-name="Trazado 160129" d="M482.828,202.886a1.856,1.856,0,1,1-1.594-2.084,1.856,1.856,0,0,1,1.594,2.084" transform="translate(-65.067 -27.267)"/>
            <path id="Trazado_160130" data-name="Trazado 160130" d="M507.72,206.2a1.856,1.856,0,1,1-1.594-2.084,1.856,1.856,0,0,1,1.594,2.084" transform="translate(-68.447 -27.717)"/>
            <path id="Trazado_160131" data-name="Trazado 160131" d="M526.906,206.071A12.541,12.541,0,0,0,524,210.786" transform="translate(-71.16 -27.985)" fill="none" stroke="#000" stroke-miterlimit="10" stroke-width="0.75"/>
            <path id="Trazado_160132" data-name="Trazado 160132" d="M523.841,205.6a7.068,7.068,0,0,1,1.251,2.758" transform="translate(-71.138 -27.921)" fill="none" stroke="#000" stroke-miterlimit="10" stroke-width="0.75"/>
            <path id="Trazado_160133" data-name="Trazado 160133" d="M511.85,201a12.357,12.357,0,0,0-9.92-1.157l-.03-.058c3.087-1.785,7.6-1.407,9.95,1.215" transform="translate(-68.159 -26.981)"/>
            <path id="Trazado_160134" data-name="Trazado 160134" d="M485.165,197.442a10.673,10.673,0,0,0-5.657-1.18,18.842,18.842,0,0,1-2.057.226c2.377-1.392,5.957-1.1,7.714.953" transform="translate(-64.838 -26.567)"/>
            <path id="Trazado_160135" data-name="Trazado 160135" d="M515.174,217.092a6.437,6.437,0,1,1-5.531-7.231,6.437,6.437,0,0,1,5.531,7.231" transform="translate(-68.221 -28.492)" fill="#fd8072"/>
            <path id="Trazado_160136" data-name="Trazado 160136" d="M473.506,205.045a39.169,39.169,0,0,0,.637,12.85,6.434,6.434,0,0,0,.583-12.807,6.516,6.516,0,0,0-1.22-.043" transform="translate(-64.27 -27.844)" fill="#fd8072"/>
            <path id="Trazado_160137" data-name="Trazado 160137" d="M485.793,248.422l1.355-21.4,28.4-1.376-2.564,22.779s-12.89,8.32-17.809,13.378Z" transform="translate(-65.971 -30.643)" fill="#fda69d"/>
            <path id="Trazado_160138" data-name="Trazado 160138" d="M505.4,157.458c25.983,2.439,27.609,24.212,25.712,41.1l-8.76-1.976a7.047,7.047,0,0,0-4.945-1.115l-.215-.049.337-4.077s-21.874.53-28.665-14.1a13.793,13.793,0,0,1-11.52,6.094s2.071-28.309,28.054-25.872" transform="translate(-64.824 -21.363)" fill="#8e6339"/>
            <path id="Trazado_160139" data-name="Trazado 160139" d="M508.479,232.988c-2.29,3.357-8.224,9.038-22.137,8.919l.471-7.438a27.721,27.721,0,0,0,21.665-1.481" transform="translate(-66.046 -31.64)"/>
            <path id="Trazado_160140" data-name="Trazado 160140" d="M535.883,196.829s-29.859-19.026-62.622-22.639c0,0,6.94-17.659,26.025-20.357a34.459,34.459,0,0,1,30.3,11.439c6.261,6.969,11.485,17.562,6.3,31.557" transform="translate(-64.269 -20.847)"/>
            <path id="Trazado_160141" data-name="Trazado 160141" d="M514.967,202.991c-.986,6.5-5.846,11.159-10.857,10.4s-8.272-6.647-7.287-13.15Z" transform="translate(-67.445 -27.193)" fill="#ff7b24"/>
            <path id="Trazado_160142" data-name="Trazado 160142" d="M512.9,204.446c-.691,4.563-4.351,7.792-8.174,7.213s-6.361-4.748-5.67-9.311Z" transform="translate(-67.757 -27.479)"/>
            <path id="Trazado_160143" data-name="Trazado 160143" d="M488.132,199.187c-.922,6.081-5.467,10.436-10.153,9.726s-7.735-6.216-6.814-12.3Z" transform="translate(-63.962 -26.701)" fill="#ff7b24"/>
            <path id="Trazado_160144" data-name="Trazado 160144" d="M486.2,200.549c-.646,4.267-4.069,7.287-7.644,6.745s-5.949-4.44-5.3-8.708Z" transform="translate(-64.254 -26.968)"/>
            <path id="Trazado_160145" data-name="Trazado 160145" d="M489.248,199.639l8.086,1-.543,1.771-8.539-1.045Z" transform="translate(-66.305 -27.111)" fill="#ff7b24"/>
            <path id="Trazado_160146" data-name="Trazado 160146" d="M515.857,202.876l7.724-2.591.276,1.831-8.155,2.744Z" transform="translate(-70.033 -27.199)" fill="#ff7b24"/>
            <path id="Trazado_160147" data-name="Trazado 160147" d="M524.3,249.963a43.619,43.619,0,0,1,9.886,2.513s1.266,82.2,10.679,113.263l-10.283,2.529c-11.1-45.154-10.282-118.3-10.282-118.3" transform="translate(-71.199 -33.945)"/>
            <path id="Trazado_160148" data-name="Trazado 160148" d="M595.4,422.963,599.5,421.8l.41,1.161s-17.881,5.772-31.326,6.584-20.15-2.98-24.484-13.275-9.009-34.679-9.009-34.679l40.373-3.248c9.07,16.236,16.771,32.3,19.943,44.618" transform="translate(-72.666 -51.38)"/>
            <path id="Trazado_160149" data-name="Trazado 160149" d="M547.567,382.1c.461,3.443,1.073,6.874,1.842,10.261.974,4.29,1.717,10.093,6.086,12.381,4.578,2.4,10.5,1.713,15.3.43,5.877-1.572,11.792-2.937,17.733-4.306" transform="translate(-74.36 -51.89)" fill="none" stroke="#fff" stroke-miterlimit="10" stroke-width="0.75"/>
            <path id="Trazado_160150" data-name="Trazado 160150" d="M587.623,400.292a1.411,1.411,0,1,0,.52-2.2A1.63,1.63,0,0,0,587.623,400.292Z" transform="translate(-79.774 -54.05)" fill="none" stroke="#fff" stroke-miterlimit="10" stroke-width="0.75"/>
            <path id="Trazado_160151" data-name="Trazado 160151" d="M495.552,267.481s-6.787,59.543-6.975,93.671" transform="translate(-66.349 -36.324)" fill="none" stroke="#000" stroke-miterlimit="10" stroke-width="0.75"/>
            <path id="Trazado_160152" data-name="Trazado 160152" d="M497.518,276.177a1.477,1.477,0,1,0,1.477-1.477,1.477,1.477,0,0,0-1.477,1.477" transform="translate(-67.564 -37.305)"/>
            <path id="Trazado_160153" data-name="Trazado 160153" d="M495.81,293.955a1.477,1.477,0,1,0,1.476-1.477,1.476,1.476,0,0,0-1.476,1.477" transform="translate(-67.332 -39.719)"/>
            <path id="Trazado_160154" data-name="Trazado 160154" d="M494.1,315.285a1.476,1.476,0,1,0,1.477-1.477,1.477,1.477,0,0,0-1.477,1.477" transform="translate(-67.1 -42.615)"/>
            <path id="Trazado_160155" data-name="Trazado 160155" d="M493.231,335.026a1.477,1.477,0,1,0,1.477-1.477,1.477,1.477,0,0,0-1.477,1.477" transform="translate(-66.981 -45.296)"/>
            <path id="Trazado_160156" data-name="Trazado 160156" d="M492.392,356.487a1.476,1.476,0,1,0,1.477-1.477,1.477,1.477,0,0,0-1.477,1.477" transform="translate(-66.867 -48.211)"/>
            <path id="Trazado_160157" data-name="Trazado 160157" d="M484.567,246.562a26.24,26.24,0,0,0-11.3,8.192s18.744,5.515,20.21,9.886" transform="translate(-64.27 -33.483)" fill="none" stroke="#000" stroke-miterlimit="10" stroke-width="0.75"/>
            <path id="Trazado_160158" data-name="Trazado 160158" d="M514.8,248.453s6.373,4.254,8,10.042c0,0-20.506,1.565-26.151,6.4" transform="translate(-67.446 -33.74)" fill="none" stroke="#000" stroke-miterlimit="10" stroke-width="0.75"/>
            <path id="Trazado_160159" data-name="Trazado 160159" d="M483.219,162.839a178.284,178.284,0,0,1,30.92,9.47,187.489,187.489,0,0,1,24.385,11.817,28.642,28.642,0,0,1-.275,7.7,181.278,181.278,0,0,0-27.634-13.772,175.737,175.737,0,0,0-32.433-9.777,36.962,36.962,0,0,1,5.037-5.436" transform="translate(-64.938 -22.114)" fill="#ff7b24"/>
            <path id="Trazado_160160" data-name="Trazado 160160" d="M279.79,384.013H187.414l3.659-68.291-36.28-16.768c19.207-54.877,62.539-52.739,62.539-52.739l21.855,2.436s42.176-.915,52.236,44.816l1.524,7.621-22.073,2.744Z" transform="translate(-21.021 -33.435)" fill="#0a4dc8"/>
            <path id="Trazado_160161" data-name="Trazado 160161" d="M229.529,161.337a1.968,1.968,0,0,0,.819-.7c2.94-4.572,8.949-4.938,13.844-4.818a32.466,32.466,0,0,1,13.617,3.093,12.172,12.172,0,0,1,5.044,4.562c1.127,1.911.77,4.659,2.689,6,1.8,1.26,4.782,1.7,6.848,2.474,2.256.845,7.077,2.3,5.743,5.632-2.439,6.1-28.557,10.366-28.557,10.366l-22.541,35.455c-1.08,1.7-7.069-1.389-8.212-2.273-12.121-9.374-9.848-35.877-4.873-48.379a18.608,18.608,0,0,1,6.165-8.423,14.726,14.726,0,0,1,4.848-2.256c1.257-.33,3.3-.119,4.566-.738" transform="translate(-28.51 -21.158)"/>
            <path id="Trazado_160162" data-name="Trazado 160162" d="M227.159,211.659v32.965s9.563,7.924,21.854.607V225.288Z" transform="translate(-30.848 -28.744)" fill="#e95628"/>
            <path id="Trazado_160163" data-name="Trazado 160163" d="M229.721,224.552s3.506,13.515,19.641,17.6V226.714l-9.031-4.556Z" transform="translate(-31.196 -30.169)"/>
            <path id="Trazado_160164" data-name="Trazado 160164" d="M273.606,182.179s6.456,25.057-2.3,39.774-32.223,9.848-39.781.3l-3.311-4.677v-35.4l6.666-9.99,20.535,1.492Z" transform="translate(-30.992 -23.383)" fill="#e95628"/>
            <path id="Trazado_160165" data-name="Trazado 160165" d="M229.862,198.348s-8.053-4.3-11.274,1.79,5.906,16.285,11.274,12.169Z" transform="translate(-29.593 -26.736)" fill="#e95628"/>
            <path id="Trazado_160166" data-name="Trazado 160166" d="M262.1,202.893a21.3,21.3,0,0,1,1.009,2.881c.121.468.442,1.356.233,1.836-.43.988-2.733.932-3.643,1.067" transform="translate(-35.267 -27.553)" fill="none" stroke="#000" stroke-miterlimit="10" stroke-width="0.75"/>
            <path id="Trazado_160167" data-name="Trazado 160167" d="M264.423,215.533a4.393,4.393,0,0,1-5.992,0" transform="translate(-35.095 -29.27)" fill="none" stroke="#000" stroke-miterlimit="10" stroke-width="0.75"/>
            <path id="Trazado_160168" data-name="Trazado 160168" d="M272.613,204.835a2.088,2.088,0,1,0,2.088-2.088,2.088,2.088,0,0,0-2.088,2.088" transform="translate(-37.021 -27.533)"/>
            <path id="Trazado_160169" data-name="Trazado 160169" d="M244.355,204.835a2.088,2.088,0,1,0,2.088-2.088,2.088,2.088,0,0,0-2.088,2.088" transform="translate(-33.184 -27.533)"/>
            <path id="Trazado_160170" data-name="Trazado 160170" d="M223.161,201.817a14.121,14.121,0,0,1,2.541,5.691" transform="translate(-30.306 -27.407)" fill="none" stroke="#000" stroke-miterlimit="10" stroke-width="0.75"/>
            <path id="Trazado_160171" data-name="Trazado 160171" d="M226.875,201.817a7.937,7.937,0,0,0-1.805,2.892" transform="translate(-30.565 -27.407)" fill="none" stroke="#000" stroke-miterlimit="10" stroke-width="0.75"/>
            <path id="Trazado_160172" data-name="Trazado 160172" d="M239.372,198.21a7.927,7.927,0,0,1,11.319.181l-.038.053c-.429-.257-.84-.548-1.285-.776a9.947,9.947,0,0,0-10,.542" transform="translate(-32.507 -26.606)"/>
            <path id="Trazado_160173" data-name="Trazado 160173" d="M270.07,198.238a5.886,5.886,0,0,1,8.785.141l-.037.053a7.781,7.781,0,0,0-8.748-.194" transform="translate(-36.676 -26.663)"/>
            <path id="Trazado_160174" data-name="Trazado 160174" d="M232.7,215.761a7.243,7.243,0,1,0,7.244-7.244,7.244,7.244,0,0,0-7.244,7.244" transform="translate(-31.601 -28.317)" fill="#ff8878"/>
            <path id="Trazado_160175" data-name="Trazado 160175" d="M281.992,208.65a44.053,44.053,0,0,1-2.619,14.238,7.239,7.239,0,1,1,2.619-14.238" transform="translate(-37.125 -28.317)" fill="#ff8878"/>
            <path id="Trazado_160176" data-name="Trazado 160176" d="M221.8,170.483c2.557-5.177,8.971-8.9,14.236-6.528-1.711-.772,5.148-5.758,5.727-6,.079-.034-3.739.01-6.31.025a3.519,3.519,0,0,0-.092-1.034c20.88-8.9,51.723,2.582,52.921,21.909.275,4.433-1.07,9.286-4.687,11.864-4.215,3-10.1,2.043-14.821-.069a36.478,36.478,0,0,1-10.4-7.016c-5.1-4.915-11.865-14-20.188-11.066-6.978,2.464-9.067,6.5-11.119,18.563-1.928-.283-2.809-.869-4.736-1.152a2.165,2.165,0,0,1-2.265-2.492c-.519-5.751-.823-11.83,1.734-17.007" transform="translate(-29.837 -20.898)"/>
            <path id="Trazado_160177" data-name="Trazado 160177" d="M154.723,308.03s-18.135,32.044-8.379,52.369,39.023,18.292,65.445-3.862c0,0,19.715-18.7,27.845-28.658l-15.04-7.114s-28.292,12.012-35.589,13.221l.529-9.867Z" transform="translate(-19.482 -41.831)" fill="#e95628"/>
            <line id="Línea_566" data-name="Línea 566" y1="30.599" x2="2.542" transform="translate(169.523 261.556)" fill="none" stroke="#000" stroke-miterlimit="10" stroke-width="0.75"/>
            <line id="Línea_567" data-name="Línea 567" x1="1.754" y1="12.5" transform="translate(248.098 257.898)" fill="none" stroke="#000" stroke-miterlimit="10" stroke-width="0.75"/>
            <path id="Trazado_160178" data-name="Trazado 160178" d="M310.421,309.824s3.916,21.831,4.313,25.865c3.43,34.824,2.17,42.185,1.4,53.305H297.624l-8.51-76.522Z" transform="translate(-39.262 -42.075)" fill="#e95628"/>
            <path id="Trazado_160179" data-name="Trazado 160179" d="M240.4,289.275l16.883-6.049a1.832,1.832,0,0,1,2.343,1.107l11.947,33.343a1.831,1.831,0,0,1-1.106,2.342l-16.884,6.049a1.831,1.831,0,0,1-2.342-1.106L239.29,291.617a1.831,1.831,0,0,1,1.106-2.342" transform="translate(-32.481 -38.448)"/>
            <path id="Trazado_160180" data-name="Trazado 160180" d="M232.256,318.227c2.977-2.7,4.341-15.823,7.551-18.343s1.449,10.764,1.449,10.764q.979-1.243,1.974-2.472,2.112-2.618,4.281-5.189c1.331-1.567,2.682-3.115,4.133-4.573a2.1,2.1,0,0,1,1.935-.616c.869.136,2.227.674,2.544,1.588a1.791,1.791,0,0,1-.459,1.588s1.54-.925,2.7,1.018-.3,2.835-.3,2.835a2.274,2.274,0,0,1,2.431,1.246c.885,1.566.665,2.983-.818,3.756.285-.149,1.13.31,1.335.471,1.157.908.468,2.68-.026,3.751A16.607,16.607,0,0,1,258,318.137c-2.609,2.855-29.143,32-34.51,35.056l-3.452-27.7s9.246-4.566,12.223-7.263" transform="translate(-29.881 -40.437)" fill="#e95628"/>
            <path id="Trazado_160181" data-name="Trazado 160181" d="M251.461,309.939l8.471-8.84a1.513,1.513,0,0,0-.207-2.418" transform="translate(-34.149 -40.561)" fill="none" stroke="#000" stroke-miterlimit="10" stroke-width="0.75"/>
            <path id="Trazado_160182" data-name="Trazado 160182" d="M254.519,313.213l8.225-7.669s1.387-1.31.477-2.5" transform="translate(-34.564 -41.154)" fill="none" stroke="#000" stroke-miterlimit="10" stroke-width="0.75"/>
            <path id="Trazado_160183" data-name="Trazado 160183" d="M258.892,317.433l6.059-6.045s1.4-1.09,1.372-2.138" transform="translate(-35.158 -41.997)" fill="none" stroke="#000" stroke-miterlimit="10" stroke-width="0.75"/>
            <path id="Trazado_160184" data-name="Trazado 160184" d="M266.53,312.27s1.264.754-.026,3.751-5.819,7.321-5.819,7.321" transform="translate(-35.401 -42.407)" fill="none" stroke="#000" stroke-miterlimit="10" stroke-width="0.75"/>
            <path id="Trazado_160185" data-name="Trazado 160185" d="M252.829,249.022s-2.873,7.676-14.6,7.676-17.457-6.438-18.193-10.025" transform="translate(-29.881 -33.499)" fill="none" stroke="#000" stroke-miterlimit="10" stroke-width="0.75"/>
            <path id="Trazado_160186" data-name="Trazado 160186" d="M322.248,98.313l3.123-42.368s-.232-5.247,1.861-6.135,1.483-.748,1.483-.748l11.48,44.555Z" transform="translate(-43.762 -6.662)" fill="#fff"/>
            <path id="Trazado_160187" data-name="Trazado 160187" d="M363,86.751l1.881-9.369s.32-3.412,1.813-4.324,4.286-2.15,4.286-2.15l1.773,13.577Z" transform="translate(-49.296 -9.63)" fill="#fff"/>
            <path id="Trazado_160188" data-name="Trazado 160188" d="M324.174,82.1a31.028,31.028,0,0,0-4.912.6c-1.1.391.565,8.738,1.248,9.126s4.839-1.047,4.839-1.047Z" transform="translate(-43.306 -11.149)" fill="#fff"/>
            <path id="Trazado_160189" data-name="Trazado 160189" d="M297.694,122.286a1.937,1.937,0,0,1-1.111-2.216c.6-2.573,2.778-7.932,10.671-11.892,10.758-5.4,28.433-13.9,38.466-17.6S366.128,83.757,367.253,86s-7.589,8.685-16.548,14.521-26.341,14.924-37.1,20.322c-7.893,3.961-13.49,2.5-15.912,1.448" transform="translate(-40.269 -11.576)" fill="#fff"/>
            <path id="Trazado_160190" data-name="Trazado 160190" d="M328.837,117.366l35.833,22.82s4.069,3.323,6.031,2.175,1.486-.741,1.486-.741l-28.859-35.835Z" transform="translate(-44.656 -14.366)" fill="#fff"/>
            <path id="Trazado_160191" data-name="Trazado 160191" d="M366.674,95.55l8.636,4.091s2.926,1.782,4.55,1.13,4.285-2.15,4.285-2.15l-9.824-9.537Z" transform="translate(-49.795 -12.098)" fill="#fff"/>
            <path id="Trazado_160192" data-name="Trazado 160192" d="M348.12,130.332a31.078,31.078,0,0,1-3.413,3.582c-.974.651-6.668-5.676-6.572-6.456s3.732-3.255,3.732-3.255Z" transform="translate(-45.919 -16.867)" fill="#fff"/>
            <path id="Trazado_160193" data-name="Trazado 160193" d="M301.959,121.8a3.427,3.427,0,0,0,1.435,2.861,15.836,15.836,0,0,0,2.607,1.4,12.522,12.522,0,0,1-4.635-.985,1.657,1.657,0,0,1-.952-1.9,12.519,12.519,0,0,1,1.98-4.3,15.8,15.8,0,0,0-.436,2.926" transform="translate(-40.791 -16.143)"/>
            <path id="Trazado_160194" data-name="Trazado 160194" d="M296.591,120.909c.6-2.574,2.779-7.932,10.672-11.892,10.758-5.4,28.433-13.9,38.466-17.6" transform="translate(-40.277 -12.415)" fill="none" stroke="#000" stroke-miterlimit="10" stroke-width="0.75"/>
            <path id="Trazado_160195" data-name="Trazado 160195" d="M333.872,122.393l31.483,20.049s4.069,3.322,6.03,2.175" transform="translate(-45.34 -16.621)" fill="none" stroke="#000" stroke-miterlimit="10" stroke-width="0.75"/>
            <line id="Línea_568" data-name="Línea 568" x1="13.401" y2="6.398" transform="translate(312.201 75.502)" fill="none" stroke="#000" stroke-miterlimit="10" stroke-width="0.75"/>
            <line id="Línea_569" data-name="Línea 569" x2="8.552" y2="33.195" transform="translate(286.89 49.918)" fill="none" stroke="#000" stroke-miterlimit="10" stroke-width="0.75"/>
            <line id="Línea_570" data-name="Línea 570" y1="23.472" x2="1.771" transform="translate(279.007 60.568)" fill="none" stroke="#000" stroke-miterlimit="10" stroke-width="0.75"/>
            <path id="Trazado_160196" data-name="Trazado 160196" d="M91.6,174.876,78.477,153.514a2.148,2.148,0,0,1-2.954-.706L24.991,183.839a2.147,2.147,0,0,1-.707,2.954L37.4,208.155a2.147,2.147,0,0,1,2.954.707L90.89,177.83a2.147,2.147,0,0,1,.706-2.954" transform="translate(-3.298 -20.752)" fill="#c5f4eb"/>
            <path id="Trazado_160197" data-name="Trazado 160197" d="M82.357,152.807,74.6,157.571l15.365,25.023,7.76-4.765a2.147,2.147,0,0,1,.706-2.954L85.311,153.513a2.148,2.148,0,0,1-2.954-.706" transform="translate(-10.131 -20.751)" fill="#aae0d6"/>
            <path id="Trazado_160198" data-name="Trazado 160198" d="M75.688,160.123a.262.262,0,0,1-.36-.086l-.686-1.117a.262.262,0,1,1,.447-.274l.686,1.117a.262.262,0,0,1-.086.36" transform="translate(-10.131 -21.527)"/>
            <path id="Trazado_160199" data-name="Trazado 160199" d="M88,180.165a.262.262,0,0,1-.36-.086l-1.5-2.435a.262.262,0,0,1,.447-.274l1.5,2.435a.262.262,0,0,1-.086.36M85,175.294a.262.262,0,0,1-.36-.086l-1.5-2.435a.262.262,0,0,1,.447-.275l1.5,2.436a.262.262,0,0,1-.086.36m-2.991-4.871a.262.262,0,0,1-.36-.086l-1.5-2.434a.262.262,0,1,1,.447-.275l1.5,2.435a.262.262,0,0,1-.086.36m-2.991-4.871a.261.261,0,0,1-.36-.086l-1.5-2.435a.262.262,0,1,1,.447-.274l1.5,2.435a.262.262,0,0,1-.086.36" transform="translate(-10.474 -22.085)"/>
            <path id="Trazado_160200" data-name="Trazado 160200" d="M92.057,186.779a.262.262,0,0,1-.36-.086l-.686-1.117a.262.262,0,0,1,.447-.275l.686,1.117a.262.262,0,0,1-.086.36" transform="translate(-12.354 -25.147)"/>
            <path id="Trazado_160201" data-name="Trazado 160201" d="M33.236,192.548l-.721.443-.238-.386,1.912-1.174.238.387-.729.448,1.316,2.144-.461.283Z" transform="translate(-4.383 -25.996)"/>
            <rect id="Rectángulo_42435" data-name="Rectángulo 42435" width="0.542" height="2.971" transform="translate(31.377 164.468) rotate(-31.558)"/>
            <path id="Trazado_160202" data-name="Trazado 160202" d="M42.316,189.878a1.871,1.871,0,0,1-.584.514,1.4,1.4,0,0,1-2.074-.48,1.494,1.494,0,0,1,.531-2.167,1.709,1.709,0,0,1,.684-.266l.125.43a1.44,1.44,0,0,0-.556.207.988.988,0,0,0-.315,1.475.975.975,0,0,0,1.443.371,1.507,1.507,0,0,0,.445-.4Z" transform="translate(-5.35 -25.46)"/>
            <path id="Trazado_160203" data-name="Trazado 160203" d="M42.961,186.045l.458-.282.716,1.165.011-.007c0-.135.008-.264.016-.387l.114-1.3.571-.351-.21,1.613,1.821.884-.541.333L44.486,187l-.06.409.547.89-.458.282Z" transform="translate(-5.834 -25.108)"/>
            <path id="Trazado_160204" data-name="Trazado 160204" d="M49.245,184.165l-.954.586.456.743,1.067-.655.232.38-1.528.939-1.555-2.531,1.472-.9.233.379-1.01.62.4.653.954-.586Z" transform="translate(-6.378 -24.814)"/>
            <path id="Trazado_160205" data-name="Trazado 160205" d="M51.406,181.389l-.721.443-.238-.386,1.911-1.174.238.387-.729.448,1.317,2.144-.461.283Z" transform="translate(-6.851 -24.481)"/>
            <path id="Trazado_160206" data-name="Trazado 160206" d="M93.441,178.388l.49.8-.288.177-1.193-1.943.288-.176.493.8,2.334-1.434.211.342Z" transform="translate(-12.555 -23.984)"/>
            <rect id="Rectángulo_42436" data-name="Rectángulo 42436" width="3.078" height="0.397" transform="translate(78.697 151.485) rotate(-31.557)"/>
            <path id="Trazado_160207" data-name="Trazado 160207" d="M90.951,169.152a1.963,1.963,0,0,1,.55.616,1.438,1.438,0,0,1-.531,2.111,1.532,1.532,0,0,1-2.219-.525,1.654,1.654,0,0,1-.265-.694l.327-.088a1.442,1.442,0,0,0,.216.6,1.145,1.145,0,0,0,1.71.359,1.119,1.119,0,0,0,.436-1.656,1.589,1.589,0,0,0-.449-.486Z" transform="translate(-12.016 -22.971)"/>
            <path id="Trazado_160208" data-name="Trazado 160208" d="M86.991,168.392l-.208-.339,1.265-.777-.008-.011c-.143-.008-.28-.021-.406-.034l-1.477-.2-.258-.42,1.7.266.881-1.95.245.4-.757,1.654.441.073,1-.614.208.339Z" transform="translate(-11.665 -22.398)"/>
            <path id="Trazado_160209" data-name="Trazado 160209" d="M85.148,162.269l.626,1.02.945-.581-.7-1.136.284-.175.906,1.475-2.623,1.61-.869-1.416.283-.175.662,1.079.829-.509-.626-1.02Z" transform="translate(-11.369 -21.918)"/>
            <path id="Trazado_160210" data-name="Trazado 160210" d="M82.206,160.092l.49.8-.288.177-1.193-1.943.288-.176.493.8,2.334-1.434.211.342Z" transform="translate(-11.029 -21.5)"/>
            <rect id="Rectángulo_42437" data-name="Rectángulo 42437" width="41.42" height="0.522" transform="matrix(0.852, -0.523, 0.523, 0.852, 30.962, 171.671)"/>
            <rect id="Rectángulo_42438" data-name="Rectángulo 42438" width="26.647" height="1.109" transform="matrix(0.852, -0.523, 0.523, 0.852, 33.137, 175.213)"/>
            <rect id="Rectángulo_42439" data-name="Rectángulo 42439" width="26.647" height="1.109" transform="matrix(0.852, -0.523, 0.523, 0.852, 35.031, 178.298)"/>
            <rect id="Rectángulo_42440" data-name="Rectángulo 42440" width="40.502" height="1.109" transform="matrix(0.852, -0.523, 0.523, 0.852, 36.952, 181.426)"/>
            <path id="Trazado_160211" data-name="Trazado 160211" d="M59.742,177.512l2.8,1.327.133-.555-2.638-2q.113-.474.227-.95c.15-.627.523-1.458.086-2.02a.339.339,0,0,0-.425-.1c-.644.3-.687,1.214-.837,1.842q-.114.474-.227.95l-3.26.6-.132.555,3.1.082c-.005.022-.011.045-.016.067l-.222,2.057-.778.171-.1.424.977.026.014.058-.11.459a.075.075,0,0,0,.147.035l.11-.458.039-.046.883.418.1-.423-.616-.5.732-1.935c.005-.023.011-.046.016-.068" transform="translate(-7.533 -23.517)"/>
            <path id="Trazado_160212" data-name="Trazado 160212" d="M75.524,152.807,24.991,183.839a2.147,2.147,0,0,1-.706,2.954" transform="translate(-3.298 -20.751)" fill="none" stroke="#000" stroke-miterlimit="10" stroke-width="0.75"/>
            <path id="Trazado_160213" data-name="Trazado 160213" d="M625.519,185.79l-30.28,11.644a2.106,2.106,0,0,0-1.21,2.72l16.795,43.673a2.1,2.1,0,0,0,2.721,1.209l30.28-11.643a3.978,3.978,0,0,0,2.285-5.14l-15.451-40.178a3.977,3.977,0,0,0-5.139-2.285" transform="translate(-80.651 -25.194)" fill="#753335"/>
            <path id="Trazado_160214" data-name="Trazado 160214" d="M600.989,196.747l-5.75,2.211a2.106,2.106,0,0,0-1.21,2.72l16.795,43.673a2.1,2.1,0,0,0,2.721,1.209l5.75-2.211Z" transform="translate(-80.651 -26.719)" fill="#d98662"/>
            <path id="Trazado_160215" data-name="Trazado 160215" d="M628.564,203.857a8.666,8.666,0,0,0-.85-.5,8.821,8.821,0,0,0-6.756-.573,1.818,1.818,0,0,0-.292.077,1.973,1.973,0,0,0-.276.124,8.819,8.819,0,0,0-4.859,4.73,9.179,9.179,0,0,0-.34.926,8.82,8.82,0,0,0,3.548,9.911,8.528,8.528,0,0,0,.849.5,8.813,8.813,0,0,0,6.755.572,1.8,1.8,0,0,0,.292-.077,2.241,2.241,0,0,0,.274-.124,8.817,8.817,0,0,0,4.861-4.73,9.256,9.256,0,0,0,.34-.926,8.823,8.823,0,0,0-3.546-9.911m2.319,4.239-3.787,1.353a19.118,19.118,0,0,0-1.578-3.221,13.445,13.445,0,0,0,2.267-1.587c.03-.025.058-.052.087-.078a7.839,7.839,0,0,1,3.011,3.532m-3.585,5.96a20.776,20.776,0,0,0-2.378.7,20.549,20.549,0,0,0-2.282.97,18,18,0,0,1-1.522-3.09l5.4-1.931a18.146,18.146,0,0,1,.784,3.354m-.818,4.495c-.059.023-.118.045-.179.067s-.122.041-.182.061c-.757.1-1.855-.68-2.934-2.147a20.637,20.637,0,0,1,4.2-1.5c.094,1.818-.258,3.116-.908,3.522m-5.7-6.844a17.931,17.931,0,0,1-.784-3.354,20.279,20.279,0,0,0,2.378-.7,20.614,20.614,0,0,0,2.281-.97,17.92,17.92,0,0,1,1.523,3.091Zm.032-7.849.181-.067c.06-.022.121-.041.182-.061.759-.1,1.855.68,2.933,2.147a20.354,20.354,0,0,1-4.2,1.5c-.1-1.817.257-3.115.9-3.521m6.149.211a13.016,13.016,0,0,1-1.986,1.352,11.354,11.354,0,0,0-.727-.915,7.058,7.058,0,0,0-1.263-1.148,7.889,7.889,0,0,1,3.975.71m-7.782.652a7.056,7.056,0,0,0-.249,1.688c-.015.373-.006.765.018,1.17a12.964,12.964,0,0,1-2.393.212,7.878,7.878,0,0,1,2.624-3.07m-3.01,4.026c.04,0,.078.005.117.006a13.484,13.484,0,0,0,2.759-.21,19.206,19.206,0,0,0,.823,3.491l-3.784,1.353a7.826,7.826,0,0,1,.086-4.641m.243,5.566,3.787-1.353a19.271,19.271,0,0,0,1.577,3.22,13.5,13.5,0,0,0-2.266,1.587l-.087.078a7.836,7.836,0,0,1-3.011-3.531m3.917,4.026a12.852,12.852,0,0,1,1.986-1.352c.238.328.48.636.727.916a7.071,7.071,0,0,0,1.263,1.148,7.9,7.9,0,0,1-3.975-.711m7.781-.652a7.111,7.111,0,0,0,.251-1.688c.014-.373.005-.765-.019-1.169a12.9,12.9,0,0,1,2.393-.213,7.886,7.886,0,0,1-2.625,3.07m3.011-4.028c-.04,0-.077,0-.117-.006a13.471,13.471,0,0,0-2.758.212,19.239,19.239,0,0,0-.825-3.491l3.785-1.353a7.819,7.819,0,0,1-.086,4.639" transform="translate(-83.492 -27.481)" fill="#fff"/>
            <path id="Trazado_160216" data-name="Trazado 160216" d="M621.36,230.723a1.054,1.054,0,0,1,0,.873,1.253,1.253,0,0,1-.722.585l-.224.086.375.975-.794.305-1.13-2.939,1.017-.391a1.334,1.334,0,0,1,.93-.079.934.934,0,0,1,.546.585m-1.193.9.145-.056a.423.423,0,0,0,.245-.21.391.391,0,0,0,0-.318q-.114-.3-.444-.17l-.206.079Z" transform="translate(-84.043 -31.246)" fill="#fff"/>
            <path id="Trazado_160217" data-name="Trazado 160217" d="M624.911,231.673l-.356-.5-.956.367.063.608-.872.335-.176-3.32,1.06-.408,2.106,2.579Zm-.772-1.083-.313-.434q-.106-.144-.267-.375t-.225-.334c.015.073.034.194.06.366s.064.509.119,1.017Z" transform="translate(-84.552 -31.066)" fill="#fff"/>
            <path id="Trazado_160218" data-name="Trazado 160218" d="M628.067,229.419a.924.924,0,0,1,.048.539.973.973,0,0,1-.273.484,1.582,1.582,0,0,1-.568.353,2.6,2.6,0,0,1-.508.149,1.991,1.991,0,0,1-.47.016l-.272-.708a2.531,2.531,0,0,0,.543,0,1.937,1.937,0,0,0,.475-.107.468.468,0,0,0,.236-.162.2.2,0,0,0,.022-.189.189.189,0,0,0-.073-.093.412.412,0,0,0-.142-.05c-.061-.012-.215-.025-.464-.039a2.039,2.039,0,0,1-.529-.087.829.829,0,0,1-.321-.2,1.009,1.009,0,0,1-.214-.349.809.809,0,0,1,.052-.747,1.4,1.4,0,0,1,.725-.54,2.435,2.435,0,0,1,1.012-.147l-.007.707a1.881,1.881,0,0,0-.785.085.4.4,0,0,0-.2.141.176.176,0,0,0-.018.162.207.207,0,0,0,.149.12,3.656,3.656,0,0,0,.582.063,1.43,1.43,0,0,1,.669.164.85.85,0,0,1,.338.436" transform="translate(-84.942 -30.9)" fill="#fff"/>
            <path id="Trazado_160219" data-name="Trazado 160219" d="M630.818,228.361a.923.923,0,0,1,.047.539.966.966,0,0,1-.273.483,1.572,1.572,0,0,1-.568.353,2.586,2.586,0,0,1-.508.148,1.9,1.9,0,0,1-.47.016l-.272-.707a2.589,2.589,0,0,0,.543,0,1.9,1.9,0,0,0,.475-.108.463.463,0,0,0,.236-.161.2.2,0,0,0,.021-.19.187.187,0,0,0-.073-.092.4.4,0,0,0-.142-.05c-.062-.012-.215-.025-.464-.039a2.04,2.04,0,0,1-.529-.087.828.828,0,0,1-.321-.2,1.007,1.007,0,0,1-.214-.349.811.811,0,0,1,.052-.748,1.4,1.4,0,0,1,.725-.539,2.437,2.437,0,0,1,1.012-.147l-.007.707a1.882,1.882,0,0,0-.785.085.4.4,0,0,0-.2.141.176.176,0,0,0-.018.162.209.209,0,0,0,.149.12,3.657,3.657,0,0,0,.582.063,1.43,1.43,0,0,1,.669.164.85.85,0,0,1,.338.436" transform="translate(-85.316 -30.756)" fill="#fff"/>
            <path id="Trazado_160220" data-name="Trazado 160220" d="M633.331,226.12a1.057,1.057,0,0,1,0,.873,1.252,1.252,0,0,1-.722.585l-.224.086.375.975-.794.306-1.13-2.94,1.018-.391a1.333,1.333,0,0,1,.93-.08.937.937,0,0,1,.545.585m-1.193.9.145-.055a.427.427,0,0,0,.245-.211.391.391,0,0,0,0-.318q-.114-.3-.444-.17l-.206.079Z" transform="translate(-85.669 -30.621)" fill="#fff"/>
            <path id="Trazado_160221" data-name="Trazado 160221" d="M637.209,225.227a1.7,1.7,0,0,1,.069,1.268,1.771,1.771,0,0,1-2.127.816,2.04,2.04,0,0,1-.868-2.25,1.784,1.784,0,0,1,2.129-.822,1.7,1.7,0,0,1,.8.989m-2.023.778q.328.853.921.624a.545.545,0,0,0,.367-.378,1.216,1.216,0,0,0-.1-.7,1.235,1.235,0,0,0-.4-.594.541.541,0,0,0-.522-.04q-.6.229-.266,1.09" transform="translate(-86.124 -30.436)" fill="#fff"/>
            <path id="Trazado_160222" data-name="Trazado 160222" d="M639.159,224.95l.411,1.07-.794.305-1.13-2.939.963-.371q1.2-.46,1.533.408a.93.93,0,0,1-.2.982l1.349.952-.9.347-1.034-.83Zm-.23-.6.149-.057q.416-.161.275-.528-.117-.3-.525-.147l-.157.06Z" transform="translate(-86.593 -30.264)" fill="#fff"/>
            <path id="Trazado_160223" data-name="Trazado 160223" d="M643.263,224.548l-.794.305-.88-2.289-.719.276-.25-.649,2.229-.857.25.65-.716.275Z" transform="translate(-86.997 -30.057)" fill="#fff"/>
            <line id="Línea_571" data-name="Línea 571" x2="15.154" y2="39.407" transform="translate(520.338 170.029)" fill="none" stroke="#000" stroke-miterlimit="10" stroke-width="0.75"/>
            <path id="Trazado_160224" data-name="Trazado 160224" d="M643.824,233.394a3.977,3.977,0,0,0,2.285-5.139l-15.451-40.179a3.977,3.977,0,0,0-5.139-2.285l-30.28,11.644a2.106,2.106,0,0,0-1.21,2.721" transform="translate(-80.651 -25.194)" fill="none" stroke="#000" stroke-miterlimit="10" stroke-width="0.75"/>
            <rect id="Rectángulo_42441" data-name="Rectángulo 42441" width="3.765" height="7.192" transform="translate(631.458 196.769) rotate(-73.935)" fill="#0a4dc8"/>
            <path id="Trazado_160225" data-name="Trazado 160225" d="M727.335,261.929a2.345,2.345,0,0,1-2.9,1.6l-50.253-14.476a2.345,2.345,0,0,1-1.6-2.9l8.291-28.784a2.346,2.346,0,0,1,2.9-1.6l50.253,14.477a2.344,2.344,0,0,1,1.6,2.9Z" transform="translate(-91.324 -29.289)" fill="#0a4dc8"/>
            <path id="Trazado_160226" data-name="Trazado 160226" d="M734.593,232.01l-50.253-14.476a2.345,2.345,0,0,0-2.9,1.6L679.92,224.4l54.761,15.775,1.517-5.265a2.346,2.346,0,0,0-1.6-2.9" transform="translate(-92.334 -29.529)" fill="#0a4dc8"/>
            <path id="Rectángulo_42442" data-name="Rectángulo 42442" d="M1.989,0H5.907A1.988,1.988,0,0,1,7.895,1.988v8.857a1.988,1.988,0,0,1-1.988,1.988H1.989A1.989,1.989,0,0,1,0,10.843V1.989A1.989,1.989,0,0,1,1.989,0Z" transform="translate(626.613 202.083) rotate(-73.926)" fill="#0a4dc8"/>
            <path id="Trazado_160227" data-name="Trazado 160227" d="M735.1,230.242l-50.253-14.476a2.345,2.345,0,0,0-2.9,1.6l-1.517,5.265,54.761,15.775,1.517-5.265a2.346,2.346,0,0,0-1.6-2.9" transform="translate(-92.403 -29.289)" fill="#fff"/>
            <path id="Trazado_160228" data-name="Trazado 160228" d="M718.825,244.826a12.525,12.525,0,1,1-8.568-15.5,12.525,12.525,0,0,1,8.568,15.5" transform="translate(-94.282 -31.076)" fill="#fa6403"/>
            <path id="Trazado_160229" data-name="Trazado 160229" d="M716.715,244.557a9.5,9.5,0,1,1-6.5-11.757,9.5,9.5,0,0,1,6.5,11.757" transform="translate(-94.801 -31.564)"/>
            <path id="Trazado_160230" data-name="Trazado 160230" d="M696.243,224.452a2.1,2.1,0,0,1-2.43,1.659l-7.01-2.02a2.307,2.307,0,0,1,1.255-4.356l7.01,2.019a2.1,2.1,0,0,1,1.175,2.7" transform="translate(-93.095 -29.832)"/>
            <path id="Trazado_160231" data-name="Trazado 160231" d="M728.4,232.9a2.384,2.384,0,1,1-1.583-3.1,2.462,2.462,0,0,1,1.583,3.1" transform="translate(-98.282 -31.195)" fill="#fa6403"/>
            <path id="Trazado_160232" data-name="Trazado 160232" d="M672.805,250.018l-.231.8a2.345,2.345,0,0,0,1.6,2.9L724.432,268.2a2.344,2.344,0,0,0,2.9-1.6l.231-.8Z" transform="translate(-91.324 -33.953)" fill="#fff"/>
            <path id="Trazado_160233" data-name="Trazado 160233" d="M736.707,233.145a2.345,2.345,0,0,0-1.6-2.9l-50.253-14.476a2.344,2.344,0,0,0-2.9,1.6l-1.517,5.266" transform="translate(-92.403 -29.289)" fill="none" stroke="#000" stroke-miterlimit="10" stroke-width="0.75"/>
            <path id="Trazado_160234" data-name="Trazado 160234" d="M672.856,249.557l54.76,15.775,5.388-18.7" transform="translate(-91.375 -33.492)" fill="none" stroke="#000" stroke-miterlimit="10" stroke-width="0.75"/>
            <path id="Trazado_160235" data-name="Trazado 160235" d="M694.831,237.892a12.525,12.525,0,0,1,15.5-8.569" transform="translate(-94.359 -31.075)" fill="none" stroke="#000" stroke-miterlimit="10" stroke-width="0.75"/>
            <path id="Trazado_160236" data-name="Trazado 160236" d="M727.058,226.776a1.718,1.718,0,0,1,2.127-1.175l9.028,2.6" transform="translate(-98.735 -30.628)" fill="none" stroke="#000" stroke-miterlimit="10" stroke-width="0.75"/>
            <path id="Trazado_160237" data-name="Trazado 160237" d="M60.409,280.415a1.756,1.756,0,0,0,2.25,1.143l3.032-1.105a1.861,1.861,0,0,0,1.07-2.352l-.238-.705a1.756,1.756,0,0,0-2.25-1.143l-3.032,1.105a1.861,1.861,0,0,0-1.069,2.354Z" transform="translate(-8.157 -37.501)" fill="#062e78"/>
            <path id="Trazado_160238" data-name="Trazado 160238" d="M51.15,303.438c3.306,9.786,13.519,14.976,22.811,11.586S88.1,300.952,84.8,291.165s-13.519-14.974-22.812-11.586-14.143,14.07-10.839,23.859" transform="translate(-6.805 -37.826)" fill="#0a4dc8"/>
            <path id="Trazado_160239" data-name="Trazado 160239" d="M54.34,302.921c2.769,8.2,11.321,12.539,19.106,9.7s11.846-11.783,9.078-19.982-11.323-12.54-19.1-9.7-11.848,11.782-9.078,19.981" transform="translate(-7.261 -38.305)" fill="#fff"/>
            <path id="Trazado_160240" data-name="Trazado 160240" d="M67.5,297.049l2.612,1.327,2.615,1.328L75.5,286.536Z" transform="translate(-9.167 -38.912)" fill="#d63b30"/>
            <path id="Trazado_160241" data-name="Trazado 160241" d="M69.681,300.028,67.069,298.7,64.3,311.868,72.3,301.355Z" transform="translate(-8.733 -40.564)" fill="#e8f7f2"/>
            <path id="Trazado_160242" data-name="Trazado 160242" d="M64.831,267.7a5.04,5.04,0,1,0-1.2,7.027A5.04,5.04,0,0,0,64.831,267.7Z" transform="translate(-7.561 -36.066)" fill="none" stroke="#000" stroke-miterlimit="10" stroke-width="0.75"/>
            <path id="Trazado_160243" data-name="Trazado 160243" d="M54.34,302.921c2.769,8.2,11.321,12.539,19.106,9.7s11.846-11.783,9.078-19.982-11.323-12.54-19.1-9.7S51.571,294.721,54.34,302.921Z" transform="translate(-7.261 -38.305)" fill="none" stroke="#000" stroke-miterlimit="10" stroke-width="0.75"/>
            <line id="Línea_572" data-name="Línea 572" x1="7.992" y2="10.513" transform="translate(58.336 247.624)" fill="none" stroke="#000" stroke-miterlimit="10" stroke-width="0.75"/>
            <path id="Trazado_160244" data-name="Trazado 160244" d="M64.3,311.868,72.3,301.356l-2.615-1.328L67.068,298.7" transform="translate(-8.733 -40.564)" fill="none" stroke="#000" stroke-miterlimit="10" stroke-width="0.75"/>
            <path id="Trazado_160245" data-name="Trazado 160245" d="M654.261,314.718a.842.842,0,0,1-.062-.1,1.993,1.993,0,0,1-.136-.276,2.956,2.956,0,0,1,.1-2.485,2.877,2.877,0,0,1,.57-.778,2.873,2.873,0,0,1,2.021-.837,2.843,2.843,0,0,1,.982.169,2.851,2.851,0,0,1,1.25.87,2.525,2.525,0,0,1,.326.482,2,2,0,0,1,.189.411,2.617,2.617,0,0,1,.089.29c.017.069.023.11.023.11l-.092.13-.263-.162a7.567,7.567,0,0,0-.711-.382,4.777,4.777,0,0,0-.492-.207,3.7,3.7,0,0,0-.569-.147,2.519,2.519,0,0,0-.615-.028,2.06,2.06,0,0,0-.6.155,2.346,2.346,0,0,0-.965.771,4.235,4.235,0,0,0-.547.978,6.12,6.12,0,0,0-.344,1.055Z" transform="translate(-88.792 -42.132)" fill="#fa6403"/>
            <path id="Trazado_160246" data-name="Trazado 160246" d="M626.06,325.738l-1.3.518a.8.8,0,0,0,.442,1.538l1.29-.236Z" transform="translate(-84.775 -44.236)" fill="#fa6403"/>
            <path id="Trazado_160247" data-name="Trazado 160247" d="M687.925,301.1l1.3-.518A.8.8,0,0,1,689.96,302l-1.1.717Z" transform="translate(-93.421 -40.811)" fill="#fa6403"/>
            <path id="Trazado_160248" data-name="Trazado 160248" d="M676.431,297.53c-5.2,1.184-13.195,3.623-17.549,8.039-.921.942-.1,2.886.208,3.942a17.33,17.33,0,0,0,2.661,5.8c2.909,3.722,8.665,4.767,13.124,3.975,4.183-.743,8.709-3.387,10.711-7.256,1.839-3.556,1.156-7.471-.773-10.846a7.681,7.681,0,0,0-8.381-3.652" transform="translate(-89.419 -40.379)" fill="#fa6403"/>
            <path id="Trazado_160249" data-name="Trazado 160249" d="M629.64,316.12c4.584-2.715,12.068-6.449,18.267-6.24,1.315.05,2.057,2.027,2.561,3a17.356,17.356,0,0,1,2.057,6.038c.449,4.7-3.01,9.421-6.789,11.914-3.547,2.339-8.651,3.534-12.766,2.1-3.781-1.314-5.979-4.626-6.9-8.4a7.682,7.682,0,0,1,3.57-8.416" transform="translate(-84.992 -42.081)" fill="#fa6403"/>
            <path id="Trazado_160250" data-name="Trazado 160250" d="M642.45,330.49a13.09,13.09,0,0,0,2.363-1.225c2.848-1.878,5.75-5.6,5.394-9.32a14.229,14.229,0,0,0-1.662-4.829c-.064-.124-.133-.266-.207-.419-.213-.442-.779-1.619-1.166-1.633a21.233,21.233,0,0,0-8.306,1.8,49.556,49.556,0,0,0-6.838,3.415,5.589,5.589,0,0,0-2.615,6.157c.466,1.911,1.774,5.3,5.3,6.524A11.345,11.345,0,0,0,642.45,330.49Z" transform="translate(-85.453 -42.513)"/>
            <path id="Trazado_160251" data-name="Trazado 160251" d="M677.546,316.553a13.162,13.162,0,0,1-2.557.736c-3.359.6-8.023-.105-10.327-3.053a14.235,14.235,0,0,1-2.116-4.648c-.039-.135-.087-.285-.139-.447-.149-.468-.549-1.71-.277-1.988a21.238,21.238,0,0,1,7.269-4.4,49.651,49.651,0,0,1,7.312-2.225,5.589,5.589,0,0,1,6.134,2.669c.977,1.707,2.357,5.066.644,8.379A11.346,11.346,0,0,1,677.546,316.553Z" transform="translate(-89.905 -40.792)"/>
            <path id="Trazado_160252" data-name="Trazado 160252" d="M658.881,306.862c-.92.942-.1,2.886.208,3.943a17.35,17.35,0,0,0,2.661,5.8c2.909,3.722,8.666,4.767,13.124,3.975" transform="translate(-89.419 -41.672)" fill="none" stroke="#000" stroke-miterlimit="10" stroke-width="0.75"/>
            <path id="Trazado_160253" data-name="Trazado 160253" d="M632.97,332.939c-3.781-1.315-5.979-4.626-6.9-8.4a7.682,7.682,0,0,1,3.57-8.416c4.584-2.715,12.068-6.449,18.266-6.24" transform="translate(-84.992 -42.081)" fill="none" stroke="#000" stroke-miterlimit="10" stroke-width="0.75"/>
            <line id="Línea_573" data-name="Línea 573" x1="1.157" y2="14.871" transform="translate(550.677 273.024)" fill="none" stroke="#fff" stroke-miterlimit="10" stroke-width="0.75"/>
            <line id="Línea_574" data-name="Línea 574" x1="0.927" y2="12.953" transform="translate(553.105 272.147)" fill="none" stroke="#fff" stroke-miterlimit="10" stroke-width="0.75"/>
            <line id="Línea_575" data-name="Línea 575" x1="1.157" y2="14.871" transform="translate(580.356 261.192)" fill="none" stroke="#fff" stroke-miterlimit="10" stroke-width="0.75"/>
            <line id="Línea_576" data-name="Línea 576" x1="0.928" y2="12.953" transform="translate(582.784 260.315)" fill="none" stroke="#fff" stroke-miterlimit="10" stroke-width="0.75"/>
          </g>
        </g>
        <g id="Grupo_169237" data-name="Grupo 169237">
          <g id="Grupo_169236" data-name="Grupo 169236" clip-path="url(#clip-path-2)">
            <path id="Trazado_160254" data-name="Trazado 160254" d="M95.166,233.822a2.052,2.052,0,0,1,.519.067,2.464,2.464,0,0,0,.625.067,3.179,3.179,0,0,0,2.343-1,9.468,9.468,0,0,0,1.729-2.529,21.407,21.407,0,0,0,1.278-3.34q.531-1.81.984-3.433a8.736,8.736,0,0,1,.932-2.369,7.538,7.538,0,0,1,.984-1.3,2.418,2.418,0,0,1,1.118-.639,8.791,8.791,0,0,0-1.93-.626,12.94,12.94,0,0,0-2.914-.306,3.273,3.273,0,0,0-1.957.546,1.726,1.726,0,0,0-.758,1.477,2.348,2.348,0,0,0,.2,1.025,2.892,2.892,0,0,0,.452.691q.253.28.453.467a.5.5,0,0,1,.2.319q0,.506-.559.506a3.7,3.7,0,0,1-1.211-.239,4.922,4.922,0,0,1-1.291-.692,4.407,4.407,0,0,1-1.038-1.078,2.467,2.467,0,0,1-.426-1.424,2.642,2.642,0,0,1,.532-1.7,3.972,3.972,0,0,1,1.318-1.065,5.994,5.994,0,0,1,1.7-.558,9.839,9.839,0,0,1,1.69-.16,19.407,19.407,0,0,1,2.4.133q1.064.134,2.156.306t2.342.306a28.289,28.289,0,0,0,2.954.133,8.091,8.091,0,0,0,1.651-.133,4.152,4.152,0,0,0,.958-.306,3.3,3.3,0,0,0,.519-.306.525.525,0,0,1,.306-.133.539.539,0,0,1,.4.16.511.511,0,0,1,.16.372,1.782,1.782,0,0,1-.306.692,5.534,5.534,0,0,1-.825,1.024,6.742,6.742,0,0,1-1.171.932,2.521,2.521,0,0,1-1.371.412,10.218,10.218,0,0,1-1.2-.066q-.559-.067-.985-.147-.478-.106-.9-.239a1,1,0,0,0-.266.239,2.979,2.979,0,0,0-.372.652,11.265,11.265,0,0,0-.466,1.277q-.253.811-.519,2.089-.239,1.066-.465,2.383t-.559,2.661a23.824,23.824,0,0,1-.811,2.622,10.024,10.024,0,0,1-1.185,2.275,5.605,5.605,0,0,1-1.7,1.6,4.488,4.488,0,0,1-2.355.6,6.315,6.315,0,0,1-1.5-.173,5.6,5.6,0,0,1-1.225-.44,3,3,0,0,1-.811-.572.851.851,0,0,1-.293-.545.443.443,0,0,1,.479-.506" transform="translate(-12.859 -29.404)"/>
            <path id="Trazado_160255" data-name="Trazado 160255" d="M115.171,234.409a.937.937,0,0,0,.239.692.866.866,0,0,0,.639.239,1.883,1.883,0,0,0,1.052-.347,4.657,4.657,0,0,0,.918-.8,5.949,5.949,0,0,0,.879-1.145.511.511,0,0,1,.132-.186.915.915,0,0,1,.16-.12.443.443,0,0,1,.239-.067.559.559,0,0,1,.386.16.494.494,0,0,1,.173.372.5.5,0,0,1-.04.2q-.04.093-.093.2c-.035.071-.071.151-.106.239a9.382,9.382,0,0,1-1.3,1.65,7.523,7.523,0,0,1-1.451,1.118,3.467,3.467,0,0,1-1.823.506,4.207,4.207,0,0,1-1.384-.213,3.594,3.594,0,0,1-1.065-.572,2.493,2.493,0,0,1-.691-.839,2.283,2.283,0,0,1-.24-1.038,5.014,5.014,0,0,1,.267-1.65,13.322,13.322,0,0,1,.572-1.41q.3-.639.572-1.131a1.826,1.826,0,0,0,.266-.811.346.346,0,0,0-.253-.32,4.33,4.33,0,0,0-.545-.186,7.37,7.37,0,0,0-.8-.133,27.47,27.47,0,0,1-1.464,3.18q-.692,1.237-1.117,1.849a2.464,2.464,0,0,1-.2.239.5.5,0,0,1-.386.16.6.6,0,0,1-.559-.558.619.619,0,0,1,.12-.359,2.466,2.466,0,0,0,.173-.28q.372-.531,1.052-1.69a14.766,14.766,0,0,0,1.264-3.047,1.646,1.646,0,0,1-.453-.479,2.839,2.839,0,0,1-.293-.613,2.6,2.6,0,0,1-.133-.878,1.994,1.994,0,0,1,.147-.759,2.106,2.106,0,0,1,.385-.625,2.241,2.241,0,0,1,.506-.426.991.991,0,0,1,.506-.16,1.253,1.253,0,0,1,.559.147,2.751,2.751,0,0,1,.532.346,1.922,1.922,0,0,1,.4.453.861.861,0,0,1,.16.439,1.963,1.963,0,0,1-.173.878,1.484,1.484,0,0,0-.174.665.447.447,0,0,0,.32.426,2.078,2.078,0,0,0,.8.133,4.446,4.446,0,0,0,.759-.054c.2-.035.386-.075.545-.119s.31-.085.453-.12a1.858,1.858,0,0,1,.452-.053.97.97,0,0,1,.786.372,1.383,1.383,0,0,1,.306.9,2.551,2.551,0,0,1-.306,1.078c-.2.417-.431.875-.679,1.371a16.354,16.354,0,0,0-.678,1.556,4.548,4.548,0,0,0-.306,1.611" transform="translate(-14.686 -30.47)"/>
            <path id="Trazado_160256" data-name="Trazado 160256" d="M134.03,234.176a9.38,9.38,0,0,1-1.3,1.65,7.521,7.521,0,0,1-1.451,1.118,3.464,3.464,0,0,1-1.823.506,3.087,3.087,0,0,1-1.89-.572,2.34,2.34,0,0,1-.9-1.69,6.952,6.952,0,0,1-1.144,1.144,7.31,7.31,0,0,1-1.2.773,3.079,3.079,0,0,1-1.437.346,2.7,2.7,0,0,1-1.025-.2,2.432,2.432,0,0,1-.851-.572,2.833,2.833,0,0,1-.786-2,7.838,7.838,0,0,1,.546-2.848,10,10,0,0,1,1.423-2.542,7.78,7.78,0,0,1,1.97-1.823,4.082,4.082,0,0,1,3.54-.493,3.908,3.908,0,0,1,.9.44,3.043,3.043,0,0,1,.639.612,3.219,3.219,0,0,1,.625.067,2.293,2.293,0,0,1,.613.213,1.406,1.406,0,0,1,.465.386.925.925,0,0,1,.187.586,3.291,3.291,0,0,1-.239.958q-.24.666-.532,1.477t-.532,1.677a5.815,5.815,0,0,0-.239,1.53.747.747,0,0,0,.2.532.709.709,0,0,0,.545.213,1.881,1.881,0,0,0,1.052-.347,4.657,4.657,0,0,0,.918-.8,5.878,5.878,0,0,0,.878-1.145.526.526,0,0,1,.133-.186.916.916,0,0,1,.16-.12.446.446,0,0,1,.239-.067.559.559,0,0,1,.386.16.494.494,0,0,1,.173.372.5.5,0,0,1-.04.2q-.04.093-.093.2c-.035.071-.071.151-.106.239m-6.175-4.711a1.181,1.181,0,0,0-.279-.865.924.924,0,0,0-.679-.279,1.744,1.744,0,0,0-1.2.612,6.668,6.668,0,0,0-1.1,1.5,10.183,10.183,0,0,0-.811,1.93,6.42,6.42,0,0,0-.319,1.863q0,1.2.771,1.2a1.705,1.705,0,0,0,1.1-.639,8.409,8.409,0,0,0,1.185-1.57,12.045,12.045,0,0,0,.945-1.957,5.212,5.212,0,0,0,.385-1.8" transform="translate(-16.326 -30.797)"/>
            <path id="Trazado_160257" data-name="Trazado 160257" d="M147.08,234.176a4.378,4.378,0,0,1-1.144,1.144,6,6,0,0,1-1.45.8,5.451,5.451,0,0,1-2.037.347,6.532,6.532,0,0,1-1.317-.16,7.054,7.054,0,0,1-1.371-.426,14.784,14.784,0,0,1-2.288,1.238,4,4,0,0,1-1.358.333.82.82,0,0,1-.453-.16,1.816,1.816,0,0,1-.439-.425,2.282,2.282,0,0,1-.32-.6,2,2,0,0,1-.119-.679,12.191,12.191,0,0,1,.239-2.342q.24-1.224.559-2.369t.678-2.089q.359-.945.6-1.5a1.047,1.047,0,0,1,.293-.36.669.669,0,0,1,.426-.146,1.326,1.326,0,0,1,.665.226,4.42,4.42,0,0,1,.691.519,3.975,3.975,0,0,1,.532.585.9.9,0,0,1,.213.453,4.19,4.19,0,0,1-.266,1.371q-.267.758-.6,1.556t-.6,1.584a4.465,4.465,0,0,0-.266,1.424,1.008,1.008,0,0,0,.12.506.367.367,0,0,0,.333.213.734.734,0,0,0,.372-.133v-.133a.873.873,0,0,1,.146-.452,1.8,1.8,0,0,1,.36-.426,2.3,2.3,0,0,1,.439-.306.854.854,0,0,1,.385-.12h.027a13.636,13.636,0,0,0,1.583-2.874,11.006,11.006,0,0,0,.532-1.7,7.854,7.854,0,0,0,.2-1.756q0-.533.559-.532a1.769,1.769,0,0,1,.692.159,2.43,2.43,0,0,1,.691.453,2.569,2.569,0,0,1,.532.691,1.781,1.781,0,0,1,.213.852,3.4,3.4,0,0,1-.279,1.211,8.4,8.4,0,0,1-.773,1.464,14.192,14.192,0,0,1-1.157,1.531,15.4,15.4,0,0,1-1.411,1.437,3.724,3.724,0,0,0,.652.426,1.988,1.988,0,0,0,.919.186,2.765,2.765,0,0,0,1.251-.279,5.261,5.261,0,0,0,.984-.626,7.223,7.223,0,0,0,.906-.9.511.511,0,0,1,.132-.186.9.9,0,0,1,.161-.12.441.441,0,0,1,.239-.067.557.557,0,0,1,.385.16.494.494,0,0,1,.173.372.5.5,0,0,1-.04.2c-.026.062-.058.129-.093.2s-.071.151-.106.239" transform="translate(-18.304 -30.797)"/>
            <path id="Trazado_160258" data-name="Trazado 160258" d="M158.347,234.176a6.819,6.819,0,0,1-1.464,1.651,8.45,8.45,0,0,1-1.85,1.117,6.253,6.253,0,0,1-2.621.506,5.692,5.692,0,0,1-1.863-.293,4.462,4.462,0,0,1-1.464-.811,3.716,3.716,0,0,1-.958-1.238,3.581,3.581,0,0,1-.346-1.57,6.7,6.7,0,0,1,.559-2.768,7.49,7.49,0,0,1,1.41-2.142,6.364,6.364,0,0,1,1.849-1.371,4.353,4.353,0,0,1,1.877-.479,2.754,2.754,0,0,1,1.144.239,3.263,3.263,0,0,1,.932.625,2.867,2.867,0,0,1,.626.892,2.525,2.525,0,0,1,.226,1.038,3.983,3.983,0,0,1-.213,1.158,3.933,3.933,0,0,1-.705,1.291,4.133,4.133,0,0,1-1.331,1.051,4.468,4.468,0,0,1-2.089.44,2.5,2.5,0,0,1-.613-.08,3.63,3.63,0,0,1-.4-.08,2.374,2.374,0,0,0,.692,1.836,2.349,2.349,0,0,0,1.65.639,3.749,3.749,0,0,0,1.7-.386,6.452,6.452,0,0,0,1.3-.838,5.493,5.493,0,0,0,1.091-1.225.522.522,0,0,1,.133-.186.926.926,0,0,1,.16-.12.441.441,0,0,1,.239-.067.555.555,0,0,1,.385.16.492.492,0,0,1,.174.372.512.512,0,0,1-.04.2q-.04.093-.093.2c-.035.071-.071.151-.106.239m-7.16-1.916a2.521,2.521,0,0,0,1.358-.4,4.443,4.443,0,0,0,1.1-.971,5.129,5.129,0,0,0,.732-1.185,2.708,2.708,0,0,0,.266-1.038c0-.354-.16-.532-.48-.532a1.676,1.676,0,0,0-1.091.453,4.934,4.934,0,0,0-.945,1.091,6.912,6.912,0,0,0-.678,1.357,3.652,3.652,0,0,0-.266,1.225" transform="translate(-20.069 -30.797)"/>
            <path id="Trazado_160259" data-name="Trazado 160259" d="M162.881,236.174a4.445,4.445,0,0,1-1.531-.266,3.766,3.766,0,0,1-1.291-.785,3.847,3.847,0,0,1-.892-1.264,4.081,4.081,0,0,1-.332-1.677,16.078,16.078,0,0,1,.306-2.954,23.662,23.662,0,0,1,.864-3.261,30.321,30.321,0,0,1,1.291-3.18,17.291,17.291,0,0,1,1.61-2.754,9.118,9.118,0,0,1,1.823-1.93,3.128,3.128,0,0,1,1.9-.719,1.8,1.8,0,0,1,.852.213,2.836,2.836,0,0,1,.705.532,2.725,2.725,0,0,1,.492.706,1.685,1.685,0,0,1,.187.731,4.473,4.473,0,0,1-.306,1.424,15.707,15.707,0,0,1-.812,1.863q-.506,1-1.184,2.063t-1.41,2.063q-.732,1-1.477,1.862a12.591,12.591,0,0,1-1.411,1.424q-.053.32-.106.665a6.129,6.129,0,0,0-.079.652q-.027.359-.027.705a2.515,2.515,0,0,0,.426,1.517,1.368,1.368,0,0,0,1.171.586,1.107,1.107,0,0,0,.519-.133,3.5,3.5,0,0,0,.466-.293,2.072,2.072,0,0,0,.426-.453,2.114,2.114,0,0,1,.239-.252.46.46,0,0,1,.32-.12.644.644,0,0,1,.585.586.656.656,0,0,1-.159.372,1.3,1.3,0,0,0-.133.213,5.482,5.482,0,0,1-.879.932,4.037,4.037,0,0,1-.958.652,2.652,2.652,0,0,1-1.2.279m4.657-16.634c0-.248-.106-.373-.32-.373q-.372,0-.97.825A14.9,14.9,0,0,0,165,222.148q-.652,1.331-1.291,2.981a25.65,25.65,0,0,0-1.038,3.327,7.046,7.046,0,0,0,1-1.065,16.379,16.379,0,0,0,1.078-1.557q.533-.863,1.038-1.8t.892-1.8q.386-.865.626-1.584a3.819,3.819,0,0,0,.239-1.117" transform="translate(-21.57 -29.521)"/>
            <path id="Trazado_160260" data-name="Trazado 160260" d="M116.481,221.74a85.517,85.517,0,0,0,17.869-4.527l.635,1.668s-13.263,3.573-18.5,2.859" transform="translate(-15.818 -29.498)"/>
            <path id="Trazado_160261" data-name="Trazado 160261" d="M124.451,223.359a72.988,72.988,0,0,0,15.251-3.864l.543,1.423s-11.32,3.051-15.794,2.441" transform="translate(-16.901 -29.808)"/>
            <path id="Trazado_160262" data-name="Trazado 160262" d="M159.978,209.281a6.155,6.155,0,0,0-4.463.261c-.319.124-2.3.919-4.647,1.866l-10.637-4.354-.825.41,8.462,5.152-4.426,1.785-1.956-.8-.353.326,1.39.846-.544.22a15.779,15.779,0,0,0-2.271.881.318.318,0,0,0-.061.526.524.524,0,0,0,.534.1l1.154-.228,2.077-.411.384,1.216.4-.266-.159-1.073,6.306-1.243c.265-.066.52-.131.773-.2l5.839,3.979.568-.22-3.32-4.665c4.42-1.473,5.66-2.8,6.007-3.469a.463.463,0,0,0-.229-.64" transform="translate(-18.932 -28.118)"/>
          </g>
        </g>
      </g>
    </g>
  </g>
</svg>
