<svg xmlns="http://www.w3.org/2000/svg" xmlns:xlink="http://www.w3.org/1999/xlink" width="400" height="478" viewBox="0 0 400 478">
  <defs>
    <clipPath id="clip-path">
      <rect id="Rectángulo_42686" data-name="Rectángulo 42686" width="400" height="478" rx="11" transform="translate(1020 953)" fill="#a6bbff"/>
    </clipPath>
    <clipPath id="clip-path-2">
      <rect id="Rectángulo_42926" data-name="Rectángulo 42926" width="178.67" height="315.717" transform="translate(0 0)" fill="none"/>
    </clipPath>
    <filter id="Unión_17" x="17.186" y="8.001" width="267.815" height="121.403" filterUnits="userSpaceOnUse">
      <feOffset dy="3" input="SourceAlpha"/>
      <feGaussianBlur stdDeviation="3" result="blur"/>
      <feFlood flood-opacity="0.161"/>
      <feComposite operator="in" in2="blur"/>
      <feComposite in="SourceGraphic"/>
    </filter>
    <clipPath id="clip-path-3">
      <rect id="Rectángulo_42922" data-name="Rectángulo 42922" width="26.665" height="26.959" fill="none"/>
    </clipPath>
    <clipPath id="clip-path-4">
      <rect id="Rectángulo_42923" data-name="Rectángulo 42923" width="17.912" height="25.93" fill="none"/>
    </clipPath>
    <filter id="Unión_17-2" x="172" y="240.627" width="129.001" height="61" filterUnits="userSpaceOnUse">
      <feOffset dy="3" input="SourceAlpha"/>
      <feGaussianBlur stdDeviation="3" result="blur-2"/>
      <feFlood flood-opacity="0.161"/>
      <feComposite operator="in" in2="blur-2"/>
      <feComposite in="SourceGraphic"/>
    </filter>
  </defs>
  <g id="Enmascarar_grupo_221" data-name="Enmascarar grupo 221" transform="translate(-1020 -953)" clip-path="url(#clip-path)">
    <g id="Grupo_169373" data-name="Grupo 169373">
      <rect id="Rectángulo_42546" data-name="Rectángulo 42546" width="400" height="478" rx="11" transform="translate(1020 953)" fill="#a6bbff"/>
      <g id="Grupo_169647" data-name="Grupo 169647">
        <path id="Trazado_162030" data-name="Trazado 162030" d="M360,94.078C357.264,47.568,324.749,3.162,280.712.407c-50.579-4.251-97,26.181-147.387,26.5C107.634,29.327,83.54,18.534,58.5,15.049,1.957,12.772-6.659,85.681,3.887,132.676,48.363,354.228,363.083,324.084,360,94.078Z" transform="matrix(-0.602, 0.799, -0.799, -0.602, 1406.976, 1079.704)" fill="#e1e8ff"/>
        <path id="Trazado_162031" data-name="Trazado 162031" d="M71.042,157.094c2.844-49.917,36.6-97.577,82.315-100.534,52.508-4.563,100.7,28.1,153.008,28.445,26.671,2.594,51.683-8.99,77.675-12.731,58.7-2.444,67.648,75.807,56.7,126.245C394.568,436.306,67.845,403.953,71.042,157.094Z" transform="translate(930.175 1297.513) rotate(-45)" fill="#6b8dfc" opacity="0.388" style="mix-blend-mode: multiply;isolation: isolate"/>
      </g>
      <g id="Grupo_170195" data-name="Grupo 170195" transform="translate(1220 1033.7)">
        <g id="Grupo_170194" data-name="Grupo 170194" transform="translate(0 0.002)" clip-path="url(#clip-path-2)">
          <path id="Trazado_165154" data-name="Trazado 165154" d="M628.183,1350.649a49.274,49.274,0,0,0-1.355,11.833,135.25,135.25,0,0,0,23.64-.061,4.607,4.607,0,0,0,1.911-.462c1.584-.9,1.847-3.236,1.911-5.2a22.427,22.427,0,0,0-.252-5.343,6.946,6.946,0,0,0-2.594-4.374,7.041,7.041,0,0,0-4.028-.974,19.848,19.848,0,0,0-10.8,3.269Z" transform="translate(-487.678 -1047.253)" fill="#f2b2a2"/>
          <path id="Trazado_165155" data-name="Trazado 165155" d="M256.205,1256.712l-108.373,2.471c.119,10.679-.254,21.188.711,31.792a1.892,1.892,0,0,0,1.883,1.723H256.146c1.079-15.634.955-25.818.06-35.986" transform="translate(-115.015 -977.734)" fill="#564d73"/>
          <path id="Trazado_165156" data-name="Trazado 165156" d="M178.586,640.592c.065-.879.089-1.76.083-2.642l-.023,0c.008-.534.006-1.067-.015-1.6-.1-2.655-.4-5.3-.534-7.951-.3-2.768-.9-5.506-.981-8.293-.067-4.363-3.919-30.259-5.107-39.052a117.953,117.953,0,0,0-3.161-12.386c-.7-3.521-2.2-6.8-3.269-10.219C164,554.2,163.5,549.56,161.2,545.6c-1.767-3.287-3.373-6.683-5.055-10.018a.833.833,0,0,0-.062-.1c-.725-1.586-1.5-3.146-2.37-4.646a1.039,1.039,0,0,0-.461-.226,51.648,51.648,0,0,0-2.73-4.69,27.891,27.891,0,0,0-14.1-11.759c-3.767-1-7.708-1.113-11.538-1.746-.812-.119-1.624-.238-2.43-.409a.817.817,0,0,0-1,.872c-.383,0-.767,0-1.149-.018-2.726-.416-5.494-.564-8.253-.708-2.1-.157-4.206-.186-6.3-.314-.781-.233-2.079.114-1.851,1.157-1.356,2.17-3.883,3.209-6.009,4.482a25.152,25.152,0,0,1-14.727,4.006c-1.785-.024-3.837-.242-5.2-1.5a.837.837,0,0,0-1.236,1.064,5.186,5.186,0,0,0,2.06,1.4c-.248.329-.462.692-.708,1.013-1.452.407-2.5,2.162-3.59,3.171-1.074,1.162-2.033,2.239-3.1,3.443a49.629,49.629,0,0,1-6.794,6.75c-1.364-.315-2.665,1.987-3.543,2.888-.5.622-.985,1.256-1.474,1.885a2.915,2.915,0,0,0-.983,1.638,11.929,11.929,0,0,1-5.94-.924,25.681,25.681,0,0,1-5.871-3.467,49.735,49.735,0,0,0-5.959-6.157c4.036-6.191,3.472-10.348,2.651-17.279q.423.153.837.329a.843.843,0,0,0,1.1-.433c.77-1.951-6.352-2.509-7.7-2.411-5.415-.034-9.84,3.788-12.993,7.849a74.815,74.815,0,0,0-5.4,7.007,65.743,65.743,0,0,0-8.169,17.707,73.387,73.387,0,0,0-2.108,9.834c-.489,2.021-.91,4.059-1.4,6.087-.959,3.711-1.018,7.575-1.994,11.288a21.649,21.649,0,0,1-.717,4.976c-.318,3.58-1.169,7.081-1.713,10.631A110.785,110.785,0,0,0,.768,605.327c-.759,5.624-1.2,11.36-.143,16.978A16.625,16.625,0,0,0,2.8,629.181a25.672,25.672,0,0,0,1.385,2.348c.3.656.877,1.191,1.213,1.836,3.836,4.7,9.547,8.292,15.658,8.888a18.46,18.46,0,0,0,10.724-2.439c-1.934,12.306-5.809,24.324-2.985,36.452a10.108,10.108,0,0,0,2.277,4.989c1.953,1.963,5.012,2.159,7.78,2.236,30.512.846,65.527.673,96.039,1.519,2.319.064,4.956-.023,6.764-1.285a210.325,210.325,0,0,1-.05,21.33,8.8,8.8,0,0,0,3.273.391l16.345-.156c2.589-.025,5.522-.2,7.2-2.16l.046-.055c1.362-1.635,1.4-3.948,1.7-6.054.707-4.942,2.846-5.074,4.885-9.631,3.246-7.254,3.058-14.281,3.3-22.057.245-7.953.255-15.911.145-23.866,0-.066,0-.13-.01-.193.01-.151.02-.3.03-.451l.062-.231" transform="translate(0 -398.16)" fill="#c08fc9"/>
          <path id="Trazado_165157" data-name="Trazado 165157" d="M254.2,48.513c.107,4.544-1.266,8.909-1.742,13.385a62.383,62.383,0,0,0-.528,15.481c1.549,10.943,3.683,22.663.151,33.413a32.577,32.577,0,0,1-1.46,3.125c-.223.59-.743,1.289-1.413.928-3.17.255-6.318-.3-9.5-.141-3.175.262-6.356-.519-9.5-.354a18.709,18.709,0,0,0-3.614.653c-.754.352-1.461.75-2.235,1.127-3.838,2.024-8.11,4.059-12.555,3.092-4.305-.73-8.46-2.253-12.807-2.712-3.742-.337-7.475.363-11.211.4a63.636,63.636,0,0,0-6.426-.526c-2.664-.063-8.517-.819-11.4-2.821a.8.8,0,0,1-1.185-.462c-.277-.855-.672-1.664-.9-2.538a.915.915,0,0,1-.235-.285c-1.294-2.233-1.865-4.811-2.76-7.218-.141-.464-.305-.938-.418-1.42-.276-.6-.536-1.215-.754-1.84-.655-2.45-1.72-4.8-1.994-7.338a49.8,49.8,0,0,1-.793-9.037,47.258,47.258,0,0,1,.585-6.809,63.166,63.166,0,0,0,1.33-6.944c.454-2.752.509-5.493.9-8.245.15-2.521.106-5.055.486-7.56.018-.115.037-.232.056-.347a.73.73,0,0,1-.052-.355c.163-1.588.209-3.182.256-4.776.249-3.166.226-6.349.481-9.513a48.736,48.736,0,0,1,3.025-12.04,21.9,21.9,0,0,1,2.218-5.159,47.742,47.742,0,0,1,10.2-12.535A53.214,53.214,0,0,1,194.26,1.775,47.4,47.4,0,0,1,213.568.394a30.531,30.531,0,0,1,11.213,2.616c1.214.526,2.382,1.145,3.574,1.718a10.078,10.078,0,0,1,1.523.622c2.041.024,6.013,2.355,7,2.74.967.745,1.964,1.468,2.957,2.193,5.956,5.059,8.767,12.711,11.537,19.8a86.927,86.927,0,0,1,2.588,10.138c.278,2.769.158,5.54.251,8.3" transform="translate(-125.188 -0.002)" fill="#5c3545"/>
          <path id="Trazado_165158" data-name="Trazado 165158" d="M268.571,127.123c-1.861-2.356-4.676-1.908-6.9-.46-.049.095-.1.188-.157.279-.03.051-.059.1-.09.154l.011-.018-.1.18c-.091.222-.17.449-.25.675-.016.047-.033.094-.051.14a1.472,1.472,0,0,1-.082.19c-.007.015-.014.03-.022.044l-.024.069c-.013.038-.027.076-.042.113a.481.481,0,0,1-.066.139c-.011.031-.023.062-.036.093a3.093,3.093,0,0,1-.361.68.819.819,0,0,1-.255.239.415.415,0,0,1-.19.057.2.2,0,0,1-.094-.022.3.3,0,0,1-.145-.165.99.99,0,0,1-.039-.173,5.359,5.359,0,0,1-.068-.636c-.012-.215-.025-.431-.03-.647-.007-.29-.009-.578-.023-.868s-.032-.575-.049-.863c0,.007,0,.014,0,.021-.015-.228-.028-.456-.056-.682s-.071-.471-.1-.708-.047-.474-.07-.709-.05-.468-.078-.7c-.006-.053-.013-.106-.02-.159,0-.01,0-.018,0-.028s-.005-.031-.008-.047c0,.005,0,.01,0,.014,0-.013,0-.026-.006-.039s0-.029-.006-.043l0-.01c-.034-.223-.075-.445-.117-.667-.014-.076-.028-.151-.042-.227a32.12,32.12,0,0,0-3.487-7.555c-2.082-3.03-4.454-5.839-6.722-8.723a87.54,87.54,0,0,1-7.307-11.655c-.7-1.195-1.377-2.4-1.95-3.66a15,15,0,0,0-.773-1.728c-.34-.548-.608-1.137-.962-1.68a1.377,1.377,0,0,0-.433-.47c-.646-.37-1.476.16-1.94.578a70.418,70.418,0,0,1-8.306,6.755c-7.066,4.647-14.545,8.575-21.9,12.732-1.478.719-2.875,1.585-4.317,2.368a17.074,17.074,0,0,0-3.956,2.338,48.32,48.32,0,0,0-3.726,3.6,33.722,33.722,0,0,0-4.838,7.713c-.022.063-.049.135-.077.211-.047.275-.088.552-.116.83-.153,1.351-.518,2.791-.588,4.107a68.637,68.637,0,0,0,.159,6.99,74.592,74.592,0,0,0,4.818,16.153,42.509,42.509,0,0,0,1.884,3.99q.264.425.536.844a45.459,45.459,0,0,0,4.03,5.29q1.1,1.246,2.294,2.409c.43.419,2.06,1.47,2.08,2.074a.888.888,0,0,1-.358.683,2.016,2.016,0,0,1-.327.213c.027.027.053.055.08.081-1.823,1.555-3.655,3.1-5.579,4.527-1.086.8-2.2,1.559-3.252,2.411-.545.38-1.259,1.088-2.034,1.021a1.84,1.84,0,0,0-.47-.263c-1.033-1.284-.84-3.1-.682-4.641a37.8,37.8,0,0,0,.058-5.5,11.528,11.528,0,0,0-.9-4.6c-.82-2.3-3.414-3.068-4.821-.825a6.781,6.781,0,0,0-.467,2.3c-.1,3.167-.121,6.391-1.072,9.431-.4,1.159-.8,2.316-1.2,3.475a.768.768,0,0,0-.041.291c-.171.545-.323,1.1-.441,1.655a47.536,47.536,0,0,0-.357,4.952,46.745,46.745,0,0,1,.029,6.433c-.427,2.924-1.036,5.818-1.674,8.7a13.087,13.087,0,0,0-.592,2.609c-.117.525-.457,1.044-.364,1.592a.864.864,0,0,0-.069.551.843.843,0,0,0,.428.566c.646.919,1.28,1.85,1.954,2.748a23.834,23.834,0,0,0,6.3,5.525q.171.118.344.234a36.642,36.642,0,0,0,4.321,2.646c1.427.689,2.945,1.09,4.395,1.691a1.3,1.3,0,0,0,.557.12,1.535,1.535,0,0,0,.384-.05.828.828,0,0,0,.869-.441c.316-.689.709-1.349,1.081-2.01a18.856,18.856,0,0,1,3.276-4.572c2.128-1.983,4.149-4.08,6.286-6.053a40.465,40.465,0,0,0,6.872-6.55c.5-.643,2.1-2.541,3.122-4.105a14.312,14.312,0,0,0,2.954.315c6.073.455,12.431-1.956,17.5-5.174a16.284,16.284,0,0,0,3.607-2.949.846.846,0,0,0-.41-1.3.739.739,0,0,0-.235-.185,1.918,1.918,0,0,0-1.152-.11,4.136,4.136,0,0,1-.565.035,56.6,56.6,0,0,1-.886-6.321,26.427,26.427,0,0,1-.388-4.343c0-.348.008-.695.012-1.042,1.508-.8,3.209-2.193,3.814-2.514,8.1-5.2,11.14-14.348,13.63-23.137-.009.03-.017.059-.027.088.172-.622.423-1.237.653-1.853a3.927,3.927,0,0,0,1.744-.567,23.356,23.356,0,0,0,3.834-2.655,17.714,17.714,0,0,0,4.017-4.149,9.649,9.649,0,0,0,1.654-3.011c.386-1.524.762-3.341-.243-4.7" transform="translate(-139.144 -67.488)" fill="#f2b2a2"/>
          <path id="Trazado_165159" data-name="Trazado 165159" d="M264.478,815.7c-2.257,0-4.51-.143-6.766-.165-2.4-.032-4.8-.049-7.2-.232l0-.01a1,1,0,0,0,0-.464c.086-.258.174-.516.259-.774a2.457,2.457,0,0,0,.128-.533l.016-.053c.327-1.252.753-2.47,1.172-3.695.061-.226.14-.451.185-.681l-.189-.015a1,1,0,0,0,.083-.886c.971.081,1.943.149,2.917.2,2.321.036,4.642-.047,6.962-.132,2.386-.086,4.774-.172,7.162-.128,1.962.03,3.9.009,5.826-.013s3.874-.044,5.832-.012c2.3.085,4.6.253,6.9.23,6.791-.078,13.555-.759,20.347-.839,6.855-.142,13.711-.075,20.565-.28,3.279-.184,6.569-.184,9.839-.485a86.031,86.031,0,0,1,10.035-.818c2.649-.024,5.3-.112,7.939-.359,1.367-.127,2.74-.283,4.116-.283a31.714,31.714,0,0,0,4.772.066.427.427,0,0,1,.2-.081c.505-.164.737.293.862.7a8.49,8.49,0,0,1,.416,2.009c.215.855.432,1.722.625,2.567.1.48.172.969.247,1.455a.448.448,0,0,1-.26.472.1.1,0,0,1-.013.015,1.172,1.172,0,0,1-.927.147,3.13,3.13,0,0,0-.4-.024c-.376-.015-.753-.03-1.131-.033-2.385.1-4.762-.012-7.132.265-1.454.114-2.916.072-4.374.071-2.417.048-4.832.128-7.249.189-4.275.177-8.529.666-12.8.858-6.013.362-12.036.515-18.057.7-2.77.036-5.539.135-8.311.151-3.41-.064-6.841-.463-10.251-.433-3.247,0-6.488.209-9.735.2-1.937,0-3.875-.047-5.812.043-5.6.2-11.173.934-16.775,1.09Z" transform="translate(-194.901 -626.466)" fill="#e6c4ec"/>
          <path id="Trazado_165160" data-name="Trazado 165160" d="M33.845,802.05a.508.508,0,0,1-.05-.033,43.544,43.544,0,0,1-9.868-.9c-.759-.2-1.5-.46-2.261-.67a.432.432,0,0,1-.274-.067.63.63,0,0,1-.28-.157c-.545-.065-1-.1-.978-.817a19.354,19.354,0,0,1,.572-3.013.5.5,0,0,1,0-.371,4.251,4.251,0,0,0,.172-1.07c.015-.492-.016-1.169.487-1.433a1.551,1.551,0,0,1,.921.1c.251.076.571.155.679.417a20.27,20.27,0,0,0,3.887.847c2.62.318,5.244.595,7.88.721q1.115.093,2.229.172a.83.83,0,0,0-.121.135,3.49,3.49,0,0,0-.373.724l-.221-.016a1.584,1.584,0,0,1-.207.59,12.229,12.229,0,0,0-.655,1.619c-.248.774-.457,1.56-.694,2.337l.183.006q-.015.06-.028.119c-.056.247-.129.5-.168.757l-.379-.014a.355.355,0,0,1-.221.076.534.534,0,0,1-.23-.059" transform="translate(-15.664 -617.332)" fill="#e6c4ec"/>
          <path id="Trazado_165161" data-name="Trazado 165161" d="M49.435,732.817c-.034.063-.067.127-.1.189-.111.22-.222.442-.326.667l-.1-.006a3.884,3.884,0,0,1-.238.744c-.19.552-.39,1.1-.591,1.647s-.458,1.1-.706,1.639c-.091.242-.155.492-.241.733l.036,0-.138.38c-.054.15-.113.307-.156.464q-.606-.065-1.212-.123A67.572,67.572,0,0,1,35.029,737.7q-1.258-.273-2.516-.544c-.409-.089-.814-.2-1.221-.3l-.011,0-.02,0c-1-.281-1.287-.655-1.109-1.7.14-1.446.738-2.8,1.009-4.213.19-.278.4-.662.8-.565.229.062.537.063.694.238,3.913.664,7.809,1.5,11.768,1.841,1.668.149,3.338.267,5.009.366" transform="translate(-23.42 -568.225)" fill="#e6c4ec"/>
          <path id="Trazado_165162" data-name="Trazado 165162" d="M76.6,516.864a.421.421,0,0,1,.209.386q-.088,1.019-.176,2.037c.38.286.109,2.168,0,2.647-.249,2.094-.641,4.2-1.053,6.255-.329,1.622-.765,3.194-1.1,4.776-.135.61-.254,1.224-.37,1.837a.482.482,0,0,1-.12.232,2.282,2.282,0,0,1-.233.438c-.278.41-.565.818-.806,1.252-.379.782-.675,1.6-1.009,2.4-.394,1.3-.81,2.6-1.119,3.925-.369,1.5-.617,3.386-2.187,4.11-2.127,1.145-2.313,1.431-3.45,3.528-.645,1.371-1.106,2.82-1.655,4.231-.286.778-.573,1.557-.8,2.353a.412.412,0,0,1-.075.146,1,1,0,0,0-.008.3c-.019.078-.039.156-.057.235-.518-.042-1.037-.094-1.554-.162-1.191-.174-2.365-.451-3.542-.693a24.441,24.441,0,0,0-5.242-.912c-2.574-.214-5.146-.446-7.719-.668a.448.448,0,0,1-.415-.471c0-.01,0-.019,0-.028a.435.435,0,0,1-.1-.28c-.206-.291-.019-.677.03-.995a13.5,13.5,0,0,1,.575-1.974,2.76,2.76,0,0,1,.133-1.185,28.336,28.336,0,0,1,.931-2.859,48.829,48.829,0,0,1,1.735-4.922c.517-1.31,1.2-2.549,1.755-3.841.383-.852.867-1.7,1.278-2.5a34.515,34.515,0,0,1,1.981-3.48c.617-1,1.231-2.053,1.855-3.035.666-.855,1.292-1.756,1.994-2.589,0,0,0,0,0,0,.037-.056.075-.11.111-.16a12.864,12.864,0,0,1,1.668-2.02c.8-.832,1.492-1.716,2.22-2.6a25.033,25.033,0,0,1,3.366-3.312,15.609,15.609,0,0,1,5.54-2.505,26.086,26.086,0,0,1,2.691-.226,16.938,16.938,0,0,1,4.494.2.46.46,0,0,1,.226.126" transform="translate(-34.174 -401.833)" fill="#e6c4ec"/>
          <path id="Trazado_165163" data-name="Trazado 165163" d="M376.374,739.736a.974.974,0,0,1,.059.829.452.452,0,0,1-.411.4,32.093,32.093,0,0,1-4.656-.058c-3.055.094-6.111.126-9.167.2-1.563.046-3.106.291-4.658.45-1.609.153-3.223.192-4.836.263-2.061.106-4.126.2-6.174.463-3.919.6-7.8,1.434-11.712,2.088a149.776,149.776,0,0,1-16.825,1.165,46.4,46.4,0,0,1-4.728-.37,84.383,84.383,0,0,0-9.678-.615c-5.865.114-11.724.5-17.591.539a97.544,97.544,0,0,1-11.948-.889c-2.034-.118-4.07-.263-6.107-.29l-1.338.035a3.938,3.938,0,0,0,.414-.879l.01-.03.112,0a9.739,9.739,0,0,1,.177-1.017c.163-.863.332-1.725.433-2.6a1.663,1.663,0,0,1,.133-.545l-.385-.016c.023-.193.044-.388.05-.583,0-.1.006-.2,0-.293q2.325.072,4.648.129c5.209.159,10.314-.024,15.5.186,5.595.215,11.167.869,16.77.85,9.882-.07,19.672-1.551,29.482-2.56,3.172-.329,6.378-.127,9.54-.569,3.226-.484,6.455-.914,9.671-1.453,3.142-.441,6.323-.479,9.48-.766,1.817-.219,3.689-.381,5.492-.6a33.089,33.089,0,0,1,5.421-.408.42.42,0,0,1,.191.037.486.486,0,0,1,.393.187c.282.233.242.636.356.949.4,1.538.918,3.035,1.464,4.522.121.423.28.831.419,1.249" transform="translate(-207.42 -570.116)" fill="#e6c4ec"/>
          <path id="Trazado_165164" data-name="Trazado 165164" d="M365.519,553.069c.449,1.234.456,1.843-1,2.14-.193.022-.381.011-.559.028a1.763,1.763,0,0,1-.768.012,20.292,20.292,0,0,1-2.362.237,59.558,59.558,0,0,1-6,.439,61.993,61.993,0,0,0-6.518.789,51.631,51.631,0,0,0-6.8,1.418c-2.075.527-4.2.842-6.309,1.168-2.747.338-5.524.2-8.282.3-1.779.091-3.553.277-5.32.507-4.984.738-9.985,1.72-15.037,1.72q-.779,0-1.559-.032c-3.989-.283-7.972-.642-11.963-.9-3.88-.349-7.75-.94-11.653-.965q-7.47-.244-14.943-.286a18.881,18.881,0,0,1-3.415-.322c-.472-.052-.946-.087-1.421-.113a.868.868,0,0,0-.013-.166.434.434,0,0,1-.607-.368c-.239-.646-.475-1.166-.729-1.773a3.678,3.678,0,0,1-.544-1.509,8.648,8.648,0,0,1,.574-3.641c.561-1.416,1.377-2.816,1.4-4.373.009-.4-.056-.8-.065-1.2a9.436,9.436,0,0,1,1.786-3.626,35.313,35.313,0,0,1,7.28-7.645c1.1-.892,2.184-1.946,3.237-2.852.571-.559,1.118-1.144,1.73-1.66.656-.532,1.239-1.149,1.891-1.687a8.611,8.611,0,0,0,1.623-1.934c.6-.767,1.22-1.53,1.816-2.292.189-.333.331-.711.706-.87l.035-.01a.443.443,0,0,1,.532-.359,13.615,13.615,0,0,0,3.569.512,16.223,16.223,0,0,0,2.535-.094,13.5,13.5,0,0,0,3.177-.443,17.482,17.482,0,0,0,4.669-1.456,34.249,34.249,0,0,0,3.431-1.641c1.177-.665,2.36-1.244,3.466-2a15.1,15.1,0,0,0,3.121-2.56.459.459,0,0,1-.159-.4.45.45,0,0,1,.494-.388c.44.034.878.07,1.318.107a11.872,11.872,0,0,1,3.016.074c.269.025.537.052.8.079.565.026,1.131.067,1.693.037,2.386.033,4.772.085,7.159.1,1.9-.017,3.8-.136,5.7-.147a.416.416,0,0,1,.348-.313,24.092,24.092,0,0,1,2.52.27c1.034.181,2.082.135,3.122.23a41.418,41.418,0,0,1,6.331,1.078,17.473,17.473,0,0,1,4.869,2.353A14.18,14.18,0,0,1,345.2,519.8a13.2,13.2,0,0,1,1.609,1.467c.638.6,1.3,1.17,1.934,1.771.521.523,1.033,1.061,1.517,1.622l0,0a23.108,23.108,0,0,1,4.8,6.622c.63,1.243,1.433,2.357,2.031,3.616.589,1.172,1.143,2.35,1.76,3.5.741,1.647,1.5,3.314,2.3,4.924.492,1.054,1.084,2.059,1.562,3.118a12.815,12.815,0,0,1,1.146,2.309c.588,1.415,1.2,2.86,1.668,4.316" transform="translate(-202.058 -400.449)" fill="#e6c4ec"/>
          <path id="Trazado_165165" data-name="Trazado 165165" d="M544.354,278.2a.149.149,0,0,0,.073.069l-.038.033-.015.009c-.008-.036-.014-.074-.02-.111" transform="translate(-423.513 -216.446)" fill="#f2b2a2"/>
          <path id="Trazado_165166" data-name="Trazado 165166" d="M540.656,251.118h0" transform="translate(-420.635 -195.373)" fill="#f2b2a2"/>
          <path id="Trazado_165167" data-name="Trazado 165167" d="M398.441,466.94c-.03.537.2,1.287-.348,1.629-.946.55-1.888,1.02-2.845,1.533a55.432,55.432,0,0,1-8.672,3.564,28.308,28.308,0,0,1-3.847.93.444.444,0,0,1,.025-.888.458.458,0,0,1,.078-.475c.575-.638,1.165-1.264,1.757-1.886.193-.194.387-.39.583-.583-.207-.242-.022-.615.294-.814a11.7,11.7,0,0,0,1.1-1.137c1.154-1.284,2.082-2.745,3.219-4.041a.45.45,0,0,1-.46-.481.455.455,0,0,1,.534-.4c.327-.078.645-.192.968-.286.571-.2,1.112-.5,1.676-.7a4.709,4.709,0,0,1,1.61-.56c.97-.362,1.888-.857,2.83-1.282a2.61,2.61,0,0,1,.771-.276c.457.033.48.568.434.921a15.666,15.666,0,0,0-.022,2.669c.024.313.041.626.083.937a.436.436,0,0,1,.069.172c.036.505.137.96.167,1.457" transform="translate(-297.434 -358.496)" fill="#e37e88"/>
          <path id="Trazado_165168" data-name="Trazado 165168" d="M357.931,373.934a6.57,6.57,0,0,1-3.239-.6,2.321,2.321,0,0,1,.13-4.069,6.6,6.6,0,0,1,2.294-.8,17.06,17.06,0,0,1,3.785-.5c.7.042,1.517-.292,2.145.112a9.053,9.053,0,0,1,3.768.869,2.382,2.382,0,0,1-.222,4.448,8.071,8.071,0,0,1-3.418.433c-1.749.082-3.5.042-5.243.1" transform="translate(-275.067 -286.214)" fill="#fff"/>
          <path id="Trazado_165169" data-name="Trazado 165169" d="M274.682,206.185c-1.561-.331-1.373-1.613-.139-2.28a21.034,21.034,0,0,1,3.323-1.13l1.688-.465a.437.437,0,0,1,.3.027,10.586,10.586,0,0,1,5.093.126c1.213.426,1.086,1.622-.163,1.837a12.252,12.252,0,0,1-2.142.114c-.9.1-1.793.284-2.685.451-.8.228-1.6.471-2.419.637a8.337,8.337,0,0,1-2.858.682" transform="translate(-212.835 -157.221)" fill="#5c3545"/>
          <path id="Trazado_165170" data-name="Trazado 165170" d="M298.684,250.308c1.672,2.1-.259,5.321-2.865,5.082a2.941,2.941,0,0,1-2.728-3.1,3.427,3.427,0,0,1,1.478-2.459c.13-.3.507-.374.783-.491a2.954,2.954,0,0,1,3.333.967" transform="translate(-228.017 -193.852)"/>
          <path id="Trazado_165171" data-name="Trazado 165171" d="M451.294,249.786c1.146,2.076-.559,4.924-3,4.528-2.349-.215-3.992-2.593-2.526-4.685a3.485,3.485,0,0,1,1.426-1.286,5.423,5.423,0,0,1,1.382-.151c1.038-.335,2.19.784,2.715,1.594" transform="translate(-346.382 -193.049)"/>
          <path id="Trazado_165172" data-name="Trazado 165172" d="M457.147,206.561c-1.526-.36-3.084-.6-4.638-.819-1.387-.2-2.784-.15-4.148-.408-.891-.1-1.818-.768-1.594-1.765.436-1.126,1.867-1.286,2.923-1.268s2.08.172,3.116.292a5.005,5.005,0,0,1,1.518.316,8.132,8.132,0,0,1,3.282.936,1.98,1.98,0,0,1,1.216,1.287,1.1,1.1,0,0,1,.183.732c-.2.81-1.186.872-1.858.7" transform="translate(-347.562 -157.391)" fill="#5c3545"/>
          <path id="Trazado_165173" data-name="Trazado 165173" d="M313.3,407.563a1.911,1.911,0,0,1,2.255,2.231,5.113,5.113,0,0,1-.448,1.387h0a.482.482,0,0,1-.083.2l-.1.143a6.087,6.087,0,0,1-.67.952c-1.657,2.323-3.389,4.538-5.054,6.863-.812,1.216-1.81,2.3-2.632,3.506-.473.755-1.03,1.449-1.531,2.185-1.062,1.576-1.85,3.329-3.058,4.8-.2.334-.494.907-.95.582a.454.454,0,0,1-.045-.669c.288-.5.712-.974,1.028-1.436.779-1.2,1.427-2.483,2.223-3.675,1.148-1.613,2.243-3.265,3.509-4.79,1.648-2.321,3.38-4.6,5.08-6.879q.172-.26.351-.517a1.293,1.293,0,0,1,.323-.461l0,0c.211-.3.426-.6.64-.895v0c.1-.2.2-.4.3-.594,1.02-2.259-1.065-2.423-2.612-1.591a21.75,21.75,0,0,0-4.623,3.507c-.171.136-.292.372-.487.451-.42.513-.829,1.034-1.213,1.575-.763,1.083-1.524,2.162-2.337,3.208a21.151,21.151,0,0,1-2.31,2.867q-.77,1.013-1.562,2.01c-.329.322-.563,1.144-1.135.792-.4-.319-.014-.749.206-1.048.328-.4.63-.828.973-1.218a20.928,20.928,0,0,1,1.954-2.327c.754-1.021,1.476-2.066,2.27-3.057a57.449,57.449,0,0,1,4.17-5.425c1.114-1.361,1.974-2.908,3.047-4.3,1.282-1.719,3.7-4.623,2.189-6.769a2.136,2.136,0,0,0-1.09,0c-.585.967-1.452,1.778-2.123,2.684-.513.694-1.232,1.249-1.785,1.9-.848,1.02-1.825,1.919-2.751,2.865-1.648,1.684-3.333,3.33-4.964,5.031-1.163,1.264-2.3,2.572-3.478,3.817-.752.9-1.677,1.7-2.445,2.574-.353.333-.763,1.239-1.305.79a.451.451,0,0,1-.014-.628c.293-.315.568-.644.85-.968.89-.925,1.825-1.839,2.648-2.8,1.209-1.229,2.3-2.568,3.488-3.812.924-.975,1.917-1.878,2.842-2.852,1.538-1.658,3.274-3.157,4.719-4.893a39.878,39.878,0,0,0,2.9-3.237c.207-.274.425-.563.615-.867a.483.483,0,0,1,.132-.222,3.016,3.016,0,0,0,.4-1.142,1.648,1.648,0,0,0-1.228-1.828c-1.217-.088-2.263.76-3.245,1.349a97.5,97.5,0,0,0-8.37,6.224c-.931.818-1.832,1.668-2.78,2.467-.232.149-.5.483-.78.641-1.751,1.6-3.418,3.3-5.117,4.953-.433.46-.887.9-1.32,1.36-.366.316-.726,1.2-1.289.761-.462-.507.434-1.023.688-1.421.924-.943,1.844-1.891,2.788-2.815,1.3-1.222,2.558-2.5,3.867-3.713.736-.634,1.385-1.193,2.052-1.86,1.294-1.309,2.554-2.76,3.769-4.121.557-.761,1.813-1.946,1.195-2.933a1.637,1.637,0,0,0-1.583-.633,8.694,8.694,0,0,0-4.41,2.208c-2.478,2-5.03,3.9-7.47,5.953-1.056.82-2.1,1.651-3.159,2.475-.256.229-.645.529-.935.176a.448.448,0,0,1,.067-.624q.658-.514,1.315-1.029c.987-.8,2.008-1.547,2.973-2.372,1.7-1.368,3.4-2.726,5.134-4.056a28.289,28.289,0,0,1,3.869-2.834c1.206-.519,2.607-1.085,3.911-.614a2.056,2.056,0,0,1,1.249,2.492A6.661,6.661,0,0,1,301.3,400c1.98-1.521,4.022-2.967,6.124-4.3a4.619,4.619,0,0,1,3.267-.957,2.6,2.6,0,0,1,1.7,3.236c-.022.081-.045.16-.072.238a6.27,6.27,0,0,1,.79.086c.479.013.622.466.858.8,1.126,2.346-.617,4.831-1.96,6.692-.878,1.1-1.664,2.275-2.449,3.447a14.01,14.01,0,0,1,1.282-.81,5.545,5.545,0,0,1,2.45-.87" transform="translate(-221.094 -307.067)" fill="#e37e88"/>
          <path id="Trazado_165174" data-name="Trazado 165174" d="M550.018,276.151c.444-.093,1.578-.365,1.6.33-.02.545-.607.43-.987.455a2.066,2.066,0,0,0-1.49.734,2.186,2.186,0,0,0-.182,2.472,3.714,3.714,0,0,1,.037,2.2,2.888,2.888,0,0,1-.881,1.472c-.369.375-1.416.947-1.545.1a.448.448,0,0,1,.444-.444.607.607,0,0,0,.149-.055,2.1,2.1,0,0,0,1.016-1.462,3.056,3.056,0,0,0,.029-1.212,6.583,6.583,0,0,1-.431-1.766,2.95,2.95,0,0,1,.7-1.892,2.672,2.672,0,0,1,1.543-.927" transform="translate(-425.238 -214.747)" fill="#e37e88"/>
          <path id="Trazado_165175" data-name="Trazado 165175" d="M390.153,263.761a5.521,5.521,0,0,1-.357,5.573,10.458,10.458,0,0,1-2.138,2.41c-.34.26-.926.8-1.233.216a.46.46,0,0,1,.25-.6,7.746,7.746,0,0,0,3.123-4.235,7.228,7.228,0,0,0-.745-3.814c-.827-2.2-1.929-4.324-2.223-6.681a7.711,7.711,0,0,1-.057-2.366.458.458,0,0,1,.5-.468c.571.1.32.689.329,1.081a13,13,0,0,0,.767,4.353c.575,1.506,1.269,3,1.78,4.529" transform="translate(-300.614 -197.455)" fill="#e37e88"/>
          <path id="Trazado_165176" data-name="Trazado 165176" d="M173.907,675.836c.308.005.671.146.634.514a.447.447,0,0,1-.483.4,17.944,17.944,0,0,1-2.183-.484,12.857,12.857,0,0,1-2.243-.669,16.62,16.62,0,0,1-2.338-1.336,17.561,17.561,0,0,1-2.108-1.768,22.936,22.936,0,0,1-4.044-4.5.459.459,0,0,1,.614-.682c.1.109.21.342.285.428a21,21,0,0,0,3.458,3.833,16.742,16.742,0,0,0,3.137,2.493,15.6,15.6,0,0,0,5.27,1.772" transform="translate(-125.268 -519.08)" fill="#844490"/>
          <path id="Trazado_165177" data-name="Trazado 165177" d="M363.19,568.141a.444.444,0,0,1,.529.714,22.463,22.463,0,0,1-2.575,1.244,30.445,30.445,0,0,1-6.108,1.9,36.083,36.083,0,0,1-7.344.383,23.828,23.828,0,0,1-5.511-.81,9.847,9.847,0,0,1-1.9-.712.444.444,0,0,1,.348-.817,14.673,14.673,0,0,0,4.752,1.261,35.72,35.72,0,0,0,9.606-.2,29.566,29.566,0,0,0,6.663-2.208,9.851,9.851,0,0,0,1.54-.753" transform="translate(-264.532 -441.951)" fill="#c08fc9"/>
          <path id="Trazado_165178" data-name="Trazado 165178" d="M458.276,529.084a.444.444,0,0,1,.695.553,22.624,22.624,0,0,1-2.762,3.384,9.291,9.291,0,0,1-2.182,2.056,7.892,7.892,0,0,1-1.229.95q-.985.652-1.966,1.307a.444.444,0,1,1-.53-.713q.841-.561,1.683-1.119a13.915,13.915,0,0,0,1.719-1.3,7.429,7.429,0,0,0,1.749-1.672,23.667,23.667,0,0,0,2.823-3.45" transform="translate(-350.202 -411.503)" fill="#c08fc9"/>
          <path id="Trazado_165179" data-name="Trazado 165179" d="M632.206,710.471a33.354,33.354,0,0,1-.369,5.634c-.4,1.585-.535,3.239-1.027,4.8a26.952,26.952,0,0,1-.808,2.737c-.263,1-.424,2.02-.61,3.031q-.047.273-.094.546a.456.456,0,0,1,.049.246,12.667,12.667,0,0,1-.231,1.9q-.091.325-.168.653a.374.374,0,0,1-.018.079,21.634,21.634,0,0,0-.48,3.3,23.725,23.725,0,0,0-.223,5.2c.083,1.465.142,2.931.255,4.394.437,3.327.838,6.661,1.074,10.011a93.646,93.646,0,0,1,.634,12.254c.044,1.6.075,3.2-.01,4.8-.038.48-.052.963-.125,1.439a.652.652,0,0,1-.206.448.447.447,0,0,1-.624-.066.456.456,0,0,1-.052-.476,34.761,34.761,0,0,0,.179-4.159c-.1-2.366.017-4.826-.1-7.174-.148-2.931-.507-5.923-.723-8.836-.232-2.69-.566-5.368-.917-8.044-.141-1.857-.224-3.717-.323-5.578a25.235,25.235,0,0,1,.269-4.169,23.205,23.205,0,0,1,.5-3.467,2.662,2.662,0,0,1,.022-.5c.018-.241.049-.482.081-.721.117-.869.278-1.706.423-2.561a24.781,24.781,0,0,1,.651-3.021c.35-.876.5-1.808.789-2.7.442-1.515.58-3.094.965-4.622a43.081,43.081,0,0,0,.3-7.888,51.547,51.547,0,0,0-.692-5.3,34.932,34.932,0,0,0-.8-4.723c-.738-3.116-1.617-6.192-2.436-9.284-.274-1.568-.329-3.16-.662-4.718-.444-2.675-.751-5.366-1.08-8.055-.067-.52-.058-1.046-.095-1.569-.059-.317-.067-.752.341-.813a.447.447,0,0,1,.506.373c.066.531.064,1.066.1,1.6.263,1.943.417,3.872.721,5.8.22,1.435.441,2.869.689,4.3a30.37,30.37,0,0,0,.389,3.091c.563,2.048,1.159,4.087,1.653,6.154q.633,2.346,1.147,4.723c.243,1.3.3,2.628.56,3.926a35.268,35.268,0,0,1,.49,3.9,24.2,24.2,0,0,1,.094,3.112" transform="translate(-486.636 -523.983)" fill="#844490"/>
          <path id="Trazado_165180" data-name="Trazado 165180" d="M709.255,1092.612a.449.449,0,0,1-.357.517c-.58.1-1.17.173-1.759.223-1.54.073-3.061.364-4.606.335-.989,0-1.979-.006-2.969-.007l-2.657,0a.452.452,0,0,1-.467-.421.447.447,0,0,1,.422-.466l3.61,0a28.66,28.66,0,0,0,4.523-.163c.891-.092,1.788-.12,2.679-.219.355-.051.712-.094,1.065-.156a.448.448,0,0,1,.517.357" transform="translate(-541.837 -849.779)" fill="#844490"/>
          <path id="Trazado_165181" data-name="Trazado 165181" d="M692.235,1049.109a.447.447,0,0,1-.136.613c-1.25.875-2.447,1.847-3.681,2.734a45.5,45.5,0,0,1-5.365,3.278,41,41,0,0,1-4.507,2.151,10.431,10.431,0,0,1-2.5.784.455.455,0,0,1-.339-.708c.19-.247.535-.2.809-.274a33.024,33.024,0,0,0,3.4-1.355,59.419,59.419,0,0,0,6.671-3.687c1.629-1.054,3.155-2.312,4.707-3.445.266-.224.7-.473.947-.09" transform="translate(-525.642 -816.063)" fill="#844490"/>
          <path id="Trazado_165182" data-name="Trazado 165182" d="M295.065,236.643a.444.444,0,0,1-.145.876,13.476,13.476,0,0,0-2.574-.041,6.725,6.725,0,0,0-2.563.67.415.415,0,0,0,.091-.09.449.449,0,0,1-.59.109c-.488-.412-.056-.823.42-.942.543-.193,1.081-.409,1.636-.565a17.708,17.708,0,0,1,3.726-.018" transform="translate(-224.898 -184.036)" fill="#5c3545"/>
          <path id="Trazado_165183" data-name="Trazado 165183" d="M457.1,235.866c.385.125,1,.251.828.774a.449.449,0,0,1-.571.262,7.376,7.376,0,0,0-4.013-.466c-.408.01-.911.166-1.234.167-.578-.162-.394-.9.166-.923a12.44,12.44,0,0,1,3.1-.19,8.469,8.469,0,0,1,1.728.376" transform="translate(-351.468 -183.183)" fill="#5c3545"/>
          <path id="Trazado_165184" data-name="Trazado 165184" d="M40.475,707.221c-.524,1.76-1.3,3.434-1.8,5.2-.77,2.472-1.765,4.864-2.712,7.271q-1.034,2.93-2.043,5.869c-.365,1.327-.7,2.661-1.165,3.959-.672,1.787-1.514,3.509-2.183,5.3a35.092,35.092,0,0,0-1.7,3.336q-.128.282-.264.565a11.159,11.159,0,0,0-4.8,1.8,13.243,13.243,0,0,0-3.075,2.579,15.038,15.038,0,0,0-1.243,1.487c-.265.31-.244.821.226.886a.45.45,0,0,0,.465-.319,19.845,19.845,0,0,1,2.2-2.492,12.771,12.771,0,0,1,5.742-2.969c-.455.879-.937,1.76-1.361,2.63-.277.611-.635,1.178-.961,1.762a37.656,37.656,0,0,1-1.97,3.766c-.625,1-1.13,2.158-1.692,3.2a16.9,16.9,0,0,0-1.411,2.756c-.76,2.131-1.457,4.285-2.168,6.434-.2.563-.347,1.145-.585,1.693a.46.46,0,0,0-.03.523.432.432,0,0,0,.37.2.48.48,0,0,0,.437-.293,11.721,11.721,0,0,0,.493-1.368c.621-1.837,1.195-3.691,1.844-5.518.238-.656.441-1.321.713-1.963.622-1.255,1.375-2.443,1.974-3.711.416-.893.948-1.7,1.442-2.556.735-1.381,1.355-2.813,2.158-4.157.6-1.255,1.276-2.471,1.9-3.712l0,0a.356.356,0,0,0,.037-.075c.5-1.035.89-2.065,1.5-3.088.95-1.611,1.449-3.443,2.268-5.122a33.284,33.284,0,0,0,1.618-5.078c.54-1.606,1.112-3.205,1.662-4.808,1.032-2.928,2.335-5.755,3.218-8.738.636-2.084,1.558-4.079,2.076-6.2.405-1.334.783-2.674,1.2-4.007a8.2,8.2,0,0,1-.863-.2c-.532,1.713-1.03,3.437-1.524,5.17" transform="translate(-13.912 -546.203)" fill="#844490"/>
          <path id="Trazado_165185" data-name="Trazado 165185" d="M175.013,715.931a7.679,7.679,0,0,0-.285-.826c-.332,0-.664-.017-1-.047.055.125.112.253.17.387a16.318,16.318,0,0,1,1.019,4.3c.078.867-.06,1.737-.056,2.606a38.973,38.973,0,0,1-.67,6.536c-.227,1.157-.5,2.306-.752,3.459a.44.44,0,0,0,.017.245c-.279,1.023-.531,2.052-.764,3.088-.616,1.955-1.074,3.952-1.686,5.906-.744,2.73-1.471,5.6-2.067,8.364a51.518,51.518,0,0,1-1.546,7.294c-.855,2.588-1.427,5.257-2.255,7.852-.446,1.8-1.2,3.495-1.768,5.26-1.27,3.916-2.416,7.881-4.073,11.657a26.888,26.888,0,0,1-3.351,6.126c-.749.869-1.625,1.669-2.41,2.538A35.957,35.957,0,0,1,150.7,793.7a11.268,11.268,0,0,1-1.978,1.652c-.355.284-1.182.612-.78,1.169a.488.488,0,0,0,.741-.055,14.44,14.44,0,0,0,2.3-1.816,26.594,26.594,0,0,0,2.764-2.894,30.013,30.013,0,0,0,3.82-4.407,27.694,27.694,0,0,0,2.554-5.006,63.879,63.879,0,0,0,2.515-6.836c.654-1.9,1.229-3.83,1.861-5.739a37.8,37.8,0,0,0,1.318-3.844c.483-1.464.875-2.952,1.259-4.445.515-1.859,1.113-3.694,1.586-5.564a43.351,43.351,0,0,0,1.161-5.856c.56-2.608,1.247-5.191,1.9-7.777.484-1.5.857-3.024,1.282-4.539.431-1.311.755-2.767,1.1-4.119a35.411,35.411,0,0,0,.884-3.585.447.447,0,0,0-.058-.325q.061-.29.121-.58c.2-1.423.478-2.846.588-4.284.159-1.309.09-2.595.161-3.916a13.45,13.45,0,0,0-.788-5" transform="translate(-115.015 -556.322)" fill="#844490"/>
          <path id="Trazado_165186" data-name="Trazado 165186" d="M513.427,125.138a.333.333,0,0,1-.333-.325c-.12-5.116-3.129-9.643-5.736-13.015-.676-.875-1.388-1.754-2.076-2.6a44.136,44.136,0,0,1-6.378-9.445.333.333,0,0,1,.608-.272,43.646,43.646,0,0,0,6.288,9.3c.69.853,1.4,1.735,2.085,2.616,2.67,3.452,5.75,8.1,5.875,13.406a.334.334,0,0,1-.325.341h-.008" transform="translate(-388.129 -77.241)" fill="#965756"/>
          <path id="Trazado_165187" data-name="Trazado 165187" d="M484.085,57.474a.333.333,0,0,1-.3-.2,19.414,19.414,0,0,0-9.706-9.761.333.333,0,1,1,.272-.608,20.088,20.088,0,0,1,10.043,10.1.333.333,0,0,1-.3.468" transform="translate(-368.681 -36.472)" fill="#965756"/>
          <path id="Trazado_165188" data-name="Trazado 165188" d="M519.463,412.033a.334.334,0,0,1-.315-.44A59.161,59.161,0,0,0,522,387.4a.333.333,0,0,1,.663-.061,59.83,59.83,0,0,1-2.882,24.464.333.333,0,0,1-.315.226" transform="translate(-403.888 -301.121)" fill="#965756"/>
          <path id="Trazado_165189" data-name="Trazado 165189" d="M228.7,363.819a.333.333,0,0,1-.317-.233,78.42,78.42,0,0,1-3.073-14.165.333.333,0,1,1,.661-.08,77.742,77.742,0,0,0,3.047,14.044.333.333,0,0,1-.217.418.337.337,0,0,1-.1.016" transform="translate(-175.289 -271.563)" fill="#965756"/>
          <path id="Trazado_165190" data-name="Trazado 165190" d="M192.013,99.374a.334.334,0,0,1-.326-.4c2.212-10.52,4.966-23.612,12.322-33.7a44.3,44.3,0,0,1,35.567-17.9.333.333,0,0,1,.331.335.342.342,0,0,1-.336.331A43.6,43.6,0,0,0,204.546,65.67c-7.272,9.967-10.009,22.982-12.208,33.439a.333.333,0,0,1-.325.265" transform="translate(-149.128 -36.858)" fill="#965756"/>
          <path id="Trazado_165191" data-name="Trazado 165191" d="M274.838,109.064a.333.333,0,0,1-.166-.622,127.887,127.887,0,0,0,21.842-15.776.333.333,0,1,1,.445.5A128.541,128.541,0,0,1,275,109.019a.331.331,0,0,1-.165.044" transform="translate(-213.567 -72.029)" fill="#965756"/>
          <path id="Trazado_165192" data-name="Trazado 165192" d="M217.982,71.017a.328.328,0,0,1-.142-.032.333.333,0,0,1-.159-.443,36.888,36.888,0,0,1,13.253-15.08.333.333,0,1,1,.36.56,36.215,36.215,0,0,0-13.011,14.8.333.333,0,0,1-.3.191" transform="translate(-169.333 -43.109)" fill="#965756"/>
          <path id="Trazado_165193" data-name="Trazado 165193" d="M189.859,351.91a.333.333,0,0,1-.332-.308,51.237,51.237,0,0,1,.83-13.832.333.333,0,1,1,.653.129,50.6,50.6,0,0,0-.819,13.652.333.333,0,0,1-.307.357h-.026" transform="translate(-147.34 -262.58)" fill="#965756"/>
          <path id="Trazado_165194" data-name="Trazado 165194" d="M641.006,1104.222c-.506,7.518.783,13.277,1.44,20.22s.755,14.291-2.472,20.473" transform="translate(-497.906 -859.096)" fill="none" stroke="#844490" stroke-miterlimit="10" stroke-width="4"/>
          <path id="Trazado_165195" data-name="Trazado 165195" d="M370.513,1014.163h0a50.946,50.946,0,0,1-35.943-15.658.444.444,0,1,1,.644-.612,50.061,50.061,0,0,0,35.309,15.382.444.444,0,0,1,0,.888" transform="translate(-260.2 -776.263)" fill="#844490"/>
          <path id="Trazado_165196" data-name="Trazado 165196" d="M390.384,1106.251a.442.442,0,0,1-.215-.056,56.745,56.745,0,0,1-16.464-13.877.444.444,0,0,1,.692-.557,55.851,55.851,0,0,0,16.2,13.658.444.444,0,0,1-.216.832" transform="translate(-290.669 -849.272)" fill="#844490"/>
        </g>
      </g>
      <g id="Grupo_169368" data-name="Grupo 169368" transform="translate(1046.186 967.001)">
        <g transform="matrix(1, 0, 0, 1, -26.19, -14)" filter="url(#Unión_17)">
          <path id="Unión_17-3" data-name="Unión 17" d="M10,103.4a10,10,0,0,1-10-10v-69a10,10,0,0,1,10-10H46.374L54.084,0l7.71,14.4H239.815a10,10,0,0,1,10,10v69a10,10,0,0,1-10,10Z" transform="translate(276 117.4) rotate(180)" fill="#fff"/>
        </g>
        <path id="Trazado_165294" data-name="Trazado 165294" d="M19.785,17H17.5l.844-4.875H13.926L13.074,17H10.785L12.762,5.625h2.289l-.8,4.609h4.422l.8-4.609h2.289Zm6.8,0a2.281,2.281,0,0,1-.086-.766,2.863,2.863,0,0,1-2.156.922,2.594,2.594,0,0,1-1.84-.723,2.186,2.186,0,0,1-.684-1.746,2.527,2.527,0,0,1,1.16-2.121,5.266,5.266,0,0,1,2.965-.738l1.031.016.109-.508a1.764,1.764,0,0,0,.023-.492.846.846,0,0,0-.277-.574.955.955,0,0,0-.629-.215,1.345,1.345,0,0,0-.875.254,1.231,1.231,0,0,0-.461.777l-2.211.008a2.457,2.457,0,0,1,1.113-1.965,4.312,4.312,0,0,1,2.613-.738,3.117,3.117,0,0,1,2.25.855,2.5,2.5,0,0,1,.68,2.121l-.648,4.047-.039.5a2.412,2.412,0,0,0,.133.938L28.746,17Zm-1.7-1.555a2.017,2.017,0,0,0,1.664-.828l.273-1.461-.766-.008a2.139,2.139,0,0,0-1.758.742,1.292,1.292,0,0,0-.242.633.75.75,0,0,0,.176.668A.891.891,0,0,0,24.887,15.445Zm8.641-1.234,2.406-5.664h2.375L34.223,17H32.113L30.668,8.547H32.9Zm8.383,2.945a3.677,3.677,0,0,1-1.965-.543,3.292,3.292,0,0,1-1.277-1.469,4.093,4.093,0,0,1-.328-2.059l.023-.312a5.465,5.465,0,0,1,.719-2.266,4.341,4.341,0,0,1,1.547-1.59,3.827,3.827,0,0,1,2.094-.527,2.924,2.924,0,0,1,2.473,1.2,4.117,4.117,0,0,1,.637,2.962l-.125.962h-5.18a1.814,1.814,0,0,0,.4,1.313,1.521,1.521,0,0,0,1.172.508,2.7,2.7,0,0,0,2.109-.937l1.008,1.25A3.135,3.135,0,0,1,43.84,16.77,4.5,4.5,0,0,1,41.91,17.156Zm.7-6.945a1.565,1.565,0,0,0-1.082.383,3.363,3.363,0,0,0-.848,1.383h3.031l.047-.2a2.071,2.071,0,0,0,.008-.594,1.134,1.134,0,0,0-.383-.707A1.2,1.2,0,0,0,42.613,10.211Zm11.281,3.57,2.414-5.234h2.453l-4.945,9.727a4.231,4.231,0,0,1-1.246,1.641,2.723,2.723,0,0,1-1.652.523,5.035,5.035,0,0,1-1.062-.164l.164-1.719.3.016a1.651,1.651,0,0,0,1.578-.789l.484-.9L51,8.547h2.281Zm9.117-5.391a3.39,3.39,0,0,1,1.926.574A3.234,3.234,0,0,1,66.125,10.5a4.762,4.762,0,0,1,.27,2.176,5.143,5.143,0,0,1-1.4,3.262,3.96,3.96,0,0,1-3.02,1.215,3.38,3.38,0,0,1-1.906-.566,3.222,3.222,0,0,1-1.187-1.527,4.657,4.657,0,0,1-.273-2.156,5.3,5.3,0,0,1,1.422-3.328A3.878,3.878,0,0,1,63.012,8.391Zm-2.227,5.315a1.95,1.95,0,0,0,.352,1.182,1.168,1.168,0,0,0,.945.449,1.712,1.712,0,0,0,1.594-.932,4.647,4.647,0,0,0,.539-2.531,2.122,2.122,0,0,0-.363-1.2,1.149,1.149,0,0,0-.949-.464,1.715,1.715,0,0,0-1.574.924A4.6,4.6,0,0,0,60.785,13.706Zm11.477,2.419a2.919,2.919,0,0,1-2.328,1.031,2.172,2.172,0,0,1-1.844-.875,3.2,3.2,0,0,1-.484-2.266l.914-5.469h2.2l-.93,5.5a2.174,2.174,0,0,0-.008.485.8.8,0,0,0,.867.806,2.014,2.014,0,0,0,1.7-.79l1.055-6h2.219L74.152,17H72.1Zm15.109-2.2,2.008-5.375h2.2L88.02,17H86.176l-.625-5.289L83.082,17H81.238l-.625-8.453h2.063l.133,5.32,2.414-5.32h1.594ZM96.113,17a2.281,2.281,0,0,1-.086-.766,2.863,2.863,0,0,1-2.156.922,2.594,2.594,0,0,1-1.84-.723,2.186,2.186,0,0,1-.684-1.746,2.527,2.527,0,0,1,1.16-2.121,5.266,5.266,0,0,1,2.965-.738l1.031.016.109-.508a1.764,1.764,0,0,0,.023-.492.846.846,0,0,0-.277-.574.955.955,0,0,0-.629-.215,1.345,1.345,0,0,0-.875.254,1.231,1.231,0,0,0-.461.777l-2.211.008A2.457,2.457,0,0,1,93.3,9.129a4.312,4.312,0,0,1,2.613-.738,3.117,3.117,0,0,1,2.25.855,2.5,2.5,0,0,1,.68,2.121l-.648,4.047-.039.5a2.412,2.412,0,0,0,.133.938L98.277,17Zm-1.7-1.555a2.017,2.017,0,0,0,1.664-.828l.273-1.461-.766-.008a2.139,2.139,0,0,0-1.758.742,1.292,1.292,0,0,0-.242.633.75.75,0,0,0,.176.668A.891.891,0,0,0,94.418,15.445ZM101.949,17H99.73L101.2,8.547h2.219Zm-.492-10.6a1.1,1.1,0,0,1,.344-.867,1.323,1.323,0,0,1,1.734-.039,1.1,1.1,0,0,1,.383.828,1.132,1.132,0,0,1-.324.844,1.215,1.215,0,0,1-.887.375,1.235,1.235,0,0,1-.863-.3A1.091,1.091,0,0,1,101.457,6.4Zm6.828.07-.367,2.078h1.406l-.289,1.656h-1.406l-.719,4.234a1.077,1.077,0,0,0,.063.609q.109.211.531.227.125.008.672-.039l-.156,1.727a3.706,3.706,0,0,1-1.266.18,1.985,1.985,0,0,1-1.617-.68,2.456,2.456,0,0,1-.437-1.8l.727-4.461h-1.2l.289-1.656h1.2l.359-2.078Zm4.867,10.688a3.677,3.677,0,0,1-1.965-.543,3.292,3.292,0,0,1-1.277-1.469,4.093,4.093,0,0,1-.328-2.059l.023-.312a5.465,5.465,0,0,1,.719-2.266,4.341,4.341,0,0,1,1.547-1.59,3.827,3.827,0,0,1,2.094-.527,2.924,2.924,0,0,1,2.473,1.2,4.117,4.117,0,0,1,.637,2.962l-.125.962h-5.18a1.814,1.814,0,0,0,.4,1.313,1.521,1.521,0,0,0,1.172.508,2.7,2.7,0,0,0,2.109-.937l1.008,1.25a3.135,3.135,0,0,1-1.375,1.121A4.5,4.5,0,0,1,113.152,17.156Zm.7-6.945a1.565,1.565,0,0,0-1.082.383,3.363,3.363,0,0,0-.848,1.383h3.031l.047-.2a2.071,2.071,0,0,0,.008-.594,1.134,1.134,0,0,0-.383-.707A1.2,1.2,0,0,0,113.855,10.211ZM121.8,8.383a2.4,2.4,0,0,1,1.906.945L124.535,5h2.211l-2.078,12H122.7l.125-.906a2.736,2.736,0,0,1-2.2,1.07,2.433,2.433,0,0,1-1.383-.414,2.607,2.607,0,0,1-.918-1.168,4.7,4.7,0,0,1-.355-1.7,6.4,6.4,0,0,1,.023-.953l.047-.352a6.767,6.767,0,0,1,.723-2.281,3.766,3.766,0,0,1,1.313-1.461A3.094,3.094,0,0,1,121.8,8.383Zm-1.6,4.547a6.327,6.327,0,0,0-.039,1q.078,1.375,1.109,1.4a1.885,1.885,0,0,0,1.617-.875l.6-3.359a1.248,1.248,0,0,0-1.219-.875,1.606,1.606,0,0,0-1.34.621A4.176,4.176,0,0,0,120.2,12.93Zm13.727,1.281,2.406-5.664h2.375L134.621,17h-2.109l-1.445-8.453H133.3Zm8.383,2.945a3.677,3.677,0,0,1-1.965-.543,3.292,3.292,0,0,1-1.277-1.469,4.093,4.093,0,0,1-.328-2.059l.023-.312a5.465,5.465,0,0,1,.719-2.266,4.341,4.341,0,0,1,1.547-1.59,3.827,3.827,0,0,1,2.094-.527,2.924,2.924,0,0,1,2.473,1.2,4.117,4.117,0,0,1,.637,2.962l-.125.962h-5.18a1.814,1.814,0,0,0,.4,1.313,1.521,1.521,0,0,0,1.172.508,2.7,2.7,0,0,0,2.109-.937l1.008,1.25a3.135,3.135,0,0,1-1.375,1.121A4.5,4.5,0,0,1,142.309,17.156Zm.7-6.945a1.565,1.565,0,0,0-1.082.383,3.363,3.363,0,0,0-.848,1.383h3.031l.047-.2a2.071,2.071,0,0,0,.008-.594,1.134,1.134,0,0,0-.383-.707A1.2,1.2,0,0,0,143.012,10.211Zm9.539.453a4.548,4.548,0,0,0-.742-.078,2.136,2.136,0,0,0-1.867.883L148.965,17h-2.2l1.469-8.453,2.07-.008-.2,1.031a2.325,2.325,0,0,1,1.969-1.2,3.214,3.214,0,0,1,.766.109Zm3.539,3.117L158.5,8.547h2.453l-4.945,9.727a4.231,4.231,0,0,1-1.246,1.641,2.723,2.723,0,0,1-1.652.523,5.035,5.035,0,0,1-1.062-.164l.164-1.719.3.016a1.651,1.651,0,0,0,1.578-.789l.484-.9L153.2,8.547h2.281Zm11.742-5.242-.18.961a3.112,3.112,0,0,1,2.477-1.109,2.379,2.379,0,0,1,1.3.359,1.679,1.679,0,0,1,.7.93,3.255,3.255,0,0,1,2.625-1.289,2.126,2.126,0,0,1,1.754.8,3.271,3.271,0,0,1,.5,2.234l-.016.2-.9,5.383h-2.211l.9-5.4a3.909,3.909,0,0,0,.023-.54.837.837,0,0,0-.937-.845,1.86,1.86,0,0,0-1.555.97l-.023.18L171.293,17h-2.2l.9-5.383a3.9,3.9,0,0,0,.023-.539.836.836,0,0,0-.93-.852,1.867,1.867,0,0,0-1.508.789L166.52,17h-2.2l1.461-8.453Zm15.234,7.586a2.919,2.919,0,0,1-2.328,1.031,2.172,2.172,0,0,1-1.844-.875,3.2,3.2,0,0,1-.484-2.266l.914-5.469h2.2l-.93,5.5a2.175,2.175,0,0,0-.008.485.8.8,0,0,0,.867.806,2.014,2.014,0,0,0,1.7-.79l1.055-6h2.219L184.957,17H182.9Zm7.234-.781a1.447,1.447,0,0,0,1.016-.332,1.632,1.632,0,0,0,.531-.926l2.07-.008a3.036,3.036,0,0,1-.559,1.6,3.394,3.394,0,0,1-1.344,1.109,3.847,3.847,0,0,1-1.77.375,3.123,3.123,0,0,1-2.437-1.062,3.965,3.965,0,0,1-.867-2.766l.023-.43.008-.086a5.284,5.284,0,0,1,1.391-3.27,3.761,3.761,0,0,1,2.914-1.16,3.047,3.047,0,0,1,2.27.934,3.3,3.3,0,0,1,.824,2.379h-2.055a1.73,1.73,0,0,0-.3-1.07,1.128,1.128,0,0,0-.891-.422q-1.578-.047-1.914,2.3a7.783,7.783,0,0,0-.086,1.438Q189.207,15.32,190.3,15.344Zm7.828-5.859a2.946,2.946,0,0,1,2.289-1.094,2.143,2.143,0,0,1,1.848.9,3.548,3.548,0,0,1,.441,2.379L201.816,17h-2.2l.9-5.358a2.6,2.6,0,0,0,.016-.563.885.885,0,0,0-.984-.868,1.9,1.9,0,0,0-1.562.766L196.918,17h-2.2l2.078-12H199Zm5.625,10.367-1.164-.633.57-.914a4.9,4.9,0,0,0,.641-1.57l.289-1.656h1.859l-.227,1.438A5.172,5.172,0,0,1,203.754,19.852ZM9.367,28.383a2.4,2.4,0,0,1,1.906.945L12.1,25h2.211L12.234,37H10.266l.125-.906a2.736,2.736,0,0,1-2.2,1.07A2.433,2.433,0,0,1,6.8,36.75a2.607,2.607,0,0,1-.918-1.168,4.7,4.7,0,0,1-.355-1.7,6.4,6.4,0,0,1,.023-.953l.047-.352A6.767,6.767,0,0,1,6.324,30.3a3.766,3.766,0,0,1,1.313-1.461A3.094,3.094,0,0,1,9.367,28.383Zm-1.6,4.547a6.327,6.327,0,0,0-.039,1q.078,1.375,1.109,1.4a1.885,1.885,0,0,0,1.617-.875l.6-3.359a1.248,1.248,0,0,0-1.219-.875,1.606,1.606,0,0,0-1.34.621A4.176,4.176,0,0,0,7.766,32.93Zm10.242,4.227a3.677,3.677,0,0,1-1.965-.543,3.292,3.292,0,0,1-1.277-1.469,4.093,4.093,0,0,1-.328-2.059l.023-.312a5.465,5.465,0,0,1,.719-2.266,4.341,4.341,0,0,1,1.547-1.59,3.827,3.827,0,0,1,2.094-.527,2.924,2.924,0,0,1,2.473,1.2,4.117,4.117,0,0,1,.637,2.962l-.125.962h-5.18a1.814,1.814,0,0,0,.4,1.313,1.521,1.521,0,0,0,1.172.508A2.7,2.7,0,0,0,20.3,34.4l1.008,1.25a3.135,3.135,0,0,1-1.375,1.121A4.5,4.5,0,0,1,18.008,37.156Zm.7-6.945a1.565,1.565,0,0,0-1.082.383,3.363,3.363,0,0,0-.848,1.383h3.031l.047-.2a2.071,2.071,0,0,0,.008-.594,1.134,1.134,0,0,0-.383-.707A1.2,1.2,0,0,0,18.711,30.211ZM27.352,37a2.281,2.281,0,0,1-.086-.766,2.863,2.863,0,0,1-2.156.922,2.594,2.594,0,0,1-1.84-.723,2.186,2.186,0,0,1-.684-1.746,2.527,2.527,0,0,1,1.16-2.121,5.266,5.266,0,0,1,2.965-.738l1.031.016.109-.508a1.764,1.764,0,0,0,.023-.492.846.846,0,0,0-.277-.574.955.955,0,0,0-.629-.215,1.345,1.345,0,0,0-.875.254,1.231,1.231,0,0,0-.461.777l-2.211.008a2.457,2.457,0,0,1,1.113-1.965,4.312,4.312,0,0,1,2.613-.738,3.117,3.117,0,0,1,2.25.855,2.5,2.5,0,0,1,.68,2.121l-.648,4.047-.039.5a2.412,2.412,0,0,0,.133.938L29.516,37Zm-1.7-1.555a2.017,2.017,0,0,0,1.664-.828l.273-1.461-.766-.008a2.139,2.139,0,0,0-1.758.742,1.292,1.292,0,0,0-.242.633.75.75,0,0,0,.176.668A.891.891,0,0,0,25.656,35.445Zm10.992-4.781a4.548,4.548,0,0,0-.742-.078,2.136,2.136,0,0,0-1.867.883L33.063,37h-2.2l1.469-8.453,2.07-.008-.2,1.031a2.325,2.325,0,0,1,1.969-1.2,3.214,3.214,0,0,1,.766.109Zm2.438,2.852A4.545,4.545,0,0,1,39.5,31.8a3.918,3.918,0,0,1,1.078-1.289,10.06,10.06,0,0,0,.98-.864,2,2,0,0,0,.586-1.583.8.8,0,0,0-.883-.784,1.25,1.25,0,0,0-.937.352,1.835,1.835,0,0,0-.508,1l-2.211.016A3.2,3.2,0,0,1,38.754,26.3a3.836,3.836,0,0,1,2.621-.836,3.254,3.254,0,0,1,2.3.844,2.6,2.6,0,0,1,.727,2.164,3.71,3.71,0,0,1-1.516,2.523l-1,.828a2.8,2.8,0,0,0-.875,1.688Zm-.727,2.438a1.161,1.161,0,0,1,.336-.883,1.238,1.238,0,0,1,.883-.375,1.191,1.191,0,0,1,.867.316,1.213,1.213,0,0,1,.055,1.715,1.215,1.215,0,0,1-.891.383,1.265,1.265,0,0,1-.879-.32A1.121,1.121,0,0,1,38.359,35.953Zm10.563,2.023H47.188l6.2-12.352h1.742ZM68.2,37H66.7V31.742H60.961V37h-1.5V25.625h1.5v4.891H66.7V25.625H68.2Zm7.656,0a3.036,3.036,0,0,1-.2-.891,3.225,3.225,0,0,1-2.406,1.047,2.984,2.984,0,0,1-2.051-.707,2.288,2.288,0,0,1-.8-1.793,2.39,2.39,0,0,1,1-2.051,4.733,4.733,0,0,1,2.824-.73h1.406v-.664A1.623,1.623,0,0,0,75.18,30a1.821,1.821,0,0,0-1.336-.449,2.108,2.108,0,0,0-1.3.391,1.151,1.151,0,0,0-.523.945H70.57a2,2,0,0,1,.449-1.223,3.066,3.066,0,0,1,1.219-.934,4.1,4.1,0,0,1,1.691-.344,3.342,3.342,0,0,1,2.289.73,2.635,2.635,0,0,1,.859,2.012v3.891a4.757,4.757,0,0,0,.3,1.852V37Zm-2.4-1.1a2.54,2.54,0,0,0,1.289-.352,2.127,2.127,0,0,0,.883-.914V32.9H74.5q-2.656,0-2.656,1.555a1.316,1.316,0,0,0,.453,1.063A1.742,1.742,0,0,0,73.461,35.9Zm10.8-1.141a1.064,1.064,0,0,0-.441-.91,4.249,4.249,0,0,0-1.539-.559,7.277,7.277,0,0,1-1.742-.562,2.479,2.479,0,0,1-.953-.781,1.869,1.869,0,0,1-.309-1.078,2.193,2.193,0,0,1,.879-1.758,3.432,3.432,0,0,1,2.246-.719,3.532,3.532,0,0,1,2.332.742,2.357,2.357,0,0,1,.895,1.9H84.18a1.3,1.3,0,0,0-.5-1.023,1.888,1.888,0,0,0-1.27-.43,1.976,1.976,0,0,0-1.234.344,1.082,1.082,0,0,0-.445.9.877.877,0,0,0,.414.789,5.1,5.1,0,0,0,1.5.508,7.8,7.8,0,0,1,1.754.578,2.558,2.558,0,0,1,1,.809,1.988,1.988,0,0,1,.324,1.152,2.163,2.163,0,0,1-.906,1.816,3.8,3.8,0,0,1-2.352.684,4.257,4.257,0,0,1-1.8-.359,2.922,2.922,0,0,1-1.223-1,2.42,2.42,0,0,1-.441-1.395h1.445a1.5,1.5,0,0,0,.582,1.152,2.258,2.258,0,0,0,1.434.426,2.331,2.331,0,0,0,1.316-.332A1.02,1.02,0,0,0,84.266,34.758Zm10.8,2.4a3.693,3.693,0,0,1-2.8-1.129,4.19,4.19,0,0,1-1.078-3.02v-.266a5.073,5.073,0,0,1,.48-2.246,3.748,3.748,0,0,1,1.344-1.547,3.378,3.378,0,0,1,1.871-.559,3.166,3.166,0,0,1,2.563,1.086,4.7,4.7,0,0,1,.914,3.109v.6H92.633a3,3,0,0,0,.73,2.02,2.3,2.3,0,0,0,1.777.77,2.517,2.517,0,0,0,1.3-.312,3.259,3.259,0,0,0,.93-.828l.883.688A3.55,3.55,0,0,1,95.063,37.156Zm-.18-7.578a1.928,1.928,0,0,0-1.469.637A3.1,3.1,0,0,0,92.68,32h4.234v-.109a2.753,2.753,0,0,0-.594-1.707A1.815,1.815,0,0,0,94.883,29.578Zm10.07,5.18a1.064,1.064,0,0,0-.441-.91,4.249,4.249,0,0,0-1.539-.559,7.277,7.277,0,0,1-1.742-.562,2.479,2.479,0,0,1-.953-.781,1.869,1.869,0,0,1-.309-1.078,2.193,2.193,0,0,1,.879-1.758,3.432,3.432,0,0,1,2.246-.719,3.532,3.532,0,0,1,2.332.742,2.357,2.357,0,0,1,.895,1.9h-1.453a1.3,1.3,0,0,0-.5-1.023,1.888,1.888,0,0,0-1.27-.43,1.976,1.976,0,0,0-1.234.344,1.082,1.082,0,0,0-.445.9.877.877,0,0,0,.414.789,5.1,5.1,0,0,0,1.5.508,7.8,7.8,0,0,1,1.754.578,2.558,2.558,0,0,1,1,.809,1.988,1.988,0,0,1,.324,1.152,2.163,2.163,0,0,1-.906,1.816,3.8,3.8,0,0,1-2.352.684,4.257,4.257,0,0,1-1.8-.359,2.922,2.922,0,0,1-1.223-1A2.42,2.42,0,0,1,99.68,34.4h1.445a1.5,1.5,0,0,0,.582,1.152,2.258,2.258,0,0,0,1.434.426,2.331,2.331,0,0,0,1.316-.332A1.02,1.02,0,0,0,104.953,34.758Zm10.469-1.891a5.062,5.062,0,0,1-.883,3.109,2.829,2.829,0,0,1-2.391,1.18,3.1,3.1,0,0,1-2.422-.977v4.07h-1.445v-11.7h1.32l.07.938a2.977,2.977,0,0,1,2.453-1.094,2.882,2.882,0,0,1,2.41,1.148,5.117,5.117,0,0,1,.887,3.2Zm-1.445-.164a3.735,3.735,0,0,0-.609-2.258,1.963,1.963,0,0,0-1.672-.828,2.125,2.125,0,0,0-1.969,1.164V34.82a2.129,2.129,0,0,0,1.984,1.156,1.954,1.954,0,0,0,1.652-.824A4.077,4.077,0,0,0,113.977,32.7Zm6.789,4.453a3.693,3.693,0,0,1-2.8-1.129,4.19,4.19,0,0,1-1.078-3.02v-.266a5.073,5.073,0,0,1,.48-2.246,3.748,3.748,0,0,1,1.344-1.547,3.378,3.378,0,0,1,1.871-.559,3.166,3.166,0,0,1,2.563,1.086,4.7,4.7,0,0,1,.914,3.109v.6h-5.727a3,3,0,0,0,.73,2.02,2.3,2.3,0,0,0,1.777.77,2.517,2.517,0,0,0,1.3-.312,3.259,3.259,0,0,0,.93-.828l.883.688A3.55,3.55,0,0,1,120.766,37.156Zm-.18-7.578a1.928,1.928,0,0,0-1.469.637A3.1,3.1,0,0,0,118.383,32h4.234v-.109a2.753,2.753,0,0,0-.594-1.707A1.815,1.815,0,0,0,120.586,29.578Zm9.234.266a4.331,4.331,0,0,0-.711-.055A1.9,1.9,0,0,0,127.18,31v6h-1.445V28.547h1.406l.023.977a2.251,2.251,0,0,1,2.016-1.133,1.477,1.477,0,0,1,.641.109ZM136.055,37a3.036,3.036,0,0,1-.2-.891,3.225,3.225,0,0,1-2.406,1.047,2.984,2.984,0,0,1-2.051-.707,2.287,2.287,0,0,1-.8-1.793,2.39,2.39,0,0,1,1-2.051,4.733,4.733,0,0,1,2.824-.73h1.406v-.664A1.623,1.623,0,0,0,135.375,30a1.821,1.821,0,0,0-1.336-.449,2.107,2.107,0,0,0-1.3.391,1.151,1.151,0,0,0-.523.945h-1.453a2,2,0,0,1,.449-1.223,3.066,3.066,0,0,1,1.219-.934,4.1,4.1,0,0,1,1.691-.344,3.342,3.342,0,0,1,2.289.73,2.635,2.635,0,0,1,.859,2.012v3.891a4.757,4.757,0,0,0,.3,1.852V37Zm-2.4-1.1a2.54,2.54,0,0,0,1.289-.352,2.127,2.127,0,0,0,.883-.914V32.9H134.7q-2.656,0-2.656,1.555a1.316,1.316,0,0,0,.453,1.063A1.742,1.742,0,0,0,133.656,35.9Zm5.531-3.2a4.952,4.952,0,0,1,.922-3.129,3.137,3.137,0,0,1,4.766-.168V25h1.445V37h-1.328l-.07-.906a2.943,2.943,0,0,1-2.414,1.063,2.887,2.887,0,0,1-2.395-1.2,5.008,5.008,0,0,1-.926-3.141Zm1.445.164a3.749,3.749,0,0,0,.594,2.25,1.919,1.919,0,0,0,1.641.813,2.108,2.108,0,0,0,2.008-1.234V30.813a2.125,2.125,0,0,0-1.992-1.2,1.929,1.929,0,0,0-1.656.82A4.128,4.128,0,0,0,140.633,32.867Zm7.547-.172a4.993,4.993,0,0,1,.488-2.234,3.642,3.642,0,0,1,1.359-1.531,3.7,3.7,0,0,1,1.988-.539,3.565,3.565,0,0,1,2.793,1.2,4.6,4.6,0,0,1,1.066,3.18v.1a5.036,5.036,0,0,1-.473,2.215,3.589,3.589,0,0,1-1.352,1.527,3.743,3.743,0,0,1-2.02.547,3.556,3.556,0,0,1-2.785-1.2A4.575,4.575,0,0,1,148.18,32.8Zm1.453.172a3.616,3.616,0,0,0,.652,2.258,2.211,2.211,0,0,0,3.5-.012,3.954,3.954,0,0,0,.648-2.418,3.61,3.61,0,0,0-.66-2.254,2.1,2.1,0,0,0-1.754-.863,2.075,2.075,0,0,0-1.727.852A3.925,3.925,0,0,0,149.633,32.867Zm13.375-4.32.039.938a3.122,3.122,0,0,1,2.508-1.094,2.417,2.417,0,0,1,2.414,1.359,3.2,3.2,0,0,1,1.1-.984,3.242,3.242,0,0,1,1.6-.375q2.781,0,2.828,2.945V37h-1.445V31.422a1.941,1.941,0,0,0-.414-1.355,1.823,1.823,0,0,0-1.391-.449,1.917,1.917,0,0,0-1.336.48,1.949,1.949,0,0,0-.617,1.293V37h-1.453V31.461a1.613,1.613,0,0,0-1.8-1.844,1.934,1.934,0,0,0-1.945,1.211V37h-1.445V28.547Zm17.883,7.617a3.07,3.07,0,0,1-2.477.992,2.628,2.628,0,0,1-2.059-.785,3.4,3.4,0,0,1-.715-2.324v-5.5h1.445v5.461q0,1.922,1.563,1.922a2.163,2.163,0,0,0,2.2-1.234V28.547H182.3V37h-1.375Zm6.992-.187a2.082,2.082,0,0,0,1.352-.469,1.649,1.649,0,0,0,.641-1.172h1.367a2.621,2.621,0,0,1-.5,1.383,3.293,3.293,0,0,1-1.23,1.047,3.55,3.55,0,0,1-1.629.391A3.482,3.482,0,0,1,185.137,36a4.59,4.59,0,0,1-1.02-3.152v-.242a5.089,5.089,0,0,1,.453-2.2,3.451,3.451,0,0,1,1.3-1.492,3.7,3.7,0,0,1,2-.531,3.39,3.39,0,0,1,2.363.852,3.043,3.043,0,0,1,1,2.211h-1.367a1.992,1.992,0,0,0-.621-1.348,1.932,1.932,0,0,0-1.379-.527,2.023,2.023,0,0,0-1.707.793,3.724,3.724,0,0,0-.605,2.293v.273a3.65,3.65,0,0,0,.6,2.25A2.033,2.033,0,0,0,187.883,35.977Zm6.43-6.406a3.073,3.073,0,0,1,2.5-1.18q2.68,0,2.7,3.023V37H198.07V31.406a1.946,1.946,0,0,0-.418-1.352,1.675,1.675,0,0,0-1.277-.437,2.086,2.086,0,0,0-1.234.375,2.546,2.546,0,0,0-.828.984V37h-1.445V25h1.445ZM201.3,32.7a4.993,4.993,0,0,1,.488-2.234,3.642,3.642,0,0,1,1.359-1.531,3.7,3.7,0,0,1,1.988-.539,3.565,3.565,0,0,1,2.793,1.2,4.6,4.6,0,0,1,1.066,3.18v.1a5.036,5.036,0,0,1-.473,2.215,3.589,3.589,0,0,1-1.352,1.527,3.743,3.743,0,0,1-2.02.547,3.556,3.556,0,0,1-2.785-1.2A4.575,4.575,0,0,1,201.3,32.8Zm1.453.172a3.616,3.616,0,0,0,.652,2.258,2.211,2.211,0,0,0,3.5-.012,3.954,3.954,0,0,0,.648-2.418,3.61,3.61,0,0,0-.66-2.254,2.1,2.1,0,0,0-1.754-.863,2.075,2.075,0,0,0-1.727.852A3.925,3.925,0,0,0,202.75,32.867Zm8.008,6.4-.82-.562a3.77,3.77,0,0,0,.766-2.109v-1.3h1.414v1.133A3.559,3.559,0,0,1,211.73,38,3.7,3.7,0,0,1,210.758,39.266ZM79.047,52.7a4.961,4.961,0,0,1,.914-3.152,3.226,3.226,0,0,1,4.82-.152l.063-.852h1.328v11.7H84.727V56.219a3.033,3.033,0,0,1-2.328.938,2.915,2.915,0,0,1-2.441-1.191,5.072,5.072,0,0,1-.91-3.16Zm1.445.164a3.761,3.761,0,0,0,.613,2.281,1.951,1.951,0,0,0,1.652.828,2.164,2.164,0,0,0,1.969-1.141V50.7a2.171,2.171,0,0,0-1.953-1.117,1.965,1.965,0,0,0-1.664.832A4.094,4.094,0,0,0,80.492,52.867Zm13.219,3.3a3.07,3.07,0,0,1-2.477.992,2.628,2.628,0,0,1-2.059-.785,3.4,3.4,0,0,1-.715-2.324v-5.5h1.445v5.461q0,1.922,1.563,1.922a2.163,2.163,0,0,0,2.2-1.234V48.547h1.445V57H93.742Zm7.109.992a3.693,3.693,0,0,1-2.8-1.129,4.19,4.19,0,0,1-1.078-3.02v-.266a5.073,5.073,0,0,1,.48-2.246,3.748,3.748,0,0,1,1.344-1.547,3.378,3.378,0,0,1,1.871-.559,3.166,3.166,0,0,1,2.563,1.086,4.7,4.7,0,0,1,.914,3.109v.6H98.391a3,3,0,0,0,.73,2.02,2.3,2.3,0,0,0,1.777.77,2.517,2.517,0,0,0,1.3-.312,3.259,3.259,0,0,0,.93-.828l.883.688A3.55,3.55,0,0,1,100.82,57.156Zm-.18-7.578a1.928,1.928,0,0,0-1.469.637A3.1,3.1,0,0,0,98.438,52h4.234v-.109a2.753,2.753,0,0,0-.594-1.707A1.815,1.815,0,0,0,100.641,49.578Zm9.234.266a4.331,4.331,0,0,0-.711-.055A1.9,1.9,0,0,0,107.234,51v6h-1.445V48.547H107.2l.023.977a2.251,2.251,0,0,1,2.016-1.133,1.477,1.477,0,0,1,.641.109Zm2.9,7.156h-1.445V48.547h1.445Zm-1.562-10.7a.863.863,0,0,1,.215-.594.807.807,0,0,1,.637-.242.819.819,0,0,1,.641.242.854.854,0,0,1,.219.594.826.826,0,0,1-.219.586.834.834,0,0,1-.641.234.821.821,0,0,1-.637-.234A.834.834,0,0,1,111.211,46.3Zm3.523,6.4a4.952,4.952,0,0,1,.922-3.129,3.137,3.137,0,0,1,4.766-.168V45h1.445V57h-1.328l-.07-.906a2.943,2.943,0,0,1-2.414,1.063,2.887,2.887,0,0,1-2.395-1.2,5.008,5.008,0,0,1-.926-3.141Zm1.445.164a3.749,3.749,0,0,0,.594,2.25,1.92,1.92,0,0,0,1.641.813,2.108,2.108,0,0,0,2.008-1.234V50.813a2.125,2.125,0,0,0-1.992-1.2,1.929,1.929,0,0,0-1.656.82A4.128,4.128,0,0,0,116.18,52.867Zm7.547-.172a4.993,4.993,0,0,1,.488-2.234,3.643,3.643,0,0,1,1.359-1.531,3.7,3.7,0,0,1,1.988-.539,3.565,3.565,0,0,1,2.793,1.2,4.6,4.6,0,0,1,1.066,3.18v.1a5.036,5.036,0,0,1-.473,2.215,3.589,3.589,0,0,1-1.352,1.527,3.743,3.743,0,0,1-2.02.547,3.556,3.556,0,0,1-2.785-1.2,4.575,4.575,0,0,1-1.066-3.164Zm1.453.172a3.616,3.616,0,0,0,.652,2.258,2.211,2.211,0,0,0,3.5-.012,3.954,3.954,0,0,0,.648-2.418,3.61,3.61,0,0,0-.66-2.254,2.1,2.1,0,0,0-1.754-.863,2.075,2.075,0,0,0-1.727.852A3.925,3.925,0,0,0,125.18,52.867Zm9.75.917a4.663,4.663,0,0,1,.211-1.466,3.761,3.761,0,0,1,.8-1.193l1.023-1.053a2.36,2.36,0,0,0,.656-1.59,1.815,1.815,0,0,0-.43-1.282,1.62,1.62,0,0,0-1.25-.464,1.881,1.881,0,0,0-1.281.422,1.426,1.426,0,0,0-.484,1.133h-1.445a2.632,2.632,0,0,1,.9-2.043,3.374,3.374,0,0,1,2.309-.777,3.185,3.185,0,0,1,2.3.792,2.87,2.87,0,0,1,.824,2.172,3.926,3.926,0,0,1-1.266,2.691l-.852.842a2.623,2.623,0,0,0-.57,1.818Zm-.062,2.482a.861.861,0,0,1,.215-.6.81.81,0,0,1,.637-.241.822.822,0,0,1,.641.241.852.852,0,0,1,.219.6.824.824,0,0,1-.219.588.837.837,0,0,1-.641.233.774.774,0,0,1-.852-.82Z" transform="translate(21 11.999)" fill="#777"/>
      </g>
      <g id="Grupo_170185" data-name="Grupo 170185" transform="translate(1020 1169)">
        <g id="Grupo_170212" data-name="Grupo 170212">
          <g id="Grupo_170192" data-name="Grupo 170192">
            <g id="Grupo_170213" data-name="Grupo 170213">
              <path id="Trazado_165117" data-name="Trazado 165117" d="M80.189,157.833S50.553,193.24,50.814,245.957l26.228,1.049,1.093,14.949,103.816-1.574s14.163,2.361,13.638-15.474a122.479,122.479,0,0,0-6.174-33.571s25.582,7.343,29.517-11.016S194.8,143.933,194.8,143.933s-12.731-11.142-21.769-8.918-92.845,22.818-92.845,22.818" transform="translate(-12.683 -33.627)" fill="#ffa129"/>
              <path id="Trazado_165118" data-name="Trazado 165118" d="M86.977,121.671c-7.638-2.162-15.932-.825-23.267,2.211s-13.876,7.678-20.3,12.337a83.22,83.22,0,0,0-11.884,9.828,74.517,74.517,0,0,0-7.8,10.25A279.173,279.173,0,0,0,0,200.236c.912,1.228,2.912,1.1,4.106.144a8.634,8.634,0,0,0,2.324-3.89c1.321-.25,2.063,1.555,1.87,2.885s-.755,2.8-.035,3.931c.793,1.251,2.762,1.207,3.933.3a8.068,8.068,0,0,0,2.256-3.757,4.512,4.512,0,0,1,6.146,3.48c.154,1.691-.665,3.552.2,5.012a3.187,3.187,0,0,0,4.207.822,6.223,6.223,0,0,0,2.632-3.808c.185-.637.4-1.386,1.027-1.611a1.98,1.98,0,0,1,1.459.262l4.2,1.962c-2.094,2.594-1.4,7.592,1.917,7.958s5.009-3.763,6-6.955c1.759-5.673,4.7-10.9,7.611-16.07L70.114,154.94c1.087,1.273,2.889,1.61,4.546,1.853a275.739,275.739,0,0,0,84.86-.782,7.957,7.957,0,0,0,4.1-1.514c1.43-1.27,1.762-3.347,1.923-5.253a66.972,66.972,0,0,0-7.069-35.9A328.636,328.636,0,0,1,87.441,120.1" transform="translate(0 -28.291)" fill="#6571c3"/>
              <path id="Trazado_165119" data-name="Trazado 165119" d="M102.371,79.706c-4.472-.265-9.613-.27-12.584,3.082a11.235,11.235,0,0,0-2.413,6.13,13.72,13.72,0,0,0,1.535,8.934c1.877,3.026,5.31,4.819,8.8,5.509a39.145,39.145,0,0,0,10.648.133c1.748,9.235,9.605,16.451,18.449,19.633s18.552,2.916,27.876,1.728c4.905-.625,10.038-1.61,13.807-4.813a21.387,21.387,0,0,0,4.592-5.929,35.848,35.848,0,0,0,3.985-10.379,57.369,57.369,0,0,0,.84-10.711q.093-7.178.023-14.357c-.049-5.062-.166-10.179-1.438-15.079a32.742,32.742,0,0,0-3.414-8.273,19.772,19.772,0,0,0-4.3-5.317,25.528,25.528,0,0,0-7.209-3.837c-6.152-2.395-12.64-4.341-19.237-4.067-8.9.369-17.333,4.864-23.5,11.285s-10.227,14.645-12.775,23.18a8.578,8.578,0,0,1-1.505,3.319,2.746,2.746,0,0,1-3.289.807" transform="translate(-21.771 -10.5)" fill="#fdc3b2"/>
              <path id="Trazado_165120" data-name="Trazado 165120" d="M210.562,165.977s16.225,26.665,18.728,49.744c0,0,6.371,1.54,10.1,1.435s-11-58.348-14.414-62.544-10.755-1.423-10.755-1.423Z" transform="translate(-52.557 -38.012)" fill="#f55131"/>
              <path id="Trazado_165121" data-name="Trazado 165121" d="M230.973,145.161c0,8.193-8.278,14.834-18.49,14.834s-18.49-11.326-18.49-19.519,8.278-10.148,18.49-10.148,18.49,6.641,18.49,14.834" transform="translate(-48.422 -32.53)" fill="#ffc2b0"/>
              <path id="Trazado_165122" data-name="Trazado 165122" d="M202.843,140.195a75.83,75.83,0,0,0-6.135,9.907c-.665,1.285,1.277,2.425,1.944,1.136a75.791,75.791,0,0,1,6.134-9.907,1.133,1.133,0,0,0-.4-1.54,1.151,1.151,0,0,0-1.54.4" transform="translate(-49.065 -34.854)" fill="#b86740"/>
              <path id="Trazado_165123" data-name="Trazado 165123" d="M215.515,152.446a75.829,75.829,0,0,0-6.135,9.907c-.665,1.285,1.277,2.425,1.944,1.136a75.791,75.791,0,0,1,6.134-9.907,1.133,1.133,0,0,0-.4-1.54,1.151,1.151,0,0,0-1.54.4" transform="translate(-52.228 -37.912)" fill="#b86740"/>
              <path id="Trazado_165124" data-name="Trazado 165124" d="M148.957,42.257a10.405,10.405,0,0,1,4.673,7.769,21.713,21.713,0,0,1-1.245,9.235,22.573,22.573,0,0,0-1.4,5.618,5.857,5.857,0,0,0,2.109,5.148c1.381.969,3.185,1.016,4.871,1.028,6.433.046,13.749-.291,17.917-5.191a3.945,3.945,0,0,0,.43,3.083c5.113.965,10.453-1.524,13.909-5.413s5.266-8.986,6.268-14.092a24.912,24.912,0,0,0,.377-9.234c-1.331-7.29-7.568-12.8-14.307-15.882-3.582-1.639-8.259-2.588-11.107.134-.254-6.741-4.291-12.734-8.738-17.805-2.6-2.96-5.662-5.9-9.55-6.528-3.947-.636-7.827,1.259-11.287,3.263-4.488,2.6-8.961,5.632-11.627,10.082a11.5,11.5,0,0,0-8.437-5.365,23.045,23.045,0,0,0-10.2,1.2c-5.61,1.759-11.137,4.813-14.141,9.867s-2.638,12.4,1.993,16.018c-5.886,1.737-12.319,3.885-15.433,9.174A17.262,17.262,0,0,0,81.972,51c-.543,4.31.053,9.081,3.046,12.229,3.961,4.165,10.5,4.1,16.242,3.74a50.56,50.56,0,0,0,.993,13.333,7.239,7.239,0,0,0,1.838,4.009c2.2,2,5.787.847,8.125-.988a18.484,18.484,0,0,0,6.613-17.547c1.194,3.743,4.771,6.395,8.6,7.278a21.948,21.948,0,0,0,11.6-.988c3.538-1.148,7.066-2.914,9.2-5.959a16.2,16.2,0,0,0,2.5-9,29.969,29.969,0,0,0-3.993-15.56,1.754,1.754,0,0,1,1.491.08" transform="translate(-20.416 0)" fill="#271d23"/>
              <path id="Trazado_165125" data-name="Trazado 165125" d="M115.222,180.376l-15.474,79.6v13.234l17.312-.263s-5.248-44.738-2.362-63.213,3.41-19.523,3.672-22.671a49.741,49.741,0,0,0,0-6.687Z" transform="translate(-24.898 -45.023)" fill="#f55131"/>
              <path id="Trazado_165126" data-name="Trazado 165126" d="M166.065,171.466c.581,12.862.6,25.74.4,38.611-.209,12.921-.617,25.839-.973,38.757q-.3,10.876-.6,21.75a1.126,1.126,0,0,0,2.251,0q.531-19.245,1.06-38.492c.354-12.933.68-25.869.627-38.808-.029-7.275-.183-14.55-.511-21.818-.066-1.443-2.317-1.451-2.251,0" transform="translate(-41.157 -42.528)" fill="#120000"/>
              <path id="Trazado_165127" data-name="Trazado 165127" d="M10.6,204.849a125.605,125.605,0,0,1,37.223,11.23A49.867,49.867,0,0,1,52,210.253q-18.815-7.993-37.112-17.14L9.283,201.9c-.51.8-.964,1.989-.211,2.564" transform="translate(-2.165 -48.202)" fill="#bcc4ac"/>
              <path id="Trazado_165128" data-name="Trazado 165128" d="M28.231,170.387c5.41,4.041,11.893,6.315,18.052,9.085s12.315,6.3,16.007,11.953c1.721-.717,2.507-2.835,2.262-4.683a12.093,12.093,0,0,0-2.333-5.025A126.227,126.227,0,0,0,39.19,156.182,21.387,21.387,0,0,0,27.932,170.77" transform="translate(-6.972 -38.984)" fill="#bcc4ac"/>
              <path id="Trazado_165129" data-name="Trazado 165129" d="M58.955,141.537,82.275,164.8a6.71,6.71,0,0,0,1.387-6.256,25.1,25.1,0,0,0-2.743-6.084c-3.442-6.378-5.74-13.3-8.019-20.176a66.5,66.5,0,0,0-14.486,9.123" transform="translate(-14.58 -33.019)" fill="#bcc4ac"/>
              <path id="Trazado_165130" data-name="Trazado 165130" d="M95.714,125.862C91,134.305,90.569,144.416,90.7,154.084a7.566,7.566,0,0,0,.641,3.571c.864,1.575,2.68,2.324,4.361,2.958a3.955,3.955,0,0,0,2.9.308c1.339-.58,1.588-2.34,1.636-3.8q.449-13.733.1-27.476a3.71,3.71,0,0,0-.264-1.554c-.84-1.718-3.413-1.192-5.183-1.914" transform="translate(-22.634 -31.416)" fill="#bcc4ac"/>
              <path id="Trazado_165131" data-name="Trazado 165131" d="M127.506,141.381a101.96,101.96,0,0,0-.627,26.678l13.882-.235a.957.957,0,0,0,1.139-.942,59.374,59.374,0,0,0,1.5-15.028,2.95,2.95,0,0,0-.306-1.47,3.02,3.02,0,0,0-1.33-1l-14.014-6.92" transform="translate(-31.522 -35.289)" fill="#bcc4ac"/>
              <path id="Trazado_165132" data-name="Trazado 165132" d="M175.529,150.483a52.656,52.656,0,0,0,2.3,15.883,1.087,1.087,0,0,0,1.45.991l11.892-1.675a1.43,1.43,0,0,0,.867-.329,1.413,1.413,0,0,0,.284-.888,66.731,66.731,0,0,0-1.245-19.262,27.682,27.682,0,0,1-9.474,3.811c-2.074.413-4.247.6-6.107,1.612" transform="translate(-43.806 -36.243)" fill="#bcc4ac"/>
              <path id="Trazado_165133" data-name="Trazado 165133" d="M202.861,37.327c10.779-2.034,19.66,7.5,18.745,18.082A94.864,94.864,0,0,1,220.79,65c-.491-3.18-.733-6.392-.94-9.549-.224-9.832-7.075-17.335-16.989-18.122" transform="translate(-50.635 -9.248)" fill="#fff"/>
              <path id="Trazado_165134" data-name="Trazado 165134" d="M110.247,36.281c-2.953-5.824.783-14.03,7.659-14.45a26.859,26.859,0,0,1,5.976.813c-1.936.609-4.013.513-5.735.94-5.619,1.355-7.988,7.293-7.9,12.7" transform="translate(-27.264 -5.446)" fill="#fff"/>
              <path id="Trazado_165135" data-name="Trazado 165135" d="M181.873,110.389a4.757,4.757,0,0,1,3.147-4.367c2.358-1.021,5.146-.63,7.614-.352a1.132,1.132,0,0,0,1.126-1.126,1.152,1.152,0,0,0-1.126-1.126c-3.022-.34-6.255-.625-9.059.809a6.838,6.838,0,0,0-3.954,6.161c.079,1.441,2.33,1.45,2.251,0" transform="translate(-44.832 -25.745)" fill="#271d23"/>
              <path id="Trazado_165136" data-name="Trazado 165136" d="M155.813,108.528a6.831,6.831,0,0,0-5.328-4.915c-3.1-.708-6.193.416-9.045,1.527a1.159,1.159,0,0,0-.786,1.384,1.134,1.134,0,0,0,1.384.786c2.319-.9,4.944-2.016,7.488-1.6a4.746,4.746,0,0,1,4.116,3.416c.3,1.417,2.467.817,2.171-.6" transform="translate(-35.098 -25.807)" fill="#271d23"/>
              <path id="Trazado_165137" data-name="Trazado 165137" d="M168.82,107.8q.546,2.683,1.091,5.367.267,1.316.534,2.631l.257,1.263a3.128,3.128,0,0,0,.128.631.213.213,0,0,1,.025.179q.174-.493.89-.347l.4.4-.068-.089a1.164,1.164,0,0,0-1.54-.4,1.134,1.134,0,0,0-.4,1.541,1.549,1.549,0,0,0,1.654.684,1.712,1.712,0,0,0,1.238-1.18,3.774,3.774,0,0,0-.113-1.805l-.385-1.894-1.54-7.577a1.126,1.126,0,0,0-2.171.6" transform="translate(-42.131 -26.552)" fill="#b86740"/>
              <path id="Trazado_165138" data-name="Trazado 165138" d="M163.75,126.037a5.153,5.153,0,0,0-3.013,4.35c0,3.025,2.937,2.723,7.158,2.723.993,0,1.966.015,2.878,0a24.3,24.3,0,0,0-1.84-3.856c-.954-1.654-3.259-2.649-5.183-3.218" transform="translate(-40.121 -31.459)" fill="#fc502a"/>
              <path id="Trazado_165139" data-name="Trazado 165139" d="M177.025,130.012c0-3.025-3.422-5.477-7.643-5.477a9.691,9.691,0,0,0-4.631,1.127c1.924.57,4.228,1.565,5.183,3.218a24.3,24.3,0,0,1,1.84,3.856c2.963-.045,5.251-.411,5.251-2.725" transform="translate(-41.123 -31.085)" fill="#232124"/>
              <g id="Grupo_170187" data-name="Grupo 170187" transform="translate(87.35 86.484)" opacity="0.3">
                <g id="Grupo_170186" data-name="Grupo 170186">
                  <g id="Grupo_170185-2" data-name="Grupo 170185" clip-path="url(#clip-path-3)">
                    <path id="Trazado_165140" data-name="Trazado 165140" d="M117.652,125.625c1.961,4.511,4.64,8.453,8.845,11.128a39.873,39.873,0,0,0,7.154,3.965,41.253,41.253,0,0,0,6.5,1.493,18.716,18.716,0,0,0,2.918-10.173c0-9.271-6.38-16.786-14.25-16.786-5.329,0-9.97,3.447-12.415,8.549a6.092,6.092,0,0,1,1.245,1.825" transform="translate(-116.406 -115.251)" fill="#f95032"/>
                  </g>
                </g>
              </g>
              <g id="Grupo_170190" data-name="Grupo 170190" transform="translate(138.845 86.484)" opacity="0.3">
                <g id="Grupo_170189" data-name="Grupo 170189">
                  <g id="Grupo_170188" data-name="Grupo 170188" clip-path="url(#clip-path-4)">
                    <path id="Trazado_165141" data-name="Trazado 165141" d="M194.137,138.091c4.329-3.117,7.484-7,8.3-12.342a58.929,58.929,0,0,0,.461-10.421c-.548-.05-1.1-.076-1.665-.076-8.951,0-16.207,6.5-16.207,14.52a14,14,0,0,0,6.2,11.41,10.854,10.854,0,0,1,2.9-3.09" transform="translate(-185.029 -115.251)" fill="#f95032"/>
                  </g>
                </g>
              </g>
              <path id="Trazado_165142" data-name="Trazado 165142" d="M173.767,210.569a9.048,9.048,0,1,1-9.048-9.048,9.048,9.048,0,0,1,9.048,9.048" transform="translate(-38.856 -50.301)" fill="#f9eee1"/>
              <path id="Trazado_165143" data-name="Trazado 165143" d="M158.656,256.529c0-3.549,4.665-6.426,10.419-6.426s10.42,2.877,10.42,6.426-4.665,6.426-10.42,6.426-10.419-2.877-10.419-6.426" transform="translate(-39.601 -62.427)" fill="#f9eee1"/>
              <path id="Trazado_165144" data-name="Trazado 165144" d="M226.755,104.465s4.551,5.534,5.511,4.186,9.856-15.1,9.856-15.1-7.549-4.314-7.684-3.236-7.683,14.147-7.683,14.147" transform="translate(-56.599 -22.5)" fill="#3c3fa7"/>
              <path id="Trazado_165145" data-name="Trazado 165145" d="M241.593,117.966l5.155,6.922,20.106-9.8L259.121,104.8Z" transform="translate(-60.303 -26.159)" fill="#3c3fa7"/>
              <path id="Trazado_165146" data-name="Trazado 165146" d="M253.272,138.97l6.262,3.426,10.31,3.651v-9.125Z" transform="translate(-63.218 -34.176)" fill="#3c3fa7"/>
              <path id="Trazado_165147" data-name="Trazado 165147" d="M68.576,101.072s-4.21,5.121-5.1,3.873-9.12-13.969-9.12-13.969,6.985-3.991,7.11-2.993,7.109,13.09,7.109,13.09" transform="translate(-13.568 -21.921)" fill="#3c3fa7"/>
              <path id="Trazado_165148" data-name="Trazado 165148" d="M51.8,113.564l-4.77,6.4-18.6-9.064,7.155-9.523Z" transform="translate(-7.096 -25.305)" fill="#3c3fa7"/>
              <path id="Trazado_165149" data-name="Trazado 165149" d="M43.669,133l-5.794,3.17-9.541,3.378V131.1Z" transform="translate(-7.072 -32.724)" fill="#3c3fa7"/>
              <path id="Trazado_165150" data-name="Trazado 165150" d="M91.993,293.01c0,6.519-9.217,11.8-20.586,11.8s-20.587-5.284-20.587-11.8,9.217-11.8,20.587-11.8,20.586,5.284,20.586,11.8" transform="translate(-12.685 -70.19)" fill="#ffc0b2"/>
              <path id="Trazado_165151" data-name="Trazado 165151" d="M84.558,295.485a76.038,76.038,0,0,0,2.887,11.29c.463,1.364,2.638.779,2.171-.6a75.9,75.9,0,0,1-2.887-11.29,1.135,1.135,0,0,0-1.384-.786,1.151,1.151,0,0,0-.786,1.384" transform="translate(-21.101 -73.4)" fill="#b86740"/>
              <path id="Trazado_165152" data-name="Trazado 165152" d="M58.315,298.656a74.4,74.4,0,0,0,3.21,9.11,1.133,1.133,0,0,0,1.541.4,1.156,1.156,0,0,0,.4-1.54,69.914,69.914,0,0,1-2.984-8.572,1.127,1.127,0,0,0-2.171.6" transform="translate(-14.544 -74.198)" fill="#b86740"/>
              <path id="Trazado_165153" data-name="Trazado 165153" d="M59.778,267.942H96.065L99.537,219.5" transform="translate(-14.921 -54.788)" fill="#ffa129"/>
            </g>
          </g>
        </g>
      </g>
      <g id="Grupo_169372" data-name="Grupo 169372" transform="translate(1201 1199.627)">
        <g transform="matrix(1, 0, 0, 1, -181, -246.63)" filter="url(#Unión_17-2)">
          <path id="Unión_17-4" data-name="Unión 17" d="M24.585,43a16,16,0,0,1-16-16V24.895L0,21.5l8.586-3.395V16a16,16,0,0,1,16-16H95a16,16,0,0,1,16,16V27A16,16,0,0,1,95,43Z" transform="translate(181 246.63)" fill="#fff"/>
        </g>
        <text id="Brrr_Brrr" data-name="Brrr Brrr" transform="translate(24 12)" fill="#3c3fa7" font-size="16" font-family="Roboto-BoldItalic, Roboto" font-weight="700" font-style="italic"><tspan x="0" y="17">Brrr Brrr</tspan></text>
      </g>
    </g>
  </g>
</svg>
