<svg xmlns="http://www.w3.org/2000/svg" xmlns:xlink="http://www.w3.org/1999/xlink" width="190" height="163" viewBox="0 0 190 163">
  <defs>
    <clipPath id="clip-path">
      <rect id="Rect치ngulo_42768" data-name="Rect치ngulo 42768" width="129.708" height="106.931" fill="none"/>
    </clipPath>
  </defs>
  <g id="Grupo_169828" data-name="Grupo 169828" transform="translate(-600 -1103)">
    <rect id="Rect치ngulo_42579" data-name="Rect치ngulo 42579" width="190" height="163" rx="18" transform="translate(600 1103)" fill="#ffbfc1"/>
    <g id="Grupo_169827" data-name="Grupo 169827" transform="translate(630.646 1130.235)">
      <g id="Grupo_169826" data-name="Grupo 169826" clip-path="url(#clip-path)">
        <path id="Trazado_162724" data-name="Trazado 162724" d="M146.482,87.582c1.864,1.583,2.667,3.372,2.192,5.619-.106.5.18.826.405,1.2,3.178,5.245,3.442,10.64.388,15.96s-7.867,7.81-13.993,7.71a7.148,7.148,0,0,1-2.715-.4c-1.979-.876-3.793-.465-5.786.032A20.79,20.79,0,0,1,101.446,99.84a2.075,2.075,0,0,1-.042-.392c.121-1.438-.441-2.006-1.967-2.257a5.274,5.274,0,0,1,.984-10.378c.274-.022.842.3.771-.322-.076-.673-.627-.247-.934-.206-.648.086-1.277.307-1.922.419a1.543,1.543,0,0,1-2.006-1.214,1.442,1.442,0,0,1,1.376-1.858c1.31-.106,1.439-.76,1.447-1.882a100.489,100.489,0,0,1,.2-11.047,24.423,24.423,0,0,1,48.1-1.789,29.7,29.7,0,0,1,.528,6.544c0,3.291-.011,6.583.016,9.875.009,1.072-.248,1.919-1.517,2.249" transform="translate(-21.909 -11.378)"/>
        <path id="Trazado_162725" data-name="Trazado 162725" d="M47.767,85.393a13.2,13.2,0,0,1,2.752.5,5.338,5.338,0,0,1,3.15,5.3,5.144,5.144,0,0,1-4.211,4.76c-1.268.179-1.516.669-1.645,1.847-1.082,9.853-7.425,16.883-16.889,18.853-11.6,2.415-23.391-6.2-24.618-17.979-.014-.131-.041-.261-.042-.392-.017-1.329-.216-2.213-1.979-2.408C2.09,95.633.474,93.344.323,91.055a5.132,5.132,0,0,1,3.322-5.168c1.046-.355.864-.774.549-1.488A48.286,48.286,0,0,1,.148,70.991a12.7,12.7,0,0,1,.63-6.472,5.912,5.912,0,0,1,2.9-3.275,6.293,6.293,0,0,0,2.145-1.837,16.275,16.275,0,0,1,14.487-6.192A2.548,2.548,0,0,0,21.7,53a9.251,9.251,0,0,1,8.127-.185,1.688,1.688,0,0,0,1.365.029,9.529,9.529,0,0,1,10.886,2.7A9.91,9.91,0,0,0,46.014,58.4c2.878,1.056,4.332,3.462,4.527,6.516.047.747.235,1.014.952,1.215a5.308,5.308,0,0,1,3.672,7.212c-1.53,4.515-3.461,8.783-7.4,12.046" transform="translate(0 -11.927)"/>
        <path id="Trazado_162726" data-name="Trazado 162726" d="M76.161.006q9.677,0,19.353,0a6.935,6.935,0,0,1,7.3,7.248q.023,10.465,0,20.931a6.872,6.872,0,0,1-7.147,7.119c-6.319.015-12.638.03-18.958-.02-1.125-.009-1.508.206-1.586,1.451-.368,5.841-3.37,9.9-8.71,12.24-.763.334-1.576.664-2.36.042-.8-.639-.566-1.5-.415-2.314a19.053,19.053,0,0,0,.19-7.057c-.564-3.006-2.113-4.312-5.14-4.344a15.387,15.387,0,0,1-3.927-.229,6.831,6.831,0,0,1-5.154-6.53c-.033-7.239-.047-14.48,0-21.721A6.859,6.859,0,0,1,56.544.013C63.084-.012,69.622.006,76.161.006" transform="translate(-11.38 0)"/>
        <path id="Trazado_162727" data-name="Trazado 162727" d="M100.926,52.065c-1.976,0-3.951.01-5.927,0-1.31-.009-1.983-.561-1.983-1.578s.673-1.573,1.983-1.576c3.951-.01,7.9.006,11.852-.011,1.08,0,1.805.415,1.932,1.522.11.962-.7,1.631-1.931,1.641-1.975.017-3.951,0-5.927,0" transform="translate(-21.349 -11.223)"/>
        <path id="Trazado_162728" data-name="Trazado 162728" d="M87.206,52.068c-1.405,0-2.127-.518-2.146-1.553-.018-1.055.695-1.606,2.086-1.61,1.371-.005,2.152.552,2.173,1.551s-.763,1.607-2.113,1.612" transform="translate(-19.523 -11.225)" fill="#294369"/>
        <path id="Trazado_162729" data-name="Trazado 162729" d="M107.051,99.88c0-2.457.029-4.52-.017-6.581a1.017,1.017,0,0,1,.844-1.2c7.565-2.253,14.534-5.629,20.408-11.009.842-.771,1-.026,1.306.434,2.81,4.154,6.06,7.947,10.591,10.2,2.11,1.05,2.619,2.273,2.475,4.4-.251,3.714.249,7.458-.279,11.169a17.779,17.779,0,0,1-34.8,1.62c-.776-3.121-.427-6.282-.53-9.035" transform="translate(-24.567 -18.535)" fill="#fed7b6"/>
        <path id="Trazado_162730" data-name="Trazado 162730" d="M146.761,84.968a21.281,21.281,0,0,1-9.912-5.2,32.174,32.174,0,0,1-5.825-7.081,1.073,1.073,0,0,1,.12-1.48,31.967,31.967,0,0,0,4.648-7.743,1.79,1.79,0,0,0-.737-2.547c-.833-.391-1.7.106-2.19,1.322a28.785,28.785,0,0,1-7.595,10.6,45.721,45.721,0,0,1-14.413,8.49q-2.76,1.06-5.6,1.892c-.81.236-.973-.005-.959-.767.039-2.063.032-4.127,0-6.191-.009-.638.2-.888.843-1.051,1.694-.428,3.365-.955,5.03-1.489,1.243-.4,1.76-1.193,1.4-2.093-.451-1.138-1.292-1.271-2.367-.9-1.24.427-2.516.745-3.758,1.169-.764.261-.985-.009-.838-.711a21.358,21.358,0,0,1,10.016-14.475,21.14,21.14,0,0,1,12.044-3.045c1.028.038,1.226.281.774,1.223a29.4,29.4,0,0,1-12.392,13.194,7.694,7.694,0,0,0-1.135.656c-.685.562-1.172,1.232-.6,2.153a1.527,1.527,0,0,0,2.187.5,30.557,30.557,0,0,0,5.736-3.686,30.9,30.9,0,0,0,9.485-12.546c.255-.62.574-.709,1.217-.49,8.046,2.744,12.914,8.284,14.51,16.61.714,3.727.167,7.528.3,11.294.026.779,0,1.559,0,2.395" transform="translate(-23.94 -12.313)" fill="#6d7485"/>
        <path id="Trazado_162731" data-name="Trazado 162731" d="M147.793,128.957c-.539-.127-1.492.348-1.73-.29-.224-.6.763-.914,1.217-1.3a20.569,20.569,0,0,0,7-11.972,14.311,14.311,0,0,0,.411-2.7c.007-.844.34-1.177,1.107-1.271a2.181,2.181,0,0,0,1-.26c1.334-.991,1.824-.206,2.3.949a12.26,12.26,0,0,1-11.3,16.843" transform="translate(-33.517 -25.411)" fill="#4a5160"/>
        <path id="Trazado_162732" data-name="Trazado 162732" d="M102.18,104.194a7.276,7.276,0,0,1-.008.917c-.051.4.25.972-.253,1.171a1.535,1.535,0,0,1-1.452-.4,2.143,2.143,0,0,1-.6-2.808,1.583,1.583,0,0,1,1.82-.954c.848.2.375.929.482,1.422a3.138,3.138,0,0,1,.008.654" transform="translate(-22.857 -23.428)" fill="#ecc396"/>
        <path id="Trazado_162733" data-name="Trazado 162733" d="M157.319,104.226a7.478,7.478,0,0,1,.007-.911c.054-.428-.257-1.008.427-1.2a1.422,1.422,0,0,1,1.422.424,2.213,2.213,0,0,1-.465,3.539c-1.022.544-1.374.341-1.39-.807,0-.347,0-.694,0-1.042" transform="translate(-36.104 -23.425)" fill="#ebc296"/>
        <path id="Trazado_162734" data-name="Trazado 162734" d="M20.078,77.326a4.72,4.72,0,0,0,1.078-.742c1.509-1.844,3.213-1.794,5.38-1.118,3.675,1.146,7.291.385,10.708-1.287,1.259-.616,2.466-1.337,3.73-1.942,4.121-1.975,7.648.337,7.936,4.895.5,7.892.417,15.786.394,23.681a17.792,17.792,0,0,1-14.709,17.26,10.314,10.314,0,0,1-1.049.069c-2.838.681-4.89-.86-6.82-2.532a19.322,19.322,0,0,1-7.009-15.348,46.6,46.6,0,0,1,.126-6.283,20.9,20.9,0,0,0,.836-1.922,2.025,2.025,0,0,1,2-1.6,2.048,2.048,0,0,1,1.972,1.64,3.788,3.788,0,0,0,.275.737,1.11,1.11,0,0,0,1.267.71,1.128,1.128,0,0,0,.891-1.146c.293-2.62-2.495-4.936-5.269-4.376-.615.123-1.244.551-1.863-.016a2.488,2.488,0,0,1-.3-1.385q-.027-3.91,0-7.822a2.315,2.315,0,0,1,.421-1.475" transform="translate(-4.509 -16.417)" fill="#fed7b6"/>
        <path id="Trazado_162735" data-name="Trazado 162735" d="M22.775,57.358a5.559,5.559,0,0,0,3.266-.683,5.662,5.662,0,0,1,5.664.188,2.81,2.81,0,0,0,2.952.032,6.378,6.378,0,0,1,7.3,1.193c.569.544,1.068,1.16,1.6,1.747a6.184,6.184,0,0,0,3.423,2.213,4.165,4.165,0,0,1,2.932,5.346c-.455,1.675.13,2.495,1.866,2.6a14.041,14.041,0,0,1,1.445.067c1.123.187,2.148,1.352,1.847,2.339-.931,3.045-1.932,6.078-4.057,8.724a7.475,7.475,0,0,1-.549-2.905c-.178-1.7-.23-3.41-.269-5.118a8.245,8.245,0,0,0-11.547-7.651,21.648,21.648,0,0,0-3.153,1.62c-5.1,3.061-10.16,2.719-15.2-.159-.457-.261-.918-.515-1.377-.771a1.486,1.486,0,0,0-2.16.549,1.459,1.459,0,0,0,.532,2.155c1.294.965,1.331,1.025-.133,1.81-1.532.821-3.121,1.6-4.957.953-1.224-2.838.264-7.165,3-8.534a5.512,5.512,0,0,0,1.872-1.565,18.371,18.371,0,0,1,3.892-3.677,1.866,1.866,0,0,1,1.81-.474" transform="translate(-2.701 -12.854)" fill="#c1684f"/>
        <path id="Trazado_162736" data-name="Trazado 162736" d="M18.3,95.629c0,2.234-.051,4.468,0,6.7.195,7.864,3.909,13.567,10.754,17.306.854.466,1.816.06,2.714.233a15.5,15.5,0,0,1-10.149-1.829c-6.2-3.331-9.5-8.594-9.623-15.641-.123-7.023-.011-14.049-.048-21.073,0-.911.178-1.177,1.149-1.107a10.8,10.8,0,0,0,5.2-1.164c0,3.181-.011,6.363,0,9.544,0,.418-.143.884.266,1.22.078.547-.407.723-.7,1a5.109,5.109,0,0,0-1.425,2.287c-.4,1.371-.017,2.01,1.4,2.315a.745.745,0,0,1,.457.209" transform="translate(-2.742 -18.145)" fill="#e4bca0"/>
        <path id="Trazado_162737" data-name="Trazado 162737" d="M21.009,57.7c-1.354.18-2.22,1.177-3.151,1.995a13.635,13.635,0,0,0-2.826,3.1,1.319,1.319,0,0,1-.666.6c-3.019,1.109-3.862,3.545-3.929,6.45-.016.7,0,1.4,0,2.106a6.573,6.573,0,0,1-3.376-.938,2.089,2.089,0,0,0-2.753.23c-.712-3.174.19-5.067,3.035-6.459A4.768,4.768,0,0,0,8.91,63.053c2.823-3.818,6.721-5.441,11.356-5.542a2.827,2.827,0,0,1,.743.193" transform="translate(-0.935 -13.2)" fill="#9f5847"/>
        <path id="Trazado_162738" data-name="Trazado 162738" d="M4.354,77.773c.881.445,1.555.82,2.257,1.13.541.24.459.683.461,1.109,0,2.013,0,4.026-.108,6.067a44.4,44.4,0,0,1-2.61-8.306" transform="translate(-0.999 -17.851)" fill="#9e5747"/>
        <path id="Trazado_162739" data-name="Trazado 162739" d="M7.11,101.924a3.117,3.117,0,0,1,0,.523c-.086.484.294,1.207-.27,1.409a1.676,1.676,0,0,1-1.813-.767,2.055,2.055,0,0,1-.214-2.44A1.606,1.606,0,0,1,6.5,99.674c.949.135.52.929.6,1.466a5.219,5.219,0,0,1,.007.784" transform="translate(-1.034 -22.873)" fill="#ebc296"/>
        <path id="Trazado_162740" data-name="Trazado 162740" d="M62.24,101.849a7.487,7.487,0,0,1,.007-.921c.055-.434-.261-1.023.421-1.225a1.4,1.4,0,0,1,1.523.525,2.058,2.058,0,0,1,.243,2.657,1.745,1.745,0,0,1-1.853.985c-.7-.182-.223-.983-.335-1.5a2.489,2.489,0,0,1-.006-.525" transform="translate(-14.275 -22.87)" fill="#ebc296"/>
        <path id="Trazado_162741" data-name="Trazado 162741" d="M68.123,45.693a21.467,21.467,0,0,0-.425-6.477,7.515,7.515,0,0,0-7.786-6.123c-.834-.007-1.67.026-2.5-.009a3.682,3.682,0,0,1-3.688-3.7q-.055-10.733,0-21.467a3.7,3.7,0,0,1,3.867-3.8q19.558-.02,39.117,0a3.7,3.7,0,0,1,3.875,3.789q.066,10.733,0,21.465c-.012,2.267-1.658,3.711-4.068,3.714q-10.141.017-20.283.005c-2.409,0-3.263.824-3.249,3.235a10.929,10.929,0,0,1-3.714,8.783,8.008,8.008,0,0,1-.731.552c-.058.039-.161.015-.418.031" transform="translate(-12.324 -0.943)" fill="#f2cd7d"/>
        <path id="Trazado_162742" data-name="Trazado 162742" d="M127.972,120.724a9.651,9.651,0,0,1-6.308-2.49c-.786-.713-1.126-1.516-.391-2.4s1.556-.714,2.412-.036c2.983,2.365,5.635,2.358,8.664-.016.864-.677,1.684-.807,2.409.072a1.539,1.539,0,0,1-.331,2.308,9.6,9.6,0,0,1-6.454,2.559" transform="translate(-27.742 -26.449)"/>
        <path id="Trazado_162743" data-name="Trazado 162743" d="M117.182,94.728a4.889,4.889,0,0,1,4.83,4.591c.032,1.023-.347,1.753-1.4,1.862a1.485,1.485,0,0,1-1.709-1.438c-.152-1.1-.646-1.853-1.816-1.831a1.679,1.679,0,0,0-1.7,1.671c-.13,1.1-.706,1.693-1.819,1.583-.97-.1-1.489-1.034-1.309-2.2a4.963,4.963,0,0,1,4.926-4.236" transform="translate(-25.757 -21.742)"/>
        <path id="Trazado_162744" data-name="Trazado 162744" d="M140.235,94.759a4.989,4.989,0,0,1,4.883,4.449c.092,1-.271,1.781-1.311,1.952a1.453,1.453,0,0,1-1.811-1.42c-.138-1.034-.644-1.772-1.731-1.8s-1.645.65-1.794,1.708c-.141,1-.7,1.663-1.754,1.54-1.141-.133-1.44-.961-1.364-2.017a4.91,4.91,0,0,1,4.883-4.409" transform="translate(-31.064 -21.749)"/>
        <path id="Trazado_162745" data-name="Trazado 162745" d="M32.936,118.315A9.631,9.631,0,0,1,26.6,115.8c-.792-.73-1.05-1.553-.306-2.409.708-.814,1.509-.649,2.321-.023,3.085,2.374,5.645,2.382,8.671.019.861-.672,1.688-.816,2.415.067a1.538,1.538,0,0,1-.33,2.308,9.617,9.617,0,0,1-6.431,2.549" transform="translate(-5.933 -25.9)"/>
        <path id="Trazado_162746" data-name="Trazado 162746" d="M45.189,92.332a4.96,4.96,0,0,1,4.875,4.433,1.656,1.656,0,0,1-1.407,2.009,1.529,1.529,0,0,1-1.739-1.542,1.693,1.693,0,0,0-1.781-1.72,1.644,1.644,0,0,0-1.7,1.641c-.141,1.042-.675,1.756-1.82,1.6-1.162-.159-1.391-1.019-1.316-2.049a4.87,4.87,0,0,1,4.891-4.373" transform="translate(-9.246 -21.192)"/>
        <path id="Trazado_162747" data-name="Trazado 162747" d="M19.5,98.707c-1.854.27-2.627-.592-2.228-2.415a5.493,5.493,0,0,1,2.5-3.4c3.014-1.01,5.426-.227,6.67,2.153a4.364,4.364,0,0,1,.5,2.281,1.538,1.538,0,0,1-3,.41,7.585,7.585,0,0,1-.176-.77,1.72,1.72,0,0,0-3.395.044,2.471,2.471,0,0,1-.87,1.693" transform="translate(-3.942 -21.223)"/>
        <path id="Trazado_162748" data-name="Trazado 162748" d="M95.233,10.948c2.147,0,4.295.012,6.442-.005,1.1-.008,1.928.3,2,1.554.059,1.03-.635,1.6-1.935,1.608q-6.638.017-13.278,0c-1.3,0-1.995-.58-1.935-1.61.073-1.249.907-1.56,2-1.552,2.235.016,4.47,0,6.705,0" transform="translate(-19.859 -2.512)"/>
        <path id="Trazado_162749" data-name="Trazado 162749" d="M95.186,24.026c-2.235,0-4.47.01-6.705,0-1.305-.008-1.972-.565-1.965-1.589s.674-1.563,1.988-1.565c4.382-.01,8.765,0,13.147-.009,1.091,0,1.936.281,2.022,1.532.073,1.062-.65,1.626-2.044,1.633-2.147.01-4.295,0-6.442,0" transform="translate(-19.857 -4.788)"/>
        <path id="Trazado_162750" data-name="Trazado 162750" d="M95.09,30.781c2.191,0,4.382.012,6.574-.005,1.094-.008,1.932.3,2.008,1.545.065,1.062-.653,1.617-2.057,1.62q-6.508.01-13.016,0c-1.418,0-2.1-.539-2.083-1.6s.69-1.549,2.133-1.554c2.147-.007,4.295,0,6.442,0" transform="translate(-19.857 -7.064)"/>
        <path id="Trazado_162751" data-name="Trazado 162751" d="M74.109,30.781c.92,0,1.842-.034,2.76.009a1.486,1.486,0,0,1,1.6,1.547,1.457,1.457,0,0,1-1.56,1.584q-2.758.079-5.52,0a1.465,1.465,0,0,1-1.546-1.606,1.5,1.5,0,0,1,1.633-1.529c.875-.029,1.753-.006,2.629-.006" transform="translate(-16.031 -7.062)"/>
        <path id="Trazado_162752" data-name="Trazado 162752" d="M74.162,24.026h-2.5c-1.087,0-1.826-.506-1.81-1.618.014-1.036.723-1.539,1.754-1.542,1.708,0,3.417-.012,5.126,0,1.014.008,1.727.478,1.737,1.547.01,1.146-.743,1.6-1.812,1.607-.832.007-1.665,0-2.5,0" transform="translate(-16.033 -4.788)"/>
        <path id="Trazado_162753" data-name="Trazado 162753" d="M74.107,14.107c-.832,0-1.665,0-2.5,0-1.03-.006-1.731-.5-1.757-1.541a1.5,1.5,0,0,1,1.678-1.611c1.752-.023,3.5-.026,5.257,0,1.019.016,1.7.529,1.683,1.6s-.723,1.531-1.736,1.55c-.876.017-1.753,0-2.629,0" transform="translate(-16.033 -2.51)"/>
        <path id="Trazado_162754" data-name="Trazado 162754" d="M61.488,10.949c1.208.012,1.976.651,1.948,1.623s-.8,1.55-2.031,1.54c-1.256-.01-1.94-.59-1.915-1.623.024-1.012.724-1.552,2-1.539" transform="translate(-13.654 -2.513)" fill="#2a4368"/>
        <path id="Trazado_162755" data-name="Trazado 162755" d="M61.472,30.781c1.213.007,1.982.636,1.965,1.606s-.771,1.563-2.014,1.556c-1.261,0-1.947-.576-1.932-1.606s.71-1.564,1.982-1.556" transform="translate(-13.654 -7.065)" fill="#2a4368"/>
        <path id="Trazado_162756" data-name="Trazado 162756" d="M61.385,24.028c-1.248-.015-1.932-.607-1.9-1.643.035-1.007.739-1.537,2.018-1.519,1.2.017,1.969.673,1.928,1.643s-.819,1.535-2.05,1.52" transform="translate(-13.654 -4.789)" fill="#2a4368"/>
      </g>
    </g>
  </g>
</svg>
