<svg xmlns="http://www.w3.org/2000/svg" xmlns:xlink="http://www.w3.org/1999/xlink" width="105" height="105" viewBox="0 0 105 105">
  <defs>
    <clipPath id="clip-path">
      <rect id="Rectángulo_42761" data-name="Rectángulo 42761" width="62.488" height="62.868" fill="none"/>
    </clipPath>
  </defs>
  <g id="Grupo_169805" data-name="Grupo 169805" transform="translate(-1115 -2331)">
    <g id="Grupo_169433" data-name="Grupo 169433" transform="translate(1115 2331)">
      <g id="Grupo_167977" data-name="Grupo 167977">
        <circle id="Elipse_4894" data-name="Elipse 4894" cx="52.5" cy="52.5" r="52.5" fill="#6b8dfc"/>
      </g>
    </g>
    <g id="Grupo_169804" data-name="Grupo 169804" transform="translate(1136 2352)">
      <g id="Grupo_169803" data-name="Grupo 169803" clip-path="url(#clip-path)">
        <path id="Trazado_162560" data-name="Trazado 162560" d="M9.824,56.107c-.523-.159-.57-.534-.463-.993A5.677,5.677,0,0,1,14.9,50.82a5.539,5.539,0,0,1,5.4,4.441,22.74,22.74,0,0,1,.013,6.421,4.633,4.633,0,0,1-1.356,2.624.991.991,0,0,0-.322.768c.019.834.033,1.671-.005,2.5-.018.4.156.527.5.615,2.095.54,4.19,1.081,6.277,1.653a5.492,5.492,0,0,1,4.232,5.5c.02,5.926.006,11.852.009,17.778,0,.395-.016.785-.492.886s-.665-.233-.795-.614a1.4,1.4,0,0,1-.192-1.018q-.006-8.41,0-16.82a4.055,4.055,0,0,0-3.265-4.348c-1.3-.38-2.62-.688-3.922-1.059-.464-.186-.958-.266-1.5-.421.582,1.375,1.215,2.656,1.827,3.946.393.829.765,1.669,1.168,2.494.369.753.262,1.071-.452,1.5-.588.357-1.19.693-1.791,1.028a.607.607,0,0,0-.292.881c.393,1.011.739,2.04,1.138,3.049a1.329,1.329,0,0,1-.256,1.444c-1.474,1.84-2.942,3.686-4.455,5.493a2.814,2.814,0,0,0-.732,2.344c-.035.5.13,1.017-.158,1.487-.075.354-.246.619-.646.619s-.571-.265-.647-.618c-.286-.47-.124-.988-.161-1.483a2.716,2.716,0,0,0-.729-2.34c-1.474-1.7-2.824-3.507-4.291-5.215a1.817,1.817,0,0,1-.335-2.118c.382-.879.661-1.8,1.014-2.692.16-.4.11-.653-.3-.863-.573-.3-1.124-.637-1.686-.956-.831-.473-.952-.829-.527-1.679,1.043-2.083,2-4.208,3.044-6.354-.526.213-1.042.274-1.531.447-1.347.376-2.707.7-4.051,1.084a4.109,4.109,0,0,0-3.008,2.826,4.28,4.28,0,0,0-.136,1.3q0,8.511,0,17.022c0,.347.077.718-.2,1.013-.133.374-.313.717-.79.618s-.5-.484-.5-.88c0-5.92-.012-11.84.009-17.76A5.508,5.508,0,0,1,4.4,69.81c2.051-.536,4.1-1.086,6.152-1.613.356-.092.529-.238.484-.63a5.117,5.117,0,0,1,0-.937,3.662,3.662,0,0,0-.885-3.085,4.356,4.356,0,0,1-.938-2.728c-.045-.506.1-.857.62-.992.647-.052.738.394.795.879a4.322,4.322,0,0,0,1.276,2.78,4.023,4.023,0,0,0,4.511.893,4,4,0,0,0,2.624-3.723c.086-1.414.049-2.838.01-4.256A4.206,4.206,0,0,0,10.8,55.272c-.258.811-.359.9-.973.835" transform="translate(0 -31.158)"/>
        <path id="Trazado_162561" data-name="Trazado 162561" d="M94.971,70.6c-.043-.516.242-.745.706-.864,1.955-.5,3.9-1.025,5.861-1.517.407-.1.618-.255.548-.708a4.014,4.014,0,0,1-.005-.812,3.7,3.7,0,0,0-.891-3.146,3.583,3.583,0,0,1-.892-2.421,30.664,30.664,0,0,1,.063-5.623,5.6,5.6,0,0,1,11.116.547,31.622,31.622,0,0,1-.076,5.437,4.913,4.913,0,0,1-1.344,2.765,1.21,1.21,0,0,0-.358.943c.022.772.041,1.546-.006,2.316-.028.457.154.6.558.7q3.085.786,6.158,1.619a5.493,5.493,0,0,1,4.29,5.518c.026,5.927.008,11.854.01,17.782,0,.4-.035.782-.508.876s-.652-.256-.789-.624c-.27-.3-.195-.669-.195-1.016,0-5.629-.053-11.259.02-16.888a4.258,4.258,0,0,0-3.343-4.312c-1.3-.308-2.584-.664-3.869-1.02-.462-.19-.958-.258-1.5-.428.595,1.4,1.238,2.7,1.852,4,.4.848.779,1.7,1.2,2.544.3.605.2.938-.38,1.319-.61.4-1.256.74-1.892,1.095a.629.629,0,0,0-.307.926c.406.981.722,2,1.115,2.984a1.361,1.361,0,0,1-.257,1.5c-1.484,1.827-2.914,3.7-4.446,5.484a2.773,2.773,0,0,0-.728,2.341c-.032.5.127,1.021-.16,1.493-.062.362-.246.607-.638.608s-.563-.269-.646-.612c-.3-.468-.133-.987-.168-1.483a2.725,2.725,0,0,0-.722-2.339c-1.477-1.723-2.849-3.534-4.322-5.261a1.716,1.716,0,0,1-.326-2c.388-.9.667-1.84,1.036-2.746a.61.61,0,0,0-.336-.906c-.574-.292-1.124-.635-1.684-.956-.776-.445-.917-.782-.52-1.582.731-1.474,1.391-2.983,2.142-4.447.314-.611.568-1.247.891-1.94-.515.134-.972.244-1.426.37-1.178.318-2.353.646-3.538.937a1.624,1.624,0,0,1-.918.031c-.224-.075-.417-.2-.373-.487" transform="translate(-58.224 -31.162)"/>
        <path id="Trazado_162562" data-name="Trazado 162562" d="M66.362,1.645l1.194.289a2.34,2.34,0,0,0,1.206,1A10.381,10.381,0,0,1,74.02,15.826a8.908,8.908,0,0,1-1.051,2.057,1.351,1.351,0,0,0-.162,1.355c.214.566.408,1.14.571,1.722s.02.713-.539.563a19.753,19.753,0,0,1-1.913-.589,1.29,1.29,0,0,0-1.186.113,10.136,10.136,0,0,1-10.753.026,1.412,1.412,0,0,0-1.307-.128c-.545.209-1.1.386-1.663.549-.235.068-.512.207-.715.017s-.057-.473.016-.706c.155-.5.3-1,.5-1.483a1.55,1.55,0,0,0-.183-1.523,10.021,10.021,0,0,1-.44-10.368A9.9,9.9,0,0,1,62.5,2.09a1.894,1.894,0,0,0,1.36-.637l1.211.042c.564.6.567.6,1.289.149" transform="translate(-33.081 -0.891)" fill="#efbf20"/>
        <path id="Trazado_162563" data-name="Trazado 162563" d="M40.017,123.733q0-.814,0-1.628c2.039-2.315,3.885-4.789,5.861-7.156a2.08,2.08,0,0,0,.395-2.308c-.3-.754-.546-1.532-.855-2.283a.709.709,0,0,1,.342-1.037c.438-.241.875-.485,1.3-.749a1.554,1.554,0,0,0,.706-2.229q-.606-1.338-1.251-2.658c-.459-.936-.868-1.9-1.33-2.829-.089-.181-.424-.583.2-.556,1.569.413,3.165.746,4.7,1.26a3.752,3.752,0,0,1,2.784,3.575c.082,6.2.029,12.4.027,18.594l-3.508,0c-.278-.3-.2-.667-.2-1.013q-.009-6.323,0-12.647a2.934,2.934,0,0,0-.078-.932c-.062-.185-.165-.356-.388-.352s-.306.187-.344.38a4.493,4.493,0,0,0-.042.874q0,6.355-.005,12.71c0,.363.1.76-.22,1.064a1.21,1.21,0,0,0-.61-.085l-7.485,0" transform="translate(-24.535 -61.494)" fill="#72c1e8"/>
        <path id="Trazado_162564" data-name="Trazado 162564" d="M124.829,123.716l0-1.628c2.046-2.339,3.911-4.825,5.905-7.205a2.053,2.053,0,0,0,.388-2.2c-.3-.822-.583-1.652-.911-2.465a.621.621,0,0,1,.3-.884c.467-.276.946-.529,1.406-.818a1.531,1.531,0,0,0,.681-2.138c-.335-.785-.711-1.555-1.084-2.323-.52-1.069-.99-2.161-1.524-3.224-.1-.2-.377-.58.214-.575,1.491.389,2.99.746,4.47,1.174a4.147,4.147,0,0,1,3.051,3.924c.031,6.072.013,12.145.013,18.218a.63.63,0,0,1-.025.122l-3.508.016c-.294-.314-.2-.708-.2-1.073Q134,116.349,134,110.062a3.024,3.024,0,0,0-.072-.931c-.058-.183-.151-.361-.379-.355s-.31.183-.352.375a4.015,4.015,0,0,0-.048.872q0,6.318-.005,12.636c0,.362.1.76-.224,1.061l-8.093,0" transform="translate(-76.533 -61.466)" fill="#868686"/>
        <path id="Trazado_162565" data-name="Trazado 162565" d="M90.5,100.909c.251.455.641.462,1.079.346q1.9-.5,3.8-.99c.6-.01.308.369.211.571-.423.883-.836,1.771-1.256,2.656-.438.922-.9,1.83-1.317,2.765a1.634,1.634,0,0,0,.678,2.3,13.872,13.872,0,0,0,1.249.712.68.68,0,0,1,.383,1.008c-.322.791-.547,1.622-.9,2.4a1.793,1.793,0,0,0,.308,2.074c2.01,2.446,3.947,4.951,6.029,7.338q0,.814,0,1.627l-7.718-.009c-.185,0-.378-.024-.523.133-.3-.311-.207-.706-.208-1.07q-.01-6.349-.005-12.7a5.577,5.577,0,0,0-.025-.812c-.034-.229-.068-.491-.371-.488-.281,0-.363.245-.412.476a3.858,3.858,0,0,0-.044.81q0,6.318,0,12.635c0,.346.075.717-.2,1.014l-3.384,0a1.077,1.077,0,0,1-.193-.828q-.007-8.72,0-17.44a2.794,2.794,0,0,1,.064-.746,2.43,2.43,0,0,0,0-1.411c.2-.382.58-.658.64-1.119.877.094.877.094,1-.75l1.118-.5" transform="translate(-53.757 -61.473)" fill="#868686"/>
        <path id="Trazado_162566" data-name="Trazado 162566" d="M16.184,122.04v1.628l-8.206,0c-.339-.292-.234-.693-.234-1.054q-.013-6.32-.006-12.642a4.74,4.74,0,0,0-.033-.812c-.036-.21-.09-.433-.359-.434s-.35.208-.4.412a3.687,3.687,0,0,0-.057.935q0,6.258,0,12.516c0,.365.089.759-.2,1.074l-3.39,0c-.012-.207-.034-.414-.034-.621q0-8.468,0-16.937c0-2.772,1.085-4.187,3.754-4.891,1.265-.334,2.534-.652,3.8-.977.28-.119.343.034.317.266a1.351,1.351,0,0,1-.181.464c-.777,1.477-1.409,3.023-2.185,4.5q-.131.249-.241.509c-.6,1.425-.385,1.975.961,2.762,1.737,1.016,1.573.48.9,2.484-.187.552-.4,1.1-.614,1.64a1.615,1.615,0,0,0,.3,1.748c2,2.4,3.879,4.9,5.969,7.232.055.062.1.137.151.2" transform="translate(-1.994 -61.429)" fill="#72c1e8"/>
        <path id="Trazado_162567" data-name="Trazado 162567" d="M62.215.562c-.031.487-.32.642-.776.712a10.019,10.019,0,0,0-8.7,7.988,9.758,9.758,0,0,0,1.442,7.648,1.441,1.441,0,0,1,.195,1.449c-.275.715-.487,1.455-.764,2.3.908-.294,1.728-.544,2.535-.829a1.216,1.216,0,0,1,1.118.121,9.985,9.985,0,0,0,10.826,0,1.214,1.214,0,0,1,1.117-.116c.8.282,1.612.528,2.523.823-.274-.838-.5-1.608-.779-2.359a1.348,1.348,0,0,1,.183-1.335A10.16,10.16,0,0,0,67.054,2.192a5.077,5.077,0,0,0-.572-.248.746.746,0,0,1-.573-.9C66.184.6,66.54.605,66.988.786a11.415,11.415,0,0,1,5.461,16.441,1.274,1.274,0,0,0-.126,1.216c.327.921.607,1.859.92,2.785a.741.741,0,0,1-.106.867.726.726,0,0,1-.816.076c-1.045-.35-2.1-.672-3.142-1.031a.835.835,0,0,0-.753.077,11.244,11.244,0,0,1-11.493,0,.838.838,0,0,0-.754-.074c-1.062.365-2.137.69-3.2,1.048a.657.657,0,0,1-.888-.9c.33-1.008.642-2.022.993-3.023A.921.921,0,0,0,53,17.393,11.389,11.389,0,0,1,60.389.178c.3-.067.616-.107.924-.158a.692.692,0,0,1,.9.542" transform="translate(-31.434 0)"/>
        <path id="Trazado_162568" data-name="Trazado 162568" d="M25.24,58.073c.452,0,.646-.257.76-.674a4.37,4.37,0,0,1,8.621,1.122,28.954,28.954,0,0,1-.094,4.746,4.3,4.3,0,0,1-4.653,3.552,4.346,4.346,0,0,1-3.986-4.1c-.026-.48-.16-.8-.646-.923a3.354,3.354,0,0,0-.1-1.226c.667-.52.667-.52.1-1.281q0-.606,0-1.213" transform="translate(-15.415 -33.123)" fill="#fdb59e"/>
        <path id="Trazado_162569" data-name="Trazado 162569" d="M86.017,108.034a.714.714,0,0,1,.3.965,3.761,3.761,0,0,0-.2,1.35q0,8.9,0,17.8c0,.1.017.207.026.31-.135.374-.316.715-.793.617s-.5-.484-.5-.879q.005-8.908,0-17.816a6.115,6.115,0,0,1,.248-1.722c.141-.485.405-.705.907-.625" transform="translate(-52.027 -66.226)" fill="#010101"/>
        <path id="Trazado_162570" data-name="Trazado 162570" d="M78.861,75.32a.666.666,0,0,1-.52.606,2.723,2.723,0,0,0-2,2.315c-.088.4-.222.791-.735.787s-.647-.4-.717-.8a2.686,2.686,0,0,0-1.963-2.275.683.683,0,0,1-.561-.663.647.647,0,0,1,.544-.668,2.659,2.659,0,0,0,1.953-2.21A3.168,3.168,0,0,1,75,71.933a.661.661,0,0,1,1.219.007c.1.252.162.516.236.776a2.437,2.437,0,0,0,1.751,1.86.75.75,0,0,1,.657.745" transform="translate(-44.364 -43.856)"/>
        <path id="Trazado_162571" data-name="Trazado 162571" d="M60.941,136.785q0-7.1.005-14.2c0-.187,0-.376.01-.563a.61.61,0,0,1,1.206-.079,2.693,2.693,0,0,1,.036.621q0,6.727,0,13.453c0,.229.016.457.024.686-.106.322-.243.618-.648.622a.607.607,0,0,1-.636-.538" transform="translate(-37.363 -74.465)" fill="#000101"/>
        <path id="Trazado_162572" data-name="Trazado 162572" d="M12.1,136.694q.012-5.1.024-10.192c0-1.418-.007-2.835,0-4.253.005-.612.386-.936.843-.758.388.151.409.475.408.824q-.007,2.689,0,5.379.008,4.5.022,9c-.068.359-.242.616-.643.618s-.554-.291-.657-.622" transform="translate(-7.422 -74.457)" fill="#000101"/>
        <path id="Trazado_162573" data-name="Trazado 162573" d="M96.936,136.713q.012-5.471.023-10.943c0-1.167,0-2.335,0-3.5,0-.455.18-.812.672-.794.464.017.584.373.583.8q-.014,7.284-.014,14.569a.58.58,0,0,1-.612.489c-.41,0-.544-.3-.654-.623" transform="translate(-59.432 -74.476)" fill="#010101"/>
        <path id="Trazado_162574" data-name="Trazado 162574" d="M145.747,136.711q.009-7.069.017-14.137c0-.816.2-1.189.643-1.124.661.1.611.625.611,1.113q.008,7.068.019,14.136c-.1.332-.248.617-.649.616s-.579-.242-.64-.605" transform="translate(-89.358 -74.458)"/>
        <path id="Trazado_162575" data-name="Trazado 162575" d="M24.419,67.622c.349.111.658.273.62.7s-.326.575-.718.575a.617.617,0,0,1-.517-.671c.024-.369.309-.508.616-.609" transform="translate(-14.593 -41.459)" fill="#070606"/>
        <path id="Trazado_162576" data-name="Trazado 162576" d="M83.98.825a.625.625,0,0,1-.674.513c-.419-.021-.536-.324-.615-.662.137-.323.318-.6.725-.554s.549.329.563.7" transform="translate(-50.698 -0.071)" fill="#050503"/>
        <path id="Trazado_162577" data-name="Trazado 162577" d="M90.349,102.91c.2.343.23.682-.127.927a.621.621,0,0,1-.873-.176.588.588,0,0,1,.159-.819.628.628,0,0,1,.841.069" transform="translate(-54.72 -62.971)" fill="#040404"/>
        <path id="Trazado_162578" data-name="Trazado 162578" d="M24.857,102.433c.176.547,2.533,16.562,2.528,17.191-1.04-1.279-1.967-2.563-3.05-3.7a1.965,1.965,0,0,1-.4-2.522c.412-.858.659-1.793,1.014-2.68a.774.774,0,0,0-.416-1.124c-.716-.38-1.409-.8-2.114-1.2-.168-.1-.339-.165-.217-.419.882-1.83,1.758-3.663,2.66-5.545" transform="translate(-13.584 -62.802)" fill="#eee"/>
        <path id="Trazado_162579" data-name="Trazado 162579" d="M40.9,119.325c.832-5.658,1.664-11.317,2.522-17.152.934,1.984,1.783,3.808,2.654,5.621.147.306-.05.35-.225.45-.686.393-1.358.813-2.061,1.173a.829.829,0,0,0-.43,1.225c.464,1.179.881,2.377,1.32,3.566.079.213.181.4-.01.629-1.223,1.5-2.431,3.01-3.644,4.517l-.127-.031" transform="translate(-25.075 -62.643)" fill="#eee"/>
        <path id="Trazado_162580" data-name="Trazado 162580" d="M23.706,121.4c-.716-.295-1.068-.968-1.523-1.517-1.6-1.931-3.167-3.894-4.749-5.843a1.66,1.66,0,0,1-.345-1.737c.349-.934.64-1.892,1.036-2.8.2-.465.049-.6-.33-.783a12.815,12.815,0,0,1-1.454-.847,1.542,1.542,0,0,1-.627-2.119c.863-1.871,1.772-3.721,2.644-5.588.072-.156.459-.407-.027-.567l1.553-.444c.079.246-.073.385-.146.539q-1.434,3.016-2.877,6.028c-.436.912-.4,1.037.465,1.524.616.348,1.221.719,1.848,1.047.334.174.426.346.276.72-.41,1.022-.735,2.081-1.173,3.091a1.428,1.428,0,0,0,.294,1.688c1.5,1.785,2.924,3.641,4.445,5.41a2.5,2.5,0,0,1,.69,2.2" transform="translate(-9.516 -60.791)" fill="#4ba4c7"/>
        <path id="Trazado_162581" data-name="Trazado 162581" d="M45.324,99.64c-.394.077-.169.3-.094.458q1.239,2.624,2.493,5.241a2.43,2.43,0,0,1,.344,1.37,1.55,1.55,0,0,1-.775,1.214c-.539.313-1.066.65-1.622.93-.325.163-.341.347-.227.645.32.834.59,1.688.936,2.51a2.1,2.1,0,0,1-.416,2.351c-1.673,2.032-3.3,4.105-4.956,6.15a2.514,2.514,0,0,1-1.056.935,2.517,2.517,0,0,1,.688-2.2c1.553-1.825,3.012-3.729,4.535-5.58a1.181,1.181,0,0,0,.212-1.36c-.443-1.077-.8-2.189-1.226-3.272-.14-.355-.062-.516.257-.683.663-.349,1.309-.73,1.958-1.106.743-.43.792-.583.433-1.347Q45.4,102.9,43.981,99.907c-.1-.2-.187-.412-.31-.685a7.591,7.591,0,0,1,1.653.418" transform="translate(-24.468 -60.834)" fill="#4ba4c7"/>
        <path id="Trazado_162582" data-name="Trazado 162582" d="M35.476,118.852c-.545-3.684-1.083-7.354-1.637-11.021a1.117,1.117,0,0,1,.422-1.249c.472-.334.828-1.1,1.3-1.069.458.032.867.7,1.306,1.081a1,1,0,0,1,.457,1c-.556,3.6-1.08,7.213-1.616,10.82-.023.156.018.348-.233.44" transform="translate(-20.727 -64.69)" fill="#71c1e8"/>
        <path id="Trazado_162583" data-name="Trazado 162583" d="M36.775,93.418c-.695.689-1.533,1.2-2.282,1.819a.305.305,0,0,1-.444,0c-.746-.625-1.584-1.134-2.282-1.819-.01-.018-.027-.036-.028-.055-.091-1.646-.151-1.561,1.326-1.228A6.4,6.4,0,0,0,35.9,92.04c.914-.207.938-.181.93.769a1.129,1.129,0,0,1-.058.609" transform="translate(-19.435 -56.366)" fill="#fdb59e"/>
        <path id="Trazado_162584" data-name="Trazado 162584" d="M36.748,91.632c-.066-.429.177-.988-.109-1.261s-.767.094-1.162.164a6.6,6.6,0,0,1-3.187-.166c-.417-.131-.574-.06-.539.392.023.288-.005.58-.01.871a18.414,18.414,0,0,1-.056-2.609c2.472.671,2.472.671,5.122,0a17.786,17.786,0,0,1-.058,2.607" transform="translate(-19.407 -54.58)" fill="#e98e7b"/>
        <path id="Trazado_162585" data-name="Trazado 162585" d="M32.621,102.55l-.281-1.975a7.409,7.409,0,0,1,1.342.97l-1.061,1" transform="translate(-19.828 -61.663)" fill="#6ebbe1"/>
        <path id="Trazado_162586" data-name="Trazado 162586" d="M42.268,102.455c-1.1-.948-1.1-.948-.068-1.723.08-.06.16-.118.313-.231a9.525,9.525,0,0,1-.244,1.954" transform="translate(-25.405 -61.618)" fill="#6fbde2"/>
        <path id="Trazado_162587" data-name="Trazado 162587" d="M120.495,60.734a16.841,16.841,0,0,1-.085,2.573,4.329,4.329,0,0,1-4.561,3.532,4.259,4.259,0,0,1-4.065-3.946,23.683,23.683,0,0,1,.074-5.307,4.311,4.311,0,0,1,4.568-3.522,4.4,4.4,0,0,1,4.065,4.182c.027.75,0,1.5,0,2.489" transform="translate(-68.466 -33.139)" fill="#fdb59e"/>
        <path id="Trazado_162588" data-name="Trazado 162588" d="M112.142,119.668c-1.023-1.256-2-2.554-3.085-3.752a1.678,1.678,0,0,1-.341-2.152,25.022,25.022,0,0,0,1.011-2.687c.31-.858.263-.97-.554-1.435-.634-.361-1.266-.724-1.9-1.084-.168-.1-.339-.169-.216-.423.873-1.817,1.741-3.636,2.738-5.441l2.486,16.912-.136.062" transform="translate(-65.61 -62.962)" fill="#868686"/>
        <path id="Trazado_162589" data-name="Trazado 162589" d="M125.747,119.6l2.487-16.915.113-.026q.557,1.171,1.113,2.342c.444.941.854,1.9,1.34,2.82.239.452.119.633-.287.84-.649.331-1.257.74-1.905,1.071a.8.8,0,0,0-.429,1.132c.449,1.209.891,2.421,1.337,3.631.078.212.19.4,0,.634-1.219,1.5-2.425,3.01-3.636,4.517l-.133-.046" transform="translate(-77.096 -62.938)" fill="#868686"/>
        <path id="Trazado_162590" data-name="Trazado 162590" d="M130.159,99.627c-.448.108-.144.351-.07.508q1.227,2.63,2.478,5.25c.622,1.31.412,2-.809,2.759-.526.327-1.36.471-1.505,1-.129.476.335,1.113.537,1.679a4.09,4.09,0,0,0,.217.585c.727,1.333.344,2.4-.614,3.494-1.6,1.831-3.061,3.776-4.6,5.66a2.355,2.355,0,0,1-1.016.895,2.571,2.571,0,0,1,.689-2.207c1.611-1.879,3.125-3.842,4.679-5.769a.848.848,0,0,0,.152-.924c-.437-1.125-.826-2.268-1.27-3.39-.172-.435-.1-.667.328-.883.688-.344,1.339-.763,2.011-1.139a.742.742,0,0,0,.34-1.134c-1.075-2.23-2.117-4.476-3.2-6.785a7.888,7.888,0,0,1,1.657.4" transform="translate(-76.481 -60.839)" fill="#4c4944"/>
        <path id="Trazado_162591" data-name="Trazado 162591" d="M108.579,121.368c-.7-.287-1.04-.944-1.484-1.48-1.606-1.94-3.179-3.907-4.764-5.865a1.751,1.751,0,0,1-.318-1.916c.368-.883.668-1.795,1.021-2.685.131-.33.1-.517-.247-.686a15.933,15.933,0,0,1-1.517-.87,1.683,1.683,0,0,1-.641-2.284c.876-1.845,1.763-3.685,2.633-5.533.073-.154.387-.4-.067-.507l1.669-.456c-.281.615-.506,1.133-.751,1.642-.8,1.671-1.609,3.337-2.409,5.009-.4.829-.335,1,.448,1.439.653.367,1.291.763,1.958,1.1.322.165.339.341.224.64-.418,1.087-.809,2.184-1.229,3.27a1.216,1.216,0,0,0,.2,1.373c1.559,1.868,3.039,3.8,4.626,5.645a2.565,2.565,0,0,1,.648,2.159" transform="translate(-61.57 -60.75)" fill="#4c4944"/>
        <path id="Trazado_162592" data-name="Trazado 162592" d="M120.343,119.009q-.349-2.341-.7-4.682c-.319-2.164-.615-4.331-.963-6.49a1.16,1.16,0,0,1,.448-1.3c.468-.339.81-1.095,1.309-1.058.439.032.831.691,1.245,1.073.286.265.559.476.482.983-.588,3.824-1.135,7.654-1.7,11.481l-.128-.013" transform="translate(-72.744 -64.672)" fill="#71c1e8"/>
        <path id="Trazado_162593" data-name="Trazado 162593" d="M121.64,93.42c-.7.68-1.536,1.2-2.285,1.818-.195.162-.335.068-.493-.055-.674-.523-1.341-1.056-2.034-1.553-.282-.2-.238-.458-.237-.72,0-.291.017-.582.026-.872.3-.209.6-.067.9,0a6.842,6.842,0,0,0,3.322-.015c.791-.208.864-.138.856.661a1.656,1.656,0,0,1-.053.734" transform="translate(-71.481 -56.36)" fill="#fcb59e"/>
        <path id="Trazado_162594" data-name="Trazado 162594" d="M121.685,91.656c-.089-.44.2-1.055-.159-1.283-.263-.165-.81.148-1.236.217a7.556,7.556,0,0,1-3.145-.212c-.16-.042-.323-.07-.484-.1V89.1c.134-.126.236-.011.34.029a5.6,5.6,0,0,0,4.307.005c.378-.156.479-.086.453.3a11.389,11.389,0,0,1-.076,2.214" transform="translate(-71.526 -54.596)" fill="#e98e7b"/>
        <path id="Trazado_162595" data-name="Trazado 162595" d="M126.766,102.42l-1.079-1.019,1.367-1.044c-.1.742-.187,1.339-.288,2.064" transform="translate(-77.059 -61.529)" fill="#6ebbe0"/>
        <path id="Trazado_162596" data-name="Trazado 162596" d="M118.514,101.528l-1.05,1-.294-1.975a8.329,8.329,0,0,1,1.343.979" transform="translate(-71.838 -61.647)" fill="#6fbce2"/>
        <path id="Trazado_162597" data-name="Trazado 162597" d="M69.5,23.82c-1.815,0-3.631.007-5.446,0-1.172-.005-1.661-.505-1.664-1.691q-.008-3.068,0-6.135c0-1.2.518-1.71,1.716-1.714.626,0,1.252-.014,1.878,0,.329.01.471-.058.483-.439.065-2.016.276-2.2,2.33-2.2.73,0,1.461-.009,2.191,0A1.4,1.4,0,0,1,72.526,13.2c.022,1.076.022,1.076,1.083,1.076.5,0,1-.011,1.5,0a1.36,1.36,0,0,1,1.467,1.384q.049,3.38,0,6.761a1.345,1.345,0,0,1-1.512,1.39c-1.857.014-3.714,0-5.571,0" transform="translate(-38.247 -7.136)"/>
        <path id="Trazado_162598" data-name="Trazado 162598" d="M91.415,114.888q0-3.035,0-6.069c0-2.1,1.553-3.207,3.447-3.4a.595.595,0,0,1,.251,1.155c-.273.1-.557.171-.838.247a1.921,1.921,0,0,0-1.606,2.073q-.007,5.944,0,11.888c0,.167,0,.334,0,.5-.006.429-.185.772-.64.763s-.617-.333-.615-.778c.01-2.127,0-4.255,0-6.382" transform="translate(-56.044 -64.632)" fill="#eee"/>
        <path id="Trazado_162599" data-name="Trazado 162599" d="M92.645,152.718c.014.363,0,.719-.379.914a.569.569,0,0,1-.762-.219,1.945,1.945,0,0,1,.05-1.493.6.6,0,0,1,.8-.1c.331.2.306.562.295.9" transform="translate(-56.024 -93.016)" fill="#ededed"/>
        <path id="Trazado_162600" data-name="Trazado 162600" d="M6.607,114.853c0-2.046.006-4.091,0-6.137a3.39,3.39,0,0,1,3.509-3.244.525.525,0,0,1,.579.459.551.551,0,0,1-.4.679c-.336.109-.682.187-1.017.3a1.843,1.843,0,0,0-1.413,1.957q-.006,5.98,0,11.961c0,.146,0,.292,0,.438,0,.452-.188.836-.656.831s-.6-.4-.6-.854c.01-2.129,0-4.259.005-6.388" transform="translate(-4.048 -64.665)" fill="#c4e4fd"/>
        <path id="Trazado_162601" data-name="Trazado 162601" d="M7.809,152.737a1.18,1.18,0,0,1-.117.669.6.6,0,0,1-.675.334c-.39-.092-.6-.807-.453-1.487a.554.554,0,0,1,.692-.466c.587.075.535.537.553.951" transform="translate(-3.996 -93.055)" fill="#c3e4fd"/>
        <path id="Trazado_162602" data-name="Trazado 162602" d="M34.08,76.215a2.627,2.627,0,0,1-2.541-2.445c-.014-.4.1-.724.534-.778.463-.057.66.225.725.662a1.372,1.372,0,0,0,2.741.012c.062-.441.253-.727.712-.676s.577.407.547.83a2.64,2.64,0,0,1-2.718,2.4" transform="translate(-19.336 -44.747)" fill="#010100"/>
        <path id="Trazado_162603" data-name="Trazado 162603" d="M79.345,80.631a2.14,2.14,0,0,1-.214-.264c-.18-.32-.719-.477-.665-.8.051-.309.456-.559.7-.837.075-.085.148-.27.271-.113a9.431,9.431,0,0,0,.772.891c.13.129-.047.207-.122.291l-.744.835" transform="translate(-48.106 -48.161)" fill="#ecbd20"/>
        <path id="Trazado_162604" data-name="Trazado 162604" d="M119,76.214a2.639,2.639,0,0,1-2.634-2.352c-.043-.444.056-.828.56-.877.457-.044.638.256.7.7a1.372,1.372,0,0,0,2.736.015c.058-.432.226-.747.686-.713.508.038.606.421.573.865A2.63,2.63,0,0,1,119,76.214" transform="translate(-71.342 -44.745)" fill="#010100"/>
        <path id="Trazado_162605" data-name="Trazado 162605" d="M71.432,33.594c-1.731,0-3.463-.014-5.193.009-.467.006-.67-.087-.646-.612.044-.958.04-1.919,0-2.877-.02-.493.162-.56.57-.444.239.068.489.1.735.143.362.065.66.11.745.615a.571.571,0,0,0,1.061.1.43.43,0,0,1,.583-.235c.181.048.374.057.549.118a7.338,7.338,0,0,0,4.055-.172c.344-.072.665-.216.816.3.077.264.368.32.636.269a.593.593,0,0,0,.492-.568c.022-.173-.058-.394.227-.435.388-.055.773-.142,1.162-.162.109-.006.082.212.082.332,0,1.064-.015,2.128.009,3.191.011.461-.261.431-.566.43q-2.659-.005-5.319,0" transform="translate(-40.214 -18.161)" fill="#71c1e8"/>
        <path id="Trazado_162606" data-name="Trazado 162606" d="M71.527,21.682c1.751,0,3.5.012,5.252-.009.41-.005.588.113.535.526a1.445,1.445,0,0,0,0,.188c0,1.087-.118,1.2-1.2,1.279-.247.017-.306-.138-.435-.269a.578.578,0,0,0-1.033.212c-.1.352-.282.4-.559.444a5,5,0,0,0-.855.174,7.229,7.229,0,0,1-4.05-.1c-.218-.05-.365-.111-.369-.393a.57.57,0,0,0-.51-.551.559.559,0,0,0-.657.36c-.094.227-.205.269-.422.2a3.926,3.926,0,0,0-.49-.094c-1.148-.227-1.122-.227-1.14-1.392-.008-.49.168-.587.617-.581,1.771.024,3.543.01,5.314.01" transform="translate(-40.217 -13.287)" fill="#71c1e8"/>
        <path id="Trazado_162607" data-name="Trazado 162607" d="M77.786,16.263h-.872c-.889,0-1.081-.257-.885-1.133.049-.219.169-.251.35-.251.955,0,1.91.007,2.865,0,.277,0,.34.123.36.374.084,1.014.092,1.013-.946,1.013h-.872" transform="translate(-46.571 -9.12)" fill="#eebf20"/>
      </g>
    </g>
  </g>
</svg>
