<svg xmlns="http://www.w3.org/2000/svg" width="290.629" height="677.982" viewBox="0 0 290.629 677.982">
  <g id="Grupo_169243" data-name="Grupo 169243" transform="translate(-186 -4173.569)">
    <g id="Grupo_157523" data-name="Grupo 157523" transform="translate(186 4173.568)">
      <path id="Trazado_114544" data-name="Trazado 114544" d="M184.1,585.184c-38.137-17.35-77.689-40.759-93.048-79.91-17.046-43.449.8-92.108.368-138.812-.341-37-12.265-72.73-21.646-108.507S53.5,184.162,63.185,148.464c6.48-23.9,20.244-45.519,38.013-62.676,31.291-30.212,76.374-46.561,119.209-39.651s81.75,38.393,94.273,80.156c17.742,59.17-16.915,122.332-9.549,183.686,2.881,24.007,12.106,46.71,18.361,70.061a288.5,288.5,0,0,1,9.8,76.225c-.234,39.384-10.161,81.4-39.382,107.631C264.436,590.353,220.572,601.775,184.1,585.184Z" transform="translate(-58.505 -44.565)" fill="#ffd947"/>
    </g>
    <g id="Grupo_169242" data-name="Grupo 169242" transform="translate(186 4173.569)">
      <path id="Trazado_160263" data-name="Trazado 160263" d="M150.827,94.669s11.979-19.62,17.7-28.605,12.8-20.269,12.8-20.269c.454-.727,12.981,2.548,14.516,2.856,5.313,1.066,10.631,2.121,15.972,3.04,15.775,2.713,31.872,2.5,47.784,1.36,7.887-.565,15.755-1.364,23.622-2.158,7.272-.733,14.936-2.166,22.259-1.709,8.713.545,13.342,1.137,13.342,1.137l-56.9,89.7-8.984,12.75s-37.845-.666-53.364-3.389-48.735-54.708-48.735-54.708" transform="translate(-31.004 11.259)" fill="#ffeae6"/>
      <path id="Trazado_160264" data-name="Trazado 160264" d="M143.082,94.791c3.515-6.26,7.164-12.61,12.505-17.4A33.775,33.775,0,0,1,171.146,69.5a7.009,7.009,0,0,1,3.263-.106c3.133.858,2.66,4.883,1.1,6.918a15.543,15.543,0,0,1-3.762,3.188l-10.534,7.154c-5.566,3.782-11.471,7.685-18.179,8.213l.045-.08" transform="translate(-32.924 17.063)" fill="#f9b3a2"/>
      <path id="Trazado_160265" data-name="Trazado 160265" d="M191.8,265.71a1.092,1.092,0,0,1-1.026-.722L123.514,77a1.089,1.089,0,1,1,2.05-.734l67.259,187.985a1.089,1.089,0,0,1-.659,1.392,1.075,1.075,0,0,1-.366.064" transform="translate(-37.75 18.616)" fill="#0f0a1c"/>
      <path id="Trazado_160266" data-name="Trazado 160266" d="M137.025,556.009v.022a5.113,5.113,0,0,1-5.119,5.118H78.173a7.146,7.146,0,0,1-2.331-.349,6.659,6.659,0,0,1-1.329-.587.519.519,0,0,1-.262-.153c-2.483-1.546-3.747-4.66-3.616-8.407l.022-11.718.087-69.526,45.914,13.919.393,44.106v.916l.957,1.175,8.342,10.455,2.179,2.722,3.572,4.466,2.177,2.722,1.111,1.395a5.043,5.043,0,0,1,1.634,3.724" transform="translate(-50.767 115.918)" fill="#f9b3a2"/>
      <path id="Trazado_160267" data-name="Trazado 160267" d="M137.025,542.94v.023a5.113,5.113,0,0,1-5.119,5.118H78.173a7.144,7.144,0,0,1-2.331-.349,6.656,6.656,0,0,1-1.329-.587.519.519,0,0,1-.262-.153c-2.483-1.546-3.747-4.66-3.616-8.407l.022-11.718a34.549,34.549,0,0,1,22.609-2.593c14.157,3.071,18.34,18.666,18.34,18.666Z" transform="translate(-50.767 128.986)" fill="#2f3f4f"/>
      <path id="Trazado_160268" data-name="Trazado 160268" d="M117.513,529.751v13.287h-2.177V527.029Z" transform="translate(-39.75 129.87)" fill="#2f3f4f"/>
      <path id="Trazado_160269" data-name="Trazado 160269" d="M122.126,535.518v6.1h-2.178V532.8Z" transform="translate(-38.613 131.291)" fill="#2f3f4f"/>
      <path id="Trazado_160270" data-name="Trazado 160270" d="M112.035,519.054l-15.7,14.2-1.458-1.612,16.2-14.682v.915Z" transform="translate(-44.792 127.389)" fill="#2f3f4f"/>
      <path id="Trazado_160271" data-name="Trazado 160271" d="M310.787,556.37a5.277,5.277,0,0,1-5.227,4.574H226.69a10.483,10.483,0,0,1-10.216-8.277l-4.966-16.4-16.837-55.651,47.636-5.664s13.134,39.686,15.421,46.569c.218.632.327,1,.349,1.023,0,.022.391.24,1.088.654,3.333,1.895,13.919,7.8,24.613,13.939.74.415,1.46.829,2.179,1.264,2.722,1.568,5.423,3.159,7.993,4.683.74.436,1.481.871,2.179,1.285,7.95,4.749,14.07,8.691,14.419,9.758.021.044.021.087.044.131a4.732,4.732,0,0,1,.2,2.113" transform="translate(-20.2 117.037)" fill="#f9b3a2"/>
      <path id="Trazado_160272" data-name="Trazado 160272" d="M92.752,84.986s-19.831,6.005-28.179,37.176c-6.317,23.579,12.66,45.031,26.478,51.293s19.807-2.449,19.807-4.628-18.105-83.84-18.105-83.84" transform="translate(-52.567 20.942)" fill="#f9b3a2"/>
      <path id="Trazado_160274" data-name="Trazado 160274" d="M146.774,97.228l-14.963,4.744-20.344-4.131,8.143-37.077.117-.566.213-.921.236-1.109,4.532,1.369,9.983,3,10.856,3.281.354,9.323.213,5.1Z" transform="translate(-40.703 14.333)" fill="#f9b3a2"/>
      <path id="Trazado_160275" data-name="Trazado 160275" d="M158.983,50.3l-.014.194a25.847,25.847,0,0,1-1.26,6.269,25.594,25.594,0,0,1-27.917,17.107,24.768,24.768,0,0,1-4.3-1.053,25.09,25.09,0,0,1-5.8-2.793c-.047-.027-.07-.054-.118-.057a27.9,27.9,0,0,1-2.671-2.04c-.324-.267-.6-.53-.9-.82-.277-.238-.551-.526-.8-.788a25.459,25.459,0,0,1,26.453-41.751,25.192,25.192,0,0,1,11.69,8.135,23.9,23.9,0,0,1,3.955,6.847,9.751,9.751,0,0,1,.457,1.18v.025a25.752,25.752,0,0,1,1.228,9.545" transform="translate(-41.525 5.729)" fill="#f9b3a2"/>
      <path id="Trazado_160276" data-name="Trazado 160276" d="M157.551,44.718s-.143,14.056-2.736,24.131c-3.21,12.474-16.307,12.225-26.9,4.983s-13.936-19.8-13.936-19.8,21.392-9.206,24.092-9.108,19.484-.2,19.484-.2" transform="translate(-40.085 11.019)" fill="#f9b3a2"/>
      <path id="Trazado_160277" data-name="Trazado 160277" d="M157.3,39.554c-3.851,15.9-14.937,29.609-21.093,30.972a23.043,23.043,0,0,1-3.919.464,63.44,63.44,0,0,1-12.6-.985.515.515,0,0,1-.12-.032,28.162,28.162,0,0,1-2.671-2.042c-.324-.268-.6-.531-.9-.82-.277-.238-.551-.527-.8-.786a25.46,25.46,0,0,1,26.452-41.754,25.2,25.2,0,0,1,11.691,8.137,23.879,23.879,0,0,1,3.955,6.847" transform="translate(-41.525 5.729)" fill="#2f3f4f"/>
      <path id="Trazado_160278" data-name="Trazado 160278" d="M147.072,50.832c-.323,4.718-2.923,8.382-5.807,8.184s-4.96-4.18-4.635-8.9,2.923-8.382,5.807-8.185,4.96,4.183,4.635,8.9" transform="translate(-34.511 10.331)" fill="#f9b3a2"/>
      <path id="Trazado_160279" data-name="Trazado 160279" d="M144.031,17.263A16.158,16.158,0,1,0,126.805,32.28a16.158,16.158,0,0,0,17.226-15.017" transform="translate(-40.633 0)" fill="#2f3f4f"/>
      <path id="Trazado_160280" data-name="Trazado 160280" d="M140.971,77.6a12.96,12.96,0,0,1-1.487-.637,13.693,13.693,0,0,1-7.151-8.119l8.425,3.658Z" transform="translate(-35.561 16.965)" fill="#2f3f4f"/>
      <path id="Trazado_160281" data-name="Trazado 160281" d="M210.168,110.356l-27.14,53.539-3.441,6.8s-27.356-1.046-51.774-3.485c-.784-.087-1.568-.153-2.352-.239-3.267-.349-6.448-.7-9.475-1.089-.784-.087-1.568-.2-2.331-.305-12.219-1.633-21.628-3.724-23.087-6.294-1.938-3.4-3.115-16.379-3.855-30.406-1.046-19.712-.981-41.3-.981-41.3a38.9,38.9,0,0,1,3.965-1.72c1.961-.74,4.225-1.569,5.859-2.179,1.111-.414,1.938-.718,2.177-.784.066-.021.152-.044.218-.065.262-.087.522-.153.784-.241.436-.13.892-.283,1.35-.414.241-.065.5-.152.74-.2a114.381,114.381,0,0,1,64.212,0c1.851.523,3.681,1.133,5.488,1.786a106.551,106.551,0,0,1,15.226,6.8c14.136,7.71,24.416,19.8,24.416,19.8" transform="translate(-47.045 19.067)" fill="#f9b3a2"/>
      <path id="Trazado_160282" data-name="Trazado 160282" d="M188.2,181.5c-2.177,4.508-8.865,9.933-8.865,9.933l-7.209,33.63-87.669-2.439-6.818-66.716s8.32-14.092,11.066-27.946a140.03,140.03,0,0,0,2.46-16.531c.719-10.28.653-20.562.522-26.486,1.961-.74,4.227-1.568,5.859-2.177-.044,2.722-.131,45,25.027,47.374,24.786,2.331,42.843-44.76,44.455-49.073,1.852.522,3.682,1.132,5.489,1.786-.391,2.832-5.664,39.554-1.481,59.179,2.591,12.11,9.1,18.1,13.984,20.954a20.038,20.038,0,0,0,5.881,2.439,29.606,29.606,0,0,1-2.7,16.075" transform="translate(-49.039 19.976)" fill="#ffe7cf"/>
      <path id="Trazado_160283" data-name="Trazado 160283" d="M192.072,103.83s21.781,31.492,31.855,48.372,32.535,57.176,32.535,57.176-13.612,27.634-36.075,20.284-61.263-76.912-61.263-76.912,12.256-41.66,13.344-42.477,19.6-6.444,19.6-6.444" transform="translate(-28.96 25.585)" fill="#f9b3a2"/>
      <path id="Trazado_160284" data-name="Trazado 160284" d="M213.943,153.79l23.415-34.305,31.038,4.628,7.078,12.524s-21.9,56.586-29.541,68.883-27.634,7.351-31.991,3.54-14.158-26.955-11.708-30.494,11.708-24.776,11.708-24.776" transform="translate(-18.432 29.443)" fill="#f9b3a2"/>
      <path id="Trazado_160285" data-name="Trazado 160285" d="M231.193,131.747s-5.264-19.513-4.174-29.133,8.531-12.763,13.613-18.754,6.352-12.063,8.893-13.515,8.589-.947,6.592,8.128-8.407,20.251-8.407,21.47,1.634,4.668,1.634,4.668l-.727,42.231s-17.243-3.206-17.243-4.3-.182-10.8-.182-10.8" transform="translate(-12.266 17.182)" fill="#f9b3a2"/>
      <path id="Trazado_160286" data-name="Trazado 160286" d="M278.227,569.534h-64.6s-1.393-3.441-3.833-9.453c-.654-1.612-1.372-3.4-2.179-5.358-4.988-12.306-12.676-31.213-21.345-52.406-.719-1.786-1.438-3.572-2.179-5.358-6.883-16.814-14.245-34.806-21.345-51.991-.719-1.765-1.46-3.529-2.179-5.271-7.993-19.342-15.508-37.334-21.345-51.077-.763-1.765-1.482-3.464-2.179-5.075-3.223-7.515-5.816-13.374-7.492-16.946-.327-.7-.61-1.284-.871-1.807-3.028-6.055-7.754-18.4-12.981-33.085-.719-2.027-1.46-4.073-2.179-6.165-7.515-21.345-15.7-46.22-21.345-63.776-.784-2.418-1.5-4.683-2.179-6.8-3.005-9.432-4.878-15.53-4.878-15.791,0-.719-.894-20.192-1.482-33.151-.3-6.513-.522-11.392-.522-11.392l6.883.2,2.179.065,21.345.588,2.179.065,21.345.588,2.179.066,21.345.587,2.179.066,8.037.218s1.7,4.791,4.269,12.088c2.462,6.949,5.706,16.206,9.039,25.724.719,2.092,1.46,4.182,2.179,6.273,3.441,9.976,6.8,19.733,9.191,27.073,1.568,4.814,6.055,20.54,12.154,42.474.7,2.527,1.437,5.14,2.179,7.841,6.142,22.151,13.613,49.4,21.345,77.693.74,2.635,1.46,5.292,2.179,7.95,7.3,26.682,14.7,53.93,21.345,78.412.74,2.722,1.46,5.381,2.179,8.016,12.241,45.066,21.388,78.913,21.388,78.913" transform="translate(-47.691 47.962)" fill="#44a38c"/>
      <path id="Trazado_160287" data-name="Trazado 160287" d="M137.117,353.9l-.566,12.7-8.866,202.934H63.258c-.022,0-6.142-145.694-7.886-183.332-.805-17.664-1.686-97.1,2.433-122.874,1.916-11.993,4.429-18.289,9.721-29.157,1.917-3.921,3.878-7.82,5.947-11.675.719-1.35,1.438-2.7,2.179-4.051,2.352-4.269,4.814-8.517,7.361-12.677,2.266-3.768,4.639-7.492,7.1-11.129,0,0,2.811,3.18,6.883,7.775.7.763,1.416,1.59,2.179,2.44.435.5.892,1,1.35,1.524,6.3,7.057,14.2,15.812,20,22.043.763.826,1.5,1.612,2.179,2.352,3.071,3.223,5.205,5.358,5.706,5.51,2.179.719,8.712,117.618,8.712,117.618" transform="translate(-54.693 47.962)" fill="#44a38c"/>
      <path id="Trazado_160288" data-name="Trazado 160288" d="M71.938,213.737v351.09H69.761V217.788c.718-1.35,1.437-2.7,2.178-4.051" transform="translate(-50.98 52.669)" fill="#fff"/>
      <path id="Trazado_160289" data-name="Trazado 160289" d="M90.811,194.859V569.5H88.634v-374.7Z" transform="translate(-46.33 48.001)" fill="#fff"/>
      <path id="Trazado_160290" data-name="Trazado 160290" d="M109.684,195.383V569.366h-2.178V195.317Z" transform="translate(-41.679 48.13)" fill="#fff"/>
      <path id="Trazado_160291" data-name="Trazado 160291" d="M128.557,195.908V388.322c-.762-1.764-1.481-3.463-2.177-5.075v-187.4Z" transform="translate(-37.028 48.259)" fill="#fff"/>
      <path id="Trazado_160292" data-name="Trazado 160292" d="M147.43,196.432v248.11c-.718-1.765-1.46-3.529-2.177-5.271v-242.9Z" transform="translate(-32.378 48.388)" fill="#fff"/>
      <path id="Trazado_160293" data-name="Trazado 160293" d="M166.3,233.2V494.359c-.718-1.786-1.437-3.572-2.177-5.358V226.93c.718,2.092,1.46,4.182,2.177,6.273" transform="translate(-27.727 55.92)" fill="#fff"/>
      <path id="Trazado_160294" data-name="Trazado 160294" d="M185.176,295.6V537.133c-.653-1.612-1.372-3.4-2.178-5.358V287.761c.7,2.527,1.437,5.14,2.178,7.841" transform="translate(-23.076 70.91)" fill="#fff"/>
      <path id="Trazado_160295" data-name="Trazado 160295" d="M204.049,364.335V529.676h-2.178V356.385c.74,2.635,1.458,5.292,2.178,7.95" transform="translate(-18.426 87.82)" fill="#fff"/>
      <path id="Trazado_160296" data-name="Trazado 160296" d="M222.922,433.689V512.6h-2.178V425.673c.74,2.723,1.458,5.381,2.178,8.016" transform="translate(-13.775 104.894)" fill="#fff"/>
      <path id="Trazado_160297" data-name="Trazado 160297" d="M176.453,209.164l-17.425-.588-2.2-.087-61.9-2.113-4.617-.152-2.2-.087-3.071-.108-7.623-.262c2.266-3.768,4.639-7.492,7.1-11.131l5.968.174,2.222.044,62.859,1.764,2.179.066,14.441.391s1.7,4.792,4.269,12.089" transform="translate(-49.094 47.962)" fill="#2f3f4f"/>
      <path id="Trazado_160298" data-name="Trazado 160298" d="M307.458,544.4a5.277,5.277,0,0,1-5.227,4.574h-78.87a10.483,10.483,0,0,1-10.216-8.277l-4.966-16.4a31.587,31.587,0,0,1,21.455,2.853c9.772,5.308,13.069,17.25,13.069,17.25Z" transform="translate(-16.871 129.011)" fill="#2f3f4f"/>
      <path id="Trazado_160299" data-name="Trazado 160299" d="M268.339,526.108v19.777h-2.177V524.844c.74.414,1.458.828,2.177,1.264" transform="translate(-2.583 129.331)" fill="#2f3f4f"/>
      <path id="Trazado_160300" data-name="Trazado 160300" d="M276.5,530.9v13.809h-2.177V529.615c.739.435,1.481.871,2.177,1.285" transform="translate(-0.572 130.507)" fill="#2f3f4f"/>
      <path id="Trazado_160301" data-name="Trazado 160301" d="M251.793,513.992l-25.94,18.078-1.264-1.786,25.767-17.97c.217.632.327,1,.348,1.025,0,.021.393.239,1.089.653" transform="translate(-12.828 126.244)" fill="#2f3f4f"/>
      <path id="Trazado_160302" data-name="Trazado 160302" d="M143.578,208.184l-2.2-.087-1.264-11.871,2.179.066Z" transform="translate(-33.644 48.354)" fill="#a66353"/>
      <path id="Trazado_160303" data-name="Trazado 160303" d="M90.59,194.82l-2.4,11.37-2.2-.087,2.374-11.326Z" transform="translate(-46.98 47.996)" fill="#a66353"/>
      <path id="Trazado_160304" data-name="Trazado 160304" d="M124.423,342.614a1.091,1.091,0,0,1-.956-.565c-.91-1.658-22.356-40.788-27.847-57.08a1.088,1.088,0,1,1,2.063-.7c5.432,16.11,27.472,56.322,27.694,56.727a1.087,1.087,0,0,1-.954,1.613" transform="translate(-44.623 69.867)" fill="#2f3f4f"/>
      <path id="Trazado_160305" data-name="Trazado 160305" d="M78.271,144.436a1.09,1.09,0,0,1-1.077-.929l-3.246-21.764a1.089,1.089,0,0,1,2.155-.322l3.246,21.764a1.091,1.091,0,0,1-.916,1.239,1.2,1.2,0,0,1-.162.011" transform="translate(-49.951 29.692)" fill="#2f3f4f"/>
      <path id="Trazado_160306" data-name="Trazado 160306" d="M224.225,167.077a1.087,1.087,0,0,1-.962-.578l-10.709-20.147a1.089,1.089,0,0,1,1.923-1.023l10.708,20.148a1.087,1.087,0,0,1-.96,1.6" transform="translate(-15.825 35.669)" fill="#2f3f4f"/>
      <path id="Trazado_160307" data-name="Trazado 160307" d="M289.509,95.132c-.915,14.637-23.241,53.647-23.241,53.647l-18.34,4.531s-8.516-19.059-8.712-20.148c-.174-1.088,5.446-33.347,5.446-33.347s1.961,4.313,8.32,2.505c6.382-1.83,15.139-12.459,15.139-12.459l12.458-19.646a48.024,48.024,0,0,1,3.921,6.577c.522,1.046,1.067,2.179,1.568,3.42A47.12,47.12,0,0,1,289.2,90.82v.021c.131.763.218,1.547.305,2.353a9.654,9.654,0,0,1,0,1.938" transform="translate(-9.224 17.302)" fill="#f9b3a2"/>
      <path id="Trazado_160308" data-name="Trazado 160308" d="M278.915,78.911a33.894,33.894,0,0,1-3.18,8.494c-3.921,7.319-5.51,8.866-5.685,9.018a1.1,1.1,0,0,1-.719.283,1.1,1.1,0,0,1-.74-1.895c.044-.044,1.5-1.5,5.227-8.43a33.568,33.568,0,0,0,3.529-10.89c.522,1.045,1.067,2.179,1.568,3.419" transform="translate(-2.072 18.602)" fill="#2f3f4f"/>
      <path id="Trazado_160309" data-name="Trazado 160309" d="M280.985,91.054c-3.7,6.818-5.184,8.277-5.358,8.43a1.087,1.087,0,1,1-1.46-1.612c.044-.044,1.5-1.5,5.206-8.408.5-.915.915-1.807,1.306-2.7.131.763.218,1.547.305,2.353a9.659,9.659,0,0,1,0,1.938" transform="translate(-0.7 21.38)" fill="#2f3f4f"/>
      <path id="Trazado_160310" data-name="Trazado 160310" d="M142.613,52.184a1.089,1.089,0,0,0-1.911,1.047,20.3,20.3,0,0,1,2.135,8.734c0,5.067-1.9,8.168-2.933,8.168-1.083,0-2.722-3.258-2.722-8.168a16.778,16.778,0,0,1,1.718-6.918,14.84,14.84,0,0,1-1.266-2.341A18.868,18.868,0,0,0,135,61.965c0,5.14,1.683,10.345,4.9,10.345,3.2,0,5.11-5.26,5.11-10.345a22.368,22.368,0,0,0-2.4-9.781" transform="translate(-34.903 12.719)" fill="#fff"/>
      <path id="Trazado_160311" data-name="Trazado 160311" d="M158.764,275.7a.872.872,0,0,1-.327.065,1.118,1.118,0,0,1-1.046-.762l-34.5-108.95L96.165,81.676c.435-.131.892-.283,1.35-.414.239-.066.5-.153.74-.2L125.243,166.3l34.24,108.057a1.089,1.089,0,0,1-.719,1.35" transform="translate(-44.474 19.976)" fill="#0f0a1c"/>
      <path id="Trazado_160312" data-name="Trazado 160312" d="M143.911,236.891c-.342,1.367,13.556,38.582,15.228,40.9a3.429,3.429,0,0,0,1.475,1.327c.563.207,41.713-10.365,42.376-12.3.288-.84-.317-2.273-.528-3.067-.566-2.124-1.243-4.219-1.931-6.306-1.876-5.682-3.926-11.31-6.068-16.9-1.749-4.563-3.479-9.194-5.662-13.571-.588-1.179-.9-2.27-2.366-2q-1.04.194-2.074.408c-2.217.46-4.426.957-6.633,1.461q-8.9,2.027-17.764,4.229c-4.478,1.111-9.013,2.149-13.413,3.554a6.6,6.6,0,0,0-1.274.472,2.755,2.755,0,0,0-1.365,1.794" transform="translate(-32.71 55.427)" fill="#2f3f4f"/>
      <path id="Trazado_160313" data-name="Trazado 160313" d="M178.562,251.027c-5.463,0-28.456-11.587-33.147-13.98a1.089,1.089,0,1,1,.99-1.939c13.764,7.021,29.738,14.2,32.241,13.74,2.1-.406,5.783-11.673,7.909-21.941a1.09,1.09,0,1,1,2.134.442c-1.1,5.321-5.051,22.75-9.627,23.636a2.6,2.6,0,0,1-.5.041" transform="translate(-32.484 55.7)" fill="#0f0a1c"/>
    </g>
  </g>
</svg>
