<svg xmlns="http://www.w3.org/2000/svg" xmlns:xlink="http://www.w3.org/1999/xlink" width="105" height="105" viewBox="0 0 105 105">
  <defs>
    <clipPath id="clip-path">
      <rect id="Rectángulo_42763" data-name="Rectángulo 42763" width="71.252" height="71.254" fill="none"/>
    </clipPath>
  </defs>
  <g id="Grupo_169811" data-name="Grupo 169811" transform="translate(1834 9369)">
    <circle id="Elipse_4894" data-name="Elipse 4894" cx="52.5" cy="52.5" r="52.5" transform="translate(-1834 -9369)" fill="#6b8dfc"/>
    <g id="Grupo_169813" data-name="Grupo 169813" transform="translate(-1817 -9352)">
      <g id="Grupo_169812" data-name="Grupo 169812" clip-path="url(#clip-path)">
        <path id="Trazado_162622" data-name="Trazado 162622" d="M53.07,0c.77.181,1.55.331,2.31.548a13.623,13.623,0,0,1,8.492,19.017c-.259.532-.119.666.337.864A11.061,11.061,0,0,1,68.3,23.571c.526.631.506,1-.041,1.637-.509.544-1.069.5-1.664-.18a10.745,10.745,0,0,0-1.746-1.651,5.271,5.271,0,0,0-1-.6c-.064-.028-.125-.061-.187-.093-1.113-.566-1.137-.5-1.977.391a13.472,13.472,0,0,1-8,4.23,10.479,10.479,0,0,1-1.934.154c-.152-.006-.356-.043-.419.153-.058.182.1.291.222.4A11.139,11.139,0,0,0,59.2,31.139a19.8,19.8,0,0,1,3.176.246,7.771,7.771,0,0,1,5.755,4.031c.133.175.131.527.4.5.24-.023.277-.341.352-.552a9.5,9.5,0,0,0,.012-5.719,4.366,4.366,0,0,1-.2-.876.965.965,0,0,1,.8-1.083c.92-.1,1.24.09,1.486.95a12.662,12.662,0,0,1,.322,6.651,6.527,6.527,0,0,1-.974,2.208c-.144.206-.19.334.067.487,2.623,1.556,2.386,5.238.2,7.164a4.722,4.722,0,0,1-2.466,1.189.75.75,0,0,0-.616.459,21.548,21.548,0,0,1-4.945,6.045.791.791,0,0,0-.346.817c.123.754.215,1.515.265,2.277a.522.522,0,0,0,.48.551,4.532,4.532,0,0,1,.465.138c.609.2,1.142.39,1.733-.211a1.859,1.859,0,0,1,1.911-.244c1.084.326,2.173.638,3.255.973a9.639,9.639,0,0,1,7.085,8.236,38.71,38.71,0,0,0,.833,4.341v.835c-.308.417-.644.8-1.236.674a1.169,1.169,0,0,1-.9-1.094,2.588,2.588,0,0,1-.4-1.308,43.3,43.3,0,0,0-.962-4.765,6.966,6.966,0,0,0-4.408-4.5c-.977-.364-1.984-.64-2.98-.95-.962-.3-.98-.285-1.069.725a38.781,38.781,0,0,1-1.621,8.014A6.977,6.977,0,0,1,63.4,70.158a3.1,3.1,0,0,0-.172.3,1.087,1.087,0,0,1-1.163.777,1.062,1.062,0,0,1-.947-1.093c-.162-.3.027-.534.138-.779a32.625,32.625,0,0,0,2.468-9.271,2.2,2.2,0,0,0,.014-.277c0-.311.113-.646-.3-.832a.694.694,0,0,0-.946.286,6.76,6.76,0,0,1-6.5,4.207,1.122,1.122,0,0,1-1.137-.732c-.23-.927.17-1.457,1.188-1.544a6,6,0,0,0,2.758-.8,3.321,3.321,0,0,0,1.508-1.984,11.44,11.44,0,0,0-.209-3.227c-.015-.211-.147-.27-.341-.2a2.174,2.174,0,0,0-.254.11,8.741,8.741,0,0,1-7.817.025c-.231-.106-.563-.419-.655.156-.054.529-.081,1.067-.185,1.581a3.28,3.28,0,0,0,1.114,3.3,1.07,1.07,0,0,1,.144,1.626c-.725.559-1.088.557-1.767-.034a4.331,4.331,0,0,1-1.588-2.388c-.16-.849-.551-.753-1.106-.473-.362.345-.249.776-.183,1.177A46.441,46.441,0,0,0,49.792,68.9c.164.435.49.865.235,1.381A1.073,1.073,0,0,1,49,71.241c-.689.035-.943-.475-1.167-1a1.791,1.791,0,0,1-.514-.964A48.248,48.248,0,0,1,44.844,59.1c-.088-.727-.135-.763-.823-.548-1.083.34-2.188.615-3.247,1.025A7.066,7.066,0,0,0,36.159,64.9c-.331,1.493-.557,3.008-.828,4.512a1.361,1.361,0,0,1-.318.828c-.271.8-.746,1.141-1.341.975-.616-.172-.851-.7-.7-1.515.313-1.731.559-3.477.937-5.194a9.451,9.451,0,0,1,6.573-7.255c1.157-.4,2.348-.7,3.519-1.059a2.169,2.169,0,0,1,2.371.511c.31.324.57.177.873.086,1.387-.417,1.276-.439,1.559-1.856a2.685,2.685,0,0,0-1.059-2.89,17.644,17.644,0,0,1-4.12-5.288.764.764,0,0,0-.645-.419A5,5,0,0,1,39,40.266a4,4,0,0,1,1.267-1.951c.166-.144.38-.207.178-.534-2.017-3.265-2-6.693-.776-10.21a1.56,1.56,0,0,0,.039-.243H29.189a4.393,4.393,0,0,1-1.278,4.157,4.243,4.243,0,0,1-3.294,1.208c-2.653-.143-4.429-2.511-4-5.386a14.274,14.274,0,0,1-4.676-.86,14.164,14.164,0,0,1-3.008-1.562c-.7-.478-.8-.817-.488-1.654a1.025,1.025,0,0,1,1.458-.416c.368.183.7.434,1.047.647a11.413,11.413,0,0,0,6.332,1.52,1.9,1.9,0,0,0,.953-.382,4.5,4.5,0,0,1,5.338.01,2.239,2.239,0,0,0,1.3.382c7.764-.006,15.529.027,23.294-.022a10.413,10.413,0,0,0,6.674-2.606A10.768,10.768,0,0,0,62.689,16,11.188,11.188,0,0,0,60.628,6.8,11.111,11.111,0,0,0,51.64,2.286c-1.715-.035-3.43.006-5.146-.012C45.62,2.265,45.329,2.038,45,1.2A1.154,1.154,0,0,1,45.835,0Z" transform="translate(-6.999)"/>
        <path id="Trazado_162623" data-name="Trazado 162623" d="M3.446,21.268a1.294,1.294,0,0,1-1.586-.762A13.644,13.644,0,0,1,11.91.128c.094-.013.181-.02.214-.128H34.662a1.062,1.062,0,0,1,.845,1.218A1.3,1.3,0,0,1,34.15,2.279c-.278.014-.556.009-.834.009q-9.8,0-19.593,0A11.381,11.381,0,0,0,2.325,14.3a10.794,10.794,0,0,0,1.406,4.829,3.223,3.223,0,0,1,.388.888.977.977,0,0,1-.674,1.247" transform="translate(0)"/>
        <path id="Trazado_162624" data-name="Trazado 162624" d="M81.352,1.113A1.444,1.444,0,0,0,80.642,0h4.174a1.661,1.661,0,0,0-.68,1.114,3.857,3.857,0,0,1-2.784,0" transform="translate(-45.98)" fill="#fdfdfd"/>
        <path id="Trazado_162625" data-name="Trazado 162625" d="M38.193,2.589h2.784a1.287,1.287,0,0,0,1.448.987,47.987,47.987,0,0,1,6.723.133,10.916,10.916,0,0,1,7.41,4.413,10.217,10.217,0,0,1,.487,7.259,12.92,12.92,0,0,1-11.287,9.693,20.048,20.048,0,0,1-2.287.124q-8.968,0-17.935,0a2.134,2.134,0,0,1-1.338-.269c-.092-.067-.2-.14-.192-.271.012-.174.168-.2.3-.234.316-.077.649,0,.963-.1a6.723,6.723,0,0,0,3.781-2.054,4.066,4.066,0,0,0,1-1.874c.162-.723.363-.812.977-.357a13.436,13.436,0,0,0,3.231,1.887,8.082,8.082,0,0,0,4.7.5,3.019,3.019,0,0,1,1.761.17,8.494,8.494,0,0,0,10.078-3.649,6.9,6.9,0,0,0-1.981-9.041,7.333,7.333,0,0,0-2.219-1.137,1.69,1.69,0,0,1-1.013-.785,14.565,14.565,0,0,0-1.333-1.866,2.634,2.634,0,0,0-.438-.446.786.786,0,0,0-1.079,0,.773.773,0,0,0-.148,1.066,8.964,8.964,0,0,0,.576.784c.125.165.295.338.2.56-.109.256-.377.245-.6.247a15.22,15.22,0,0,0-4.023.732,9.117,9.117,0,0,0-1.565.573.708.708,0,0,1-1-.27C33.814,6.332,30.65,5.494,27,6.038a5.464,5.464,0,0,0-2.858,1.349,1.356,1.356,0,0,1-1.332.325,8.356,8.356,0,0,0-6.829,1.274,6.825,6.825,0,0,0-2.044,2.151,4.436,4.436,0,0,1-.3.469c-.113.147-.232.331-.434.3-.238-.036-.3-.268-.358-.469A2.879,2.879,0,0,1,12.812,10c.19-.917.008-1.359-.558-1.477s-.962.311-1.142,1.21a4.252,4.252,0,0,0,1.482,4.3,1.185,1.185,0,0,1,.44.833c.267,3.178,2.171,5,5.037,5.968a2.109,2.109,0,0,1,1.378,1.042,3.7,3.7,0,0,0,1.182,1.254c.2.15.518.262.427.629a.87.87,0,0,1-.652.188,5.414,5.414,0,0,0-2.828.848,3.016,3.016,0,0,1-1.59.415c-1.414-.01-2.828-.007-4.242,0a3.082,3.082,0,0,1-1.158-.193,6.175,6.175,0,0,1-.649-.379,1.161,1.161,0,0,0-1.675.072c-.757-.561-1.193-1.449-2-1.963.668-.648.713-.951.263-1.757A11.546,11.546,0,0,1,14.321,3.771a12.155,12.155,0,0,1,2.486-.211c6.647.006,13.295,0,19.942.012.748,0,1.259-.219,1.444-.983" transform="translate(-2.821 -1.476)" fill="#f9f7f7"/>
        <path id="Trazado_162626" data-name="Trazado 162626" d="M65.176,147.394c.32-1.823.573-3.661.975-5.466a7.255,7.255,0,0,1,4.808-5.421c1.187-.448,2.429-.75,3.645-1.124.3-.093.524-.141.563.308a46.122,46.122,0,0,0,2.8,11.571A.937.937,0,0,1,78,147.4l-12.823,0" transform="translate(-37.161 -77.156)" fill="#f4dd46"/>
        <path id="Trazado_162627" data-name="Trazado 162627" d="M131.215,148.612a34.8,34.8,0,0,0,2.639-10.478,2.948,2.948,0,0,1,.095-.4.746.746,0,0,1,.788-.046c.547.185,1.109.319,1.656.505a8.466,8.466,0,0,1,5.864,6.6c.218.992.379,2,.57,2.994a.828.828,0,0,1-.1.789l-11.516.035" transform="translate(-74.815 -78.454)" fill="#f4dd46"/>
        <path id="Trazado_162628" data-name="Trazado 162628" d="M111.247,131.634a3.379,3.379,0,0,1-2.29,2.475,5.467,5.467,0,0,1-2.021.442c-1.008.05-1.3.366-1.295,1.369-.155-.17-.307-.365-.556-.371a10.072,10.072,0,0,1-2.192-.59,1.171,1.171,0,0,0-.356-1.59,3.11,3.11,0,0,1-1.127-3.158c.1-.591.162-1.19.241-1.786.262-.18.489-.014.711.088a8.85,8.85,0,0,0,6.925.436c1.045-.374,1.431-.089,1.611,1a5.816,5.816,0,0,0,.349,1.687" transform="translate(-57.786 -73.18)" fill="#f1d0a4"/>
        <path id="Trazado_162629" data-name="Trazado 162629" d="M57.234,74.575a3.13,3.13,0,1,1,3.128-3.149,3.145,3.145,0,0,1-3.128,3.149" transform="translate(-30.849 -38.951)"/>
        <path id="Trazado_162630" data-name="Trazado 162630" d="M146.356,147.346c-.459-2.657-.594-5.409-2.482-7.613a8.609,8.609,0,0,0-4.569-2.8,5.713,5.713,0,0,0-1.73-.435c0-1.214,0-1.214,1.179-.86.773.233,1.544.473,2.319.7a7.458,7.458,0,0,1,5.641,6.176c.307,1.609.565,3.228.845,4.842l-1.2-.01" transform="translate(-78.441 -77.222)" fill="#f2d232"/>
        <path id="Trazado_162631" data-name="Trazado 162631" d="M126.656,137.034c.114-.221-.14-.677.378-.637.776.06,1.137.361,1.084.868a30.48,30.48,0,0,1-2.677,10.187,4.436,4.436,0,0,0-.163.455c-.345.015-.631,0-.373-.476a26.8,26.8,0,0,0,2.434-7.818,14.581,14.581,0,0,0,.183-1.573.829.829,0,0,0-.866-1.006" transform="translate(-71.16 -77.768)" fill="#eee7e4"/>
        <path id="Trazado_162632" data-name="Trazado 162632" d="M96.329,148.388c-.537-1.694-1.1-3.379-1.6-5.083a35.66,35.66,0,0,1-1.232-5.758c-.05-.408.068-.561.455-.551.257,1.628.453,3.263.8,4.879a22.534,22.534,0,0,0,2.011,5.85c.307.583.156.728-.429.663" transform="translate(-53.301 -78.111)" fill="#eee7e4"/>
        <path id="Trazado_162633" data-name="Trazado 162633" d="M137.984,57.746a1.2,1.2,0,0,0-.513,1.606,10.492,10.492,0,0,1,.366,5.184,4.5,4.5,0,0,1-.9,2.04l-.465-1.043c-.027-.674.2-1.314.229-1.988a12.785,12.785,0,0,0-3.84-10.034c-.214-.213-.544-.39-.442-.791a7.819,7.819,0,0,1,2.766,2.239,1.061,1.061,0,0,0,1.565.309l1.234,2.479" transform="translate(-75.491 -30.059)" fill="#685e68"/>
        <path id="Trazado_162634" data-name="Trazado 162634" d="M92.524,71.594c.231-.47.356-1.173.725-1.341.335-.153.771.513,1.191.778.212.133.4.3.606.446a12.145,12.145,0,0,0,6.887,2.45c1.041.034,2.078.113,3.115.188a5.15,5.15,0,0,1,2.539.85,4.266,4.266,0,0,1,1.829,3.208,25.453,25.453,0,0,1-.288,5.813,5.863,5.863,0,0,1-.623,1.831,18.624,18.624,0,0,1-6.236,6.772c-2.922,1.849-5.746,1.5-8.47-.452a19.649,19.649,0,0,1-5.242-5.769,7.565,7.565,0,0,1-1.049-3.2,33.033,33.033,0,0,1-.118-4.854A6.4,6.4,0,0,1,90,74.839a7.945,7.945,0,0,0,2.529-3.245" transform="translate(-49.807 -40.043)" fill="#f1d0a4"/>
        <path id="Trazado_162635" data-name="Trazado 162635" d="M18.068,32.355q2.815-.01,5.629-.018a1.529,1.529,0,0,0,.872-.168,6.111,6.111,0,0,1,3.79-1.1c.06,0,.123-.055.186-.085.237-.156.45-.021.649.076a5.588,5.588,0,0,0,2.692.531c.333-.011.7-.09.976.213-.379.263-.816.049-1.257.164a1.124,1.124,0,0,0,.945.371c6.555,0,13.111.092,19.664-.035a12.509,12.509,0,0,0,10.2-5.429,12.033,12.033,0,0,0,2.3-7.96,15.862,15.862,0,0,0-.671-3.447,10.7,10.7,0,0,1,2.4,7.136,11.5,11.5,0,0,1-11.568,11.41c-7.69.019-15.381,0-23.071.009a1.305,1.305,0,0,1-.877-.294,4.279,4.279,0,0,0-5.445-.009,1.341,1.341,0,0,1-.874.306,11.232,11.232,0,0,1-6.54-1.669" transform="translate(-10.302 -8.818)" fill="#efe8e5"/>
        <path id="Trazado_162636" data-name="Trazado 162636" d="M115.242,51.889a30.264,30.264,0,0,1,2.4,2.854,13.274,13.274,0,0,1,2.055,6.524,7.244,7.244,0,0,1-.4,3.435,8.059,8.059,0,0,0-7.128-4.068,15.064,15.064,0,0,1-5.859-.909,14.623,14.623,0,0,1-3.787-2.545c-.16-.144-.316-.306-.215-.536s.325-.126.495-.128a13.455,13.455,0,0,0,10.59-4.933c.275-.321.514-.419.879-.215.321.179.649.347.973.52" transform="translate(-58.314 -29.228)" fill="#7a6d79"/>
        <path id="Trazado_162637" data-name="Trazado 162637" d="M80.6,73.184a3.373,3.373,0,0,1-1.064-1.62,10.049,10.049,0,0,1,.277-7.508.86.86,0,0,1,.933-.613c1.8.036,3.611.013,5.416.015.662,0,.893.21.709.815A7.092,7.092,0,0,1,84.06,68.6,7.234,7.234,0,0,0,80.6,73.184" transform="translate(-45.006 -36.173)" fill="#796d78"/>
        <path id="Trazado_162638" data-name="Trazado 162638" d="M36.758,64.16a2.258,2.258,0,0,1,3.3-3.046.8.8,0,0,1,.109.72,3.568,3.568,0,0,1-2.621,2.475.931.931,0,0,1-.785-.148" transform="translate(-20.701 -34.521)" fill="#f9f7f7"/>
        <path id="Trazado_162639" data-name="Trazado 162639" d="M111.632,130.934a.478.478,0,0,1-.418-.548,11.427,11.427,0,0,0-.155-1.3c-.057-.741-.371-.972-1.1-.731a10.354,10.354,0,0,1-2.955.619,9.618,9.618,0,0,1-4.392-1.018c-.186-.088-.382-.154-.573-.23-.033-.485-.06-.813.628-.454a8.376,8.376,0,0,0,8.214-.021c.467-.247.568-.156.6.333.045.69.169,1.374.232,2.064a2.139,2.139,0,0,1-.079,1.286" transform="translate(-58.171 -72.48)" fill="#f0ba87"/>
        <path id="Trazado_162640" data-name="Trazado 162640" d="M37.356,64.914a3.151,3.151,0,0,0,3.3-3.046,2.073,2.073,0,0,1,.763,2.265,2.153,2.153,0,0,1-1.787,1.709,2.1,2.1,0,0,1-2.274-.928" transform="translate(-21.299 -35.275)" fill="#eee7e5"/>
        <path id="Trazado_162641" data-name="Trazado 162641" d="M117.792,76.617a18.879,18.879,0,0,0-6.038-.852,11.264,11.264,0,0,1-6.3-2.359,1.141,1.141,0,0,1-.2-.277c2.763,1.777,5.88,2,9.037,2.1a4.868,4.868,0,0,1,3.5,1.387" transform="translate(-60.011 -41.696)" fill="#f0b987"/>
        <path id="Trazado_162642" data-name="Trazado 162642" d="M80.722,96.48c-1.73-.649-2.33-3.012-1.081-4.064.213-.18.477-.413.726-.334.285.09.113.442.127.673.037.622.017,1.247.053,1.868s.113,1.221.175,1.856" transform="translate(-45.03 -52.494)" fill="#efb986"/>
        <path id="Trazado_162643" data-name="Trazado 162643" d="M142.974,96.59a31.42,31.42,0,0,0,.266-4.125c.008-.392.152-.412.459-.266a1.922,1.922,0,0,1,1,2.1,2.947,2.947,0,0,1-1.724,2.294" transform="translate(-81.52 -52.521)" fill="#efb886"/>
        <path id="Trazado_162644" data-name="Trazado 162644" d="M92.572,73.4a5.355,5.355,0,0,1-2.116,3.14,8.121,8.121,0,0,0-2.816,3.3,1.932,1.932,0,0,1-.2.273,4.162,4.162,0,0,1,2-3.656,10.454,10.454,0,0,0,3.13-3.063" transform="translate(-49.855 -41.852)" fill="#f0b987"/>
        <path id="Trazado_162645" data-name="Trazado 162645" d="M33.129,27.966a7.5,7.5,0,0,1-4.317-.82,5.154,5.154,0,0,1-2.079-2.177c-.141-.323-.45-.286-.7-.361-2.72-.815-4.691-2.42-5.308-5.294a4.491,4.491,0,0,0-1.132-2.3,4.242,4.242,0,0,1-.735-4.493,1.04,1.04,0,1,1,1.979.634,2.941,2.941,0,0,0,.1,2.212.234.234,0,0,0,.222-.156,8.324,8.324,0,0,1,9.533-4.154.936.936,0,0,0,1.028-.248,6.348,6.348,0,0,1,3.982-1.6,9.815,9.815,0,0,1,7.231,2.247,4.357,4.357,0,0,1,.542.538c.322.381.57,1.011.953,1.1.4.095.914-.344,1.392-.512a16.4,16.4,0,0,1,5.218-.978,3.415,3.415,0,0,0-.75-1.06A1.05,1.05,0,0,1,50.322,9a1.031,1.031,0,0,1,1.531.171,11.513,11.513,0,0,1,1.6,2.176,1.513,1.513,0,0,0,.92.741,7.215,7.215,0,0,1,5.21,6.151,6.919,6.919,0,0,1-3.012,6.692,8.374,8.374,0,0,1-8.521,1.213,1.2,1.2,0,0,0-.732-.141c-3.275.777-6.049-.343-8.606-2.28-.178-.135-.363-.262-.573-.413-.563,2.8-2.459,4.084-5.012,4.652" transform="translate(-10.569 -4.982)"/>
        <path id="Trazado_162646" data-name="Trazado 162646" d="M60.391,73.435a.9.9,0,0,1,.643,1.176.943.943,0,0,1-.99.785.961.961,0,0,1-1.029-.96,4.206,4.206,0,0,0,1.376-1" transform="translate(-33.649 -41.871)" fill="#ede6e3"/>
        <path id="Trazado_162647" data-name="Trazado 162647" d="M60.391,73.34c-.288.569-.619,1.078-1.376,1q.119-1.348,1.376-1" transform="translate(-33.649 -41.776)" fill="#f4f2f2"/>
        <path id="Trazado_162648" data-name="Trazado 162648" d="M112.338,109c.114.005.3.01.485.023.758.055,1.209.47,1.182,1.085a1.082,1.082,0,0,1-1.261,1,4.921,4.921,0,0,0-2.244.342,5.472,5.472,0,0,0-1.387.909,1.059,1.059,0,0,1-1.6-.021,1.028,1.028,0,0,1,.217-1.529A6.611,6.611,0,0,1,112.338,109" transform="translate(-61.159 -62.148)"/>
        <path id="Trazado_162649" data-name="Trazado 162649" d="M110.436,101.463a2.608,2.608,0,0,1-1.506-.424,1.046,1.046,0,0,1-.443-1.371,1,1,0,0,1,1.345-.474,1.385,1.385,0,0,0,1.249,0,1,1,0,0,1,1.349.459,1.03,1.03,0,0,1-.421,1.375,2.653,2.653,0,0,1-1.573.431" transform="translate(-61.795 -56.501)" fill="#010000"/>
        <path id="Trazado_162650" data-name="Trazado 162650" d="M101.032,90.284c0-.3-.021-.6.005-.9a1.016,1.016,0,0,1,1.056-.979.973.973,0,0,1,1,.954,15.379,15.379,0,0,1,0,1.945,1.02,1.02,0,0,1-1.054.985,1.039,1.039,0,0,1-1.014-1.029c-.022-.323,0-.649,0-.973" transform="translate(-57.601 -50.403)"/>
        <path id="Trazado_162651" data-name="Trazado 162651" d="M120.452,90.324c0-.3-.018-.6,0-.9a1.04,1.04,0,0,1,1.016-1.026,1.019,1.019,0,0,1,1.053.985,15.379,15.379,0,0,1-.006,1.945.975.975,0,0,1-1.006.954,1.016,1.016,0,0,1-1.054-.982c-.028-.322-.005-.649-.006-.973" transform="translate(-68.674 -50.399)"/>
        <path id="Trazado_162652" data-name="Trazado 162652" d="M80.482,24.806a13.422,13.422,0,0,0-.144-2.609c-.083-.343.072-.5.361-.624a13.966,13.966,0,0,1,6.465-1.255.565.565,0,0,1,.585.446,7.439,7.439,0,0,1-4.426,9.4.669.669,0,0,1-.7-.138,4.4,4.4,0,0,1-2.144-3.747c-.019-.555,0-1.111,0-1.477" transform="translate(-45.794 -11.575)" fill="#f9f7f7"/>
        <path id="Trazado_162653" data-name="Trazado 162653" d="M57.176,22.289a20.741,20.741,0,0,0-1.691-3.872,8.075,8.075,0,0,0-2.131-2.536c-.414-.3-.327-.438.064-.638a6.923,6.923,0,0,1,5.594-.164,5.566,5.566,0,0,1,2.992,2.143c.14.21.312.394-.006.634a50.22,50.22,0,0,0-4.621,4.314,1.068,1.068,0,0,1-.2.118" transform="translate(-30.266 -8.308)" fill="#f9f7f7"/>
        <path id="Trazado_162654" data-name="Trazado 162654" d="M97.62,22.429a4.941,4.941,0,0,1,1.843,7.127A6.483,6.483,0,0,1,93.8,32.5c-.11,0-.235.019-.306-.1,3.91-3.66,4.419-4.886,4.13-9.966" transform="translate(-53.305 -12.788)" fill="#f9f7f7"/>
        <path id="Trazado_162655" data-name="Trazado 162655" d="M40.362,24.9a6.272,6.272,0,0,0-5.774-.308,4.373,4.373,0,0,0-2.94,4.146c-.03.646-.2.663-.7.4a4.881,4.881,0,0,1-2.775-3.571A9.485,9.485,0,0,0,34.425,23.8a10.9,10.9,0,0,0,2.658-2.527c.31-.422.5-.362.847-.075a9.493,9.493,0,0,1,2.432,3.7" transform="translate(-16.063 -11.957)" fill="#f9f7f7"/>
        <path id="Trazado_162656" data-name="Trazado 162656" d="M69.687,26.882c.11,1.426-.037,2.741.141,4.05a6.594,6.594,0,0,0,1.715,3.581c-2.659-.227-4.561-1.65-6.411-3.272,1.5-1.431,2.882-2.959,4.555-4.36" transform="translate(-37.136 -15.327)" fill="#f9f7f7"/>
        <path id="Trazado_162657" data-name="Trazado 162657" d="M42.1,36.7c-1.064.021-1.11-.023-1.066-.912.084-1.7.877-2.461,3.082-2.814,1.53-.245,2.7.561,3.818,1.471.37.3.009.37-.138.475a9.481,9.481,0,0,1-4.5,1.665c-.459.052-.921.089-1.2.115" transform="translate(-23.392 -18.775)" fill="#f9f7f7"/>
        <path id="Trazado_162658" data-name="Trazado 162658" d="M35.817,18.522A8.649,8.649,0,0,1,29.568,22c-.24.012-.579.127-.707-.094-.152-.26.121-.518.264-.74A6.05,6.05,0,0,1,33.7,18.4a5.319,5.319,0,0,1,2.112.125" transform="translate(-16.43 -10.46)" fill="#f9f7f7"/>
        <path id="Trazado_162659" data-name="Trazado 162659" d="M43.653,43.8a12.585,12.585,0,0,0,6.7-2.086A3.009,3.009,0,0,1,48.3,44.326a4.631,4.631,0,0,1-4.649-.523" transform="translate(-24.89 -23.786)" fill="#f8f6f6"/>
      </g>
    </g>
  </g>
</svg>
