<svg xmlns="http://www.w3.org/2000/svg" xmlns:xlink="http://www.w3.org/1999/xlink" width="190" height="163" viewBox="0 0 190 163">
  <defs>
    <clipPath id="clip-path">
      <rect id="Rect치ngulo_42769" data-name="Rect치ngulo 42769" width="135.985" height="132.396" fill="none"/>
    </clipPath>
  </defs>
  <g id="Grupo_169831" data-name="Grupo 169831" transform="translate(-2120 10597)">
    <rect id="Rect치ngulo_42579" data-name="Rect치ngulo 42579" width="190" height="163" rx="18" transform="translate(2120 -10597)" fill="#ffbfc1"/>
    <g id="Grupo_169830" data-name="Grupo 169830" transform="translate(2147 -10582)">
      <g id="Grupo_169829" data-name="Grupo 169829" clip-path="url(#clip-path)">
        <path id="Trazado_162757" data-name="Trazado 162757" d="M0,126.92V55.55A30.605,30.605,0,0,1,2.714,45a33.723,33.723,0,0,1,9.371-12.318,3.839,3.839,0,0,0,1.65-3.471c-.107-2.024-.077-4.06-.006-6.088.064-1.81.835-2.605,2.634-2.873A2.433,2.433,0,0,1,18.4,22.815c.07,1.368,0,2.739.034,4.108.031,1.177.222,1.326,1.215.846a32.307,32.307,0,0,1,8.948-2.8,1.309,1.309,0,0,0,1.263-1.516c-.016-3.136-.027-6.273,0-9.409.011-1.068-.484-1.368-1.456-1.359-2.783.025-5.566,0-8.349.012-1.5.006-1.526.047-1.643,1.557-.14,1.814-.878,2.542-2.637,2.606a2.474,2.474,0,0,1-2.028-2.46,26.7,26.7,0,0,1-.009-4.108,3.029,3.029,0,0,1,1.318-2.215Q20.012,4.28,25.037.588A3.432,3.432,0,0,1,27.17,0Q34.136,0,41.1,0a3.334,3.334,0,0,1,2.341.751C46.15,3.158,48.91,5.506,51.543,8a4.21,4.21,0,0,1,1.371,3.3c-.038,4.952.032,9.906-.046,14.857A2.372,2.372,0,0,0,54.6,28.725,49.225,49.225,0,0,1,71,39.97a44.838,44.838,0,0,1,6.631,8.591,1.653,1.653,0,0,0,2.046.93,15.484,15.484,0,0,1,3.815-.414c.652.021,1.34-.04,1.279-.926-.058-.845.5-1.935-.781-2.389-.333-.118-.684-.178-1.025-.273a14.545,14.545,0,0,1-7.319-23.635,13.764,13.764,0,0,1,14.242-4.677A13.769,13.769,0,0,1,100.6,27.326c2.246,7.851-1.808,15.293-9.546,17.932a2.334,2.334,0,0,0-1.48,3.227.76.76,0,0,0,.66.558,8.329,8.329,0,0,0,1.192.04q12.6,0,25.206,0c1.709,0,2.454-1.179,1.777-2.763-.212-.5-.657-.561-1.077-.656a15.182,15.182,0,0,1-7.669-4.477,14.515,14.515,0,0,1-1.793-17.319A14.2,14.2,0,0,1,119.95,16.8a14.563,14.563,0,0,1,4.532,28.527c-1.3.378-1.264,1.243-1.282,2.246-.019,1.078.058,1.908,1.371,2.324a16.015,16.015,0,0,1,10.8,10.642,13.306,13.306,0,0,1,.591,4.311c.025,7.075.014,14.15.009,21.225,0,1.851-.432,2.363-2.2,2.694-1.75-.429-2.294-1.129-2.3-3.153-.027-5.526-.008-11.052-.01-16.578,0-1.061.009-2.122,0-3.183a11.851,11.851,0,0,0-11.923-12.032c-12.245-.074-24.491-.024-36.736-.02a3.809,3.809,0,0,0-1.179.136A13.331,13.331,0,0,0,69.992,65.313c-.187,1.449-.07,2.906-.313,4.359A18.13,18.13,0,0,1,51.514,85.1q-16.913.02-33.825.005A13.205,13.205,0,0,0,4.357,98.393c-.019,8.665,0,17.332,0,26a9.615,9.615,0,0,0,.029,1.06,2.1,2.1,0,0,0,2.234,2.137c3.8.051,7.6.008,11.407.025.917,0,1.289-.394,1.239-1.282a10.1,10.1,0,0,1,0-1.193,1.611,1.611,0,0,0-1.233-1.779c-4.469-1.66-6.8-4.986-7.442-9.629a11.5,11.5,0,0,1,.2-3.164,53.954,53.954,0,0,1,4.937-17.258A14.188,14.188,0,0,1,17.8,90.239a4.706,4.706,0,0,1,7.054-.389,11.121,11.121,0,0,1,2.256,2.759,36.376,36.376,0,0,1,1.632,3.329,5.6,5.6,0,0,0,.716-1.429,15.136,15.136,0,0,1,2.849-4.281c2.647-2.547,5.56-2.371,7.877.509a25.809,25.809,0,0,1,3.379,6.345c.412-.221.418-.647.56-.972a22.787,22.787,0,0,1,3.184-5.639,4.771,4.771,0,0,1,7.426-.484A10.813,10.813,0,0,1,57.307,93.5a49.542,49.542,0,0,1,4.87,19.679,10.532,10.532,0,0,1-6.636,9.965c-1.768.736-2.275,1.814-1.8,3.736a.822.822,0,0,0,.818.709c.309.026.619.023.928.023q8.622,0,17.244,0c1.659,0,1.713-.055,1.717-1.713.01-3.891-.02-7.782.015-11.673.016-1.707.58-2.333,2.282-2.715,1.726.37,2.384,1.155,2.426,3.074.057,2.563.014,5.127.018,7.691,0,1.149-.005,2.3,0,3.448.01,1.748.827,2.323,2.518,1.826.7-.205.668-.745.679-1.267.036-1.723-.075-3.451.048-5.17A5.752,5.752,0,0,1,86,115.924a5.966,5.966,0,0,1,6.389.709,6.45,6.45,0,0,1,2.438,5.093c.052,1.458-.005,2.917.022,4.376.025,1.355.176,1.486,1.565,1.492,1.425.006,1.625-.133,1.627-1.43q.024-15.646.015-31.295a2.242,2.242,0,0,0-1.033-2.014q-3.772-2.586-7.536-5.187a1.383,1.383,0,0,0-1.716-.036c-2.646,1.769-5.255,3.591-7.85,5.432a2.169,2.169,0,0,0-.731,2.022q0,4.509,0,9.018a12.042,12.042,0,0,1-.056,1.589,2.492,2.492,0,0,1-2.461,2.461c-1.532-.352-2.19-1.017-2.212-2.508-.063-4.375-.031-8.751-.018-13.126a2.743,2.743,0,0,1,1.273-2.348c3.736-2.6,7.468-5.206,11.234-7.764a4.558,4.558,0,0,1,2.645-.718c5.7,0,11.4.01,17.106-.006a6.261,6.261,0,0,1,3.361,1.058c3.727,2.293,7.431,4.623,11.171,6.894a4.366,4.366,0,0,1,2.293,4.135c-.044,10.652-.023,21.3-.019,31.956,0,1.807.009,1.807,1.849,1.871,1.194-.059,2.389,0,3.582-.042,1.666-.052,2.384-.76,2.5-2.437.035-.53.019-1.061.019-1.592q0-13.6,0-27.192a17.078,17.078,0,0,1,.037-1.723,2.468,2.468,0,0,1,2.542-2.5c1.524.436,1.936.893,1.938,2.389.014,10.561.03,21.122-.006,31.683a6.2,6.2,0,0,1-6.014,6.185c-.485.027-.972.018-1.458.018q-60.585,0-121.169.011a7.87,7.87,0,0,1-4.9-1.274A5.608,5.608,0,0,1,0,126.92"/>
        <path id="Trazado_162758" data-name="Trazado 162758" d="M125.235,127.982a.989.989,0,0,1-.13.024c-2.021.108-2.021.108-2.021-1.851,0-10.877-.031-21.754.032-32.631a3.61,3.61,0,0,0-2-3.521c-3.876-2.295-7.685-4.7-11.506-7.09a4.936,4.936,0,0,0-2.745-.787q-8.754.043-17.51,0a4.087,4.087,0,0,0-2.468.77q-5.377,3.759-10.8,7.456a2.756,2.756,0,0,0-1.332,2.538c.045,4.156.011,8.313.021,12.469,0,1.627.373,2.085,1.939,2.512a4.7,4.7,0,0,1-.007,3.894c-1.472.292-1.975,1.211-1.955,2.674.056,4.11-.008,8.223.039,12.334.011.949-.187,1.3-1.226,1.29q-9.549-.075-19.1,0c-.937.006-1.121-.278-1.19-1.182-.164-2.16.153-3.488,2.643-4.434,4.485-1.7,6.543-6.321,5.849-11.75A59.461,59.461,0,0,0,57.84,95.49a15.539,15.539,0,0,0-2.9-4.865c-2.388-2.54-5.13-2.477-7.4.16a21.659,21.659,0,0,0-3.475,6.508c-.111.285-.219.572-.4,1.041-.527-1.263-.983-2.372-1.451-3.475a15.338,15.338,0,0,0-2.448-4.072c-2.256-2.624-5.052-2.691-7.41-.169-1.662,1.777-2.53,4.014-3.544,6.348-.507-1.1-.944-2.074-1.408-3.037a12.418,12.418,0,0,0-2.463-3.586c-2.194-2.139-4.738-2.106-6.858.149A18.725,18.725,0,0,0,14.352,97.3a62.379,62.379,0,0,0-3.294,14.281,10.617,10.617,0,0,0,7.574,11.6c.783.24,1.084.57,1,1.367-.124,1.127.49,2.635-.276,3.289-.651.556-2.106.193-3.206.2q-4.643.018-9.284,0c-2.026-.01-2.878-.882-2.879-2.934-.006-8.886-.025-17.773,0-26.659A13.485,13.485,0,0,1,17.544,84.73c11.362-.081,22.725-.011,34.088-.033A17.669,17.669,0,0,0,69.145,70.58c.45-2.044.228-4.139.613-6.187,1.053-5.611,6.29-10.464,11.638-10.725a3,3,0,0,1,1.308-.1c11.937-.005,23.874.008,35.81-.025a3.742,3.742,0,0,1,2.741,1.037,14.325,14.325,0,0,1,4.95,11c-.04,19.806-.013,39.611-.027,59.417,0,1.072.243,2.266-.943,2.983" fill="#c6855b"/>
        <path id="Trazado_162759" data-name="Trazado 162759" d="M70.3,54.965a18.666,18.666,0,0,0-4.837,12.688A12.607,12.607,0,0,1,61.8,76.371c-.374-.4-.205-.808-.206-1.167-.013-6.454-.033-12.908.01-19.361a2.962,2.962,0,0,0-1.419-2.759c-3.66-2.474-7.277-5.01-10.9-7.537a3.266,3.266,0,0,0-1.974-.619q-9.084.025-18.168,0a4.258,4.258,0,0,0-2.35.742c-3.975,2.472-7.948,4.95-11.955,7.369a2.936,2.936,0,0,0-1.579,2.8c.037,8.044,0,16.091.038,24.135a1.408,1.408,0,0,1-1.18,1.653,17.551,17.551,0,0,0-8.132,5.5V85.618q0-13,0-25.993A30.375,30.375,0,0,1,30.362,29.1a36.889,36.889,0,0,1,13.42.747c10.917,3.955,19.057,11.2,24.965,21.082a23.948,23.948,0,0,1,1.415,2.546c.214.48.5.954.138,1.486" fill="#b26d3c"/>
        <path id="Trazado_162760" data-name="Trazado 162760" d="M76.71,111.767q0-1.947.007-3.894c1.545-.385,2.019-.922,2.026-2.456.019-3.668.025-7.336-.008-11a1.678,1.678,0,0,1,.824-1.616q4.176-2.8,8.275-5.72a1.064,1.064,0,0,1,1.482-.018q4.155,2.952,8.383,5.8a1.462,1.462,0,0,1,.76,1.375q-.031,16.438,0,32.876c0,.742-.192.95-.947.959-3.073.035-3.073.064-3.073-3.061,0-1.149.021-2.3-.005-3.447a5.811,5.811,0,0,0-5.912-5.847,5.746,5.746,0,0,0-5.752,5.846c-.024,1.812-.06,3.626.017,5.434.039.913-.288,1.077-1.117,1.074-2.921-.012-2.921.019-2.921-2.953,0-3.58.007-7.159,0-10.738-.006-1.633-.41-2.128-2.036-2.609" fill="#f9f7f7"/>
        <path id="Trazado_162761" data-name="Trazado 162761" d="M125.235,127.982a4.167,4.167,0,0,0,.541-2.408q-.02-30.235-.007-60.47c0-4.37-1.989-7.728-5.156-10.563A3.545,3.545,0,0,0,118,53.68q-18.3.018-36.6-.012a4.2,4.2,0,0,1,2.078-.219q17.762-.017,35.523,0c7.731.016,12.867,5.185,12.87,12.887q0,9.74,0,19.482c0,1.751.422,2.268,2.1,2.645q0,1.964.005,3.927c-1.653.305-2.107.856-2.107,2.608q0,14.884,0,29.768c0,2.5-.748,3.269-3.2,3.269-1.145,0-2.29-.034-3.435-.053" fill="#c17e4e"/>
        <path id="Trazado_162762" data-name="Trazado 162762" d="M37.916,68.27c0-3.666.034-7.333-.025-11a1.87,1.87,0,0,1,.98-1.8c2.676-1.79,5.334-3.609,7.939-5.5a1.388,1.388,0,0,1,1.945.037c2.654,1.9,5.348,3.743,8.051,5.573a1.573,1.573,0,0,1,.819,1.483q-.05,10.734-.007,21.468a1.113,1.113,0,0,1-.839,1.257,14.257,14.257,0,0,1-4.911.927c-4.285.017-8.571-.029-12.855.031-1,.015-1.125-.354-1.115-1.212.042-3.754.018-7.509.018-11.264" fill="#f9f7f7"/>
        <path id="Trazado_162763" data-name="Trazado 162763" d="M17.258,68.951c0-3.578.023-7.157-.018-10.735-.009-.82.147-1.128,1.06-1.118q7.29.073,14.579,0c.895-.008,1.079.272,1.075,1.112q-.048,10.668,0,21.337c0,.889-.171,1.208-1.141,1.2q-7.222-.08-14.446,0c-.973.011-1.143-.308-1.131-1.193.05-3.533.021-7.068.021-10.6" fill="#f9f7f7"/>
        <path id="Trazado_162764" data-name="Trazado 162764" d="M113.03,127.982q-5.176.162-10.35,0a2.127,2.127,0,0,1-.122-1.167c-.007-10.334.009-20.669-.027-31,0-1.059.228-1.451,1.365-1.416,2.736.084,5.476.059,8.214.009.923-.017,1.29.359,1.328,1.215.013.353.026.706.026,1.059q0,14.574,0,29.149a3.017,3.017,0,0,1-.429,2.155" fill="#f9f7f7"/>
        <path id="Trazado_162765" data-name="Trazado 162765" d="M48.554,26.883a50.97,50.97,0,0,0-13.485-2.014c-.761-.012-.942-.266-.936-.99.033-3.975.025-7.951.005-11.926a1.556,1.556,0,0,1,.62-1.35q3.122-2.563,6.185-5.2c.426-.366.7-.48,1.181-.042,1.952,1.79,3.943,3.538,5.93,5.291a1.227,1.227,0,0,1,.51,1c-.016,5.033-.01,10.066-.01,15.232" fill="#f9f7f7"/>
        <path id="Trazado_162766" data-name="Trazado 162766" d="M29.423,111.494a50.865,50.865,0,0,1,4.571-16.276c.464-.934.946-2.3,1.98-2.289s1.512,1.363,1.987,2.3a48.744,48.744,0,0,1,4.222,14.006,13.454,13.454,0,0,1,.277,5.123A6.574,6.574,0,0,1,38.854,119c-.69.361-.947.215-.916-.574.037-.927.038-1.858,0-2.785a1.92,1.92,0,0,0-1.884-1.985,1.948,1.948,0,0,0-2.066,1.956,19.069,19.069,0,0,0,0,2.651c.084,1.126-.369,1.035-1.132.632-2.321-1.23-3.559-3.532-3.426-7.4" fill="#5ea470"/>
        <path id="Trazado_162767" data-name="Trazado 162767" d="M113.03,127.982c0-10.64-.022-21.28.03-31.919,0-1.247-.368-1.572-1.564-1.529-2.424.088-4.857.088-7.282,0-1.2-.043-1.568.283-1.562,1.529.05,10.639.03,21.279.028,31.919-.492-.242-.251-.695-.252-1.037-.015-10.48,0-20.959-.037-31.438,0-1.014.272-1.233,1.245-1.222q7.163.084,14.328.01c.951-.009,1.16.278,1.157,1.187q-.047,15.718,0,31.438c0,.962-.3,1.192-1.195,1.145-1.63-.084-3.266-.061-4.9-.083" fill="#efe8e5"/>
        <path id="Trazado_162768" data-name="Trazado 162768" d="M57.9,112.221c.092,3.231-1.078,5.379-3.651,6.737-.641.339-.969.313-.931-.533s.025-1.68,0-2.519c-.04-1.423-.819-2.264-2.052-2.251-1.16.012-1.888.843-1.917,2.214-.016.8-.056,1.6.007,2.386.089,1.124-.388,1.076-1.141.641a7.194,7.194,0,0,1-1.863-1.473c-.229-.263-.519-.51-.368-.924,1.2-3.288.312-6.539-.181-9.795a2.273,2.273,0,0,1-.056-.908,44.391,44.391,0,0,1,3.663-10.74c.467-.879.948-2.147,1.963-2.123.913.022,1.385,1.253,1.83,2.113a48.843,48.843,0,0,1,4.378,14.5,14.277,14.277,0,0,1,.317,2.671" fill="#518e60"/>
        <path id="Trazado_162769" data-name="Trazado 162769" d="M14.9,112.674c.745-6.05,1.906-12.286,5.016-17.942,1.326-2.412,1.8-2.708,3.418.063a30.223,30.223,0,0,1,3.223,8.777c.351,1.581-.476,3.091-.684,4.649-.4,2.981-.935,5.944.3,8.857.258.609-.115.924-.527,1.192-.577.377-1.116.922-1.865.845-.278-.029-.17-.45-.174-.695-.015-.839.012-1.678-.012-2.517-.04-1.42-.821-2.261-2.05-2.248-1.158.012-1.89.845-1.918,2.21-.018.838-.042,1.68,0,2.516.051.937-.341.938-1.011.578-2.394-1.288-3.556-3.329-3.72-6.285" fill="#518e60"/>
        <path id="Trazado_162770" data-name="Trazado 162770" d="M16.185,20.516c0-.9-.029-1.807.011-2.707a1.289,1.289,0,0,0-.536-1.219c1.888-.093,2.506-.674,2.4-2.649-.073-1.345.264-1.8,1.693-1.742,3.09.122,6.189.058,9.284.023.8-.009,1.175.1,1.158,1.06-.061,3.624-.041,7.251-.01,10.876.006.7-.183,1.027-.918,1.122A31.073,31.073,0,0,0,19.1,28.473c-.764.388-1.07.4-1.025-.606.069-1.545-.039-3.1.034-4.641a2.3,2.3,0,0,0-1.921-2.71" fill="#f9f7f7"/>
        <path id="Trazado_162771" data-name="Trazado 162771" d="M92.557,28.865c-1.018-1-2.1-1.268-3.249-.226-.345-.343-.179-.708-.22-1.033a2.018,2.018,0,0,0-2.141-2.036,1.957,1.957,0,0,0-1.828,2.168c-.026,1.014-.007,2.03-.008,3.045v3.022c-.389.2-.6-.122-.875-.2a1.958,1.958,0,0,0-2.346.731,1.831,1.831,0,0,0,.164,2.431c.7.792,1.479,1.515,2.222,2.269a5.826,5.826,0,0,1,.636.671,1.533,1.533,0,0,1,.12,1.519c-.261.549-.8.089-1.169-.011a10.24,10.24,0,0,1,3.064-20.094,8.213,8.213,0,0,1,1.161.2,11.039,11.039,0,0,1,4.652,6.455c.111.376.2.778-.183,1.084" fill="#6dc07c"/>
        <path id="Trazado_162772" data-name="Trazado 162772" d="M125.977,28.519a2.224,2.224,0,0,0-3.1.236c-.036-.542-.039-.928-.092-1.306a2,2,0,0,0-2.154-1.878,1.926,1.926,0,0,0-1.794,2.068c-.029,2.076-.008,4.152-.008,6.213-.4.113-.621-.179-.909-.256a1.935,1.935,0,0,0-2.331.777,1.839,1.839,0,0,0,.22,2.429c.748.813,1.547,1.579,2.317,2.371a2.587,2.587,0,0,1,.6.7,1.6,1.6,0,0,1,0,1.408c-.263.426-.726.048-1.077-.043a10.241,10.241,0,0,1,2.974-20.115,8.086,8.086,0,0,1,1.162.2,10.9,10.9,0,0,1,4.538,6.12c.121.376.455.942-.346,1.074" fill="#6dc07c"/>
        <path id="Trazado_162773" data-name="Trazado 162773" d="M70.3,54.965c-.457-2.173-1.824-3.889-2.97-5.69A48.117,48.117,0,0,0,46.5,31.173a11.841,11.841,0,0,1-2.717-1.322,44.931,44.931,0,0,1,19.686,9.177A47.13,47.13,0,0,1,73.919,50.712c.484.756.522,1.158-.332,1.613a17.717,17.717,0,0,0-3.287,2.64" fill="#985e34"/>
        <path id="Trazado_162774" data-name="Trazado 162774" d="M125.977,28.519c.339-1.262-.413-2.22-.926-3.232-.79-1.56-2.193-2.628-3.266-3.962,4.053.223,7.849,3.806,8.689,8.2a10.355,10.355,0,0,1-6.5,11.457c-.919.337-1.361.278-1.109-.831a14.315,14.315,0,0,1,1.382-2.084,10.835,10.835,0,0,0,1.988-6.969,2.347,2.347,0,0,0-.256-2.584" fill="#68b66a"/>
        <path id="Trazado_162775" data-name="Trazado 162775" d="M92.557,28.865a9.8,9.8,0,0,0-2.767-5.7c-.543-.634-1.133-1.227-1.7-1.839,4.088.229,7.913,3.9,8.693,8.339a10.372,10.372,0,0,1-6.516,11.318c-.9.332-1.373.307-1.113-.823.485-1.041,1.286-1.874,1.868-2.857a12.744,12.744,0,0,0,1.616-6.417,2.975,2.975,0,0,0-.079-2.021" fill="#68b66a"/>
        <path id="Trazado_162776" data-name="Trazado 162776" d="M43.65,128.04c-1.586,0-3.173-.035-4.758.015-.768.025-1.047-.255-.943-.987a1.06,1.06,0,0,0,0-.264c-.251-2.085-.128-3.837,2.576-4.248,1.24-.188,2.1-1.925,3.163-1.881,1,.041,1.9,1.418,3.044,1.925a2.233,2.233,0,0,1,.363.157c.677.472,1.961.189,2.147,1.006a15.85,15.85,0,0,1,.071,3.814c-.015.618-.549.452-.9.456-1.586.017-3.172.007-4.758.007" fill="#c6855b"/>
        <path id="Trazado_162777" data-name="Trazado 162777" d="M28.816,128.04c-1.412,0-2.825-.032-4.235.014-.72.023-.946-.181-1.011-.945-.187-2.205-.019-3.73,2.641-4.716,1.954-.725,3.364-1.552,5.042.124.117.116.329.13.474.227.683.459,1.962.195,2.149,1.01a16.055,16.055,0,0,1,.073,3.82c-.012.627-.543.454-.9.459-1.411.017-2.823.007-4.235.007" fill="#c6855b"/>
        <path id="Trazado_162778" data-name="Trazado 162778" d="M22.7,52.883q3.129-1.926,6.262-3.846a1.03,1.03,0,0,1,.507-.113c3.82-.006,7.64,0,11.541.234q-2.742,1.908-5.49,3.809a.93.93,0,0,1-.491.164q-6.125.013-12.248.007l-.081-.255" fill="#5e6b74"/>
        <path id="Trazado_162779" data-name="Trazado 162779" d="M95.447,86.13c3.817,0,7.634-.01,11.45.018a2.092,2.092,0,0,1,.956.395c1.921,1.165,3.831,2.348,5.752,3.529-.154.467-.523.254-.77.255-3.618.016-7.236,0-10.855.022a2.745,2.745,0,0,1-1.715-.528c-1.624-1.165-3.279-2.287-4.922-3.426.034-.088.069-.177.1-.265" fill="#a1aab7"/>
        <path id="Trazado_162780" data-name="Trazado 162780" d="M22.416,7.972c1.55-1.157,3.094-2.323,4.657-3.461a1.349,1.349,0,0,1,.745-.2,79.031,79.031,0,0,1,7.939.25c-1.424,1.2-2.842,2.406-4.28,3.587a1.078,1.078,0,0,1-.633.127q-4.155.012-8.31.006c-.04-.105-.079-.209-.118-.314" fill="#4d5960"/>
        <path id="Trazado_162781" data-name="Trazado 162781" d="M90.464,124.228c0,.837-.052,1.678.015,2.509s-.289,1.017-1.063,1.025c-2.668.029-2.668.058-2.667-2.573,0-1.189-.016-2.378.009-3.567a1.718,1.718,0,0,1,1.752-1.9,1.773,1.773,0,0,1,1.94,1.865c.048.878.01,1.761.01,2.642Z" fill="#9c6b6b"/>
        <path id="Trazado_162782" data-name="Trazado 162782" d="M126.233,31.1c.6.536.375,1.262.3,1.862a11.087,11.087,0,0,1-3.671,7.191c-.019-1.675-.026-3.35-.064-5.024a1.449,1.449,0,0,1,.531-1.144c.98-.949,1.937-1.921,2.9-2.885" fill="#6cc07c"/>
        <path id="Trazado_162783" data-name="Trazado 162783" d="M92.636,30.886a5.079,5.079,0,0,1-.052,3.467,11.4,11.4,0,0,1-3.432,5.807c-.02-1.67-.022-3.341-.07-5.01a1.6,1.6,0,0,1,.609-1.242c.992-1,1.965-2.013,2.945-3.022" fill="#6cc07c"/>
        <path id="Trazado_162784" data-name="Trazado 162784" d="M94.44,102.773c0,1.281.018,2.563,0,3.844-.028,1.562-.72,2.3-2.251,2.316q-3.579.046-7.159,0c-1.557-.019-2.244-.725-2.255-2.286q-.029-3.911,0-7.822c.011-1.491.686-2.227,2.158-2.254q3.645-.066,7.291,0A2,2,0,0,1,94.433,98.8c.031,1.325.007,2.651.007,3.977"/>
        <path id="Trazado_162785" data-name="Trazado 162785" d="M42.08,64.556c0-1.325-.03-2.65.009-3.974a1.947,1.947,0,0,1,2.232-2.173q3.576-.039,7.154,0c1.555.016,2.247.7,2.269,2.287q.054,3.907,0,7.816c-.025,1.566-.732,2.225-2.315,2.241q-3.51.033-7.021,0c-1.648-.015-2.289-.675-2.322-2.355-.024-1.28-.005-2.561,0-3.842"/>
        <path id="Trazado_162786" data-name="Trazado 162786" d="M90.461,102.761c0,2.187-.006,2.1-2.2,2.22-1.314.075-1.746-.348-1.517-1.585a2.354,2.354,0,0,0,0-.394c0-2.481,0-2.422,2.457-2.488,1.068-.029,1.416.321,1.266,1.326a6.428,6.428,0,0,0-.006.921" fill="#7fb5fa"/>
        <path id="Trazado_162787" data-name="Trazado 162787" d="M46.06,64.539c0-2.16,0-2.079,2.247-2.189,1.258-.062,1.665.366,1.471,1.539a2.491,2.491,0,0,0,0,.4c0,2.5,0,2.445-2.337,2.52-1.057.035-1.585-.189-1.388-1.341a5.383,5.383,0,0,0,.009-.925" fill="#bdd8fc"/>
      </g>
    </g>
  </g>
</svg>
