<svg xmlns="http://www.w3.org/2000/svg" xmlns:xlink="http://www.w3.org/1999/xlink" width="105" height="105" viewBox="0 0 105 105">
  <defs>
    <clipPath id="clip-path">
      <rect id="Rectángulo_42764" data-name="Rectángulo 42764" width="63" height="63.041" fill="none"/>
    </clipPath>
  </defs>
  <g id="Grupo_169816" data-name="Grupo 169816" transform="translate(1519 9369)">
    <circle id="Elipse_4894" data-name="Elipse 4894" cx="52.5" cy="52.5" r="52.5" transform="translate(-1519 -9369)" fill="#6b8dfc"/>
    <g id="Grupo_169815" data-name="Grupo 169815" transform="translate(-1498 -9348)">
      <g id="Grupo_169814" data-name="Grupo 169814" clip-path="url(#clip-path)">
        <path id="Trazado_162660" data-name="Trazado 162660" d="M63,14.641a11.154,11.154,0,0,0-.421,1.816,13,13,0,0,1-3.489,6.036c-.346.34-.317.514.019.807a2.977,2.977,0,0,1,.347,4.611c-1.421,1.421-2.831,2.852-4.265,4.259a2.871,2.871,0,0,1-4.264-.037c-.736-.72-.736-.72-1.486.03q-8.786,8.786-17.58,17.562c-.387.385-.4.585.007.937a2.95,2.95,0,0,1,.315,4.521c-1.42,1.422-2.831,2.851-4.264,4.261a2.877,2.877,0,0,1-4.307-.025c-.7-.689-.692-.675-1.406-.035-3.94,3.533-8.485,4.58-13.455,2.82a12.49,12.49,0,0,1-8.572-10.4A12.622,12.622,0,0,1,3.852,40.569c.388-.4.363-.578-.013-.943C2.168,38,2.179,36.454,3.829,34.8q1.936-1.935,3.872-3.87a2.9,2.9,0,0,1,4.44-.013c.672.662.672.662,1.355-.021q8.829-8.829,17.667-17.649c.361-.359.4-.553,0-.892a2.986,2.986,0,0,1-1.143-3.215,3.078,3.078,0,0,1,.859-1.393c1.395-1.389,2.78-2.787,4.178-4.172a2.887,2.887,0,0,1,4.352.01l.087.087c.6.6.605.6,1.229,0A13.141,13.141,0,0,1,47.93.13c.111-.017.254.031.306-.131h2.953c.6.132,1.216.062,1.808.224A13.143,13.143,0,0,1,62.775,10c.163.592.093,1.212.224,1.808Z" transform="translate(0 0.001)"/>
        <path id="Trazado_162661" data-name="Trazado 162661" d="M47.994,66.652c-1.519-1.2-2.5-1.244-4.15-.136-.188.126-.28.1-.4-.044a1.338,1.338,0,0,0-.174-.174,1.806,1.806,0,0,1-.692-2.558,4.609,4.609,0,0,0-1.454-5.323,4.962,4.962,0,0,0-5.516-.618c-.472.259-.731.2-1.018-.178a2.326,2.326,0,0,0-.215-.219c-.275-.276-.656-.508-.8-.841-.163-.387.345-.61.505-.941a2.963,2.963,0,0,0-.616-3.448c-.744-.77-.744-.77,0-1.517q8.785-8.786,17.561-17.58c.373-.375.572-.421.926,0a2.958,2.958,0,0,0,3.34,1.076c.155-.047.3-.139.454-.183.342-.1.509-.644.892-.474.315.14.511.527.8.749.579.443.646.841.321,1.566a4.707,4.707,0,0,0,.823,5.319,4.915,4.915,0,0,0,6.1,1.057c.365-.2.588-.179.824.133a2.724,2.724,0,0,0,.259.262c.289.291.686.534.84.884.184.416-.373.631-.522.993a3.062,3.062,0,0,0,.646,3.457,1.28,1.28,0,0,1-.445.573Q57.43,57.349,48.566,66.207c-.171.171-.314.384-.573.445" transform="translate(-18.594 -18.519)" fill="#fcddaf"/>
        <path id="Trazado_162662" data-name="Trazado 162662" d="M18.4,114.711c-4.169,1.332-9.323-.529-12.038-4.347A11.328,11.328,0,0,1,7.644,95.7c.333-.332.49-.259.752.036A3.215,3.215,0,0,0,10.8,97.033a2.723,2.723,0,0,0,1.969-.709c.263-.245.4-.148.587.057a10.7,10.7,0,0,0,.959.952c.315.262.245.427-.023.662a3.284,3.284,0,0,0-1.317,2.463,2.947,2.947,0,0,0,.9,2.209c.926.929,1.848,1.861,2.783,2.78a2.943,2.943,0,0,0,4.327-.007c.724-.7.724-.7,1.435.007.043.044.087.086.13.13.213.221.526.408.613.67.1.3-.3.478-.45.735-.662,1.141-.5,2.347.535,3.668a14.908,14.908,0,0,1-4.352,3.819c-.163.084-.332.157-.5.242" transform="translate(-2.404 -53.951)" fill="#fcddaf"/>
        <path id="Trazado_162663" data-name="Trazado 162663" d="M110.579,23.108c-1.49-1.073-2.547-1.095-3.967-.037-.237.176-.338.109-.5-.056a13.137,13.137,0,0,0-1-1c-.315-.264-.242-.429.024-.663a3.287,3.287,0,0,0,1.315-2.467,2.9,2.9,0,0,0-.859-2.164c-.951-.963-1.9-1.926-2.871-2.87a2.935,2.935,0,0,0-4.24.025c-.76.734-.76.734-1.522-.029a1.082,1.082,0,0,0-.131-.129c-.55-.387-.617-.723-.165-1.337a2.807,2.807,0,0,0-.519-3.681c-.707-.729-.721-.744.034-1.424a11.163,11.163,0,0,1,10.076-2.774,4.987,4.987,0,0,1,.673.229,11.439,11.439,0,0,1,6.014,7.46,11.994,11.994,0,0,1-1.736,10.42c-.151.22-.247.545-.625.492" transform="translate(-54.022 -2.408)" fill="#fcddaf"/>
        <path id="Trazado_162664" data-name="Trazado 162664" d="M38.089,95a3.09,3.09,0,0,1-.458,1.539,1.978,1.978,0,0,0,.346,2.666c.071.074.145.145.217.217,1.378,1.379,1.374,1.387-.166,2.614-.175.139-.268.129-.392-.02-.027-.031-.057-.058-.086-.087Q32.73,97.106,27.9,92.29c-.254-.253-.251-.395.014-.613.452-.372.791-1.141,1.282-1.118.43.02.836.7,1.241,1.107a2.082,2.082,0,0,0,3,.447A3.148,3.148,0,0,1,38.089,95" transform="translate(-15.659 -51.167)" fill="#f8f5f5"/>
        <path id="Trazado_162665" data-name="Trazado 162665" d="M91.837,34.781a3.1,3.1,0,0,1,.457-1.531,1.98,1.98,0,0,0-.34-2.666c-.071-.074-.144-.145-.217-.217-1.368-1.369-1.362-1.4.162-2.615.174-.139.266-.13.392.018.053.062.116.115.174.173q4.735,4.735,9.479,9.46c.338.335.337.514-.014.793-.425.339-.739,1.056-1.2,1.037-.4-.017-.776-.654-1.152-1.027-1.154-1.146-1.716-1.239-3.14-.5a3.153,3.153,0,0,1-4.605-2.921" transform="translate(-51.265 -15.624)" fill="#f8f5f5"/>
        <path id="Trazado_162666" data-name="Trazado 162666" d="M125.276,23.725a8.471,8.471,0,0,0,1.861-3.126,12.173,12.173,0,0,0-.436-9.848,11.976,11.976,0,0,0-4.661-5.057c-.154-.095-.344-.145-.416-.34a8.756,8.756,0,0,1,3.619,1.7,11.343,11.343,0,0,1,1.191,17.257c-.251.242-.4.27-.618-.005-.163-.207-.358-.389-.539-.582" transform="translate(-68.72 -3.025)" fill="#fbcc7e"/>
        <path id="Trazado_162667" data-name="Trazado 162667" d="M120.156,55.076c-.4-.382-.789-.77-1.191-1.146a.916.916,0,0,0-1.36-.093.937.937,0,0,0,.07,1.407c.42.447.853.881,1.28,1.321.15.211-.012.351-.131.474q-1.191,1.229-2.419,2.42a.369.369,0,0,1-.38.139c-.975-.962-1.962-1.912-2.92-2.89a1.011,1.011,0,0,1,0-1.532c1.441-1.451,2.9-2.882,4.353-4.321.241-.068.382.1.524.237.653.64,1.3,1.284,1.94,1.941a1.929,1.929,0,0,1,.53,1.682c-.022.165-.008.394-.293.36" transform="translate(-63.707 -28.725)" fill="#dc636e"/>
        <path id="Trazado_162668" data-name="Trazado 162668" d="M53.333,122.438c-1.006-.991-2.023-1.971-3.013-2.978a.99.99,0,0,1,0-1.484c1.441-1.454,2.9-2.886,4.359-4.326.244-.07.383.1.525.242.644.63,1.295,1.255,1.909,1.913,1.073,1.151.654,2.81-.8,3.674a.192.192,0,0,1-.227-.031c-.455-.442-.9-.891-1.366-1.321a.924.924,0,0,0-1.362-.029.9.9,0,0,0,.05,1.315c.471.51.963,1,1.446,1.5a5.65,5.65,0,0,1-1.523,1.528" transform="translate(-28.242 -64.204)" fill="#dc636e"/>
        <path id="Trazado_162669" data-name="Trazado 162669" d="M76.2,19.717c-.962-.95-1.938-1.886-2.881-2.854a.993.993,0,0,1,.021-1.527c.639-.666,1.31-1.3,1.948-1.966.236-.247.381-.2.592.022q.9.928,1.829,1.824a.933.933,0,0,0,1.409.072.911.911,0,0,0-.1-1.361c-.569-.59-1.14-1.181-1.742-1.736-.317-.292-.427-.508-.016-.793a5.173,5.173,0,0,0,.5-.448,12.56,12.56,0,0,1,2.589,2.583,1.941,1.941,0,0,1-.244,2.636c-1.082,1.144-2.215,2.24-3.336,3.346-.149.147-.3.361-.572.2" transform="translate(-41.229 -6.187)" fill="#dc636e"/>
        <path id="Trazado_162670" data-name="Trazado 162670" d="M13.5,82.536c-.976-.963-1.963-1.915-2.923-2.894a1.013,1.013,0,0,1,.045-1.57c.733-.787.733-.786,1.476-.043.478.478.947.965,1.437,1.431a.908.908,0,0,0,1.36.077.924.924,0,0,0-.047-1.365q-.913-.955-1.866-1.871c-.228-.22-.247-.366-.007-.592.685-.645,1.35-1.311,2.023-1.968a14.6,14.6,0,0,1,2.685,2.664,1.955,1.955,0,0,1-.287,2.493c-1.1,1.185-2.271,2.3-3.418,3.439-.127.126-.261.273-.478.2" transform="translate(-5.776 -41.665)" fill="#dc636e"/>
        <path id="Trazado_162671" data-name="Trazado 162671" d="M67.588,86.313c.13-.155.249-.321.392-.464Q76.919,76.9,85.863,67.966c.143-.143.309-.262.465-.392.786.67.786.67.1,1.358l-17.48,17.48c-.688.687-.688.688-1.358-.1" transform="translate(-38.188 -38.18)" fill="#fbcc7f"/>
        <path id="Trazado_162672" data-name="Trazado 162672" d="M17.751,82.1a52.714,52.714,0,0,0,3.877-3.849,1.854,1.854,0,0,0-.207-2.7,28.051,28.051,0,0,1-2.172-2.25c.56-.431.984-.457,1.464.006q1.482,1.429,2.912,2.911a1.031,1.031,0,0,1-.016,1.581q-2.138,2.165-4.3,4.3a1,1,0,0,1-1.556-.006" transform="translate(-10.03 -41.234)" fill="#d94a54"/>
        <path id="Trazado_162673" data-name="Trazado 162673" d="M80.393,19.3c.26-.007.381-.22.536-.373q1.566-1.556,3.122-3.12a2.022,2.022,0,0,0-.015-3.117,26.165,26.165,0,0,1-2.08-2.157c.574-.429.972-.438,1.458.036q1.472,1.436,2.908,2.91a1.014,1.014,0,0,1-.027,1.573q-2.114,2.141-4.254,4.256a1.033,1.033,0,0,1-1.649-.008" transform="translate(-45.423 -5.771)" fill="#d94a54"/>
        <path id="Trazado_162674" data-name="Trazado 162674" d="M62.184,118.95c1.6-.895,2.032-2.666.62-3.848-.719-.6-1.291-1.365-2.032-1.95a1,1,0,0,1,1.556-.053q1.5,1.446,2.946,2.948a.976.976,0,0,1-.015,1.477c-.647.681-1.329,1.329-1.984,2-.2.209-.355.225-.546,0-.17-.2-.362-.385-.545-.576" transform="translate(-34.337 -63.707)" fill="#d94a54"/>
        <path id="Trazado_162675" data-name="Trazado 162675" d="M33.092,107.94c.094.076.238.134.275.231.137.366,1.076.429.407,1.1-.865.873-1.437,1-2.079.381q-1.409-1.366-2.776-2.773a1.066,1.066,0,0,1,0-1.66c.625.561,1.207,1.166,1.787,1.771a2.491,2.491,0,0,0,2.389.946" transform="translate(-16.114 -59.453)" fill="#2b4d65"/>
        <path id="Trazado_162676" data-name="Trazado 162676" d="M105.236,28.905a1.059,1.059,0,0,1,1.615-.039q1.452,1.408,2.861,2.862a1.093,1.093,0,0,1,0,1.6c-.148.168-.331.308-.471.482-.224.279-.413.263-.633-.006-.206-.251-.438-.481-.659-.719a2.49,2.49,0,0,0-.946-2.388c-.6-.58-1.21-1.162-1.771-1.787" transform="translate(-59.46 -16.109)" fill="#2b4d65"/>
        <path id="Trazado_162677" data-name="Trazado 162677" d="M126.265,54.6a1.5,1.5,0,0,0-.232-1.791,26.885,26.885,0,0,0-2.469-2.429,1,1,0,0,1,1.553-.021q1.471,1.437,2.907,2.908a1,1,0,0,1,.039,1.481c-.781.927-.781.927-1.6.086-.07-.072-.13-.156-.194-.234" transform="translate(-69.816 -28.247)" fill="#d94a54"/>
        <path id="Trazado_162678" data-name="Trazado 162678" d="M33.606,107.135a1.479,1.479,0,0,1-1.884-.3c-.787-.673-1.49-1.447-2.222-2.184-.05-.05-.048-.151-.07-.228.7-.811.7-.814,1.424-.081q1.38,1.394,2.752,2.8" transform="translate(-16.628 -58.648)" fill="#355d7c"/>
        <path id="Trazado_162679" data-name="Trazado 162679" d="M104.36,29.417c.409.059.592.415.84.669a11.341,11.341,0,0,1,1.748,1.87,1.383,1.383,0,0,1,.13,1.637c-1.077-1.061-2.15-2.128-3.237-3.18-.224-.217-.194-.365.022-.543.173-.142.332-.3.5-.452" transform="translate(-58.585 -16.621)" fill="#355d7c"/>
        <path id="Trazado_162680" data-name="Trazado 162680" d="M36.776,134.407c.582-.51,1.3-.813,1.9-1.307.87-.718,1.618-1.555,2.433-2.325.162-.153.341-.287.512-.429.8.678.806.68.033,1.4a10.58,10.58,0,0,1-4.881,2.666" transform="translate(-20.779 -73.648)" fill="#facc7e"/>
        <path id="Trazado_162681" data-name="Trazado 162681" d="M120.275,67.036q1.4-1.381,2.8-2.766a.888.888,0,0,0,.125-.267c.892.771.893.771.1,1.564-.492.492-.974.992-1.478,1.471a.991.991,0,0,1-1.551,0" transform="translate(-67.957 -36.163)" fill="#d84a54"/>
        <path id="Trazado_162682" data-name="Trazado 162682" d="M57.682,131.891a8.158,8.158,0,0,1,1.523-1.528c.782.667.782.667.068,1.362-.605.589-.97.627-1.592.165" transform="translate(-32.591 -73.657)" fill="#d84953"/>
        <path id="Trazado_162683" data-name="Trazado 162683" d="M65.223,67.7c-.788.8-1.5,1.533-2.225,2.255a1.47,1.47,0,0,1-2.4.015c-.629-.616-1.254-1.238-1.867-1.87a1.435,1.435,0,0,1,.009-2.262c.742-.757,1.5-1.5,2.311-2.3-.407-.183-.742-.321-1.067-.48a1.4,1.4,0,0,1-.447-2.336c.66-.7,1.354-1.368,2.039-2.046a1.434,1.434,0,0,1,1.69-.324q2.2.935,4.4,1.877a1.623,1.623,0,0,1,.882.893q.925,2.169,1.855,4.336a1.469,1.469,0,0,1-.326,1.746c-.664.668-1.319,1.347-2,2a1.412,1.412,0,0,1-2.375-.441c-.15-.309-.283-.626-.476-1.057" transform="translate(-32.877 -32.888)"/>
        <path id="Trazado_162684" data-name="Trazado 162684" d="M43.592,99.293a1.54,1.54,0,0,1-1.265,1.29.95.95,0,0,1-.927-.948,1.573,1.573,0,0,1,1.251-1.242.885.885,0,0,1,.94.9" transform="translate(-23.392 -55.594)" fill="#010101"/>
        <path id="Trazado_162685" data-name="Trazado 162685" d="M99.282,43.581a.886.886,0,0,1-.875-.963,1.564,1.564,0,0,1,1.265-1.228.948.948,0,0,1,.923.949,1.54,1.54,0,0,1-1.313,1.242" transform="translate(-55.601 -23.386)" fill="#010101"/>
        <path id="Trazado_162686" data-name="Trazado 162686" d="M69.4,68.95a1.483,1.483,0,0,0-2.462-.049c-.682.677-1.374,1.345-2.032,2.045-.269.287-.432.268-.676-.011a10.66,10.66,0,0,0-.953-.954c-.249-.221-.217-.368.009-.586.706-.681,1.4-1.38,2.086-2.078a1.483,1.483,0,0,0-.527-2.654l-.773-.335,1.312-1.308c1.155.3,2.314.536,2.773,1.917.366,1.1.894,2.142,1.358,3.208a1.462,1.462,0,0,1,.173.582c0,.175-.045.339-.288.224" transform="translate(-35.652 -35.607)" fill="#b2e49e"/>
        <path id="Trazado_162687" data-name="Trazado 162687" d="M72.358,68.786c.339-.071.145-.292.091-.422q-.929-2.224-1.884-4.436a.624.624,0,0,0-.356-.321c-.621-.252-1.244-.5-1.866-.751.182-.248.367-.067.54.007,1.129.478,2.254.967,3.386,1.438a.85.85,0,0,1,.492.5c.472,1.132.949,2.261,1.449,3.381a.517.517,0,0,1-.121.7c-.39.358-.751.747-1.181,1.181l-.549-1.274" transform="translate(-38.614 -35.444)" fill="#94d5a3"/>
      </g>
    </g>
  </g>
</svg>
