<svg xmlns="http://www.w3.org/2000/svg" xmlns:xlink="http://www.w3.org/1999/xlink" width="105" height="105" viewBox="0 0 105 105">
  <defs>
    <clipPath id="clip-path">
      <rect id="Rectángulo_42762" data-name="Rectángulo 42762" width="73.127" height="74.78" fill="none"/>
    </clipPath>
  </defs>
  <g id="Grupo_169808" data-name="Grupo 169808" transform="translate(2149 9369)">
    <path id="Trazado_160852" data-name="Trazado 160852" d="M52.5,0A52.5,52.5,0,1,1,0,52.5,52.5,52.5,0,0,1,52.5,0Z" transform="translate(-2149 -9369)" fill="#6b8dfc"/>
    <g id="Grupo_169807" data-name="Grupo 169807" transform="translate(-2133 -9354)">
      <g id="Grupo_169806" data-name="Grupo 169806" clip-path="url(#clip-path)">
        <path id="Trazado_162608" data-name="Trazado 162608" d="M61.237,66.2c-.274-.592-.464-1.224-.7-1.835a3.948,3.948,0,0,0-4-2.792c-1.022-.009-2.045-.026-3.065.009A.747.747,0,0,1,52.637,61c-.53-1.354-1.1-2.692-1.692-4.021-.2-.458-.193-.689.327-.929,1.518-.7,3.006-1.469,4.5-2.228a3.67,3.67,0,0,0,1.944-4.985q-2.167-5.828-4.334-11.657c-.812-2.181-1.607-4.369-2.456-6.536a3.71,3.71,0,0,0-4.8-2.123c-1.556.729-3.141,1.395-4.716,2.083-.121.053-.245.171-.39.087a2.419,2.419,0,0,1-.313-1.971q1.3-1.531,2.6-3.057a14.027,14.027,0,0,0,3.264-6.885,2.264,2.264,0,0,1,.523-1.1c1.074-1.289,2.14-2.586,3.179-3.9a6.342,6.342,0,0,0,.569-7.294,6.253,6.253,0,0,0-6.6-3.128c-.373.057-.539,0-.622-.362A3.833,3.833,0,0,0,40.7,0H39.382c-.031.034-.056.086-.1.1Q31.825,2.779,24.362,5.452,18.919,7.405,13.48,9.367a3.572,3.572,0,0,0-2.42,4.679,7.669,7.669,0,0,0,.444,1.229c.171.364.09.517-.261.722A6.669,6.669,0,0,0,7.92,23.028a6.809,6.809,0,0,0,5.926,5.521c1.327.166,2.658.307,3.99.432a5.714,5.714,0,0,1,2.86.909A13.328,13.328,0,0,0,24.96,31.7a20.225,20.225,0,0,0,5.054.611c1.254,0,1.6.677,1.894,1.618a.44.44,0,0,1-.2.593,3.616,3.616,0,0,0-1.391,2.316c-.233,1.142-.5,2.278-.7,3.426a.941.941,0,0,1-.685.809Q15.148,46.654,1.373,52.262c-.448.182-1.055.255-1.3.589-.268.37.259.859.319,1.329.006.048.017.1.025.144.168.927.32,1.014,1.209.682.137-.051.271-.108.406-.163q7.419-2.967,14.838-5.933c.752-.3.757-.3,1.016.474,1.16,3.46,2.306,6.924,3.462,10.385.275.823.274.833-.551,1.178C14.317,63.66,7.814,66.326,1.325,69.028a2.166,2.166,0,0,0-.967.616c-.322.069-.465.2-.272.549a4.715,4.715,0,0,1,.439,1c.192.682.492.778,1.168.5Q18.437,64.7,35.2,57.77a1.429,1.429,0,0,1,.762-.18c1.759.228,3.52.448,5.283.645a.646.646,0,0,1,.645.53q.906,2.88,1.883,5.736a.651.651,0,0,1-.213.809c-.754.69-1.476,1.413-2.216,2.117-1.582,1.505-1.835,2.684-1.043,4.714a15.25,15.25,0,0,1,.978,2.638h.292c.039-.15.181-.137.287-.178q3.485-1.372,6.97-2.743c3.995-1.565,7.987-3.138,11.993-4.674.575-.22.658-.458.414-.985M45.094,5.8a3.683,3.683,0,0,1,3.5,1.679,3.715,3.715,0,0,1,.237,4.064,25.149,25.149,0,0,1-1.882,2.52A39.746,39.746,0,0,0,44.76,6.2c-.135-.423.093-.387.334-.4M13.34,25.993a3.977,3.977,0,0,1-2.967-3.582,4.041,4.041,0,0,1,1.811-3.958c.335-.241.482-.238.665.194a48.135,48.135,0,0,0,2.427,5.521c.435.753.924,1.475,1.413,2.25a24.02,24.02,0,0,1-3.349-.425" transform="translate(0)"/>
        <path id="Trazado_162609" data-name="Trazado 162609" d="M122.525,63.214c0,1.127,0,1.127-1.088,1.331a6.008,6.008,0,0,0-4.966,6.129c-.02,1.046-.02,1.046-1.036,1.046-1.356,0-1.356,0-1.391-1.322a5.956,5.956,0,0,0-5.535-5.9c-.4-.033-.591-.133-.532-.549a1.092,1.092,0,0,0,0-.146,3.828,3.828,0,0,1,.055-1.582c.24-.464.954-.24,1.451-.363a6.063,6.063,0,0,0,4.563-5.885c.021-1.224.021-1.224,1.206-1.224s1.186,0,1.219,1.153a5.944,5.944,0,0,0,5.64,6.1c.375.038.441.17.416.485-.019.242,0,.486,0,.73" transform="translate(-49.407 -25.065)"/>
        <path id="Trazado_162610" data-name="Trazado 162610" d="M113.594,18.484a.818.818,0,0,0,0,.146c.143.787-.1,1.061-.98,1.172a5.917,5.917,0,0,0-5.094,5.849,7.149,7.149,0,0,0,0,.876c.028.357-.119.468-.464.454-.583-.024-1.275.183-1.724-.065-.527-.291-.174-1.053-.232-1.6a5.975,5.975,0,0,0-5.567-5.577c-.354-.03-.531-.093-.509-.5a5.375,5.375,0,0,1,.057-1.732c.25-.568,1.022-.277,1.553-.423a6.085,6.085,0,0,0,4.469-5.668,5.243,5.243,0,0,0,.006-.875c-.052-.459.127-.6.574-.564.557.04,1.234-.177,1.647.071.481.289.147,1.027.2,1.565a5.972,5.972,0,0,0,5.6,5.624c.391.035.509.152.472.518a7.118,7.118,0,0,0,0,.73" transform="translate(-45.311 -4.545)"/>
        <path id="Trazado_162611" data-name="Trazado 162611" d="M.724,95.258c.2.764.594.749,1.264.476,5.151-2.1,10.323-4.145,15.482-6.222.422-.17.612-.15.772.336q1.85,5.643,3.764,11.265c.169.494-.024.627-.41.787q-7.344,3.027-14.679,6.072-3.13,1.3-6.255,2.607c.013-1.6.032-3.21.037-4.815q.018-5.253.024-10.507" transform="translate(-0.303 -40.935)" fill="#4a4a56"/>
        <path id="Trazado_162612" data-name="Trazado 162612" d="M8.023,54.751c1.13,0,1.13,0,1.149,1.138A6,6,0,0,0,14.809,62c.342.035.5.118.446.467a1.63,1.63,0,0,0,0,.219,3.939,3.939,0,0,1-.06,1.583c-.245.489-.959.229-1.459.356a6.088,6.088,0,0,0-4.564,6.032c-.012,1.062-.012,1.062-1.066,1.062-1.283,0-1.283,0-1.341-1.24a5.945,5.945,0,0,0-5.6-5.982c-.391-.036-.492-.162-.476-.525a5.057,5.057,0,0,1,.06-1.73c.231-.5.982-.257,1.495-.39a6.082,6.082,0,0,0,4.527-5.916c.043-1.186.043-1.186,1.256-1.186" transform="translate(-0.291 -25.065)"/>
        <path id="Trazado_162613" data-name="Trazado 162613" d="M55.9,17.619a13.355,13.355,0,0,1-3.241,8.837c-1.121,1.314-2.239,2.63-3.385,3.922a.742.742,0,0,0-.168.9c.274.647.477,1.326.758,1.97.158.364.067.5-.28.641-1.172.467-2.341.944-3.491,1.463-.4.178-.5.021-.621-.293-.258-.681-.557-1.347-.79-2.036a.826.826,0,0,0-.846-.613,48.839,48.839,0,0,1-6.16-.648,12.97,12.97,0,0,1-9.725-8.181c-1.032-2.541-2.016-5.1-3.015-7.656-.431-1.1-.194-1.623.911-2.021Q38.28,9.426,50.714,4.955c1.1-.4,1.594-.176,1.948.916.972,3,2.1,5.95,2.913,9a13.572,13.572,0,0,1,.326,2.746" transform="translate(-11.323 -2.185)" fill="#f1a235"/>
        <path id="Trazado_162614" data-name="Trazado 162614" d="M71.677,81.818c-2.607-.3-5.214-.61-7.824-.9-.451-.05-.44-.409-.531-.68C62.094,76.584,61,72.878,59.611,69.283c-.724-1.882-.133-3.556.063-5.332a2.587,2.587,0,0,1,1.865-2.3c4.083-1.678,8.127-3.452,12.186-5.189,1.259-.539,1.79-.34,2.238.916.24.673.9,1.461.606,1.984-.254.455-1.243.5-1.91.724-1.128.375-2.253.761-3.39,1.106-.374.113-.436.271-.341.627.5,1.866.491,1.872,2.3,1.293,1.248-.4,2.5-.793,3.736-1.224.383-.133.551-.1.692.313.337.987.715,1.961,1.106,2.927.159.393.057.518-.337.644-1.571.5-3.122,1.065-4.692,1.573-.416.135-.527.3-.356.71.23.556.247,1.385.646,1.637.415.262,1.107-.26,1.675-.442,1.225-.391,2.451-.782,3.661-1.216.351-.126.464-.04.576.271.361,1,.723,2.009,1.126,3,.176.431-.015.545-.365.656-1.48.469-2.952.965-4.436,1.422-.449.139-.618.268-.441.8.572,1.721.543,1.731,2.252,1.149,1.171-.4,2.347-.785,3.509-1.209.39-.142.545-.043.7.326.792,1.936.746,2.071-1.126,2.992Q77,79.484,72.861,81.537a1.968,1.968,0,0,1-1.184.281" transform="translate(-27.13 -25.721)" fill="#edcbbf"/>
        <path id="Trazado_162615" data-name="Trazado 162615" d="M50.935,92.2c.016.213-.169.249-.32.313q-4.5,1.892-8.995,3.787c-.365.155-.488.063-.609-.305q-1.877-5.707-3.8-11.4c-.144-.425-.007-.561.345-.686a14.524,14.524,0,0,0,1.693-.664c.485-.244.639-.11.794.37.853,2.657,1.751,5.3,2.6,7.958.163.507.319.691.9.49,1.635-.57,1.644-.539,1.091-2.192-.807-2.417-1.6-4.84-2.428-7.249-.156-.453-.069-.634.367-.8,1.271-.481,2.53-1,3.786-1.518.353-.147.541-.151.683.277,1.255,3.778,2.53,7.549,3.8,11.322.031.092.059.185.094.295" transform="translate(-17.009 -36.725)" fill="#676b7d"/>
        <path id="Trazado_162616" data-name="Trazado 162616" d="M78.022,124.381a1.431,1.431,0,0,1,.481-.98q1.836-1.723,3.663-3.459a1.721,1.721,0,0,1,.695-.377c1.457-.466,2.913-.936,4.361-1.428a6.185,6.185,0,0,1,1.952-.132c1.022-.019,2.044,0,3.066-.008a1.379,1.379,0,0,1,1.215.537c.464.636.379.923-.34,1.212l-13.927,5.592c-.785.315-1.171.041-1.164-.958" transform="translate(-35.719 -54.018)" fill="#e5812d"/>
        <path id="Trazado_162617" data-name="Trazado 162617" d="M87.821,110.176c.06.21-.141.224-.293.275-1.216.408-2.437.8-3.646,1.231-.3.106-.392-.011-.472-.245-.438-1.283-.878-2.566-1.312-3.85-.05-.149-.145-.375.149-.361,1.193.06,2.11-.653,3.1-1.121.514-.242.691-.138.886.352.457,1.146.971,2.271,1.461,3.4.038.089.07.181.122.314" transform="translate(-37.56 -48.519)" fill="#f1a235"/>
        <path id="Trazado_162618" data-name="Trazado 162618" d="M119,65.078a9.017,9.017,0,0,0,2.886,2.886,8.987,8.987,0,0,0-2.875,2.91,8.809,8.809,0,0,0-2.909-2.9,8.963,8.963,0,0,0,2.9-2.9" transform="translate(-53.152 -29.793)" fill="#f2bf6d"/>
        <path id="Trazado_162619" data-name="Trazado 162619" d="M107.19,23.274a9.2,9.2,0,0,0,2.876-2.88,9.318,9.318,0,0,0,2.892,2.871,8.865,8.865,0,0,0-2.691,2.616c-.176.277-.274.175-.4-.026a8.713,8.713,0,0,0-2.673-2.581" transform="translate(-49.072 -9.337)" fill="#f2bf6d"/>
        <path id="Trazado_162620" data-name="Trazado 162620" d="M14.617,67.955A9.6,9.6,0,0,0,13,69.253c-.437.481-.838.995-1.3,1.544a9.01,9.01,0,0,0-2.856-2.816,9.12,9.12,0,0,0,2.872-2.9,9.017,9.017,0,0,0,2.9,2.877" transform="translate(-4.048 -29.793)" fill="#f2bf6d"/>
        <path id="Trazado_162621" data-name="Trazado 162621" d="M68.483,20.757a16.248,16.248,0,0,0-2.272-7.666c-.211-.377-.249-.563.171-.773.56-.279,1.058-.987,1.6-.885.5.093.631.94.883,1.466,1.83,3.823,2.841,7.752,1.351,11.952a10.022,10.022,0,0,1-2.055,3.325c-.239.268-.385.279-.627.011-.39-.433-1-.767-1.178-1.264-.2-.573.551-.91.84-1.382a8.628,8.628,0,0,0,1.284-4.785" transform="translate(-30.241 -5.23)"/>
      </g>
    </g>
  </g>
</svg>
