<svg xmlns="http://www.w3.org/2000/svg" xmlns:xlink="http://www.w3.org/1999/xlink" width="290.59" height="561.183" viewBox="0 0 290.59 561.183">
  <defs>
    <clipPath id="clip-path">
      <rect id="Rect치ngulo_40959" data-name="Rect치ngulo 40959" width="266.151" height="556.957" fill="none"/>
    </clipPath>
    <clipPath id="clip-path-2">
      <rect id="Rect치ngulo_38703" data-name="Rect치ngulo 38703" width="2.867" height="1.342" fill="none"/>
    </clipPath>
  </defs>
  <g id="Grupo_167612" data-name="Grupo 167612" transform="translate(22.284 -76.026)">
    <g id="Grupo_157493" data-name="Grupo 157493" transform="translate(-22.284 76.026)">
      <path id="Trazado_114544" data-name="Trazado 114544" d="M114.665,492.17c-34.817-15.795-70.925-37.107-84.947-72.749-15.562-39.555.727-83.854.336-126.373-.311-33.683-11.2-66.212-19.762-98.783S-4.565,127.087,4.273,94.588c5.916-21.755,18.481-41.44,34.7-57.059C67.543,10.024,108.7-4.86,147.807,1.431S222.44,36.384,233.873,74.4c16.2,53.867-15.442,111.369-8.718,167.225,2.631,21.856,11.052,42.524,16.762,63.782a261.956,261.956,0,0,1,8.948,69.394c-.213,35.855-9.276,74.109-35.954,97.986C188,496.876,147.958,507.274,114.665,492.17Z" transform="matrix(0.999, 0.035, -0.035, 0.999, 39.872, 0)" fill="#ffe891"/>
      <g id="Grupo_165659" data-name="Grupo 165659" transform="translate(0 4.226)">
        <g id="Grupo_165659-2" data-name="Grupo 165659" clip-path="url(#clip-path)">
          <path id="Trazado_150964" data-name="Trazado 150964" d="M197.049,280.078h-34.4V210.005h34.4a4.174,4.174,0,0,1,4.174,4.174V275.9a4.174,4.174,0,0,1-4.174,4.174" transform="translate(9.476 12.235)" fill="#ffcfa6"/>
          <path id="Trazado_150965" data-name="Trazado 150965" d="M236.053,527.178a4.48,4.48,0,0,1-.351.814,5.175,5.175,0,0,1-.5.74c-.111.111-.2.222-.314.333a4.683,4.683,0,0,1-3.328,1.386H165.132c-.277,0-.555-.018-.813-.037a5.348,5.348,0,0,1-.8-.111,4.788,4.788,0,0,1-.777-.166c-.258-.074-.5-.148-.74-.24a5.162,5.162,0,0,1-.74-.3,6.467,6.467,0,0,1-.629-.314,8.947,8.947,0,0,1-2.33-1.831,4.9,4.9,0,0,1-.388-.443,9.151,9.151,0,0,1-1.072-1.665,4.117,4.117,0,0,1-.3-.647.7.7,0,0,1-.074-.167,7.9,7.9,0,0,1-.443-1.46l-2.7-21.508-5.215-41.573,42.479-5.048s2.4,40.98,2.515,41.277c0,.018.129.074.333.222h.018c.943.592,3.587,2.219,7.157,4.438.369.2.74.443,1.128.684.148.092.314.185.462.277,1.534.944,3.217,1.979,4.956,3.052.517.332,1.036.647,1.572.98,2.441,1.516,4.994,3.107,7.527,4.716a.018.018,0,0,1,.018.018c.666.407,1.276.833,1.942,1.239.574.351,1.11.7,1.646,1.054,8.47,5.4,15.756,10.319,16.145,11.466.018.037.018.092.037.129,0,.019,0,.019.019.037a4.44,4.44,0,0,1-.019,2.645" transform="translate(8.63 26.506)" fill="#f9b3a2"/>
          <path id="Trazado_150966" data-name="Trazado 150966" d="M235.766,524.893a4.479,4.479,0,0,1-.351.814,4.66,4.66,0,0,1-.5.74c-.111.111-.2.222-.314.333a4.683,4.683,0,0,1-3.328,1.387H164.845c-.277,0-.555-.018-.813-.037a5.323,5.323,0,0,1-.8-.111,4.774,4.774,0,0,1-.777-.166c-.258-.074-.5-.148-.74-.24a5.17,5.17,0,0,1-.74-.3,6.433,6.433,0,0,1-.629-.314,8.953,8.953,0,0,1-2.33-1.831,4.882,4.882,0,0,1-.388-.444,9.141,9.141,0,0,1-1.072-1.664,4.107,4.107,0,0,1-.3-.647.7.7,0,0,1-.074-.167,7.9,7.9,0,0,1-.443-1.46l-2.7-21.508h30.607c.924-.666,1.849-1.294,2.811-1.9a19.936,19.936,0,0,1,6.695-3.217h.018c.943.592,3.587,2.219,7.157,4.438.369.2.74.443,1.128.684.148.092.314.185.462.277,1.535.944,3.217,1.979,4.956,3.052.518.332,1.036.647,1.572.98,2.441,1.516,4.994,3.107,7.527,4.716a.018.018,0,0,1,.018.018c.666.407,1.276.833,1.942,1.239.574.351,1.11.7,1.646,1.054,8.47,5.4,15.757,10.319,16.145,11.466.018.037.018.092.037.129,0,.019,0,.019.019.037a4.3,4.3,0,0,1-.019,2.645" transform="translate(8.917 28.791)" fill="#2f3f4f"/>
          <path id="Trazado_150967" data-name="Trazado 150967" d="M101.334,459.992l-5.2,41.573-2.7,21.507c-.074.277-.148.537-.221.8-.074.221-.148.443-.241.666s-.184.443-.277.646c-.092.185-.184.352-.277.519a9.1,9.1,0,0,1-.888,1.312,4.621,4.621,0,0,1-.388.444,8.955,8.955,0,0,1-2.33,1.831,6.7,6.7,0,0,1-.629.314,5.124,5.124,0,0,1-.74.3c-.24.092-.48.166-.74.24a4.9,4.9,0,0,1-.777.166,5.628,5.628,0,0,1-.795.111c-.259.018-.537.037-.814.037H33.427a4.681,4.681,0,0,1-3.329-1.387c-.111-.111-.2-.221-.314-.332a5.177,5.177,0,0,1-.5-.741,4.583,4.583,0,0,1-.351-.813,4.448,4.448,0,0,1-.018-2.644c.018-.019.018-.019.018-.037.019-.037.019-.093.056-.13.185-.573,6.75-7.471,13.37-14.258.444-.463.888-.925,1.35-1.368,1.257-1.313,2.516-2.589,3.7-3.81.462-.48.925-.924,1.35-1.368,3.883-3.939,6.9-6.917,7.23-7.12h.019a2.623,2.623,0,0,0,.332-.222c.111-.3,2.535-41.276,2.535-41.276Z" transform="translate(1.673 26.506)" fill="#f9b3a2"/>
          <path id="Trazado_150968" data-name="Trazado 150968" d="M96.137,499.28l-2.7,21.508c-.074.276-.148.536-.222.795-.074.221-.148.443-.24.666s-.185.443-.277.646c-.093.185-.185.352-.277.518a9.2,9.2,0,0,1-.888,1.313,4.9,4.9,0,0,1-.388.443A8.948,8.948,0,0,1,88.814,527a6.54,6.54,0,0,1-.629.314,5.2,5.2,0,0,1-.74.3c-.241.092-.481.166-.74.24a4.8,4.8,0,0,1-.777.166,5.5,5.5,0,0,1-.8.111c-.258.018-.535.037-.814.037H33.426a4.677,4.677,0,0,1-3.328-1.388c-.111-.111-.2-.221-.314-.332a5.24,5.24,0,0,1-.5-.74,4.48,4.48,0,0,1-.351-.814,4.3,4.3,0,0,1-.019-2.645c.019-.019.019-.019.019-.037.018-.037.018-.092.055-.129.185-.573,6.751-7.471,13.371-14.259.443-.462.887-.924,1.349-1.368,1.258-1.313,2.515-2.589,3.7-3.809.462-.482.925-.925,1.35-1.369,3.884-3.939,6.9-6.916,7.231-7.12h.018a19.97,19.97,0,0,1,6.695,3.218c.962.611,1.887,1.239,2.83,1.9Z" transform="translate(1.673 28.791)" fill="#2f3f4f"/>
          <path id="Trazado_150969" data-name="Trazado 150969" d="M18.2,101.429l13.35-8.172,16.1,4.086,16.021,30.3L40.534,138.972Z" transform="translate(1.061 5.433)" fill="#f9b3a2"/>
          <path id="Trazado_150970" data-name="Trazado 150970" d="M163.666,45.758a99.568,99.568,0,0,1-9.534-11.141c-4.469-6.164-6.319-17.568-4.316-18.339s15.719-4.624,20.343,1.233S180.33,33.538,180.947,36.62s-17.281,9.138-17.281,9.138" transform="translate(8.682 0.834)" fill="#2f3f4f"/>
          <path id="Trazado_150971" data-name="Trazado 150971" d="M136.419,5.334s-8.535-1.167-15.007,7.617c-4.826,6.549-3.506,14.024-4.892,16.8s-5.741,4.723-8.4,10.938a16.353,16.353,0,0,0-.923,5.594c-.081,1.645.335,4.336-.588,5.759a9.039,9.039,0,0,1-1.2,1.342c-1.982,2.015-4.433,6.165-3.687,9.192H163.83a18.685,18.685,0,0,0-1.156-8.139c-1.618-3.92-1.914-5.462-1.5-10.745.521-6.665-3.956-15.482-3.956-15.482Z" transform="translate(5.919 0.308)" fill="#a66353"/>
          <path id="Trazado_150972" data-name="Trazado 150972" d="M216.819,73.454,237.176,77.1a16.586,16.586,0,0,1,13.4,19.007c-1.531,9.572-5.759,20.323-16.752,23.368-21.036,5.826-36.1,2.523-36.1,2.523Z" transform="translate(11.52 4.28)" fill="#f9b3a2"/>
          <path id="Trazado_150973" data-name="Trazado 150973" d="M156.094,30.933a18.54,18.54,0,0,1-19.972,12.99,18.231,18.231,0,0,1-3.148-.666,18.591,18.591,0,0,1-6.35-3.4c-.235-.188-.452-.371-.664-.571a8.213,8.213,0,0,1-.6-.575c-3.587-3.694-6.762-11.762-4.688-18.573a18.522,18.522,0,0,1,35.144-.888l-.005.018a18.441,18.441,0,0,1,1.084,6.935.5.5,0,0,1,0,.135,18.791,18.791,0,0,1-.794,4.59" transform="translate(6.992 0.408)" fill="#f9b3a2"/>
          <path id="Trazado_150974" data-name="Trazado 150974" d="M156.524,23.1s.963,13.591-.807,21.342c-2.193,9.6-12.2,9.677-20.448,4.365s-11.058-14.838-11.058-14.838,16.15-7.478,18.214-7.458,14.1-3.412,14.1-3.412" transform="translate(7.237 1.346)" fill="#f9b3a2"/>
          <path id="Trazado_150975" data-name="Trazado 150975" d="M120.005,67.8l13.719,2.773,11.823-3.178-.617-10.022-.357-5.644v-.017l-.372-6.162-7.315-2.205L125.632,32.866Z" transform="translate(6.992 1.915)" fill="#f9b3a2"/>
          <path id="Trazado_150976" data-name="Trazado 150976" d="M134,47.439c.226.374,3.957,6.308,7.346,8.028a16.56,16.56,0,0,0,2.773,1.054l-.357-5.644V50.86s-4.087-1.119-6.114-1.832A30.981,30.981,0,0,1,134,47.439" transform="translate(7.807 2.764)" fill="#2f3f4f"/>
          <path id="Trazado_150977" data-name="Trazado 150977" d="M153.383,38.984l-11.758-.246s1.016,2.275,5.292,2.921a6.727,6.727,0,0,0,6.466-2.675" transform="translate(8.251 2.257)" fill="#fff"/>
          <path id="Trazado_150978" data-name="Trazado 150978" d="M152.545,13.506s-2.436,4.724-6.9,6.616c-2.493,1.056-8.984,1.71-11.318,3.1-2.131,1.27-3.466,4.018-4.148,6.3a15.585,15.585,0,0,0-.743,4.125c-.024,1.469-2.3,2.939-2.3,2.939l-2.725,5.965s-6.074-8.9-6.074-18.5a17.192,17.192,0,0,1,15.474-17.03,23.4,23.4,0,0,1,12.771,1.82,22.563,22.563,0,0,1,5.96,4.668" transform="translate(6.895 0.398)" fill="#a66353"/>
          <path id="Trazado_150979" data-name="Trazado 150979" d="M123.137,30.112a6.3,6.3,0,1,0,6.3-6.555,6.43,6.43,0,0,0-6.3,6.555" transform="translate(7.174 1.372)" fill="#f9b3a2"/>
          <path id="Trazado_150980" data-name="Trazado 150980" d="M189.663,68.977l-10.68,82.044L85.054,196.888S74.3,71.423,81.423,68.977a87.135,87.135,0,0,1,19.5-3.826c2.486-.253,5.088-.428,7.749-.563,8.7-.486,18.253-.447,28.274-.214,10.933.233,23.9,1.34,34.235,2.447,2.816.272,5.437.563,7.749.854,6.485.739,10.738,1.3,10.738,1.3" transform="translate(4.602 3.741)" fill="#2f3f4f"/>
          <path id="Trazado_150981" data-name="Trazado 150981" d="M84.22,68.714A302.28,302.28,0,0,0,54.363,82.55c-18.2,9.467-23.545,12.137-23.545,12.137L60.983,146.1l43.142-12.091S99.027,95.9,98.3,92.259,84.22,68.714,84.22,68.714" transform="translate(1.796 4.003)" fill="#2f3f4f"/>
          <path id="Trazado_150982" data-name="Trazado 150982" d="M80.119,137.585a.927.927,0,0,1-.907-.746L67.5,77.443a.925.925,0,1,1,1.815-.357l11.712,59.395a.926.926,0,0,1-.728,1.087.955.955,0,0,1-.18.017" transform="translate(3.932 4.448)" fill="#0f0a1c"/>
          <path id="Trazado_150983" data-name="Trazado 150983" d="M184.59,68.714l34.063,5.016-10.032,65.053h-42.4Z" transform="translate(9.685 4.003)" fill="#2f3f4f"/>
          <path id="Trazado_150984" data-name="Trazado 150984" d="M173.475,139a.944.944,0,0,1-.215-.025.925.925,0,0,1-.686-1.113l13.1-55.175a.924.924,0,1,1,1.8.428l-13.1,55.176a.925.925,0,0,1-.9.71" transform="translate(10.053 4.776)" fill="#0f0a1c"/>
          <path id="Trazado_150985" data-name="Trazado 150985" d="M217.717,97.275,162.859,45.581l24.273-28.247s55.454,43.892,61.978,52.754c7.387,10.033,10.276,23.869,4.45,36.653s-16.55,15.647-16.55,15.647Z" transform="translate(9.489 1.01)" fill="#f9b3a2"/>
          <path id="Trazado_150986" data-name="Trazado 150986" d="M164.577,46.592c-.662,0-1.633-3.506-1.754-3.892a20.066,20.066,0,0,1-.987-5.39,19.574,19.574,0,0,0-1.373-7.592,20.679,20.679,0,0,0-3.491-5.359,32.952,32.952,0,0,0-8.725-6.694c-1.265-.7-2.587-1.313-3.833-2.052-2.932-1.741-9.513-5.708-10.614-8.04S133.314.157,140.4,0,175.619,6.18,190.8,18.345,220.543,44,220.543,44l-55.966,2.594" transform="translate(7.77 0)" fill="#f9b3a2"/>
          <path id="Trazado_150987" data-name="Trazado 150987" d="M154.558,22.694a.925.925,0,0,1-.541-.175l-6.46-4.674a.925.925,0,1,1,1.084-1.5l6.46,4.674a.925.925,0,0,1-.543,1.674" transform="translate(8.575 0.942)" fill="#2f3f4f"/>
          <path id="Trazado_150988" data-name="Trazado 150988" d="M137.491,11.375a.921.921,0,0,1-.925-.9c0-.168-.014-4.137,5.092-5.642,6.1-1.8,20.868,3.6,21.494,3.833a.925.925,0,0,1-.64,1.736c-.148-.055-14.816-5.425-20.33-3.8-3.712,1.1-3.766,3.735-3.766,3.846a.929.929,0,0,1-.919.926Z" transform="translate(7.957 0.26)" fill="#2f3f4f"/>
          <path id="Trazado_150989" data-name="Trazado 150989" d="M82.885,172.395l15.251-62.587h83.542l2.185,75.209L82.885,182.833Z" transform="translate(4.829 6.398)" fill="#44a38c"/>
          <path id="Trazado_150990" data-name="Trazado 150990" d="M199.442,503.325H140.7L115.455,321.273l7.225-125.387.116-1.942.407-6.952.116-1.942,1.515-26.409L180.508,133.4s1.5,22.059,3.437,51.13c.039.641.1,1.282.136,1.942.154,2.291.31,4.6.466,6.952.038.641.077,1.282.135,1.942,1.884,28.215,5.831,60.9,7.383,86.1,3.4,55.829,7.375,221.859,7.375,221.859" transform="translate(6.727 7.772)" fill="#44a38c"/>
          <path id="Trazado_150991" data-name="Trazado 150991" d="M84.863,169.169S70.784,226.7,66.415,269.9,48.938,499.046,48.938,499.046H105.01s26.943-149.525,35.2-194.674,11.166-94.667,11.166-106.318-3.514-32.886-3.514-32.886Z" transform="translate(2.851 9.623)" fill="#44a38c"/>
          <path id="Trazado_150992" data-name="Trazado 150992" d="M184.745,192.058l-62,.525-8.311.077-.02-1.942,8.447-.078,61.753-.524c.038.641.077,1.282.135,1.942" transform="translate(6.666 11.077)" fill="#2f3f4f"/>
          <path id="Trazado_150993" data-name="Trazado 150993" d="M184.417,183.653l-60.879.524-13.806.116-.02-1.941,13.944-.116,60.625-.525c.039.641.1,1.282.137,1.942" transform="translate(6.392 10.587)" fill="#2f3f4f"/>
          <path id="Trazado_150994" data-name="Trazado 150994" d="M94.811,178.188,71.159,206.963S66.5,203.43,59.692,198.2c-2.645-2.034-5.641-4.346-8.8-6.806C34.005,178.262,12.073,160.8,8.041,155.571c-7.6-9.857-10.782-23.634-5.252-36.543a37.256,37.256,0,0,1,16.478-18.049L38.832,127.72,77.187,162.3l8.248,7.434Z" transform="translate(0 5.883)" fill="#f9b3a2"/>
          <path id="Trazado_150995" data-name="Trazado 150995" d="M118.025,189.837a15.49,15.49,0,0,1-1.2,6.544,12.394,12.394,0,0,1-.836,1.786A14.177,14.177,0,0,1,110.9,203.9a12.469,12.469,0,0,1-1.866,1.049,24.243,24.243,0,0,1-5.36,1.942c-8.485,2.058-17.108-4.621-22.934-3.049s-9.592,1.845-13.028-.777c-3.456-2.621-8.331-19.011-8.331-19.011l24.875-16.156s15.787,3.417,21.477,7.185c3.651,2.409,8.312,5.185,10.564,8.855a11.183,11.183,0,0,1,1.359,3.321,10.487,10.487,0,0,1,.37,2.582" transform="translate(3.46 9.782)" fill="#f9b3a2"/>
          <path id="Trazado_150996" data-name="Trazado 150996" d="M116.084,189.2c-.952-.66-2.059-1.4-3.283-2.214-6.894-4.543-19.128-6.252-19.263-6.272a.99.99,0,0,1-.836-1.087.957.957,0,0,1,1.107-.835c.506.077,12.8,1.786,20.059,6.582.66.428,1.263.835,1.845,1.243a10.487,10.487,0,0,1,.37,2.582" transform="translate(5.401 10.416)" fill="#2f3f4f"/>
          <path id="Trazado_150997" data-name="Trazado 150997" d="M115.07,195.309a12.386,12.386,0,0,1-.835,1.786,36.142,36.142,0,0,0-8.447-4.543,76.689,76.689,0,0,0-15.574-4.331.969.969,0,0,1-.777-1.126.942.942,0,0,1,1.127-.777,78.581,78.581,0,0,1,15.962,4.428,38.138,38.138,0,0,1,8.544,4.563" transform="translate(5.21 10.854)" fill="#2f3f4f"/>
          <path id="Trazado_150998" data-name="Trazado 150998" d="M109.227,202.318a12.4,12.4,0,0,1-1.865,1.049,35.454,35.454,0,0,0-18.408-6.447.973.973,0,1,1,.116-1.942,37.2,37.2,0,0,1,20.157,7.34" transform="translate(5.129 11.36)" fill="#2f3f4f"/>
          <path id="Trazado_150999" data-name="Trazado 150999" d="M123.972,367.124a.831.831,0,0,1-.114-.007.924.924,0,0,1-.8-1.031q3.183-25.662,6.247-51.342l.953-7.933c2.754-22.842,5.6-46.46,6.454-69.743q.2-5.369.366-10.74c.141-4.289.281-8.578.447-12.865l.841-22.048a.948.948,0,0,1,.96-.889.923.923,0,0,1,.888.958l-.842,22.051c-.163,4.284-.3,8.57-.444,12.854q-.178,5.373-.367,10.749c-.856,23.358-3.708,47.016-6.466,69.9l-.952,7.93q-3.067,25.681-6.249,51.349a.924.924,0,0,1-.916.811" transform="translate(7.169 11.1)" fill="#2f3f4f"/>
          <path id="Trazado_151000" data-name="Trazado 151000" d="M135.693,262.755l-.648-1.732c.09-.034,9.037-3.508,10.394-13.017,1.431-10.012,1.288-55.931,1.286-56.394l1.85-.007c.006,1.894.145,46.517-1.3,56.66-1.518,10.62-11.169,14.336-11.578,14.49" transform="translate(7.868 11.163)" fill="#2f3f4f"/>
          <path id="Trazado_151001" data-name="Trazado 151001" d="M108.917,119.542l-7.749.194L99.712,65.13c2.486-.253,5.088-.428,7.749-.563Z" transform="translate(5.809 3.762)" fill="#44a38c"/>
          <path id="Trazado_151002" data-name="Trazado 151002" d="M173.914,67.531l-1.146,61.578L165,128.954l1.165-62.276c2.816.272,5.437.563,7.749.853" transform="translate(9.613 3.885)" fill="#44a38c"/>
          <path id="Trazado_151003" data-name="Trazado 151003" d="M108.108,115.081a3.4,3.4,0,1,0-3.4,3.4,3.4,3.4,0,0,0,3.4-3.4" transform="translate(5.903 6.507)" fill="#fff"/>
          <path id="Trazado_151004" data-name="Trazado 151004" d="M172.8,115.081a3.4,3.4,0,1,0-3.4,3.4,3.4,3.4,0,0,0,3.4-3.4" transform="translate(9.672 6.507)" fill="#fff"/>
          <path id="Trazado_151005" data-name="Trazado 151005" d="M199.691,499.313,193,507.45a.919.919,0,0,1-.721.332.838.838,0,0,1-.574-.2.9.9,0,0,1-.13-1.294l6.528-7.934c.37.2.74.444,1.128.685.148.092.314.185.462.277" transform="translate(11.149 29.035)" fill="#fff"/>
          <path id="Trazado_151006" data-name="Trazado 151006" d="M205.861,503.124l-6.713,8.155a.91.91,0,0,1-1.313.13.911.911,0,0,1-.111-1.294l6.565-7.971c.518.332,1.035.648,1.572.98" transform="translate(11.507 29.256)" fill="#fff"/>
          <path id="Trazado_151007" data-name="Trazado 151007" d="M61.322,509.578a.9.9,0,0,1-.814.48.82.82,0,0,1-.443-.129l-13.685-7.674c.462-.48.925-.925,1.35-1.368L60.97,508.32a.935.935,0,0,1,.351,1.257" transform="translate(2.702 29.183)" fill="#fff"/>
          <path id="Trazado_151008" data-name="Trazado 151008" d="M56.106,514.229a.914.914,0,0,1-.795.462,1.056,1.056,0,0,1-.462-.111l-13.241-7.434c.443-.462.887-.925,1.349-1.368l12.8,7.194a.914.914,0,0,1,.351,1.257" transform="translate(2.424 29.468)" fill="#fff"/>
          <path id="Trazado_151009" data-name="Trazado 151009" d="M198.313,227.378a1.845,1.845,0,0,1-1.192-.435c-.428-.362-43.032-36.5-63.511-73.689-26.9-48.857-33.379-88.261-33.441-88.654a1.85,1.85,0,0,1,3.653-.581c.061.387,6.462,39.2,33.027,87.451,20.144,36.583,62.233,72.289,62.655,72.644a1.849,1.849,0,0,1-1.193,3.264" transform="translate(5.835 3.639)" fill="#ffcfa6"/>
          <path id="Trazado_151010" data-name="Trazado 151010" d="M82.633,166.36,56.891,194.821c-2.645-2.034-5.641-4.346-8.8-6.806l26.3-29.09Z" transform="translate(2.802 9.259)" fill="#a66353"/>
          <path id="Trazado_151011" data-name="Trazado 151011" d="M74.768,174.114a7.975,7.975,0,1,0-7.975,7.975,7.975,7.975,0,0,0,7.975-7.975" transform="translate(3.427 9.68)" fill="#fff"/>
          <path id="Trazado_151096" data-name="Trazado 151096" d="M108.642,79.219a2.084,2.084,0,0,0,.542-.119c.086-.026.162-.065.244-.1a2.517,2.517,0,0,0,.231-.116,3.436,3.436,0,0,0,.809-.623l.168-.175-.068-.16c-.668-1.576-1.354-3.145-2.12-4.684.47,1.653,1.02,3.275,1.587,4.89l.1-.335a3.433,3.433,0,0,0-.851.565,2.455,2.455,0,0,0-.184.181c-.057.067-.119.126-.171.2a2.083,2.083,0,0,0-.288.475" transform="translate(47.113 -43.376)" fill="#af593c"/>
          <g id="Grupo_165664" data-name="Grupo 165664" transform="translate(154.439 34.515)" opacity="0.5">
            <g id="Grupo_161778" data-name="Grupo 161778" transform="translate(0 0)">
              <g id="Grupo_161777" data-name="Grupo 161777" clip-path="url(#clip-path-2)">
                <path id="Trazado_142708" data-name="Trazado 142708" d="M112.778,88.532l-2.867,1.131,1.4.211Z" transform="translate(-109.911 -88.532)" fill="#af593c"/>
              </g>
            </g>
          </g>
          <path id="Trazado_151097" data-name="Trazado 151097" d="M99.3,71.813l-.083.331c-.031.1-.063.223-.112.36a4.623,4.623,0,0,1-.18.444,3.745,3.745,0,0,1-.271.479,2.737,2.737,0,0,1-.377.451,1.746,1.746,0,0,1-.483.334,1.109,1.109,0,0,1-.269.1c-.047.007-.092.022-.139.024l-.07,0-.035,0h-.011l-.182-.01c-.059,0-.083-.018-.127-.023a1.135,1.135,0,0,1-.263-.093,1.782,1.782,0,0,1-.482-.335,2.771,2.771,0,0,1-.377-.451,4.41,4.41,0,0,1-.271-.479,4.694,4.694,0,0,1-.18-.444c-.05-.136-.081-.26-.113-.362l-.083-.328-.016.088a2.546,2.546,0,0,0-.038.252,2.767,2.767,0,0,0-.009.4,2.653,2.653,0,0,0,.064.52,2.61,2.61,0,0,0,.2.6,2.4,2.4,0,0,0,.384.617,2.016,2.016,0,0,0,.627.516,1.758,1.758,0,0,0,.412.16c.075.016.168.039.23.045l.182.016h.052l.028,0,.056,0,.112-.01a2.136,2.136,0,0,0,.218-.044,1.78,1.78,0,0,0,.406-.158,2.036,2.036,0,0,0,.627-.516,2.41,2.41,0,0,0,.383-.617,2.625,2.625,0,0,0,.2-.6,2.678,2.678,0,0,0,.064-.52,2.808,2.808,0,0,0-.009-.4c-.007-.109-.03-.192-.037-.25l-.015-.088" transform="translate(62.438 -42.38)" fill="#1b262c"/>
          <path id="Trazado_151098" data-name="Trazado 151098" d="M137.818,74.619l-.083.33c-.031.1-.063.223-.112.36a4.516,4.516,0,0,1-.18.444,3.721,3.721,0,0,1-.271.479,2.736,2.736,0,0,1-.377.451,1.748,1.748,0,0,1-.483.334,1.123,1.123,0,0,1-.269.1c-.047.007-.092.021-.139.024l-.07,0-.035,0h-.011l-.182-.01c-.059,0-.083-.018-.127-.023a1.136,1.136,0,0,1-.263-.093,1.783,1.783,0,0,1-.482-.335,2.761,2.761,0,0,1-.377-.451,2.38,2.38,0,0,1-.146-.241,2.438,2.438,0,0,1-.125-.238,4.647,4.647,0,0,1-.18-.444c-.05-.136-.082-.26-.113-.362l-.083-.328-.015.088a2.536,2.536,0,0,0-.038.252,2.766,2.766,0,0,0-.009.4,2.652,2.652,0,0,0,.064.52,2.6,2.6,0,0,0,.2.6,2.4,2.4,0,0,0,.384.617,2.022,2.022,0,0,0,.627.516,1.75,1.75,0,0,0,.412.159,2.309,2.309,0,0,0,.23.045l.182.016h.052l.028,0,.056,0,.112-.01a2.061,2.061,0,0,0,.218-.044,1.781,1.781,0,0,0,.406-.158,2.034,2.034,0,0,0,.627-.516,2.427,2.427,0,0,0,.384-.617,2.639,2.639,0,0,0,.2-.6,2.679,2.679,0,0,0,.064-.52,2.807,2.807,0,0,0-.009-.4c-.007-.109-.03-.192-.037-.25l-.016-.088" transform="translate(12.206 -44.333)" fill="#1b262c"/>
        </g>
      </g>
    </g>
  </g>
</svg>
