<svg xmlns="http://www.w3.org/2000/svg" xmlns:xlink="http://www.w3.org/1999/xlink" width="775" height="206" viewBox="0 0 775 206">
  <defs>
    <clipPath id="clip-path">
      <path id="Trazado_156666" data-name="Trazado 156666" d="M0,0H775V206H0Z" transform="translate(-6173 -10245)" fill="#ffd947"/>
    </clipPath>
    <clipPath id="clip-path-2">
      <rect id="Rectángulo_42659" data-name="Rectángulo 42659" width="802" height="536" transform="translate(0.147 0)" fill="none"/>
    </clipPath>
  </defs>
  <g id="Enmascarar_grupo_198" data-name="Enmascarar grupo 198" transform="translate(6173 10245)" clip-path="url(#clip-path)">
    <g id="Grupo_169590" data-name="Grupo 169590" transform="translate(-6158.34 -10351)">
      <g id="Grupo_169589" data-name="Grupo 169589" transform="translate(-16.807)" clip-path="url(#clip-path-2)">
        <path id="Trazado_161071" data-name="Trazado 161071" d="M886.259,351.331a6.451,6.451,0,0,0-3.741-1.65,412.189,412.189,0,0,1-68.039-18.941c-3.907-1.809-8.124-2.769-12.073-4.456-1.531-.458-2.981-1.129-4.468-1.7a48.851,48.851,0,0,1-5.483-2.292c-5.864-2.178-11.468-5-17.367-7.088a6.087,6.087,0,0,1-1.78-.583c-24.408-9.866-48.749-19.916-74.112-27.165-2.733-.781-5.411-2.026-8.376-1.32-.561-1.46-2.16-1.576-3.438-1.881a342.048,342.048,0,0,0-54.743-8.48c-4.553.64-9.005-1.31-13.571-.511-4.038.957-2.686,4.077-2.374,6.762-4.564-1.594-4.564-1.594-9.9.164.192-6.941.192-6.941-3.969-7.776-11.164-1.068-22.309.013-33.427.79-4.178.292-8.586-.542-12.6,1.476-2.064,2.215-1.013,4.134,1,5.246,3.161,1.746.764,3.862.016,4.814-.883,1.123-3.652,1.143-4.554.006-.771-.974-3.019-3.13.129-4.823,1.993-1.072,3.335-2.923.671-4.949a10.335,10.335,0,0,0-4.842-.253c-10.136,1.038-20.262,2.179-30.346,3.625-13.32,1.91-26.66,3.721-39.811,6.656a9.025,9.025,0,0,1-1.945.293c-1.652-.034-3.194.588-4.808.818-19.99,2.85-39.78,6.981-59.833,9.439-1.417.174-3.1.073-3.795,1.86-.994,1.21-.646,2.657-.634,4.01.071,8.573,2.134,16.926,2.872,25.427-.046.011-.092.017-.139.03-1.649.828-1.628,2.43-1.762,3.92-.811,8.969-4.467,16.758-9.885,23.788a116.075,116.075,0,0,0-8.777,12.779c-6.046,10.483-11.1,21.548-18.449,31.267-5.933,7.851-12.332,15.348-17.984,23.41-6.865,9.793-10.124,20.263-7.377,32.5,3.042,13.545,5.975,27.123,9.272,40.6,8.156,33.349,16.834,66.566,25.526,99.78.45,1.723.862,3.445,2.415,4.575q249.424,0,498.849.075c2.935,0,3.754-.4,3.75-3.611q-.177-123.315-.093-246.631" transform="translate(-83.893 -65.897)" fill="#c5f0f8"/>
        <path id="Trazado_161072" data-name="Trazado 161072" d="M.073,225.221Q.073,114.163,0,3.1C0,.508.509,0,3.1,0Q401.169.115,799.238,0c2.591,0,3.117.506,3.1,3.1-.129,23.247-.076,46.5-.076,69.743-1.643,1.657-3.848,1.77-5.945,2.1-24.28,3.866-48.463,2.885-72.572-1.514-20.346-3.713-40.316-9.113-60.505-13.53A399.081,399.081,0,0,0,595.2,50.545c-39.959-1.741-78.589,4.064-115.936,18.41-7.773,2.986-15.275,6.6-22.885,9.957-1.494.66-2.923,1.514-4.629,1.5-1.6-.1-2.378-1.268-3.11-2.467a5.069,5.069,0,0,0-2.419-2.307c-4.4-1.7-6.036-5.436-7.132-9.608-.9-3.428-.918-7.04-2.012-10.4-.885-2.718-1.658-6.144-4.85-6.716-3.119-.56-4.583,2.648-6.326,4.7-1.994,2.349-2.922,5.266-3.81,8.183-3.153,10.364-7.7,12.225-18.225,14.361-2.381.483-4.369-.808-6.265-2.151-3.1-2.2-6.266-4.288-10.263-4.431-2.166-.077-4.042.332-4.829,2.714a7.039,7.039,0,0,1-7.189,5.14c-6.632-.127-12.139,4.062-18.592,4.442-1.574.093-1.892,1.453-2.285,2.666-.59,1.823-1.148,3.744-3.379,4.151-2.454.449-3.393-1.586-4.815-3-3.1-3.077-5.8-6.265-6.125-10.892a4.143,4.143,0,0,0-1.344-2.238c-4.112-4.612-5.286-8.133-1.532-12.777,5.185-6.412,3.008-12.124.6-18.269a11.446,11.446,0,0,0-5.941-6.1c-2.642-1.292-4.209-.479-5.246,2.315-.69,1.862-.319,4.089-1.933,5.626-3.539-1.649-5.985.09-8.32,2.556a28.631,28.631,0,0,1-4.386,4.068c-.338,4.5-4.492,4.736-7.265,6.527-.827-.13-1.653.1-2.489.036-1.566-.676-3.823-.314-4.2-2.785.662-1.206,1.658-1.44,2.266-1.185-2.446.027-5.507.261-8.569.367-1.544.054-2.221.955-2.137,2.474-.378,3.511-1.774,6.8-2.072,10.343-.461,5.491.827,7.14,6.213,7.37.251.011.5,0,.755.023,1.99.19,4.471,0,4.786,2.63.291,2.435-1.88,3.44-3.819,4.051a19.433,19.433,0,0,0-12.39,10.809c-1.947,4.107-5.924,5.728-10.473,5.259a57.347,57.347,0,0,1-10.376-2.056c-4.278-1.268-6.6-4.4-7.55-8.657-1.207-5.435-3.29-6.439-7.78-2.94-4.562,3.554-8.823,3.768-13.514.669a8.111,8.111,0,0,0-7.9-1.086c-1.577.638-3.058,1.36-3.107,3.361-.043,1.753,1.043,2.756,2.493,3.463a21.676,21.676,0,0,1,2.717,1.324c3.074,2.072,3.361,4.938.769,7.609-.176.181-.368.346-.559.51-4.309,3.664-5.61,4.635-1.145,9.735a7.437,7.437,0,0,1,1.509,3.835,122.638,122.638,0,0,1,1.669,24.515,21.993,21.993,0,0,1-1.58,6.987c-1.33,3.456-.922,7.244-2.318,10.653-1.331.967-2.507.165-3.417-.588-6.252-5.183-13.137-4.565-20.421-2.829-10.637,2.536-16.2,9.491-18.369,19.759-.157.74-.24,1.495-.383,2.238-.927,4.8-1.3,5.124-6.033,5.535-9.575.831-17.153,5.576-23.444,12.481a59.518,59.518,0,0,0-10.037,15.512,43.17,43.17,0,0,1-17.477,19.326c-10.573,6.408-16.612,16.254-20.507,27.653a22.937,22.937,0,0,0-.964,7.1c-.027,1.61.128,3.342-1.467,4.468a41.344,41.344,0,0,1-18.674-2.53c-1.007-2.236-3.644-2.405-5.151-4.036-.522-.566-1.128-.231-1.593.271-1.491,1.611-3.482,1.74-5.483,1.86-25.265-6.629-48.556-17.6-70.262-32.056a4.84,4.84,0,0,1-1.374-1.27,12.474,12.474,0,0,0-.837-1.488" transform="translate(0.1 0.324)" fill="#c5f0f8"/>
        <path id="Trazado_161073" data-name="Trazado 161073" d="M137.148,308.405c-.327-17.611,8.4-30.194,22.366-39.609,7.079-4.773,12.788-10.479,16.46-18.287,4.516-9.6,10.306-18.228,19.656-23.909,5.058-3.073,10.416-5.133,16.386-5.05,2.231.031,3.259-.652,3.277-2.945a23.68,23.68,0,0,1,.571-3.74c3.072-18.017,18.314-23.046,32.343-22.007,4.287.318,7.433,3.515,10.652,6.163,1.385.2,1.917,1.57,3.256,2.354,1.549-1.972,2.076-4.444,3.019-6.674a12.462,12.462,0,0,1,8.29-7.7,38.388,38.388,0,0,1,23.075.3,18.255,18.255,0,0,1,11.437,10.816,96.535,96.535,0,0,1,4.339,12.108c1.307,4.745,2.035,5.318,6.96,4.513,6.107-1,12.265-1.329,18.4-1.98a38.225,38.225,0,0,1,7.8,1.182c6.841,1.911,10.7,6.631,12.343,13.391,2.388,10.043,1.637,20.253,1.649,30.424-.535,2.724-.042,5.488-.3,8.223-1.369,3.891-.32,7.839-.251,11.763-.752,6.712.612,13.242,1.543,19.831.477,3.372,1.713,6.878-.129,10.27-.977,5.94-1.555,11.951-4.338,17.476a64.556,64.556,0,0,1-7.429,11.822c-7.132,8.784-11.869,19.023-17.283,28.846-7.357,13.345-17.694,24.52-26.552,36.771-7.02,9.709-10.288,19.964-7.571,32.311,6.209,28.21,13.161,56.226,20.328,84.2q7.793,30.414,15.644,60.813H192.331c-2.617-3.9-2.169-8.488-2.661-12.8q-2.834-24.807-5.815-49.6c-2.42-19.914-5.246-39.771-7.795-59.664-1.97-15.377-6.1-29.751-14.318-43.036-8.165-13.207-15.454-26.922-19.788-41.985a22.16,22.16,0,0,1-.751-2.927c-.243-2.15,1.294-3.165,2.764-4.133a282.328,282.328,0,0,0,35-27.588,6.165,6.165,0,0,1,2.906-1.689c3.072-.331,5.483,1.638,8.177,2.539,2.1.7,1.119,2.516-.044,3.622a109.472,109.472,0,0,1-13.72,11.2c9.416-4.3,19.323-8.651,30.131-10.413a10.033,10.033,0,0,0,5.383-2.595,26.443,26.443,0,0,1,18.765-7.515,55.134,55.134,0,0,0,8.249-.9c1.175-.193,2.595-.5,3.176,1.176a5.391,5.391,0,0,1-.809,3.255c-7.413,13.964-7.479,28.459-3.311,43.331,3.228,11.519,8.591,21.693,17.544,29.844a32.977,32.977,0,0,0,17.89,7.913,32.74,32.74,0,0,1-21.592-11.424c-10.766-12.375-15.811-27.071-16.358-43.3-.372-11.063,3.225-21.093,9.25-30.291a41.175,41.175,0,0,0,2.763-4.056,29.743,29.743,0,0,1,5.934-5.514c5.481-3.089,10.462-6.956,16.123-9.82,10.372-5.248,21.331-7.456,32.815-7.794a91.861,91.861,0,0,0,20.194-2.675c.946-.243,2.013-.255,2.893-1.261a23.225,23.225,0,0,0-3.528-3.261c-5.74-5.131-7.589-11.73-7.265-19.129.16-3.642,1.048-4.257,4.468-3.064a30.049,30.049,0,0,0,8.014,2.082,17.68,17.68,0,0,0,10.648-2.5,42.391,42.391,0,0,1-18.463.314c-1.156-.237-2.808-.111-2.986-1.753-.17-1.576,1.331-2.016,2.468-2.456a39.758,39.758,0,0,0,14.436-9.467,17.314,17.314,0,0,0,4.663-10.031c-2.529,1.2-4.29,2.821-6.351,3.949-9.454,5.175-19.129,5.229-28.742.849-11.729-5.345-22.23-12.386-29.482-23.464a34.277,34.277,0,0,0-2.666-3.191,5.083,5.083,0,0,1-.644-1.591c-1.257-5.033-1.918-10.085-.721-14.618a6.29,6.29,0,0,0-.408,1.52c-.153,1.13.478,3.026-1.335,2.938-1.239-.06-1.576-1.784-1.677-3.063a18.977,18.977,0,0,0-.741-2.79,59.186,59.186,0,0,1,2.73,18.593,22.1,22.1,0,0,0,.644,5.609,12.348,12.348,0,0,0,.654,4.748c1.932,9.858,3.839,19.719,5.437,29.638a42.786,42.786,0,0,1,.643,9.74,4.276,4.276,0,0,1-.208,1.242c-3.4,6.7-9.553,9.322-16.342,10.8-7.235,1.573-13.078-.758-17.335-6.9a4.722,4.722,0,0,1-.647-1.014c-3.676-13.755-8.32-27.254-11.093-41.258a41.285,41.285,0,0,0-3.969-10.442c2.348,3.7,3.736,8.911,4.157,14.378a105.852,105.852,0,0,0,3.393,18.208c2.607,10.14,4.527,20.422,6.5,30.7a7.862,7.862,0,0,1-2.49,6.878,34.689,34.689,0,0,1-20.883,8.738,7.6,7.6,0,0,1-4.39-.918,4.944,4.944,0,0,1-2.138-2.131c-4.289-10.227-8.65-20.422-14.483-29.908a47.592,47.592,0,0,0-7.059-8.845,18.869,18.869,0,0,0-14.347-5.786c7.224-.325,11.69,3.637,15.545,9.193,6.251,9.014,9.688,19.361,14.442,29.08.995,2.034,1.906,4.117,2.853,6.179.695,1.51,1.256,3.053.463,4.725a19.265,19.265,0,0,1-15.306,7.632,49.639,49.639,0,0,1-21.726-4.02c-3.941-1.691-5.922-5.363-8.318-8.542-1.835-2.434-3.5-4.931-5.822-6.006a19.9,19.9,0,0,1,3.36,2.7c1.388,1.564,1.2,2.657-.765,3.43-6.067.833-12.147.412-18.22.289a3.2,3.2,0,0,1-3.148-1.6" transform="translate(-33.233 -44.484)" fill="#e29a78"/>
        <path id="Trazado_161074" data-name="Trazado 161074" d="M420.762,197.6c-2.739-9.771-10.158-12.575-19.209-12.953.3-1.984,2.056-2.443,3.464-3.131,20.876-10.2,40.337-22.769,59.655-35.583,22.144-14.69,44.077-29.714,67.326-42.653,3.96-2.2,7.967-4.325,11.924-6.534a9.311,9.311,0,0,1,5-1.379c16.062-7.593,32.363-14.552,49.437-19.61,22.355-6.622,45.191-9.953,68.447-11.05,36.479-1.721,72.056,3.887,107.348,12.382,18.971,4.566,37.9,9.353,57.26,12.122,21.86,3.127,43.674,3.36,65.46-.633a23.3,23.3,0,0,1,2.991-.168v24.258a6.962,6.962,0,0,1-4.432,1.88c-16,2.039-31.991,3.172-48.172,2.084a249.753,249.753,0,0,1-26.464-3.279c10.467,1.835,20.91,3.8,31.529,4.721a215.151,215.151,0,0,0,42.952-.546,5.279,5.279,0,0,1,4.587,1.2v103.1c-4.036,7.171-11.138,10.852-17.666,14.965-16.074,10.128-33.889,15.1-52.742,16.487-1.52.111-2.952.526-4.443.679a13.8,13.8,0,0,1-6.365-1.762q-11.084-4.728-22.43-8.786c-8.248-2.938-16.4-6.181-24.9-8.384-.351-.09-.642-.388-.526-.237,3.52,1.352,7.707,2.238,11.7,3.7,8.724,3.2,17.432,6.433,25.913,10.244a5.221,5.221,0,0,1,2.409,1.755c.326,3.109-2.029,2.775-3.771,2.677a106.8,106.8,0,0,1-43.993-12.1c-11.2-5.813-22.266-11.735-32.96-18.405-7.6-4.736-14.99-9.794-22.8-14.178-2.076-1.164-3.914-2.781-6.58-2.354-2.477.4-2.263-2.355-3.628-3.286-2.43-3.816,1.347-5.111,3.488-7.521-2.595-.687-5.311.085-6.875-2.094a8.335,8.335,0,0,1-1.68-5.972c.91-3.261,3.39-2.95,5.8-2.436,11.457,2.436,22.879,5.022,33.947,8.943,2.842,1.008,5.729,1.895,8.518,3.054-27.7-10.176-55.934-18.02-85.553-20.054a239.668,239.668,0,0,0-35.086-.05c-2.6.2-5.287.343-7.83-.635-2.6-1.914-3.161,1.486-4.9,1.976-1.692.478-.084,1.6.195,2.343.312.836.052,1.76.528,2.543.9.3,1.7-.514,2.547-.264,1.549.458,2.493.4,2.726-1.637.154-1.345,1.533-1.848,2.876-1.975,21.133-.617,42.257-1.26,63.229,2.288,2.6.44,5.271.453,7.815,1.251,1.951.613,3.873,1.261,4.514,3.546.522,2.424-.5,4.344-2,6.106a7.43,7.43,0,0,1-5.893,1.865,8.718,8.718,0,0,0-5.393,1.2,6.734,6.734,0,0,1-5.177-.717c-4.47-2.747-9.64-2.834-14.553-3.367-15.155-1.645-30.359-1.134-45.54-.086a29.594,29.594,0,0,0-7.75,1.511c-6.474,1.336-13.062,1.773-19.621,2.442-4.35-.015-8.536,1.185-12.8,1.765a5.229,5.229,0,0,1-1.188.265,25.783,25.783,0,0,0-7.532,1.349,31.187,31.187,0,0,1-5.781,1.062,27.059,27.059,0,0,0-6.112,1.1,5.385,5.385,0,0,1-1.112.259,16.886,16.886,0,0,0-6,1.523c-6.413,1.959-13.125,2.6-19.552,4.49-.973.051-1.9.388-2.873.475a16.377,16.377,0,0,1-3.609.184c-12.9-1.492-25.766-4.146-38.787-.96a48.35,48.35,0,0,1-9.73.842c-1.7.064-3.486-.131-2.741-2.709,2.121-2.45,5.209-3.41,7.838-5.079,5.04-1.7,9.4-4.71,13.96-7.339a5.118,5.118,0,0,1,1.042-.4c12.115-6.355,24.234-12.7,36.748-18.245,2.3-1.021,4.358-1.619,5.382,1.551,1.646.906,3.3-.275,5.063.066,1.708.331.8-2.192,1.722-3.142.562-.58.724-1.383-.322-1.746-1.728-.6-3.071-3.633-5.41-.573-.969,1.268-3.087.64-4.614,1.175-6.419,1.073-11.918,4.5-17.723,7.088-6.625,2.948-13.309,5.828-19.5,9.67a4.449,4.449,0,0,1-2.512.623c-1.577.256-2.72,1.3-3.949,2.194-1.872,1.363-4.252,1.752-6.074,3.214-4.871,2.574-9.933,4.745-14.909,7.1-2.836.722-5.2,2.477-7.837,3.626-3.854,2.2-8.139,3.389-12.144,5.236a7.046,7.046,0,0,1-6.906-.406,55.586,55.586,0,0,0-8-4.2c-1.876-.811-3.65-2.143-3.74-4.39-.1-2.418,1.97-3.39,3.806-4.212,30.443-13.626,58.736-31.253,87.813-47.417,7.71-4.286,15.777-7.909,23.225-12.664a10.513,10.513,0,0,1,1.313-.65c.842-.4,2.039-.268,2.371-1.465a.679.679,0,0,0-.437-.878c-1.431-.272-1.771,1.03-2.458,1.823a9.226,9.226,0,0,1-3.254,2.529c-26.1,12.863-51.029,27.883-76.609,41.7-11.518,6.223-23.387,11.757-35.278,17.232-1.742.8-3.49,1.483-5.446.83" transform="translate(-97.501 -15.242)" fill="#009d26"/>
        <path id="Trazado_161075" data-name="Trazado 161075" d="M108.547,427.389c3.21,9.968,6.677,19.835,11.75,29.043,4.2,7.619,8.152,15.392,12.731,22.775,6.789,10.942,9.033,23.154,10.764,35.543,2.493,17.84,4.935,35.69,7.152,53.567,2.356,19,4.427,38.038,6.613,57.06.5,4.377.962,8.758,1.442,13.138q-77.948,0-155.9.073c-2.592.005-3.1-.51-3.1-3.105q.144-84.147.073-168.294a6.16,6.16,0,0,1,2.392-1.57,28.407,28.407,0,0,0,4.507-.843c20.758-3.255,40.667-9.375,60.188-17.114,13.085-5.187,25.291-11.879,37.219-19.213,1.259-.774,2.5-1.834,4.168-1.059" transform="translate(0.1 -102.915)" fill="#c5f0f8"/>
        <path id="Trazado_161076" data-name="Trazado 161076" d="M960.9,303.1c8.54-1.851,17.311-2.056,25.852-4.268a129.226,129.226,0,0,0,27.16-10.646c5.471-2.835,10.128-6.919,15.32-10.177,2.585-1.622,3.468-5.028,6.589-5.991V312.2a11.355,11.355,0,0,1-4.935,3.935c-4.1,1.987-8.506,3.192-12.621,5.09-7.229,3.336-13.775.7-20.367-1.965-3.6-1.644-7.5-2.462-11.158-3.969a27.126,27.126,0,0,0-3.5-1.585c-6.062-2.451-12.144-4.852-18.22-7.27-1.475-.984-3.962-.721-4.122-3.334" transform="translate(-233.453 -65.426)" fill="#009019"/>
        <path id="Trazado_161077" data-name="Trazado 161077" d="M996.8,331.065a42.759,42.759,0,0,1,4.226,1.5c9.182,4.341,17.158-.265,25.287-3.44,2.873-1.121,5.555-2.731,8.324-4.118v38.663c-11.77-1.421-23.236-4.29-34.648-7.39a350.477,350.477,0,0,1-38-12.378c-.97-1.841.415-2.434,1.653-3.053.967-.484,2.17-.471,3.217-1.474-4.577,1.145-7.748.237-9.836-2.662-1.783-2.474-1.138-4.6,1.753-5.535,3.179-1.032,6.228-.148,9.17.963,4.481,1.691,8.9,2.9,13.867,2.589,3.355-.208,6.875.6,10.3,1.125,1.346.207,2.646.817,4.079.356.659-1.247-.7-2.045-.684-3.128.015-.932-.336-2.118,1.294-2.016" transform="translate(-232.27 -78.233)" fill="#00870c"/>
        <path id="Trazado_161078" data-name="Trazado 161078" d="M1033.778,134.124c-10.036.423-20.006,1.789-30.1,1.584-15.239-.309-30.344-1.413-45.071-5.614-1.892-.541-4.054-.222-6.11-1.988,6.118.619,11.77,1.36,17.448,1.73,12.524.815,25.007,1.748,37.628.786,8.765-.668,17.457-1.854,26.2-2.562Z" transform="translate(-231.412 -30.629)" fill="#00841c"/>
        <path id="Trazado_161079" data-name="Trazado 161079" d="M2.454,435.072.1,435.741V297.012l.768.737a9.082,9.082,0,0,1,1.484,4.99q.009,48-.026,95.992A18.038,18.038,0,0,1,2.1,400.6a99.151,99.151,0,0,1-.066,15.217c.5,5.23.164,10.473.212,15.706a8.271,8.271,0,0,0,.207,3.546" transform="translate(0.077 -71.467)" fill="#0caa47"/>
        <path id="Trazado_161080" data-name="Trazado 161080" d="M776.66,283.718c-9.1-2.922-18.525-4.315-27.889-6.017-10.067-1.831-20.278-2.5-30.393-3.921-4.418-.672-8.777-2.078-13.328-1.1-1.309-1.52.836-2.047.888-3.491-2.169-.579-5.106.444-6.638-2.1-1.049-1.746-1.786-3.637-.892-5.738a1.5,1.5,0,0,1,1.719-.378c3.549,1.081,7.2,1.036,10.85,1a301.352,301.352,0,0,1,39.135,1.807,118.3,118.3,0,0,1,38.575,11.216,37.118,37.118,0,0,1,7.279,5.365,25.414,25.414,0,0,0,9.044,5.32c2.077.628,3.763.38,4.368-2.09.733-1.393,1.817-1.327,2.722-.361,1.223,1.305,2.886,1.4,4.383,1.972a8.12,8.12,0,0,1,1.9,1.106c5.79,3.406,12.286,5.152,18.532,7.283,7.627,2.6,15.127,5.475,22.429,8.79,8.656,3.931,17.888,5.837,26.861,8.656,13.187,4.145,26.951,4.936,40.966,7.444a28.926,28.926,0,0,1-6.877-2.488c-2-.958-4.115-1.606-6.149-2.465-2.989-1.257-5.806-2.911-8.916-3.891-1.306-.569-2.658-1.038-3.914-1.725-.992-.974-2.737-1.136-3.071-2.829.348-1.834,1.872-2.047,3.3-2.4,6.061,2.517,12.34,4.509,18.173,7.574a2.285,2.285,0,0,0,3.028,1.51,42.538,42.538,0,0,1,11.344,3.8c-1.416,1.287-.136,2.182.4,3.258.419.843,1.71,1.6,1.053,2.583-.752,1.121-2.2,1.139-3.465.879-2.409-.494-4.9-.8-7.238-1.24-6.517-1.219-13.452.432-19.662-3.151a10.761,10.761,0,0,0-9.45-1c-1.024.4-1.787.739-1.486,2.122.671,3.084,6.056,5.367,8.767,3.735.859-.517,1.725-2.737,2.842-.83.895,1.529-.057,3.217-1.809,3.974a6.3,6.3,0,0,1-2.219.288,2.3,2.3,0,0,0-2.545,2.213c-3.871-1.383-7.868-2.436-11.518-4.4-.371-1.185,1.312-2.914-.754-3.59-1.7-.557-2.861.466-3.626,1.953a18.569,18.569,0,0,1-5.448-2.176c1.973-1.62,1.53-5.7,6.123-5.268-2.092-.386-3.12-1.385-4.346-2.007-2.542-1.292-5.193-1.51-7.413.356-2.7,2.27-4.943,1.843-7.23-.42-1.629-1.612-3.153-2.089-4.388.422-13.191-5.179-26.365-10.4-39.575-15.527-13.705-5.322-27.753-9.623-41.826-13.838a11.665,11.665,0,0,0-2.61-.177" transform="translate(-169.556 -62.727)" fill="#00870c"/>
        <path id="Trazado_161081" data-name="Trazado 161081" d="M912.75,328.8a2.094,2.094,0,0,1,.7-3.215c1.392-.965,2.335-.141,3.268.779.806.793,1.579,1.625,2.43,2.365,1.192,1.036,2.7,1.369,3.646.005,2.483-3.587,5.884-2.733,8.876-1.619,2.313.861,4.383,2.556,7.75,3.62-3.606.689-7.47-.466-7.021,4.474.058.642-1.558.346-2.395.507-5.172-1.827-10.406-3.5-15.149-6.366a7.656,7.656,0,0,0-2.105-.551" transform="translate(-221.635 -78.27)" fill="#00870c"/>
        <path id="Trazado_161082" data-name="Trazado 161082" d="M942.681,340.782c-.462-1.116-1.345-3.069.242-3.014,1.848.064,4.177-1.683,5.49.2a2.993,2.993,0,0,1-1.352,4.45,9.9,9.9,0,0,1-4.38-1.636" transform="translate(-228.864 -81.155)" fill="#00870c"/>
        <path id="Trazado_161083" data-name="Trazado 161083" d="M522.232,90.4C486.6,108.543,454.261,132,420.754,153.565a503.859,503.859,0,0,1-45.891,26.112q-10.867,1.2-21.733,2.4c-2.212.245-3.3-.435-3.808-2.928a76.812,76.812,0,0,0-4.773-14.687c-2.9-6.79-8.211-10.127-15.279-11.408a47.884,47.884,0,0,0-15.386.13c-8.761,1.228-10.472,8.376-12.756,15.065-.12.353-.112.749-.2,1.115a8.065,8.065,0,0,1-.413.966c-2.176-1.31-2.851-3.639-4.076-5.524-.39-5.128,1.419-9.831,2.538-14.718,1.349-5.892.771-12.028.187-18.053-.266-2.745-.961-5.46-1.074-8.205a9.144,9.144,0,0,0-2.474-6.107c-3.785-4.217-3.707-4.579.467-8.469a11.605,11.605,0,0,1,1.742-1.439c1.332-.823,2.723-1.7,2.354-3.488a4.353,4.353,0,0,0-3.6-3.434c-2.175-.486-4.056-1.259-4.622-3.8-.421-1.895-.326-3.636,1.406-4.694,2.61-1.595,5.913-3.305,8.472-1.513,6.337,4.44,11.718,4.65,17.821-.611,3.091-2.665,6.532-.39,7.1,3.859.845,6.308,3.09,8.629,9.369,9.777,2.22.406,4.414.952,6.634,1.364,5.022.933,9.111-1.52,11.048-6.235,2.056-5.008,6.223-7.714,11.123-9.456.706-.25,1.492-.3,2.163-.612,1.129-.525,2.579-1.093,2.42-2.553-.187-1.713-1.821-1.366-3.03-1.446a9.884,9.884,0,0,0-1.889,0c-7.572.955-7.879-3.672-7.335-8.9a94.276,94.276,0,0,1,2.107-10.041c2.978-2.321,6.164-3.308,9.781-1.535,1.291,1.182,3.346.684,4.543,2.072.3,2.679-1.931,4.023-3.138,5.893-.845,1.31-2.353,2.186-2.873,4.661,3.593-3.35,4.171-8.057,7.807-10.383,1.842-2.118,4.536-3,6.829-4.4-.59-1.264-1.8.406-1.946-.606-.136-.919.877-1.388,1.713-1.711.933.347,1.537-.674,2.409-.585,2.02.337,3.952-.4,5.935-.543,2.235-.166,3.063-1.892,3.231-3.964.1-.544.324-.992.939-1.1,1.792-1.625,1.1-3.99,1.714-5.971,1.241-3.995,3.7-5.091,7.418-2.988a13.624,13.624,0,0,1,4.562,3.918c2.75,3.94,3.615,8.713,5.033,13.178.549,1.73-.662,4.115-2.288,5.768-2.2,2.235-3.093,5.137-3.662,8.15-.407,2.154-.005,4.522,1.859,5.313,3.318,1.408,3.362,4.273,3.686,6.855.282,2.245.963,3.744,2.939,4.845A8.58,8.58,0,0,1,419.1,96.99a2.386,2.386,0,0,0,2.375,1.537,2.133,2.133,0,0,0,2.222-2.147c.141-4.94,3.015-5.918,7.23-5.4,2.972.362,4.388-3.1,7.488-3.112,3.221-.011,6.426-1.009,9.663-1.323a4.408,4.408,0,0,0,3.892-3.067c1.967-4.592,4.831-5.82,9.618-4.13a32.341,32.341,0,0,1,8.483,4.844,6.088,6.088,0,0,0,2.948,1.527c7.339.911,17.052-5.583,18.65-12.8a24.551,24.551,0,0,1,7.482-13.229c3.22-2.955,5.437-2.555,7.846,1.183,2.568,3.984,2.832,8.538,3.644,12.969a24.808,24.808,0,0,0,2.35,7.535c.552,1.015,1.078,2.208,2.2,2.481,3.614.879,5.431,3.569,7.036,6.546" transform="translate(-70.81 -10.268)" fill="#c5f0f8"/>
        <path id="Trazado_161084" data-name="Trazado 161084" d="M1.134,401.116q-.011-51.565-.023-103.131c11.476,7.019,22.932,14.059,35.2,19.663A208.624,208.624,0,0,0,69.6,329.858a6.362,6.362,0,0,1,3.029,1.451c1.63.425,3.361,1.131,3.6,2.856.314,2.292,1.157,2.518,3.29,2.321,1.584-.146,2.491.038,2.653-1.909.1-1.187.768-2.386,2.421-1.467a95.465,95.465,0,0,0,19.5,2.514,142.413,142.413,0,0,0,22.756.049c3.17,1.5,4.916,4.223,4.571,7.11-1.744,2.716-4.807,3.573-7.463,3.813-8.484.764-16.959,1.884-25.536,1.486a187.15,187.15,0,0,1-27.437-3.15c-.52.146.078.716,0,.229-.042-.249.3-.349.563-.29,12.1,2.687,24.365,3.389,36.724,3.2,4.642-.07,9.157-1.375,13.811-1.162a2.779,2.779,0,0,1,.761,3.173,3.815,3.815,0,0,1-1.823,1.98c-6.268,2.6-13,2.983-19.591,3.4-7.388.466-14.863.632-22.254-.58-.847-.139-1.766,0-2.166-.582,2.181,1.132,4.9,1.087,7.438,1.172,9.687.323,19.4.544,28.981-1.433a11.1,11.1,0,0,1,3-.281c3.088.211,4.234,1.832,2.813,4.538-4.072,7.754-10.144,13.769-17.108,18.927a2.783,2.783,0,0,1-3.521.091c-.6-.425-.966-1.1-1.578-1.525-.74-.516-1.531-.979-2.318-.208-.949.93-.515,1.759.388,2.461,2.878,1.653,1.193,3.089-.36,4.2-4.98,3.556-10.045,6.992-16.14,8.436a25.442,25.442,0,0,0-5.241,1.967,5.038,5.038,0,0,1-.9.6c-.484.251-.982.477-1.465.733-1.266,1.885-3.005,2.549-5.256,3.1A91.694,91.694,0,0,0,50.4,402.341c-4.469,1.975-9.136,2.662-13.791,3.737-11.821,2.729-22.737-1.471-33.892-3.961a3.778,3.778,0,0,1-1.582-1" transform="translate(-0.17 -71.702)" fill="#009d26"/>
        <path id="Trazado_161085" data-name="Trazado 161085" d="M590.185,69.063c1.543,4.763,3.757,8.23,9.98,6.9-4.764,2.775-6.075,6.292-3.872,11.328-4.085-3.531-7.831-3.582-11.239-.022a2.048,2.048,0,0,1-.3-2.546c1.53-3.028.785-5.217-2.168-6.8-.6-.319-1.525-.694-1.066-1.658a1.451,1.451,0,0,1,1.254-.541c5.088,1,6.127-2.53,7.414-6.666" transform="translate(-141.212 -16.369)" fill="#fbdf02"/>
        <path id="Trazado_161086" data-name="Trazado 161086" d="M107.547,342.425c-3.8,1.091-.4,3.851-1.478,6.037-2.553-2.409-5.284-2.37-8.282-.033,1.922-3.681.329-5.9-2.2-7.807,2.282-.626,5.07-.378,5.909-3.5.07-.262.587-.4.9-.6.644,2.98,4.2,2.9,5.446,5.241.07.132-.187.439-.291.664" transform="translate(-23.133 -81.017)" fill="#f5e001"/>
        <path id="Trazado_161087" data-name="Trazado 161087" d="M109.667,138.8c-3.073,5.794-6.085,11.622-9.263,17.357-.789,1.425-2.016.46-2.875-.22-1.035-.82-2.538-1.649-1.122-3.3,4.131-4.807,8.3-9.582,12.452-14.369l.808.529" transform="translate(-23.192 -33.096)" fill="#f8e00d"/>
        <path id="Trazado_161088" data-name="Trazado 161088" d="M127.256,135.087h23.02c-.684,5.236-.678,5.212-5.53,4.183-5.775-1.223-11.559-2.4-17.339-3.6-.05-.2-.1-.391-.151-.586" transform="translate(-30.831 -32.328)" fill="#0b1e60"/>
        <path id="Trazado_161089" data-name="Trazado 161089" d="M105.467,133.033c-6.767,2.107-13.256,2.8-19.57,4.273-1.883.44-2.221-.516-2.048-2.013.167-1.445-.633-3.426,2.237-3.23,6.255.427,12.524.641,19.382.97" transform="translate(-20.27 -31.594)" fill="#099a35"/>
        <path id="Trazado_161090" data-name="Trazado 161090" d="M118.089,119.786c-.481-6.064-1-12.126-1.418-18.2-.106-1.549,1.2-1.508,2.138-1.211,1.29.412,3.355.21,2.973,2.556-.918,5.627-1.9,11.245-2.852,16.867Z" transform="translate(-28.256 -23.899)" fill="#fbdf00"/>
        <path id="Trazado_161091" data-name="Trazado 161091" d="M125.894,124.159c4.418-4.139,8.859-8.253,13.237-12.433,1.345-1.284,1.951-.44,2.465.685.535,1.172,2.592,2.369.331,3.683-5.137,2.985-10.34,5.856-15.517,8.773l-.516-.708" transform="translate(-30.5 -26.525)" fill="#059c2d"/>
        <path id="Trazado_161092" data-name="Trazado 161092" d="M105.49,124.079l-18.162-9.41c3.243-4.388,3.256-4.4,6.946-1.222,3.887,3.35,7.745,6.734,11.615,10.1l-.4.529" transform="translate(-21.126 -26.554)" fill="#0c206c"/>
        <path id="Trazado_161093" data-name="Trazado 161093" d="M128.639,144.424c2.747,2.577,5.476,5.174,8.248,7.722,1.2,1.1,1.855,2.265.165,3.334-1.279.81-2.676,2.121-4.118-.095-2.592-3.982-5.351-7.853-8.04-11.771-.49-1.308-.151-2.034,1.253-1.334a11.716,11.716,0,0,1,2.492,2.144" transform="translate(-30.205 -34.001)" fill="#f5e11c"/>
        <path id="Trazado_161094" data-name="Trazado 161094" d="M118.71,143.511c1.063,6.163,2.114,12.327,3.2,18.486.285,1.619-.518,1.84-1.892,1.869-1.624.034-2.188-.5-2.166-2.166.081-6.034.032-12.07.032-18.106l.829-.083" transform="translate(-28.544 -34.364)" fill="#101b6a"/>
        <path id="Trazado_161095" data-name="Trazado 161095" d="M399.321,73.986c-1.806,3.419-3.562,6.866-5.447,10.241-.594,1.064-1.073,2.928-2.993,1.459-1.633-1.249-1.2-2.4,0-3.771,2.3-2.627,4.436-5.391,6.641-8.1l1.8.17" transform="translate(-94.647 -17.518)" fill="#eae027"/>
        <path id="Trazado_161096" data-name="Trazado 161096" d="M390.778,70.328,381,71.862c-.838-3.224.472-4.193,3.626-3.83,3.41.391,6.9,0,11,.955l-4.844,1.341" transform="translate(-92.444 -16.103)" fill="#20a04b"/>
        <path id="Trazado_161097" data-name="Trazado 161097" d="M406.977,55.5a9.844,9.844,0,0,1-.478,5.089c-2.055-1.8-1.672-4.107-1.9-6.193-.262-2.362-.541-4.728-.649-7.1-.056-1.245-.552-3.148,1.732-2.883,1.645.19,3.159.819,2.91,3.11a26.613,26.613,0,0,1-1.521,7.281c-1.622-1.7-.378-3.816-.669-4.837.406,1.24-1.138,3.578.58,5.532" transform="translate(-98.062 -10.405)" fill="#dbea9a"/>
        <path id="Trazado_161098" data-name="Trazado 161098" d="M423.6,56.147l-.622.607a15.763,15.763,0,0,1-9.709,5.517c-.735-.231-1.421,1.21-2.183.064,2.559-2.335,5.3-4.5,7.628-7.052,2.356-2.576,3.823-2.667,4.885.864" transform="translate(-99.818 -12.587)" fill="#109b36"/>
        <path id="Trazado_161099" data-name="Trazado 161099" d="M396.392,62.141q-5.44-2.834-10.879-5.672c-.946-.5-2.395-.758-.961-2.317.931-1.012,1.633-1.771,3.035-.473,2.944,2.726,6.04,5.288,9.073,7.917q-.133.273-.267.546" transform="translate(-93.222 -12.484)" fill="#102665"/>
        <path id="Trazado_161100" data-name="Trazado 161100" d="M66.024,313.77c-3.259.89-2.608-2.136-3.031-3.218-.389-1,1.935-1.871,2.969-1.977.958-.1,2.907.941,2.689,2.311-.193,1.214.369,4.289-2.628,2.884" transform="translate(-15.2 -74.26)" fill="#e7e557"/>
        <path id="Trazado_161101" data-name="Trazado 161101" d="M20.345,301.421c-3.146,1.4-2.263-1.5-2.431-2.34-.3-1.519,1.542-2.471,2.5-2.341a2.5,2.5,0,0,1,2.1,2.964c-.257,1.506-.083,3.167-2.17,1.717" transform="translate(-4.246 -71.398)" fill="#f4df1a"/>
        <path id="Trazado_161102" data-name="Trazado 161102" d="M407.305,55.916c-.464.01-1.075,1.381-1.269.249-.485-2.828-.584-5.724-.816-8.6-.071-.88.333-1.473,1.263-1.463,1.04.011,1.7.5,1.412,1.651a24.588,24.588,0,0,0-.5,7.463,2.076,2.076,0,0,0-.089.695" transform="translate(-98.39 -10.821)" fill="#f7df05"/>
        <path id="Trazado_161103" data-name="Trazado 161103" d="M751.864,54.268c-1.7.379-1.908-.727-1.863-1.957.057-1.545,1.016-2.94,2.391-2.7,1.213.208,2,1.721,1.925,3.281-.088,1.818-1.4,1.35-2.453,1.38" transform="translate(-182.192 -11.66)" fill="#f7df07"/>
        <path id="Trazado_161104" data-name="Trazado 161104" d="M128.04,143.58c-1.429.571-1.907-3.277-3.745-.81-.918-1.141-2.138-2.122-2.073-4.254a12.649,12.649,0,0,1,5.818,5.064" transform="translate(-29.607 -33.157)" fill="#dee884"/>
        <path id="Trazado_161105" data-name="Trazado 161105" d="M120.681,366.2l1.494-.779c3.4-2.557,7.894-2.457,11.417-4.718a2.6,2.6,0,0,1,1.072-.143c2.68,1.347,4.048,4,5.983,6.089,2.468,2.661,5,5.246,7.69,7.685,1.092.991,2.408,1.878,2.33,3.641-.18,1.046-1.185,1.259-1.841,1.828a348.322,348.322,0,0,1-40.011,31.5c-11.349,7.026-22.757,14.022-35.13,19.082-9.475,3.876-18.984,7.664-28.812,10.762a341.077,341.077,0,0,1-34.448,8.459,16.537,16.537,0,0,1-3.008.068c-2.332.387-4.648.707-6.3-1.6l0-16.685c1.366-1.822,3.279-1.542,5.173-1.364,4.125.388,8.136,1.4,12.315,1.661,11.2.7,22.131-1.171,32.855-3.716,7.376-1.751,14.834-3.932,21.5-7.907a1.4,1.4,0,0,1,1.938-.052c-1.22-4.607-1.166-4.777,1.756-5.525,1.892,4,2.041,4.058,5.715,2.314,10.681-5.069,21.081-10.619,30.539-17.8.944-.717,1.827-1.494,2.775-2.169a164.322,164.322,0,0,1-36.024,18.04c-.94.334-1.927.708-2.84-.114a3.667,3.667,0,0,0-2.337-2.147c-2.406-.809-3.239-2.452-2.214-4.882.023-.185.051-.37.086-.554.123-.027.316-.12.358-.074,3.434,3.729,7.036,2.123,10.787.516A180.759,180.759,0,0,0,126.645,381.6c1.686-1.372,3.146-2.935,3.18-5.321a16.105,16.105,0,0,0-.344-5.937c.5-1.057,2.194-.769,2.53-2.442-2.724-.8-5.017.588-7.423,1.206-3.224.827-4.244.033-3.906-2.9" transform="translate(-0.17 -86.826)" fill="#00870c"/>
        <path id="Trazado_161106" data-name="Trazado 161106" d="M547.378,159.192c-1.082,2.5-3.7,2.966-5.726,3.993-19.8,10.053-38.78,21.583-58.185,32.343-15.537,8.616-31.017,17.307-47.326,24.414-4.266,1.859-4.728,3.409-1.53,5.623,3.229,2.235,6.951,3.771,10.447,5.529,4.5,2.263,8.347-2.178,12.649-3.077a27.426,27.426,0,0,0,4.847-2,17.2,17.2,0,0,0,7.575-3.777l15.125-6.842c1.241-.827,2.415-.732,3.165.576.827,1.444,0,2.574-1.04,3.577-1.512,1.457-4.033,1.389-5.152,3.434-2.583,1.141-4.636,3.34-7.557,3.805-.5.035-1.121.038-1.412.383-3.7,4.4-9.3,5.946-13.719,9.259-4.148-.356-4.148-.356-4.228,4.292a1.322,1.322,0,0,1-2.422.119c-1.474-1.96-2.887-1.4-4.78.089,4.829,1.553,9.555,2.111,14.221,2.957,1.8.327,4.27,0,4.022,3.1-2.262,2.317-5.454,2.406-8.257,3.286-7.641,2.4-15.377,4.494-23.087,6.667a21.329,21.329,0,0,1-3.317.627c-2.062.241-3.047-.5-2.837-2.718a11.156,11.156,0,0,0-.133-3.742c-.441-8.512.433-17.073-.984-25.548-.31-1.85-.54-3.713-.807-5.571,18.693-7.647,36.566-16.955,54.19-26.778,20.52-11.438,40.8-23.324,61.913-33.666,1.456-.714,2.781-1.7,4.167-2.554,2.023.576,1.417,1.366.179,2.207" transform="translate(-103.669 -37.621)" fill="#00880f"/>
        <path id="Trazado_161107" data-name="Trazado 161107" d="M308.382,244.973c1.869.562,2.595,2.305,3.614,3.671,9.454,12.656,21.783,21.248,37.086,24.837,8.646,2.028,16.607-1.26,23.742-6.326,1-.708,1.72-1.9,3.512-1.791,0,6.252-3.06,10.822-7.391,14.912-4.267,4.03-9.543,6.228-15.339,8.7,8.532,2.411,16.465,1.472,24.416.295-7.787,7.116-16.138,5.959-24.719,1.57-1.671,11.562,2.447,20.021,12.851,26.071a68.237,68.237,0,0,1-17.042,3.923c-8.466,1.013-17.094.55-25.447,2.418-9.93,2.22-18.922,6.7-27.347,12.359-1.77,1.188-3.4,2.615-5.479,3.284-1.007-2.8,1.46-3.81,2.877-5.136,9.441-8.836,20.105-15.418,33-18.049a32.427,32.427,0,0,0,13.3-6.106c6.589-5.068,8.421-12.336,8.714-20.12.3-8.064.173-8.069,7.973-8.557,5.593-.35,9.655-2.793,14.937-8.841-5.457,4.494-11.611,8.23-19.41,8.241a14.991,14.991,0,0,1-7.622-1.827c-7.131-4.042-14.549-7.539-21.755-11.44a29.347,29.347,0,0,1-14.323-17.727c-.45-1.424-1.019-2.878-.146-4.362" transform="translate(-70.533 -58.889)" fill="#cd7555"/>
        <path id="Trazado_161108" data-name="Trazado 161108" d="M429.023,274.407a2.281,2.281,0,0,1,.353.658c.771,5.167.8,5.29,5.9,3.845,10.478-2.969,20.917-6.081,31.371-9.136,1.841-2.2,4.646-2.41,7.081-3.18,14.576-4.611,29.343-8.578,44.023-12.841a9.926,9.926,0,0,1,2.976-.347c1.869.442,3.826-.424,5.675.354,1.207,2,4.3,2.386,4.5,5.26a4.581,4.581,0,0,1-2.614,1.422c-10.231,2.693-20.19,6.317-30.45,8.889a4.635,4.635,0,0,0-3.5,2.022,2.609,2.609,0,0,1-1.03.456c-8.174,1.057-15.719,4.4-23.6,6.529s-15.719,4.5-23.558,6.825c-1.84.546-3.681.963-5.438-.253-4.028-2.624-4.236,1.067-5.354,3.265-2.041,1.236-4.584,2.017-6.288.482-1.511-1.36-.741-3.945-.319-6.01a31.316,31.316,0,0,1,.276-8.242" transform="translate(-103.971 -60.927)" fill="#007409"/>
        <path id="Trazado_161109" data-name="Trazado 161109" d="M440.731,289.045a3.66,3.66,0,0,0,4.041.773c14.7-4.5,29.457-8.848,44.182-13.286,1.633-.492,3.155-.828,4.646.275a2.327,2.327,0,0,1-.83,3.5c-3.465,1.594-.221,3.706-.582,5.508-.205,1.027,1.118.308,1.75.306,1.86-.007,3.542.207,3.789,2.57-22.919,4.233-45.865,8.3-69,11.23-1.1-3.93-.593-7.862-.007-11.793.005.124.014.248.017.372.106,5.937.625,6.267,6.668,4.218,2.364-.365,3.8-2.077,5.321-3.672" transform="translate(-103.949 -66.405)" fill="#00870b"/>
        <path id="Trazado_161110" data-name="Trazado 161110" d="M192.984,377.965,194.5,376.5c1.646-1.538,3.322-.646,4.907.044,7.164,3.12,13.776,1.2,20.2-2.2a9.449,9.449,0,0,0,4.048-4.848c1.19-2.741,2.9-3.163,5.361-1.58a16.127,16.127,0,0,0,7.544,2.074c7.914.68,12.943-2.565,15.86-9.973.462-1.172.841-2.371,1.208-3.576,1.247-4.092,1.589-4.243,5.383-2.289a11.354,11.354,0,0,0,3.237.923c.954.271,1.908.559,2.85.868,1.4.46,1.739,1.588.881,2.63-4.253,5.171-8.439,10.4-12.624,15.621-.124.155-.455.083-.707.011-6.2.588-12.428.976-18.592,1.831-4.45.616-7.351,4.205-10.724,6.767a12.664,12.664,0,0,1-5.769,2.63c-11.613,1.721-22.079,6.595-32.517,11.584-.415.2-.867.319-2.256.822,3.767-4.692,8.222-7.1,11.846-10.438,1.938-1.784,4.059-3.366,6.078-5.062.69-.579,1.555-1.732.105-1.84-2.885-.215-4.988-2.492-7.84-2.539" transform="translate(-44.33 -84.985)" fill="#cc7555"/>
        <path id="Trazado_161111" data-name="Trazado 161111" d="M272.653,349.373c3.5-6.226,8.6-11.207,13.035-16.774-.8-1.263-2.53-.146-3.249-1.37.854-1.214,2.206-.993,3.418-1.218,1.931-.358,3.612-1.121,4.41-3.112a26.683,26.683,0,0,1,6.842-5.39c3.138-1,5.744-3.08,8.743-4.367,5.506-2.561,11.363-4.133,17.1-6.016,11.98-3.932,14.707-12.5,14.179-24.08-.092-2.019-1.651-2.965-3.233-3.871-4.592-2.633-9.291-5.07-13.9-7.678a89.3,89.3,0,0,1-13.693-9.323c-1.595-1.222-1.626-3.581-3.393-4.68-1.914-.637-.779-4.307-3.812-3.831-1.216-1.363-.6-3.027-.751-4.566.827-1.506,1.21-3.646,3.782-2.655,1.99,2.908,2.717,6.419,4.717,9.388,3.553,5.277,8.873,8.1,14.121,11.046,5.71,3.21,11.337,6.58,17.269,9.378a6.153,6.153,0,0,1,3.861,6.33c-.159,3.654-.051,7.324-.8,10.939-1.509,7.283-5.441,12.6-12.266,15.785a65.2,65.2,0,0,1-12.687,4.814c-14.863,3.456-25.479,13.157-35.219,24.1-.648.729-2.191,1.065-1.686,2.6-1.189,3.646-3.963,6.342-5.736,9.673-8.746,16.424-7.016,32.966-.989,49.594a57.925,57.925,0,0,0,10.33,17.47c6.716,8.005,15.461,11.745,25.719,12.38a28.407,28.407,0,0,1-21.535-6.742c-16.739-14.492-22.839-33.531-22.085-55.072.287-8.183,3.541-15.654,7.507-22.759" transform="translate(-64.331 -60.149)" fill="#ba6f4e"/>
        <path id="Trazado_161112" data-name="Trazado 161112" d="M344.584,236.817c-12.371-.079-20.955-3.406-26.467-12.8-1.048-1.786-1.545-3.49-.624-5.325.873-1.738,2.619-1.667,4.3-1.68A82.387,82.387,0,0,1,352,222.428c5.054,1.925,5.972,6.5,2.349,10.652a11.687,11.687,0,0,1-9.763,3.736" transform="translate(-76.951 -52.13)" fill="#fec19a"/>
        <path id="Trazado_161113" data-name="Trazado 161113" d="M264.59,343.732c-1.292,3.392-2.122,3.779-8.339,3.882-2.595.309-4.474-1.241-6.545-2.853-.861,2.649-1.543,5.034-2.4,7.351-3.073,8.268-9.382,11.964-18.049,10.465-2.688-.464-5.525-.752-7.755-2.606-1.513-1.258-2.017-.564-2.577.944-2.38,6.419-8.016,8.024-13.881,9.435a19.15,19.15,0,0,1-14.148-1.972,7.375,7.375,0,0,0-2.577-.324c.006-1.012-.7-1.536-1.4-2.073-5.68-4.367-9.918-10.111-14.641-15.392-1.789-.64-2.924-1.774-2.86-3.81a26.545,26.545,0,0,0-4.6-6.273c-1.276-3.375-4.94-4.308-7.471-7.312,8.216,3.22,11.336,11.048,17.212,15.872,4.224,3.026,7.382,7.174,11.162,10.669,6.225,5.756,13.166,7.992,21.471,5,5.756-2.076,8.161-6.561,6.358-12.5-.648-2.134-2.082-4.087-1.548-6.509.062-2.264-.272-4.845,3.382-4.2l1.464,1.57a16.669,16.669,0,0,1,4.29,10.617c.225,2.991,1.823,4.529,4.561,5.189,8.507,2.051,15.365-2.369,17.118-10.921,1.275-6.224.63-12.53,1.006-18.793.28-2.712.213-5.453.637-8.144.2-1.246,0-2.894,1.978-3.036l.036-.017c3.206,6.24,4.223,13.042,4.982,19.886.561,5.054,2.322,6.524,7.354,5.932,1.914-.225,3.844-1.418,5.784-.067" transform="translate(-38.143 -76.535)" fill="#a95335"/>
        <path id="Trazado_161114" data-name="Trazado 161114" d="M293.207,342.757c-3.032.8-6.018,1.873-9.235,1.545-2.863-.293-4.978-1.964-5.04-4.694-.159-7.019-2.062-13.645-3.748-20.343a10.951,10.951,0,0,1-.1-2.258,13.9,13.9,0,0,1,2.241,2c3.75,5.14,9.071,5.585,14.582,4.579,6.36-1.162,11.851-4.089,15.622-9.635a3.27,3.27,0,0,1,1.073,3.421c-.849,5.355-1.891,10.661-4.187,15.641A10.429,10.429,0,0,1,300,337.488l-6.792,5.269" transform="translate(-66.76 -75.561)" fill="#cc7555"/>
        <path id="Trazado_161115" data-name="Trazado 161115" d="M217.854,354.908c.877,2.219,1.905,4.393,2.6,6.668,1.836,6.019-1.375,11.059-7.321,13.154-9.573,3.373-17.166.411-23.82-6.425-3.235-3.323-6.931-6.246-9.232-10.4,6.352,1.921,12.655,3.645,19.428,3.971,7.183.346,12.62-2.383,17.559-7.009q.433-.689.787.044" transform="translate(-43.67 -85.37)" fill="#cd7555"/>
        <path id="Trazado_161116" data-name="Trazado 161116" d="M263.268,332.916a65.156,65.156,0,0,1,.03,18.768c-1.629,9.838-12.589,15.716-21.249,11.2-1.972-1.027-3.21-2.306-3.013-4.7.345-4.2-2.325-7.632-3.087-11.558,6.853,1.965,20.854-2.836,25.129-8.5a7.927,7.927,0,0,0,1.545-5.247q.351-.527.645.033" transform="translate(-57.249 -80.076)" fill="#cd7555"/>
        <path id="Trazado_161117" data-name="Trazado 161117" d="M283.6,343.12c-2.487.476-1.012-.748-.534-1.351A105.317,105.317,0,0,1,299.4,325.631c7.615-6.2,16.591-9.034,25.688-12.008,15.144-4.952,19.8-10.355,20.112-27.59.063-3.49-.875-5.492-4.084-6.966-7.287-3.346-14.037-7.72-21.059-11.573-7.5-4.118-11.861-10.245-13.786-18.381-1.522-1.992-3.12-3.984-.03-6q.05.705.1,1.41c1.372,4.839,3,9.455,6.121,13.625,3.5,4.67,8.354,7.115,13.182,9.735,5.633,3.057,11.485,5.726,17,8.969,6.993,4.108,16.843,1.012,23.539-4.022,2.1-1.576,4.058-3.332,6.155-5.067-1.155,7.459-11.221,13.946-17.578,13.981-6.823.037-6.646.155-6.882,6.744-.59,16.464-6.765,23.817-23.281,27.91-12.906,3.2-23.6,9.616-33.114,18.5-1.085,1.012-2.384,1.92-2.69,3.549l-5.195,4.67" transform="translate(-68.49 -58.439)" fill="#a85435"/>
        <path id="Trazado_161118" data-name="Trazado 161118" d="M225.652,519.225c1.971-.306,3.422.931,4.966,1.5a30.031,30.031,0,0,0,19.251,1.024c2.2-.638,2.973-.385,3.434,2.159a242.788,242.788,0,0,1,3.641,49.641,48.352,48.352,0,0,1-2.537,13.526c-.105-8.034-1.371-15.917-1.919-23.855-.806-11.671-2.622-23.276-2.359-35.017.056-2.508-1.587-2.5-3.308-2.373-7.039.511-13.436-1.46-19.44-4.984a12.44,12.44,0,0,1-1.28-.791c-.176-.133-.235-.419-.45-.833" transform="translate(-54.746 -125.167)" fill="#ba6f4e"/>
        <path id="Trazado_161119" data-name="Trazado 161119" d="M218.226,339.281l-.786-.043c-.092-3.581-2.342-6.343-3.772-9.356-4.681-9.864-8.176-20.271-14.474-29.412-3.726-5.408-8.188-8.673-14.587-9.466-.833-.1-1.654-.31-3-.569,10.789-2.328,17.618,2.961,22.975,10.618,7.241,10.35,12.362,21.833,16.693,33.672-2.607.45-2.8,2.521-3.05,4.556" transform="translate(-44.041 -69.743)" fill="#b96f4e"/>
        <path id="Trazado_161120" data-name="Trazado 161120" d="M266.847,311.45c-.216-.008-.431-.019-.646-.033-3.166-14.344-6.455-28.662-9.44-43.044-1.219-5.871-1-12.029-3.456-17.67a58.86,58.86,0,0,1-2.63-6.882,35.167,35.167,0,0,1,8.339,17.249c2.139,12.3,6.956,23.885,9.456,36.083.2.977.431,1.947.647,2.921-1.509,3.641-.3,7.829-2.272,11.377" transform="translate(-60.829 -58.61)" fill="#ba6f4e"/>
        <path id="Trazado_161121" data-name="Trazado 161121" d="M297.447,519.547c-4.685,4.469-9.692,8.227-16.831,6.549-2.067-.486-3.022.217-2.574,2.638a305.164,305.164,0,0,1,4.322,35.862c.1,1.476.449,2.936.8,5.109-3.856-4.483-4.833-9.548-5.794-14.238-2.01-9.823-3.792-19.748-3.48-29.9.087-2.841.616-3.8,3.727-2.985,6.93,1.816,13.731,1.786,19.833-3.038" transform="translate(-66.462 -125.256)" fill="#b96f4e"/>
        <path id="Trazado_161122" data-name="Trazado 161122" d="M310.024,259.378c.1-.929-.118-2.136,1.356-2.09a1.678,1.678,0,0,1,1.59,1.708c.142,1.339.1,2.728,1.608,3.4,5.04,10.521,6.538,21.839,7.47,33.282-2.314.739-3.96,2.508-5.872,3.873-.54-12.237-3.652-24.067-5.66-36.073-.227-1.357-.331-2.734-.492-4.1" transform="translate(-75.254 -61.865)" fill="#b96f4e"/>
        <path id="Trazado_161123" data-name="Trazado 161123" d="M315.685,311.461c.426-.9.93-1.768,1.266-2.7,1.081-3,2.355-2.8,3.835-.3a2.157,2.157,0,0,1,.868.936c.642,8.078-.8,15.663-5.336,22.514-2.877,1.031-5.048,3.616-8.316,3.786,5.551-6.87,6.9-15.089,7.532-23.54q.066-.351.151-.7" transform="translate(-74.762 -73.773)" fill="#a85236"/>
        <path id="Trazado_161124" data-name="Trazado 161124" d="M311.791,237.178c-1.772,2.009.352,4,.029,6-1.971-.433-2.4,1.686-3.758,2.274-1.51-5.148-.272-10.539-1.45-15.748-.789-3.49-1.023-7.105-1.57-11.151,1.973,2.664,1.724,5.677,3.654,8.752-.084-3.977.894-6.616,4.028-8.1-4.743,5.821-1.415,11.966-.933,17.979" transform="translate(-74.043 -52.502)" fill="#b96f4e"/>
        <path id="Trazado_161125" data-name="Trazado 161125" d="M952.138,191.526a157.156,157.156,0,0,1-20.748,8.5c-23.711,8.167-48.291,12.206-73.066,15.292-4.248.529-8.513.956-12.732,1.664a7.747,7.747,0,0,1-5.963-1.349c-21.346-13.858-42.707-27.7-65.649-38.858a228.187,228.187,0,0,0-30.654-12.488c-.2-1.411.78-1.586,1.554-1.933,22.474-10.067,46.111-16,70.354-19.687,11.329-1.721,22.721-3.024,34.061-4.685a9.493,9.493,0,0,1,7.042,1.725c22.874,14.972,45.871,29.744,70.789,41.194a193.608,193.608,0,0,0,23.169,9.14c.671.209,1.555.218,1.843,1.485" transform="translate(-180.565 -33)" fill="#fedf00"/>
        <path id="Trazado_161126" data-name="Trazado 161126" d="M519,263.637c5.233-1.514,10.471-3.015,15.7-4.543q9.269-2.708,18.528-5.453a3.414,3.414,0,0,1,.893-.846c6.07-2.476,12.5-3.739,18.808-5.35,10.209-2.607,20.516-4.82,30.92-6.539,3.783-.625,4.7.028,4.163,2.961-.12.333-.244.67-.335,1.012.079,1.165-.694,2.785,1.525,2.748,1.607-.68,2.155-1.667,1.057-3.237-.677-.968-2-1.765-.994-3.27,2.424-2.126,5.492-2.508,8.448-2.888a459.185,459.185,0,0,1,59.383-4.071c10.563.018,21.005,1.573,31.493,2.421,5.838.645,7.275,2.9,6.287,9.887,5.919-2.581,5.919-2.581,11.067.926.1-1.425-.976-2.9.254-4.215,1.126,3.471,4.6,1.909,6.749,3.161,3.685,2.143,7.382,4.27,10.986,6.544,10.5,6.63,20.525,14.194,31.548,19.787,14.469,7.342,28.441,16.291,45,18.694,5.195.755,10.428,1.259,15.652,1.794,1.189.121,2.643.354,2.964-1.471,2.076-.871,3.3.99,4.932,1.533a32.091,32.091,0,0,1,4.668,2.736c2.348,3.094,6.5,2.686,9.339,4.814a7.866,7.866,0,0,1,3.784,1.514,18.3,18.3,0,0,1,1.829,1.344c1.957,1.736,1.688,3.521-.686,4.6a5.462,5.462,0,0,1-2.961.447c-2.979-.375-5.913-.994-8.924-1.272-2.825-.261-4.6-2.22-5.169-5.242-.565-3-1.663-3.307-3.982-1.416-2.763,2.254-9.067,2.523-11.844.506-1.846-1.34-1.581-2.4,1.5-5.223-2.436-.284-4.209,1.339-6.314,1.34a26.083,26.083,0,0,1-14.343-4.081c-4.613-2.957-9.216-5.7-14.906-5.811-2.381-.046-3.906-1.52-5.207-3.333-1.255-1.749-2.721-2.62-4.753-1.051a3.517,3.517,0,0,1-3.957.117c-2.555-1.431-5.4-1.9-8.083-2.9l-1.621-.794c-.388-4.01-2.838-4.068-5.844-3.06.936,3.75-1.023,5.571-4.9,4.349a23.315,23.315,0,0,1-9.692-5.645c-4.865-4.921-11.117-7.1-17.254-9.665-8.381-3.51-17.391-4.486-26.065-6.8-3.97-1.059-8.252-.867-12.334-.974-11.051-.289-22.082-1.39-33.159-.97-2.693.1-5.526.146-7.946-1.534-1.8-.609-2.154,1.639-3.566,1.829a8.5,8.5,0,0,1-3.713.533c-14.6-.271-29.21-.146-43.814-.1a339.936,339.936,0,0,0-59.606,5.736c-6.934,1.255-13.954,1.928-20.948,2.762-1.911.228-4.206.707-4.557-2.339" transform="translate(-126.047 -56.274)" fill="#00911b"/>
        <path id="Trazado_161127" data-name="Trazado 161127" d="M526.821,253.313c-5.768.535-11.116,2.775-16.637,4.262-12.676,3.412-25.241,7.233-37.852,10.888-3.315-2.481-7.454-1.48-11.122-2.6-3.119-.953-6.464-1.165-9.646-2.344.7-1.8,2.1-1.913,3.131-2.473,1.909-1.037,3.914-2.107,4.8,1.25.185.7.9.782,1.443.1,2.416-.635,3.348-2.8,4.666-4.559.051-1.531.827-2.247,2.323-2.735,3.437-1.124,6.871-2.287,8.913-5.765a2.271,2.271,0,0,1,3.817-.56c-1.034,2.214-.086,1.958,1.784,1.886,8.611-.331,16.981-2.882,25.638-2.652,8.112.215,16.025,2.009,24.035,3.034-1.015,2.514-3.722,1.06-5.295,2.267" transform="translate(-109.656 -59.614)" fill="#00911b"/>
        <path id="Trazado_161128" data-name="Trazado 161128" d="M720.62,236.261c-3.222.985-6.417-.128-9.566-.381a281.239,281.239,0,0,0-40.5-.783c-8.984.572-18,.949-26.962,1.818-7.2.7-14.451,1.243-21.487,3.135a3.286,3.286,0,0,0-2.16,1.4c.479,2.363-.772,2.087-2.242,1.475-.759-1.145,1.84-.7.9-1.849-.538-.658-1.407-.491-2.113-.344-11.808,2.462-23.711,4.467-35.322,7.857-5.489,1.6-11.116,2.728-16.682,4.07-.777-2.112-.487-4.344-.727-6.517,6.673-2.438,13.787-2.958,20.609-4.747,1.946-.8,4.24-.193,6.059-1.5q.377,0,.753-.01a10.771,10.771,0,0,0,6.057-1.508l6.05-.775a13.584,13.584,0,0,0,7.569-1.5l.757-.011a39.95,39.95,0,0,0,12.87-2.259l19.671-2.288a261.234,261.234,0,0,1,38.341-1.324c8.03.328,16.006.924,23.963,2.031a42.693,42.693,0,0,1,6.562,1.561c1.407.886,2.975.789,4.534.745a2.081,2.081,0,0,1,1.966.071,1.945,1.945,0,0,1,1.108,1.634" transform="translate(-136.924 -55.273)" fill="#007a12"/>
        <path id="Trazado_161129" data-name="Trazado 161129" d="M757.922,222.17c-1.2-3.833-4.8-3.222-7.5-3.7-22.742-4.064-45.731-3.122-68.67-3.126a2.917,2.917,0,0,0-1.792-2.481c-1.123-.463-2.163-1.312-1.191-2.826,2.508,1.273,5.23.9,7.808.678a230.059,230.059,0,0,1,48.819,1.4,261.957,261.957,0,0,1,38.7,7.661c11.361,3.212,22.639,6.735,33.449,11.56,1.236.552,2.777.281,4.293,2.013-4.984-.434-9.011-2.163-13.122-3.43-11.53-3.552-23.243-6.346-35.019-8.929-2.1-.46-3.1,0-3.59,1.952a1.347,1.347,0,0,1-.687-.2c-.484-.219-.428-1.91-1.495-.569" transform="translate(-164.786 -50.432)" fill="#00831b"/>
        <path id="Trazado_161130" data-name="Trazado 161130" d="M516.859,220.677c3.537.362,5.684-2.521,8.527-3.766,9.363-4.1,18.566-8.572,27.886-12.777a3.781,3.781,0,0,1,3.617-.209,3.889,3.889,0,0,1,4.19,3.045c.375,1.382.135,2.787-1.656,3.217.19-3.1-.961-3.158-3.507-1.97-12.046,5.619-24.014,11.381-35.624,17.869a9.459,9.459,0,0,1-1.773.578c-1.642-1.693-1.73-3.818-1.661-5.987" transform="translate(-125.523 -48.873)" fill="#01841a"/>
        <path id="Trazado_161131" data-name="Trazado 161131" d="M779.89,225.723c1.7-2.516,1.54.267,2.182.768.914,2.067.327,5.164,3.132,5.918,2.211.6,4.645.357,7.38.512-1.275,2.251-3.106,3.123-4.634,4.3-1.272.984-2.453,1.937-1.044,3.663q.705,3.035,1.412,6.071c-4.979-4.782-9.762-4.958-14.852.491,1.216-5.2,3.921-10.165-3.016-12.478l-1.375-.993c-1.129-2.685,1.135-1.668,2.079-1.786,2.453-.306,5.251.82,7.072-1.874q.831-2.3,1.664-4.6" transform="translate(-186.754 -53.985)" fill="#f9df00"/>
        <path id="Trazado_161132" data-name="Trazado 161132" d="M933.119,307.091l-4.554-2.263c-8.486-3.37-16.952-6.794-25.467-10.089-5.326-2.062-10.726-3.931-16-6.208,5.426.432,10.575,2.141,15.634,3.848,11.035,3.724,21.922,7.891,32.852,11.924.528.194.9.824,1.34,1.25-.9,1.419-2.535,1.031-3.805,1.539" transform="translate(-215.516 -69.417)" fill="#009019"/>
        <path id="Trazado_161133" data-name="Trazado 161133" d="M738.827,233.535c-10.683-.972-21.349-2.25-32.053-2.816a138.031,138.031,0,0,0-24.026.322c-4.209.512-8.522.177-12.787.225,6.492-1.976,13.229-2,19.9-2.209,8.671-.267,17.359-.231,26.032-.009,6.5.165,12.907,1.46,19.289,2.691a5.7,5.7,0,0,1,3.65,1.8" transform="translate(-162.739 -54.996)" fill="#00911b"/>
        <path id="Trazado_161134" data-name="Trazado 161134" d="M701.633,171.621c1.948-3.76.6-6.188-2.572-8.363,3.868.309,6.025-1.41,7.086-5.024.631,3.929,3.129,5.015,7.457,4.793-3.577,2.466-4.775,4.916-2.785,8.866-3.473-2.074-6.2-3.009-9.186-.271" transform="translate(-169.812 -37.922)" fill="#e9dd01"/>
        <path id="Trazado_161135" data-name="Trazado 161135" d="M620.392,116.217c2.479,4.9,2.479,4.9,7.26,5.629-2.384,2.173-4.613,4.328-1.858,8.3-3.4-1.26-6.121-3.977-8.806.161-.036-3.407,1.188-6.706-3.265-8.044,3.477-.629,6.284-1.375,6.669-6.048" transform="translate(-149.07 -27.767)" fill="#ede001"/>
        <path id="Trazado_161136" data-name="Trazado 161136" d="M455.251,212c-2.905,2.4-4.562,4.627-2.3,8.359-3.156-2.329-5.9-2.549-8.827.044,1.34-3.472.686-6.047-3.369-8.34,4.406.023,7.085-.861,7.493-4.979,1.431,3.128,2.512,6.132,7.006,4.915" transform="translate(-107.028 -49.73)" fill="#f0de01"/>
        <path id="Trazado_161137" data-name="Trazado 161137" d="M572.282,208.594c2.845-3.586-.826-4.525-2.534-6.262,5.423-1.918,5.423-1.918,6.934-5.387,1.4,2.828,2.553,5.865,7.233,4.394-2.109,2.954-5.505,4.752-2.586,8.6-3.047-1.7-5.526-2.43-8.083-.143-.559.5-.8-.642-.964-1.2" transform="translate(-138.382 -47.28)" fill="#efdf01"/>
        <path id="Trazado_161138" data-name="Trazado 161138" d="M680.047,89.306c1.554-3.748,1.589-6.527-2.447-8.284,3.836-.008,6.358-1.152,6.914-6.078,1.488,4.1,2.712,6.925,7.859,4.941-2.509,3.115-5.171,4.667-3.975,7.89.259.7-.88,1.134-1.256.642-2.479-3.249-4.316.018-7.095.889" transform="translate(-164.596 -17.791)" fill="#f0df00"/>
        <path id="Trazado_161139" data-name="Trazado 161139" d="M675.947,209.435c.2,3.6,3.229,1.675,4.909,2.559.442,1.619-1.586,1.62-1.926,2.748-2.234,1.521.216,3.38-.336,5.506-2.692-1.981-5.349-2.81-8.18-.055.9-3.345.738-6.075-3.64-7.957,4.048-.478,7.349-.546,6.973-4.7,1.876-.236,1.3,1.536,2.2,1.9" transform="translate(-161.965 -49.834)" fill="#edde01"/>
        <path id="Trazado_161140" data-name="Trazado 161140" d="M754.1,107.255c3.588.4,5.632-1.305,6.731-5.792.908,4.535,2.746,6.327,7.266,5.437-2.932,2.7-4.872,4.929-3,8.662-2.96-2.373-5.688-2.543-8.379.209.34-4.775.34-4.775-2.624-8.516" transform="translate(-183.19 -24.201)" fill="#f1e001"/>
        <path id="Trazado_161141" data-name="Trazado 161141" d="M499.984,240.639c.172-2.39,2.27-2.663,3.823-3.611.908-.554,2.079-1.3,1.892-2.575-.213-1.467-1.576-1.329-2.687-1.4,1.458-2,3.875-2.121,5.9-3.015,2.176.188,3.572,1.514,4.7,3.233a58.489,58.489,0,0,1-13.623,7.369" transform="translate(-121.425 -55.278)" fill="#00911b"/>
        <path id="Trazado_161142" data-name="Trazado 161142" d="M947.9,312.517c.542-2.315,2.452-1.234,3.8-1.539l6.037,1.539c1.148,1.49,3.093,1.383,4.54,2.275l-3.033,2.282a6.273,6.273,0,0,1-6.8-2.276,8.733,8.733,0,0,1-4.544-2.282" transform="translate(-230.293 -74.843)" fill="#00870c"/>
        <path id="Trazado_161143" data-name="Trazado 161143" d="M562.279,251.283c1.839,1.994,1.216,4.263.727,6.517l-.183-.066-.189.046c-2.473-.121-3.884-1.667-4.94-3.69.03-1.672,1.8-1.383,2.536-2.259Z" transform="translate(-135.452 -60.414)" fill="#cdd509"/>
        <path id="Trazado_161144" data-name="Trazado 161144" d="M725.866,101.677c-3.295,1.63-1.6-2.512-3.224-2.885.557-1.534,2.5-1.114,3.28-2.326.652,1.1,3.2,1.535,2.561,2.235-.863.954.82,4.42-2.617,2.976" transform="translate(-175.544 -22.992)" fill="#c2d704"/>
        <path id="Trazado_161145" data-name="Trazado 161145" d="M592.248,117.821c-3.492,1.388-1.171-2.381-2.7-2.659.326-1.406,1.906-1.592,2.58-2.659.818,1.2,2.658,1,3.3,2.434-1.513.553.124,4.727-3.181,2.884" transform="translate(-143.194 -26.869)" fill="#bed706"/>
        <path id="Trazado_161146" data-name="Trazado 161146" d="M551.07,139.517c-3.481,1.254-2.135-2.086-2.482-2.875-.664-1.506,1.936-1.442,2.795-2.485.72,1.09,3.084,1.128,2.692,2.392-.375,1.212.032,4.48-3,2.967" transform="translate(-133.213 -32.103)" fill="#b2d10a"/>
        <path id="Trazado_161147" data-name="Trazado 161147" d="M516.472,232.328c-2.064-.351-3.888-1.051-4.7-3.232.731-1.709,2.381-2.216,3.853-2.956,2.8,1.372,1.145,3.982,1.661,5.988l-.816.2" transform="translate(-124.291 -54.336)" fill="#bdd007"/>
        <path id="Trazado_161148" data-name="Trazado 161148" d="M666.052,154.314c-3.2,1.08-2.494-1.872-2.633-2.743-.177-1.112,1.765-1.533,2.721-2.339.745,1,2.91,1.1,2.539,2.494-.282,1.059.489,4.515-2.627,2.589" transform="translate(-161.146 -35.747)" fill="#c3da08"/>
        <path id="Trazado_161149" data-name="Trazado 161149" d="M807.006,84.031l3.378-2.609c.4,1.357,2.907,1.135,2.518,2.6-.367,1.38-.749,3.174-3.5,2.8-2.432-.333-.437-2.524-2.4-2.787" transform="translate(-196.049 -19.356)" fill="#e2e106"/>
        <path id="Trazado_161150" data-name="Trazado 161150" d="M515.008,162.635c-2.985,1.025-1.222-2.175-2.577-2.509a6.413,6.413,0,0,1,2.868-2.467c.556,1.123,2.8,1.131,2.263,2.749-.347,1.043.04,3.9-2.554,2.228" transform="translate(-124.45 -37.784)" fill="#dee206"/>
        <path id="Trazado_161151" data-name="Trazado 161151" d="M585.982,158.2c.115-.749.977-1.558-.178-2.206-.386-2.265,1.706-2.254,2.849-3.115.911,1.3,3.2,2.026,1.686,4.32-1.166,1.771-2.958.45-4.357,1" transform="translate(-142.273 -36.628)" fill="#e0e104"/>
        <path id="Trazado_161152" data-name="Trazado 161152" d="M639.84,235.047c-4.067,2.029-8.211,3.612-12.87,2.259,4.191-1.316,8.558-1.631,12.87-2.259" transform="translate(-152.29 -56.489)" fill="#00911b"/>
        <path id="Trazado_161153" data-name="Trazado 161153" d="M623.54,238.038c-2.109,2.6-4.664,2.941-7.569,1.5a17.167,17.167,0,0,1,7.569-1.5" transform="translate(-149.616 -57.21)" fill="#00911b"/>
        <path id="Trazado_161154" data-name="Trazado 161154" d="M777.78,232.115c-.182,2.34-1.972,1.981-3.552,2.363-1.861.45-4.285-1.387-5.6,1.3l-1.7-.711c.928-1.826,2.64-1.549,4.2-1.482,2.363.1,4.634-.06,6.651-1.467" transform="translate(-186.308 -55.781)" fill="#00911b"/>
        <path id="Trazado_161155" data-name="Trazado 161155" d="M481.568,243.035a7.327,7.327,0,0,1-7.575,3.779,30.482,30.482,0,0,1,7.575-3.779" transform="translate(-115.108 -58.42)" fill="#00911b"/>
        <path id="Trazado_161156" data-name="Trazado 161156" d="M558.6,251.91c.1,1.814-2.02,1.135-2.537,2.259l-5.078.022c1.434-1.53,3.774-.937,5.294-2.267.775.152,1.543-.773,2.321-.014" transform="translate(-133.821 -60.492)" fill="#00880d"/>
        <path id="Trazado_161157" data-name="Trazado 161157" d="M606.034,241.04c-1.652,1.984-3.623,2.678-6.057,1.509,1.864-1.127,4.006-1.132,6.057-1.509" transform="translate(-145.729 -57.938)" fill="#00911b"/>
        <path id="Trazado_161158" data-name="Trazado 161158" d="M597.036,243.042c-1.53,2.486-4,1.163-6.059,1.5a11.545,11.545,0,0,1,6.059-1.5" transform="translate(-143.541 -58.421)" fill="#00911b"/>
        <path id="Trazado_161159" data-name="Trazado 161159" d="M115.8,560.831c-.472-3.8-.964-7.6-1.4-11.406-.152-1.315.637-1.83,1.839-1.768,1.015.052,2.333.143,2.172,1.492-.465,3.919-1.153,7.81-1.754,11.713l-.853-.031" transform="translate(-27.7 -132.049)" fill="#f2e12e"/>
        <path id="Trazado_161160" data-name="Trazado 161160" d="M121.837,564.344c2.957-2.79,5.923-5.572,8.868-8.375.822-.783,1.581-.855,2.033.258.346.851,1.9,1.728.1,2.744-3.527,1.987-7.021,4.031-10.528,6.052l-.474-.679" transform="translate(-29.513 -133.919)" fill="#0e9b36"/>
        <path id="Trazado_161161" data-name="Trazado 161161" d="M126.154,581.792c1.005.949,2.038,1.872,3.008,2.857.718.729,2.119,1.359.44,2.589-1.247.914-2.312,1.545-3.437-.169-1.695-2.584-3.474-5.112-5.218-7.664-.68-1.96.093-2.175,1.483-1.1,1.338,1.037,2.474,2.33,3.723,3.486" transform="translate(-29.236 -139.303)" fill="#eee337"/>
        <path id="Trazado_161162" data-name="Trazado 161162" d="M104.353,570.569c-3.652,2.542-7.835,2.615-11.789,3.626-1.247.318-1.5-.3-1.586-1.357-.122-1.554.382-2.322,2.076-2.291,3.766.07,7.533.022,11.3.022" transform="translate(-22.009 -137.583)" fill="#0c9736"/>
        <path id="Trazado_161163" data-name="Trazado 161163" d="M104.933,563.724l-11.048-5.7c1.166-3.166,2.642-3.244,4.806-1.06,2.091,2.11,4.436,3.968,6.669,5.937l-.426.819" transform="translate(-22.72 -133.939)" fill="#112467"/>
        <path id="Trazado_161164" data-name="Trazado 161164" d="M107.481,580.293c-1.261,2.391-2.559,4.763-3.77,7.179-.664,1.325-1.458,2.077-2.84.977-1.239-.986-1.1-2.025-.03-3.148,1.279-1.347,2.439-2.806,3.651-4.218a23.81,23.81,0,0,1,1.838-1.893c.431-.3.88-.528,1.332-.094.474.454.318.864-.182,1.2" transform="translate(-24.204 -139.592)" fill="#f7e10a"/>
        <path id="Trazado_161165" data-name="Trazado 161165" d="M124.854,572.506c3.985,0,7.971-.067,11.952.05.922.027,2.806-1.067,2.546,1.394-.192,1.809-1.123,2.21-2.832,1.812-3.855-.9-7.744-1.652-11.62-2.463-.015-.264-.031-.529-.046-.793" transform="translate(-30.247 -138.016)" fill="#081553"/>
        <path id="Trazado_161166" data-name="Trazado 161166" d="M116.466,580.894c.609,3.55,1.269,7.091,1.784,10.655.113.775.886,2.085-.879,2.28-1.675.184-1.758-.846-1.746-2.1.035-3.617.012-7.234.012-10.851l.828.014" transform="translate(-28.004 -140.081)" fill="#060e57"/>
        <path id="Trazado_161167" data-name="Trazado 161167" d="M125.582,580.925c-1.621-.476-2.465-1.968-3.748-2.89-.819-.588-1.279-.566-1.458.5-1.009-1.077-2.119-2.1-2.027-4.462a21.915,21.915,0,0,1,7.233,6.85" transform="translate(-28.664 -138.436)" fill="#d8e9a0"/>
        <path id="Trazado_161168" data-name="Trazado 161168" d="M108.926,579.012c-.65-.7-.65-.7-2.988.79,1.133-2.57,3.042-4.384,6.028-6.248-.751,2.526-1.425,4.234-3.039,5.457" transform="translate(-25.649 -138.311)" fill="#dee984"/>
        <path id="Trazado_161169" data-name="Trazado 161169" d="M1.107,475.974a15.047,15.047,0,0,0,6.3,1.6,9.858,9.858,0,0,1-4.713.758,1.832,1.832,0,0,1-1.586-2.356" transform="translate(-0.161 -114.724)" fill="#008e14"/>
        <path id="Trazado_161170" data-name="Trazado 161170" d="M993.717,327.5c-.332,1.772-1.687,1.8-2.85,1.316-1.59-.668-.507-1.846-.178-2.827,1.287-.055,2.42.2,3.028,1.51" transform="translate(-240.532 -78.471)" fill="#00870c"/>
        <path id="Trazado_161171" data-name="Trazado 161171" d="M73.747,435.146c-.294,2.409-2.436,2.836-4.09,3.381C59.6,441.842,49.584,445.019,39,446.722A104.759,104.759,0,0,1,4.776,446.2a12.254,12.254,0,0,0-3.664.239q.01-7.576.022-15.151c7-.07,13.295,3.345,20.127,4.055A58.2,58.2,0,0,0,49.406,431.5c5.643-2.254,11.294-5.076,17.469-5.4,2.691-.14,1.922-3.014,3.835-3.278.711,3.223.608,3.409-3.043,5.51-.064.558.491.862.585,1.3.549,2.581,1.47,4.654,4.707,4.356.408-.038.7.635.787,1.154" transform="translate(-0.17 -101.877)" fill="#008e14"/>
        <path id="Trazado_161172" data-name="Trazado 161172" d="M518.031,270.583c2.848,3.277,6.267.767,9.112.409,15.522-1.946,30.934-4.729,46.488-6.514,6.956-.8,13.969-.5,20.9-.938,16.5-1.048,32.978-.1,49.456-.568,2.411-.068,4.831.835,7.229-.075,1.122,4.709-.467,6.216-7.171,6.746-.007,1.244,1.845,1.791,1.241,3.237-14.69-.033-29.36.462-44.006,1.616-1.246.1-2.487.26-3.731.392a2.781,2.781,0,0,1-1.648.218c-14.357.841-28.575,2.9-42.785,4.99-10.962,1.612-21.9,3.4-32.846,5.114-2.812-1.99-2.59-4.171-.117-6.78-3.661-.179-3.974-3.217-5.149-5.536.509-1.426,1.254-2.543,3.025-2.314" transform="translate(-125.076 -63.221)" fill="#00880d"/>
        <path id="Trazado_161173" data-name="Trazado 161173" d="M685.742,272.132,681.45,268.3c1.263-1.046,2.7-.788,3.868-.612,4.4.663,6.122-1.52,6.354-5.536.917-.611,1.04-4.5,3.017-.736.829,2.159-.009,5.4,3.147,6.06,2.222.463,4.617.09,7.245.09-.831,2.531-3.229,2.846-4.159,4.538-.185.411-.587.425-.945.516-2.639,1.707-.463,3.543-.151,5.335.188,1.074,1.027,2.385-.064,3.167-1.018.729-1.852-.5-2.511-1.147-2.891-2.851-5.549-2.09-8.2.325-.639.582-1.385,1.443-2.283.877-1.12-.707-.33-1.8-.143-2.734.438-2.2,3.037-4.714-.883-6.306" transform="translate(-165.531 -62.471)" fill="#fade01"/>
        <path id="Trazado_161174" data-name="Trazado 161174" d="M513.069,276.08c.487.014,1.2-.153,1.3.444.557,3.358,2.8,4.339,7.095,3.963-3.893,2.385-5,4.779-3.128,7.908l-1.416.294c-2.36-3.192-4.713-1.523-7.019.248-.969-1.784.673-3.057.438-4.459-.274-1.637-2.209-1.932-3.3-3.555,2.63-.5,5.479-.727,5.753-4.119l.277-.725" transform="translate(-123.14 -66.405)" fill="#f2de00"/>
        <path id="Trazado_161175" data-name="Trazado 161175" d="M619.909,278.809c.478-.616,1-.864,1.648-.218-.165,4.008,2.791,4.1,5.977,4.261-1.386,2.24-4.242,3.553-2.857,6.575.257.562-.731,1.493-1.017,1.047-2.012-3.136-6.278,1.266-6.5-.909a9.292,9.292,0,0,0-3.384-6.5c2.979-.651,6.39-.145,6.135-4.258" transform="translate(-149.082 -66.923)" fill="#f3df0f"/>
        <path id="Trazado_161176" data-name="Trazado 161176" d="M736.211,321.619c-1.957.907-2.08-.4-2.4-1.933a2.368,2.368,0,0,1,2.217-2.8,2.508,2.508,0,0,1,2.232,2.853c-.082,1.222.2,2.812-2.047,1.878" transform="translate(-178.243 -76.271)" fill="#f4e00a"/>
        <path id="Trazado_161177" data-name="Trazado 161177" d="M535.367,299.592c1.3-3.025,2.736-.124,3.633.235,1.864.746.409,2.416-.063,3.467-.759,1.693-2.714,1.246-4,1.126-1.818-.171-.978-2.242-1.409-3.412-.576-1.561.923-1.3,1.839-1.418a7.9,7.9,0,0,1,1.111,1.448,5.892,5.892,0,0,0-1.113-1.446" transform="translate(-129.548 -71.761)" fill="#bce297"/>
        <path id="Trazado_161178" data-name="Trazado 161178" d="M705.928,276.3l.945-.516c4.693-1.573,9.109-.522,13.43,1.423l-14.375-.907" transform="translate(-171.481 -66.151)" fill="#00911b"/>
        <path id="Trazado_161179" data-name="Trazado 161179" d="M597.41,298.279c-1.638.261-1.666-.965-1.964-2.053-.482-1.762.714-2.223,1.938-2.514,1.707-.4,2.135.842,2.262,2.148.151,1.563-.853,2.2-2.236,2.419" transform="translate(-144.601 -70.651)" fill="#f3e00d"/>
        <path id="Trazado_161180" data-name="Trazado 161180" d="M492.563,309.18c.892.711,2.922.064,2.587,1.981-.172.981-.129,2.656-2.121,2.541-1.621-.093-2.111-1.117-2.456-2.349-.483-1.728,1.146-1.541,1.989-2.173" transform="translate(-119.116 -74.408)" fill="#f7e005"/>
        <path id="Trazado_161181" data-name="Trazado 161181" d="M455.051,336.109c1.255.357,2.465.95,2.362,2.415a2.087,2.087,0,0,1-2.047,2.223A2.26,2.26,0,0,1,453,338.4c-.114-1.208.826-1.976,2.051-2.294" transform="translate(-110.003 -80.917)" fill="#f1e113"/>
        <path id="Trazado_161182" data-name="Trazado 161182" d="M855.913,294.987c2.871-.044,5.723-.338,8.123,1.988.779.755,2.636,1.24,3.427-.049,2.386-3.893,4.657-1.326,5.705.532,1.724,3.058,3.92,3.625,7.086,3.681,4.519.079,8.275,2.669,12,4.916,6.024,3.632,12.016,6.927,19.2,3.189,1.2-.625,2.189-.111,3.251.2.752.22,1.457.585,1.418,1.5s-.762,1.182-1.52,1.413c-1.205.367-3.262.088-2.87,2.041.276,1.373,2.051,1.747,3.467,1.77,2.985.049,6.422,2.026,8.3-2.493.6-1.45,2.741-1.323,4.443-.582,1.652.719,1.214,1.81,1.067,3.11-.36,3.171,1.788,4.577,4.377,5.164a42.565,42.565,0,0,0,7.448.858c1.81.082,4.15.747,5.128-1.334.864-1.839-1.86-2.376-2.253-3.93,3.3.62,6.121,2.366,9.076,3.8,1.118,3.161,3.486,2.988,6.054,2.277,3.206,1.862,7.195,1.962,10.285,4.375-.995,1.378-2.119.814-3.171.651-10.871-1.686-21.817-3-32.589-5.181-8.065-1.63-15.9-4.375-23.849-6.606-10.535-2.959-20.043-8.522-30.4-11.971-7.134-2.377-14.125-5.184-21.2-7.758a3.181,3.181,0,0,1-2.01-1.566" transform="translate(-207.936 -70.955)" fill="#009019"/>
        <path id="Trazado_161183" data-name="Trazado 161183" d="M846.05,289.285c1.5-.637,2.462-2.521,4.492-1.922,3.147.929,1.422,3.18,1.353,4.982-2.042-.26-2.211-.349-5.844-3.06" transform="translate(-205.539 -69.107)" fill="#c0d508"/>
        <path id="Trazado_161184" data-name="Trazado 161184" d="M989.732,331.291c-1.348,2.637-3.682,1.636-5.51,1.144-1.858-.5-1.174-2.13-.544-3.421l6.054,2.277" transform="translate(-238.829 -79.202)" fill="#00911b"/>
        <path id="Trazado_161185" data-name="Trazado 161185" d="M953.9,316.017c2.292.689,4.307,2.207,6.806,2.276.811,1.024,2.581.758,3.036,2.262-2.68-.178-5.014-1.739-7.766-1.831-1.2-.04-1.964-1.344-2.076-2.706" transform="translate(-231.752 -76.061)" fill="#009019"/>
        <path id="Trazado_161186" data-name="Trazado 161186" d="M489.523,114.555c4.383,1.4,5.587-1.369,7.38-4.217.685,3.134,1.7,4.879,4.79,4.683,1.769-.111.873,1.442.161,1.967-1.5,1.111-2.227,2.323-1.409,4.152a.853.853,0,0,1,.048.37c-.033.769-.581,1.989-1.088,1.307-2.126-2.855-6.657.972-6.589-.941.107-2.983-1.594-4.407-3.293-7.321" transform="translate(-118.882 -26.346)" fill="#f2e017"/>
        <path id="Trazado_161187" data-name="Trazado 161187" d="M413.16,70.024c4.692,0,9.383.015,14.074-.011,1.148-.006,2.072.136,1.652,1.613-.281.983-.142,2.365-1.986,1.948-4.588-1.037-9.2-1.958-13.806-2.925Z" transform="translate(-100.305 -16.599)" fill="#071f6e"/>
        <path id="Trazado_161188" data-name="Trazado 161188" d="M413.973,63.336l9.706-5.517c2.415,3.212-.855,5.586-2.3,5.6-2.4.026-5.011,1.465-7.4-.085" transform="translate(-100.519 -13.651)" fill="#c1f3f4"/>
        <path id="Trazado_161189" data-name="Trazado 161189" d="M413.341,77.108c1.934,1.762,3.926,3.465,5.771,5.316.693.7,1.976,1.658.6,2.776-1.032.839-2.471,1.16-3.221-.312-1.294-2.541-3.994-4.146-4.6-7.107.043-1.181.5-1.474,1.453-.673" transform="translate(-100.013 -18.205)" fill="#f2e013"/>
        <path id="Trazado_161190" data-name="Trazado 161190" d="M406.4,78.257c.615,3.7,1.251,7.4,1.827,11.111.122.789.54,1.874-.926,1.957-1.232.071-1.789-.415-1.761-1.77.079-3.767.027-7.535.027-11.3l.834,0" transform="translate(-98.47 -18.59)" fill="#09155d"/>
        <path id="Trazado_161191" data-name="Trazado 161191" d="M462.664,170.615c-.466,1.434-.927,2.257-2.711,2.533-2.2.338-1.967-1.187-2.2-2.094-.456-1.772,1.4-2.423,2.373-2.606,1.036-.195,1.975,1.144,2.54,2.168" transform="translate(-111.143 -40.387)" fill="#eee111"/>
        <path id="Trazado_161192" data-name="Trazado 161192" d="M409.341,186.656c-.535.954-.537,2.318-2.1,2.279a2.6,2.6,0,0,1-2.76-2.457,2.1,2.1,0,0,1,2.232-2c1.079.146,2.453.632,2.626,2.181" transform="translate(-98.212 -44.262)" fill="#efe214"/>
        <path id="Trazado_161193" data-name="Trazado 161193" d="M412.426,75.979l-1.452.673c-1.6-.881-2.288-2.3-2.849-4.665,2.035,1.391,3.692,2.094,4.3,3.992" transform="translate(-99.098 -17.076)" fill="#c4e180"/>
        <path id="Trazado_161194" data-name="Trazado 161194" d="M154.082,377.531c.229,3.694-2.453,5.554-4.869,7.456a186.236,186.236,0,0,1-39.836,24.178c-2.407,1.066-4.82,2.123-7.262,3.108-3.586,1.446-5.371-.789-6.889-3.493a9.116,9.116,0,0,1,4.7-2.18c6.828-1.187,12.113-5.369,17.737-8.884,1.929-1.206,1.107-1.87-.691-2-.033-.268.033-.678.179-.673,1.953.064,2.907-1.639,4.369-2.427.98,2.066,2,1.119,3.191.14,6.114-5.04,11.837-10.43,15.808-17.41.527-.926,1.855-1.73,1.169-2.967-.759-1.371-2.341-.966-3.427-.7-9.294,2.314-18.745,1.286-28.128,1.347a44.6,44.6,0,0,1-11.22-1.724,129.833,129.833,0,0,0,44.647-3.5c-.115,2.242,1.271,2.546,2.951,2.11,2.287-.594,4.527-1.363,6.782-2.077.907-.287,1.895-1.234,2.708-.144a4.056,4.056,0,0,1,.223,3.641c-.383,1.263-1.526.988-2.547.783a3.174,3.174,0,0,0-1.06.161c-.691.485-1.16.067-1.6-.375-1.344.206-.736,1.245-.817,1.978.279,2.312,2.561,2.473,3.889,3.649" transform="translate(-23.045 -88.428)" fill="#00911b"/>
        <path id="Trazado_161195" data-name="Trazado 161195" d="M153.6,355.959c1.076,1.178,2.336,2.216,2.861,3.81l-.123.084c-2.625,1.122-5.45,1.542-8.179,2.3a3.845,3.845,0,0,1-3.819-.851c-8.233.94-16.478,2.112-24.772,1.451-9.192-.732-18.462-1.146-27.294-4.436,3.767.545,7.535,1.073,11.3,1.637a133.5,133.5,0,0,0,42.364-.309,15.868,15.868,0,0,0,7.664-3.682" transform="translate(-22.327 -85.715)" fill="#00870c"/>
        <path id="Trazado_161196" data-name="Trazado 161196" d="M94.047,435.133c-1.548-1.231-3.013-1.422-4.634.015-.737.654-2.453.779-1.718-.714,1.655-3.36-.357-4.964-3.063-7.031,3.347-.457,6.713-.344,6.379-4.591l1.554-.042c.126,3.736,2.537,4.613,5.68,4.325.409,1.482-1.127,1.659-1.288,2.6l.051-.03c-2.619.659-1.517,2.431-1.025,3.838.867,2.48-.667,1.839-1.935,1.633" transform="translate(-20.47 -101.864)" fill="#eddd01"/>
        <path id="Trazado_161197" data-name="Trazado 161197" d="M21.24,365.034c4.211.287,6.7-.638,7.105-5.469,1.674,3.764,3.111,6.411,7.112,5.623-2.588,2.277-4.063,4.657-2.4,8.283-2.971-2.434-5.716-2.507-8.607.047,1.448-3.534.431-6.069-3.212-8.484" transform="translate(-5.063 -86.587)" fill="#eede01"/>
        <path id="Trazado_161198" data-name="Trazado 161198" d="M161.055,362.49c4.091.272,7.848-2.233,12-1.445-3.426,3.044-7.686,3.834-12.006,4.461q0-1.508.007-3.016" transform="translate(-39.044 -86.907)" fill="#00911b"/>
        <path id="Trazado_161199" data-name="Trazado 161199" d="M127.983,399.938c-.551,2.456-2.683,2.583-4.55,3.1-2-1.406-2.158-2.936-.293-4.584,2.409-2.129,3.664-.438,4.843,1.482" transform="translate(-29.513 -95.748)" fill="#d0db07"/>
        <path id="Trazado_161200" data-name="Trazado 161200" d="M83.281,370.886c-2.9,1.427-2.221-1.778-2.359-2.336-.336-1.352,1.518-2.126,2.492-2.213.707-.063,2.8.982,2.386,2.013-.346.857.406,4.019-2.518,2.536" transform="translate(-19.559 -88.223)" fill="#eae404"/>
        <path id="Trazado_161201" data-name="Trazado 161201" d="M100.776,425.332c14.992-4.81,28.767-12.128,42.025-20.594-2.583,4.918-7.356,7.316-11.49,10.351-7.981,5.86-17.062,9.773-25.906,14.083-1.288.629-2.985,1.906-4.079.736a4.132,4.132,0,0,1-.5-4.606l-.052.03" transform="translate(-24.291 -97.506)" fill="#00911b"/>
        <path id="Trazado_161202" data-name="Trazado 161202" d="M168.441,373.172l1.473.555c2.553,1.171.632,3.6,1.47,5.252-2.512-.346-5.956.355-4.708-4.209a10.3,10.3,0,0,1,1.765-1.6" transform="translate(-40.348 -89.876)" fill="#dbdd06"/>
        <path id="Trazado_161203" data-name="Trazado 161203" d="M468.286,260.555c-.478,2.625-.908,5.3-4.665,4.559-.327-1.53-1.81-2.752-.475-4.682,1.979-2.863,3.446.2,5.14.124" transform="translate(-112.338 -62.329)" fill="#c7d808"/>
        <path id="Trazado_161204" data-name="Trazado 161204" d="M443,292.8c-.45,3.148-1.539,5.369-5.321,3.672-.421-1.89-.6-3.5,1.634-4.674,1.818-.954,2.071,2.268,3.687,1" transform="translate(-106.218 -70.164)" fill="#c5d106"/>
        <path id="Trazado_161205" data-name="Trazado 161205" d="M318.988,323.085c2.146-7.469,4.8-14.833,4.632-22.775,2.082-.444,3.125,1.326,4.559,2.2,5.395,3.3,11.151,2.48,13.989-2.085,2.332-3.753,1.776-6.606-2.033-8.825a66.874,66.874,0,0,1-16.762-13.918c-1.83-2.1-4.663-4.061-3.6-7.662,8.767,7.081,18.868,11.959,28.662,17.331,2.152,1.181,3.17,2.627,3.147,5.062-.062,6.337-.464,12.485-4.536,17.876-2.593,3.433-6.214,5.1-9.905,6.534-5.959,2.323-12.094,4.2-18.155,6.259" transform="translate(-77.432 -64.943)" fill="#cc7555"/>
        <path id="Trazado_161206" data-name="Trazado 161206" d="M319.059,268.575c2.258,5.717,6.75,9.59,11.151,13.535a57.227,57.227,0,0,0,12.082,8.31,3.192,3.192,0,0,1,1.785,3.044,10.07,10.07,0,0,1-4.9,9.628c-3.767,2.314-7.82,1.316-11.508-.563-1.755-.895-3.189-2.424-4.767-3.666-.047-.227-.1-.453-.164-.676a249.61,249.61,0,0,0-6.7-34.158c1.96.88,1.69,3.245,3.018,4.547" transform="translate(-76.716 -63.494)" fill="#e29a78"/>
        <path id="Trazado_161207" data-name="Trazado 161207" d="M907.916,202.108c-4.066,6.161-10.431,8.52-17.149,9.821-16.837,3.261-32.427-.933-47.253-8.749-7.2-3.8-13.592-8.65-17.96-15.733-3.274-5.306-4.489-10.9-2.08-16.925a3.455,3.455,0,0,1,1.5-2.091c2.806-1.953,5.664-.13,8.443.068a45.4,45.4,0,0,1,8.546,1.405c1.667.715,3.506.817,5.2,1.424,3.612,1.208,7.376,1.91,10.955,3.232,1.2.427,2.379.892,3.566,1.347,1.368.369,2.628,1.019,3.948,1.518,3.81,1.275,7.446,2.974,11.118,4.582a6.42,6.42,0,0,1,.911.442,45.509,45.509,0,0,0,4.368,2.248c.881.453,1.762.908,2.665,1.319,2.018.946,3.877,2.179,5.842,3.222,4.81,2.863,9.551,5.832,14.09,9.106,1.348.973,3.138,1.685,3.287,3.763" transform="translate(-199.744 -40.171)" fill="#001b71"/>
        <path id="Trazado_161208" data-name="Trazado 161208" d="M829.961,161.1c4.847-5.5,11.531-7.327,18.268-7.878,22.515-1.843,42.36,4.588,58.509,20.816,4.179,4.2,6.735,9.435,6.487,15.66A8.025,8.025,0,0,1,912,194.376c-1.816.316-3.026-.917-4.33-1.789-4.225-2.826-8.457-5.638-12.879-8.148-.766-.381-1.5-.815-2.259-1.219a17.486,17.486,0,0,0-2.228-1.213c-5.5-3.929-11.861-6.006-18.055-8.444a18.491,18.491,0,0,0-3.318-1.425c-1.49-.509-2.976-1.029-4.433-1.633a29.494,29.494,0,0,0-3.522-1.269c-3.594-1.048-7.153-2.209-10.761-3.208a20.236,20.236,0,0,0-5.127-1.178c-4.514-.637-8.827-2.311-13.42-2.54a1.83,1.83,0,0,1-1.709-1.213" transform="translate(-201.628 -36.637)" fill="#001b71"/>
        <path id="Trazado_161209" data-name="Trazado 161209" d="M914.893,193.208a123.406,123.406,0,0,1,17.015,10.91,4.253,4.253,0,0,1-2.2,4.2L911.849,196.13c-.07-2.107,1.228-2.786,3.044-2.922" transform="translate(-221.531 -46.376)" fill="#bbd2c5"/>
        <path id="Trazado_161210" data-name="Trazado 161210" d="M828.964,163.707a105.511,105.511,0,0,1,15.868,2.719c1.874,2.516,1.541,3.26-1.7,3.785l-17.276-2.706a4.847,4.847,0,0,1,3.1-3.8" transform="translate(-200.631 -39.246)" fill="#d2e2dd"/>
        <path id="Trazado_161211" data-name="Trazado 161211" d="M634.883,246.57c1.195.19,2.192.08,2.242-1.475,1.254.927,3.533.806,3.308,3.245-.185,2.017-1.094,3.2-3.309,2.873-1.013.51-1.761.217-1.839-.905a11.117,11.117,0,0,0-.831-2.816l.429-.922" transform="translate(-154.109 -58.918)" fill="#bfd607"/>
        <path id="Trazado_161212" data-name="Trazado 161212" d="M634.421,248.256c1.827.566.4,3.471,2.67,3.721-.475,1.592-1.431,1.481-1.923.225a6.468,6.468,0,0,1-.746-3.946" transform="translate(-154.076 -59.682)" fill="#00880d"/>
        <path id="Trazado_161213" data-name="Trazado 161213" d="M40.243,446.985c-3.561,1.639-1.593-1.779-2.292-2.588-.945-1.094,2.081-1.163,2.315-2.646l3.2,2.357c-1.381.7.006,4.657-3.223,2.877" transform="translate(-9.08 -106.452)" fill="#c7d806"/>
        <path id="Trazado_161214" data-name="Trazado 161214" d="M535.959,300.027a14.739,14.739,0,0,1,1.765.484,1.769,1.769,0,0,1,1.132,2.373,1.284,1.284,0,0,1-1.374.974c-1.27-.041-1.636-.9-1.646-2-.005-.612.08-1.224.124-1.837l0,0" transform="translate(-130.139 -72.195)" fill="#f6df05"/>
        <path id="Trazado_161215" data-name="Trazado 161215" d="M168.488,372.741c-.237.921-.469,1.849-1.764,1.6-.569-2.054.986-2.583,2.368-2.947.253-.067-.628.776-.6,1.348" transform="translate(-40.394 -89.445)" fill="#00870c"/>
        <path id="Trazado_161216" data-name="Trazado 161216" d="M906.886,189.694l-3.044,2.922-6.038-3.128c.181-2.157-1.3-1.388-2.366-1.348a14.347,14.347,0,0,1-4.5-2.333c.222-.24.428-.494.64-.744-.229.239-.385.532-.593.786l-12.069-4.782a1.189,1.189,0,0,1,.775-1.233c1.465-.567,3.194-.1,4.531-1.165,2.507,1.069,4.991,2.2,7.535,3.174.862.329,1.806,1.572,2.858.075.4-.567,1.469-.412,1.56.151.637,3.947,4.554,3.615,6.815,5.411-.382,2.019.621,1.467,1.639.886l2.257,1.327" transform="translate(-213.525 -42.862)" fill="#dbe9e8"/>
        <path id="Trazado_161217" data-name="Trazado 161217" d="M856.352,169.025c3.891.62,7.528,2.125,11.269,3.265a3.443,3.443,0,0,1-1.456,3.741L854.9,172.672c-.479-1.6-1.034-3.232,1.453-3.647" transform="translate(-207.589 -40.531)" fill="#dae5e7"/>
        <path id="Trazado_161218" data-name="Trazado 161218" d="M878.252,179.591l-.731.594-3.745-1.566c-1.062-1.864-.86-3.194,1.518-3.6l4.448,1.58c1.26,1.875-.577,2.205-1.49,3" transform="translate(-212.129 -41.979)" fill="#f1f5f6"/>
        <path id="Trazado_161219" data-name="Trazado 161219" d="M854.941,168.606c-1.317.883-.514,2.613-1.453,3.647a12.194,12.194,0,0,1-4.806-1.176c2.134-.557,2.736-1.8,1.7-3.785a9.276,9.276,0,0,1,4.563,1.313" transform="translate(-206.179 -40.112)" fill="#9ebbb0"/>
        <path id="Trazado_161220" data-name="Trazado 161220" d="M874.482,174.608a3.493,3.493,0,0,0-1.518,3.6,5.447,5.447,0,0,1-3.072-1.138c-.328-1.564.569-2.651,1.455-3.741a6.046,6.046,0,0,1,3.135,1.276" transform="translate(-211.317 -41.572)" fill="#a4c2b3"/>
        <path id="Trazado_161221" data-name="Trazado 161221" d="M900.747,190.4c.61-.72-.317-2.422,1.51-2.364.88.028,1.816.109,2.218.993.625,1.376-.88,1.818-1.362,2.719a3.366,3.366,0,0,1-2.366-1.348" transform="translate(-218.833 -45.127)" fill="#9bbba1"/>
        <path id="Trazado_161222" data-name="Trazado 161222" d="M833.768,173.412c-.743-.064-1.582-.089-1.653-1.056-.054-.729.511-1.071,1.2-1.023a1.418,1.418,0,0,1,1.471,1.316c.059.673-.565.658-1.022.762" transform="translate(-202.151 -41.088)" fill="#8393bb"/>
        <path id="Trazado_161223" data-name="Trazado 161223" d="M878.388,204.287a1.576,1.576,0,0,1,1.53,1.175c.144.482-.258.911-.847.88-.7-.037-1.528.032-1.758-.877-.191-.752.3-1.079,1.076-1.178" transform="translate(-213.127 -49.054)" fill="#8f9ccb"/>
        <path id="Trazado_161224" data-name="Trazado 161224" d="M838.04,188.5c-.37.862-1,.768-1.609.582-.652-.2-1.182-.676-.959-1.371s.994-.724,1.554-.494c.531.219,1.13.577,1.014,1.282" transform="translate(-202.955 -44.898)" fill="#8795c3"/>
        <path id="Trazado_161225" data-name="Trazado 161225" d="M849.825,194.574a.9.9,0,0,1-1.121.706c-.668-.078-1.3-.431-1.335-1.1-.045-.787.63-1.04,1.3-.868a1.321,1.321,0,0,1,1.153,1.259" transform="translate(-205.859 -46.39)" fill="#6e7db3"/>
        <path id="Trazado_161226" data-name="Trazado 161226" d="M879.886,180.094c.366-1.064,1.631-1.679,1.49-3a4.924,4.924,0,0,1,3.084,1.191c.064,4.643-3.325.5-4.574,1.8" transform="translate(-213.763 -42.482)" fill="#9db7ac"/>
        <path id="Trazado_161227" data-name="Trazado 161227" d="M911.517,191.175c-1.054,2.86-1.054,2.86-4.268.8.353-1.384,1.866-.946,2.629-1.686l1.64.886" transform="translate(-220.414 -45.671)" fill="#98b6a2"/>
        <path id="Trazado_161228" data-name="Trazado 161228" d="M836.96,167.369c.077-1.465.959-1.319,1.673-1.233.989.118,2.13.219,1.951,1.7-.083.689-.751.855-1.005.371-.611-1.163-2.334.556-2.619-.834" transform="translate(-203.329 -39.821)" fill="#8aad8c"/>
        <path id="Trazado_161229" data-name="Trazado 161229" d="M833.2,167.026c-.864-1.629-2.442.3-3.172-.723-.344-.483.279-1.147,1-1.2,1.167-.078,2.181.146,2.176,1.918" transform="translate(-201.62 -39.581)" fill="#91af92"/>
        <path id="Trazado_161230" data-name="Trazado 161230" d="M894.8,187.387c.046-.867-.859-2.15.872-2.306.977-.088,2.3-.191,2.479,1.086.185,1.3-1.073,1.034-1.892,1.1-.5.041-1,.052-1.5.077l.046.042" transform="translate(-217.34 -44.401)" fill="#8faf90"/>
        <path id="Trazado_161231" data-name="Trazado 161231" d="M891.594,183.139c-.381.518-.95,1.371-1.334.842-.7-.957-2.415.03-2.518-1.46-.042-.618.931-1.263,1.246-.931.748.784,2.293.179,2.606,1.549" transform="translate(-215.672 -43.546)" fill="#82a883"/>
        <path id="Trazado_161232" data-name="Trazado 161232" d="M862.466,172.149c-1.54,1.549-2.764,1.451-4.075-.956l4.075.956" transform="translate(-208.538 -41.055)" fill="#639966"/>
        <path id="Trazado_161233" data-name="Trazado 161233" d="M467.373,514.074h22.909c-.57,5.376-.571,5.376-5.512,4.334q-8.753-1.848-17.5-3.7c.036-.212.072-.422.107-.634" transform="translate(-113.473 -123.933)" fill="#081553"/>
        <path id="Trazado_161234" data-name="Trazado 161234" d="M448.042,522.159c-2.3,4.174-4.643,8.324-6.875,12.534-.8,1.509-1.423,2.728-3.315,1.241-1.524-1.2-2.75-2.254-.977-4.243,3.262-3.659,6.431-7.4,9.638-11.107.416-.431.938-.992,1.5-.573.793.6.664,1.419.033,2.147" transform="translate(-105.873 -125.333)" fill="#0e9b36"/>
        <path id="Trazado_161235" data-name="Trazado 161235" d="M466.016,503.2c4.422-4.17,8.854-8.328,13.257-12.519.8-.759,1.539-1.062,1.964.182.455,1.334,3.135,2.646.978,4.034-5.075,3.263-10.439,6.075-15.686,9.069l-.512-.767" transform="translate(-113.169 -118.121)" fill="#0e9b36"/>
        <path id="Trazado_161236" data-name="Trazado 161236" d="M443.788,512.939c-5.991,1.175-11.991,2.314-17.971,3.547-1.895.391-2.2-.56-2.023-2.04.159-1.294-.761-3.09,1.983-3,5.979.187,11.967.058,17.952.058q.028.72.058,1.44" transform="translate(-102.896 -123.296)" fill="#f9df03"/>
        <path id="Trazado_161237" data-name="Trazado 161237" d="M464.676,519.912c4.313,4.011,8.656,7.992,12.921,12.053,1.135,1.081.026,1.768-.774,2.348-1.123.816-2.571,1.893-3.613.415-3.251-4.614-6.258-9.4-9.359-14.12l.825-.7" transform="translate(-112.643 -125.345)" fill="#081553"/>
        <path id="Trazado_161238" data-name="Trazado 161238" d="M458.021,498.814c-.422-5.818-.883-11.633-1.244-17.454-.122-1.956,1.384-1.7,2.637-1.634,1.568.079,2.633.473,2.286,2.492-.952,5.541-1.767,11.105-2.637,16.66l-1.042-.064" transform="translate(-110.922 -115.62)" fill="#f9df03"/>
        <path id="Trazado_161239" data-name="Trazado 161239" d="M444.027,502.44l-16.607-8.556c3.2-4.387,3.211-4.4,7.075-1.075,3.407,2.931,6.782,5.9,10.172,8.849l-.64.782" transform="translate(-103.788 -118.221)" fill="#081553"/>
        <path id="Trazado_161240" data-name="Trazado 161240" d="M458.851,523.205q1.527,9.172,3.053,18.344c.223,1.341-.33,1.736-1.668,1.646-1.576-.105-2.5-.374-2.459-2.349.13-5.843.046-11.691.046-17.537l1.029-.1" transform="translate(-111.166 -126.14)" fill="#f9df03"/>
        <path id="Trazado_161241" data-name="Trazado 161241" d="M451.418,520.929c.01-1.031.248-2.283-1.529-1.575.7-1.984,2.135-3.257,4.242-4.581.227,2.931-1.4,4.475-2.713,6.156" transform="translate(-109.249 -124.102)" fill="#f9df03"/>
      </g>
    </g>
  </g>
</svg>
