<svg xmlns="http://www.w3.org/2000/svg" xmlns:xlink="http://www.w3.org/1999/xlink" width="190" height="163" viewBox="0 0 190 163">
  <defs>
    <clipPath id="clip-path">
      <rect id="Rect치ngulo_42771" data-name="Rect치ngulo 42771" width="135.212" height="108.408" fill="none"/>
    </clipPath>
  </defs>
  <g id="Grupo_169837" data-name="Grupo 169837" transform="translate(-3860 10635)">
    <rect id="Rect치ngulo_42583" data-name="Rect치ngulo 42583" width="190" height="163" rx="18" transform="translate(3860 -10635)" fill="#ffbfc1"/>
    <g id="Grupo_169836" data-name="Grupo 169836" transform="translate(3887.638 -10607.479)">
      <g id="Grupo_169835" data-name="Grupo 169835" clip-path="url(#clip-path)">
        <path id="Trazado_162822" data-name="Trazado 162822" d="M135.212,94.161a3.1,3.1,0,0,1-2.081,1.335c-1.236.264-1.761-.514-2.111-1.486a4.982,4.982,0,0,1-.143-1.7c0-2.725.027-5.45-.011-8.175a7.544,7.544,0,0,0-3.725-6.706,19.04,19.04,0,0,0-12.26-3.212,15.238,15.238,0,0,0-5.149,1.556,21.018,21.018,0,0,1-15.269,1.336A40.442,40.442,0,0,1,90.2,75.364a15.362,15.362,0,0,0-12.79.215,21.205,21.205,0,0,1-19.656-.064c-2.74-1.379-5.672-1.414-8.632-1.289A20.26,20.26,0,0,0,43.134,76.2a19.762,19.762,0,0,1-17-.153c-6.684-3.2-12.8-2.136-18.673,1.864a6.893,6.893,0,0,0-3.08,5.843c-.079,4.4-.151,8.8.01,13.2a14.083,14.083,0,0,0,14.083,13.46q18.28.013,36.561-.012,30.688-.009,61.375,0c5.888,0,10.13-2.72,12.951-7.8a6.659,6.659,0,0,1,.757-1.235,1.842,1.842,0,0,1,2.661-.367c1.25,1.059,1.432,1.666.732,3.068-3.352,6.714-8.757,10.57-16.282,10.668-14.342.185-28.689.064-43.033.066q-27.722,0-55.443-.006A18.371,18.371,0,0,1,.417,100.163,17.034,17.034,0,0,1,0,96.369c.012-4.091-.024-8.184.012-12.275A11.737,11.737,0,0,1,6.55,73.3c4.309-2.393,8.782-3.99,13.821-3.452A20.2,20.2,0,0,1,27.3,71.824c5.539,2.76,10.942,2.256,16.283-.57a1.147,1.147,0,0,0,.607-.776,23.428,23.428,0,0,1,4-7.656.793.793,0,0,0,.029-1.129c-5.286-7.842-6.781-16.643-6.445-25.878a7.59,7.59,0,1,1,15.153.864,30.781,30.781,0,0,0,2.2,13.541,17.816,17.816,0,0,0,1,2c1.217,2.081,1.606,2.206,3.882,1.549.879-.254.421-.887.373-1.289a27.9,27.9,0,0,1,.853-10.714A27.026,27.026,0,0,1,92.878,22.206a31.934,31.934,0,0,1,29,25.141,27.516,27.516,0,0,1-4.042,21.42c-.169.255-.32.522-.472.788-.015.026.02.078.065.231,3.986-.027,7.516,1.56,10.992,3.387A11.857,11.857,0,0,1,135,81.725c.021.107.142.194.216.29Z" transform="translate(0 -6.417)"/>
        <path id="Trazado_162823" data-name="Trazado 162823" d="M68.535,94.866a15.478,15.478,0,0,1,9.1,1.438,20.436,20.436,0,0,0,18.772.025A15.5,15.5,0,0,1,110.4,96.3a20.71,20.71,0,0,0,18.9,0,15.654,15.654,0,0,1,14.114.087q1.484.707,2.933,1.49a7.787,7.787,0,0,1,4.327,7.3c.01,2.86.051,5.721-.018,8.579a2.387,2.387,0,0,0,1.9,2.735,37.154,37.154,0,0,1-.352,5.49,2.082,2.082,0,0,0-2.792,1.248c-2.863,5.848-7.579,8.615-14.065,8.605q-29.836-.044-59.672-.013c-.439,0-.877-.034-1.316-.053a2.854,2.854,0,0,1-1.327-1.412,46.233,46.233,0,0,1-4.6-12.867,70.15,70.15,0,0,1-1.291-17.7,26.8,26.8,0,0,1,.475-3.791c.1-.558.278-1.018.914-1.124" transform="translate(-19.425 -27.406)" fill="#a2ddfd"/>
        <path id="Trazado_162824" data-name="Trazado 162824" d="M8.364,60.808A10.294,10.294,0,0,1,18.687,50.781c10.439.073,17.01,6.329,19.1,16.042a3.864,3.864,0,0,1-1.358,4.03,3.746,3.746,0,0,1-4.191.636c-2.416-1.176-4.93-1.106-7.482-.868a60.82,60.82,0,0,1-6.171.492,10.144,10.144,0,0,1-10.227-10.3" transform="translate(-2.421 -14.705)"/>
        <path id="Trazado_162825" data-name="Trazado 162825" d="M18.828,11.418c-1.91-.541-2.372-1.269-1.954-3.168A9.7,9.7,0,0,1,23.8.511,9.853,9.853,0,0,1,34.135,3.055c7.477,7.424,7.563,16.832,2.042,25.065-1.67,2.491-5.638,2.337-6.77-.4-1.485-3.59-4.3-5.8-7.13-8.09-1.451-1.174-1.607-1.7-.97-3.246a1.788,1.788,0,0,1,2.879-.6c3.147,2.258,6.247,4.6,8.147,8.12.177.33.218.889.683.872.418-.016.537-.531.723-.867a14.2,14.2,0,0,0-2.472-17.67,6.021,6.021,0,0,0-6.189-1.634,5.657,5.657,0,0,0-4,4.647c-.361,1.7-.828,2.121-2.248,2.163" transform="translate(-4.845 0)"/>
        <path id="Trazado_162826" data-name="Trazado 162826" d="M19.682,13.038a2.557,2.557,0,0,0,1.94-2.345A5.709,5.709,0,0,1,25.68,5.946a6.18,6.18,0,0,1,6.373,1.378c5.812,5.287,6.535,13.644,1.647,20.158a15.35,15.35,0,0,0-3.581-5.471A61.014,61.014,0,0,0,25.3,17.921C24.1,16.954,23.416,17,22.16,18c-1.088-1.525-2.4-2.938-2.478-4.967" transform="translate(-5.699 -1.62)" fill="#7acdf9"/>
        <path id="Trazado_162827" data-name="Trazado 162827" d="M50.728,94.883c-.637.34-.466.973-.556,1.515a56.512,56.512,0,0,0-.26,13.363,58.149,58.149,0,0,0,2.413,12.722,33.332,33.332,0,0,0,4.228,9.3c-3.826.018-7.652.048-11.478.052q-12.143.013-24.286,0c-9.044-.013-15.2-6.2-15.2-15.269q0-5.676,0-11.351A7.944,7.944,0,0,1,10,97.819c3.668-2.047,7.458-3.536,11.785-3.009a15.287,15.287,0,0,1,5.045,1.418A20.41,20.41,0,0,0,46.074,96.2a12.581,12.581,0,0,1,4.654-1.317" transform="translate(-1.618 -27.423)" fill="#7acdf9"/>
        <path id="Trazado_162828" data-name="Trazado 162828" d="M113.448,35.787c7.181,5.008,14.066,10.371,19.891,16.959A145.329,145.329,0,0,1,145.58,68.567a1.644,1.644,0,0,1-.023,2.06c-2.038,3.571-5.5,4.93-9.12,6.1-.161-1.351.236-2.742-.355-4.07a4.478,4.478,0,0,1-.661-1.946,2.483,2.483,0,0,1,.642-1.13,4.655,4.655,0,0,0-6.6-6.464,1.775,1.775,0,0,0-.649,2.309c.451.807,1.251.992,2.285.487.674-.33,1.316-.8,2.041-.114.705.666.624,1.326-.3,2.375-.6.4-1.189.107-1.77-.029a4.2,4.2,0,0,0-4.632,1.318,4.578,4.578,0,0,0-.4,4.96c.259.6.635,1.152.858,1.769.091.253.281.642-.3.581a9.509,9.509,0,0,1-1.475-.5,22.148,22.148,0,0,0-13.179-2.419c-.654.085-.789-.47-1-.865A28.864,28.864,0,0,1,107.52,61.3a38.155,38.155,0,0,1-.247-4.339,5.762,5.762,0,0,1,.439-2.312c.256-.4.7-.484,1.1-.646a4.294,4.294,0,0,0,2.718-5.484,3.426,3.426,0,0,1-.291-1.4,1.577,1.577,0,0,1,.782-.85,1.453,1.453,0,0,1,1.716.152,1.286,1.286,0,0,1,.369,1.546c-.09.247-.233.471-.327.716-.324.851-.364,1.669.541,2.182a1.606,1.606,0,0,0,2.187-.6,4.334,4.334,0,0,0,.676-4.68,4.458,4.458,0,0,0-3.789-2.843c-.878-.106-1.74.17-2.615.081-.524-.242-.52-.7-.374-1.125a29.5,29.5,0,0,1,2.4-5.559c.133-.224.31-.437.633-.356" transform="translate(-31.06 -10.358)" fill="#fed3bd"/>
        <path id="Trazado_162829" data-name="Trazado 162829" d="M119.1,28.735a24.323,24.323,0,0,1,15.88.767,27.645,27.645,0,0,1,17.851,26.017,21.441,21.441,0,0,1-1.4,7.472c-2.224-3.215-4.535-6.191-6.817-9.189-7.219-9.487-16.186-17.054-25.906-23.809a.883.883,0,0,1-.157-.2c-.2-.552.283-.75.553-1.059" transform="translate(-34.315 -8.034)" fill="#8daee1"/>
        <path id="Trazado_162830" data-name="Trazado 162830" d="M94.107,86.685a15.439,15.439,0,0,1-12.874.159C77.186,85,73.1,83.8,68.439,84.417a19.037,19.037,0,0,1,5.575-7.7A19.4,19.4,0,0,1,84.22,72.185c.515-.067.97-.2,1.207.567a31.632,31.632,0,0,0,8.506,13.581,1.6,1.6,0,0,1,.175.352" transform="translate(-19.818 -20.887)" fill="#fed3bd"/>
        <path id="Trazado_162831" data-name="Trazado 162831" d="M76.084,59.738a24.916,24.916,0,0,0-5.545,3.469c-.669.581-.795-.048-1.024-.4a32.814,32.814,0,0,1-4.4-11.464,45.831,45.831,0,0,1-.8-10.614c.085-2.444,1.617-4.111,3.74-4.035,2.17.077,3.595,1.761,3.522,4.225a33.984,33.984,0,0,0,3.011,16.129c.437.9.974,1.761,1.495,2.7" transform="translate(-18.615 -10.623)" fill="#febe9d"/>
        <path id="Trazado_162832" data-name="Trazado 162832" d="M104.657,58.75a31.109,31.109,0,0,0,3.308,18.227,2.4,2.4,0,0,0,.709,1.082c-1.582.769-2.776.37-4.032-.892C97.39,69.873,94.52,61.3,96.744,51.149a5.67,5.67,0,0,1,.329-.84c.65.19.49.756.518,1.195a7.038,7.038,0,0,0,5.612,6.721c.5.124,1.062.1,1.455.525" transform="translate(-27.801 -14.568)" fill="#febe9d"/>
        <path id="Trazado_162833" data-name="Trazado 162833" d="M105.092,57.294a7.37,7.37,0,0,1-7.4-7.43c-.007-.345.072-.709-.184-1.01A5.372,5.372,0,0,1,98.219,47a5.712,5.712,0,0,1,6.8-1.065,2.263,2.263,0,0,1,1.211.97c-.3,1.81.866,2.5,2.3,2.99,1.771,3.613.326,6.727-3.431,7.4" transform="translate(-28.235 -13.112)" fill="#eca0aa"/>
        <path id="Trazado_162834" data-name="Trazado 162834" d="M142.921,83.623c.252,1.095.941,2.018,1.11,3.173a6.173,6.173,0,0,1-.313,2.9,14.414,14.414,0,0,1-9.848.047c.123-.877-.59-1.423-.855-2.149a5.574,5.574,0,0,1-.527-3.15c.691-3.143,2.966-4.478,6.147-3.634.449.119.873.438,1.37.17a.773.773,0,0,1,.178.6c.07,1.429.542,1.886,1.989,1.937.254.009.519-.063.749.112" transform="translate(-38.343 -23.328)" fill="#eca0aa"/>
        <path id="Trazado_162835" data-name="Trazado 162835" d="M106.389,43.361c-2.65-1.914-4.919-1.84-7.5.242-.315.254-.328-.024-.377-.226a21.594,21.594,0,0,1,8.465-10.386.862.862,0,0,1,1.16-.018c.909.671,1.851,1.3,2.778,1.941a31.1,31.1,0,0,0-2.813,6.192.527.527,0,0,0,.2.69c-.347.877-1.159,1.186-1.913,1.564" transform="translate(-28.526 -9.486)" fill="#febe9d"/>
        <path id="Trazado_162836" data-name="Trazado 162836" d="M118.838,29.138c0,.451-.408.685-.553,1.059-.28-.164-.818-.3-.665-.619.19-.39.749-.445,1.218-.439" transform="translate(-34.052 -8.437)" fill="#658cc6"/>
        <path id="Trazado_162837" data-name="Trazado 162837" d="M144.12,122a21.706,21.706,0,0,1,8.5,2.047c1.715.821,1.974,2.633.547,3.521a2.61,2.61,0,0,1-2.629-.092A14.752,14.752,0,0,0,143.816,126a16.352,16.352,0,0,0-6.846,1.551c-1.9.9-3.284.011-3.166-1.9a1.613,1.613,0,0,1,.983-1.439A22.124,22.124,0,0,1,144.12,122" transform="translate(-38.744 -35.328)" fill="#7acdf9"/>
        <path id="Trazado_162838" data-name="Trazado 162838" d="M91.114,121.136a18.962,18.962,0,0,1-8.73-1.876,2.18,2.18,0,0,1-1.185-2.931c.458-1.007,1.551-1.28,2.823-.693a16.12,16.12,0,0,0,13.954.064c1.4-.629,2.466-.427,2.95.614a2.228,2.228,0,0,1-1.268,3.019,23.791,23.791,0,0,1-4.991,1.557,15.549,15.549,0,0,1-3.552.247" transform="translate(-23.455 -33.396)" fill="#7acdf9"/>
        <path id="Trazado_162839" data-name="Trazado 162839" d="M35.385,69.451c-3.787-1.875-7.759-1.328-11.723-.926-1.047.107-2.1.212-3.15.233A6.177,6.177,0,0,1,13.935,62.7a6.3,6.3,0,0,1,6.252-6.336c7.823-.06,13.487,4.169,15.284,12.749.016.075-.04.163-.087.341" transform="translate(-4.035 -16.32)" fill="#a2ddfd"/>
        <path id="Trazado_162840" data-name="Trazado 162840" d="M39.283,119.42a18.2,18.2,0,0,1,8.325,1.8c1.406.618,1.976,1.68,1.517,2.753-.529,1.235-1.742,1.554-3.223.875a16.31,16.31,0,0,0-13.852.026c-1.444.624-2.5.3-2.994-.857-.461-1.079,0-2.03,1.406-2.7a18.255,18.255,0,0,1,8.821-1.893" transform="translate(-8.364 -34.575)" fill="#a2ddfd"/>
        <path id="Trazado_162841" data-name="Trazado 162841" d="M144.168,81.244a2.1,2.1,0,0,1-2.5-.274,2.052,2.052,0,0,1-.412-2.372c.536-.566,1.047-1.185.374-1.931-.629-.7-1.229-.235-1.85.161a1.911,1.911,0,0,1-2.679-.443,2.021,2.021,0,0,1,.357-2.721,5.047,5.047,0,0,1,7.487,6.689c-.233.315-.514.595-.773.891" transform="translate(-39.59 -20.949)" fill="#010000"/>
        <path id="Trazado_162842" data-name="Trazado 162842" d="M109.545,46.938a7.534,7.534,0,0,1,1.913-1.564c3.556-.892,6.272.508,6.979,3.641a4.707,4.707,0,0,1-1.447,4.677,1.817,1.817,0,0,1-2.526.082,1.839,1.839,0,0,1-.541-2.37c.325-.724,1.22-1.392.23-2.16-.9-.7-1.51.19-2.184.606-2.153-.018-2.9-.916-2.423-2.911" transform="translate(-31.681 -13.062)"/>
        <path id="Trazado_162843" data-name="Trazado 162843" d="M125.343,71.891a6.262,6.262,0,0,1-6.066-6.214c0-1.414.732-2.326,1.906-2.361,1.115-.033,1.915.791,2.053,2.117.18,1.715.736,2.284,2.446,2.5q2.25.289,2.108,2.142c-.09,1.179-1.017,1.864-2.447,1.812" transform="translate(-34.539 -18.334)"/>
      </g>
    </g>
  </g>
</svg>
