<svg xmlns="http://www.w3.org/2000/svg" width="177" height="393.966" viewBox="0 0 177 393.966">
  <g id="Grupo_170005" data-name="Grupo 170005" transform="translate(-199.229 -2271.033)">
    <path id="Trazado_114544" data-name="Trazado 114544" d="M75.69,324.882c-22.983-10.426-46.818-24.494-56.074-48.022-10.273-26.111.48-55.352.222-83.419-.205-22.234-7.391-43.707-13.045-65.207s-9.807-44.345-3.973-65.8c3.905-14.361,12.2-27.355,22.908-37.665C44.585,6.617,71.754-3.208,97.568.945s49.265,23.072,56.812,48.17c10.692,35.558-10.194,73.515-5.755,110.385,1.736,14.427,7.3,28.07,11.065,42.1A172.918,172.918,0,0,1,165.6,247.41c-.141,23.668-6.123,48.919-23.733,64.68C124.1,327.989,97.667,334.853,75.69,324.882Z" transform="matrix(0.999, 0.035, -0.035, 0.999, 210.73, 2295)" fill="#ffe891"/>
    <g id="Grupo_166331" data-name="Grupo 166331" transform="translate(209.626 2271.033)">
      <path id="Trazado_155387" data-name="Trazado 155387" d="M222.368,172.468l-2.439,23.394s1.8,15.1,14.66,12.061,10.692-11.905,10.692-11.905l-1.57-3.838-1.207-13.5Z" transform="translate(-160.727 -130.432)" fill="#f59489"/>
      <path id="Trazado_155388" data-name="Trazado 155388" d="M227.873,180.831l.552-5.491,6.138,1.17,5.932,1.829,8.46,6.1.658,7.36c-3.358,2.358-17.548,1.846-21.74-10.964" transform="translate(-166.857 -132.604)" fill="#f3786a"/>
      <path id="Trazado_155389" data-name="Trazado 155389" d="M225.472,36.264c.586,10.4-.826,31.32-11.171,32.558-10.886,1.3-17.087-3.916-20.073-13.823,0,0-5.156,2.757-5.847-4.667-.3-3.275,3.569-2.075,3.569-2.075s-10.084-25.786,6.46-30.432,26.26,4.2,27.062,18.44" transform="translate(-133.198 -12.539)" fill="#f59489"/>
      <path id="Trazado_155390" data-name="Trazado 155390" d="M263.557,103a3.118,3.118,0,0,0,.995.3.845.845,0,0,0,.84-.51,1.654,1.654,0,0,0-.474-1.615,3.987,3.987,0,0,0-2.816-.993,8.493,8.493,0,0,0-2.969.2,3.785,3.785,0,0,0-2.356,1.96.714.714,0,0,0-.093.411.454.454,0,0,0,.379.376.961.961,0,0,0,.485-.119,7.8,7.8,0,0,1,6.008-.013" transform="translate(-189.729 -75.736)" fill="#945661"/>
      <path id="Trazado_155391" data-name="Trazado 155391" d="M199,101.205a2.646,2.646,0,0,1-.864.384.714.714,0,0,1-.774-.435,1.83,1.83,0,0,1,.325-1.648,3.446,3.446,0,0,1,2.435-1.233,6.715,6.715,0,0,1,2.641-.055,3.3,3.3,0,0,1,2.2,1.747.766.766,0,0,1,.106.4.452.452,0,0,1-.314.408.758.758,0,0,1-.436-.076,6.257,6.257,0,0,0-5.321.507" transform="translate(-114.859 -74.196)" fill="#945661"/>
      <path id="Trazado_155392" data-name="Trazado 155392" d="M230.184,135.814c-.083,2.416,1.028,4.692,2.088,6.864a.923.923,0,0,1,.133.691.789.789,0,0,1-.173.258,2.9,2.9,0,0,1-1.4.842c-.766.2-1.711.134-2.18.771" transform="translate(-149.866 -102.712)" fill="none" stroke="#242638" stroke-miterlimit="10" stroke-width="0.817"/>
      <path id="Trazado_155393" data-name="Trazado 155393" d="M211.388,120.486c-.08-1.761-.877-3.154-1.781-3.114s-1.572,1.5-1.493,3.262.877,3.154,1.781,3.114,1.572-1.5,1.493-3.262" transform="translate(-123.821 -88.764)" fill="#242638"/>
      <path id="Trazado_155394" data-name="Trazado 155394" d="M268.475,125.711c-.08-1.761-.877-3.155-1.781-3.114s-1.572,1.5-1.493,3.262.877,3.154,1.781,3.114,1.572-1.5,1.493-3.262" transform="translate(-194.822 -92.716)" fill="#242638"/>
      <path id="Trazado_155395" data-name="Trazado 155395" d="M228.743,182.458a29.128,29.128,0,0,1-13.255.945s2.937,4.9,7.217,4.365,6.037-5.31,6.037-5.31" transform="translate(-142.968 -137.987)" fill="#fff"/>
      <path id="Trazado_155396" data-name="Trazado 155396" d="M211.319,14.848c.831-.7,1.9-1.447,1.851-2.535-.043-1.049-1.13-1.731-2.138-2.025a6.489,6.489,0,0,1-2.886-1.166c2.125-.545,2.741-3.524,1.688-5.449A7.19,7.19,0,0,0,205.29.4a17.6,17.6,0,0,0-5.72-.311,66.756,66.756,0,0,0-10.684,1.618c-2.946.694-6.194,1.557-8.867.136A6.8,6.8,0,0,0,177.692.763a2.937,2.937,0,0,0-2.866,2.46,8.558,8.558,0,0,0,.445,4.069,5.066,5.066,0,0,0-4.323.674c-1.146.986-1.122,3.238.306,3.731.464.16,1.053.155,1.321.566.3.46-.042,1.054-.354,1.507A16.709,16.709,0,0,0,176.525,37c.762-3.86,2.136-7.573,3.041-11.4s1.326-7.9.174-11.663c7.37,3.829,16.263,3.737,24.3,1.65a2.539,2.539,0,0,1,1.839-.017,2.486,2.486,0,0,1,.968,1.695l1.809,7.2a9.065,9.065,0,0,1,2.66-9.616" transform="translate(-116.137 -0.004)" fill="#945661"/>
      <path id="Trazado_155397" data-name="Trazado 155397" d="M180.769,70.139a.1.1,0,0,0,.1-.076,80.848,80.848,0,0,0,2.553-23.651,1.691,1.691,0,0,0,.24.183,5.125,5.125,0,0,0,.969.454,22.255,22.255,0,0,0,2.166.636c.2.051.361.092.453.119a31.045,31.045,0,0,0,6.857,1.251,39.311,39.311,0,0,0,7.06-.23c2.322-.264,4.668-.677,6.936-1.077,1.307-.23,2.658-.468,4-.676a4,4,0,0,1,2.4.126,1.617,1.617,0,0,1,.827,1.062,1,1,0,0,1-.17.858.1.1,0,1,0,.158.126,1.2,1.2,0,0,0,.21-1.029,1.827,1.827,0,0,0-.935-1.2,4.163,4.163,0,0,0-2.523-.144c-1.341.209-2.693.447-4,.677-2.266.4-4.608.811-6.924,1.075a39.109,39.109,0,0,1-7.023.229,30.842,30.842,0,0,1-6.813-1.242c-.1-.029-.257-.07-.461-.122a22.1,22.1,0,0,1-2.145-.63c-1.107-.41-1.288-.713-1.3-.856a.1.1,0,0,0-.2.011,80.637,80.637,0,0,1-2.529,24,.1.1,0,0,0,.1.127Z" transform="translate(-121.297 -34.72)" fill="#fff"/>
      <path id="Trazado_155398" data-name="Trazado 155398" d="M197.632,34.974c.806,0,1.639-.038,2.5-.113a53.73,53.73,0,0,0,7.775-1.385l.3-.072a37.788,37.788,0,0,1,5.134-.994,13.572,13.572,0,0,1,2.543-.029,9.344,9.344,0,0,1,2.459.543.1.1,0,0,0,.071-.19,9.544,9.544,0,0,0-2.512-.555,13.771,13.771,0,0,0-2.581.029,37.941,37.941,0,0,0-5.162,1l-.3.072a53.542,53.542,0,0,1-7.745,1.38,22.739,22.739,0,0,1-7.712-.512.1.1,0,0,0-.05.2A21.04,21.04,0,0,0,197.632,34.974Z" transform="translate(-127.049 -24.301)" fill="#fff"/>
      <path id="Trazado_155399" data-name="Trazado 155399" d="M172.9,275.645a24.156,24.156,0,0,0,19.649-12.587,20.93,20.93,0,0,0,1.348-3.211l2.735.841a15.967,15.967,0,0,1-1.107,2.9c-2.142,4.46-8,12.649-22.431,14.157-.386.04-.766.085-1.164.116l.769-1.755Z" transform="translate(-100.246 -196.513)" fill="#e8e6d9"/>
      <path id="Trazado_155400" data-name="Trazado 155400" d="M188.237,263.853l10.794-12.511-1.208-5.314,9.586,2.987a19.836,19.836,0,0,1-1.457,3.358,22.877,22.877,0,0,1-17.714,11.48" transform="translate(-114.991 -186.062)" fill="#e8e6d9"/>
      <path id="Trazado_155401" data-name="Trazado 155401" d="M275.188,260.8c.422.827.881,1.652,1.375,2.464a34.326,34.326,0,0,0,6.1,7.552,22.814,22.814,0,0,0,12.95,5.5c.444.042.887.065,1.331.079l.32.677.713,1.508c-.427-.033-.835-.08-1.248-.124-15.144-1.613-20.814-10.6-22.661-14.834a14.675,14.675,0,0,1-.792-2.209Z" transform="translate(-226.29 -197.238)" fill="#e8e6d9"/>
      <path id="Trazado_155402" data-name="Trazado 155402" d="M286.349,249.746a38.75,38.75,0,0,1-4.712-6.034c-.558-.875-1.084-1.77-1.56-2.668l9.659-5.834v7.156l10.2,13.352c-.235-.015-.471-.029-.706-.051a21.066,21.066,0,0,1-12.885-5.919" transform="translate(-229.908 -177.88)" fill="#e8e6d9"/>
      <path id="Trazado_155403" data-name="Trazado 155403" d="M39.241,543.55l.214,1.264c-7.421.9-14.874,1.612-22.327,2.286l0-1.29c7.381-.664,14.761-1.366,22.109-2.26" transform="translate(94.667 -411.067)" fill="#c1413c"/>
      <path id="Trazado_155404" data-name="Trazado 155404" d="M246.131,333.224c.413.044.821.091,1.248.124.4-.03.778-.075,1.164-.116,2.49,10.105,5.427,20.238,7.682,30.372a8.921,8.921,0,0,1,.312,3.132,8.175,8.175,0,0,1-1.023,2.669l-5.281,9.991a50.232,50.232,0,0,1-4.972-18.407c-2.15,8.138-5.963,10.876-5.963,10.876-3.237-10.167-5.254-9.466-2.451-15.59,2.046-4.473,6.844-16.749,9.284-23.05" transform="translate(-175.69 -252.005)" fill="#c1413c"/>
      <path id="Trazado_155405" data-name="Trazado 155405" d="M185.989,261.163A38.746,38.746,0,0,0,190.7,267.2a21.067,21.067,0,0,0,12.885,5.919c.235.023.471.037.706.051q.852.053,1.7.034c.1,0,.206,0,.309-.007.4-.014.8-.036,1.2-.073a22.877,22.877,0,0,0,17.714-11.48,19.865,19.865,0,0,0,1.457-3.358l1.238.381a20.9,20.9,0,0,1-1.348,3.211,24.156,24.156,0,0,1-19.649,12.587c-.1.006-.2.014-.305.019-.373.017-.746.022-1.12.02-.192,0-.384-.007-.576-.013-.444-.015-.887-.038-1.331-.079a22.818,22.818,0,0,1-12.95-5.5,34.344,34.344,0,0,1-6.1-7.552c-.494-.812-.953-1.637-1.375-2.464l1.271-.4c.476.9,1,1.794,1.56,2.668" transform="translate(-134.261 -195.332)" fill="#c1413c"/>
      <path id="Trazado_155406" data-name="Trazado 155406" d="M271,324.68c.1,0,.2-.013.305-.019l-.2.456-.769,1.755-.712-1.508-.32-.677c.192.006.384.012.576.013.374,0,.747,0,1.12-.02" transform="translate(-198.645 -245.529)" fill="#2c3254"/>
      <path id="Trazado_155407" data-name="Trazado 155407" d="M518.516,512h.044l-.044.007Z" transform="translate(-506.644 -387.204)" fill="#2c3254"/>
      <path id="Trazado_155408" data-name="Trazado 155408" d="M23.855,317.348c1.541-3.491.8-20.944-.267-36.943,1.778-2.093,3.566-3.63,5.166-3.988,3.576-1.436,12.148-2.914,20.019-4.054,1.848,4.235,7.517,13.221,22.661,14.834-2.441,6.3-7.238,18.578-9.284,23.05-2.8,6.124-.786,5.423,2.451,15.59,0,0,3.813-2.737,5.963-10.876a50.233,50.233,0,0,0,4.972,18.407l5.281-9.991a8.174,8.174,0,0,0,1.023-2.668,8.921,8.921,0,0,0-.312-3.132c-2.255-10.134-5.192-20.266-7.682-30.372,14.428-1.507,20.288-9.7,22.431-14.157,5.766,1.031,11.646,2.164,14.95,3.035h0c.7.185,1.29.359,1.734.516,12,4.081,14.862,20.145,21.939,61.861-7.348.893-14.728,1.6-22.109,2.259l0,1.29c7.453-.673,14.906-1.384,22.327-2.286q.339,2,.69,4.067l-8.226.759-14.8,1.366-.055,20.74-.052,19.727-2.792,194.645H87.666S78.016,417.966,71.309,417.966,52.315,581.032,52.315,581.032H29.336L28.281,386.387l.269-62.647c-4.076,3.81-7.752,5.77-14.252,6.824,4.122-1.3,7.4-8.327,9.557-13.215" transform="translate(-0.992 -205.979)" fill="#2c3254"/>
      <path id="Trazado_155409" data-name="Trazado 155409" d="M14.856,568.539l6.115,63.379a50.148,50.148,0,0,1,4.293,9.487c2.243,6.992,1.558,16.7-1.8,16.519-4.334-.239-.292-16.6-5.55-17.27-3.157-.4,1.863,7.2-2.04,7.683s-4.888-12.6-4.888-12.6L0,590.645l.055-20.74Z" transform="translate(111.73 -429.965)" fill="#f59489"/>
      <path id="Trazado_155410" data-name="Trazado 155410" d="M467.9,180.662c1.694-11.548,8.035-60.413,8.035-60.413s-3.435-9.786-2.873-13.427,2.491-6.853,3.3-7.265c2.2-1.114,9.853-.654,11.288.811,1.228,1.254,5.122,7.662,3.922,10.829s-3.811,9.593-3.811,9.593,1.277,13.6,2.27,28.46c1.069,16,1.808,33.452.267,36.943-2.158,4.889-5.435,11.92-9.557,13.215a4.4,4.4,0,0,1-1.392.208h-.043A5.639,5.639,0,0,1,475.735,198c-6.5-5.732-9.525-5.793-7.831-17.341" transform="translate(-467.44 -74.824)" fill="#f59489"/>
      <path id="Trazado_155411" data-name="Trazado 155411" d="M487.472,123.484c1.8.088,3.6.159,5.4.266.371.022.753.07,1.125.056.543-.02.654-.014.956-.517.37-.615.1-.863-.176-1.493-.325-.757.788-1.416,1.117-.653.66,1.534,1.225,3.222-.869,3.83a7.485,7.485,0,0,1-2.47.054l-.8-.039c1.4,1.821,1.276,4.449.909,6.806-.128.82-1.374.472-1.247-.344.363-2.333.536-5.207-1.706-6.563q-1.116-.053-2.233-.11c-.828-.041-.833-1.334,0-1.293" transform="translate(-476.859 -91.361)" fill="#f3786a"/>
      <path id="Trazado_155412" data-name="Trazado 155412" d="M108.316,363.622q.161,20.7,1.171,41.379c.04.832-1.253.83-1.294,0q-1.009-20.676-1.171-41.379a.647.647,0,0,1,1.293,0" transform="translate(2.724 -274.522)" fill="#192045"/>
      <path id="Trazado_155413" data-name="Trazado 155413" d="M46.817,1538.75H62.492s21.969,6.467,21.969,14.547c0,4.219-5.145,4.368-22.134,4.368s-15.511-.807-15.511-18.914" transform="translate(42.434 -1163.698)" fill="#1f1f1f"/>
      <path id="Trazado_155414" data-name="Trazado 155414" d="M405.916,1538.75H390.241s-21.969,6.467-21.969,14.547c0,4.219,4.5,4.368,21.487,4.368s16.157-.807,16.157-18.914" transform="translate(-357.387 -1163.698)" fill="#1f1f1f"/>
      <path id="Trazado_155415" data-name="Trazado 155415" d="M532.743,457.91a13.56,13.56,0,0,0,3.392,4.375c.633.542-.285,1.453-.914.914a14.464,14.464,0,0,1-3.595-4.637c-.365-.744.75-1.4,1.117-.653" transform="translate(-527.612 -346.051)" fill="#f3786a"/>
      <path id="Trazado_155416" data-name="Trazado 155416" d="M36.267,830.525l-4.252,1.124a.647.647,0,0,1-.344-1.247l4.252-1.124a.647.647,0,0,1,.344,1.247" transform="translate(93.964 -627.133)" fill="#f3786a"/>
      <path id="Trazado_155417" data-name="Trazado 155417" d="M203.4,737.175c-23.219-1.173-46.568-.822-69.808-.488a.647.647,0,0,1,0-1.293c23.24-.334,46.589-.685,69.808.488.828.042.833,1.335,0,1.293" transform="translate(-98.14 -555.907)" fill="#192045"/>
      <path id="Trazado_155418" data-name="Trazado 155418" d="M431.147,350.405l-2.812,24.871c-.092.818-1.387.827-1.293,0q1.406-12.435,2.812-24.871c.092-.818,1.387-.827,1.293,0" transform="translate(-396.94 -264.532)" fill="#192045"/>
      <path id="Trazado_155419" data-name="Trazado 155419" d="M268.86,480.97A123.073,123.073,0,0,0,299.8,527.606c.607.572-.309,1.485-.915.914a124.5,124.5,0,0,1-31.278-47.207c-.291-.781.959-1.118,1.247-.344" transform="translate(-226.923 -363.408)" fill="#192045"/>
      <path id="Trazado_155420" data-name="Trazado 155420" d="M260.33,494.766a69.947,69.947,0,0,0,21.46,18.479c.727.405.076,1.523-.653,1.117a71.458,71.458,0,0,1-21.924-18.943c-.507-.659.616-1.3,1.117-.653" transform="translate(-206.958 -373.968)" fill="#192045"/>
      <path id="Trazado_155421" data-name="Trazado 155421" d="M184.341,860.412a36.667,36.667,0,0,0,10.388,6.558c.757.315.425,1.568-.344,1.247a38.561,38.561,0,0,1-10.958-6.891c-.622-.556.3-1.468.915-.915" transform="translate(-101.516 -650.567)" fill="#192045"/>
      <path id="Trazado_155422" data-name="Trazado 155422" d="M160.54,889.063a212.261,212.261,0,0,0,15.6,30.178c.441.709-.677,1.359-1.117.653a214.292,214.292,0,0,1-15.727-30.486c-.321-.767.93-1.1,1.247-.344" transform="translate(-76.753 -672.042)" fill="#192045"/>
      <path id="Trazado_155423" data-name="Trazado 155423" d="M146.211,1122.251a6.144,6.144,0,0,1-2.032,6.144c-.635.529-1.555-.382-.915-.915a4.851,4.851,0,0,0,1.7-4.885c-.185-.81,1.062-1.156,1.247-.344" transform="translate(-42.943 -848.366)" fill="#192045"/>
      <path id="Trazado_155424" data-name="Trazado 155424" d="M411.477,1122.055a32.429,32.429,0,0,1-5.213-6.009c-.467-.692.654-1.34,1.117-.653a31.068,31.068,0,0,0,5.011,5.747c.62.558-.3,1.47-.914.914" transform="translate(-373.295 -843.308)" fill="#192045"/>
      <path id="Trazado_155425" data-name="Trazado 155425" d="M363.078,1202.19q-3.542,22.079-6.548,44.239c-.111.821-1.358.471-1.247-.344q3.005-22.159,6.547-44.239c.132-.82,1.378-.472,1.247.344" transform="translate(-311.385 -908.556)" fill="#192045"/>
      <path id="Trazado_155426" data-name="Trazado 155426" d="M272.935,355.662a106.207,106.207,0,0,1-1.5,18.622c-.139.819-1.385.472-1.247-.344a104.184,104.184,0,0,0,1.454-18.278.647.647,0,0,1,1.293,0" transform="translate(-200.494 -268.502)" fill="#b92a24"/>
      <rect id="Rectángulo_41376" data-name="Rectángulo 41376" width="138.298" height="393.966" fill="none"/>
    </g>
  </g>
</svg>
