<svg xmlns="http://www.w3.org/2000/svg" xmlns:xlink="http://www.w3.org/1999/xlink" width="190" height="163" viewBox="0 0 190 163">
  <defs>
    <clipPath id="clip-path">
      <rect id="Rect치ngulo_42772" data-name="Rect치ngulo 42772" width="131.545" height="124.367" fill="none"/>
    </clipPath>
  </defs>
  <g id="Grupo_169840" data-name="Grupo 169840" transform="translate(-2120 10074)">
    <rect id="Rect치ngulo_42589" data-name="Rect치ngulo 42589" width="190" height="163" rx="18" transform="translate(2120 -10074)" fill="#ffbfc1"/>
    <g id="Grupo_169839" data-name="Grupo 169839" transform="translate(2149 -10055)">
      <g id="Grupo_169838" data-name="Grupo 169838" clip-path="url(#clip-path)">
        <path id="Trazado_162844" data-name="Trazado 162844" d="M31.9,122.343c-.548,1.732-.931,2.018-2.748,2.019-3.464,0-6.928.012-10.392,0a5.7,5.7,0,0,1-5.974-5.95c-.017-1.24-.023-2.481,0-3.72a5.66,5.66,0,0,1,5.767-5.757c.5-.009.991,0,1.777,0a32.408,32.408,0,0,1-5.356-5.45,25.154,25.154,0,0,1-2.994-5.054,1.122,1.122,0,0,0-1.255-.789c-1.2.05-2.4-.007-3.592.018A6.585,6.585,0,0,1,.353,93.23c-.074-.182-.072-.436-.353-.468V89.679c.353-.143.265-.51.366-.769a6.533,6.533,0,0,1,6.314-4.373c6.38-.016,12.759-.023,19.138.017a1.453,1.453,0,0,0,1.6-1.023c2.426-5.537,7-8.429,12.583-10.013a36.8,36.8,0,0,1,8.733-1.307,6.255,6.255,0,0,0,4.749-2.162c.5-.579.536-.9-.114-1.405a27.122,27.122,0,0,1-5.328-5.528,19.287,19.287,0,0,1-3.863-11.84c.068-8.262.017-16.526.025-24.789a1.858,1.858,0,0,0-.67-1.652C38.568,20.6,38.7,14.013,43.8,9.879a13.046,13.046,0,0,1,7.923-2.9c1.5-.057,3-.06,4.494,0a1.965,1.965,0,0,0,1.891-.915A15.059,15.059,0,0,1,76.245,1.3,10.294,10.294,0,0,1,81.23,5.929a1.758,1.758,0,0,0,1.879,1.057c2.6-.008,5.23-.278,7.784.478,4.083,1.209,7.087,3.629,8.218,7.852,1.029,3.845-.437,6.967-3.338,9.477a1.9,1.9,0,0,0-.74,1.619c.021,7.706-.118,15.416.05,23.119.172,7.9-3.112,14.046-9.007,18.962-1,.838-.736,1.252-.052,1.945a6.254,6.254,0,0,0,4.4,1.775,35.683,35.683,0,0,1,11.164,2.113c6.18,2.356,10.071,6.7,11.458,13.227.444,2.088,1.026,4.147,1.455,6.237.149.723.417.836,1.1.791,2.332-.152,2.334-.118,2.334-2.494,0-7.835-.014-15.67.019-23.505,0-.933-.136-1.294-1.209-1.285-5.557.044-8.532-2.983-8.534-8.558q0-7.642,0-15.284c.011-4.9,3.089-8.043,7.97-8.121,2.483-.04,4.967-.047,7.45,0,4.831.093,7.9,3.23,7.9,8.038q.01,8.027,0,16.055a7.559,7.559,0,0,1-7.916,7.9,8.8,8.8,0,0,1-1.027-.006c-.609-.066-.8.157-.8.783q.029,12.909,0,25.817c0,.544.134.772.716.962a10.022,10.022,0,0,1,7.431,10.29,60.3,60.3,0,0,1-.176,8.591,9.876,9.876,0,0,1-8.543,8.328,21.922,21.922,0,0,1-5.889.01,6.257,6.257,0,0,1-5.351-5.148c-.134-.761-.379-.972-1.128-.971q-21.578.03-43.157,0c-.758,0-1.121.152-1.02.981a10.26,10.26,0,0,1,.008,1.54,5.766,5.766,0,0,1-5.991,5.856c-6.465.017-12.93.007-19.4,0-1.688,0-2.109-.334-2.615-2.016-.057-1.378.517-1.929,2.278-2.189,6.187-.019,12.374.017,18.56-.039,2.425-.022,2.932-.516,2.966-2.923.053-3.791-.15-4-3.9-4-.725,0-1.451,0-2.176-.019-11.239.064-22.478.01-33.717.029-.555,0-1.112-.021-1.666.021-1.334.1-1.837.59-1.918,1.91-.054.9-.031,1.8-.014,2.692.032,1.67.551,2.23,2.24,2.26,2.948.053,5.9.01,8.846.019a8.51,8.51,0,0,1,2.169.137,1.817,1.817,0,0,1,1.539,2.1" transform="translate(0 0)"/>
        <path id="Trazado_162845" data-name="Trazado 162845" d="M39.43,173.3a2.345,2.345,0,0,0-2.649-1.87c-3.378.062-6.757.025-10.137.017-1.841,0-2.435-.611-2.445-2.465-.006-1.026-.015-2.053,0-3.08.025-1.449.678-2.121,2.111-2.138,1.754-.021,3.507-.008,5.261-.006l30.409.041c.131.11.315.212.354.362a15.081,15.081,0,0,1,.058,6.558c-.126.681-.817.616-1.38.616q-6.649-.005-13.3,0a3.943,3.943,0,0,0-1.394.085,2.187,2.187,0,0,0-2.1,1.879l-4.789,0" transform="translate(-7.528 -50.957)" fill="#7f7f7f"/>
        <path id="Trazado_162846" data-name="Trazado 162846" d="M29.929,81.677a1.9,1.9,0,0,1,1.745,2.784,4.454,4.454,0,0,1-.72.893c-1.338,1.449-1.431,2.093-.561,3.9.351.731.735,1.451,1.018,2.208A6.405,6.405,0,0,1,29.172,98.8a1.928,1.928,0,0,1-2.782-2.573,3.608,3.608,0,0,1,.584-.678,2.674,2.674,0,0,0,.473-3.494,11.49,11.49,0,0,1-1.467-3.8,7.1,7.1,0,0,1,2.978-6.3,1.642,1.642,0,0,1,.971-.27" transform="translate(-8.072 -25.415)"/>
        <path id="Trazado_162847" data-name="Trazado 162847" d="M47.472,68.384a2.588,2.588,0,0,1-.94,1.861c-1.329,1.392-1.424,2.064-.6,3.786.293.617.619,1.219.887,1.845a6.364,6.364,0,0,1-1.851,7.645,1.944,1.944,0,0,1-2.675.019,1.771,1.771,0,0,1-.117-2.637c1.723-1.568,1.4-3.086.429-4.913-1.865-3.515-1.283-6.374,1.548-8.859a1.912,1.912,0,0,1,2.241-.4,1.829,1.829,0,0,1,1.081,1.653" transform="translate(-12.921 -20.702)"/>
        <path id="Trazado_162848" data-name="Trazado 162848" d="M87.171,37.278a2.1,2.1,0,0,0-2.48-1.677,97.257,97.257,0,0,0-15.769,1.971c-1.038.214-1.1-.087-1.086-.944.039-3.339,0-6.679.026-10.018A2.366,2.366,0,0,0,66.849,24.4c-2.244-1.5-3.9-3.4-3.082-6.3.862-3.067,3.22-4.641,6.213-5.267,2.493-.521,5.038-.221,7.558-.214a2.951,2.951,0,0,0,2.894-1.633A11.127,11.127,0,0,1,92.985,6.076a7.342,7.342,0,0,1,5.241,4.832,2.332,2.332,0,0,0,2.507,1.71c2.73.052,5.476-.31,8.193.234a6.808,6.808,0,0,1,2.247,9.417,7.378,7.378,0,0,1-2.106,2.394A2.343,2.343,0,0,0,108,26.841q.046,4.237,0,8.476c-.006.619.11,1.32-.62,1.692-4.1-.53-8.188-1.206-12.332-1.347-1.692-.057-2.071.212-2.6,1.819-1.781.52-3.556.853-5.276-.2" transform="translate(-19.778 -1.757)" fill="#e5e5e5"/>
        <path id="Trazado_162849" data-name="Trazado 162849" d="M89.094,51.568c1.745.436,3.519.1,5.276.2.382,1.561.882,1.946,2.46,2.061,2.131.156,4.258.364,6.387.553.479.043.9.079.935.768.186,3.8,2.169,6.55,5.19,8.665a11.334,11.334,0,0,1,.135,5.308c-.627,4.211-2.8,7.665-5.593,10.761a28.1,28.1,0,0,1-10.053,6.935,6.947,6.947,0,0,1-4.092.719c-3.58-.393-6.662-2.031-9.615-3.935A26.216,26.216,0,0,1,72,75.549a16.134,16.134,0,0,1-2.244-9.567c.029-.736.515-.775.969-.964,3.565-1.48,6.245-3.81,7.337-7.66.035-.123.079-.243.119-.365.273-.825-.129-2,.636-2.46a6.344,6.344,0,0,1,2.631-.391c1.747-.139,3.5-.238,5.245-.353,1.65-.107,2.184-.6,2.4-2.221" transform="translate(-21.7 -16.047)" fill="#fedca5"/>
        <path id="Trazado_162850" data-name="Trazado 162850" d="M50.542,148.813c-5.261.017-10.522.06-15.784.03-1.275-.007-2.318-.82-3.377-1.435a24.069,24.069,0,0,1-11.589-15.894,5.575,5.575,0,0,1-.094-.634c-.292-2.387-.152-2.546,2.246-2.546q19.445,0,38.891,0c.512,0,1.025.028,1.537.043.953.715.589,1.715.466,2.589a23.637,23.637,0,0,1-2.214,6.937,27.977,27.977,0,0,1-8.174,9.894,5.364,5.364,0,0,1-1.91,1.014" transform="translate(-6.096 -39.936)" fill="#f68311"/>
        <path id="Trazado_162851" data-name="Trazado 162851" d="M119.56,153.8c-2.265.023-4.53.065-6.795.068-7.4.008-14.8-.005-22.2.016a1.839,1.839,0,0,1-1.785-.86,5.275,5.275,0,0,0-4.481-2.33c-1.022-.016-2.045,0-3.069,0-.119-.451.265-.532.457-.692a27.881,27.881,0,0,0,7.48-9.648,1.373,1.373,0,0,1,1.524-.963c1.28.069,2.566.026,3.849.017a6.512,6.512,0,0,0,6.322-4.342c.181-.461.248-.9.991-.891,4.789.069,9.579.068,14.368.09a2.634,2.634,0,0,1,.535,1.419c.986,5.508,1.957,11.018,2.957,16.523a1.777,1.777,0,0,1-.149,1.6" transform="translate(-25.269 -41.75)" fill="#e5e5e5"/>
        <path id="Trazado_162852" data-name="Trazado 162852" d="M165.449,80.959a3.365,3.365,0,0,1-2.687-3.451c-.059-5.651-.074-11.3.008-16.954a3.493,3.493,0,0,1,3.741-3.572c1.623-.037,3.248.034,4.873.057,1.391.787,1.564,2.176,1.649,3.543.11,1.789.032,3.586.034,5.38q.007,5.317,0,10.635a10.156,10.156,0,0,1-.1,1.789c-.406,2.273-.894,2.708-3.188,2.675a27.041,27.041,0,0,1-4.335-.1" transform="translate(-50.634 -17.729)" fill="#e5e5e5"/>
        <path id="Trazado_162853" data-name="Trazado 162853" d="M141.766,116.87v-4.731a13.859,13.859,0,0,1,11.428,10.476c.716,2.811,1.316,5.652,2.009,8.47a1.441,1.441,0,0,1-.2,1.311,6.272,6.272,0,0,0-1.035,3.766c.011,3.122-.05,6.245.027,9.366.028,1.153-.258,1.681-1.47,1.481a10.917,10.917,0,0,0-1.276-.066,1.82,1.82,0,0,1-.358-1.329,95.083,95.083,0,0,0-2.027-17.437c-.866-4.318-2.6-8.052-6.394-10.569a3.825,3.825,0,0,1-.709-.737" transform="translate(-44.115 -34.896)" fill="#4a82c8"/>
        <path id="Trazado_162854" data-name="Trazado 162854" d="M79.056,114.437c10.19,5.221,20.209,5.2,30.356-.136,0,3.075,0,6.175,0,9.275,0,.591-.422.541-.807.541-2.611,0-5.223-.014-7.833.012a1.131,1.131,0,0,1-1.077-.712,6.5,6.5,0,0,0-5.965-3.316c-4.537.013-9.074-.016-13.611.02-.811.006-1.125-.172-1.084-1.046.072-1.536.02-3.078.02-4.638" transform="translate(-24.594 -35.568)" fill="#63aed6"/>
        <path id="Trazado_162855" data-name="Trazado 162855" d="M166.685,80.964c1.669,0,3.34-.062,5.006.008a1.55,1.55,0,0,0,1.7-1.194,7.514,7.514,0,0,0,.523-2.616q-.044-7.962,0-15.926a6.731,6.731,0,0,0-1.295-4.191c1.15-.016,2.3-.094,3.449-.032a3.46,3.46,0,0,1,3.437,3.453q.1,8.583,0,17.167a3.392,3.392,0,0,1-3.149,3.469c-3.109.142-6.229.041-9.344.032-.11,0-.221-.111-.331-.17" transform="translate(-51.869 -17.734)" fill="#c1c6cb"/>
        <path id="Trazado_162856" data-name="Trazado 162856" d="M167.481,162.7c-1.537-.262-2.335-1.037-2.347-2.529q-.055-7.314,0-14.629a2.517,2.517,0,0,1,2.777-2.674c.64-.012,1.281.023,1.922.036,2.305,1.2,2.952,3.4,3.119,5.688.208,2.853.082,5.729.037,8.6a7.416,7.416,0,0,1-.526,2.372c-1.022,2.857-1.942,3.433-4.981,3.141" transform="translate(-51.378 -44.458)" fill="#fedca5"/>
        <path id="Trazado_162857" data-name="Trazado 162857" d="M141.742,119.008a12.209,12.209,0,0,1,6.013,6.5c1.634,3.864,2.122,8.021,2.695,12.138a72.759,72.759,0,0,1,.78,11.436c-2.809.225-2.819.227-3.281-2.455-.89-5.17-1.762-10.344-2.652-15.515a6.382,6.382,0,0,0-3.1-4.9.9.9,0,0,1-.5-.926c.027-2.092.036-4.185.052-6.277" transform="translate(-44.091 -37.033)" fill="#64afd8"/>
        <path id="Trazado_162858" data-name="Trazado 162858" d="M135.378,153.808c-.555-3.171-1.12-6.341-1.663-9.515-.571-3.339-1.121-6.682-1.681-10.024,1.278-.021,2.555-.056,3.832-.061,1.729-.007,2.266.434,2.571,2.135.428,2.389.834,4.782,1.247,7.174.523,3.021,1.006,6.051,1.584,9.061.208,1.084-.056,1.4-1.165,1.323-1.568-.116-3.149-.07-4.725-.093" transform="translate(-41.087 -41.763)" fill="#c1c6cb"/>
        <path id="Trazado_162859" data-name="Trazado 162859" d="M64.525,148.807a29.864,29.864,0,0,0,8.209-8.269A23.327,23.327,0,0,0,76.6,129.733a2.063,2.063,0,0,0-.24-1.36c1.666-.015,3.332,0,5-.056.833-.027,1.143.34,1.185,1.126a9.97,9.97,0,0,1-.525,3.4,24.984,24.984,0,0,1-12.156,15.18c-1.736.979-3.507.858-5.331.786" transform="translate(-20.079 -39.929)" fill="#f64311"/>
        <path id="Trazado_162860" data-name="Trazado 162860" d="M168.554,162.7c1.022-.294,2.224.375,3.116-.683a7.956,7.956,0,0,0,2.025-4.98q.111-4.154,0-8.312A8.232,8.232,0,0,0,170.9,142.9a7.687,7.687,0,0,1,3.78.428,6.107,6.107,0,0,1,3.833,5.858c.053,2.4.043,4.795,0,7.191a6.165,6.165,0,0,1-6.272,6.4,14.19,14.19,0,0,1-3.7-.078" transform="translate(-52.451 -44.453)" fill="#fbc268"/>
        <path id="Trazado_162861" data-name="Trazado 162861" d="M98.776,93.076c3.47-.229,6.312-2.007,9.092-3.827a24.245,24.245,0,0,0,9.49-11.444c1.1-2.746,1-5.6,1.02-8.453a8.388,8.388,0,0,0,1.833.884c1.544.326,1.787,1.265,1.722,2.672a17.706,17.706,0,0,1-4.373,10.983,26.062,26.062,0,0,1-16.766,9.265,3.685,3.685,0,0,1-2.018-.08" transform="translate(-30.737 -21.581)" fill="#fbc268"/>
        <path id="Trazado_162862" data-name="Trazado 162862" d="M104.194,109.434a25.263,25.263,0,0,1-11.418,1.69,23.235,23.235,0,0,1-7.852-1.67,18.145,18.145,0,0,1-2.617-1.332c-2.349-1.479-2.364-2.332-.2-4.028.462-.362.7,0,1,.174a36.8,36.8,0,0,0,5.446,2.531,17.111,17.111,0,0,0,11.065.209c.488-.143.986-.253,1.479-.378,1.09.871,2.452,1.443,3.1,2.8" transform="translate(-25.055 -32.344)" fill="#fbc267"/>
        <path id="Trazado_162863" data-name="Trazado 162863" d="M127.172,40.265a3.045,3.045,0,0,0,.259-1.621c0-2.778.09-5.56-.036-8.333a3.18,3.18,0,0,1,1.509-2.932,6.788,6.788,0,0,0,2.015-8.465,14.566,14.566,0,0,0-2.2-2.806,7.3,7.3,0,0,1,5.952,4.462c1.011,2.339.275,4.8-2.144,6.477a3.88,3.88,0,0,0-1.816,3.75c.106,3.369.032,6.744.032,10.245l-3.574-.777" transform="translate(-39.574 -5.013)" fill="#c1c6cb"/>
        <path id="Trazado_162864" data-name="Trazado 162864" d="M55.8,111.917c0,2.378-.022,4.554.012,6.728.011.7-.36.723-.882.721-3.118-.012-6.236-.006-9.568-.006,2.246-4.311,5.951-6.265,10.438-7.443" transform="translate(-14.117 -34.827)" fill="#64afd8"/>
        <path id="Trazado_162865" data-name="Trazado 162865" d="M56.321,171.427c.408-.349.9-.2,1.353-.2,4.307-.011,8.614,0,12.922-.008,1.523,0,1.69-.125,1.642-1.7-.058-1.906.279-3.833-.256-5.717,1.411-.014,2.823-.05,4.234-.034a1.906,1.906,0,0,1,2.131,2.035c.061,1.2.059,2.4,0,3.593a1.894,1.894,0,0,1-2,2.046c-6.674.014-13.348-.007-20.022-.017" transform="translate(-17.526 -50.961)" fill="#656565"/>
        <path id="Trazado_162866" data-name="Trazado 162866" d="M71.106,114.713c0,1.067-.034,2.135.012,3.2.028.672-.1,1.015-.884.968-1.318-.077-3.04.443-3.853-.209-.851-.682-.214-2.477-.267-3.784-.044-1.065.028-2.135-.022-3.2-.034-.72.112-1.091.946-1.09a21.376,21.376,0,0,0,3.187-.243c.82-.124.914.234.891.9-.038,1.151-.01,2.3-.01,3.456" transform="translate(-20.518 -34.333)" fill="#e4e4e4"/>
        <path id="Trazado_162867" data-name="Trazado 162867" d="M95.436,133.713A12.823,12.823,0,0,0,96,128.836c-.041-.407.167-.511.526-.506.981.017,1.97-.055,2.942.043A2.675,2.675,0,0,1,101.814,131a2.738,2.738,0,0,1-2.434,2.691,5.2,5.2,0,0,1-.639.019c-1.063,0-2.126,0-3.306,0" transform="translate(-29.698 -39.931)" fill="#fac267"/>
        <path id="Trazado_162868" data-name="Trazado 162868" d="M11.93,133.662c-1.269,0-2.466.043-3.658-.011A2.676,2.676,0,0,1,8.29,128.3a6.108,6.108,0,0,1,2.784.076c.885.446.081,1.641.347,2.5a22.83,22.83,0,0,1,.509,2.792" transform="translate(-1.753 -39.885)" fill="#fac167"/>
        <path id="Trazado_162869" data-name="Trazado 162869" d="M113.493,109.455c-.977-1-2.343-1.562-3.1-2.8a43.6,43.6,0,0,0,5.293-2.483c.411-.256.691-.215.934.208a3.584,3.584,0,0,0,.4.5c1.448,1.71,1.455,1.719-.481,3.043a9.669,9.669,0,0,1-3.046,1.54" transform="translate(-34.353 -32.365)" fill="#eba83b"/>
        <path id="Trazado_162870" data-name="Trazado 162870" d="M128.915,122.757c-.386-.4-.18-.892-.181-1.334-.013-3.286.053-6.572-.013-9.856-.021-1.068.329-1.32,1.3-1.178a28.181,28.181,0,0,0,2.931.246c.577.023.83.189.827.819-.017,3.627,0,7.255,0,10.882,0,.145-.122.291-.187.435l-.167-.146c-.491-1.374-.15-2.8-.242-4.2-.031-.469,0-.942,0-1.412,0-2.5-.081-2.593-2.571-3.034-1.1-.195-1.271-.078-1.286,1.086-.026,1.968,0,3.937-.012,5.905a3.216,3.216,0,0,1-.234,1.632c-.054.051-.108.1-.163.151" transform="translate(-40.043 -34.34)" fill="#c0c5ca"/>
        <path id="Trazado_162871" data-name="Trazado 162871" d="M130.074,62.655a7.173,7.173,0,0,1-4.7-5.253c-.062-.5.052-.749.594-.645.126.024.247.069.373.094,4.315.856,4.408,1,3.734,5.8" transform="translate(-39.009 -17.654)" fill="#666"/>
        <path id="Trazado_162872" data-name="Trazado 162872" d="M74.514,56.731a7.2,7.2,0,0,1-3.963,5.721c-.532.3-.791.187-.767-.455.016-.427,0-.855,0-1.282,0-3.225,0-3.225,3.148-3.731l1.58-.253" transform="translate(-21.715 -17.654)" fill="#7e7e7e"/>
        <path id="Trazado_162873" data-name="Trazado 162873" d="M133.7,128.164a15.04,15.04,0,0,1-4.68-.014l.1-.107a7.009,7.009,0,0,1,4.466.006l.111.115" transform="translate(-40.149 -39.732)" fill="#c0c5ca"/>
        <path id="Trazado_162874" data-name="Trazado 162874" d="M82.568,30.429c0,1.367.017,2.733-.006,4.1a1.944,1.944,0,1,1-3.859-.014q-.032-4.227,0-8.455a1.943,1.943,0,1,1,3.859.014c.022,1.451,0,2.9,0,4.355" transform="translate(-24.486 -7.437)"/>
        <path id="Trazado_162875" data-name="Trazado 162875" d="M101.695,24.5c0,1.409.031,2.818-.008,4.227a1.888,1.888,0,0,1-1.916,2.092,1.917,1.917,0,0,1-1.951-2.082q-.06-4.289,0-8.579a1.983,1.983,0,0,1,1.94-2.119,1.956,1.956,0,0,1,1.926,2.106c.037,1.451.008,2.9.009,4.354" transform="translate(-30.431 -5.614)" fill="#010101"/>
        <path id="Trazado_162876" data-name="Trazado 162876" d="M117.008,30.269c0-1.409-.023-2.818.006-4.226a1.938,1.938,0,1,1,3.86-.081q.063,4.353,0,8.708a1.969,1.969,0,0,1-2.031,2.024,1.949,1.949,0,0,1-1.825-2.072c-.033-1.451-.008-2.9-.008-4.354" transform="translate(-36.408 -7.437)" fill="#010101"/>
        <path id="Trazado_162877" data-name="Trazado 162877" d="M86.516,64.138a7.031,7.031,0,0,1,4.38,1.175,2.013,2.013,0,0,1,.69,2.794,1.947,1.947,0,0,1-2.807.462,4.322,4.322,0,0,0-4.5.033,1.921,1.921,0,0,1-2.719-.43,1.985,1.985,0,0,1,.594-2.81,6.869,6.869,0,0,1,4.362-1.224" transform="translate(-25.269 -19.958)"/>
        <path id="Trazado_162878" data-name="Trazado 162878" d="M109.25,64.139a7.2,7.2,0,0,1,4.436,1.15,1.973,1.973,0,0,1,.681,2.872c-.648.916-1.627,1.026-2.815.378a4.3,4.3,0,0,0-4.373.013c-1.159.643-2.177.517-2.812-.4a1.991,1.991,0,0,1,.706-2.877,6.779,6.779,0,0,1,4.177-1.14" transform="translate(-32.366 -19.957)"/>
        <path id="Trazado_162879" data-name="Trazado 162879" d="M133.605,124.032l-4.467,0c-.019-2.868-.025-5.735-.068-8.6-.01-.687.22-.7.836-.612,3.758.526,3.768.5,3.759,4.215,0,1.668-.039,3.336-.06,5" transform="translate(-40.164 -35.716)" fill="#e2e2e2"/>
      </g>
    </g>
  </g>
</svg>
