<svg xmlns="http://www.w3.org/2000/svg" xmlns:xlink="http://www.w3.org/1999/xlink" width="190" height="163" viewBox="0 0 190 163">
  <defs>
    <clipPath id="clip-path">
      <rect id="Rect치ngulo_42773" data-name="Rect치ngulo 42773" width="134.836" height="82.889" transform="translate(0 0)" fill="none"/>
    </clipPath>
  </defs>
  <g id="Grupo_170182" data-name="Grupo 170182" transform="translate(-2990 10042)">
    <rect id="Rect치ngulo_42587" data-name="Rect치ngulo 42587" width="190" height="163" rx="18" transform="translate(2990 -10042)" fill="#ffbfc1"/>
    <g id="Grupo_169842" data-name="Grupo 169842" transform="translate(3010 -10006)">
      <g id="Grupo_169841" data-name="Grupo 169841" transform="translate(8 4)" clip-path="url(#clip-path)">
        <path id="Trazado_162880" data-name="Trazado 162880" d="M134.805,70.924a3.718,3.718,0,0,0-2.858-3.657c-1-.219-.9-.614-.706-1.334.973-3.68,1.907-7.37,2.867-11.053a3.793,3.793,0,0,0,.027-2.07c-.555-1.919-1.906-2.834-4.325-2.835q-17.243-.011-34.487.013c-.919,0-1.212-.146-.981-1.156a41.771,41.771,0,0,1,6.06-14,11.044,11.044,0,0,1,9.931-5.31c3.29.039,6.582.049,9.872-.016a5.886,5.886,0,0,0,1.054-11.649,24.181,24.181,0,0,0-4.2-.182,12.384,12.384,0,0,1-3.006-.144c3.508-3.506,6.907-6.932,10.342-10.322,1.378-1.36,2-2.908,1.242-4.748C124.877.606,123.314,0,121.39.011c-3.9.03-7.811.057-11.715-.01a7.176,7.176,0,0,0-5.515,2.28c-4.775,4.842-9.613,9.621-14.4,14.457a2.9,2.9,0,0,1-2.273.967c-12.329-.037-24.659,0-36.988-.033a14.318,14.318,0,0,0-12.348,6.277c-2.33,3.237-4.706,6.441-7.078,9.647-.2.276-.292.718-.762.76-.141-2.343-.641-2.815-2.992-2.816-8.2,0-16.411.016-24.615-.019A2.67,2.67,0,0,0,0,32.935v1.317c.511,1.4,1.7,1.606,2.957,1.657.7.029,1.265.186,1.144,1.018-.117.8.568,1.959-.842,2.25A3.764,3.764,0,0,0,0,42.415v1.843a20.493,20.493,0,0,0,1.872,2.97q6.625,9,13.226,18.019a43.11,43.11,0,0,0,5.82,6.6A41.81,41.81,0,0,0,49.926,82.889q30.077-.007,60.155,0,5.858,0,11.716,0c2.036,0,4.012-.506,5.035-2.293a3.068,3.068,0,0,1,3.483-1.662,3.149,3.149,0,0,0,.656-.02,3.965,3.965,0,0,0,3.846-4.173c.022-1.273.038-2.546-.011-3.817M15.45,38.158c.154.541.309,1.38-.835,1.3-.913-.067-1.837-.014-2.756-.013h-.394c-3.172,0-3.156,0-2.924-3.2.04-.547.174-.776.755-.767a45.965,45.965,0,0,1,5.376.063c1.674.224.525,1.727.777,2.616m7.409,1.282h-.526c-3.285,0-3.266,0-2.917-3.331.058-.555.273-.63.732-.626,1.84.015,3.68.022,5.519,0,.523-.006.722.183.657.685a.711.711,0,0,0,0,.131c.158,3.143.158,3.143-3.467,3.143" transform="translate(0 0)"/>
        <path id="Trazado_162881" data-name="Trazado 162881" d="M29.428,77.86a36.065,36.065,0,0,1-10.17-9.39C14.541,62.092,9.874,55.677,5.19,49.277c-.173-.235-.319-.491-.488-.754a2.121,2.121,0,0,1,1.454-.211c19.166-.009,38.332.018,57.5-.04a7.567,7.567,0,0,1,5.952,2.475c1.586,1.7,3.269,3.3,4.92,4.941a9.667,9.667,0,0,0,5.992,2.966,3.52,3.52,0,0,0,1.432.1q20.6.008,41.209.005c1.631,0,1.88.265,1.461,1.841-1.379,5.172-2.631,10.379-4.06,15.538-.557,2.012-.727,2.126-2.841,2.126q-23.04.011-46.08,0-19.617,0-39.234.005a8.446,8.446,0,0,1-2.976-.415" transform="translate(-0.476 -4.886)" fill="#596775"/>
        <path id="Trazado_162882" data-name="Trazado 162882" d="M32.213,79.028q44.152-.005,88.3.025c1.48,0,2.1-.337,2.464-1.842,1.257-5.261,2.647-10.492,4.086-15.708.359-1.3-.033-1.453-1.188-1.451q-20.332.046-40.664.01c-.638,0-1.32.2-1.912-.24,14.428,0,28.855-.034,43.283.04,1.871.01,3.758.215,5.635.143,1.122-.043,1.307.258,1.021,1.318-1.545,5.734-3.025,11.485-4.524,17.232-.386,1.478-.781,2.954-1.137,4.439a2.5,2.5,0,0,1-2.664,2.048c-.219.006-.439,0-.658,0-23.726,0-47.451.04-71.176-.023a37.412,37.412,0,0,1-20.869-5.994" transform="translate(-3.261 -6.055)" fill="#35404a"/>
        <path id="Trazado_162883" data-name="Trazado 162883" d="M42.685,41.809H35.6c-.155-.363.171-.544.335-.768q4.609-6.313,9.236-12.615A9.459,9.459,0,0,1,51.752,24.3a2.831,2.831,0,0,1,1.3-.1q24.607-.009,49.213.01c.472,0,1.2-.328,1.374.307.122.456-.525.738-.938.982-3.591,2.126-5.983,5.349-8.075,8.842a53.136,53.136,0,0,0-4.144,8.647c-1.107,2.944-2.716,4.064-5.241,3.811-.425-.042-1.033.087-1.076-.646,2-2.759,4.025-5.509,6.01-8.281,2.189-3.059,1.8-6.46-.941-8.626a6.164,6.164,0,0,0-3.932-1.21q-8.741-.03-17.483,0c-1.745.005-2.429.715-2.46,2.5-.027,1.576.029,3.156-.019,4.731a2.391,2.391,0,0,0,1.9,2.72,3.845,3.845,0,0,1,.081,3.822c-1.706.025-3.413.021-5.117.089-.931.038-.8-.561-.8-1.125,0-3.286.006-6.573,0-9.86-.005-2.271-.62-2.88-2.878-2.885q-2.366,0-4.733,0a6.342,6.342,0,0,0-5.409,2.706c-1.266,1.731-2.521,3.471-3.813,5.183a2.191,2.191,0,0,0,.13,3.168,4.021,4.021,0,0,1-2.011,2.729" transform="translate(-3.6 -2.442)" fill="#fef8ea"/>
        <path id="Trazado_162884" data-name="Trazado 162884" d="M85.984,46.139a4.07,4.07,0,0,0,5.307-1.891c1.3-2.768,2.27-5.683,3.785-8.36a43.44,43.44,0,0,1,4.856-7.151,19.059,19.059,0,0,1,5.476-4.2,2,2,0,0,0-1.415-.23q-25.014.007-50.028.03a3.06,3.06,0,0,1-.39-.048,3.142,3.142,0,0,1,1.795-.242q34.672,0,69.344.019c.219,0,.44-.01.657.012a2.027,2.027,0,0,1,2.057,1.973A1.95,1.95,0,0,1,125.261,28c-2.456.03-4.926.178-7.366-.022-8.227-.673-13.668,3.208-17.373,10.209a44.057,44.057,0,0,0-4.763,13.138c-.155.9-.541,1.114-1.388,1.095-2.367-.052-4.737-.01-7.1-.022a6.832,6.832,0,0,1-4.1-1.161c-.505-.362-.573-.619-.172-1.125,1.028-1.3,2-2.649,2.989-3.977" transform="translate(-5.423 -2.432)" fill="#d2ccbe"/>
        <path id="Trazado_162885" data-name="Trazado 162885" d="M70.888,42.677q-.04-1.91-.08-3.822c1.756-.569,1.981-.921,2.078-2.832.052-1.028-.5-2.424.262-2.983.692-.51,2.013-.188,3.058-.191,4.072-.01,8.144,0,12.216-.009,1.045,0,2.055.052,2.585,1.142.5,1.022,0,1.832-.6,2.641-2.756,3.73-5.521,7.454-8.211,11.231-.629.883-1.026.861-1.618.074-.209-.278-.5-.487-.733-.75-2.374-2.721-5.233-4.472-8.957-4.5" transform="translate(-7.168 -3.315)" fill="#00d2d7"/>
        <path id="Trazado_162886" data-name="Trazado 162886" d="M124.147,4.463h8.45c-.351.381-.588.658-.845.915-3.993,4-8,7.982-11.973,12a2.311,2.311,0,0,1-1.822.773c-4.2-.037-8.392-.018-12.57-.018l5.846-6.11c1.267-.076,2.535-.045,3.8-.022a2.687,2.687,0,0,0,2.1-.876c1.838-1.871,3.707-3.714,5.557-5.573a4.439,4.439,0,0,1,1.46-1.088" transform="translate(-10.668 -0.452)" fill="#d2ccbe"/>
        <path id="Trazado_162887" data-name="Trazado 162887" d="M43.487,42.69,45.5,39.961a2.281,2.281,0,0,0,3.16-.944c1.057-1.505,2.226-2.934,3.241-4.466a3.581,3.581,0,0,1,3.415-1.725c2.948.085,2.95.023,2.95,2.938,0,2.017-.013,4.033.007,6.049.006.617-.1.973-.855.965-4.643-.051-9.286-.064-13.929-.089" transform="translate(-4.402 -3.323)" fill="#00d1d6"/>
        <path id="Trazado_162888" data-name="Trazado 162888" d="M124.806,4.458q-3.676,3.728-7.356,7.454c-.12.122-.275.3-.416.3-1.717.033-3.448.382-5.141-.194q3.407-3.447,6.814-6.893a2.354,2.354,0,0,1,1.773-.711c1.442.023,2.884.031,4.326.044" transform="translate(-11.327 -0.447)" fill="#fef8ea"/>
        <path id="Trazado_162889" data-name="Trazado 162889" d="M145.4,81.225c-.088.8.466,2.071-1.26,1.827-.451-.064-.645-.273-.543-.693.217-.889.48-1.767.7-2.655.1-.394.28-.648.72-.563.413.08.371.431.378.73.011.438,0,.875,0,1.354" transform="translate(-14.534 -8.01)" fill="#343f48"/>
      </g>
    </g>
  </g>
</svg>
